<svg id="圖層_1" data-name="圖層 1" xmlns="http://www.w3.org/2000/svg" viewBox="0 0 277.2229 48.5"><defs><style>.cls-1{fill:#a69266;opacity:0.38;}.cls-1,.cls-3,.cls-4,.cls-5,.cls-6{isolation:isolate;}.cls-2,.cls-4,.cls-5{fill:none;stroke-miterlimit:10;}.cls-2{stroke:#a7916c;}.cls-3,.cls-4,.cls-5,.cls-6{font-size:18.3416px;font-family:KozGoPr6N-Medium-90ms-RKSJ-H, Kozuka Gothic Pr6N;}.cls-3,.cls-6{fill:#715f46;}.cls-4,.cls-5{stroke:#f0efef;}.cls-5,.cls-6{letter-spacing:-0.02em;}</style></defs><title>熱帶雨林室內館(穿山甲館)</title><path class="cls-1" d="M16.775,0H239.2758a12.7582,12.7582,0,0,1,12.735,12.735v16.62a12.7582,12.7582,0,0,1-12.735,12.735H16.775A12.7582,12.7582,0,0,1,4.04,29.3552V12.735A13.047,13.047,0,0,1,16.775,0Z"/><path class="cls-2" d="M21.3078,5.8279H235.6064A13.45,13.45,0,0,1,248.989,19.21V34.32a13.45,13.45,0,0,1-13.3826,13.3825h-4.7109"/><path class="cls-2" d="M46.13,47.9181H14.6166A13.45,13.45,0,0,1,1.234,34.5356V19.4263A13.53,13.53,0,0,1,7.2778,8.2022"/><text class="cls-3" transform="translate(14.8527 31.5097)">熱帶雨林室內館(穿</text><text class="cls-4" transform="translate(14.8527 31.5097)">熱帶雨林室內館(穿</text><text class="cls-5" transform="translate(170.4054 31.5097)">山甲</text><text class="cls-4" transform="translate(210.0226 31.5097)">館)</text><text class="cls-3" transform="translate(14.8527 31.5087)">熱帶雨林室內館(穿</text><text class="cls-6" transform="translate(170.4054 31.5087)">山甲</text><text class="cls-3" transform="translate(210.0226 31.5087)">館)</text></svg>