<svg xmlns="http://www.w3.org/2000/svg" viewBox="0 0 141 74"><defs><style>.cls-1{fill:#aaabab;}</style></defs><title>還沒</title><g id="圖層_2" data-name="圖層 2"><path class="cls-1" d="M25.5591,29.2237a51.1777,51.1777,0,0,0,7.4386-2.8082l-1.3722-.1771c-.1572-.1729.0161-.3323-.0868-.0939-.0383.0887-.0584.185-.091.2763-.077.2156-.1787.4228-.2743.6307q-.3924.8526-.8361,1.68a31.17,31.17,0,0,1-1.9085,3.1089,30.3232,30.3232,0,0,1-4.8141,5.356c-1.0945.967.5122,2.5638,1.6014,1.6015a32.6642,32.6642,0,0,0,5.6364-6.505,30.9752,30.9752,0,0,0,2.0546-3.6267c.61-1.2692,1.4427-2.7932.32-4.0295a1.161,1.161,0,0,0-1.3723-.1771,47.3883,47.3883,0,0,1-6.8975,2.58,1.1334,1.1334,0,0,0,.602,2.1839Z"/><path class="cls-1" d="M29.153,32.4588a56.5406,56.5406,0,0,0,2.2684,11.8053c.4263,1.3892,2.6131.7967,2.1838-.6021a53.6912,53.6912,0,0,1-2.1875-11.2032,1.1618,1.1618,0,0,0-1.1323-1.1323,1.141,1.141,0,0,0-1.1324,1.1323Z"/><path class="cls-1" d="M31.5,34.2463l6.3425,2.3616a1.1378,1.1378,0,0,0,1.3929-.7909,1.163,1.163,0,0,0-.7909-1.393l-6.3425-2.3616a1.1379,1.1379,0,0,0-1.3929.7909,1.1629,1.1629,0,0,0,.7909,1.393Z"/><path class="cls-1" d="M12.3232,29.7527a25.0372,25.0372,0,0,0,4.8806,2.4618,1.1375,1.1375,0,0,0,1.393-.7909,1.1636,1.1636,0,0,0-.7909-1.393q-.3129-.1183-.6226-.2446-.0774-.0316-.1545-.0639.213.09.04.0162c-.0766-.0336-.1534-.0665-.23-.1q-.5923-.2626-1.17-.558a23.7194,23.7194,0,0,1-2.2026-1.2827,1.1409,1.1409,0,0,0-1.5493.4062,1.1582,1.1582,0,0,0,.4062,1.5493Z"/><path class="cls-1" d="M15.0706,35.9769a6.9072,6.9072,0,0,1,2.7349-1.7345l-1.4334-1.0919-.0744,2.45a11.0619,11.0619,0,0,0-.0126,2.2827,1.76,1.76,0,0,0,.8052,1.24c.5654.3367,1.0755.142,1.6615.23,1.406.2107,1.16,2.41,1.1042,3.4-.0567,1.0093-.1425,2.3557-1.0856,2.9522l1.6635,1.2788c1.0439-2.8779,4.9022-2.1831,7.2808-2.09l9.6472.3758c1.4575.0568,1.455-2.2081,0-2.2648-3.8341-.1493-7.6679-.31-11.5024-.448-3.1985-.1155-6.388.4578-7.61,3.8253a1.1433,1.1433,0,0,0,1.6635,1.2788,4.6822,4.6822,0,0,0,2.0371-3.3318,10.1859,10.1859,0,0,0-.0536-4.6564,3.512,3.512,0,0,0-3.1452-2.5844q-.2295.0068-.4586.0232-.581-.0492.2162.2392a8.9419,8.9419,0,0,0,.0425-1.4l.0849-2.8a1.14,1.14,0,0,0-1.4334-1.092,9.3889,9.3889,0,0,0-3.7343,2.317c-1.0249,1.0382.5755,2.6406,1.6015,1.6014Z"/><path class="cls-1" d="M46.4261,25.6768h4.4332a1.1324,1.1324,0,1,0,0-2.2648H46.4261a1.1324,1.1324,0,0,0,0,2.2648Z"/><path class="cls-1" d="M46.345,32.0111q2.486-.5742,5.0156-.9231a1.128,1.128,0,0,0,.6767-.52,1.1323,1.1323,0,0,0-.4062-1.5493,1.3351,1.3351,0,0,0-.8726-.1141q-2.5275.3485-5.0156.923a1.142,1.142,0,0,0-.7909,1.393,1.1573,1.1573,0,0,0,1.393.7909Z"/><path class="cls-1" d="M47.9916,41.3107a10.0881,10.0881,0,0,1,.5872-1.1417q.1609-.2683.3386-.5263.0933-.1357.1912-.2683c.0251-.0339.1477-.1926.0306-.0431-.1214.1549.0173-.021.0333-.041a10.0112,10.0112,0,0,1,.8416-.9258q.2364-.2294.4878-.4427.1129-.0958.2289-.1883c.14-.1114.0283-.0073-.0472.0353a1.7092,1.7092,0,0,0,.1585-.118,1.23,1.23,0,0,0,.52-.6767,1.1571,1.1571,0,0,0-.1141-.8726,1.1448,1.1448,0,0,0-1.5493-.4062,11.1348,11.1348,0,0,0-3.663,4.4723,1.2365,1.2365,0,0,0-.1142.8726,1.1326,1.1326,0,0,0,2.07.27Z"/><path class="cls-1" d="M52.7243,18.7837a9.393,9.393,0,0,1,.9166,7.2,1.1334,1.1334,0,0,0,2.1839.6021,11.7553,11.7553,0,0,0-1.145-8.9448,1.1325,1.1325,0,1,0-1.9555,1.1431Z"/><path class="cls-1" d="M56.065,18.7464a4.9914,4.9914,0,0,1,.3672-.6927c.0223-.0347.2664-.3611.1532-.2235q.107-.13.2228-.2522a3.1853,3.1853,0,0,1,1.1143-.8212q.1-.05.2031-.0951-.1588.0691.0686-.0156-.6377.0513-.7691-.3914l.03.0953c.0668.3165.1573.63.2349.9443.16.6457.3042,1.2977.4835,1.9382a3.0485,3.0485,0,0,0,2.4219,2.47A2.7948,2.7948,0,0,0,63.48,20.25a1.1651,1.1651,0,0,0-.4062-1.5494,1.1419,1.1419,0,0,0-1.5494.4063c-.0367.079-.2395.3262-.0577.141-.0787.08-.1852.1621-.0309.0558-.058.04-.3826.1863-.1186.0919-.0844.03-.17.05-.2554.0758q-.1932.0359.0373-.0024-.0885.0061-.1771.0036c-.2354.0165.1582.0677-.0471-.0063a1.5421,1.5421,0,0,1-.1671-.0513q.2035.0887.0343.001-.1563-.1041.0164.0193l-.0794-.077q-.1328-.15-.0277-.0269-.0607-.0913-.1121-.1883c-.1252-.1981.006.0707-.0635-.1365-.0838-.2495-.153-.5013-.2168-.7566-.1709-.6841-.3382-1.3691-.5073-2.0536-.18-.7285-.4339-1.4948-1.2443-1.7307a2.7268,2.7268,0,0,0-2.0709.5253,5.8885,5.8885,0,0,0-2.3268,2.6122,1.1687,1.1687,0,0,0,.4063,1.5493,1.1408,1.1408,0,0,0,1.5493-.4062Z"/><path class="cls-1" d="M59.3081,29.7232a29.2965,29.2965,0,0,0,4.4064-3.7338l-1.9331-.8008a65.0892,65.0892,0,0,1-.09,9.2062c-.2181,2.5373-.8437,5.4118-3.1074,6.92-1.2073.8041-.0746,2.7666,1.1431,1.9555,2.604-1.7344,3.7071-4.6372,4.0952-7.6334a56.9344,56.9344,0,0,0,.2234-10.4478,1.1463,1.1463,0,0,0-1.9331-.8007,26.327,26.327,0,0,1-3.9481,3.38c-1.1892.8254-.0582,2.7894,1.1431,1.9556Z"/><path class="cls-1" d="M59.71,34.3806c4.2482-.372,8.17,1.9525,12.3778,2.177,1.4565.0778,1.4522-2.1872,0-2.2647-4.22-.2253-8.0806-2.5534-12.3778-2.1771a1.1624,1.1624,0,0,0-1.1324,1.1324A1.141,1.141,0,0,0,59.71,34.3806Z"/><path class="cls-1" d="M72.17,14.9718l2.0363-1.106a12.3163,12.3163,0,0,1,1.6449-.8184c.1645-.0563.3311-.0954.4986-.14q.2241-.0379.0619-.0188.108-.0114.2166-.0147c.0452-.0014.4731.0257.2425-.0063a2.7443,2.7443,0,0,1,.42.1034c.2186.0663-.0516-.064.1182.06a1.9591,1.9591,0,0,1,.1775.1146q-.1379-.1007.01.03.1284.1434.029.0287a1.9154,1.9154,0,0,1,.1147.2008q-.0554-.1422.0136.0508.0345.1111.06.2249t.0428.2312q-.0251-.157-.0018.0538c.0044.1593.0162.3183.0188.4779.0051.3136.0031.6274.0042.941q.0018.5633.0036,1.1265a2.8653,2.8653,0,0,0,.01.3292q-.0512.2016-.0134.0645a.2421.2421,0,0,1,.0873-.1169q-.1791.09-.0343.024-.1051.038-.212.0712c-.133.0431-.267.0836-.4007.1244q-.5351.1632-1.0742.3126-1.0784.2988-2.1708.5418a1.1326,1.1326,0,1,0,.6021,2.1838,30.7621,30.7621,0,0,0,3.8577-1.05,2.1749,2.1749,0,0,0,1.56-1.6741,14.0748,14.0748,0,0,0,.0487-2.1483c-.0042-1.3023.0007-2.7673-1.0594-3.7077a3.8738,3.8738,0,0,0-3.8332-.6019,13.62,13.62,0,0,0-2.0586.9775l-2.1636,1.1751A1.1326,1.1326,0,0,0,72.17,14.9718Z"/><path class="cls-1" d="M71.2062,18.307,77.2147,16.06A18.4638,18.4638,0,0,1,83.05,14.4655a1.133,1.133,0,0,0,0-2.2647,19.3512,19.3512,0,0,0-6.2143,1.5918l-6.231,2.3306a1.1637,1.1637,0,0,0-.7909,1.3929,1.1413,1.1413,0,0,0,1.3929.7909Z"/><path class="cls-1" d="M71.1976,9.1836c3.5854,4.2743,4.7947,9.952,5.6816,15.316a1.1422,1.1422,0,0,0,1.393.7909,1.1581,1.1581,0,0,0,.7909-1.393c-.9605-5.8089-2.3962-11.7042-6.264-16.3154-.9378-1.1179-2.5327.4913-1.6015,1.6015Z"/><path class="cls-1" d="M75.2194,24.3959,82.413,21.464a1.1621,1.1621,0,0,0,.7909-1.3929A1.1438,1.1438,0,0,0,81.811,19.28l-7.1936,2.9319a1.1621,1.1621,0,0,0-.7909,1.3929,1.1438,1.1438,0,0,0,1.3929.7909Z"/><path class="cls-1" d="M71.277,30.3194l8.0441-3.4916a48.3519,48.3519,0,0,1,7.6533-2.9121c1.415-.3462.8158-2.5308-.602-2.1839a49.99,49.99,0,0,0-7.9019,3.0135L70.134,28.3638a1.141,1.141,0,0,0-.4063,1.5493,1.16,1.16,0,0,0,1.5493.4063Z"/><path class="cls-1" d="M78.5349,30.2311A5.5841,5.5841,0,0,0,82.03,36.5978a5.5,5.5,0,0,0,3.7724-.0734,5.9982,5.9982,0,0,0,3.0891-2.8411c.77-1.4063,1.3808-3.0266.4092-4.5034a6.2009,6.2009,0,0,0-3.42-2.3682,7.1659,7.1659,0,0,0-4.0886.0007,4.2888,4.2888,0,0,0-3.0726,2.6518,2.5939,2.5939,0,0,0,2.6968,3.3817,17.9253,17.9253,0,0,0,5.3592-.7992,1.1334,1.1334,0,0,0-.6021-2.1839,17.2334,17.2334,0,0,1-3.4242.6607,9.4642,9.4642,0,0,1-1.6325.0408c-.1862-.0171-.0733-.0363-.2009-.0993.1174.058-.0311-.1342.0017.0016,0-.0013-.0775-.3536-.04-.1657-.0406-.2018.0546-.4066.306-.6541a2.8093,2.8093,0,0,1,1.0127-.5862,4.8893,4.8893,0,0,1,2.5437-.1993,4.5491,4.5491,0,0,1,2.3193,1.1426,1.4133,1.4133,0,0,1,.5021.8236,2.7567,2.7567,0,0,1-.4826,1.4425,4.2617,4.2617,0,0,1-1.7377,1.9959,3.472,3.472,0,0,1-2.15.3072,3.0119,3.0119,0,0,1-1.9637-1.3363,3.2123,3.2123,0,0,1-.5071-1.2475,3.1047,3.1047,0,0,1-.0016-1.1562,1.1605,1.1605,0,0,0-.7909-1.3929,1.1433,1.1433,0,0,0-1.3929.7909Z"/><path class="cls-1" d="M82.4316,28.4056a12.3557,12.3557,0,0,0,2.1938,5.9263,1.1585,1.1585,0,0,0,1.5493.4062,1.1455,1.1455,0,0,0,.4063-1.5493,11.2934,11.2934,0,0,1-.7361-1.1661q-.1765-.3228-.3313-.657c-.0211-.0455-.1886-.41-.0706-.1507-.0443-.0974-.0808-.1993-.1188-.2992a11.1158,11.1158,0,0,1-.41-1.3167q-.0819-.3351-.143-.6748a3.3209,3.3209,0,0,1-.0588-.3632c.02.3037-.01-.0992-.0158-.1555a1.1593,1.1593,0,0,0-1.1324-1.1324,1.1443,1.1443,0,0,0-1.1324,1.1324Z"/><path class="cls-1" d="M81.8115,41.0671q4.7195-1.9188,9.5987-3.4006c1.3908-.4223.798-2.6089-.6021-2.1838q-4.8748,1.48-9.5987,3.4005a1.1686,1.1686,0,0,0-.7909,1.393,1.14,1.14,0,0,0,1.393.7909Z"/><path class="cls-1" d="M76.7639,58.7522A4.8213,4.8213,0,0,0,77.99,63.0015a3.0432,3.0432,0,0,0,3.818.2261,3.9017,3.9017,0,0,0,1.4254-4.0094,4.354,4.354,0,0,0-2.2219-3.0952,3.1425,3.1425,0,0,0-4.116,1.13,1.1326,1.1326,0,0,0,1.9556,1.1431c.0226-.0413.0486-.0811.0709-.1225.0959-.1779-.0276.0681-.0516.0612-.0041-.0012.1986-.1933.1985-.1944.0026.0279-.2337.1469-.06.0539.0411-.0221.08-.049.1208-.0712a1.1039,1.1039,0,0,0,.1263-.0623c-.02.0556-.2524.0819-.0382.0271a1.1934,1.1934,0,0,0,.2427-.06c-.0336.0572-.2529.0175-.0878.0123.0479-.0015.0955-.0062.1435-.007s.0959.0038.1436.0026c.1939-.0047-.0623.0039-.0871-.0184.0513.0461.24.0512.3124.0748.2616.085-.1586-.0917.0892.0393.0937.05.1779.11.2681.1644.13.079-.1525-.138-.042-.0327.038.0362.08.0691.1179.1052.087.0821.1664.17.2451.26.0855.0976.07.01-.03-.04a.6413.6413,0,0,1,.0906.1324c.0586.09.1128.1823.163.2769.0207.039.15.31.08.1549-.0665-.1483.0026.0119.0167.05.0239.066.0463.1325.0664.2.0328.1095.0609.2205.0836.3325a.7886.7886,0,0,1,.03.1693c.0023-.0267-.02-.2634-.01-.0451.0052.1144.0135.2278.0118.3425-.0009.057-.0055.1136-.0071.17-.0061.2193.0347-.1445.0064-.0058-.02.0968-.0362.1934-.062.2889-.0147.0542-.0339.1069-.0488.161-.064.2313.0058-.0447.0224-.036a2.8424,2.8424,0,0,1-.1582.297.6572.6572,0,0,1-.0949.1405c.07-.0344.1451-.1725.014-.0338-.0335.0354-.0681.0694-.1039.1024-.0331.0305-.137.1485-.0255.0286.1065-.1145.0107-.0109-.0339.0181q-.0615.04-.1253.0759c-.0425.0238-.0879.0431-.13.0675-.1029.06.0972-.0413.103-.0416a2.2888,2.2888,0,0,0-.3483.1019c-.1563.0379.0261-.0546.0875-.0083a.879.879,0,0,0-.1428.0088c-.0576.0014-.3187-.0232-.1329.0044.2061.0305-.1235-.0439-.16-.0485-.1385-.0176.1911.1116.0727.0345-.0492-.032-.1059-.0579-.1575-.0871-.2181-.1234.02.0179.0162.0182-.0286.0014-.1345-.1279-.1592-.1543s-.1488-.1705-.0549-.0555c.1.1224-.05-.0761-.067-.1031-.0812-.1261-.15-.2579-.2184-.3909-.0454-.0877-.1-.0933.0062.024a.5819.5819,0,0,1-.062-.1684,3.875,3.875,0,0,1-.12-.4322.9366.9366,0,0,1-.0337-.1763c-.039.0447.02.2131.0016-.0107a3.8241,3.8241,0,0,1-.0127-.4034c.0013-.06.0042-.12.0084-.1793.0047-.0669.0468-.3388.0022-.0552a1.1618,1.1618,0,0,0-.7909-1.393,1.1455,1.1455,0,0,0-1.3929.7909Z"/><path class="cls-1" d="M85.5589,55.382c-.256.1981.029-.0218.0791-.06q.1238-.0944.2479-.1879.2485-.1872.4993-.3714.4857-.3567.98-.7021,1.0041-.7017,2.0408-1.3549A1.1326,1.1326,0,1,0,88.2627,50.75c-1.4861.9379-2.9156,1.9552-4.3052,3.03a1.13,1.13,0,0,0-.3317.8008,1.1524,1.1524,0,0,0,.3317.8007,1.1393,1.1393,0,0,0,.8007.3316,1.3328,1.3328,0,0,0,.8007-.3316Z"/><path class="cls-1" d="M83.7223,49.6492l4.7824,8.6232L90.86,62.52a2.8679,2.8679,0,0,0,.2855.5148l.1428.2574.2917-.6634a6.5076,6.5076,0,0,0-1.0169.2,13.5634,13.5634,0,0,1-2.5022.0964c-1.4573-.0622-1.4543,2.2026,0,2.2647a15.5372,15.5372,0,0,0,2.8259-.138,3.2707,3.2707,0,0,0,2.353-.9373c.5716-.792.2119-1.5906-.21-2.3513L91.531,59.06,85.6778,48.5061c-.707-1.2748-2.6637-.1338-1.9555,1.1431Z"/><path class="cls-1" d="M87.0562,63.0563A13.2188,13.2188,0,0,1,87.915,61.75c.03-.04.0616-.0781.09-.1187-.178.255-.032.043.0068-.0052q.1164-.1452.2372-.287.2533-.2979.5242-.58a13.1,13.1,0,0,1,1.1187-1.0377,2.29,2.29,0,0,1,.2906-.2327c-.2352.1346-.0836.0653-.0218.0192q.0747-.0556.15-.11.332-.24.6786-.4587a1.1325,1.1325,0,1,0-1.1431-1.9555,14.3708,14.3708,0,0,0-4.7455,4.9294,1.1325,1.1325,0,0,0,1.9555,1.1431Z"/><path class="cls-1" d="M91.4354,48.534l1.7079.6488a.8576.8576,0,0,0,.4515.02.8423.8423,0,0,0,.4211-.1344,1.1322,1.1322,0,0,0,.4062-1.5493L94.245,47.29a1.1314,1.1314,0,0,0-.5-.2912L92.0374,46.35a.8576.8576,0,0,0-.4515-.02.8417.8417,0,0,0-.421.1344,1.1324,1.1324,0,0,0-.4063,1.5493l.1771.2292a1.1314,1.1314,0,0,0,.5.2912Z"/><path class="cls-1" d="M92.8988,54.633q1.24-1.1542,2.5684-2.2074.1563-.1236.3137-.2456c-.0876.0678-.07.0534.0077-.0053.0529-.04.1057-.0805.1587-.12q.3376-.2555.6807-.5039.7059-.5115,1.433-.993a1.1325,1.1325,0,0,0-1.1431-1.9555,43.8313,43.8313,0,0,0-5.6205,4.43,1.1418,1.1418,0,0,0,0,1.6015,1.1564,1.1564,0,0,0,1.6014,0Z"/><path class="cls-1" d="M92.2344,54.4935l5.2,4.245a1.16,1.16,0,0,0,1.6014,0,1.1451,1.1451,0,0,0,0-1.6015l-5.2-4.2449a1.1594,1.1594,0,0,0-1.6014,0,1.145,1.145,0,0,0,0,1.6014Z"/><path class="cls-1" d="M95.9215,50.1275a27.3722,27.3722,0,0,1,1.1925,6.8,1.1324,1.1324,0,0,0,2.2648,0,30.2986,30.2986,0,0,0-1.2735-7.4015,1.1326,1.1326,0,1,0-2.1838.602Z"/><path class="cls-1" d="M95.6357,62.074q6.0036-3.22,12.2361-5.9813a1.14,1.14,0,0,0,.4063-1.5494,1.1605,1.1605,0,0,0-1.5493-.4062Q100.5,56.8965,94.4926,60.1184c-1.2849.6892-.1424,2.645,1.1431,1.9556Z"/><path class="cls-1" d="M110.3039,48.24c-.0126.1463.0492-.1581.0626-.1939-.0541.1446.1183-.142.0308-.0421a1.4562,1.4562,0,0,1,.4766-.3969,3.0676,3.0676,0,0,1,1.462-.2244,10.8312,10.8312,0,0,0,3.9585-.0762,4.4984,4.4984,0,0,0,2.6127-2.4448,10.3372,10.3372,0,0,0,.6994-4.1155,1.1331,1.1331,0,0,0-2.2648,0,7.1219,7.1219,0,0,1-.6123,3.4086,2.3937,2.3937,0,0,1-2.4728,1.1173,9.8624,9.8624,0,0,0-3.8971.0989,3.3482,3.3482,0,0,0-2.32,2.869,1.1414,1.1414,0,0,0,1.1324,1.1324,1.1557,1.1557,0,0,0,1.1324-1.1324Z"/><path class="cls-1" d="M57.1661,58.2981a108.905,108.905,0,0,0-17.8114-3.082q-4.5214-.4-9.0661-.4115c-2.8534-.0071-5.7041.1917-8.557.1615a18.3926,18.3926,0,0,1-7.9493-1.5021A14.7145,14.7145,0,0,1,8.5058,48.93a27.4228,27.4228,0,0,1-3.451-6.4758,20.8163,20.8163,0,0,1-1.7791-8.1372c.11-2.8052,1.5325-5.2915,3.1405-7.5131a33.1959,33.1959,0,0,1,5.1313-5.5329,46.3933,46.3933,0,0,1,13.0812-7.8016A102.3748,102.3748,0,0,1,41.5328,8.5926C47.5081,7.3052,53.5092,6.1311,59.4991,4.914a48.5,48.5,0,0,1,9.0365-1.2428,43.5278,43.5278,0,0,1,9.13,1.0824c5.6632,1.1433,11.3684,2.23,16.9837,3.5907,4.3818,1.0616,9.2112,2.6363,11.9787,6.453,2.6912,3.7115,3.3919,8.8068,7.6712,11.244,4.2049,2.3948,9.2834,1.178,13.7028,2.8123,4.334,1.6028,6.6258,6.1769,8.2157,10.2067,1.7814,4.5149,4.4477,10.6335.2214,14.5913-4.0243,3.7687-10.1731,3.3059-15.185,4.5411-10.1062,2.4908-18.1152,10.15-28.4206,12.0551-10.01,1.85-20.3837-1.5468-28.7583-6.9522a53.2429,53.2429,0,0,1-5.9665-4.48c-1.0973-.95-2.706.6456-1.6014,1.6014,7.9881,6.9126,18.0873,11.9266,28.7538,12.53A34.4239,34.4239,0,0,0,100.85,70.1008c4.9938-2.1363,9.5745-5.0988,14.4991-7.3773a34.8471,34.8471,0,0,1,7.7951-2.6327c2.98-.594,6.0453-.7655,8.9726-1.6191a13.998,13.998,0,0,0,6.4115-3.71,9.517,9.517,0,0,0,2.4364-7.2757,29.8944,29.8944,0,0,0-2.2613-8.25,35.769,35.769,0,0,0-3.1643-6.6484,15.1972,15.1972,0,0,0-4.83-4.925,16.59,16.59,0,0,0-7.1283-1.96c-2.3967-.2293-4.9108-.2471-7.1793-1.1508-2.34-.9319-3.7008-2.9248-4.7819-5.0993a34.6671,34.6671,0,0,0-3.5444-6.4676,16.2256,16.2256,0,0,0-5.5287-4.3121C97.7394,6.29,92.27,5.4944,87.07,4.4065c-3.1129-.6513-6.2217-1.3285-9.3418-1.9448a43.6959,43.6959,0,0,0-9.5571-1.0483A53.7852,53.7852,0,0,0,58.897,2.73q-4.851.9858-9.7016,1.974c-6.0928,1.24-12.2165,2.4105-18.1862,4.17-10.4711,3.087-20.9373,8.3627-27.17,17.6772a15.04,15.04,0,0,0-2.8345,7.9355,22.7192,22.7192,0,0,0,1.8666,8.5689c1.7714,4.6116,4.4288,9.2106,8.7754,11.822,5.0261,3.02,11.0547,2.2974,16.6452,2.2054a104.4551,104.4551,0,0,1,19.0443,1.4183q4.6564.7839,9.2282,1.98a1.1333,1.1333,0,0,0,.6021-2.1838Z"/></g></svg>