<svg id="圖層_1" data-name="圖層 1" xmlns="http://www.w3.org/2000/svg" viewBox="0 0 47.6964 47.293"><defs><style>.cls-1{fill:#fff;}.cls-2{fill:#8a6139;}</style></defs><title>buyton</title><circle class="cls-1" cx="23.8482" cy="23.6465" r="23.6305"/><path class="cls-2" d="M31.2841,25.1949c-.78.48-1.33-.16-1.69-.82a.416.416,0,0,0-.18-.17,5.82,5.82,0,0,1,.29-1.54,6.2173,6.2173,0,0,1,.43-1.03c.11-.5.4-.65.86-.44.45-.12.7.04.76.48a4.6716,4.6716,0,0,1,.22,2.37A1.6392,1.6392,0,0,1,31.2841,25.1949Z"/><path class="cls-2" d="M28.9041,25.6049a3.4455,3.4455,0,0,1-.46-.65c-.28-.52.54-.96.97-.75a6.7775,6.7775,0,0,0-.04.9A.56.56,0,0,1,28.9041,25.6049Z"/><path class="cls-2" d="M27.1841,28.0749c.75.48,1.97.85,1.87,2.04-.22,2.64-2.93,2.24-4.75,1.88-1.94-.38-5.47,1.43-6.11-1.2a.3412.3412,0,0,0-.21-.24,2.1969,2.1969,0,0,1,.9-2.61c1.27-1,.7-.45,1.61-.84.35-.15.67-.32,1-.5,1.73-.96-2-.14,1.81-.78,1.67-.28,1.57-.09,2.54,1.03A5.3568,5.3568,0,0,0,27.1841,28.0749Z"/><path class="cls-2" d="M28.4441,24.9549a3.4455,3.4455,0,0,0,.46.65c-.36.1-.8-.02-.81-.42-.02-1.64.39-4.09,1.92-5.03a2.01,2.01,0,0,1,3.04,1.33c.46,1.52.41,3.51-1.03,4.49a2.2747,2.2747,0,0,1-3.12-.37.56.56,0,0,0,.47-.5,6.7775,6.7775,0,0,1,.04-.9.416.416,0,0,1,.18.17c.36.66.91,1.3,1.69.82a1.6392,1.6392,0,0,0,.69-1.15,4.6716,4.6716,0,0,0-.22-2.37c-.06-.44-.31-.6-.76-.48-.46-.21-.75-.06-.86.44a6.2173,6.2173,0,0,0-.43,1.03,5.82,5.82,0,0,0-.29,1.54C28.9841,23.9949,28.1641,24.4349,28.4441,24.9549Z"/><path class="cls-2" d="M28.2141,18.0449c-.4.71-2.02,2.24-2.32.69-.03-.18-.2-.26-.41-.26a13.3069,13.3069,0,0,1,.41-2.42c.17-.59.33-1.26,1.07-1.38a1.3538,1.3538,0,0,1,1.35.78A2.6827,2.6827,0,0,1,28.2141,18.0449Z"/><path class="cls-2" d="M24.6341,19.0649c-.07-.35.46-.61.85-.59-.01.11-.02.21-.03.31-.03.27-.42.46-.77.48A1.17,1.17,0,0,1,24.6341,19.0649Z"/><path class="cls-2" d="M24.1841,18.9149c.16-1.54.27-4.35,2.06-4.96a2.7539,2.7539,0,0,1,3.45,1.4,3.7084,3.7084,0,0,1-1.74,4.26c-1.15.73-2.83,1.23-3.27-.35.35-.02.74-.21.77-.48.01-.1.02-.2.03-.31.21,0,.38.08.41.26.3,1.55,1.92.02,2.32-.69a2.6827,2.6827,0,0,0,.1-2.59,1.3538,1.3538,0,0,0-1.35-.78c-.74.12-.9.79-1.07,1.38a13.3069,13.3069,0,0,0-.41,2.42c-.39-.02-.92.24-.85.59a1.17,1.17,0,0,0,.05.2C24.4041,19.2749,24.1541,19.1749,24.1841,18.9149Z"/><path class="cls-2" d="M21.4841,18.9449c-.07.23-.27.89-.49.95-.44.11-1.06-.73-1.23-1.01a.254.254,0,0,0-.13-.09,4.7069,4.7069,0,0,1,.12-2.63c.17-.42.51-1.25,1.09-1.1.39.09.6.7.68,1.04A6.1886,6.1886,0,0,1,21.4841,18.9449Z"/><path class="cls-2" d="M19.6941,19.0849c.05.23-.57.45-.96.46h-.01a3.6173,3.6173,0,0,1-.22-.32c-.09-.17.77-.54,1.13-.43C19.6541,18.8949,19.6741,18.9849,19.6941,19.0849Z"/><path class="cls-2" d="M19.7541,16.1649a4.7069,4.7069,0,0,0-.12,2.63c-.36-.11-1.22.26-1.13.43a3.6173,3.6173,0,0,0,.22.32c-.16,0-.27-.04-.29-.12-.37-1.7-.21-3.79,1.52-4.71a1.8347,1.8347,0,0,1,2.79.89c.44,1.35.3,3.7-1.02,4.53a2.2654,2.2654,0,0,1-2.99-.59c.39-.01,1.01-.23.96-.46-.02-.1-.04-.19-.06-.29a.254.254,0,0,1,.13.09c.17.28.79,1.12,1.23,1.01.22-.06.42-.72.49-.95a6.1886,6.1886,0,0,0,.04-2.84c-.08-.34-.29-.95-.68-1.04C20.2641,14.9149,19.9241,15.7449,19.7541,16.1649Z"/><path class="cls-2" d="M16.9341,31.1349c-.11-.46.66-.76,1.05-.58.03.16.06.32.09.5.07.42-.56.71-.96.62h-.01A4.2627,4.2627,0,0,1,16.9341,31.1349Z"/><path class="cls-2" d="M19.6641,33.4949a2.8651,2.8651,0,0,1-2.55-1.82c.4.09,1.03-.2.96-.62-.03-.18-.06-.34-.09-.5a.3412.3412,0,0,1,.21.24c.64,2.63,4.17.82,6.11,1.2,1.82.36,4.53.76,4.75-1.88.1-1.19-1.12-1.56-1.87-2.04a5.3568,5.3568,0,0,1-1.34-1.22c-.97-1.12-.87-1.31-2.54-1.03-3.81.64-.08-.18-1.81.78-.33.18-.65.35-1,.5-.91.39-.34-.16-1.61.84a2.1969,2.1969,0,0,0-.9,2.61c-.39-.18-1.16.12-1.05.58a4.2627,4.2627,0,0,0,.17.54.3394.3394,0,0,1-.29-.28c-.28-1.62-.46-3.56,1.11-4.6.68-.45,1.36-.23,2.03-.5.83-.34,1.26-1.22,2.02-1.64a3.5188,3.5188,0,0,1,3.67.22c.92.6,1.33,1.63,2.25,2.2.64.39,1.29.44,1.78,1.02,2.57,3.05-1.13,5.15-3.8,5.19-1.15.02-2.26-.61-3.4-.44C21.5041,32.9849,20.6741,33.5449,19.6641,33.4949Z"/><path class="cls-2" d="M15.6741,22.9849c-.02-.37-.23-2.52.84-1.76.42.31.46,1.43.41,1.87-.03.33-.33,1.7-.8,1.6a.6213.6213,0,0,0-.26.02A16.636,16.636,0,0,1,15.6741,22.9849Z"/><path class="cls-2" d="M15.3341,25.2949c-.54-.12.1-.49.53-.58.02.11.03.21.05.32s-.08.22-.23.31C15.5741,25.3349,15.4441,25.3149,15.3341,25.2949Z"/><path class="cls-2" d="M16.5141,21.2249c-1.07-.76-.86,1.39-.84,1.76a16.636,16.636,0,0,0,.19,1.73c-.43.09-1.07.46-.53.58.11.02.24.04.35.05-.35.19-.99.26-1.03.03a18.0358,18.0358,0,0,1-.27-2.74,2.262,2.262,0,0,1,.38-1.57,2.4319,2.4319,0,0,1,2.7-.49c.97.65.87,2.42.43,3.34a2.4479,2.4479,0,0,1-2.21,1.43c.15-.09.25-.2.23-.31s-.03-.21-.05-.32a.6213.6213,0,0,1,.26-.02c.47.1.77-1.27.8-1.6C16.9741,22.6549,16.9341,21.5349,16.5141,21.2249Z"/></svg>