<?xml version="1.0" encoding="utf-8"?>
<!-- Generator: Adobe Illustrator 24.0.1, SVG Export Plug-In . SVG Version: 6.00 Build 0)  -->
<svg version="1.1" id="Capa_1" xmlns="http://www.w3.org/2000/svg" xmlns:xlink="http://www.w3.org/1999/xlink" x="0px" y="0px"
	 viewBox="0 0 512 512" style="enable-background:new 0 0 512 512;" xml:space="preserve">
<style type="text/css">
	.st0{fill:#EA7A60;}
</style>
<g>
	<g>
		<path class="st0" d="M256,91c-57.9,0-105,47.1-105,105s47.1,105,105,105s105-47.1,105-105S313.9,91,256,91z M271,211h-30v45
			c0,8.3-6.7,15-15,15s-15-6.7-15-15V136c0-8.3,6.7-15,15-15h45c24.8,0,45,20.2,45,45S295.8,211,271,211z"/>
	</g>
</g>
<g>
	<g>
		<path class="st0" d="M271,151h-30v30h30c8.3,0,15-6.7,15-15S279.3,151,271,151z"/>
	</g>
</g>
<g>
	<g>
		<path class="st0" d="M256,0C148.5,0,61,88.5,61,196c0,42.4,13.4,82.8,38.9,116.7L244,506c2.8,3.8,7.3,6,12,6c4.7,0,9.2-2.2,12-6
			l144.1-193.2C437.6,278.8,451,238.4,451,196C451,88.5,363.5,0,256,0z M256,331c-74.4,0-135-60.6-135-135S181.6,61,256,61
			s135,60.6,135,135S330.4,331,256,331z"/>
	</g>
</g>
</svg>
