<svg xmlns="http://www.w3.org/2000/svg" viewBox="0 0 58 79"><defs><style>.cls-1{fill:#e48539;}</style></defs><title>position</title><g id="圖層_2" data-name="圖層 2"><path class="cls-1" d="M28.5568.5666a28.2357,28.2357,0,0,0-27.75,28.65c.308,19.2975,25.9965,47.2245,27.09,48.4039a2.54,2.54,0,0,0,3.7786-.06c1.0554-1.2137,25.84-29.9462,25.5317-49.2437A28.236,28.236,0,0,0,28.5568.5666Zm1.14,71.4376C21.0426,62.0509,6.0964,42.38,5.885,29.136a23.1248,23.1248,0,0,1,46.2438-.7382C52.34,41.6424,38.0313,61.7765,29.6969,72.0042Z"/><path class="cls-1" d="M28.7805,14.5786A14.19,14.19,0,1,0,43.1948,28.54,14.2059,14.2059,0,0,0,28.7805,14.5786Zm.3718,23.2981a9.1111,9.1111,0,1,1,8.9643-9.2553A9.121,9.121,0,0,1,29.1523,37.8767Z"/></g></svg>