<svg xmlns="http://www.w3.org/2000/svg" viewBox="0 0 198 276"><defs><style>.cls-1{fill:#e48539;}.cls-2{fill:none;stroke:#e48539;stroke-miterlimit:10;}</style></defs><title>position</title><g id="圖層_2" data-name="圖層 2"><path class="cls-1" d="M198.014,97.8977c1.0415,67.8221-85.9166,168.7091-89.6918,172.8748a8.8918,8.8918,0,0,1-13.278.26C91.2691,266.8672,1.0566,168.8441.0151,101.1521A99.0128,99.0128,0,0,1,198.014,97.8977ZM101.4229,251.246c29.29-35.7986,79.4078-106.4846,78.7569-152.9577a81.1757,81.1757,0,1,0-162.33,2.6035C18.5,147.3649,70.9615,216.3586,101.4229,251.246Z"/><path class="cls-1" d="M180.18,98.2883c.6509,46.4731-49.4672,117.1591-78.7569,152.9577C70.9615,216.3586,18.5,147.3649,17.8494,100.8918a81.1757,81.1757,0,1,1,162.33-2.6035ZM99.7306,149.3176A49.7988,49.7988,0,1,0,49.222,100.3711,49.9525,49.9525,0,0,0,99.7306,149.3176Z"/><path class="cls-2" d="M98.1684,49.7323a49.7988,49.7988,0,1,0,50.6388,48.9465A49.7582,49.7582,0,0,0,98.1684,49.7323Z"/></g></svg>