<svg id="svg2985" xmlns="http://www.w3.org/2000/svg" viewBox="0 0 297.8687 270.9685"><defs><style>.cls-1{fill:#822222;}</style></defs><title>stamp</title><path id="rect3256-1" class="cls-1" d="M145.0983,16.925A119.3581,119.3581,0,0,0,36.551,86.6013H4.238c-2.25,0-3.87,2.1358-3.87,5.352v85.7826c0,3.2163,1.6175,5.352,4.0706,5.352H35.2947a119.3715,119.3715,0,0,0,219.5822,0h39.2479c2.125,0,3.7439-2.1356,3.7439-5.3519V91.9533c0-3.2162-1.6009-5.352-3.87-5.352H253.6457A119.347,119.347,0,0,0,145.0983,16.925Zm0,5.5027A113.7989,113.7989,0,0,1,247.54,86.6013h-3.4675a110.4013,110.4013,0,0,0-197.6467,0H42.6316A113.8447,113.8447,0,0,1,145.0983,22.4277Zm.4021,4.6484A108.5823,108.5823,0,0,1,242.389,86.6013H206.2065a78.7436,78.7436,0,0,0-122.2414,0H48.6118A108.5822,108.5822,0,0,1,145.5,27.0761Zm3.7187,6.0555A5.4621,5.4621,0,0,0,145.5,34.7147a6.8788,6.8788,0,0,0-1.8343,4.8243,6.5987,6.5987,0,0,0,1.4322,4.7741,5.4481,5.4481,0,0,0,4.0705,1.8844,5.3854,5.3854,0,0,0,3.3921-.8542,5.5481,5.5481,0,0,0,2.0353-2.99l-2.4373-.9046a3.8327,3.8327,0,0,1-1.1559,2.01,2.494,2.494,0,0,1-1.7588.5528,2.8182,2.8182,0,0,1-2.2112-1.1056,5.2752,5.2752,0,0,1-.7286-3.4424,4.9911,4.9911,0,0,1,1.0051-3.2413,2.9021,2.9021,0,0,1,2.3367-.9046,2.6776,2.6776,0,0,1,1.7087.6281,2.7207,2.7207,0,0,1,.8794,1.6082l2.5378-.5026a5.0153,5.0153,0,0,0-1.2061-2.387,5.22,5.22,0,0,0-3.6936-1.5327c-.2215-.0089-.4418-.01-.6533,0Zm-13.3422.4272-2.89.4774-2.06,5.4274-3.769-4.4725-2.9649.5025,5.7791,6.4827.8794,5.2515,2.5127-.4272-.8794-5.2264,3.392-8.0154Zm26.71,1.2564a5.4668,5.4668,0,0,0-.6282.1005,5.05,5.05,0,0,0-1.8593.7789,6.0039,6.0039,0,0,0-1.4825,1.4825,8.055,8.055,0,0,0-1.2312,3.0654,6.5212,6.5212,0,0,0,.6784,4.9751,6.0028,6.0028,0,0,0,4.0706,2.588,5.8746,5.8746,0,0,0,4.6986-.804,6.6671,6.6671,0,0,0,2.6132-4.372,6.6,6.6,0,0,0-.6784-5.0505,5.9692,5.9692,0,0,0-4.0454-2.6132,7.5049,7.5049,0,0,0-2.1357-.1507Zm-40.3786,1.2061-9.6235,2.94.6534,2.0605,3.568-1.1056,3.1157,10.0507,2.4372-.7539-3.0906-10.0506,3.568-1.1056Zm41.3586,1.005a3.5921,3.5921,0,0,1,.7287.1005,3.26,3.26,0,0,1,2.2865,1.5579,4.7336,4.7336,0,0,1,.2764,3.367,4.8371,4.8371,0,0,1-1.6333,3.04,3.1805,3.1805,0,0,1-2.6634.5779,3.2573,3.2573,0,0,1-2.2614-1.583,4.8223,4.8223,0,0,1-.3015-3.4172,4.7153,4.7153,0,0,1,1.583-2.99,3.1943,3.1943,0,0,1,1.985-.6533Zm11.0306.6282-4.4977,11.8347,2.2112.8291,2.94-7.7138,1.8342,9.5229,2.4122.93,4.4977-11.8347-2.2363-.8544-2.99,7.915-1.8343-9.7492-2.3368-.88Zm-64.5,2.4121-2.3619.98,4.85,11.6839,2.3619-.98ZM187.261,42.73l-1.03,1.8845,3.2916,1.8091L184.4216,55.62l2.2363,1.2563,5.1007-9.2214,3.2917,1.8342,1.03-1.8846L187.261,42.73ZM99.4181,45.2176l-2.2614,1.1809,5.88,11.1061,7.89-4.1711-1.0051-1.8844-5.6283,2.9649-4.8746-9.1964Zm99.577,4.2716L191.3566,59.59l2.0353,1.5328,3.1911-4.2213.4271.3266a4.0147,4.0147,0,0,1,.93.88,1.8874,1.8874,0,0,1,.3015.8794,18.1369,18.1369,0,0,1-.0506,2.3116l-.1758,3.3168,2.4372,1.8343.2513-2.9147a14.19,14.19,0,0,0,.0756-2.5127,5.8211,5.8211,0,0,0-.4523-1.6585,4.0673,4.0673,0,0,0,2.7137.578,3.3953,3.3953,0,0,0,2.0855-1.382,3.6635,3.6635,0,0,0,.7537-1.9347,2.9012,2.9012,0,0,0-.4522-1.8594,8.996,8.996,0,0,0-2.1358-2.0353l-4.2967-3.2413ZM90.1714,50.8963l-2.186,1.6081L91.478,65.6205l2.186-1.5829-.8543-2.94,4.0957-2.99,2.588,1.6583,2.2363-1.6332L90.1714,50.8963Zm109.5775,1.8342,1.583,1.2061c.8276.6239,1.3091,1.0081,1.4574,1.1559a1.5629,1.5629,0,0,1,.4773.98,1.5028,1.5028,0,0,1-.3517,1.03,1.65,1.65,0,0,1-.7789.603,1.38,1.38,0,0,1-.9046,0,10.45,10.45,0,0,1-1.91-1.2815l-1.5076-1.1306,1.9347-2.563ZM90.8,54.0874l4.1711,2.789-2.7891,2.0353Zm-9.3219,3.6182-1.8092,1.8092,4.9751,4.95a14.0931,14.0931,0,0,1,1.4322,1.583,1.8012,1.8012,0,0,1,.3015,1.2563,2.5708,2.5708,0,0,1-.8291,1.4825,2.7478,2.7478,0,0,1-1.5328.8543,2.0626,2.0626,0,0,1-1.4321-.3267A13.9678,13.9678,0,0,1,81,67.8819l-4.8494-4.8494-1.8091,1.8091,4.7991,4.774a15.2575,15.2575,0,0,0,2.4374,2.0856,3.5489,3.5489,0,0,0,1.5076.5025,3.9835,3.9835,0,0,0,1.8091-.2764A7.1143,7.1143,0,0,0,87.131,70.269a6.5569,6.5569,0,0,0,1.4574-1.9851,3.8785,3.8785,0,0,0,.3267-1.784,3.5932,3.5932,0,0,0-.578-1.6834,17.2363,17.2363,0,0,0-2.1357-2.4122l-4.7238-4.6987Zm128.9753,2.8393a6.1831,6.1831,0,0,0-2.0855.3518,8.0525,8.0525,0,0,0-2.7388,1.8343,6.4936,6.4936,0,0,0-2.2614,4.4725,5.9928,5.9928,0,0,0,1.8593,4.4474,5.8833,5.8833,0,0,0,4.3218,2.01,7.7191,7.7191,0,0,0,6.935-6.6586,5.9558,5.9558,0,0,0-1.8342-4.4474,6.8442,6.8442,0,0,0-2.2364-1.6081,5.0025,5.0025,0,0,0-1.96-.4021Zm-65.3545.6031a74.8809,74.8809,0,0,1,56.3341,25.4533h-3.7942a71.9982,71.9982,0,0,0-104.8789,0h-4.02A74.9421,74.9421,0,0,1,145.0983,61.148Zm65.455,1.8593a3.5194,3.5194,0,0,1,3.5178,3.6435,4.7528,4.7528,0,0,1-1.6835,2.94,4.8438,4.8438,0,0,1-3.0655,1.583,3.2326,3.2326,0,0,1-2.5378-1.0554,3.18,3.18,0,0,1-.93-2.5629,5.8692,5.8692,0,0,1,4.6987-4.548Zm-65.2038,2.01a70.6569,70.6569,0,0,1,50.9068,21.5838H94.443A70.63,70.63,0,0,1,145.35,65.0175ZM72.5325,70.0428a5.5669,5.5669,0,0,0-.578.0507,6.678,6.678,0,0,0-5.2514,7.2616,7.8491,7.8491,0,0,0,7.8143,5.6535,6.07,6.07,0,0,0,4.0706-2.7137,6.8725,6.8725,0,0,0,1.181-2.5629c1.1905-.4409,1.83-.6617,1.91-.7035a5.74,5.74,0,0,0,1.03-.6533l-.9046-1.8092a8.3046,8.3046,0,0,1-2.06,1.03,6.0786,6.0786,0,0,0-.8543-1.9851,8.2773,8.2773,0,0,0-2.06-2.06,7.0177,7.0177,0,0,0-4.2966-1.5076Zm148.5491.3267-10.2769,7.2616,5.151,7.2616,1.7337-1.2312-3.6685-5.1761,8.518-6.03Zm-148.65,2.186a5.1094,5.1094,0,0,1,2.8393,1.1307,6.469,6.469,0,0,1,1.382,1.3066,3.8425,3.8425,0,0,1,.7036,1.4322,8.6629,8.6629,0,0,0-2.4625,1.181l.7789,1.4322a7.279,7.279,0,0,1,1.5579-.8041,2.9708,2.9708,0,0,1-.4523.9549,3.17,3.17,0,0,1-2.3367,1.3568A4.9316,4.9316,0,0,1,71.1756,79.39,4.8166,4.8166,0,0,1,69.09,76.6763a3.4811,3.4811,0,0,1,2.965-4.0956,3.052,3.052,0,0,1,.3769-.0249ZM40.4707,117.3564A13.9794,13.9794,0,0,1,50.4963,121a13.3056,13.3056,0,0,1,3.4424,6.2063l-6.734,1.6081a6.9248,6.9248,0,0,0-7.0857-5.6535,7.6887,7.6887,0,0,0-6.0807,2.6886q-2.3184,2.6855-2.3116,8.6938,0,6.3811,2.2865,9.0959a7.4818,7.4818,0,0,0,5.98,2.7137,6.7889,6.7889,0,0,0,4.6485-1.7338,9.961,9.961,0,0,0,2.8142-5.4022l6.5832,2.0855a14.8,14.8,0,0,1-5.05,8.1913,14.4134,14.4134,0,0,1-8.9451,2.6634,14.4691,14.4691,0,0,1-11.0055-4.573q-4.3155-4.5909-4.3218-12.5383c0-5.6007,1.4546-9.9245,4.3469-13.0156a14.8668,14.8668,0,0,1,11.4076-4.6736Zm19.423.578H84.8445v5.6786H66.6779v7.4627H83.563v5.6785H66.6779v9.1713H85.4727v5.6536H59.8937V117.9343Zm31.4083,0h14.2972a24.245,24.245,0,0,1,7.84.9045,7.6624,7.6624,0,0,1,3.92,3.2162,9.7021,9.7021,0,0,1,1.4824,5.3018,9.071,9.071,0,0,1-2.2362,6.2816,10.7256,10.7256,0,0,1-6.6586,3.0906,15.5318,15.5318,0,0,1,3.6182,2.8142,37.727,37.727,0,0,1,3.8947,5.4776l4.0956,6.5581h-8.1159l-4.9248-7.3119a47.388,47.388,0,0,0-3.568-4.95,4.9793,4.9793,0,0,0-2.0353-1.382,10.7946,10.7946,0,0,0-3.4172-.402h-1.382V151.579H91.302V117.9343Zm31.5341,0h26.76v5.6786h-9.9753v27.9661h-6.7841V123.613H122.8361Zm30.9561,0h6.7842v33.6447h-6.7842Zm13.2919,0H190.15v5.6786H173.8683v7.9652h14.0459v5.7037H173.8683v14.2972h-6.7842V117.9343Zm28.4937,0h6.7843v33.6447h-6.7843Zm13.2419,0h24.9508v5.6786H215.6039v7.4627H232.489v5.6785H215.6039v9.1713h18.7948v5.6536H208.82V117.9343Zm31.3581,0h12.4377a24.3974,24.3974,0,0,1,6.4074.6281,11.2154,11.2154,0,0,1,5.05,3.1157,14.6518,14.6518,0,0,1,3.2163,5.4525,24.711,24.711,0,0,1,1.1055,7.94,22.12,22.12,0,0,1-1.03,7.1611,14.86,14.86,0,0,1-3.5932,5.955,11.9453,11.9453,0,0,1-4.7741,2.6886,20.7174,20.7174,0,0,1-6.03.7036H240.1779V117.9344ZM98.1114,123.613v8.5431h5.0254a26.2077,26.2077,0,0,0,6.1057-.402,3.6847,3.6847,0,0,0,1.91-1.4323,4.337,4.337,0,0,0,.6784-2.5127,3.9834,3.9834,0,0,0-.93-2.7387,4.0569,4.0569,0,0,0-2.5377-1.3317c-.5511-.0764-2.1957-.1257-4.95-.1257Zm148.8757,0v22.3125h5.0756a18.2892,18.2892,0,0,0,4.0957-.3267,6.2191,6.2191,0,0,0,2.7388-1.4071,7.0714,7.0714,0,0,0,1.784-3.2413,22.0565,22.0565,0,0,0,.7035-6.1811,19.9474,19.9474,0,0,0-.7035-5.98,7.7121,7.7121,0,0,0-1.91-3.2665,6.5379,6.5379,0,0,0-3.166-1.5829,30.6618,30.6618,0,0,0-5.5781-.3267ZM41.3,183.0879h4.171a110.4432,110.4432,0,0,0,199.5563,0h3.8445a113.8754,113.8754,0,0,1-207.5718,0Zm6.4576,0H81.7791a78.7512,78.7512,0,0,0,126.6134,0h34.8508a108.6462,108.6462,0,0,1-195.4858,0Zm38.5947,0h4.372a72.0571,72.0571,0,0,0,108.9242,0h4.171a75.1515,75.1515,0,0,1-117.4672,0Zm6.156,0h105.708a70.8466,70.8466,0,0,1-105.7081,0Zm-19.2471,1.5328-1.7337,1.2312,3.6685,5.2012-8.518,6.0052,1.4573,2.0855,10.2769-7.2364-5.151-7.2867ZM215.2772,186.48c-.1983.0082-.4064.0226-.603.0507a6.07,6.07,0,0,0-4.0705,2.7136,6.705,6.705,0,0,0-1.1559,2.5379c-1.1906.4409-1.83.6868-1.91.7286a5.85,5.85,0,0,0-1.0553.6281l.93,1.8342a8.3039,8.3039,0,0,1,2.06-1.03,5.94,5.94,0,0,0,.8543,1.96,8.277,8.277,0,0,0,2.06,2.06,6.6813,6.6813,0,0,0,4.8746,1.4825,5.8984,5.8984,0,0,0,4.02-2.6132,5.9746,5.9746,0,0,0,1.2312-4.6735,6.6236,6.6236,0,0,0-2.94-4.1459,7.0474,7.0474,0,0,0-4.2967-1.5327Zm-.1508,2.4876a5.3577,5.3577,0,0,1,2.89,1.181,4.8315,4.8315,0,0,1,2.1106,2.6885,3.2834,3.2834,0,0,1-.603,2.7136,3.2124,3.2124,0,0,1-2.3619,1.4071,4.7731,4.7731,0,0,1-3.2163-1.1307,6.4689,6.4689,0,0,1-1.382-1.3066,3.8082,3.8082,0,0,1-.7286-1.407,8.722,8.722,0,0,0,2.4624-1.206l-.7538-1.4322a7.5427,7.5427,0,0,1-1.583.8291,3.04,3.04,0,0,1,.4774-.9548,3.17,3.17,0,0,1,2.3368-1.3568,2.8194,2.8194,0,0,1,.3517-.025Zm-135.458,6.8846a7.835,7.835,0,0,0-6.96,6.6838,5.9306,5.9306,0,0,0,1.8594,4.4223,6.9431,6.9431,0,0,0,2.2363,1.6332,5.0019,5.0019,0,0,0,1.96.402,6.04,6.04,0,0,0,2.06-.3518,8.1306,8.1306,0,0,0,2.7639-1.8343A6.5458,6.5458,0,0,0,85.85,202.31a6.6825,6.6825,0,0,0-6.1812-6.4576ZM205.704,197.31a4.31,4.31,0,0,0-1.3821.3016,7.1121,7.1121,0,0,0-2.2362,1.6582,6.5593,6.5593,0,0,0-1.4574,1.9851,3.8786,3.8786,0,0,0-.3266,1.784,3.503,3.503,0,0,0,.5779,1.6583,17.0336,17.0336,0,0,0,2.1358,2.4373l4.6987,4.6987,1.8091-1.8091-4.95-4.95a13.7686,13.7686,0,0,1-1.4322-1.6081,1.7482,1.7482,0,0,1-.3267-1.2311,2.63,2.63,0,0,1,.8543-1.4826,2.8037,2.8037,0,0,1,1.5328-.8794,2.0783,2.0783,0,0,1,1.4322.3518,14.5927,14.5927,0,0,1,1.5578,1.4322l4.8746,4.8243,1.7841-1.8091-4.7741-4.7489a15.6927,15.6927,0,0,0-2.4374-2.1106,3.5291,3.5291,0,0,0-1.5076-.4775,3.13,3.13,0,0,0-.4271-.0249Zm-125.81,1.03a3.1813,3.1813,0,0,1,2.5127,1.0553,3.253,3.253,0,0,1,.9548,2.588,4.7161,4.7161,0,0,1-1.6583,2.9651,4.8383,4.8383,0,0,1-3.04,1.5829,3.2422,3.2422,0,0,1-2.5379-1.1056,3.2071,3.2071,0,0,1-.98-2.5629,4.7526,4.7526,0,0,1,1.6835-2.94,4.8429,4.8429,0,0,1,3.0654-1.583Zm8.87,4.7489-.2512,2.89a14.1729,14.1729,0,0,0-.0757,2.5127,5.9726,5.9726,0,0,0,.4523,1.6835,4.0666,4.0666,0,0,0-2.7137-.5779,3.3948,3.3948,0,0,0-2.0855,1.382,3.6622,3.6622,0,0,0-.7538,1.9347,2.8287,2.8287,0,0,0,.4522,1.8342,8.9859,8.9859,0,0,0,2.1358,2.06l4.2967,3.2413L97.86,209.9232l-2.06-1.5327-3.166,4.2213-.4271-.3016a4,4,0,0,1-.93-.9045,1.8874,1.8874,0,0,1-.3015-.88,17.6185,17.6185,0,0,1,.0506-2.2865l.1759-3.3167-2.4373-1.8343Zm108.9744.804-2.1859,1.6081.8543,2.94-4.0957,2.99-2.5881-1.6834-2.2363,1.6333,11.5583,7.2365,2.1861-1.5831-3.4927-13.1413Zm-.7035,6.734,1.382,4.7993-4.171-2.764ZM87.508,211.7574a1.4322,1.4322,0,0,1,.4523.0757A9.6789,9.6789,0,0,1,89.895,213.09l1.5076,1.1306-1.9347,2.5881-1.5831-1.2061c-.8277-.6239-1.3091-1.0081-1.4573-1.1559a1.5636,1.5636,0,0,1-.4774-.98,1.5035,1.5035,0,0,1,.3518-1.03,1.65,1.65,0,0,1,.7789-.6031,1.2512,1.2512,0,0,1,.4272-.0756Zm98.6474.2764-7.8647,4.1711,1.005,1.8845,5.6033-2.99,4.9,9.2215,2.2614-1.2061Zm-83.6217.6282-5.0756,9.1964-3.2916-1.8092-1.03,1.8846,8.8195,4.8494,1.03-1.8594L99.6944,223.09l5.1007-9.1963Zm7.1863,3.8192-4.4978,11.8347,2.2112.8292,3.0152-7.89,1.8343,9.7492,2.3367.8795,4.4978-11.8348-2.2364-.8543-2.9146,7.7139-1.8343-9.523-2.4121-.9045Zm66.9123.3016-2.3619.98,4.85,11.7091,2.3619-.98-4.85-11.709Zm-7.337,2.7639-2.4372.7538,3.09,10.0759-3.568,1.08.6282,2.06,9.5984-2.965-.6282-2.0353-3.593,1.1056Zm-44.1475,2.01a5.42,5.42,0,0,0-2.764.9548,7.75,7.75,0,0,0-1.9348,9.4477,5.9414,5.9414,0,0,0,4.0455,2.588,6.8922,6.8922,0,0,0,2.7639.0506,4.944,4.944,0,0,0,1.8342-.7789,6.0079,6.0079,0,0,0,1.5076-1.4574,8.058,8.058,0,0,0,1.2313-3.0655,6.5849,6.5849,0,0,0-.7036-5,5.95,5.95,0,0,0-4.0454-2.588,7.25,7.25,0,0,0-1.9348-.1508Zm33.2174.7538-2.5127.4021.8543,5.2515-3.3921,8.0154,2.9147-.4774,2.06-5.4274,3.769,4.4474,2.94-.4775-5.7541-6.4826-.8794-5.2515Zm-18.3174,1.0051a5.4617,5.4617,0,0,0-3.4172.8543,5.5886,5.5886,0,0,0-2.01,3.0152l2.4373.8795a3.7294,3.7294,0,0,1,1.1306-1.985,2.5756,2.5756,0,0,1,1.784-.578,2.8185,2.8185,0,0,1,2.2112,1.1056,5.3541,5.3541,0,0,1,.7286,3.4675,4.9143,4.9143,0,0,1-1.005,3.2163,2.9216,2.9216,0,0,1-2.3368.93,2.6957,2.6957,0,0,1-1.7086-.6533,2.6549,2.6549,0,0,1-.8795-1.5829l-2.5377.5025a4.9956,4.9956,0,0,0,1.181,2.387,5.28,5.28,0,0,0,3.7186,1.5328,5.6209,5.6209,0,0,0,4.3721-1.5831,6.9448,6.9448,0,0,0,1.8343-4.8494,6.5991,6.5991,0,0,0-1.4323-4.7741,5.4484,5.4484,0,0,0-4.0705-1.8845Zm-14.1211.4523a3.6831,3.6831,0,0,1,.7287.1005,3.2106,3.2106,0,0,1,2.2362,1.583,4.7421,4.7421,0,0,1,.3267,3.3921,4.8007,4.8007,0,0,1-1.6081,3.0152,3.5234,3.5234,0,0,1-4.9751-1.0051,6.0509,6.0509,0,0,1,1.3569-6.4324,3.11,3.11,0,0,1,1.9347-.6533Z"/></svg>