<svg id="圖層_1" data-name="圖層 1" xmlns="http://www.w3.org/2000/svg" viewBox="0 0 141.7323 85.0394"><defs><style>.cls-1{fill:#a99467;opacity:0.38;}.cls-2{fill:none;stroke:#a9936d;}.cls-2,.cls-3{stroke-miterlimit:10;}.cls-3{fill:#231815;stroke:#efefef;}.cls-4{fill:#726046;}</style></defs><title>企鵝館</title><rect class="cls-1" x="52.3304" y="31.4524" width="38.4645" height="19.464" rx="5.8636"/><path class="cls-2" d="M60.2974,34.123H83.1736a6.2465,6.2465,0,0,1,6.2283,6.2282v7.0075a6.2465,6.2465,0,0,1-6.2283,6.2282H78.0577"/><path class="cls-2" d="M71.788,53.5869H57.1656a6.2465,6.2465,0,0,1-6.2282-6.2282V40.3512a6.2372,6.2372,0,0,1,2.8467-5.2236"/><path class="cls-3" d="M61.34,39.8933a.2249.2249,0,0,1-.2038.153,10.39,10.39,0,0,0,3.6429,3.0491,4.0811,4.0811,0,0,0-.5347.7219,12.06,12.06,0,0,1-3.5838-3.16,11.0454,11.0454,0,0,1-3.5076,3.1933,4.2491,4.2491,0,0,0-.501-.6368,9.96,9.96,0,0,0,3.5838-3.3889Zm-.1613,5.0111v1.9615h3.1928v.7308H57.051v-.7308h1.028V43.7577l.9849.06c-.0083.068-.0592.1188-.195.1442v2.9044h1.4605V42.2375l1.0528.068c-.0083.0679-.0674.1188-.2033.1442v1.7239h2.4034v.7308Z"/><path class="cls-3" d="M70.33,43.7152c-.0254.0679-.1022.085-.1784.0767a8.9426,8.9426,0,0,1-1.0108,2.1145c.1192,1.0109.3143,1.0109.3314,1.0109.085,0,.17-.4844.2209-1.0534a2.1046,2.1046,0,0,0,.416.3823,4.0116,4.0116,0,0,1-.1271.6877h.0083a4.96,4.96,0,0,0,.2547-1.3163l.5352.1358a4.385,4.385,0,0,1-.4756,1.8345l-.4756-.263a.5027.5027,0,0,1-.4419.2972c-.3822,0-.6027-.3656-.7557-1.0362a7.5337,7.5337,0,0,1-.62.654,3.0463,3.0463,0,0,0-.3734-.374c0,.7562-.0425.9855-1.2484.9855a2.8832,2.8832,0,0,0-.2121-.6883c.1442.0088.2884.0088.3989.0088.34,0,.3739,0,.3739-.1276V45.227l-.5352.2293a.1965.1965,0,0,1-.1105.153l-.3055-.8154c.263-.085.5944-.2038.9512-.34V42.9849h-.8241V42.28H66.95V41.125c-.2126.0592-.4248.1105-.6286.1613a2.42,2.42,0,0,0-.2381-.586,7.3458,7.3458,0,0,0,1.6732-.6712l.5606.5436v-.569l.875.0426c0,.0767-.06.1187-.1872.1441-.0083.6966-.0166,1.41-.0166,2.09h1.1379v.7048h-1.13c.0083.6286.0254,1.223.0508,1.7494a9.0054,9.0054,0,0,0,.569-1.4351ZM68.3347,42.28c-.0089-.5265-.0089-1.07-.0172-1.6052a.4938.4938,0,0,1-.1016-.0083,5.6723,5.6723,0,0,1-.6628.2717l.2717.0166c-.0083.068-.0591.11-.1867.1276V42.28Zm-.6966,2.658v1.7582a6.1568,6.1568,0,0,0,.85-1.0108c-.0851-.7557-.1276-1.69-.1447-2.7006h-.7049V44.2l.5353-.2044.127.654Zm2.0212-4.603a5.8581,5.8581,0,0,1,.5181,1.486l-.5944.2126a5.9908,5.9908,0,0,0-.4756-1.529ZM74.05,44.267H71.1032v.4336h2.3355l.1358-.0088.3569.0425-.0254.2038c-.0851,1.7837-.1873,2.4377-.3823,2.6669-.1613.2038-.34.2464-.8832.2464-.1022,0-.221,0-.3315-.0089a1.7583,1.7583,0,0,0-.1524-.56c.2629.0254.501.0337.6109.0337.2889,0,.3486-.2463.4165-.8915l-.3822.1442a4.8146,4.8146,0,0,0-.3994-.917l.3739-.1276a4.6017,4.6017,0,0,1,.4077.8578h.0083c.0254-.28.0513-.6286.0768-1.0787H70.3984V40.6749h1.0191a6.9092,6.9092,0,0,0,.2121-.79l.8833.1784c-.0171.06-.0763.0933-.1867.1016-.0509.1447-.1188.3314-.1956.51h1.3677v2.59H71.1032V43.69H74.05Zm-2.9723,3.0237a7.427,7.427,0,0,0-.1022-1.4014l.45-.0679a6.991,6.991,0,0,1,.1359,1.3931Zm1.7157-6.0469h-1.69v.4673h1.69Zm-1.69,1.4522h1.69V42.22h-1.69Zm.9,4.28a6.2641,6.2641,0,0,0-.2972-1.1721l.4159-.0934a5.6242,5.6242,0,0,1,.3226,1.1467Z"/><path class="cls-3" d="M82.642,44.4625H80.2386v.5944h2.7431v2.7265h-.7473v-.3143H80.2386v.3734H79.5V42.2972h-.5181v-.7308l-.4248.3823a8.3148,8.3148,0,0,0-1.1633-1.2059,9.5032,9.5032,0,0,1-1.0954,1.4859h.7811v-.7894l.85.0592c-.0088.06-.06.11-.1784.1276v.6026h.9937V45.074H76.7476v1.3843l1.028-.2293c-.153-.2292-.3226-.4673-.4844-.6706l.6031-.3143A8.2224,8.2224,0,0,1,79.1427,47.18l-.654.3569a5.1274,5.1274,0,0,0-.34-.7049c-.8661.221-1.7494.45-2.3267.5861a.1554.1554,0,0,1-.1192.1359l-.3143-.8241c.1872-.0338.4076-.0763.6374-.1271V42.5093l-.1022.1017a2.2167,2.2167,0,0,0-.5518-.501,6.9037,6.9037,0,0,0,1.656-2.2421l.9.153a.1985.1985,0,0,1-.1956.1187,9.8115,9.8115,0,0,1,1.2484,1.155V40.87H80.68v-.9766l.9766.0513c-.0083.0763-.0591.1188-.195.1442V40.87h1.7748v1.4273H82.642Zm-4.62-1.6389H76.7476V43.35h1.2743ZM76.7476,44.48h1.2743v-.5518H76.7476Zm5.75-2.964h-2.811v.6877h2.811Zm-.6026,2.3017V42.849H80.2386v.9683Zm.34,1.9107H80.2386v1.0534h1.9958Z"/><path class="cls-4" d="M61.34,39.8933a.2249.2249,0,0,1-.2038.153,10.39,10.39,0,0,0,3.6429,3.0491,4.0811,4.0811,0,0,0-.5347.7219,12.06,12.06,0,0,1-3.5838-3.16,11.0454,11.0454,0,0,1-3.5076,3.1933,4.2491,4.2491,0,0,0-.501-.6368,9.96,9.96,0,0,0,3.5838-3.3889Zm-.1613,5.0111v1.9615h3.1928v.7308H57.051v-.7308h1.028V43.7577l.9849.06c-.0083.068-.0592.1188-.195.1442v2.9044h1.4605V42.2375l1.0528.068c-.0083.0679-.0674.1188-.2033.1442v1.7239h2.4034v.7308Z"/><path class="cls-4" d="M70.33,43.7152c-.0254.0679-.1022.085-.1784.0767a8.9426,8.9426,0,0,1-1.0108,2.1145c.1192,1.0109.3143,1.0109.3314,1.0109.085,0,.17-.4844.2209-1.0534a2.1046,2.1046,0,0,0,.416.3823,4.0116,4.0116,0,0,1-.1271.6877h.0083a4.96,4.96,0,0,0,.2547-1.3163l.5352.1358a4.385,4.385,0,0,1-.4756,1.8345l-.4756-.263a.5027.5027,0,0,1-.4419.2972c-.3822,0-.6027-.3656-.7557-1.0362a7.5337,7.5337,0,0,1-.62.654,3.0463,3.0463,0,0,0-.3734-.374c0,.7562-.0425.9855-1.2484.9855a2.8832,2.8832,0,0,0-.2121-.6883c.1442.0088.2884.0088.3989.0088.34,0,.3739,0,.3739-.1276V45.227l-.5352.2293a.1965.1965,0,0,1-.1105.153l-.3055-.8154c.263-.085.5944-.2038.9512-.34V42.9849h-.8241V42.28H66.95V41.125c-.2126.0592-.4248.1105-.6286.1613a2.42,2.42,0,0,0-.2381-.586,7.3458,7.3458,0,0,0,1.6732-.6712l.5606.5436v-.569l.875.0426c0,.0767-.06.1187-.1872.1441-.0083.6966-.0166,1.41-.0166,2.09h1.1379v.7048h-1.13c.0083.6286.0254,1.223.0508,1.7494a9.0054,9.0054,0,0,0,.569-1.4351ZM68.3347,42.28c-.0089-.5265-.0089-1.07-.0172-1.6052a.4938.4938,0,0,1-.1016-.0083,5.6723,5.6723,0,0,1-.6628.2717l.2717.0166c-.0083.068-.0591.11-.1867.1276V42.28Zm-.6966,2.658v1.7582a6.1568,6.1568,0,0,0,.85-1.0108c-.0851-.7557-.1276-1.69-.1447-2.7006h-.7049V44.2l.5353-.2044.127.654Zm2.0212-4.603a5.8581,5.8581,0,0,1,.5181,1.486l-.5944.2126a5.9908,5.9908,0,0,0-.4756-1.529ZM74.05,44.267H71.1032v.4336h2.3355l.1358-.0088.3569.0425-.0254.2038c-.0851,1.7837-.1873,2.4377-.3823,2.6669-.1613.2038-.34.2464-.8832.2464-.1022,0-.221,0-.3315-.0089a1.7583,1.7583,0,0,0-.1524-.56c.2629.0254.501.0337.6109.0337.2889,0,.3486-.2463.4165-.8915l-.3822.1442a4.8146,4.8146,0,0,0-.3994-.917l.3739-.1276a4.6017,4.6017,0,0,1,.4077.8578h.0083c.0254-.28.0513-.6286.0768-1.0787H70.3984V40.6749h1.0191a6.9092,6.9092,0,0,0,.2121-.79l.8833.1784c-.0171.06-.0763.0933-.1867.1016-.0509.1447-.1188.3314-.1956.51h1.3677v2.59H71.1032V43.69H74.05Zm-2.9723,3.0237a7.427,7.427,0,0,0-.1022-1.4014l.45-.0679a6.991,6.991,0,0,1,.1359,1.3931Zm1.7157-6.0469h-1.69v.4673h1.69Zm-1.69,1.4522h1.69V42.22h-1.69Zm.9,4.28a6.2641,6.2641,0,0,0-.2972-1.1721l.4159-.0934a5.6242,5.6242,0,0,1,.3226,1.1467Z"/><path class="cls-4" d="M82.642,44.4625H80.2386v.5944h2.7431v2.7265h-.7473v-.3143H80.2386v.3734H79.5V42.2972h-.5181v-.7308l-.4248.3823a8.3148,8.3148,0,0,0-1.1633-1.2059,9.5032,9.5032,0,0,1-1.0954,1.4859h.7811v-.7894l.85.0592c-.0088.06-.06.11-.1784.1276v.6026h.9937V45.074H76.7476v1.3843l1.028-.2293c-.153-.2292-.3226-.4673-.4844-.6706l.6031-.3143A8.2224,8.2224,0,0,1,79.1427,47.18l-.654.3569a5.1274,5.1274,0,0,0-.34-.7049c-.8661.221-1.7494.45-2.3267.5861a.1554.1554,0,0,1-.1192.1359l-.3143-.8241c.1872-.0338.4076-.0763.6374-.1271V42.5093l-.1022.1017a2.2167,2.2167,0,0,0-.5518-.501,6.9037,6.9037,0,0,0,1.656-2.2421l.9.153a.1985.1985,0,0,1-.1956.1187,9.8115,9.8115,0,0,1,1.2484,1.155V40.87H80.68v-.9766l.9766.0513c-.0083.0763-.0591.1188-.195.1442V40.87h1.7748v1.4273H82.642Zm-4.62-1.6389H76.7476V43.35h1.2743ZM76.7476,44.48h1.2743v-.5518H76.7476Zm5.75-2.964h-2.811v.6877h2.811Zm-.6026,2.3017V42.849H80.2386v.9683Zm.34,1.9107H80.2386v1.0534h1.9958Z"/></svg>