<?xml version="1.0" encoding="utf-8"?>
<!-- Generator: Adobe Illustrator 24.0.1, SVG Export Plug-In . SVG Version: 6.00 Build 0)  -->
<svg version="1.1" id="圖層_1" xmlns="http://www.w3.org/2000/svg" xmlns:xlink="http://www.w3.org/1999/xlink" x="0px" y="0px"
	 viewBox="0 0 141.7 85" style="enable-background:new 0 0 141.7 85;" xml:space="preserve">
<style type="text/css">
	.st0{opacity:0.38;fill:#A99467;enable-background:new    ;}
	.st1{fill:none;stroke:#A9936D;stroke-miterlimit:10;}
	.st2{fill:#726046;}
	.st3{font-family:'KozGoPr6N-Medium-90ms-RKSJ-H';}
	.st4{font-size:8.4975px;}
	.st5{fill:none;stroke:#EFEFEF;stroke-miterlimit:10;}
</style>
<title>兩棲爬蟲動物館</title>
<path class="st0" d="M39.2,31.5H104c3.2,0,5.9,2.6,5.9,5.9v7.7c0,3.2-2.6,5.9-5.9,5.9H39.2c-3.2,0-5.9-2.6-5.9-5.9v-7.7
	C33.3,34.1,35.9,31.5,39.2,31.5z"/>
<path class="st1" d="M41.3,34.1h61c3.4,0,6.2,2.8,6.2,6.2v7c0,3.4-2.8,6.2-6.2,6.2h-5.1"/>
<path class="st1" d="M52.7,53.6H38.1c-3.4,0-6.2-2.8-6.2-6.2v-7c0-2.1,1.1-4.1,2.8-5.2"/>
<text transform="matrix(1 0 0 1 37.4542 46.6924)" class="st2 st3 st4">兩棲爬蟲動物館</text>
<text transform="matrix(1 0 0 1 37.4542 46.6924)" class="st5 st3 st4">兩棲爬蟲動物館</text>
<text transform="matrix(1 0 0 1 37.4543 46.6924)" class="st2 st3 st4">兩棲爬蟲動物館</text>
</svg>
