<?xml version="1.0" encoding="utf-8"?>
<!-- Generator: Adobe Illustrator 24.0.1, SVG Export Plug-In . SVG Version: 6.00 Build 0)  -->
<svg version="1.1" id="圖層_1" xmlns="http://www.w3.org/2000/svg" xmlns:xlink="http://www.w3.org/1999/xlink" x="0px" y="0px"
	 viewBox="0 0 141.7 85" style="enable-background:new 0 0 141.7 85;" xml:space="preserve">
<style type="text/css">
	.st0{opacity:0.38;fill:#A99467;enable-background:new    ;}
	.st1{fill:none;stroke:#A9936D;stroke-miterlimit:10;}
	.st2{fill:#726046;}
	.st3{font-family:'KozGoPr6N-Medium-90ms-RKSJ-H';}
	.st4{font-size:8.4975px;}
	.st5{fill:none;stroke:#EFEFEF;stroke-miterlimit:10;}
	.st6{fill:#E58732;stroke:#FFFFFF;stroke-width:0.5;stroke-miterlimit:10;enable-background:new    ;}
</style>
<title>新光特展館(大貓熊館)</title>
<path class="st0" d="M27.5,33h88.3c3.2,0,5.9,2.6,5.9,5.9v7.7c0,3.2-2.6,5.9-5.9,5.9H27.5c-3.2,0-5.9-2.6-5.9-5.9v-7.7
	C21.7,35.6,24.3,33,27.5,33z"/>
<path class="st1" d="M29.6,35.7h84.5c3.4,0,6.2,2.8,6.2,6.2v7c0,3.4-2.8,6.2-6.2,6.2H109"/>
<path class="st1" d="M41.1,55.1H26.5c-3.4,0-6.2-2.8-6.2-6.2v-7c0-2.1,1.1-4.1,2.8-5.2"/>
<text transform="matrix(1 0 0 1 24.6539 47.3423)" class="st2 st3 st4">新光特展館(大貓熊館)</text>
<text transform="matrix(1 0 0 1 24.6539 47.3423)" class="st5 st3 st4">新光特展館(大貓熊館)</text>
<text transform="matrix(1 0 0 1 24.6542 47.3422)" class="st2 st3 st4">新光特展館(大貓熊館)</text>
<polygon class="st6" points="120.5,29.9 121.3,33.8 125.1,35.3 121.6,37.4 121.3,41.4 118.3,38.7 114.4,39.7 116,36 113.9,32.6 
	117.9,33 "/>
</svg>
