<?xml version="1.0" encoding="utf-8"?>
<!-- Generator: Adobe Illustrator 24.0.1, SVG Export Plug-In . SVG Version: 6.00 Build 0)  -->
<svg version="1.1" id="圖層_1" xmlns="http://www.w3.org/2000/svg" xmlns:xlink="http://www.w3.org/1999/xlink" x="0px" y="0px"
	 viewBox="0 0 141.7 85" style="enable-background:new 0 0 141.7 85;" xml:space="preserve">
<style type="text/css">
	.st0{opacity:0.38;fill:#A99467;enable-background:new    ;}
	.st1{fill:none;stroke:#A9936D;stroke-miterlimit:10;}
	.st2{fill:#726046;}
	.st3{font-family:'KozGoPr6N-Medium-90ms-RKSJ-H';}
	.st4{font-size:8.4975px;}
	.st5{fill:none;stroke:#EFEFEF;stroke-miterlimit:10;}
	.st6{fill:#E58732;stroke:#FFFFFF;stroke-width:0.5;stroke-miterlimit:10;enable-background:new    ;}
</style>
<title>熱帶雨林室內館(穿山甲館)</title>
<path class="st0" d="M18.5,33.1h106c3.2,0,5.9,2.6,5.9,5.9v7.7c0,3.2-2.6,5.9-5.9,5.9h-106c-3.2,0-5.9-2.6-5.9-5.9V39
	C12.7,35.8,15.3,33.1,18.5,33.1z"/>
<path class="st1" d="M20.6,35.8h102.2c3.4,0,6.2,2.8,6.2,6.2v7c0,3.4-2.8,6.2-6.2,6.2h-5.1"/>
<path class="st1" d="M32.1,55.3H17.5c-3.4,0-6.2-2.8-6.2-6.2v-7c0-2.1,1.1-4.1,2.8-5.2"/>
<text transform="matrix(1 0 0 1 17.6092 47.6978)" class="st2 st3 st4">熱帶雨林室內館(穿</text>
<text transform="matrix(1 0 0 1 17.6092 47.6978)" class="st5 st3 st4">熱帶雨林室內館(穿</text>
<text transform="matrix(1 0 0 1 95.9735 47.6978)" class="st2 st3 st4">山甲</text>
<text transform="matrix(1 0 0 1 95.9735 47.6978)" class="st5 st3 st4">山甲</text>
<text transform="matrix(1 0 0 1 114.328 47.6978)" class="st2 st3 st4">館)</text>
<text transform="matrix(1 0 0 1 114.328 47.6978)" class="st5 st3 st4">館)</text>
<text transform="matrix(1 0 0 1 17.6095 47.6975)" class="st2 st3 st4">熱帶雨林室內館(穿</text>
<text transform="matrix(1 0 0 1 95.9738 47.6975)" class="st2 st3 st4">山甲</text>
<text transform="matrix(1 0 0 1 114.3283 47.6975)" class="st2 st3 st4">館)</text>
<polygon class="st6" points="130,28.4 130.9,32.3 134.6,33.8 131.2,35.9 130.9,39.9 127.9,37.2 124,38.2 125.6,34.5 123.5,31.1 
	127.5,31.5 "/>
</svg>
