<svg id="圖層_1" data-name="圖層 1" xmlns="http://www.w3.org/2000/svg" viewBox="0 0 47.6964 47.293"><defs><style>.cls-1{fill:#fff;}.cls-2{fill:#eeac48;}</style></defs><title>buyton</title><circle class="cls-1" cx="23.8482" cy="23.6465" r="23.6305"/><path class="cls-2" d="M25.01,14.0885,26.74,19.4113a1.2216,1.2216,0,0,0,1.1618.8442h5.5968a1.2217,1.2217,0,0,1,.7181,2.21l-4.5279,3.29a1.2217,1.2217,0,0,0-.4438,1.3659l1.73,5.3228a1.2217,1.2217,0,0,1-1.88,1.3659l-4.5278-3.29a1.2217,1.2217,0,0,0-1.4362,0l-4.5279,3.29a1.2217,1.2217,0,0,1-1.88-1.3659l1.7295-5.3228a1.2219,1.2219,0,0,0-.4438-1.3659l-4.5279-3.29a1.2216,1.2216,0,0,1,.7181-2.21h5.5967a1.2216,1.2216,0,0,0,1.1619-.8442l1.7295-5.3228A1.2217,1.2217,0,0,1,25.01,14.0885Z"/></svg>