<svg id="圖層_1" data-name="圖層 1" xmlns="http://www.w3.org/2000/svg" viewBox="0 0 47.6964 47.293"><defs><style>.cls-1{fill:#fff;}.cls-2{fill:#8a6139;}</style></defs><title>buyton</title><circle class="cls-1" cx="23.8482" cy="23.6465" r="23.6305"/><path class="cls-2" d="M18.0746,31.0558c-.25-1.44-.4471-2.125.8067-3.1074,1.2774-1.0009.7028-.4571,1.6118-.8474a10.899,10.899,0,0,0,.9966-.4973c1.7377-.9637-1.9914-.1409,1.8169-.7823,1.6693-.2812,1.5684-.086,2.5364,1.0308a5.4193,5.4193,0,0,0,1.3422,1.2265c.7523.4795,1.966.8508,1.8683,2.0316-.219,2.6472-2.9264,2.2434-4.7445,1.887-1.9443-.3811-5.4733,1.4293-6.1181-1.1987-.14-.57-1.4-.239-1.2585.3373A2.915,2.915,0,0,0,19.6658,33.49c1.0117.0581,1.84-.5056,2.8041-.646,1.1477-.1671,2.2532.4621,3.4075.4436,2.67-.0428,6.3683-2.1465,3.801-5.1881-.4954-.587-1.14-.6363-1.7793-1.027-.9234-.5646-1.34-1.5938-2.2549-2.1987a3.52,3.52,0,0,0-3.6663-.2231c-.7629.4291-1.19,1.3-2.02,1.6408-.6723.2758-1.3542.0577-2.038.5071-1.5692,1.0313-1.3844,2.9787-1.104,4.5943.0987.5691,1.3607.2521,1.2585-.3372Z"/><path class="cls-2" d="M29.3735,25.1056a7.3756,7.3756,0,0,1,.33-2.4427,6.4484,6.4484,0,0,1,.4324-1.03q.1665-.7458.8567-.4367.6725-.18.757.4831a4.6242,4.6242,0,0,1,.2276,2.3665,1.632,1.632,0,0,1-.6977,1.1472c-.7785.4774-1.33-.1534-1.6886-.8139-.2891-.5324-1.4785-.0379-1.1475.5718a2.3806,2.3806,0,0,0,3.5838,1.0231c1.44-.98,1.4827-2.9695,1.0239-4.4843a2.0014,2.0014,0,0,0-3.0324-1.3334c-1.5367.9423-1.9479,3.39-1.9249,5.0283.01.6915,1.2883.53,1.28-.0786Z"/><path class="cls-2" d="M25.4521,18.7871a14.9575,14.9575,0,0,1,.439-2.7307c.1748-.5941.3281-1.257,1.0707-1.38a1.3643,1.3643,0,0,1,1.3539.7831,2.684,2.684,0,0,1-.0968,2.5825c-.41.7115-2.0294,2.2394-2.3242.6888-.0972-.5114-1.36-.1968-1.2585.3372.3443,1.8115,2.1218,1.3058,3.3141.5429a3.7062,3.7062,0,0,0,1.7469-4.2536A2.7616,2.7616,0,0,0,26.24,13.9512c-1.7884.6105-1.9,3.4236-2.0547,4.9606-.0588.5822,1.2167.3769,1.2673-.1247Z"/><path class="cls-2" d="M19.6927,19.0861a4.9488,4.9488,0,0,1,.0628-2.9217c.1677-.421.5072-1.25,1.0911-1.1044.3919.0978.5947.7067.6782,1.0474a6.1175,6.1175,0,0,1-.045,2.8407c-.0654.2245-.2654.8889-.4838.943-.4407.109-1.0668-.7285-1.2292-1.0041-.1921-.326-1.376.1379-1.2585.3373a2.309,2.309,0,0,0,3.2177.9059c1.3158-.8272,1.4533-3.1708,1.02-4.5221a1.8371,1.8371,0,0,0-2.796-.8923c-1.7228.916-1.8884,3.0056-1.5156,4.7075.0643.2935,1.3295-.0136,1.2586-.3372Z"/><path class="cls-2" d="M15.9118,25.0365c-.11-.6811-.1947-1.3642-.2367-2.0531-.0222-.3653-.2278-2.5171.8341-1.7544.4274.307.4613,1.4215.418,1.868-.0315.3241-.3346,1.7024-.7994,1.6018-.3306-.0715-1.4617.449-.7949.5933a2.377,2.377,0,0,0,2.5632-1.3781c.4381-.9171.5379-2.6864-.4284-3.3351a2.4217,2.4217,0,0,0-2.701.4837,2.257,2.257,0,0,0-.38,1.57,18.3932,18.3932,0,0,0,.2663,2.7417c.0539.3351,1.3212.052,1.2585-.3373Z"/></svg>