<svg id="圖層_1" data-name="圖層 1" xmlns="http://www.w3.org/2000/svg" viewBox="0 0 85.3849 85.3849"><defs><style>.cls-1{fill:#fbe8b8;}</style></defs><title>diet</title><path class="cls-1" d="M51.6765,31.2061c2.6005.5291,4.6576.92,6.7005,1.3752a3.9445,3.9445,0,0,1,2.5322,1.4377,1.1509,1.1509,0,0,1,.1494,1.4531c-.3321.44-.81.36-1.2815.2029a64.259,64.259,0,0,0-9.422-1.9159,3.5715,3.5715,0,0,0-3.0975.7465Q39.88,40.5391,32.4764,46.5406a3.3293,3.3293,0,0,0-.4987.4906c-.3919.4891-1.1477.9223-.95,1.5706.248.8143,1.1722.6083,1.8305.65,4.7536.3033,9.0336,2.262,13.4016,3.8681,2.2413.824,4.4366,1.7781,6.71,2.5267a5.35,5.35,0,0,1,2.893,1.8648.9794.9794,0,0,1,.0242,1.2922.94.94,0,0,1-1.2734.1407C50.1008,56.4369,45.1487,55.0429,40.35,53.25c-3.5725-1.3345-7.3123-1.4041-11.0045-1.8838a1.8733,1.8733,0,0,0-1.5914.5486,31.2482,31.2482,0,0,0-3.2907,3.3842q-6.94,8.6877-13.93,17.3353a8.7288,8.7288,0,0,1-.936,1.0378,1.1216,1.1216,0,0,1-1.5839.1172,1.0825,1.0825,0,0,1-.2-1.5646c.3465-.5384.74-1.0486,1.1393-1.55,1.7077-2.1473,3.4013-4.3066,5.15-6.42a1.6043,1.6043,0,0,0-.0834-2.4367C10.654,58.0056,7.701,53.8729,4.7241,49.7567A12.4335,12.4335,0,0,1,2.14,41.76C2.2478,39.1409,1.399,36.6946.8084,34.2-.4061,29.071-.39,24.04,1.8134,19.1183,5.3053,11.32,14.16,8.9718,20.8538,14.1659c.9759.7573,1.4.8279,1.7-.5144,1.39-6.223,5.3868-10.17,11.11-12.5909,3.5-1.48,9.569-.085,12.1842,2.6922,1.4472,1.5368,2.9,2.9921,3.5419,5.1005.408,1.3394,1.0819.4587,1.6748.0309C56.75,4.7819,62.8583,2.4305,70.0529,3.8856c5.1108,1.0337,8.4845,3.8185,10.1265,8.7971,2.354,7.1374,1.9644,14.0167-1.725,20.6221-.4749.85-.5632,1.4272.3255,2.06a18.6728,18.6728,0,0,1,5.3839,6.5877,8.878,8.878,0,0,1-3.8077,12.525,13.79,13.79,0,0,1-2.2511.956c-1.1245.3584-1.0758.8165-.31,1.5559a15.1733,15.1733,0,0,1,3.9159,6.3444c2.35,7.2671-.5784,14.724-7.345,18.8226a22.3592,22.3592,0,0,1-11.489,3.224A30.2064,30.2064,0,0,1,46.129,80.9127,111.073,111.073,0,0,0,24.1013,70.2659a27.9976,27.9976,0,0,1-5.276-2.3366c-.5829-.3423-1.37-.7264-.9411-1.6028a1.48,1.48,0,0,1,1.8463-.6191c1.012.2683,1.9975.644,2.9829,1.005,7.1512,2.62,13.7875,6.3139,20.51,9.83,2.4293,1.2707,4.8364,2.5805,7.2471,3.8825,4.454,2.4055,9.4289,2.5169,14.3363,2.5052A16.0315,16.0315,0,0,0,77.872,76.5618a13.5643,13.5643,0,0,0,.0513-17.0035,10.3945,10.3945,0,0,0-4.7753-3.4189c-.5437-.1835-1.2065-.3635-1.0667-1.1462.114-.6382.71-.6889,1.2311-.7835a33.6977,33.6977,0,0,0,4.1192-.78c5.5153-1.7382,7.3519-6.7467,4.2746-11.6122-1.56-2.4662-3.078-4.9881-6.3349-5.6319-1.04-.2056-1.2115-1.0311-.4419-1.8535,6.4972-6.9424,5.9332-14.7743,2.7444-22.84-1.2529-3.169-3.9358-4.7741-7.1955-5.547-6.9183-1.64-12.9168.4734-18.3152,4.613-3.5,2.684-3.47,2.8441-4.8006-1.1883C45.4547,3.5873,37.51.9827,32.8194,3.632c-5.6333,3.1819-8.2088,7.8525-8.9869,13.9226-.0371.2893-.0423.583-.0859.8711-.0844.557.0376,1.2969-.7,1.4455-.7829.1575-.8649-.6207-1.1244-1.1074-1.879-3.5242-4.7534-5.9108-8.7841-5.5571a11.4328,11.4328,0,0,0-9.0736,5.5238c-2.5686,4.2578-2.6649,8.8963-1.6378,13.5676.8767,3.9871,2.0817,7.8978,2.1687,12.031a5.7789,5.7789,0,0,0,1.3034,3.023c2.934,4.29,6.071,8.43,9.265,12.5291.9894,1.27,1.7211,1.28,2.7.0129,2.0671-2.6769,3.9269-5.6054,6.3924-7.8618,3.6981-3.3843,6.9321-7.2633,10.9727-10.28,1.4013-1.0462,2.6588-2.2856,4.0635-3.3266a3.4581,3.4581,0,0,0,1.3751-3.8386,22.1158,22.1158,0,0,0-1.7224-5.13c-.29-.6176-.6942-1.3655.153-1.8541.7224-.4167,1.2087.1964,1.6354.6507a9.845,9.845,0,0,1,2.2006,4.8834c.3735,1.72.5749,1.8329,1.9769.6861a98.3039,98.3039,0,0,1,14.2651-9.5,34.7538,34.7538,0,0,1,5.8611-2.7381c.5732-.1935,1.3895-.7183,1.74-.0429.3922.7547-.5775,1.0188-1.0749,1.3106-3.6244,2.1269-7.28,4.2-10.9107,6.3172C53.8542,29.7158,52.9709,30.3554,51.6765,31.2061Z"/></svg>