<svg id="圖層_1" data-name="圖層 1" xmlns="http://www.w3.org/2000/svg" viewBox="0 0 47.6964 47.293"><defs><style>.cls-1{fill:#eeac48;}</style></defs><title>popup</title><path class="cls-1" d="M11.9338,29.9508c-2.19-2.6606-3.1752-5.9874-5.2-8.7344-.2786-.378-2.7824-2.38-2.8267-2.72-.3245-2.4877,6.6644-2.412,7.8617-2.6181,2.1509-.37,3.5131-.5827,4.62-2.5181,2.513-4.3922,4.1042-8.3375,7.8153-12.0528l-2.5215.2761a35.55,35.55,0,0,1,5.4246,7.433c1.0039,1.8693,1.6375,4.5934,3.1969,6.1379,3.1685,3.1382,12.1793.2489,12.86,4.6243.5536,3.5591-6.198,6.4188-7.3883,10.296-1.69,5.5041,2.7969,10.9186,1.42,16.1781l1.2309-.9945c-3.4074,1.008-8.2662-4.7332-11.2533-5.83a6.7869,6.7869,0,0,0-4.9908-.02,15.6768,15.6768,0,0,0-2.8546,1.7483c-1.2451.8007-6.5867,4.2735-8.0743,3.58-3.702-1.7258-.0324-12.1447,1.1349-14.8785.5985-1.4019-2.3-1.1916-2.7307-.1823C7.7475,34.1509,5.245,41.9976,7.9692,46.6538A1.1286,1.1286,0,0,0,8.77,46.98c3.5151-.0659,7.7343-1.9665,10.7454-3.7053,2.737-1.5805,4.61-2.6657,7.8259-1.0314,2.0344,1.034,3.6764,2.76,5.7436,3.7776,1.6033.789,4.6526,1.9946,6.3333.7045,2.3171-1.7786.0227-6.9805-.4638-9.1941-.63-2.8681-1.1994-6.0755.1769-8.839,1.2227-2.4548,3.7225-3.8623,5.6193-5.7,1.3082-1.2673,3.9335-3.6745,2.5573-5.602-.838-1.1737-4.7123-1.4553-5.9172-1.683-3.4014-.6428-7.3048-.1734-9.576-3.63C29.1834,8.0719,27.7516,4.035,24.3572.3858c-.622-.6687-1.9631-.283-2.5216.2761a37.531,37.531,0,0,0-4.3118,5.0492c-1.4007,2.0112-2.1458,5.248-3.6765,7.021-3.0157,3.4928-9.2793.65-12.7108,3.32-1.987,1.5461-1.0753,2.53.4974,3.9673C5.1166,23.2029,6.312,27.5676,9.26,31.1487c.7209.8757,3.5-.1941,2.6739-1.1979Z"/></svg>