<svg id="圖層_1" data-name="圖層 1" xmlns="http://www.w3.org/2000/svg" viewBox="0 0 47.6964 47.293"><defs><style>.cls-1{fill:#eeac48;}</style></defs><title>popup</title><path class="cls-1" d="M47.3041,17.3928c1.38,1.93-1.24,4.33-2.55,5.6-1.9,1.84-4.4,3.24-5.62,5.7-1.38,2.76-.81,5.97-.18,8.84.49,2.21,2.78,7.41.46,9.19a3.2982,3.2982,0,0,1-2.27.55l.05-1.02,1.23-.99a3.0823,3.0823,0,0,1-1.05.11c.72-4.98-3.2-10.1-1.6-15.3,1.19-3.88,7.94-6.73,7.39-10.29-.68-4.38-9.69-1.49-12.86-4.63-1.56-1.54-2.19-4.27-3.2-6.14a33.6312,33.6312,0,0,0-4.3-6.18c.43-.52.9-1.03,1.4-1.53-.84.1-1.68.19-2.52.28l-.38-.37c.17-.19.35-.37.53-.55.56-.56,1.9-.95,2.52-.28,3.4,3.65,4.83,7.69,7.46,11.69,2.27,3.46,6.18,2.99,9.58,3.63C42.5941,15.9328,46.4741,16.2128,47.3041,17.3928Z"/><path class="cls-1" d="M43.1641,19.7828c.55,3.56-6.2,6.41-7.39,10.29-1.6,5.2,2.32,10.32,1.6,15.3-3.29-.2-7.51-4.96-10.2-5.94a6.7247,6.7247,0,0,0-4.99-.02,15.4965,15.4965,0,0,0-2.86,1.74c-1.24.8-6.58,4.28-8.07,3.58-3.7-1.72-.03-12.14,1.13-14.87.34-.79-.43-1.07-1.25-.99-1.67-2.44-2.64-5.27-4.4-7.66-.28-.37-2.78-2.38-2.83-2.72-.32-2.48,6.67-2.41,7.87-2.61,2.15-.37,3.51-.59,4.62-2.52,2.17-3.79,3.65-7.26,6.41-10.53a33.6312,33.6312,0,0,1,4.3,6.18c1.01,1.87,1.64,4.6,3.2,6.14C33.4741,18.2928,42.4841,15.4028,43.1641,19.7828Z"/><path class="cls-1" d="M38.4241,45.2628l-1.23.99a6.87,6.87,0,0,0,.18-.88A3.0823,3.0823,0,0,0,38.4241,45.2628Z"/><path class="cls-1" d="M37.3741,45.3728a6.87,6.87,0,0,1-.18.88l-.05,1.02a11.4,11.4,0,0,1-4.06-1.25c-2.07-1.02-3.71-2.75-5.74-3.78-3.22-1.63-5.09-.55-7.83,1.03-3.01,1.74-7.23,3.64-10.74,3.71a1.1355,1.1355,0,0,1-.8-.33c-2.48-4.24-.64-11.1,1.15-15.68a2.1965,2.1965,0,0,0,.14.18c.72.87,3.5-.2,2.67-1.2-.29-.35-.55-.71-.8-1.08.82-.08,1.59.2,1.25.99-1.16,2.73-4.83,13.15-1.13,14.87,1.49.7,6.83-2.78,8.07-3.58a15.4965,15.4965,0,0,1,2.86-1.74,6.7247,6.7247,0,0,1,4.99.02C29.8641,40.4128,34.0841,45.1728,37.3741,45.3728Z"/><path class="cls-1" d="M21.6841,1.5828c.84-.09,1.68-.18,2.52-.28-.5.5-.97,1.01-1.4,1.53C22.4441,2.4128,22.0641,1.9928,21.6841,1.5828Z"/><path class="cls-1" d="M21.6841,1.5828c.38.41.76.83,1.12,1.25-2.76,3.27-4.24,6.74-6.41,10.53-1.11,1.93-2.47,2.15-4.62,2.52-1.2.2-8.19.13-7.87,2.61.05.34,2.55,2.35,2.83,2.72,1.76,2.39,2.73,5.22,4.4,7.66a1.8507,1.8507,0,0,0-1.48.8c-.17.41-.35.84-.53,1.3-2.85-3.55-4.07-7.82-7.49-10.95-1.57-1.44-2.48-2.42-.5-3.97,3.43-2.67,9.7.17,12.71-3.32,1.53-1.77,2.28-5.01,3.68-7.02a33.8668,33.8668,0,0,1,3.78-4.5Z"/><path class="cls-1" d="M11.9341,29.9528c.83,1-1.95,2.07-2.67,1.2a2.1965,2.1965,0,0,1-.14-.18c.18-.46.36-.89.53-1.3a1.8507,1.8507,0,0,1,1.48-.8C11.3841,29.2428,11.6441,29.6028,11.9341,29.9528Z"/></svg>