<svg id="圖層_1" data-name="圖層 1" xmlns="http://www.w3.org/2000/svg" viewBox="0 0 85.3849 85.3849"><defs><style>.cls-1{fill:#fbe8b8;}</style></defs><title>feature</title><path class="cls-1" d="M17.7942,38.0514a1.2441,1.2441,0,0,0-2.0675-.0187,1.3038,1.3038,0,0,0-2.3625.1116A14.7455,14.7455,0,0,0,12.0156,44.31c.16,1.6958,1.9014,2.2778,3.3877,1.9371C19.2386,45.3683,19.5933,40.8917,17.7942,38.0514Zm-3.0754,5.8658c-.5427.1261-.3182-.01-.2319-.46.0973-.5078.1437-1.0243.2509-1.5318a19.4258,19.4258,0,0,1,.8591-2.8652,1.3324,1.3324,0,0,0,.1071.2131C16.694,40.8361,17.0248,43.3814,14.7188,43.9172Z"/><path class="cls-1" d="M30.5813,36.3692l.0588-.371c.2417-1.524-2.09-2.18-2.3342-.6436-.4571,2.8831-2.7212,9.9305,2.0693,10.5216,4.8175.5944,2.7495-6.8468,1.4268-8.9623A1.1422,1.1422,0,0,0,30.5813,36.3692Zm.3976,6.6368c-.4269.7679-.8723.2-1.0787-.3516a6.46,6.46,0,0,1,.1683-3.0509l.1028-.6491a7.5285,7.5285,0,0,1,.7252,2.0748A5.4466,5.4466,0,0,1,30.9789,43.006Z"/><path class="cls-1" d="M43.231,35.917c.1954-1.5413-2.227-1.527-2.4207,0a63.9315,63.9315,0,0,0-.9149,7.315,2.2216,2.2216,0,0,0,2.7373,2.4261c1.7319-.4251,2.2192-2.4508,2.2-4.0045A7.5,7.5,0,0,0,43.0909,37C43.1376,36.6388,43.1852,36.278,43.231,35.917Z"/><path class="cls-1" d="M72.721,32.0062c.4688-7.2619.2032-14.1844-4.8712-19.8469A26.26,26.26,0,0,0,54.6812,4.3309C49.2276,1.8342,43.3142.2553,37.42,2.2678a30.1949,30.1949,0,0,0-14.1567,10.2,25.7453,25.7453,0,0,0-4.7255,12.7964,15.5425,15.5425,0,0,0-5.0006.0111,8.9826,8.9826,0,0,1,1.7415-4.3931c.9158-1.2628-1.1834-2.4722-2.09-1.2219a11.3444,11.3444,0,0,0-2.0775,5.6544,1.0688,1.0688,0,0,0,.1324.6634,11.5415,11.5415,0,0,0-3.7744,2.7323C3.9349,32.46,2.377,37.6492,1.5534,42.619-.728,56.3836,1.2607,70.3668.5259,84.219c-.0826,1.5569,2.3383,1.5522,2.4207,0,.591-11.1433-.5755-22.3008.1236-33.44.3377-5.3823.9187-11.1532,3.2809-16.0825a14.9884,14.9884,0,0,1,4.355-5.6365c2.4141-1.8148,4.8579-1.9245,7.6985-1.4045a30.4564,30.4564,0,0,0,4.213,15.8886,25.3909,25.3909,0,0,0,8.68,8.6806c-.1037.018-.2065.0333-.31.0537-5.808,1.1388-14.4064,5.9663-13.848,12.86A1.2234,1.2234,0,0,0,18.13,66.26a5.4427,5.4427,0,0,0,5.0045,4.8275c3.713.4206,6.7119-2.0574,10.219-2.69,3.693-.6664,7.5363.6647,10.9755-1.3293A5.4846,5.4846,0,0,0,47.1561,60.68a9.1183,9.1183,0,0,0-3.1246-4.1655,36.7537,36.7537,0,0,0,9.6691-.117,20.896,20.896,0,0,0,2.2349-.45c1.0157,8.8538,1.5331,17.7971,1.8775,26.6583.06,1.5526,2.4813,1.56,2.4207,0C59.8786,73.4714,59.28,64.3,58.2272,55.2c5.949-2.3422,10.0216-7.3324,12.317-13.221l.9041-2.6572A34.3555,34.3555,0,0,0,72.721,32.0062ZM20.5336,65.6349a1.0707,1.0707,0,0,0-.9868-1.1532,6.5339,6.5339,0,0,1,1.31-3.6464c-.077,2.6266-.1324,5.592,1.33,7.5335A2.4732,2.4732,0,0,1,20.5336,65.6349ZM30.91,54.7925a11.4094,11.4094,0,0,1,4.4782-.084,1.51,1.51,0,0,0-.5346.2628q-2.11,1.6317-4.0312,3.4479A6.4849,6.4849,0,0,0,30.91,54.7925Zm3.507,3.6483a12.2469,12.2469,0,0,1-1.1472,3.222q-1.17.0263-2.3409.05Q32.5983,60.0018,34.417,58.4408ZM23.425,64.2042c-.0045-.61.0237-1.1951.01-1.6352q-.0646-2.0609-.13-4.1217c0-.0184-.0056-.0339-.0069-.052a21.4572,21.4572,0,0,1,4.6048-2.5965A93.8614,93.8614,0,0,0,23.425,64.2042Zm18.1607,1.3917c-2.3633.6319-4.8923.0714-7.2991.2675a20.8314,20.8314,0,0,0-6.07,1.78,13.437,13.437,0,0,1-4.2263.9589.8536.8536,0,0,0,.228-.2973c.3449-.8035.704-1.5992,1.07-2.391a1.0709,1.0709,0,0,0,1.789.1854c.5143-.6545,1.0463-1.2909,1.5868-1.9183q1.608-.0325,3.2158-.0683c-.0072.0144-.0153.0282-.0224.0428a1.2113,1.2113,0,0,0,2.09,1.2218c.2653-.4382.5266-.88.78-1.3253.926-.0215,1.8519-.0474,2.778-.07a1.1957,1.1957,0,0,0,1.781.0984c.0382-.0439.08-.0937.1233-.1467,1.263-.0324,2.5261-.0616,3.789-.0963a1.2314,1.2314,0,0,0,1.1669-1.5321c-.23-1.411-.8121-2.9254-2.4019-3.17a2.9719,2.9719,0,0,0-2.5327,1.0409,15.3234,15.3234,0,0,0-.5-2.04,1.2178,1.2178,0,0,0-1.9526-.5821,9.3255,9.3255,0,0,0-.06-1.7273,1.4008,1.4008,0,0,0-.43-.8684,15.3673,15.3673,0,0,1,7.1689,4.5822C45.9323,62.0464,44.7169,64.7588,41.5857,65.5959ZM36.3964,61.59q.3273-.3948.6769-.7736c.0383.2495.0634.5021.0868.7542C36.9055,61.5764,36.6509,61.5834,36.3964,61.59Zm3.2591-8.4333a23.0928,23.0928,0,0,1-13.0207-8.0251A27.4953,27.4953,0,0,1,20.8036,28.08a9.2,9.2,0,0,0,3.8219-.1433c1.9788-.5642,3.9464-2.71,6.0124-2.69,1.8918.018,3.1374,2.0418,5.1163,2.1722a9.4264,9.4264,0,0,0,4.4751-1.2342,8.43,8.43,0,0,1,3.88-1.1915,1.33,1.33,0,0,0,1.482.5057,4.3214,4.3214,0,0,1,.6.455,21.35,21.35,0,0,1,4.355,6.213,46.4333,46.4333,0,0,1,3.9209,13.2651c.45,2.6855.8374,5.3866,1.1778,8.0969C50.6025,54.964,44.6454,54.3394,39.6555,53.1563ZM57.92,52.7149c-.2675-2.1356-.5517-4.2684-.8743-6.3937a53.4853,53.4853,0,0,0-3.9172-14.3563c-1.3233-2.8875-3.6857-7.4749-6.9546-8.9846A14.3427,14.3427,0,0,0,43.94,17.1709c-.859-1.291-2.9564-.08-2.09,1.2218A12.3163,12.3163,0,0,1,43.6342,22.5a11.7634,11.7634,0,0,0-4.068,1.3282,10.9169,10.9169,0,0,1-2.879,1.1035c-1.576.24-2.3443-.7639-3.5805-1.4581a4.6112,4.6112,0,0,0-1.9017-.5856,7.5464,7.5464,0,0,0-.2339-3.3947c-.4551-1.4851-2.7924-.8517-2.3341.6435a5.1392,5.1392,0,0,1,.0993,2.8009,1.2867,1.2867,0,0,0-.0336.3448c-.1373.05-.2746.0995-.4117.1579-.93.3959-1.76.9705-2.6562,1.4287a7.4682,7.4682,0,0,1-4.714.7679,24.7242,24.7242,0,0,1,2.1139-8.0059C25.4516,12.3667,29.9014,8.6441,34.95,5.98c5.0626-2.6716,10.0362-2.5319,14.984-.9284a1.2811,1.2811,0,0,0,1.1076,1.0171,24.6817,24.6817,0,0,1,2.71.49q.456.2092.9116.43a1.1989,1.1989,0,0,0,.9024.076,24.0116,24.0116,0,0,1,9.5179,5.7039,17.3053,17.3053,0,0,1,4.433,6.6093c.9856,2.9107.9377,6.0841.9048,9.1218C70.317,38.1074,67.3594,48.6462,57.92,52.7149Z"/><path class="cls-1" d="M62.8859,52.9428c5.2047,2.048,8.711,6.4171,13.5117,9.0584,3.77,2.0742,4.5291-.1454,6.3046-3.66,1.4989-2.9674,4.0434-6.5435,1.4757-9.4753-3.2371-3.696-9.542-6.2832-13.8577-8.4235-1.5676-.7775-2.9511,1.5745-1.3767,2.3553A91.6329,91.6329,0,0,1,79.33,48.7337c1.5394,1.0329,3.0723,1.55,3.1333,3.5718.021.6955-2.3625,6.2251-3.2085,6.734-2.4668,1.4838-5.6834-2.4717-7.69-4.0148a32.4354,32.4354,0,0,0-7.9538-4.7121c-1.634-.6429-2.3427,1.9938-.7251,2.63Z"/></svg>