<svg id="圖層_1" data-name="圖層 1" xmlns="http://www.w3.org/2000/svg" viewBox="0 0 85.3849 85.3849"><defs><style>.cls-1{fill:#fbe8b8;}</style></defs><title>funfact</title><path class="cls-1" d="M8.6843,76.7929c1.22-6.0943,1.71-11.5693-.963-17.3512-1.4845-3.2115-3.326-6.2165-4.0081-9.74A26.2229,26.2229,0,0,1,5.1806,35.8646C7.7564,28.842,13.3462,19.676,19.8165,15.7482c6.8016-4.1289,16.4591-5.6266,24.2821-5.28,7.7894.3451,14.9539,6.2132,20.3838,11.4887,5.879,5.7116,8.2686,13.1175,9.7941,20.9716,1.5032,7.7391,1.9141,16.3179-2.61,23.1917-4.6426,7.0536-12.3321,11.0329-20.088,13.7648-8.4865,2.9892-18.3792,5.1327-26.5468.1068-2.4045-1.48-4.4232-3.5681-7.1463-4.504-3.2429-1.1146-6.7046-.5239-9.9887.0477-1.4867.2588-.8565,2.5231.6245,2.2654,3.3171-.5774,6.4773-.9464,9.6988.3758,1.65.6771,3.0453,2.07,4.4975,3.0743a22.7315,22.7315,0,0,0,10.0143,3.8772c7.9631,1.0927,16.1348-1.4736,23.4172-4.4746,6.6284-2.7315,13.0335-6.68,17.1366-12.7125,4.3582-6.4076,4.927-14.0841,3.9329-21.58-.9959-7.5091-2.8315-15.6557-7.3813-21.8734A52.2274,52.2274,0,0,0,52.0581,9.8456c-6.75-3.3051-15.9009-1.8062-22.9315-.0543C21.113,11.788,15.8612,15.0629,10.8342,21.6128,5.4389,28.6424.8617,36.86,1.01,45.9762a25.9752,25.9752,0,0,0,2.972,11.241c3.2856,6.6744,3.9172,11.557,2.4367,18.9512-.2955,1.4763,1.9683,2.1081,2.2654.6245Z"/><path class="cls-1" d="M63.3855,1.1313l-.5041,9.2016c-.0827,1.5106,2.2668,1.506,2.3493,0l.5041-9.2016c.0827-1.5107-2.2668-1.5061-2.3493,0Z"/><path class="cls-1" d="M71.7305,16.199a11.6671,11.6671,0,0,0,2.2022-1.9608l2.2952-2.2354c1.0849-1.0567-.577-2.7171-1.6612-1.6611l-2.0536,2a11.0931,11.0931,0,0,1-1.9683,1.8288,1.1755,1.1755,0,0,0,1.1857,2.0285Z"/><path class="cls-1" d="M75.3973,23.3962l7.8615-.9191c1.4838-.1735,1.5013-2.5248,0-2.3493l-7.8615.9192c-1.4837.1734-1.5013,2.5247,0,2.3492Z"/><path class="cls-1" d="M50.0525,36.8089c0-1.9814.0371-3.9637-.0162-5.9436-.0254-.9426.1657-1.4205,1.2583-1.4069,1.04.013,1.0772.56,1.0747,1.3291q-.0218,6.7565.0007,13.513c.0027.773-.0293,1.3853-1.0758,1.33-.8625-.0452-1.6058.0832-1.894-1.136a54.2779,54.2779,0,0,0-2.7486-8.611c0,2.663.0137,5.326-.0085,7.9887-.0065.7783.356,1.725-1.1108,1.7669-1.4048.04-1.2256-.7853-1.2249-1.6389.0034-4.3489-.0068-8.6979.01-13.0468.0025-.6309-.266-1.5786.89-1.4385.9307.1129,2.209-.6777,2.6075,1.0511.4912,2.1306,1.1665,4.2188,1.7622,6.3253Z"/><path class="cls-1" d="M41.1984,36.562c0,1.94.0843,3.8848-.0222,5.819a3.35,3.35,0,0,1-3.5728,3.4728c-2.251.0733-3.8155-1.1394-3.8914-3.3968-.1329-3.954-.0292-7.9153-.0785-11.8729-.0124-1.0025.4868-1.09,1.29-1.12.9934-.038,1.3771.288,1.3634,1.3178-.0454,3.4144-.0329,6.83-.0044,10.2447.0079.95-.32,2.3007,1.1305,2.3771,1.63.086,1.3885-1.3225,1.3936-2.3752.0162-3.3373.0264-6.675-.0092-10.012-.01-.97.0581-1.5933,1.3274-1.567,1.2354.0256,1.1148.74,1.1118,1.5248-.0072,1.8627-.0023,3.7254-.0023,5.5882Z"/><path class="cls-1" d="M28.2466,29.4878c.7868.6221,2.7962-1.117,2.93,1.0822.1486,2.4428-1.916.99-2.9484,1.2093-.8627.183-1.298.3944-1.1511,1.2694.2535,1.51-1.1452,4.1,2.3144,3.5685.8809-.1352.9449.5248.9613,1.2128.0176.7386-.1684,1.3046-1.007,1.1232-2.52-.5451-2.3386,1.1016-2.2855,2.7031.0309.9325-.04,1.87.0187,2.8.06.9434-.3514,1.1941-1.2352,1.1844-.9078-.01-1.434-.1313-1.4211-1.2553.0518-4.5113.0375-9.0237.003-13.5354-.0074-.9635.244-1.4629,1.3043-1.3743C26.5024,29.54,27.2847,29.4878,28.2466,29.4878Z"/><path class="cls-1" d="M34.0535,51.8373c1.2113-.282,1.533.3846,1.69,1.4949.434,3.0749.9844,6.1332,1.4737,9.2.09.562.474,1.2858-.5693,1.405-.6957.08-1.24-.05-1.2963-.9032-.06-.9088-.4525-1.347-1.4688-1.3177-.9526.0275-1.192.4655-1.2169,1.2816-.0242.7983-.4987,1.0805-1.2541.94-.8523-.158-.5723-.8083-.4972-1.2883.5042-3.2222,1.0771-6.434,1.5483-9.6608C32.6107,51.9752,33.0811,51.6575,34.0535,51.8373Zm-.2181,3.6415c-.241,1.4316-.4242,2.4929-.5967,3.5559-.0789.4858-.0922.92.6022.9563.73.0378.9705-.2774.8357-.9676A8.8546,8.8546,0,0,0,33.8354,55.4788Z"/><path class="cls-1" d="M39.1974,57.7305c-.0006-1.1625-.0521-2.3279.0109-3.487.1071-1.9691,1.3692-2.715,3.1466-2.5651,1.7673.149,2.5327,1.3048,2.4926,3.0378-.0124.5384.1063,1.1346-.7053,1.1965-.7291.0556-1.192-.138-1.1479-1.01.0374-.7375-.12-1.5391-1.073-1.41-.8968.1219-.8246.9789-.8252,1.6736-.0014,1.938-.0005,3.8761.0156,5.814.0056.67.1739,1.288,1.0163,1.24.6844-.0391.8341-.5748.8665-1.1612.0437-.7925-.2607-1.93,1.16-1.6441,1.2888.26.6736,1.39.6392,2.0893a2.4758,2.4758,0,0,1-2.702,2.5676A2.5164,2.5164,0,0,1,39.209,61.45C39.1513,60.213,39.1979,58.9707,39.1974,57.7305Z"/><path class="cls-1" d="M24.4405,57.6191q.0018-1.1652.0013-2.3306c.0036-3.7608.299-4.0011,4.0556-3.4868.5967.0818,1.03.12,1.0256.8942-.0041.7841-.4421.849-1.0447.8581-.9513.0143-2.1064-.3411-2.0709,1.3421.0271,1.287-.1694,2.571,1.8012,2.29.4568-.0652.6712.2833.6882.7336.0151.3974-.02.9836-.424.9445-2.9179-.2824-1.83,1.8656-2.0421,3.2415-.0835.5418.3606,1.34-.5725,1.5248-.852.1691-1.4991.0671-1.4394-1.1182C24.5008,60.8851,24.4393,59.2506,24.4405,57.6191Z"/><path class="cls-1" d="M48.4655,58.65c-.0024-1.1617-.0192-2.3238.003-3.4851.0172-.9.0715-1.7657-1.262-1.6378-.6006.0576-.7437-.35-.7586-.89-.023-.833.5474-.8053,1.091-.8117,1.239-.0146,2.4793-.0362,3.7169.0063.34.0117,1.1288-.2483.86.5013-.1359.3793.294,1.2649-.6263,1.2045-1.5179-.1-1.0575,1.0121-1.0705,1.7505-.041,2.3228.007,4.6471-.0281,6.97-.01.6827.3884,1.6543-.9051,1.713-1.3029.0592-.9947-.8907-1.0105-1.6036C48.4479,61.1288,48.4678,59.8891,48.4655,58.65Z"/></svg>