<svg id="圖層_1" data-name="圖層 1" xmlns="http://www.w3.org/2000/svg" viewBox="0 0 85.3849 85.3849"><defs><style>.cls-1{fill:#fbe8b8;}</style></defs><title>habitat</title><path class="cls-1" d="M83.5616,54.0111a14.6884,14.6884,0,0,0-6.6395-4.16,93.0361,93.0361,0,0,0-18.4918-4.21,109.9641,109.9641,0,0,0-19.22-.9621,105.6669,105.6669,0,0,0-19.2194,2.5078q-4.6843,1.06-9.256,2.5657-2.3655.7807-4.69,1.6821a19.1673,19.1673,0,0,0-3.5914,1.6564A5.1055,5.1055,0,0,0,.579,59.8886a12.2058,12.2058,0,0,0,5.54,5.6168,25.63,25.63,0,0,0,8.9025,2.4257c3.2857.4186,6.5838.7505,9.8763,1.112a.778.778,0,0,0,.6839.7766A147.61,147.61,0,0,0,67.836,68.057a52.6044,52.6044,0,0,0,9.4847-2.43c2.4765-.9331,5.2949-2.0815,6.9359-4.2921C86.0039,58.9815,85.3053,56.1428,83.5616,54.0111Zm.2824,4.7922c-.4344,2.7173-3.7465,4.13-5.949,5.0406a45.4245,45.4245,0,0,1-8.5752,2.46,144.5861,144.5861,0,0,1-37.8466,2.5976.7638.7638,0,0,0-.6742-.6623l-9.77-1.0863a90.7313,90.7313,0,0,1-9.4217-1.2517,15.6911,15.6911,0,0,1-7.5095-3.5843C2.2585,60.5943.085,57.18,2.3892,54.9676a9.7777,9.7777,0,0,1,3.2381-1.8119q2.076-.8277,4.1886-1.5568,4.2188-1.4584,8.555-2.5308a102.649,102.649,0,0,1,17.7538-2.7665,108.9985,108.9985,0,0,1,35.5678,3.5011,35.0392,35.0392,0,0,1,7.5938,2.6484C81.4526,53.6171,84.2963,55.9748,83.844,58.8033Z"/><path class="cls-1" d="M18.074,55.8337a2.2211,2.2211,0,0,1-2.1994-.9964c-.3527-.57-.4214-1.2582-1.1913-1.3917a.734.734,0,0,0-.8849.8969c.2493.9456-1.7168,1.4178-2.31,1.6368a9.4327,9.4327,0,0,1-2.7174.6368c-.92.055-.9264,1.5135,0,1.4582a13.6945,13.6945,0,0,0,4.6114-1.2971,3.7774,3.7774,0,0,0,1.4017-.9783,3.5872,3.5872,0,0,0,.8844.8723,3.52,3.52,0,0,0,2.4054.6207C18.9853,57.1937,18.9952,55.7345,18.074,55.8337Z"/><path class="cls-1" d="M29.4855,55.41a5.6871,5.6871,0,0,0,3.1238-2.38,5.1308,5.1308,0,0,0,7.7547.3435,5.422,5.422,0,0,0,4.2716,2.4564A4.3,4.3,0,0,0,47.8014,54.81c.5951-.5419,1.0184-1.4119,1.6482-1.9514a3.7151,3.7151,0,0,0,3.6226,2.4778c.9227-.0374.9274-1.4957,0-1.4581a2.305,2.305,0,0,1-2.4192-2.1166.73.73,0,0,0-.9106-.703c-1.7326.5676-2.1814,2.723-3.8961,3.2019a3.89,3.89,0,0,1-4.6469-2.4759.7246.7246,0,0,0-1.3148-.1741,3.7,3.7,0,0,1-6.7085-.4734c-.2667-.6267-1.1349-.3526-1.3148.1742a4.2134,4.2134,0,0,1-2.7583,2.6923C28.2217,54.2814,28.5978,55.69,29.4855,55.41Z"/><path class="cls-1" d="M68.3074,55.1113c-1.444-.2779-2.0332-1.6618-2.571-2.895a.7223.7223,0,0,0-1.3149.1741c-.23,1.7144-2.298,2.1066-3.5636,2.7938-.8165.4433-.0906,1.7026.7261,1.2591,1.1864-.6442,2.7051-1.1165,3.5707-2.1591a4.1437,4.1437,0,0,0,2.77,2.2332C68.83,56.6915,69.2174,55.2865,68.3074,55.1113Z"/><path class="cls-1" d="M61.0474,62.5816c-1.67-.2708-2.524-1.8709-3.2459-3.2616a.723.723,0,0,0-1.3148.5618c.5046,1.4282-1.96,1.2811-2.7259,1.2456-1.1561-.0536-2.8836-.3635-2.8671-1.8706a.7232.7232,0,0,0-1.3405-.368,4.6491,4.6491,0,0,1-8.1143.08.72.72,0,0,0-1.2423,0,3.9412,3.9412,0,0,1-7.1036.2828.72.72,0,0,0-1.2423,0c-.6256,1.2657-1.4463,2.91-3.0959,2.7715-1.8258-.1529-2.93-1.9371-3.82-3.3417a.7241.7241,0,0,0-1.2423,0,9.4145,9.4145,0,0,1-2.9694,2.8541c-.7916.4845-.0692,1.7459.7262,1.2591a11.012,11.012,0,0,0,2.8291-2.4861c1.09,1.5808,2.4537,3.0517,4.4767,3.1728,1.784.1068,2.9533-1.095,3.7984-2.4979a5.3767,5.3767,0,0,0,8.3235-.3379,6.0845,6.0845,0,0,0,9.0133.202c1.4239,2.2572,5.95,2.3438,7.5542.7372a4.9223,4.9223,0,0,0,3.2208,2.4029C61.5707,64.1346,61.9607,62.73,61.0474,62.5816Z"/><path class="cls-1" d="M19.6123,48.0189c.0306-3.4036,1.3214-7.5621-2.5167-8.679C14.11,38.4711,5.7153,37.479,10.3,31.4873c.9453-1.2354,1.6087-1.2076,2.0053-2.8873.79-3.3443-.1779-8.0073,3.5425-10.0057,5.0746-2.7258,8.5323,3.4263,10.0044,7.1253C26.6992,27.8475,29.21,32.4,28.73,34.6312c-1.0083,4.6873-6.7519,5.4458-10.5837,5.4361l1.0575,1.0575.0228-11.9558a1.0582,1.0582,0,0,0-2.1151,0l-.0227,11.9558a1.0729,1.0729,0,0,0,1.0575,1.0575c6.4257.0164,14.4038-2.5865,12.1721-10.4369-1.6291-5.7308-5.0324-16.8034-12.9491-15.8333-2.918.3576-4.996,2.5592-6.0555,5.1826-.8269,2.0473-.3965,4.1977-1.0125,6.2042-.8442,2.75-2.74,2.6871-3.81,4.822-1.1777,2.3476.1913,4.6955,2.0421,6.1955a14.6458,14.6458,0,0,0,5.1812,2.5454c2.18.6119,3.167-.1651,3.8233,2.7171a21.0182,21.0182,0,0,1-.04,4.44,1.0582,1.0582,0,0,0,2.1151,0Z"/><path class="cls-1" d="M18.6311,35.9864c2.2962-.9037,4.9861-2.3258,4.81-5.2121-.0828-1.3523-2.1984-1.3617-2.1151,0,.1115,1.8217-1.8441,2.6166-3.2567,3.1726-1.2522.4927-.7069,2.5389.5623,2.04Z"/><path class="cls-1" d="M30.3392,28.009c1.7989-2.7778,4.7132-4.5456,7.3144-6.498l1.364-1.0238q.9036-1.3044,2.0663-.1463c1.4957.3906,3.1261,2.3256,4.285,3.3658,1.01.9071,2.5111-.584,1.4956-1.4955-2.18-1.9571-5.4481-5.8269-8.46-3.8916-3.474,2.2324-7.6233,5.1187-9.8919,8.6219-.742,1.1459,1.0882,2.2073,1.8263,1.0675Z"/><path class="cls-1" d="M37.4464,40.5339c1.61-4.8084,5.2526-8.3182,8.1457-12.3578,2.9375-4.1018,5.4726-8.1545,9.5539-11.2423,1.1151-.8437,1.9005-1.9621,3.3-1.135.5672.3353,1.1863,2.2063,1.5064,2.8057q1.8753,3.5112,3.7122,7.0428,3.6737,7.0634,7.1917,14.2055c.6028,1.22,2.4277.15,1.8263-1.0676Q69.1567,31.6471,65.4907,24.58q-1.6532-3.1784-3.3379-6.34c-.8864-1.664-1.7318-4.144-3.1544-5.4426a1.0492,1.0492,0,0,0-1.0289-.272c-4.9407,1.95-8.9324,6.9411-11.86,11.161C42.4708,28.9292,37.46,33.84,35.4069,39.9716c-.4331,1.2937,1.6089,1.8486,2.0395.5623Z"/><path class="cls-1" d="M28.6012,40.7458c3.0047-.1851,5.697.5124,8.63.8922a73.9659,73.9659,0,0,0,11.02.0946c8.0282-.1766,16.0474-.6122,24.0649-1.0469,1.3538-.0734,1.3624-2.189,0-2.1151-8.0175.4347-16.0367.87-24.0649,1.0469a70.41,70.41,0,0,1-10.8364-.1131c-3.0291-.4073-5.718-1.0643-8.8131-.8737-1.3522.0833-1.3617,2.199,0,2.1151Z"/><path class="cls-1" d="M29.3148,28.9336c1.1217,2.6773,2.6621,7.2519.4049,9.7756l1.7676.4667c-.5845-1.4906.154-3.74.1938-5.3006.0628-2.4655-.5154-4.9519,1.3438-7.0074l-1.6609-.214c.7886,1.6518.2854,4.5254.2937,6.272l.0323,6.7168a1.0624,1.0624,0,0,0,2.0773.2812c1.2328-5.1622.4178-10.5167,1.7464-15.6556l-1.9329.2527c2.1164,3.95,1.0212,10.5763.99,14.9419h2.115c-.2774-5.5716-3.2456-13.6164,1.9219-18.0816l-1.8054-.7478c.7054,5.2789-.0846,10.3819-1.0426,15.5821l2.0773.2812c.0207-3.5059-1.5706-14.3709,3.03-15.35l-1.1943-.486c.7917,1.85-.5719,5.3231-1.0241,7.2607q-.797,3.4155-1.5984,6.83a1.0585,1.0585,0,0,0,2.04.5623A76.57,76.57,0,0,1,45.425,22.6993l-1.9329-.2526a6.8508,6.8508,0,0,1-1.036,4.856l1.9329.2526c-.89-4.9073-1.2763-7.453-6.4572-4.8576-1.0833.5427-.3242,2.2509.8149,1.9329,2.8055-.7833,2.6785-3.4851,1.2551,1.677a1.0584,1.0584,0,0,0,2.0395.5622c.3814-1.3831,1.1363-4.5065-.4256-5.5117-1.422-.9152-2.1588.8777-3.4313,1.233l.8149,1.9329c3.1981-1.602,2.9216,1.2314,3.35,3.5936a1.068,1.068,0,0,0,1.9329.2526c1.1788-2.1922,1.9312-4.0268,1.2492-6.4858a1.07,1.07,0,0,0-1.9329-.2526,79.5213,79.5213,0,0,0-6.5488,13.12l2.04.5623c.78-3.3334,1.6549-6.66,2.3225-10.0182.372-1.8711.8593-3.8973.0867-5.7022a1.0681,1.0681,0,0,0-1.1943-.486,5.9652,5.9652,0,0,0-4.3678,4.68c-.8406,3.953-.1911,8.6819-.2148,12.7086-.0069,1.1581,1.8561,1.4818,2.0773.2811.99-5.3719,1.8483-10.6795,1.1181-16.1444a1.0743,1.0743,0,0,0-1.8053-.7478c-2.4244,2.095-2.9781,5.39-3.45,8.4307-.6341,4.0825.71,7.1539.909,11.1465a1.0582,1.0582,0,0,0,2.115,0c.0356-4.93,1.1281-11.5182-1.2785-16.0095a1.0689,1.0689,0,0,0-1.9329.2527c-1.3311,5.1485-.5147,10.4976-1.7464,15.6555l2.0773.2811-.043-8.9557c-.0087-1.7964.2073-3.4689-.5718-5.1006a1.0641,1.0641,0,0,0-1.661-.2141,8.2558,8.2558,0,0,0-2.0131,5.9733c-.0174,2.63-1.0424,5.9088-.0685,8.3925a1.07,1.07,0,0,0,1.7676.4667c2.8651-3.2034,1.6381-8.2555.139-11.8335-.5182-1.2367-2.5657-.6936-2.0395.5623Z"/><path class="cls-1" d="M27.1707,40.6706l1.3948-.2666a1.0677,1.0677,0,0,0,.7386-1.3009,1.08,1.08,0,0,0-1.3009-.7386l-1.3947.2666A1.0677,1.0677,0,0,0,25.87,39.932a1.08,1.08,0,0,0,1.3009.7386Z"/><path class="cls-1" d="M33.6411,38.5274l.5043.1967a1.0654,1.0654,0,0,0,1.3009-.7387,1.0821,1.0821,0,0,0-.7386-1.3009l-.5043-.1966a1.0654,1.0654,0,0,0-1.3009.7386,1.082,1.082,0,0,0,.7386,1.3009Z"/></svg>