<svg xmlns="http://www.w3.org/2000/svg" viewBox="0 0 94 84"><defs><style>.cls-1{fill:gray;}</style></defs><title>nav-info</title><g id="圖層_2" data-name="圖層 2"><path class="cls-1" d="M76.48,1.7638H14.2844a9.52,9.52,0,0,0-9.52,9.52V59.0411a9.52,9.52,0,0,0,9.52,9.52H34.1569l11.2465,14.38,11.0612-14.38H76.48a9.52,9.52,0,0,0,9.52-9.52V11.2836A9.52,9.52,0,0,0,76.48,1.7638Zm0,60.4505H53.34L45.3613,72.5857l-8.11-10.3714H14.2844a3.1732,3.1732,0,0,1-3.1732-3.1732V11.2836A3.1732,3.1732,0,0,1,14.2844,8.11H76.48a3.1733,3.1733,0,0,1,3.1733,3.1733V59.0411A3.1732,3.1732,0,0,1,76.48,62.2143Zm-34.5054-42.76a3.9666,3.9666,0,1,1,3.9666,3.9666A3.9663,3.9663,0,0,1,41.9748,19.4547Zm8.2833,28.141L53.0409,53.3l-2.1562,1.0517a7.6949,7.6949,0,0,1-10.9824-8.0757,2.9736,2.9736,0,0,1,.0595-.295l2.5187-10.0193a1.35,1.35,0,0,0-1.9386-1.3046c-2.1581,1.053-2.6025,1.2693-2.6025,1.2693L35.16,30.22c.0012-.0006.4474-.2181,2.5981-1.2674a7.696,7.696,0,0,1,10.983,8.0757c-.0155.0991-.0353.1977-.0595.295L46.1632,47.3428a1.35,1.35,0,0,0,1.9387,1.3046Z"/></g></svg>