<svg xmlns="http://www.w3.org/2000/svg" viewBox="0 0 94 84"><defs><style>.cls-1{fill:#343170;}</style></defs><title>nav-all-s</title><g id="圖層_2" data-name="圖層 2"><path class="cls-1" d="M86.7188,72.6275,65.3739,51.2826a31.6946,31.6946,0,0,0,5.3089-17.6284A31.9821,31.9821,0,1,0,38.7007,65.6363a31.6963,31.6963,0,0,0,17.6284-5.3087l5.9,5.9.0026.0026L77.6737,81.6723a6.3957,6.3957,0,1,0,9.0451-9.0448ZM55.577,56.9575l0,0A28.8131,28.8131,0,1,1,62.0041,50.53,28.9236,28.9236,0,0,1,55.577,56.9575Zm3.3549,1.45a32.0853,32.0853,0,0,0,4.5218-4.5217l4.5368,4.5368a38.8143,38.8143,0,0,1-4.5218,4.5218ZM84.4573,79.4109a3.1958,3.1958,0,0,1-4.5219,0L65.7361,65.2116A42.0228,42.0228,0,0,0,70.2579,60.69l14.2,14.2a3.1956,3.1956,0,0,1,0,4.5214Z"/><path class="cls-1" d="M82.1963,83.9532A6.7574,6.7574,0,0,1,77.3857,81.96l-21.11-21.11a32.412,32.412,0,1,1,9.6208-9.62l21.11,21.11a6.8035,6.8035,0,0,1-4.81,11.6137ZM56.3813,59.804l21.58,21.58a5.9885,5.9885,0,1,0,8.4692-8.4687l-21.58-21.58.1843-.2776a31.6065,31.6065,0,1,0-8.931,8.93Zm25.815,20.9517a3.5813,3.5813,0,0,1-2.5488-1.0571l-14.51-14.51.3335-.2856a41.8515,41.8515,0,0,0,4.4781-4.4781l.2862-.3341,14.51,14.5106a3.6059,3.6059,0,0,1-2.5493,6.154ZM66.3332,65.2334l13.89,13.8893a2.8529,2.8529,0,0,0,3.946,0h0a2.7879,2.7879,0,0,0,0-3.9452l-13.8905-13.89A42.7832,42.7832,0,0,1,66.3332,65.2334ZM63.4459,63.497l-5.12-5.12.3482-.2847a31.7787,31.7787,0,0,0,4.4644-4.4646l.2849-.3484,5.12,5.12-.2424.2864a39.35,39.35,0,0,1-4.5692,4.57Zm-3.91-5.0619L63.49,62.39a38.5485,38.5485,0,0,0,3.9458-3.9459l-3.9543-3.9548A32.5514,32.5514,0,0,1,59.5359,58.4351Zm-20.8352,4.41a29.2253,29.2253,0,1,1,17.1155-5.5591A29.2245,29.2245,0,0,1,38.7007,62.8456Zm0-57.5681A28.3768,28.3768,0,1,0,55.3372,56.6287l.0006-.0008a28.5059,28.5059,0,0,0,6.3367-6.3369A28.3619,28.3619,0,0,0,38.7007,5.2775Z"/><path class="cls-1" d="M38.7007,8.0685A25.5857,25.5857,0,1,0,64.2864,33.6542,25.6146,25.6146,0,0,0,38.7007,8.0685Zm0,47.9732A22.3875,22.3875,0,1,1,61.0881,33.6542,22.4129,22.4129,0,0,1,38.7007,56.0417Z"/><path class="cls-1" d="M38.7007,59.6473a25.993,25.993,0,1,1,25.993-25.993A26.0226,26.0226,0,0,1,38.7007,59.6473Zm0-51.1714A25.1785,25.1785,0,1,0,63.8792,33.6543,25.2068,25.2068,0,0,0,38.7007,8.4759Zm0,47.9731A22.7947,22.7947,0,1,1,61.4954,33.6543,22.8206,22.8206,0,0,1,38.7007,56.449Zm0-44.7748a21.98,21.98,0,1,0,21.98,21.98A22.0054,22.0054,0,0,0,38.7007,11.6742Z"/></g></svg>