<svg xmlns="http://www.w3.org/2000/svg" viewBox="0 0 94 84"><defs><style>.cls-1{fill:gray;}</style></defs><title>nav-home-s</title><g id="圖層_2" data-name="圖層 2"><path class="cls-1" d="M92.576,33.4161,48.31,1.0054a2.4258,2.4258,0,0,0-2.8665,0L1.1769,33.4161a2.4265,2.4265,0,1,0,2.8669,3.9156L46.8764,5.97,89.7091,37.3315a2.4264,2.4264,0,0,0,2.8669-3.9154Z"/><path class="cls-1" d="M80.8465,37.8809a2.5519,2.5519,0,0,0-2.5073,2.4264V78.8746H59.0055V57.8467a12.1292,12.1292,0,1,0-24.2583,0v21.21H15.4135v-38.75a2.5512,2.5512,0,0,0-2.5069-2.4263,2.4136,2.4136,0,0,0-2.4177,2.4263V81.3556c-.0087,1.34,2.4177,2.4436,2.4177,2.4436H37.24a2.4282,2.4282,0,0,0,2.4221-2.2374,1.8116,1.8116,0,0,0,.0095-.189V57.9907a7.2962,7.2962,0,1,1,14.5915-.1265V81.3728a1.7633,1.7633,0,0,0,.0095.1868,2.428,2.428,0,0,0,2.4221,2.24H80.8466s2.4264-1.1036,2.4172-2.4436V40.3074A2.413,2.413,0,0,0,80.8465,37.8809Z"/></g></svg>