<svg xmlns="http://www.w3.org/2000/svg" viewBox="0 0 94 84"><defs><style>.cls-1{fill:#343170;}</style></defs><title>nav-map-s</title><g id="圖層_2" data-name="圖層 2"><path class="cls-1" d="M37.52,19.04a4.231,4.231,0,1,1,4.231-4.2309A4.2359,4.2359,0,0,1,37.52,19.04Z"/><path class="cls-1" d="M91.02,74.6883,84.1447,28.8547a8.0588,8.0588,0,0,0-8.02-6.9069H49.9369A14.4649,14.4649,0,0,0,49.791,8.09,13.8818,13.8818,0,0,0,37.97.8c-.2972-.0086-.6025-.0086-.9017,0a13.8812,13.8812,0,0,0-11.82,7.29,14.4669,14.4669,0,0,0-.1456,13.858H15.8388a8.0588,8.0588,0,0,0-8.02,6.9061L.9439,74.6883a8.1166,8.1166,0,0,0,3.3515,7.8371A8.2345,8.2345,0,0,0,9.0718,84H83a8.11,8.11,0,0,0,8.02-9.3117Zm-60.831-63.962a8.1852,8.1852,0,0,1,7.0448-4.3752c.0945-.0028.19-.004.2865-.004s.192.0014.2854.004a8.1857,8.1857,0,0,1,7.0459,4.3752,8.8837,8.8837,0,0,1-.1147,8.8835L37.52,31.76,30.3056,19.6133a8.8835,8.8835,0,0,1-.1168-8.887ZM84.87,77.5014a2.4394,2.4394,0,0,1-1.87.8575H31.8992a5.698,5.698,0,0,1,2.99-4.5412A2.9694,2.9694,0,0,0,36.211,70.24a2.8215,2.8215,0,0,0-3.9683-1.4052,11.1508,11.1508,0,0,0-5.6949,7.4421,12.3478,12.3478,0,0,0-.29,2.0821H8.9637a2.468,2.468,0,0,1-2.4409-2.834L13.3979,29.69a2.4526,2.4526,0,0,1,2.4411-2.1013H28.43l5.473,9.2146a4.198,4.198,0,0,0,7.2321.0035L46.61,27.5889H76.1252a2.4527,2.4527,0,0,1,2.441,2.1019l6.8751,45.834a2.4408,2.4408,0,0,1-.571,1.9766Z"/><path class="cls-1" d="M49.6945,36.1082A2.8205,2.8205,0,1,0,47.9106,41.46a6.76,6.76,0,0,1,3.8574,3.8574A2.8206,2.8206,0,0,0,57.12,43.5333a12.5293,12.5293,0,0,0-7.4253-7.4251Z"/><path class="cls-1" d="M52.0863,53.8734a2.82,2.82,0,0,0-3.5985,1.7211c-1.5919,4.51-7.0484,6.4478-7.163,6.4876a2.8206,2.8206,0,0,0,1.7937,5.3484c.332-.1105,8.16-2.7926,10.6891-9.9585a2.8208,2.8208,0,0,0-1.7213-3.5986Z"/></g></svg>