<svg id="圖層_1" data-name="圖層 1" xmlns="http://www.w3.org/2000/svg" viewBox="0 0 47.6964 47.293"><defs><style>.cls-1{fill:#8a6139;}</style></defs><title>popup</title><path class="cls-1" d="M10.5654,41.6277c-.5754-3.3166-1.0294-4.8929,1.8575-7.1549,2.9411-2.3045,1.6182-1.0523,3.7112-1.951a25.1452,25.1452,0,0,0,2.2947-1.1451c4.001-2.2189-4.5852-.3243,4.1835-1.8014,3.8434-.6474,3.6111-.1978,5.84,2.3736a12.4851,12.4851,0,0,0,3.09,2.824c1.7324,1.104,4.5268,1.959,4.3019,4.6778-.5043,6.0952-6.738,5.1653-10.9242,4.3449-4.4768-.8775-12.6024,3.291-14.0871-2.76-.322-1.3123-3.2233-.55-2.8978.7764a6.7121,6.7121,0,0,0,6.2938,5.4207c2.33.1337,4.2369-1.1641,6.4564-1.4874,2.6428-.3849,5.1882,1.0639,7.8458,1.0213,6.1471-.0985,14.6632-4.9422,8.752-11.9455-1.1408-1.3516-2.6258-1.4652-4.097-2.3648-2.126-1.3-3.0841-3.67-5.1919-5.0625a8.1059,8.1059,0,0,0-8.4417-.5137c-1.7566.988-2.74,2.9942-4.6505,3.778-1.5481.6351-3.1181.1327-4.6925,1.1675C6.5965,34.2,7.0222,38.6841,7.6677,42.4042c.2273,1.31,3.1332.58,2.8977-.7765Z"/><path class="cls-1" d="M36.5813,27.9274a16.9783,16.9783,0,0,1,.76-5.6243,14.8379,14.8379,0,0,1,.9956-2.3726q.3831-1.7173,1.9725-1.0056,1.5484-.4148,1.7431,1.1123a10.6481,10.6481,0,0,1,.524,5.4489A3.7585,3.7585,0,0,1,40.97,28.1277c-1.7925,1.0991-3.0622-.3533-3.8879-1.874-.6657-1.226-3.4044-.0873-2.6422,1.3165,1.7112,3.1514,5.0646,4.5241,8.2517,2.3558,3.3161-2.2561,3.4138-6.8374,2.3576-10.3253-.9463-3.1245-3.9627-4.9218-6.9822-3.07-3.5382,2.17-4.4851,7.8066-4.432,11.5778.0224,1.5921,2.9662,1.2213,2.9464-.1809Z"/><path class="cls-1" d="M27.5522,13.3788A34.443,34.443,0,0,1,28.563,7.0914c.4025-1.3679.7554-2.8943,2.4654-3.1766A3.1415,3.1415,0,0,1,34.1458,5.718a6.18,6.18,0,0,1-.223,5.9462C32.98,13.3024,29.25,16.82,28.5714,13.25c-.2238-1.1775-3.1315-.4531-2.8978.7765.7929,4.1711,4.8855,3.0067,7.6309,1.25,3.1993-2.0471,5.4066-5.9895,4.0221-9.7939C36.22,2.441,32.3339,1.2308,29.3652,2.2441,25.2474,3.65,24.9914,10.1269,24.6343,13.666c-.1353,1.3405,2.8013.8678,2.9179-.2872Z"/><path class="cls-1" d="M14.2911,14.0672A11.3928,11.3928,0,0,1,14.4359,7.34c.3859-.9693,1.1677-2.8786,2.5121-2.5429.9024.2254,1.3693,1.6272,1.5615,2.4116A14.0858,14.0858,0,0,1,18.406,13.75c-.1506.5171-.6112,2.0468-1.1141,2.1712-1.0146.2511-2.4563-1.6771-2.83-2.3117-.4422-.7506-3.1682.3175-2.8977.7764a5.3164,5.3164,0,0,0,7.4088,2.0859c3.03-1.9046,3.3464-7.3006,2.3479-10.4121-.9362-2.9179-3.9739-3.3648-6.4378-2.0546-3.9668,2.1093-4.348,6.9205-3.49,10.8391.1481.6758,3.0611-.0312,2.8978-.7765Z"/><path class="cls-1" d="M5.5856,27.7683c-.2527-1.5684-.4483-3.1411-.545-4.7274-.0512-.8412-.5244-5.7956,1.92-4.04.984.7068,1.0621,3.273.9624,4.301-.0725.7463-.77,3.92-1.8406,3.6883-.7612-.1647-3.3656,1.0338-1.83,1.366a5.4733,5.4733,0,0,0,5.9017-3.173c1.0087-2.1117,1.2386-6.1855-.9864-7.6791-1.6665-1.1188-4.9389-.3562-6.219,1.1137a5.1952,5.1952,0,0,0-.8742,3.6136,42.3564,42.3564,0,0,0,.613,6.3128c.1243.7718,3.0421.12,2.8978-.7764Z"/></svg>