<svg id="圖層_1" data-name="圖層 1" xmlns="http://www.w3.org/2000/svg" viewBox="0 0 118.777 80.983"><defs><style>.cls-1{fill:#fbe8b8;}</style></defs><title>popup</title><path class="cls-1" d="M116.3985,57.8575c-2.3623-2.8877-5.823-4.5727-9.2485-5.7943a129.596,129.596,0,0,0-25.7585-5.864,153.1733,153.1733,0,0,0-26.7726-1.34A147.1935,147.1935,0,0,0,27.847,48.3523q-6.5253,1.4764-12.8934,3.5739-3.2949,1.0875-6.5328,2.3431A26.7061,26.7061,0,0,0,3.418,56.5766C.0338,58.7819-.8387,62.3411.8065,66.0445a17.0021,17.0021,0,0,0,7.7166,7.8242c3.84,2.04,8.14,2.8361,12.401,3.3789,4.5768.583,9.1709,1.0454,13.7574,1.5489a1.0833,1.0833,0,0,0,.9526,1.0818c19.6931,2.2293,39.3729.9669,58.8592-2.4554a73.2588,73.2588,0,0,0,13.2119-3.3848c3.45-1.3,7.3755-2.8994,9.6615-5.9787C119.8005,64.781,118.8275,60.8269,116.3985,57.8575Zm.3934,6.6754c-.6052,3.785-5.2187,5.7536-8.2867,7.0213A63.2734,63.2734,0,0,1,96.56,74.9814,201.3974,201.3974,0,0,1,43.8411,78.6a1.0638,1.0638,0,0,0-.9391-.9225l-13.61-1.5131a126.37,126.37,0,0,1-13.1241-1.7437,21.8571,21.8571,0,0,1-10.46-4.9928C3.146,67.0276.1184,62.2717,3.3281,59.19a13.622,13.622,0,0,1,4.51-2.524q2.8919-1.1531,5.8347-2.1686Q19.55,52.4657,25.59,50.972a142.9788,142.9788,0,0,1,24.7305-3.8536,151.8329,151.8329,0,0,1,49.5448,4.8769,48.8117,48.8117,0,0,1,10.5779,3.6891C113.4607,57.3087,117.4219,60.5928,116.7919,64.5329Z"/><path class="cls-1" d="M25.1765,60.3963a3.0942,3.0942,0,0,1-3.0637-1.388c-.4913-.7936-.5871-1.7527-1.66-1.9385a1.0223,1.0223,0,0,0-1.2326,1.2493c.3473,1.3172-2.3914,1.9749-3.2176,2.28a13.1451,13.1451,0,0,1-3.7852.887c-1.2818.0765-1.29,2.1082,0,2.0311a19.0776,19.0776,0,0,0,6.4235-1.8067,5.2626,5.2626,0,0,0,1.9525-1.3628,4.9982,4.9982,0,0,0,1.2319,1.2151,4.9018,4.9018,0,0,0,3.3507.8645C26.4458,62.2907,26.46,60.2581,25.1765,60.3963Z"/><path class="cls-1" d="M41.0723,59.8058A7.9225,7.9225,0,0,0,45.4237,56.49a7.147,7.147,0,0,0,10.802.4785,7.5528,7.5528,0,0,0,5.95,3.4217,5.9883,5.9883,0,0,0,4.41-1.42c.829-.7548,1.4187-1.9667,2.2959-2.7182a5.1753,5.1753,0,0,0,5.0462,3.4516c1.2853-.0521,1.2918-2.0835,0-2.0311a3.211,3.211,0,0,1-3.37-2.9483,1.0168,1.0168,0,0,0-1.2685-.9793c-2.4133.7906-3.0385,3.793-5.4271,4.46a5.4183,5.4183,0,0,1-6.4729-3.4488,1.0093,1.0093,0,0,0-1.8315-.2426,5.1534,5.1534,0,0,1-9.3446-.6593c-.3717-.873-1.5809-.4913-1.8315.2426a5.87,5.87,0,0,1-3.8423,3.75C39.3118,58.234,39.8358,60.1954,41.0723,59.8058Z"/><path class="cls-1" d="M95.15,59.39c-2.0115-.3872-2.8321-2.3149-3.5814-4.0327A1.0061,1.0061,0,0,0,89.737,55.6c-.32,2.3881-3.201,2.9343-4.964,3.8916-1.1373.6176-.1262,2.3717,1.0115,1.7539,1.6525-.8973,3.7681-1.5553,4.9739-3.0075a5.7709,5.7709,0,0,0,3.8588,3.1107C95.8776,61.5912,96.4176,59.634,95.15,59.39Z"/><path class="cls-1" d="M85.037,69.7959c-2.3259-.3772-3.5159-2.6061-4.5215-4.5434a1.0071,1.0071,0,0,0-1.8315.7826c.703,1.99-2.7307,1.7845-3.797,1.7351-1.6105-.0746-4.0168-.5063-3.9937-2.6057a1.0075,1.0075,0,0,0-1.8673-.5126,6.4761,6.4761,0,0,1-11.303.1116,1.0033,1.0033,0,0,0-1.73,0,5.49,5.49,0,0,1-9.8951.3939,1.0028,1.0028,0,0,0-1.73,0c-.8715,1.7632-2.0146,4.0531-4.3126,3.8607-2.5433-.2131-4.0807-2.6984-5.3215-4.6549a1.0086,1.0086,0,0,0-1.73,0,13.1138,13.1138,0,0,1-4.1362,3.9756c-1.1027.675-.0965,2.4321,1.0115,1.7539a15.3374,15.3374,0,0,0,3.9409-3.463c1.5184,2.202,3.4179,4.2509,6.2358,4.4195,2.4852.1488,4.114-1.5252,5.2911-3.48A7.49,7.49,0,0,0,56.94,67.0991a8.4757,8.4757,0,0,0,12.5553.2814c1.9834,3.1442,8.2883,3.2649,10.5228,1.0269a6.8562,6.8562,0,0,0,4.4864,3.3471C85.766,71.9591,86.3091,70.0022,85.037,69.7959Z"/><path class="cls-1" d="M27.3193,49.5106c.0426-4.7411,1.8406-10.5339-3.5057-12.09-4.1589-1.21-15.8524-2.5922-9.4659-10.9385,1.3167-1.7208,2.2409-1.6821,2.7933-4.0218,1.1-4.6585-.2479-11.1539,4.9346-13.9377,7.0688-3.7969,11.8852,4.7727,13.9358,9.9253,1.18,2.9642,4.6766,9.3058,4.008,12.4136-1.4046,6.5293-9.4052,7.5858-14.7428,7.5722L26.75,39.9073l.0316-16.654a1.474,1.474,0,0,0-2.9462,0l-.0317,16.654A1.4948,1.4948,0,0,0,25.2766,41.38c8.9508.0228,20.0641-3.6029,16.9554-14.5384-2.2693-7.9828-7.01-23.4065-18.0377-22.0552-4.0647.4981-6.9592,3.5649-8.4351,7.2192-1.1518,2.8518-.5523,5.8473-1.4105,8.6423-1.1758,3.83-3.8159,3.7431-5.3077,6.7169-1.64,3.27.2665,6.5406,2.8447,8.63a20.4026,20.4026,0,0,0,7.2171,3.5458c3.0372.8522,4.4116-.23,5.3258,3.7848.42,1.8447-.0388,4.3176-.0555,6.1848a1.474,1.474,0,0,0,2.9462,0Z"/><path class="cls-1" d="M25.9525,32.75c3.1985-1.2588,6.9455-3.24,6.7-7.26-.1153-1.8837-3.0623-1.8968-2.9463,0,.1553,2.5376-2.5688,3.645-4.5365,4.4193-1.7442.6865-.9846,3.5368.7833,2.841Z"/><path class="cls-1" d="M42.2615,21.6374c2.5058-3.8693,6.5653-6.3319,10.1887-9.0515l1.9-1.4261q1.2587-1.8171,2.8783-.2038c2.0835.5441,4.3545,3.2394,5.9688,4.6885,1.4075,1.2634,3.4979-.8135,2.0833-2.0833-3.0369-2.7261-7.5889-8.1166-11.784-5.4208-4.8392,3.11-10.619,7.13-13.7791,12.01-1.0336,1.5962,1.5159,3.0747,2.544,1.487Z"/><path class="cls-1" d="M52.1616,39.0842c2.2425-6.698,7.3167-11.5869,11.3466-17.214C67.6,16.1565,71.1314,10.5112,76.8166,6.21c1.5532-1.1752,2.6473-2.7331,4.5965-1.581.79.4671,1.6524,3.0733,2.0983,3.9082q2.6124,4.8911,5.1709,9.81Q93.8,28.1866,98.7,38.1354c.84,1.7,3.3817.2089,2.544-1.4871q-4.9115-9.9432-10.0179-19.7877-2.3026-4.4274-4.6495-8.8316C85.3421,5.7111,84.1645,2.2564,82.1829.4476A1.4618,1.4618,0,0,0,80.75.0687C73.8674,2.7843,68.307,9.7374,64.2282,15.6156,59.16,22.9192,52.18,29.76,49.3206,38.301c-.6033,1.802,2.2411,2.5749,2.841.7832Z"/><path class="cls-1" d="M39.8405,39.3793c4.1855-.2578,7.9357.7138,12.0214,1.2429,5.0335.6518,10.2913.243,15.35.1317,11.183-.246,22.3535-.8528,33.5216-1.4583,1.8858-.1023,1.8978-3.0491,0-2.9463-11.1681.6056-22.3386,1.2123-33.5216,1.4584-4.9809.11-10.1452.5081-15.0948-.1576-4.2193-.5674-7.9649-1.4826-12.2763-1.217-1.8836.116-1.8967,3.063,0,2.9462Z"/><path class="cls-1" d="M40.8345,22.9253c1.5625,3.73,3.7082,10.1017.5641,13.6171l2.4621.65c-.8141-2.0763.2145-5.2093.27-7.3835.0875-3.4344-.718-6.8979,1.8719-9.7611L43.689,19.75c1.0985,2.3009.3975,6.3037.4092,8.7367l.0449,9.3563a1.48,1.48,0,0,0,2.8936.3916c1.7172-7.1907.582-14.6493,2.4327-21.8076l-2.6925.3519c2.9481,5.5019,1.4225,14.7324,1.3787,20.8136h2.9463c-.3866-7.7611-4.5211-18.9671,2.677-25.187l-2.5148-1.0417c.9825,7.3533-.1178,14.4616-1.4523,21.7054l2.8936.3916c.0288-4.8835-2.1879-20.0182,4.2206-21.3814l-1.6636-.677c1.1028,2.5766-.7967,7.4148-1.4266,10.1139q-1.11,4.7575-2.2265,9.5139a1.4745,1.4745,0,0,0,2.841.7832,106.6593,106.6593,0,0,1,8.8252-17.572l-2.6925-.3519A9.5425,9.5425,0,0,1,59.14,20.6535l2.6925.3519c-1.24-6.8357-1.7778-10.3817-8.9947-6.7664-1.5089.7559-.4515,3.1354,1.1352,2.6924,3.908-1.0911,3.731-4.8547,1.7483,2.3359a1.4744,1.4744,0,0,0,2.841.7833c.5312-1.9267,1.5827-6.2775-.5929-7.6777-1.9808-1.2748-3.0072,1.2227-4.78,1.7175l1.1352,2.6925c4.4547-2.2316,4.07,1.7152,4.6666,5.0057a1.4878,1.4878,0,0,0,2.6925.3519c1.642-3.0537,2.69-5.6091,1.74-9.0344a1.491,1.491,0,0,0-2.6925-.3519A110.7621,110.7621,0,0,0,51.6093,31.03l2.841.7832c1.0867-4.6434,2.3053-9.2776,3.2353-13.955.5181-2.6064,1.1969-5.4289.1207-7.943a1.4877,1.4877,0,0,0-1.6636-.677,8.3091,8.3091,0,0,0-6.0842,6.52c-1.1709,5.5065-.2662,12.0937-.2993,17.7027-.01,1.6132,2.5855,2.0641,2.8936.3916,1.3785-7.4829,2.5747-14.8762,1.5576-22.4886a1.4965,1.4965,0,0,0-2.5148-1.0416C48.3185,13.24,47.5473,17.83,46.89,22.0656c-.8833,5.6868.9892,9.9652,1.2661,15.5267a1.4741,1.4741,0,0,0,2.9463,0c.0494-6.8668,1.5713-16.0444-1.781-22.3006a1.489,1.489,0,0,0-2.6925.3519c-1.8541,7.1717-.7169,14.6229-2.4327,21.8076l2.8936.3916-.06-12.4751c-.012-2.5022.2888-4.832-.7964-7.105a1.4822,1.4822,0,0,0-2.3137-.2981c-2.1973,2.4292-2.7826,5.0748-2.8042,8.3206-.0243,3.6637-1.452,8.2307-.0954,11.6905a1.4909,1.4909,0,0,0,2.4622.65c3.9909-4.4622,2.2818-11.5.1936-16.4836-.7218-1.7228-3.574-.9662-2.841.7832Z"/><path class="cls-1" d="M37.8479,39.2746l1.9428-.3714A1.4872,1.4872,0,0,0,40.82,37.0911a1.5041,1.5041,0,0,0-1.8121-1.0289l-1.9428.3714a1.4872,1.4872,0,0,0-1.0289,1.8121,1.5041,1.5041,0,0,0,1.8121,1.0289Z"/><path class="cls-1" d="M46.861,36.2892l.7024.2739a1.4841,1.4841,0,0,0,1.8121-1.0289,1.5073,1.5073,0,0,0-1.0288-1.8121l-.7025-.2739a1.4841,1.4841,0,0,0-1.8121,1.0289,1.5072,1.5072,0,0,0,1.0289,1.8121Z"/></svg>