<svg id="圖層_1" data-name="圖層 1" xmlns="http://www.w3.org/2000/svg" viewBox="0 0 73.723 67.1195"><defs><style>.cls-1{fill:#fbe8b8;}</style></defs><title>popup</title><path class="cls-1" d="M6.87,60.8949c-11.28-4.0372,2.7073-18.57,6.1474-22.9256a87.2134,87.2134,0,0,0,10.5254-17.435c2.8122-6.0958,9.8438-23.1723,18.4806-15.4,5.5692,5.0115,8.5017,13.0491,11.8649,19.56,3.5517,6.8764,7.86,13.3045,11.6213,20.0608,1.6186,2.9075,5.32,7.8664,5.1905,11.09-.2616,6.5374-10.4163,5.9965-14.8,6.4106-8.1814.7728-16.4028,1.2483-24.6023,1.7925-8.9268.5924-17.7489.8578-26.4639-1.5216a1.3346,1.3346,0,0,0-.709,2.5717c8.6091,2.35,17.3636,2.2507,26.2063,1.68,9.172-.5918,18.3906-1.0811,27.5313-2.0511,4.6387-.4922,14.6389.0477,15.736-5.9876,1.06-5.831-4.9037-13.8932-7.6414-18.5534-4.5249-7.7026-8.9484-15.33-13.0256-23.2834C49.9424,11.0731,46.351,3.2751,39.8755.56c-5.7626-2.4163-9.72,3.5188-12.8575,7.6887-4.8715,6.4743-7.3033,14.6793-11.6071,21.5755-4.1425,6.6378-25.8337,27.7072-9.25,33.6424,1.6188.5794,2.3157-1.9965.7089-2.5716Z"/><path class="cls-1" d="M35.4533,20.4452c1.2682,6.43.5806,13.0215.2482,19.5144-.0879,1.7153,2.5793,1.7106,2.6669,0,.3461-6.76.9766-13.53-.3435-20.2234-.3318-1.6823-2.9028-.97-2.5716.709Z"/><path class="cls-1" d="M37.3517,49.79a1.3342,1.3342,0,0,0,0-2.6669,1.3342,1.3342,0,0,0,0,2.6669Z"/><path class="cls-1" d="M36.43,48.9443l.2586.6317a1.3764,1.3764,0,0,0,1.64.9313,1.3422,1.3422,0,0,0,.9313-1.64l-.2585-.6316a1.3765,1.3765,0,0,0-1.64-.9314,1.3422,1.3422,0,0,0-.9314,1.64Z"/></svg>