<svg id="圖層_1" data-name="圖層 1" xmlns="http://www.w3.org/2000/svg" viewBox="0 0 85.3849 84.9244"><defs><style>.cls-1{fill:#fbe8b8;}</style></defs><title>popup</title><path class="cls-1" d="M51.6765,30.7456c2.6005.529,4.6576.92,6.7005,1.3752a3.944,3.944,0,0,1,2.5322,1.4376,1.1509,1.1509,0,0,1,.1494,1.4531c-.3321.44-.81.36-1.2815.2029a64.2456,64.2456,0,0,0-9.422-1.9158,3.5711,3.5711,0,0,0-3.0975.7464Q39.88,40.0785,32.4764,46.08a3.3341,3.3341,0,0,0-.4987.4906c-.3919.4892-1.1477.9223-.95,1.5706.248.8143,1.1722.6084,1.8305.65,4.7536.3032,9.0336,2.2619,13.4016,3.868,2.2413.8241,4.4366,1.7781,6.71,2.5268a5.35,5.35,0,0,1,2.893,1.8647.9794.9794,0,0,1,.0242,1.2922.94.94,0,0,1-1.2734.1407C50.1008,55.9764,45.1487,54.5824,40.35,52.79c-3.5725-1.3344-7.3123-1.4041-11.0045-1.8838a1.8736,1.8736,0,0,0-1.5914.5486,31.2492,31.2492,0,0,0-3.2907,3.3843q-6.94,8.6877-13.93,17.3352a8.7288,8.7288,0,0,1-.936,1.0378,1.1214,1.1214,0,0,1-1.5839.1172,1.0825,1.0825,0,0,1-.2-1.5646c.3465-.5383.74-1.0485,1.1393-1.55,1.7077-2.1473,3.4013-4.3065,5.15-6.42a1.6044,1.6044,0,0,0-.0834-2.4368C10.654,57.545,7.701,53.4124,4.7241,49.2961A12.4335,12.4335,0,0,1,2.14,41.299C2.2478,38.68,1.399,36.234.8084,33.74-.4061,28.61-.39,23.58,1.8134,18.6578c3.4919-7.7985,12.347-10.1466,19.04-4.9525.9759.7573,1.4.8279,1.7-.5143,1.39-6.2231,5.3868-10.17,11.11-12.591,3.5-1.48,9.569-.085,12.1842,2.6922,1.4472,1.5368,2.9,2.9921,3.5419,5.1006.408,1.3393,1.0819.4587,1.6748.0308C56.75,4.3213,62.8583,1.97,70.0529,3.4251c5.1108,1.0336,8.4845,3.8185,10.1265,8.7971,2.354,7.1373,1.9644,14.0167-1.725,20.622-.4749.85-.5632,1.4272.3255,2.06a18.674,18.674,0,0,1,5.3839,6.5878,8.8778,8.8778,0,0,1-3.8077,12.5249,13.7909,13.7909,0,0,1-2.2511.9561c-1.1245.3583-1.0758.8165-.31,1.5558a15.1739,15.1739,0,0,1,3.9159,6.3444c2.35,7.2671-.5784,14.724-7.345,18.8226a22.3582,22.3582,0,0,1-11.489,3.224A30.2064,30.2064,0,0,1,46.129,80.4521,111.0781,111.0781,0,0,0,24.1013,69.8054a28.0044,28.0044,0,0,1-5.276-2.3367c-.5829-.3423-1.37-.7263-.9411-1.6028a1.48,1.48,0,0,1,1.8463-.6191c1.012.2683,1.9975.644,2.9829,1.005,7.1512,2.62,13.7875,6.3139,20.51,9.83,2.4293,1.2706,4.8364,2.5805,7.2471,3.8824C54.9246,82.37,59.9,82.4814,64.8069,82.47A16.0311,16.0311,0,0,0,77.872,76.1013a13.5644,13.5644,0,0,0,.0513-17.0036,10.3945,10.3945,0,0,0-4.7753-3.4189c-.5437-.1834-1.2065-.3635-1.0667-1.1462.114-.6382.71-.6888,1.2311-.7835a33.66,33.66,0,0,0,4.1192-.78c5.5153-1.7382,7.3519-6.7467,4.2746-11.6121-1.56-2.4663-3.078-4.9882-6.3349-5.632-1.04-.2056-1.2115-1.0311-.4419-1.8535,6.4972-6.9424,5.9332-14.7743,2.7444-22.84-1.2529-3.169-3.9358-4.774-7.1955-5.5469-6.9183-1.64-12.9168.4733-18.3152,4.613-3.5,2.6839-3.47,2.844-4.8006-1.1883C45.4547,3.1267,37.51.5221,32.8194,3.1715c-5.6333,3.1819-8.2088,7.8524-8.9869,13.9225-.0371.2893-.0423.5831-.0859.8712-.0844.557.0376,1.2968-.7,1.4454-.7829.1576-.8649-.6206-1.1244-1.1074-1.879-3.5242-4.7534-5.9108-8.7841-5.5571A11.4328,11.4328,0,0,0,4.0642,18.27c-2.5686,4.2579-2.6649,8.8964-1.6378,13.5676.8767,3.9871,2.0817,7.8979,2.1687,12.031a5.78,5.78,0,0,0,1.3034,3.0231c2.934,4.29,6.071,8.43,9.265,12.529.9894,1.27,1.7211,1.28,2.7.0129,2.0671-2.6769,3.9269-5.6054,6.3924-7.8617,3.6981-3.3843,6.9321-7.2634,10.9727-10.28,1.4013-1.0463,2.6588-2.2856,4.0635-3.3267a3.4581,3.4581,0,0,0,1.3751-3.8386,22.1174,22.1174,0,0,0-1.7224-5.13c-.29-.6176-.6942-1.3654.153-1.8541.7224-.4166,1.2087.1964,1.6354.6508a9.8446,9.8446,0,0,1,2.2006,4.8833c.3735,1.72.5749,1.833,1.9769.6861a98.3039,98.3039,0,0,1,14.2651-9.5,34.7694,34.7694,0,0,1,5.8611-2.7381c.5732-.1935,1.3895-.7182,1.74-.0429.3922.7548-.5775,1.0188-1.0749,1.3107-3.6244,2.1268-7.28,4.2-10.9107,6.3171C53.8542,29.2552,52.9709,29.8949,51.6765,30.7456Z"/></svg>