<svg id="圖層_1" data-name="圖層 1" xmlns="http://www.w3.org/2000/svg" viewBox="0 0 95.8592 113.3549"><defs><style>.cls-1{fill:#8e5094;}</style></defs><title>popup</title><path class="cls-1" d="M46.0431,92.8967c1.6826.5168,2.9445,1.5556,2.7735,3.4267a2.7421,2.7421,0,0,1-2.8432,2.7693c-1.792-.1642-2.78-1.613-2.8228-3.4292C43.1076,93.8179,44.4634,93.24,46.0431,92.8967Z"/><path class="cls-1" d="M78.3331,33.7459a2.5153,2.5153,0,0,1,2.5931,2.9212,2.5865,2.5865,0,0,1-2.7233,2.7886c-1.6741.0648-2.9907-.6548-2.9189-2.4648C75.3563,35.1665,76.6832,34.1875,78.3331,33.7459Z"/><path class="cls-1" d="M24.2156,49.2441a3.5566,3.5566,0,0,1-3.07-3.364c-.1885-1.8554,2.675-2.8878,2.675-2.8878s2.4241,1.6048,2.7634,2.985C27.0218,47.7578,25.65,48.5821,24.2156,49.2441Z"/><path class="cls-1" d="M8.1087,36.3527c-1.4991-.47-2.97-.98-2.89-2.8409.09-2.0893,1.7818-2.5864,3.4113-2.8162,1.6247-.2291,2.513.7375,2.2766,2.3305C10.6677,34.6381,10.2231,36.2793,8.1087,36.3527Z"/><path class="cls-1" d="M41.7079,2.9177c1.6877.1091,2.2558,1.195,2.23,2.65-.0353,2.0127-1.2417,2.8945-3.1563,2.951-1.4835.0438-2.65-.4-2.6131-2.1343C38.2169,4.1181,39.9959,3.5257,41.7079,2.9177Z"/><path class="cls-1" d="M65.794,60.8662a2.4931,2.4931,0,0,1,2.1236,3.1245c-.2734,1.7254-1.2237,3.2572-3.1279,3.12a2.44,2.44,0,0,1-2.311-2.6994C62.8007,62.5141,64.4367,61.6066,65.794,60.8662Z"/><path class="cls-1" d="M93.9057,81.2448c-1.7095-.4978-3.7261-1.0378-4.05-2.9983-.2853-1.7267,1.3987-2.4609,2.9364-2.5649,2.1236-.1437,2.7908,1.4652,3.0366,3.153A1.9981,1.9981,0,0,1,93.9057,81.2448Z"/><path class="cls-1" d="M70.711,15.6136a3.3909,3.3909,0,0,1-3.1529,2.7633c-1.8053.0419-2.7076-1.4117-2.7951-2.9559-.1019-1.7969,1.3128-2.7151,2.932-2.65A3.2514,3.2514,0,0,1,70.711,15.6136Z"/><path class="cls-1" d="M73.7639,22.91a3.4665,3.4665,0,0,1,3.1446,3.2089c.2192,1.3215-.3686,2.3809-1.8361,2.3145-1.8725-.0848-3.7339-.5313-3.8937-2.8977C71.0674,23.8871,72.4048,23.373,73.7639,22.91Z"/><path class="cls-1" d="M53.4068,92.5142c-1.8332-.0778-3.1837-.6756-3.1391-2.5079.0517-2.1263,1.8918-2.3947,3.4789-2.724,1.49-.3091,2.0828.6335,2.1872,1.9156A2.7634,2.7634,0,0,1,53.4068,92.5142Z"/><path class="cls-1" d="M60.9011,55.1248c-.3434,1.7113-3.1134,3.2278-3.1134,3.2278s-2.5778-.7861-2.5208-2.2693c.0691-1.7979,3.05-3.2805,3.05-3.2805S60.6609,53.5962,60.9011,55.1248Z"/><path class="cls-1" d="M24.9986,105.625c-.1567,1.1989-.4335,2.8606-2.5335,2.4386-1.4021-.2817-3.212-.83-2.9228-2.77a3.2326,3.2326,0,0,1,3.2511-2.6131C24.5679,102.563,25.0627,103.7225,24.9986,105.625Z"/><path class="cls-1" d="M37.9757,59.7456a2.71,2.71,0,0,1-2.9886,2.7306c-1.4663-.037-2.7725-.6363-2.498-2.3593a3.4932,3.4932,0,0,1,3.396-3.133C37.5922,56.9254,37.9479,58.3448,37.9757,59.7456Z"/><path class="cls-1" d="M81.6791,66.2228a2.1019,2.1019,0,0,1-2.2357,2.2189c-2.0391.1213-3.9144-2.8581-3.9144-2.8581s1.3869-2.29,2.6854-2.3209C80.1116,63.2168,80.873,64.8819,81.6791,66.2228Z"/><path class="cls-1" d="M91.9861,44.3468c-.176,2.25-1.2959,3.2131-3.2223,3.105-1.4471-.0813-2.6526-.8628-2.4262-2.42.2626-1.8054,3.4661-2.98,3.4661-2.98S91.8133,43.254,91.9861,44.3468Z"/><path class="cls-1" d="M18.0111,86.7529c.0539,2.2488-1.0479,2.88-2.8177,2.7818a2.3572,2.3572,0,0,1-2.5-2.4778c.0048-2.1316,1.6813-2.6937,3.3943-2.7793C17.9956,84.1823,17.9024,85.7535,18.0111,86.7529Z"/><path class="cls-1" d="M32.86,2.5854c.0661,1.9647-1.53,2.7552-2.7907,3.0991-2.0276.5531-2.3647-1.5293-2.633-2.8143a2.5123,2.5123,0,0,1,2.26-2.83C31.4465-.2584,32.267,1.17,32.86,2.5854Z"/><path class="cls-1" d="M34.9061,109.3812c-1.6436.0255-2.6648-.7809-2.64-2.2934.0244-1.4781.5306-3.139,2.3018-3.2621a2.8169,2.8169,0,0,1,3.031,2.6194C37.7426,108.1382,36.2933,108.8906,34.9061,109.3812Z"/><path class="cls-1" d="M58.6871,29.9946c-.5738,1.2837-.8176,3.0879-2.6234,3.1011a2.8455,2.8455,0,0,1-2.7841-2.888c-.136-1.8647,1.21-2.5569,2.8653-2.5572C57.6132,27.65,58.6582,28.2825,58.6871,29.9946Z"/><path class="cls-1" d="M42.0169,40.515c-.303,1.9326-1.1264,3.1628-2.9352,2.7935-1.4894-.3041-2.886-1.38-2.5656-3.0506.3028-1.5785,1.9537-2.22,3.4343-2.2608C41.69,37.9494,41.8181,39.4626,42.0169,40.515Z"/><path class="cls-1" d="M15.4679,59.6683c1.4952-.0744,2.4447.4189,2.4537,1.8736A3.2521,3.2521,0,0,1,15.21,65.0954a2.4284,2.4284,0,0,1-2.719-2.2876C12.3477,60.8807,13.95,60.0961,15.4679,59.6683Z"/><path class="cls-1" d="M21.0417,70.2345c-.0856,1.6172-.5937,3.0347-2.4509,3.0967a2.682,2.682,0,0,1-2.7915-2.8589c-.0339-2.1465,1.9738-2.4365,3.5185-2.63C20.907,67.6426,20.9754,69.0529,21.0417,70.2345Z"/><path class="cls-1" d="M24.8524,78.627c-.5609,1.3527-.9257,3.0934-2.9094,2.6388a3.08,3.08,0,0,1-2.633-3.1475c.1622-1.901,2.1146-1.9441,3.4506-2.1064C24.4356,75.8084,24.9325,77.1086,24.8524,78.627Z"/><path class="cls-1" d="M30.781,81.39c-1.6491-.0792-2.6295-.9313-2.5134-2.4438.1112-1.4484,2.4307-3.12,2.4307-3.12s2.879,1.1237,2.89,2.7431C33.6,80.2164,32.2157,81.0037,30.781,81.39Z"/><path class="cls-1" d="M93.9483,99.2146c-.6024,1.6782-1.4166,3.0676-3.1194,2.9117A2.5529,2.5529,0,0,1,88.471,99.41c.0753-1.3314.6756-2.7161,2.3506-2.6042A3.1113,3.1113,0,0,1,93.9483,99.2146Z"/><path class="cls-1" d="M58.9111,110.5037c-.0849,1.9083-.8884,2.9406-2.4407,2.8451a2.9508,2.9508,0,0,1-2.98-2.7661,2.49,2.49,0,0,1,2.478-2.5851C57.7306,107.909,58.31,109.4789,58.9111,110.5037Z"/><path class="cls-1" d="M15.0537,76.28c-.1548,1.5814-.5263,2.9677-2.2037,2.8559-1.5631-.1042-2.8124-.9764-2.6755-2.8358a2.546,2.546,0,0,1,2.8968-2.6042C14.8821,73.7543,14.9834,75.1168,15.0537,76.28Z"/><path class="cls-1" d="M6.5048,60.7c1.5453.2616,2.5717,1.0732,2.3107,2.6585-.2569,1.56-1.2657,2.8909-2.9511,2.7766a2.4791,2.4791,0,0,1-2.3788-2.6814C3.6481,61.82,4.9465,60.989,6.5048,60.7Z"/><path class="cls-1" d="M47.9486,106.1593c-.4636,1.5036-1.1763,3.1137-3.2018,2.9428a2.1129,2.1129,0,0,1-1.994-2.4154c.2913-1.7632,1.2979-3.0658,3.3246-3.0257C47.5751,103.6905,48.0293,104.6535,47.9486,106.1593Z"/><path class="cls-1" d="M35.6934,69.7728c-.5919,1.5084-1.5835,2.6569-3.24,2.6a2.1017,2.1017,0,0,1-2.1521-2.6812c.3075-1.54,1.3023-2.89,3.0077-2.6848A2.8129,2.8129,0,0,1,35.6934,69.7728Z"/><path class="cls-1" d="M47.4371,14.5475c-.1331,1.986-1.4581,2.795-3.29,2.8846-1.4585.0713-2.12-.8561-1.9913-2.24.1867-2.0047,1.7226-2.8838,3.3786-3.1583C47.1815,11.76,47.0023,13.4524,47.4371,14.5475Z"/><path class="cls-1" d="M58.95,69.7517A3.6528,3.6528,0,0,1,56.1616,73.25c-1.5044.4272-1.9989-.6954-2.051-2.0121-.073-1.8436.4783-3.3061,2.5475-3.5569C58,67.5182,58.8716,68.1407,58.95,69.7517Z"/><path class="cls-1" d="M72.4207,55.5077c-.5382,1.5285-1.2,2.9788-3.0332,2.8355a2.0913,2.0913,0,0,1-2.0691-2.7563c.4505-1.6856,1.5727-3.0705,3.5476-2.7377C72.1792,53.07,72.5235,54.2952,72.4207,55.5077Z"/><path class="cls-1" d="M34.8071,93.6587c1.368,0,2.1652.65,2.1293,2.0468a3.1859,3.1859,0,0,1-3.0743,3.1831,1.8464,1.8464,0,0,1-2.1542-2.0519A3.2445,3.2445,0,0,1,34.8071,93.6587Z"/><path class="cls-1" d="M84.8806,97.7688a2.1969,2.1969,0,0,1-2.7184,2.1323c-1.1966-.1577-2.94-.1569-2.8842-1.9447.0616-1.9754,1.7875-2.76,3.3972-2.8869C84.2972,94.9416,84.5212,96.57,84.8806,97.7688Z"/><path class="cls-1" d="M68.19,29.01c2.0222-.0637,2.4709,1.2927,2.4529,2.6121-.0182,1.3417-.6033,2.7557-2.2979,2.7051a2.9455,2.9455,0,0,1-2.8372-2.4311C65.162,29.891,67.1458,29.7341,68.19,29.01Z"/><path class="cls-1" d="M55.19,10.01c2.0222-.0637,2.4709,1.2927,2.4529,2.6121-.0182,1.3417-.6033,2.7557-2.2979,2.7051a2.9455,2.9455,0,0,1-2.8372-2.4311C52.162,10.891,54.1458,10.7341,55.19,10.01Z"/><path class="cls-1" d="M19.7971,33.4954c-1.1994-.2042-2.488-.5984-2.2766-2.0433a3.198,3.198,0,0,1,3.523-2.7649c1.4786.0073,2.01,1.0077,1.8582,2.328C22.6953,32.8086,21.5065,33.5074,19.7971,33.4954Z"/><path class="cls-1" d="M57.9121,100.9961c-.2175,1.5712-1.0489,2.5239-2.5949,2.3478-1.2645-.1441-2.9441-.5423-2.7323-2.13.1759-1.3183,1.04-3.0462,2.6256-3.1157C56.843,98.0269,57.5827,99.5251,57.9121,100.9961Z"/><path class="cls-1" d="M69.6756,71.9214a1.9132,1.9132,0,0,1,2.1609,2.154c-.0859,1.5029-.5336,3.1584-2.42,3.23A2.4505,2.4505,0,0,1,66.7486,74.89C66.7329,73.1516,68.16,72.3921,69.6756,71.9214Z"/><path class="cls-1" d="M27.7742,55.6728c-.5833,1.25-.5567,3.31-2.4819,3.0755a3.4255,3.4255,0,0,1-2.8177-3.0744c-.1324-1.6306,1.3666-2.2167,2.6571-2.3978C26.7267,53.0524,27.4042,54.2445,27.7742,55.6728Z"/><path class="cls-1" d="M22.5124,22.1615c-1.1456-.52-2.7911-.6888-2.75-2.331.0532-2.1276,1.9468-2.495,3.5307-2.7061,2.1408-.2854,1.7484,1.4883,1.6887,2.6818C24.91,21.2389,24.247,22.314,22.5124,22.1615Z"/><path class="cls-1" d="M70.32,84.2707c-.1447,1.7822-1.5268,2.0192-2.7794,2.1924-1.3645.1886-2.8536-.1216-3.0193-1.72-.1761-1.7,1.1633-2.67,2.6873-2.95C69.0585,81.4538,69.705,82.9206,70.32,84.2707Z"/><path class="cls-1" d="M30.9194,87.5771c-.2039,2.1174-1.8279,1.9819-3.3175,1.9694-1.257-.01-2.4879-.2777-1.9574-1.972.4535-1.4484,1.1993-2.89,3.03-2.7875C30.2657,84.8759,30.8885,86.0277,30.9194,87.5771Z"/><path class="cls-1" d="M17.4343,40.691a2.7943,2.7943,0,0,1-2.8264,2.686A2.0858,2.0858,0,0,1,12.27,40.93a2.9656,2.9656,0,0,1,2.7313-2.937C16.6018,37.8915,16.9543,39.4034,17.4343,40.691Z"/><path class="cls-1" d="M35.7178,12.3813c-.2974,2.0693-1.3062,3.3169-3.0349,3.7151-1.5642.36-2.05-.9522-1.985-2.0824.08-1.3906.1714-3.0836,2.1356-3.3264A2.4626,2.4626,0,0,1,35.7178,12.3813Z"/><path class="cls-1" d="M74.8793,95.7175c-.034,1.6593-.8118,2.6833-2.3793,2.6435a2.3827,2.3827,0,0,1-2.3656-2.643c-.0371-1.4562,2.0816-2.8693,2.0816-2.8693S74.4238,94.4188,74.8793,95.7175Z"/><path class="cls-1" d="M90.8793,88.7175c-.034,1.6593-.8118,2.6833-2.3793,2.6435a2.3827,2.3827,0,0,1-2.3656-2.643c-.0371-1.4562.4808-2.7388,2.0816-2.8693C90.2107,85.6862,90.4238,87.4188,90.8793,88.7175Z"/><path class="cls-1" d="M22.9194,5.6329c1.2885.0364,2.575.3548,2.6588,1.71a3.4655,3.4655,0,0,1-2.8994,3.4779c-1.2368.3177-2.1755-.9741-2.2349-2.1176A2.7233,2.7233,0,0,1,22.9194,5.6329Z"/><path class="cls-1" d="M49.9158,33.64a1.8642,1.8642,0,0,1,2.01,2.2963c-.1905,1.5488-.9108,3.062-2.6794,2.8272a2.8232,2.8232,0,0,1-2.4492-2.7159C46.9144,34.37,48.4223,33.7689,49.9158,33.64Z"/><path class="cls-1" d="M31.9393,37.8036A2.6349,2.6349,0,0,1,29.0726,40.47c-1.4385.0074-2.8029-.5435-2.544-2.1887.2592-1.6477,1.9669-2.0907,3.3553-2.4351C31.3283,35.488,31.9368,36.4246,31.9393,37.8036Z"/><path class="cls-1" d="M61.9893,46.2975a1.9736,1.9736,0,0,1-2.5186,2.1388c-1.3887-.1894-2.722-1.0012-2.67-2.3621.0625-1.6248,1.5224-2.4,3.1257-2.41C61.6481,43.6521,62.0406,44.8359,61.9893,46.2975Z"/><path class="cls-1" d="M18.4373,52.24c-.3187,1.5207-2.7418,2.2484-2.7418,2.2484L12.83,52.24l2.98-2.4681S18.153,50.8114,18.4373,52.24Z"/><path class="cls-1" d="M27.968,66.96C27.6439,68.56,26.9,69.788,25.4809,69.87a2.1407,2.1407,0,0,1-2.3392-2.5219c.1235-1.5708.8214-3.0749,2.549-3.0267C27.131,64.3612,27.6731,65.8047,27.968,66.96Z"/><path class="cls-1" d="M51.0419,72.0578c-.0713,1.5364-.2956,3.1485-2.2548,3.0737-1.261-.0482-2.6967-.6808-2.5016-2.375a3.2349,3.2349,0,0,1,2.8677-2.8958C50.7438,69.609,50.9474,70.8544,51.0419,72.0578Z"/><path class="cls-1" d="M58.8677,80.2309A2.5079,2.5079,0,0,1,56.0633,82.48c-1.4744-.0221-2.7821-.6029-2.58-2.2953.1566-1.3144.861-2.68,2.6047-2.3637C57.402,78.06,58.6574,78.6007,58.8677,80.2309Z"/><path class="cls-1" d="M69.7124,104.4651a2.92,2.92,0,0,1-2.4572,2.6727,2.4959,2.4959,0,0,1-2.7565-2.2531,2.54,2.54,0,0,1,2.5891-2.9116C68.5234,101.913,69.2917,103.1257,69.7124,104.4651Z"/><path class="cls-1" d="M23.4465,99.4464c-1.3679-.2925-2.2622-.9523-1.9706-2.408a3.2821,3.2821,0,0,1,3.1673-2.7192c1.6838-.1706,1.9974,1.01,1.7234,2.2532C26.03,98.1014,25.1969,99.3352,23.4465,99.4464Z"/><path class="cls-1" d="M13.4465,100.4464c-1.3679-.2925-2.2622-.9523-1.9706-2.408a3.2821,3.2821,0,0,1,3.1673-2.7192c1.6838-.1706,1.9974,1.01,1.7234,2.2532C16.0295,99.1014,15.1969,100.3352,13.4465,100.4464Z"/><path class="cls-1" d="M29.404,30.4037c-1.3584-.234-2.719-.9944-2.6131-2.3757.1225-1.5979,1.5982-2.3619,3.23-2.367,1.4532-.0045,2.0528.9038,1.9288,2.2367A2.4967,2.4967,0,0,1,29.404,30.4037Z"/><path class="cls-1" d="M45.8925,65.73c-.05,1.7741-1.333,2.33-2.6548,2.4189a2.4065,2.4065,0,0,1-2.6739-2.3539c-.0313-1.5235,1.5526-2.2042,2.7315-2.4416C44.8825,63.0332,45.4463,64.4856,45.8925,65.73Z"/><path class="cls-1" d="M7.0105,23.44c-.0916,1.64-.7022,2.9208-2.5524,2.9138a2.12,2.12,0,0,1-2.21-2.1644c-.0632-1.7933,1.2634-2.6008,2.7682-2.8884C6.5831,21.0009,6.8393,22.2507,7.0105,23.44Z"/><path class="cls-1" d="M52.9689,62.0415c-.3243,1.3384-.8293,2.9259-2.6418,2.7335a2.5227,2.5227,0,0,1-2.0906-2.8975c.1325-1.524,1.266-2.206,2.75-2.2046C52.437,59.6743,52.9731,60.5584,52.9689,62.0415Z"/><path class="cls-1" d="M63.8708,22.3779c-.4434,1.415-1.1972,2.7331-2.8937,2.7278-1.3843-.0044-1.8185-1.2176-1.8471-2.4281-.0337-1.4229.4363-2.7422,2.0933-2.6815A2.4477,2.4477,0,0,1,63.8708,22.3779Z"/><path class="cls-1" d="M77.4774,102.71c1.4476.15,2.7706.8524,2.86,2.2689a3.0063,3.0063,0,0,1-2.4518,2.7954c-1.6185.3955-2.36-1.0351-2.61-2.3393C74.9737,103.8642,75.9552,102.9962,77.4774,102.71Z"/><path class="cls-1" d="M8.5531,93.1725c-.6172,1.4729-.8425,3.069-2.6663,2.6383-1.2787-.302-2.761-.9772-2.3653-2.6067a2.8968,2.8968,0,0,1,3.2614-2.3965C8.2252,91.0049,8.236,92.3423,8.5531,93.1725Z"/><path class="cls-1" d="M40.4648,87.2126c-.5033,1.7961-1.1755,3.3953-2.9866,3.6714a1.8332,1.8332,0,0,1-2.2038-2.0027,3.4561,3.4561,0,0,1,3.2048-3.1474A1.6889,1.6889,0,0,1,40.4648,87.2126Z"/><path class="cls-1" d="M82.2927,79.1382c-1.5439-.3913-1.9842-1.6616-2.0486-2.9542a2.141,2.141,0,0,1,2.43-2.4018A2.0978,2.0978,0,0,1,84.87,75.95C84.877,77.5912,83.8121,78.5787,82.2927,79.1382Z"/><path class="cls-1" d="M89.2927,61.1382c-1.5439-.3913-1.9842-1.6616-2.0486-2.9542a2.141,2.141,0,0,1,2.43-2.4018A2.0978,2.0978,0,0,1,91.87,57.95C91.877,59.5912,90.8121,60.5787,89.2927,61.1382Z"/><path class="cls-1" d="M47.9513,82.87A2.6549,2.6549,0,0,1,45,85.4714c-1.3512-.023-2.324-.8666-2.2041-2.1184.1953-2.0382,2.05-2.3584,3.6379-2.519C47.6984,80.7061,47.9461,81.805,47.9513,82.87Z"/><path class="cls-1" d="M84.9931,48.7868c-.2226,1.4286-.7476,2.67-2.4525,2.3256-1.2878-.26-2.6408-.9015-2.2251-2.6157a2.9171,2.9171,0,0,1,2.6683-2.4854C84.7051,45.9879,84.9139,47.43,84.9931,48.7868Z"/><path class="cls-1" d="M40.5646,33.5274c-1.1895-.076-2.2274-1.8393-2.2274-1.8393l2.918-2.8254,1.7514,2.311S42.155,33.5428,40.5646,33.5274Z"/><path class="cls-1" d="M71.8424,46.8485c-1.2077-.51-2.6969-.9975-2.3258-2.6646a2.8649,2.8649,0,0,1,2.8454-2.3446c1.974.0512,1.6973,1.6911,1.6244,2.9578C73.9155,46.0287,73.466,47.0909,71.8424,46.8485Z"/><path class="cls-1" d="M42.9549,75.9742c-.2025,1.2013-.6931,2.3212-2.08,2.1836-1.5423-.153-2.7993-.945-2.672-2.7915.1014-1.4692,1.2095-1.7461,2.422-1.7627A2.0147,2.0147,0,0,1,42.9549,75.9742Z"/><path class="cls-1" d="M78.67,84.6868c1.3171.2607,2.2573.9482,1.95,2.3606-.2882,1.3241-.9446,2.6744-2.6718,2.2583-1.1262-.2713-2.3381-1.0444-2.1572-2.3557C75.99,85.51,77.2337,84.8322,78.67,84.6868Z"/><path class="cls-1" d="M43.5211,52.8962c1.6031.0312,2.3666.8587,2.3436,2.1819A2.5638,2.5638,0,0,1,43.53,57.8487c-1.2117.05-2.0569-1.0969-2.2577-2.3129C40.9764,53.7438,42.5336,53.4651,43.5211,52.8962Z"/><path class="cls-1" d="M50.05,45.6908c-.0542,1.8978-.3415,3.3939-2.2589,3.6035-1.287.1407-1.614-.8682-1.7047-1.9393-.1483-1.751,2.3363-3.256,2.3363-3.256A6.785,6.785,0,0,1,50.05,45.6908Z"/><path class="cls-1" d="M34.8647,51.4857c-1.1887-.1716-2.4369-.53-2.3348-1.9551a2.8313,2.8313,0,0,1,2.9372-2.6894c1.2644-.0519,1.501,1.0156,1.5473,2.0454C37.0819,50.3867,36.592,51.4507,34.8647,51.4857Z"/><path class="cls-1" d="M37.72,18.6172c1.3075.0492,2.3852.5236,2.0483,2.0258a2.9044,2.9044,0,0,1-2.6676,2.4983c-1.44.0508-1.913-1.1322-1.953-2.3461C35.0917,19.0853,36.1911,18.5559,37.72,18.6172Z"/><path class="cls-1" d="M63.0545,36.6606a1.8538,1.8538,0,0,1,1.8651,2.32c-.1179,1.2537-.7387,2.4-2.1075,2.1645a2.5242,2.5242,0,0,1-2.3043-2.7235C60.6473,37.0337,61.8289,36.714,63.0545,36.6606Z"/><path class="cls-1" d="M62.7333,96.97c-1.3478-.342-2.1653-1.083-2.0351-2.1145.1874-1.4851.842-2.9252,2.6513-3.0669,1.3-.1018,1.6506.888,1.6287,1.9489A3.538,3.538,0,0,1,62.7333,96.97Z"/><path class="cls-1" d="M4.9549,80.9179a1.97,1.97,0,0,1,1.8879,2.3536c-.1469,1.3751-.9162,2.6131-2.4006,2.566a2.1215,2.1215,0,0,1-2.0154-2.3318C2.5316,82.0747,3.6136,81.3054,4.9549,80.9179Z"/><path class="cls-1" d="M48.2408,26.18a2.3737,2.3737,0,0,1-1.7931-2.6153c.1144-1.6823,1.4887-2.0172,2.8879-1.928.9793.0623,2.2285.3554,1.94,1.6275A4.22,4.22,0,0,1,48.2408,26.18Z"/><path class="cls-1" d="M14.4542,21.68c1.3223.1337,2.3683.7431,2.1509,2.1041a2.6158,2.6158,0,0,1-2.6438,2.3911,2.1571,2.1571,0,0,1-2.2114-2.16C11.8626,22.6327,13.09,21.9,14.4542,21.68Z"/></svg>