<svg id="圖層_1" data-name="圖層 1" xmlns="http://www.w3.org/2000/svg" viewBox="0 0 83.0711 82.2641"><defs><style>.cls-1{fill:#fbe8b8;}</style></defs><title>popup</title><path class="cls-1" d="M17.0107,35.9272a1.218,1.218,0,0,0-2.024-.0182,1.2763,1.2763,0,0,0-2.3128.1092,14.4339,14.4339,0,0,0-1.32,6.0361c.1562,1.66,1.8613,2.23,3.3164,1.8963C18.4247,43.09,18.7719,38.7077,17.0107,35.9272ZM14,41.67c-.5313.1235-.3115-.01-.2271-.45.0952-.4971.1407-1.0028.2456-1.4995a19.0159,19.0159,0,0,1,.841-2.8049,1.3017,1.3017,0,0,0,.1049.2086C15.9336,38.6533,16.2575,41.145,14,41.67Z"/><path class="cls-1" d="M29.5285,34.2805l.0576-.3632c.2366-1.492-2.0465-2.1344-2.285-.63-.4476,2.8224-2.664,9.7214,2.0257,10.3,4.716.5819,2.6916-6.7027,1.3967-8.7736A1.1179,1.1179,0,0,0,29.5285,34.2805Zm.3892,6.497c-.4178.7518-.8539.1959-1.0559-.3442a6.3257,6.3257,0,0,1,.1647-2.9867l.1007-.6353a7.3691,7.3691,0,0,1,.71,2.031A5.3311,5.3311,0,0,1,29.9177,40.7775Z"/><path class="cls-1" d="M41.9119,33.8378c.1913-1.5089-2.18-1.4949-2.37,0a62.59,62.59,0,0,0-.8957,7.161,2.1749,2.1749,0,0,0,2.68,2.375c1.6955-.4162,2.1725-2.3992,2.154-3.92a7.3426,7.3426,0,0,0-1.7054-4.5559C41.8205,34.5444,41.8671,34.1912,41.9119,33.8378Z"/><path class="cls-1" d="M70.781,30.0093C71.24,22.9,70.98,16.1236,66.0123,10.58A25.7059,25.7059,0,0,0,53.121,2.9167C47.7822.4726,41.9933-1.0731,36.223.8971a29.5585,29.5585,0,0,0-13.8586,9.9853,25.2024,25.2024,0,0,0-4.6261,12.527,15.2111,15.2111,0,0,0-4.8953.0109A8.7936,8.7936,0,0,1,14.5479,19.12c.8965-1.2362-1.1585-2.42-2.0463-1.1961a11.1064,11.1064,0,0,0-2.0337,5.5353,1.0458,1.0458,0,0,0,.13.6494A11.2983,11.2983,0,0,0,6.9026,26.783c-3.4594,3.67-4.9845,8.75-5.7908,13.6157C-1.1215,53.8734.8253,67.5622.1059,81.1228c-.0808,1.5241,2.2892,1.52,2.37,0,.5786-10.9087-.5634-21.8313.1209-32.7356.3307-5.2689.8994-10.9184,3.2119-15.7438a14.6736,14.6736,0,0,1,4.2633-5.5179c2.3633-1.7766,4.7556-1.884,7.5364-1.3749a29.8153,29.8153,0,0,0,4.1243,15.5541A24.8571,24.8571,0,0,0,30.23,49.8025c-.1014.0176-.2021.0326-.3038.0526C24.24,50.97,15.8228,55.6957,16.3693,62.4439a1.1976,1.1976,0,0,0,.97,1.0978,5.3282,5.3282,0,0,0,4.8991,4.7259c3.6349.4117,6.5706-2.0141,10.0038-2.6335,3.6153-.6524,7.3777.6507,10.7444-1.3013A5.3693,5.3693,0,0,0,45.7544,58.08a8.9268,8.9268,0,0,0-3.0588-4.0778,35.9776,35.9776,0,0,0,9.4654-.1146,20.4372,20.4372,0,0,0,2.1879-.44c.9943,8.6674,1.5008,17.4224,1.838,26.097.059,1.52,2.429,1.5276,2.37,0-.3476-8.9427-.9334-17.9206-1.9642-26.83,5.8237-2.2929,9.8106-7.1781,12.0576-12.9427l.885-2.6012A33.6314,33.6314,0,0,0,70.781,30.0093ZM19.6924,62.93a1.048,1.048,0,0,0-.966-1.1288,6.3966,6.3966,0,0,1,1.2819-3.57c-.0753,2.5713-.13,5.4743,1.3018,7.3749A2.4211,2.4211,0,0,1,19.6924,62.93ZM29.85,52.3159a11.1694,11.1694,0,0,1,4.3839-.0823,1.4813,1.4813,0,0,0-.5233.2572q-2.0652,1.5975-3.9464,3.3754A6.3482,6.3482,0,0,0,29.85,52.3159Zm3.4332,3.5714a11.9892,11.9892,0,0,1-1.123,3.1541q-1.146.026-2.2917.0487Q31.5031,57.4155,33.2835,55.8873ZM22.5229,61.5294c-.0044-.5968.0232-1.17.01-1.6008q-.0633-2.0174-.1269-4.0349c-.0006-.018-.0055-.0332-.0068-.0509a21.0029,21.0029,0,0,1,4.5079-2.5418A91.8621,91.8621,0,0,0,22.5229,61.5294Zm17.7783,1.3623c-2.3135.6186-4.7892.07-7.1454.2619a20.3935,20.3935,0,0,0-5.9417,1.7427,13.1532,13.1532,0,0,1-4.1373.9388.8359.8359,0,0,0,.2232-.291c.3377-.7866.6892-1.5656,1.0477-2.3407a1.0485,1.0485,0,0,0,1.7514.1815c.5035-.6408,1.0243-1.2637,1.5533-1.8779q1.5742-.0319,3.1482-.0669c-.0071.0141-.015.0277-.0219.0419a1.1857,1.1857,0,0,0,2.0461,1.196c.26-.4289.5155-.8613.7635-1.2973.9065-.021,1.813-.0464,2.72-.0688a1.17,1.17,0,0,0,1.7435.0963c.0374-.043.0782-.0917.1208-.1436,1.2364-.0317,2.4728-.06,3.7091-.0943a1.2055,1.2055,0,0,0,1.1424-1.5c-.225-1.3813-.7951-2.8637-2.3513-3.103a2.9088,2.9088,0,0,0-2.4794,1.0189,15,15,0,0,0-.4893-1.9969,1.1921,1.1921,0,0,0-1.9114-.57,9.1311,9.1311,0,0,0-.0586-1.6909,1.3714,1.3714,0,0,0-.4211-.85A15.0439,15.0439,0,0,1,42.33,56.9642C44.5563,59.417,43.3665,62.0723,40.3012,62.8917Zm-5.08-3.9219q.32-.3864.6626-.7573c.0376.2442.0621.4915.085.7383C35.72,58.957,35.47,58.9638,35.2212,58.97Zm3.1905-8.2557A22.6067,22.6067,0,0,1,25.6651,42.858a26.9165,26.9165,0,0,1-5.7084-16.692,9.0051,9.0051,0,0,0,3.7415-.14c1.9371-.5523,3.8632-2.6524,5.8858-2.6331,1.8519.0176,3.0713,1.9989,5.0085,2.1265a9.2274,9.2274,0,0,0,4.3809-1.2082,8.2537,8.2537,0,0,1,3.7982-1.1665,1.3015,1.3015,0,0,0,1.4508.4951,4.2338,4.2338,0,0,1,.5872.4454,20.902,20.902,0,0,1,4.2633,6.0823,45.461,45.461,0,0,1,3.8384,12.9857c.4405,2.629.82,5.2732,1.1529,7.9264C49.1282,52.4837,43.2965,51.8722,38.4117,50.7141Zm17.88-.4321c-.2618-2.0907-.54-4.1785-.8558-6.2591a52.366,52.366,0,0,0-3.8348-14.054c-1.2954-2.8268-3.6081-7.3175-6.8082-8.7955a14.04,14.04,0,0,0-2.1867-5.687c-.8408-1.2638-2.8941-.0785-2.0461,1.196a12.0544,12.0544,0,0,1,1.747,4.0213,11.5157,11.5157,0,0,0-3.9824,1.3,10.6784,10.6784,0,0,1-2.8184,1.08c-1.5428.2346-2.2948-.7478-3.5051-1.4273a4.5138,4.5138,0,0,0-1.8616-.5733A7.3887,7.3887,0,0,0,29.91,17.76c-.4455-1.4538-2.7337-.8338-2.285.63a5.0307,5.0307,0,0,1,.0971,2.7419,1.2606,1.2606,0,0,0-.0328.3376c-.1344.05-.2689.0974-.403.1545-.91.3877-1.7229.95-2.6,1.3987a7.312,7.312,0,0,1-4.6148.7518,24.2034,24.2034,0,0,1,2.0695-7.8375c2.3659-5.1538,6.722-8.798,11.6642-11.4064,4.956-2.6153,9.8249-2.4786,14.6686-.9089a1.254,1.254,0,0,0,1.0842.9957,24.1818,24.1818,0,0,1,2.6528.4795c.2975.1366.5949.2761.8924.4207a1.1738,1.1738,0,0,0,.8834.0744A23.506,23.506,0,0,1,63.304,11.176a16.9409,16.9409,0,0,1,4.34,6.47c.9648,2.8493.9179,5.956.8857,8.93C68.4276,35.9821,65.5323,46.2989,56.2912,50.282Z"/><path class="cls-1" d="M61.1529,50.5051c5.0951,2.0048,8.5276,6.282,13.2272,8.8677,3.6905,2.03,4.4338-.1423,6.1719-3.5831,1.4674-2.9048,3.9583-6.4056,1.4446-9.2758-3.1689-3.6181-9.341-6.1509-13.5658-8.2461-1.5346-.7611-2.889,1.5413-1.3478,2.3057a89.71,89.71,0,0,1,10.1676,5.8111c1.5071,1.0112,3.0076,1.517,3.0674,3.4966.02.6808-2.3128,6.0941-3.141,6.5923-2.4148,1.4525-5.5638-2.42-7.5279-3.93A31.7494,31.7494,0,0,0,61.8628,47.93c-1.6-.6294-2.2933,1.9518-.71,2.5748Z"/></svg>