<svg id="圖層_1" data-name="圖層 1" xmlns="http://www.w3.org/2000/svg" viewBox="0 0 89.7756 90.8643"><defs><style>.cls-1{fill:#fbe8b8;}</style></defs><title>popup</title><path class="cls-1" d="M8.17,81.7209C9.4688,75.2355,9.99,69.4092,7.1455,63.2562c-1.58-3.4176-3.5394-6.6155-4.2653-10.3653A27.9062,27.9062,0,0,1,4.4417,38.1661c2.7411-7.4732,8.69-17.2275,15.5752-21.4073,7.2381-4.3939,17.5153-5.9877,25.84-5.6188,8.2893.3673,15.9135,6.6119,21.6919,12.2259,6.2562,6.0782,8.7992,13.9593,10.4226,22.3175,1.6,8.2357,2.037,17.365-2.7777,24.68-4.94,7.5062-13.1235,11.7409-21.3771,14.6481-9.0311,3.181-19.5586,5.4621-28.25.1137-2.5588-1.5745-4.707-3.7971-7.6049-4.7931-3.4509-1.1861-7.1348-.5574-10.63.0508-1.582.2754-.9114,2.685.6646,2.4107,3.53-.6143,6.893-1.007,10.3212.4,1.7555.7205,3.2407,2.2031,4.7861,3.2716a24.19,24.19,0,0,0,10.657,4.126c8.4741,1.1628,17.17-1.5682,24.92-4.7618,7.0537-2.9068,13.87-7.1085,18.2362-13.5282,4.6379-6.8188,5.2431-14.988,4.1853-22.9644-1.06-7.9911-3.0132-16.66-7.855-23.2772a55.5789,55.5789,0,0,0-18.92-15.5821C47.1447,6.96,37.4062,8.5553,29.9244,10.42c-8.5278,2.1249-14.1166,5.61-19.4663,12.58C4.7166,30.48-.1542,39.2251.0037,48.9266A27.6436,27.6436,0,0,0,3.1664,60.8889C6.6629,67.9916,7.335,73.1876,5.76,81.0563,5.445,82.6274,7.8542,83.3,8.17,81.7209Z"/><path class="cls-1" d="M66.3818,1.2039l-.5364,9.7921c-.0881,1.6076,2.4122,1.6026,2.5,0l.5364-9.7921c.0881-1.6076-2.4122-1.6027-2.5,0Z"/><path class="cls-1" d="M75.2624,17.2385a12.416,12.416,0,0,0,2.3435-2.0866l2.4424-2.3788c1.1546-1.1245-.614-2.8915-1.7678-1.7678l-2.1853,2.1284A11.8147,11.8147,0,0,1,74.0006,15.08a1.2509,1.2509,0,0,0,1.2618,2.1586Z"/><path class="cls-1" d="M79.1644,24.8976l8.3661-.9781c1.5789-.1846,1.5976-2.6868,0-2.5l-8.3661.9781c-1.5789.1846-1.5976,2.6868,0,2.5Z"/><path class="cls-1" d="M52.1932,39.171c0-2.1085.0394-4.2181-.0173-6.325-.027-1.0031.1764-1.5117,1.3391-1.4972,1.1066.0138,1.1463.5958,1.1437,1.4144q-.0231,7.19.0007,14.38c.0028.8225-.0312,1.4741-1.1448,1.4157-.9179-.0482-1.7089.0885-2.0155-1.209a57.7729,57.7729,0,0,0-2.925-9.1635c0,2.8338.0146,5.6677-.0091,8.5013-.0069.8282.3788,1.8357-1.1821,1.88-1.4949.0428-1.3042-.8357-1.3035-1.744.0036-4.6281-.0072-9.2562.0109-13.8841.0026-.6714-.2832-1.68.9467-1.5308.99.12,2.3507-.7212,2.7748,1.1185.5227,2.2673,1.2413,4.49,1.8753,6.7312Z"/><path class="cls-1" d="M42.7709,38.9083c0,2.0646.09,4.1341-.0236,6.1924a3.565,3.565,0,0,1-3.8021,3.6957c-2.3955.0779-4.06-1.2125-4.1411-3.6149-.1415-4.2076-.0311-8.4232-.0835-12.6348-.0133-1.0668.518-1.16,1.3732-1.1924,1.0571-.04,1.4654.3065,1.4509,1.4024C37.4964,36.39,37.51,40.025,37.54,43.6589c.0084,1.0111-.3407,2.4482,1.203,2.53,1.735.0915,1.4776-1.4074,1.483-2.5277.0173-3.5514.0281-7.1033-.01-10.6545-.011-1.0326.0617-1.6955,1.4125-1.6675,1.3147.0273,1.1864.7877,1.1832,1.6227-.0077,1.9822-.0025,3.9645-.0025,5.9468Z"/><path class="cls-1" d="M28.988,31.38c.8372.662,2.9756-1.1886,3.1179,1.1517.1581,2.6-2.039,1.0538-3.1376,1.2868-.918.1948-1.3813.42-1.225,1.3509.27,1.6069-1.2187,4.3627,2.4629,3.7975.9374-.1439,1.0055.5584,1.023,1.2906.0188.786-.1792,1.3884-1.0716,1.1953-2.6819-.58-2.4887,1.1723-2.4322,2.8765.0329.9924-.0427,1.99.02,2.9792.0635,1.0039-.3739,1.2707-1.3145,1.26-.966-.0106-1.5259-.14-1.5122-1.3358.0551-4.8008.04-9.6028.0031-14.404-.0078-1.0254.26-1.5568,1.388-1.4625C27.1318,31.4354,27.9643,31.38,28.988,31.38Z"/><path class="cls-1" d="M35.1675,55.1638c1.289-.3,1.6314.4093,1.7982,1.5909.4617,3.2722,1.0475,6.5268,1.5682,9.7909.0954.598.5044,1.3683-.6059,1.4952-.74.0846-1.32-.0527-1.3794-.9612-.0638-.9672-.4816-1.4335-1.5631-1.4023-1.0137.0293-1.2685.4954-1.2949,1.3639-.0259.8494-.5308,1.15-1.3347,1.0007-.9069-.1681-.609-.86-.5291-1.371.5366-3.4289,1.1463-6.8468,1.6477-10.2807C33.6322,55.3106,34.1326,54.9725,35.1675,55.1638Zm-.232,3.8753c-.2566,1.5233-.4515,2.6528-.6351,3.784-.0839.517-.0981.9794.6408,1.0177.7766.04,1.0329-.2952.8894-1.03C35.6145,61.7043,35.7865,60.5166,34.9355,59.0391Z"/><path class="cls-1" d="M40.6415,61.4352c-.0006-1.2371-.0555-2.4772.0116-3.7107.114-2.0956,1.4571-2.8893,3.3485-2.73,1.8808.1586,2.6953,1.3885,2.6526,3.2328-.0132.573.1131,1.2074-.7506,1.2732-.7758.0592-1.2685-.1468-1.2215-1.0742.04-.7849-.1276-1.6379-1.1419-1.5-.9544.13-.8775,1.0417-.8781,1.7811-.0016,2.0623-.0006,4.1248.0166,6.187.0059.7128.185,1.3707,1.0815,1.32.7283-.0415.8876-.6116.922-1.2357.0466-.8433-.2774-2.0542,1.2351-1.75,1.3714.2763.7167,1.48.68,2.2233a2.6347,2.6347,0,0,1-2.8754,2.7324c-1.8591.02-2.9789-.8745-3.0683-2.7907C40.5924,64.077,40.6421,62.755,40.6415,61.4352Z"/><path class="cls-1" d="M24.9376,61.3167q.002-1.24.0014-2.48c.0039-4.0021.3181-4.2579,4.3159-3.7105.635.0869,1.0957.128,1.0914.9515-.0045.8345-.47.9035-1.1118.9132-1.0123.0152-2.2415-.363-2.2038,1.4282.0289,1.37-.18,2.7361,1.9168,2.4371.4861-.0694.7143.3015.7324.7807.016.4228-.021,1.0467-.4512,1.005-3.1052-.3-1.9478,1.9853-2.1732,3.45-.0888.5767.3838,1.4256-.6092,1.6227-.9067.18-1.5953.0715-1.5318-1.19C25.0018,64.7923,24.9364,63.0528,24.9376,61.3167Z"/><path class="cls-1" d="M50.5043,62.4136c-.0025-1.2363-.02-2.4729.0033-3.7087.0182-.9578.076-1.879-1.3431-1.7429-.6391.0613-.7914-.3724-.8072-.9471-.0245-.8866.5825-.857,1.161-.8639,1.3185-.0155,2.6384-.0385,3.9554.0067.362.0125,1.2013-.2641.9154.5335-.1446.4037.3129,1.346-.6665,1.2818-1.6153-.1059-1.1253,1.0771-1.1392,1.8629-.0436,2.4718.0075,4.9453-.03,7.4173-.011.7265.4134,1.76-.9632,1.823-1.3864.0629-1.0585-.9479-1.0753-1.7066C50.4856,65.0516,50.5068,63.7324,50.5043,62.4136Z"/></svg>