<svg id="圖層_1" data-name="圖層 1" xmlns="http://www.w3.org/2000/svg" viewBox="0 0 171.1394 172.3979"><defs><style>.cls-1{fill:#343170;}</style></defs><title>popup</title><path class="cls-1" d="M164.3029,73.4177c3.1777,6.7487,5.8913,13.8359,6.6232,21.2621,1.4746,14.8609-5.011,29.2235-11.346,42.746-4.098,8.7594-8.4277,17.821-15.8923,23.9726-7.0007,5.7686-16.0568,8.3712-24.9743,10.0268-4.1642.7745-8.4424,1.37-12.6145.6474-4.5193-.7865-8.6273-3.0684-12.5325-5.472-12.8487-7.9047-24.7085-17.5529-38.4578-23.7585-6.84-3.0846-14.1-5.3035-20.5434-9.1428-11.144-6.65-19.0625-17.7766-24.1372-29.72S2.8515,79.19.3813,66.4476l-.0758-.0161A99.6689,99.6689,0,0,1,32.8976,10.9048c4.27-3.6544,8.9881-7.01,14.4129-8.4847C54.7569.3949,62.6778,2.1049,70.3731,1.53,75.6645,1.1343,80.9066-.3444,86.1969.0734c5.7273.447,11.0388,3.0847,16.0162,5.9477A154.0586,154.0586,0,0,1,164.3029,73.4177Z"/></svg>