<svg id="圖層_1" data-name="圖層 1" xmlns="http://www.w3.org/2000/svg" viewBox="0 0 85.3849 85.3849"><defs><style>.cls-1{fill:#fbe8b8;}</style></defs><title>threat</title><path class="cls-1" d="M7.9564,73.3414c-13.0646-4.6758,3.1356-21.5075,7.12-26.5521a100.9989,100.9989,0,0,0,12.19-20.193C30.5236,19.5363,38.6675-.2415,48.6706,8.76c6.45,5.8042,9.8465,15.1132,13.7417,22.6545,4.1135,7.9641,9.1034,15.409,13.46,23.2341,1.8747,3.3675,6.161,9.1107,6.0116,12.8442-.303,7.5714-12.064,6.945-17.1411,7.4246-9.4757.8951-18.9976,1.4458-28.4941,2.076-10.3389.6862-20.5565.9936-30.65-1.7622A1.5457,1.5457,0,0,0,4.777,78.21c9.971,2.7223,20.11,2.6068,30.3518,1.946,10.6229-.6855,21.3-1.2521,31.8864-2.3756,5.3724-.57,16.9545.0552,18.2252-6.9347,1.2276-6.7534-5.6794-16.091-8.85-21.4883C71.15,40.4359,66.0263,31.6013,61.3041,22.39c-3.4616-6.7519-7.621-15.7835-15.1209-18.9282C39.509.6637,34.9257,7.5376,31.2918,12.3672c-5.642,7.4985-8.4585,17.0014-13.4431,24.9885-4.7978,7.6877-29.92,32.09-10.7134,38.9641,1.8749.671,2.6821-2.3124.8211-2.9784Z"/><path class="cls-1" d="M41.0614,26.4931c1.4689,7.4476.6725,15.0814.2875,22.6013-.1017,1.9867,2.9873,1.9812,3.0888,0,.4008-7.8291,1.1311-15.67-.3978-23.4224-.3843-1.9484-3.362-1.1236-2.9785.8211Z"/><path class="cls-1" d="M43.26,60.48a1.5453,1.5453,0,0,0,0-3.0887,1.5453,1.5453,0,0,0,0,3.0887Z"/><path class="cls-1" d="M42.1931,59.5l.2994.7316a1.5941,1.5941,0,0,0,1.9,1.0786,1.5544,1.5544,0,0,0,1.0786-1.9l-.2994-.7315a1.5943,1.5943,0,0,0-1.9-1.0787,1.5544,1.5544,0,0,0-1.0786,1.9Z"/></svg>