<svg id="圖層_1" data-name="圖層 1" xmlns="http://www.w3.org/2000/svg" viewBox="0 0 47.6964 47.293"><defs><style>.cls-1{fill:#8a6139;}</style></defs><title>popup</title><path class="cls-1" d="M45.0522,19.48c1,3.56,1.11,8.12-2.31,10.44-3.06,2.07-6.41.93-8.12-2.11-1.09-1.92-.82-3.23-.19-5.36a11.3137,11.3137,0,0,1,3.01-5.45c2.83-2.39,6.13-1.02,7.46,2.07-.62-1.11-3.18-.34-2.79.99-.78-1.97-2.82-1.81-3.73-.13a13.7279,13.7279,0,0,0-1.04,2.5c-.53,1.69-.84,3.13.24,4.63,1.98,2.75,4.5,1.15,5.04-1.58a11.624,11.624,0,0,0-.51-5.42C42.6222,21.37,45.2522,20.71,45.0522,19.48Z"/><path class="cls-1" d="M45.0522,19.48c.2,1.23-2.43,1.89-2.94.58-.39-1.33,2.17-2.1,2.79-.99a1.4722,1.4722,0,0,1,.1.22c.02.06.03.11.05.16Z"/><path class="cls-1" d="M45.0022,19.29a1.4722,1.4722,0,0,0-.1-.22A.6248.6248,0,0,1,45.0022,19.29Z"/><path class="cls-1" d="M42.1122,20.06a11.624,11.624,0,0,1,.51,5.42c-.54,2.73-3.06,4.33-5.04,1.58-1.08-1.5-.77-2.94-.24-4.63a13.7279,13.7279,0,0,1,1.04-2.5C39.2922,18.25,41.3322,18.09,42.1122,20.06Z"/><path class="cls-1" d="M36.5522,34.11c2.2,2.19,3.48,6.36,1.58,9.05-1.77,2.51-6.32,3.48-9.18,3.61-2.34.1-4.36-.86-6.63-.95-2.78-.11-5.23,1.35-8.05,1.41-2.35.04-4.86-.08-6.1-2.26-1.76-3.09-1.55-9.57,1.02-12.22,1.22-1.26,2.45-1.39,4-1.95,1.41-.51,1.6-.2,3.04-1.14.96-.64,1.41-1.43,2.29-2.07a8.0141,8.0141,0,0,1,7.95-1.06c1.9.79,2.99,2.16,4.3,3.62a13.9434,13.9434,0,0,0,4.97,3.39c-1.11-.28-2.92.91-1.82,1.85-1.67-.81-2.78-.65-4.2-1.95-3.12-2.87-4.12-8.04-10.29-3.21-1.09.85-1.31,1.59-2.68,2.11-3.5,1.35-6.89,2.53-6.53,6.91.24,2.92.33,5.28,3.55,5.83,2.94.51,5.5-1.45,8.34-1.63,2.17-.14,3.83.99,5.93,1.21,2.99.31,5.84-.48,6.99-3.2.98-2.3,1.26-4.05-1.11-6.07C34.8522,35.85,36.8122,34.85,36.5522,34.11Z"/><path class="cls-1" d="M36.9322,4.53c2.25,4.25-.33,8.99-4.23,11.13-1.56.85-4.15,2.02-5.82.79a2.9885,2.9885,0,0,1-1.01-1.68,3.5537,3.5537,0,0,1-.2-1.07c-.01-.06-.01-.11-.02-.16a2.888,2.888,0,0,0,1.77-.59c-1.41-.58-2.02-.51-1.83.2l.06.39c-.53,0-.94-.21-.88-.79.02-.16.04-.33.06-.5l.21.02c.88.06,1.77.13,2.65.19.03-.29.06-.58.1-.87a2.5,2.5,0,0,1,.81,1.54c.15.79.16,1.76,1.15,1.84,1.11.09,2.85-1.54,3.51-2.31a6.4736,6.4736,0,0,0,1-6.92C34.8622,6.71,37.6622,5.7,36.9322,4.53Z"/><path class="cls-1" d="M36.9322,4.53c.73,1.17-2.07,2.18-2.67,1.21C33.6122,4.51,36.4122,3.54,36.9322,4.53Z"/><path class="cls-1" d="M36.5522,34.11c.26.74-1.7,1.74-2.63,1.28-1.1-.94.71-2.13,1.82-1.85.14.06.28.13.42.2A4.5069,4.5069,0,0,1,36.5522,34.11Z"/><path class="cls-1" d="M36.5522,34.11a4.5069,4.5069,0,0,0-.39-.37A.707.707,0,0,1,36.5522,34.11Z"/><path class="cls-1" d="M36.9322,4.53c-.52-.99-3.32-.02-2.67,1.21-1.65-2.64-4.42-2.17-5.4.62a23.9349,23.9349,0,0,0-1.07,5.23c-.71-.58-1.76-.41-2.75.68l-.21-.02c.34-3.27.85-8.45,4.2-9.88C31.6522,1.27,35.4222,2.11,36.9322,4.53Z"/><path class="cls-1" d="M36.1622,33.74c-.14-.07-.28-.14-.42-.2A.9122.9122,0,0,1,36.1622,33.74Z"/><path class="cls-1" d="M33.9222,35.39c2.37,2.02,2.09,3.77,1.11,6.07-1.15,2.72-4,3.51-6.99,3.2-2.1-.22-3.76-1.35-5.93-1.21-2.84.18-5.4,2.14-8.34,1.63-3.22-.55-3.31-2.91-3.55-5.83-.36-4.38,3.03-5.56,6.53-6.91,1.37-.52,1.59-1.26,2.68-2.11,6.17-4.83,7.17.34,10.29,3.21C31.1422,34.74,32.2522,34.58,33.9222,35.39Z"/><path class="cls-1" d="M34.2622,5.74a6.4736,6.4736,0,0,1-1,6.92c-.66.77-2.4,2.4-3.51,2.31-.99-.08-1-1.05-1.15-1.84a2.5,2.5,0,0,0-.81-1.54,23.9349,23.9349,0,0,1,1.07-5.23C29.8422,3.57,32.6122,3.1,34.2622,5.74Z"/><path class="cls-1" d="M27.7922,11.59c-.04.29-.07.58-.1.87-.88-.06-1.77-.13-2.65-.19C26.0322,11.18,27.0822,11.01,27.7922,11.59Z"/><path class="cls-1" d="M25.5922,13.15c-.19-.71.42-.78,1.83-.2a2.888,2.888,0,0,1-1.77.59Z"/><path class="cls-1" d="M21.3422,5.96c.83,3.38.89,8.78-2.65,10.68a4.7848,4.7848,0,0,1-1.34.48l-.2-1.18a1.1076,1.1076,0,0,0,.19-.02c.35-.09.9-1.53,1.01-1.82a13.7218,13.7218,0,0,0,.09-7.36C18.7322,7.47,21.5822,6.56,21.3422,5.96Z"/><path class="cls-1" d="M21.3422,5.96c.24.6-2.61,1.51-2.9.78C18.2622,6.01,21.1722,5.27,21.3422,5.96Z"/><path class="cls-1" d="M21.3422,5.96c-.17-.69-3.08.05-2.9.78-1.39-3.48-3.49-1.13-4.21,1.33a7.5909,7.5909,0,0,0,.28,5.53c.34.59,1.65,2.34,2.64,2.34l.2,1.18a5.327,5.327,0,0,1-5.81-2.88c-1.66-3.36.03-8.34,3.25-10.16C17.3222,2.65,20.1922,3.1,21.3422,5.96Z"/><path class="cls-1" d="M18.4422,6.74a13.7218,13.7218,0,0,1-.09,7.36c-.11.29-.66,1.73-1.01,1.82a1.1076,1.1076,0,0,1-.19.02c-.99,0-2.3-1.75-2.64-2.34a7.5909,7.5909,0,0,1-.28-5.53C14.9522,5.61,17.0522,3.26,18.4422,6.74Z"/><path class="cls-1" d="M8.5522,17.16c2.73.91,2.7,5.31,1.87,7.48a5.69,5.69,0,0,1-5.26,3.84c-3.53-.05-3.22-4.97-3.02-7.47.24-3.08,3.36-4.36,6.15-3.91a1.1949,1.1949,0,0,1,.22.05c-.79-.2-3.3.94-2.3,1.26a.2994.2994,0,0,1,.08.04c-1.92-.06-1.22,4.53-1.14,5.55.08.85-.02,1.98.67,2.61.53.48.49.49.98-.14a6.5609,6.5609,0,0,0,1.17-4.51c-.1-1.15-.43-3-1.65-3.5a.66.66,0,0,1,.14.01c.72.12,3.07-.97,2.06-1.31Z"/><path class="cls-1" d="M8.5222,17.16c1.01.34-1.34,1.43-2.06,1.31a.66.66,0,0,0-.14-.01c-.01-.01-.02-.02-.03-.01a.2994.2994,0,0,0-.08-.04c-1-.32,1.51-1.46,2.3-1.26A.01.01,0,0,1,8.5222,17.16Z"/><path class="cls-1" d="M7.9722,21.96a6.5609,6.5609,0,0,1-1.17,4.51c-.49.63-.45.62-.98.14-.69-.63-.59-1.76-.67-2.61-.08-1.02-.78-5.61,1.14-5.55.01-.01.02,0,.03.01C7.5422,18.96,7.8722,20.81,7.9722,21.96Z"/></svg>