<svg id="圖層_1" data-name="圖層 1" xmlns="http://www.w3.org/2000/svg" viewBox="0 0 277.2229 48.5"><defs><style>.cls-1{fill:#a69266;opacity:0.38;isolation:isolate;}.cls-2{fill:none;stroke:#a7916c;}.cls-2,.cls-3{stroke-miterlimit:10;}.cls-3{fill:#231815;stroke:#f0efef;}.cls-4{fill:#715f46;}</style></defs><title>企鵝館</title><rect class="cls-1" x="3.874" width="84.2815" height="42.6485" rx="12.848"/><path class="cls-2" d="M21.3309,5.8517H71.4561A13.6871,13.6871,0,0,1,85.1033,19.4986V34.8531A13.6871,13.6871,0,0,1,71.4561,48.5h-11.21"/><path class="cls-2" d="M46.5086,48.5h-32.04A13.687,13.687,0,0,1,.8218,34.8531V19.4986A13.6667,13.6667,0,0,1,7.0593,8.0529"/><path class="cls-3" d="M23.6154,18.4953a.4927.4927,0,0,1-.4465.3352,22.7658,22.7658,0,0,0,7.9821,6.6811,8.9435,8.9435,0,0,0-1.1716,1.5817,26.4246,26.4246,0,0,1-7.8526-6.924,24.2026,24.2026,0,0,1-7.6857,6.997,9.3119,9.3119,0,0,0-1.0978-1.3953,21.8249,21.8249,0,0,0,7.8527-7.4256Zm-.3534,10.98v4.298h6.9959v1.6013h-16.04V33.7733H16.47v-6.81l2.1581.1314c-.0182.149-.13.26-.4273.316v6.364h3.2V23.6318l2.3068.149c-.0182.1487-.1477.26-.4455.3159v3.7774h5.2662v1.6012Z"/><path class="cls-3" d="M43.3139,26.87c-.0557.1488-.224.1863-.3909.1681a19.5954,19.5954,0,0,1-2.2148,4.6332c.2611,2.215.6886,2.215.7261,2.215.1862,0,.3725-1.0614.484-2.3082a4.61,4.61,0,0,0,.9115.8377,8.7857,8.7857,0,0,1-.2784,1.5069H42.57a10.867,10.867,0,0,0,.5581-2.8842l1.1727.2975a9.6085,9.6085,0,0,1-1.0421,4.02l-1.0421-.5763a1.1015,1.1015,0,0,1-.9683.6512c-.8374,0-1.3206-.8011-1.6558-2.27a16.5088,16.5088,0,0,1-1.3585,1.433,6.68,6.68,0,0,0-.8182-.8194c0,1.6569-.0931,2.1593-2.7354,2.1593a6.3168,6.3168,0,0,0-.4648-1.5081c.316.0192.632.0192.8741.0192.745,0,.8193,0,.8193-.2795v-3.982l-1.1727.5024a.4307.4307,0,0,1-.2422.3353l-.6693-1.7867c.5762-.1862,1.3024-.4465,2.0842-.745V25.2694H34.1028V23.7249h1.805V21.1941c-.4659.13-.9308.2421-1.3774.3534a5.3069,5.3069,0,0,0-.5217-1.284,16.0931,16.0931,0,0,0,3.6662-1.4707l1.2284,1.1911V18.7372l1.9173.0933c0,.1681-.1315.26-.41.3158-.0182,1.5263-.0364,3.09-.0364,4.5795h2.4933V25.27h-2.476c.0182,1.3773.0557,2.68.1113,3.8332a19.7367,19.7367,0,0,0,1.2468-3.1445Zm-4.372-3.1447c-.0195-1.1537-.0195-2.3445-.0377-3.5172a1.0857,1.0857,0,0,1-.2226-.0182,12.434,12.434,0,0,1-1.4523.5953l.5953.0364c-.0182.149-.13.241-.4091.28v2.6241ZM37.4155,29.549v3.8525a13.4857,13.4857,0,0,0,1.8625-2.2149c-.1865-1.6558-.28-3.703-.3171-5.9174H37.4164v2.6627l1.1729-.4479.2783,1.433Zm4.4288-10.0859A12.8364,12.8364,0,0,1,42.98,22.7192l-1.3024.4658a13.1281,13.1281,0,0,0-1.0421-3.35Zm9.6207,8.6156H45.0081v.95h5.1174l.2976-.0193.782.0931-.0557.4466c-.1864,3.9083-.41,5.3413-.8376,5.8436-.3535.4465-.745.54-1.9353.54-.2239,0-.4842,0-.7263-.0195a3.8539,3.8539,0,0,0-.3339-1.2271c.576.0557,1.0977.0739,1.3385.0739.6331,0,.7639-.54.9126-1.9535l-.8374.316a10.5527,10.5527,0,0,0-.8752-2.0093l.8193-.28a10.0811,10.0811,0,0,1,.8933,1.88h.0182c.0557-.6135.1124-1.3774.1683-2.3636h-6.29V20.2079h2.233a15.1364,15.1364,0,0,0,.4648-1.731l1.9354.3909c-.0374.1314-.1672.2044-.4091.2226-.1115.317-.26.7261-.4286,1.1175h2.9969v5.675h-5.248v.9315H51.465Zm-6.5128,6.6254a16.2722,16.2722,0,0,0-.2239-3.0707l.986-.1488a15.321,15.321,0,0,1,.2978,3.0525Zm3.7594-13.25H45.0085v1.0239h3.7031Zm-3.7031,3.182h3.7031v-1.043H45.0085Zm1.972,9.3781a13.7225,13.7225,0,0,0-.6512-2.5682l.9113-.2047a12.3238,12.3238,0,0,1,.7069,2.5126Z"/><path class="cls-3" d="M70.2913,28.5071H65.0251V29.81h6.0105v5.9742H69.3982V35.095H65.0251v.8182H63.4067V23.7626H62.2715V22.1613l-.9308.8377a18.2137,18.2137,0,0,0-2.549-2.6423,20.8167,20.8167,0,0,1-2.4,3.2558H58.103v-1.73l1.8625.13c-.0193.1315-.1314.241-.3909.28v1.32H61.752V29.847H57.3758V32.88l2.2525-.5025c-.3353-.5022-.7069-1.0239-1.0614-1.4693l1.3215-.6887a18.0158,18.0158,0,0,1,2.7354,4.2418l-1.433.782a11.2375,11.2375,0,0,0-.745-1.5445c-1.8977.4843-3.8332.986-5.0981,1.2842a.3406.3406,0,0,1-.2612.2978l-.6887-1.8057c.41-.0741.8931-.1672,1.3966-.2785v-8.97l-.2239.2229a4.8572,4.8572,0,0,0-1.2091-1.0978A15.1282,15.1282,0,0,0,57.99,18.44l1.972.3353a.435.435,0,0,1-.4286.26,21.4945,21.4945,0,0,1,2.7354,2.5307v-.93h3.7235v-2.14l2.14.1124c-.0181.1672-.1294.26-.4272.316v1.7115h3.8888v3.1274H70.2913ZM60.1682,24.916H57.3758v1.1534H60.168Zm-2.7924,3.6294H60.168V27.3363H57.3758Zm12.5991-6.4945H63.8156v1.5068h6.1593Zm-1.32,5.0433V24.9717H65.0251v2.1216Zm.745,4.1867H65.0251V33.589h4.3731Z"/><path class="cls-4" d="M23.6154,18.4953a.4927.4927,0,0,1-.4465.3352,22.7658,22.7658,0,0,0,7.9821,6.6811,8.9435,8.9435,0,0,0-1.1716,1.5817,26.4246,26.4246,0,0,1-7.8526-6.924,24.2026,24.2026,0,0,1-7.6857,6.997,9.3119,9.3119,0,0,0-1.0978-1.3953,21.8249,21.8249,0,0,0,7.8527-7.4256Zm-.3534,10.98v4.298h6.9959v1.6013h-16.04V33.7733H16.47v-6.81l2.1581.1314c-.0182.149-.13.26-.4273.316v6.364h3.2V23.6318l2.3068.149c-.0182.1487-.1477.26-.4455.3159v3.7774h5.2662v1.6012Z"/><path class="cls-4" d="M43.3139,26.87c-.0557.1488-.224.1863-.3909.1681a19.5954,19.5954,0,0,1-2.2148,4.6332c.2611,2.215.6886,2.215.7261,2.215.1862,0,.3725-1.0614.484-2.3082a4.61,4.61,0,0,0,.9115.8377,8.7857,8.7857,0,0,1-.2784,1.5069H42.57a10.867,10.867,0,0,0,.5581-2.8842l1.1727.2975a9.6085,9.6085,0,0,1-1.0421,4.02l-1.0421-.5763a1.1015,1.1015,0,0,1-.9683.6512c-.8374,0-1.3206-.8011-1.6558-2.27a16.5088,16.5088,0,0,1-1.3585,1.433,6.68,6.68,0,0,0-.8182-.8194c0,1.6569-.0931,2.1593-2.7354,2.1593a6.3168,6.3168,0,0,0-.4648-1.5081c.316.0192.632.0192.8741.0192.745,0,.8193,0,.8193-.2795v-3.982l-1.1727.5024a.4307.4307,0,0,1-.2422.3353l-.6693-1.7867c.5762-.1862,1.3024-.4465,2.0842-.745V25.2694H34.1028V23.7249h1.805V21.1941c-.4659.13-.9308.2421-1.3774.3534a5.3069,5.3069,0,0,0-.5217-1.284,16.0931,16.0931,0,0,0,3.6662-1.4707l1.2284,1.1911V18.7372l1.9173.0933c0,.1681-.1315.26-.41.3158-.0182,1.5263-.0364,3.09-.0364,4.5795h2.4933V25.27h-2.476c.0182,1.3773.0557,2.68.1113,3.8332a19.7367,19.7367,0,0,0,1.2468-3.1445Zm-4.372-3.1447c-.0195-1.1537-.0195-2.3445-.0377-3.5172a1.0857,1.0857,0,0,1-.2226-.0182,12.434,12.434,0,0,1-1.4523.5953l.5953.0364c-.0182.149-.13.241-.4091.28v2.6241ZM37.4155,29.549v3.8525a13.4857,13.4857,0,0,0,1.8625-2.2149c-.1865-1.6558-.28-3.703-.3171-5.9174H37.4164v2.6627l1.1729-.4479.2783,1.433Zm4.4288-10.0859A12.8364,12.8364,0,0,1,42.98,22.7192l-1.3024.4658a13.1281,13.1281,0,0,0-1.0421-3.35Zm9.6207,8.6156H45.0081v.95h5.1174l.2976-.0193.782.0931-.0557.4466c-.1864,3.9083-.41,5.3413-.8376,5.8436-.3535.4465-.745.54-1.9353.54-.2239,0-.4842,0-.7263-.0195a3.8539,3.8539,0,0,0-.3339-1.2271c.576.0557,1.0977.0739,1.3385.0739.6331,0,.7639-.54.9126-1.9535l-.8374.316a10.5527,10.5527,0,0,0-.8752-2.0093l.8193-.28a10.0811,10.0811,0,0,1,.8933,1.88h.0182c.0557-.6135.1124-1.3774.1683-2.3636h-6.29V20.2079h2.233a15.1364,15.1364,0,0,0,.4648-1.731l1.9354.3909c-.0374.1314-.1672.2044-.4091.2226-.1115.317-.26.7261-.4286,1.1175h2.9969v5.675h-5.248v.9315H51.465Zm-6.5128,6.6254a16.2722,16.2722,0,0,0-.2239-3.0707l.986-.1488a15.321,15.321,0,0,1,.2978,3.0525Zm3.7594-13.25H45.0085v1.0239h3.7031Zm-3.7031,3.182h3.7031v-1.043H45.0085Zm1.972,9.3781a13.7225,13.7225,0,0,0-.6512-2.5682l.9113-.2047a12.3238,12.3238,0,0,1,.7069,2.5126Z"/><path class="cls-4" d="M70.2913,28.5071H65.0251V29.81h6.0105v5.9742H69.3982V35.095H65.0251v.8182H63.4067V23.7626H62.2715V22.1613l-.9308.8377a18.2137,18.2137,0,0,0-2.549-2.6423,20.8167,20.8167,0,0,1-2.4,3.2558H58.103v-1.73l1.8625.13c-.0193.1315-.1314.241-.3909.28v1.32H61.752V29.847H57.3758V32.88l2.2525-.5025c-.3353-.5022-.7069-1.0239-1.0614-1.4693l1.3215-.6887a18.0158,18.0158,0,0,1,2.7354,4.2418l-1.433.782a11.2375,11.2375,0,0,0-.745-1.5445c-1.8977.4843-3.8332.986-5.0981,1.2842a.3406.3406,0,0,1-.2612.2978l-.6887-1.8057c.41-.0741.8931-.1672,1.3966-.2785v-8.97l-.2239.2229a4.8572,4.8572,0,0,0-1.2091-1.0978A15.1282,15.1282,0,0,0,57.99,18.44l1.972.3353a.435.435,0,0,1-.4286.26,21.4945,21.4945,0,0,1,2.7354,2.5307v-.93h3.7235v-2.14l2.14.1124c-.0181.1672-.1294.26-.4272.316v1.7115h3.8888v3.1274H70.2913ZM60.1682,24.916H57.3758v1.1534H60.168Zm-2.7924,3.6294H60.168V27.3363H57.3758Zm12.5991-6.4945H63.8156v1.5068h6.1593Zm-1.32,5.0433V24.9717H65.0251v2.1216Zm.745,4.1867H65.0251V33.589h4.3731Z"/></svg>