<svg id="圖層_1" data-name="圖層 1" xmlns="http://www.w3.org/2000/svg" viewBox="0 0 277.2229 48.5"><defs><style>.cls-1{fill:#a69266;opacity:0.38;}.cls-1,.cls-3,.cls-4{isolation:isolate;}.cls-2,.cls-4{fill:none;stroke-miterlimit:10;}.cls-2{stroke:#a7916c;}.cls-3,.cls-4{font-size:18.3715px;font-family:KozGoPr6N-Medium-90ms-RKSJ-H, Kozuka Gothic Pr6N;}.cls-3{fill:#715f46;}.cls-4{stroke:#f0efef;}</style></defs><title>兩棲爬蟲動物館</title><path class="cls-1" d="M16.6043,0h140.097A12.7789,12.7789,0,0,1,169.457,12.7557V29.4031a12.7789,12.7789,0,0,1-12.7557,12.7557H16.6043A12.7789,12.7789,0,0,1,3.8486,29.4031V12.7557A12.6426,12.6426,0,0,1,16.6043,0Z"/><path class="cls-2" d="M21.1445,5.6212H153.0259A13.4718,13.4718,0,0,1,166.43,19.0255V34.1594a13.4719,13.4719,0,0,1-13.4044,13.4044H142"/><path class="cls-2" d="M45.7912,47.78H14.2261A13.4718,13.4718,0,0,1,.8218,34.3756V19.2417A13.5518,13.5518,0,0,1,6.8754,7.9994"/><text class="cls-3" transform="translate(12.8293 32.8447)">兩棲爬蟲動物館</text><text class="cls-4" transform="translate(12.8293 32.8447)">兩棲爬蟲動物館</text><text class="cls-3" transform="translate(12.8293 32.8447)">兩棲爬蟲動物館</text></svg>