<svg id="圖層_1" data-name="圖層 1" xmlns="http://www.w3.org/2000/svg" viewBox="0 0 277.2229 48.5"><defs><style>.cls-1{fill:#a69266;opacity:0.38;}.cls-1,.cls-3,.cls-4{isolation:isolate;}.cls-2,.cls-4{fill:none;stroke-miterlimit:10;}.cls-2{stroke:#a7916c;}.cls-3,.cls-4{font-size:18.2122px;font-family:KozGoPr6N-Medium-90ms-RKSJ-H, Kozuka Gothic Pr6N;}.cls-3{fill:#715f46;}.cls-4{stroke:#f0efef;}</style></defs><title>新光特展館(大貓熊館)</title><path class="cls-1" d="M17.6067.3565H206.8545A12.6681,12.6681,0,0,1,219.5,13.0016V29.5045A12.6681,12.6681,0,0,1,206.8545,42.15H17.6067A12.6682,12.6682,0,0,1,4.9616,29.5045V13.0016A12.8079,12.8079,0,0,1,17.6067.3565Z"/><path class="cls-2" d="M22.1075,6.1433H203.211a13.3549,13.3549,0,0,1,13.2881,13.288V34.434A13.355,13.355,0,0,1,203.211,47.7221H192.2805"/><path class="cls-2" d="M46.7547,47.722H15.4635A13.3549,13.3549,0,0,1,2.1754,34.434V19.4313A13.4344,13.4344,0,0,1,8.1765,8.2865"/><text class="cls-3" transform="translate(11.508 31.0957)">新光特展館(大貓熊館)</text><text class="cls-4" transform="translate(11.508 31.0957)">新光特展館(大貓熊館)</text><text class="cls-3" transform="translate(11.509 31.0947)">新光特展館(大貓熊館)</text></svg>