<svg id="圖層_1" data-name="圖層 1" xmlns="http://www.w3.org/2000/svg" viewBox="0 0 277.2229 48.5"><defs><style>.cls-1{fill:#a69266;opacity:0.38;}.cls-1,.cls-3,.cls-4{isolation:isolate;}.cls-2,.cls-4{fill:none;stroke-miterlimit:10;}.cls-2{stroke:#a7916c;}.cls-3,.cls-4{font-size:18.3799px;font-family:KozGoPr6N-Medium-90ms-RKSJ-H, Kozuka Gothic Pr6N;letter-spacing:0.1em;}.cls-3{fill:#715f46;}.cls-4{stroke:#f0efef;}</style></defs><title>溫帶動物區</title><path class="cls-1" d="M16.1959,0h92.0677a12.6829,12.6829,0,0,1,12.6829,12.6829V29.4174A12.6828,12.6828,0,0,1,108.2636,42.1H16.1959A12.6828,12.6828,0,0,1,3.513,29.4174V12.6828A12.6828,12.6828,0,0,1,16.1959,0Z"/><path class="cls-2" d="M20.7455,5.7765h83.7164a13.5111,13.5111,0,0,1,13.4715,13.4714V34.405a13.5111,13.5111,0,0,1-13.4715,13.4715H93.3961"/><path class="cls-2" d="M45.6,47.8765H13.9717A13.511,13.511,0,0,1,.5,34.405V19.2479A13.4909,13.4909,0,0,1,6.6571,7.9494"/><text class="cls-3" transform="translate(9.2004 31.2851)">溫帶動物區</text><text class="cls-4" transform="translate(9.2004 31.2851)">溫帶動物區</text><text class="cls-3" transform="translate(9.2004 31.2851)">溫帶動物區</text></svg>