<svg id="圖層_1" data-name="圖層 1" xmlns="http://www.w3.org/2000/svg" viewBox="0 0 277.2229 48.5"><defs><style>.cls-1{fill:#efe7e4;}.cls-2{fill:#313a39;}</style></defs><title>熱帶雨林室內館(穿山甲館)</title><rect class="cls-1" x="4.1722" width="270.2236" height="42.5611" rx="20"/><path class="cls-2" d="M34.6991,20.1594H32.77v.8738a.6512.6512,0,0,0,.1382.4137.3936.3936,0,0,0,.3094.1759h1.444v.8932H33.084A1.0835,1.0835,0,0,1,31.839,21.31v-1.15H29.7956a4.8934,4.8934,0,0,1-3.3174,3.1743l-.5422-.7984a4.1934,4.1934,0,0,0,2.8611-2.3759H26.25v-.8941h3.8306V17.6685H26.716v-.8931h3.3647v-1.34h1.0169v1.34h3.1936v.8931H31.0976v1.5968h3.6015Zm-5.0272,8.7815a21.8624,21.8624,0,0,1-2.8041,3.5455l-.7984-.722A15.75,15.75,0,0,0,28.8164,28.4Zm4.8658-2.2241q-3.5348.6467-8.1358,1.1319l-.1141-.9511q1.6732-.1044,3.8306-.4089v-1.853H26.9538v-.9125h3.1646V21.9176h.9792v1.8056h2.9559v.9125H31.0976v1.6916q1.72-.1988,3.3831-.522Zm-1.2063,5.4941-.9888.2088a18.7484,18.7484,0,0,0-.8932-3.5542L32.38,28.59A16.9932,16.9932,0,0,1,33.3314,32.2109Zm9.751-8.1551a9.5213,9.5213,0,0,1-.6031,2.8186,1.0718,1.0718,0,0,1-.955.6795q-.5988,0-.9512-.7511a9.0287,9.0287,0,0,1-.3518-3.1743V19.0942H38.34a31.9973,31.9973,0,0,1-.3141,4.3913q.7785,1.1309,1.5021,2.3575l-.78.6457q-.57-.9975-1.0922-1.7766a11.3632,11.3632,0,0,1-1.968,3.1743l-.8932-.523a8.7192,8.7192,0,0,0,2.1381-3.6778,23.15,23.15,0,0,0-1.8056-2.3189l.7124-.637a20.2193,20.2193,0,0,1,1.35,1.6345,23.8468,23.8468,0,0,0,.171-3.27H35.3748v-.9405h1.9863V15.4163H38.34v2.7374h2.86v5.4555a17.5265,17.5265,0,0,0,.0812,1.8771,3.1579,3.1579,0,0,0,.1469.8274c.0444.0658.086.1.1237.1.0638,0,.1566-.2049.28-.6128a12.8245,12.8245,0,0,0,.3374-2.1343Zm-4.9615,8.1174-.95.2755a27.551,27.551,0,0,0-1.4634-3.6218l.9125-.2939A27.2907,27.2907,0,0,1,38.1209,32.1732Zm4.8291-.1807-.9125.4562a23.5618,23.5618,0,0,0-2.1864-3.64l.9405-.4949A24.5432,24.5432,0,0,1,42.95,31.9925Z"/><path class="cls-2" d="M62.396,18.2388H59.0313v1.5494a.4917.4917,0,0,0,.1565.3567.503.503,0,0,0,.3664.1566h2.4329v.9318h-2.49q-1.4645,0-1.4635-1.3407V18.2388H56.028v3.1086H51.3613V18.2388h-1.968a4.7449,4.7449,0,0,1-2.689,3.964l-.7984-.7414a3.921,3.921,0,0,0,2.4329-3.2226h-2.88v-.9975h3.0042l.057-1.853h.95q.0289.8453-.0377,1.853h1.9293v-1.825h1.0072v1.825H55.02v-1.825H56.028v1.825h2.0057v-1.853h.9976v1.853H62.396Zm-.7607,8.3833h-.97V23.59H54.4689v2.1584h5.2747v4.2675a1.4472,1.4472,0,0,1-.4079,1.1116q-.4087.38-2.9751.38l-.3519-1.0448a22.18,22.18,0,0,0,2.5238-.0667.3421.3421,0,0,0,.2426-.38v-3.28H54.4689v5.6266h-.9878V26.7361H49.1556v4.7711h-.9879V25.7483h5.3134V23.59H47.3123v3.0322H46.2761v-4.01H61.6353ZM55.02,20.3779V18.2388H52.3685v2.1391Z"/><path class="cls-2" d="M81.842,16.0726l-.0184.96H73.84v2.6987h6.9092V31.0423q0,1.53-2.053,1.53-.522,0-1.1783-.0483l-.2658-.9975q1.463,0,1.8008-.0194a.7637.7637,0,0,0,.5326-.2232.6972.6972,0,0,0,.1942-.4988V20.73H73.84V32.1162H72.87V20.73H67.0057V32.5241H65.9985V19.7312H72.87V17.0325H64.943v-.96ZM71.91,27.1924a17.03,17.03,0,0,1-3.327,3.0892l-.6747-.8177a14.898,14.898,0,0,0,3.3077-2.9559Zm-.2281-2.5567-.6467.7414a15.3336,15.3336,0,0,0-2.9365-2.69l.6843-.6941A14.817,14.817,0,0,1,71.6821,24.6357ZM78.63,29.56l-.6844.779a21.8078,21.8078,0,0,0-3.1086-3.1269l.5993-.7791A25.5443,25.5443,0,0,1,78.63,29.56Zm.1517-6.9673a15.126,15.126,0,0,1-3.213,2.7848l-.6176-.7791a16.36,16.36,0,0,0,3.213-2.7Z"/><path class="cls-2" d="M92.373,24.6927l-.6843.7985a17.4742,17.4742,0,0,0-2.3566-2.9366v9.8467h-.9888V22.1264a28.8177,28.8177,0,0,1-3.3841,5.4748l-.6273-.8844a26.9224,26.9224,0,0,0,3.9167-6.7478H84.8171v-.9975h3.5262V15.35h.9888v3.6219h2.7461v.9975H89.3321v1.245A23.2936,23.2936,0,0,1,92.373,24.6927Zm9.1053,3.3928-.6746.7607a25.1532,25.1532,0,0,1-3.7253-6.4627V32.4013H96.07V22.3449a28.7758,28.7758,0,0,1-4.0867,6.5013l-.6273-.8554a29.4125,29.4125,0,0,0,4.6763-8.0218H92.9336v-.9975H96.07V15.35h1.0082v3.6219h4.1148v.9975h-4.01A25.2476,25.2476,0,0,0,101.4783,28.0855Z"/><path class="cls-2" d="M120.6972,31.8968H103.8165v-.9685h7.9078V28.2952H104.91v-.9694h6.8145V25.1016q-3.6495.2464-6.2916.2948l-.21-.9124a14.9262,14.9262,0,0,0,5.1327-3.5832h-4.0491V19.95h11.9191v.9511h-6.5487a16.1263,16.1263,0,0,1-4.2008,3.45q3.8016-.0667,9.21-.7037a16.1193,16.1193,0,0,0-2.1381-1.4064l.7887-.6747a20.0626,20.0626,0,0,1,4.486,3.46l-.7607.6843a9.9272,9.9272,0,0,0-1.2257-1.1879l-5.0659.4659v2.3382h6.7575v.9694H112.77v2.6331h7.9271ZM120.07,20.606h-.9889V18.0967H105.4327V20.606h-.9888v-3.46h7.4138a12.8017,12.8017,0,0,0-.7985-1.5784l1.0072-.3325a14.3234,14.3234,0,0,1,.96,1.9109H120.07Z"/><path class="cls-2" d="M139.2877,30.6905a1.46,1.46,0,0,1-.38,1.0642,1.4785,1.4785,0,0,1-.9743.4369q-.5944.0479-1.5543.0474-.6756,0-1.2826-.0281l-.4283-1.0739q1.521.1422,2.8612.1421a.6869.6869,0,0,0,.4842-.2088.7036.7036,0,0,0,.2185-.5325V19.969h-5.5879q.4655,4.1163,4.9992,8.0788l-.7317.7133q-4.0685-3.6783-4.9519-7.1953a18.7219,18.7219,0,0,1-5.0185,7.119l-.7221-.7414a16.5411,16.5411,0,0,0,5.2177-7.9744h-6.0547V32.4013h-1.0449V18.9144h7.176q-.0957-.9033-.1711-2.5286h-1.8346V15.369H132.35c-.0193.3044-.029.62-.029.95a22.4548,22.4548,0,0,0,.1711,2.5953h6.7961Z"/><path class="cls-2" d="M150.3417,18.2108l-.666.7413a15.9165,15.9165,0,0,0-2.604-2.1767q-.4944.561-1.5775,1.6915h3.155v.9318H145.4V18.6a26.75,26.75,0,0,1-2.11,1.74l-.5229-.9415a13.2163,13.2163,0,0,0,4.1061-4.1438l.9212.2948a2.9571,2.9571,0,0,1-.2185.4273A21.4231,21.4231,0,0,1,150.3417,18.2108Zm.19,13.6106-.8932.5229q-.5133-1.2265-.6843-1.5591-1.8051.6554-4.7615,1.6161l-.4282-.8554a.9271.9271,0,0,0,.39-.8748V20.53h5.6845v6.2539h-4.7334v4.2588a35.1432,35.1432,0,0,0,3.4217-1.0748A18.5094,18.5094,0,0,0,147.5,28.2566l.8554-.4649A29.385,29.385,0,0,1,150.5312,31.8214ZM148.84,23.1249V21.5281h-3.7349v1.5968Zm0,2.6611V24.0751h-3.7349V25.786Zm10.75-5.76h-.9975v-1.73h-6.6724v1.73h-.96v-2.69h3.7639q-.2958-.664-.8845-1.6916l.9222-.4272a14.0436,14.0436,0,0,1,1.0642,2.1188h3.7639Zm-.6457,11.2725h-6.2065V32.382h-.9985V20.5866h6.5207v4.2676h-5.5222v1.9486h6.2065ZM157.27,23.875V21.5465h-4.5334V23.875Zm.6843,6.4259V27.7723h-5.2177v2.5286Z"/><path class="cls-2" d="M165.5675,34.7579a13.1332,13.1332,0,0,1-3.1743-8.9623,13.6071,13.6071,0,0,1,3.1743-9.1053h1.4451a13.8257,13.8257,0,0,0-3.2314,9.086,13.5432,13.5432,0,0,0,3.212,8.9816Z"/><path class="cls-2" d="M185.3373,26.5457H181.07v4.22a1.84,1.84,0,0,1-.319,1.1357,1.294,1.294,0,0,1-1.0265.4611q-.7075.0377-1.7534.0386h-.8361l-.3615-.9984q1.2831,0,2.0153.01a3.13,3.13,0,0,0,.9125-.114.6261.6261,0,0,0,.3605-.608V26.5457h-.2561q-2.5474,3.6885-10.5127,5.5135l-.5983-.9792q6.9768-1.2165,9.8467-4.5343h-7.8884a33.1032,33.1032,0,0,0,1.1493-3.5261h-1.7679V21.993h14.2669V23.02H181.07v2.5189h4.2675Zm-.2571-6.2249H184.073V18.04h-4.8852v1.34a.4379.4379,0,0,0,.1324.3044.3836.3836,0,0,0,.2755.1431h3.8113v.96h-4.0481a1.1112,1.1112,0,0,1-.8467-.3421,1.292,1.292,0,0,1-.3229-.9222V18.04h-2.024q-1.17,2.8041-4.9045,3.3647l-.58-.9125a5.16,5.16,0,0,0,4.3913-2.4522h-4.9993v2.2811h-1.0081V17.07h7.86a14.5948,14.5948,0,0,0-.9124-1.4064l.9888-.4089q.7133,1.0932,1.1116,1.8153H185.08Zm-5.0186,5.2177V23.02h-7.147q-.4655,1.6253-.8177,2.5189Z"/><path class="cls-2" d="M203.7471,32.42h-1.0739v-.95H189.224V18.5056h1.0739V30.4237h5.6459V15.4163H196.99V30.4237h5.6836V18.5056h1.0739Z"/><path class="cls-2" d="M223.4308,26.29h-6.9285v6.1117h-1.0932V26.29h-6.8909V15.7778h14.9126Zm-8.0217-5.817v-3.64h-5.845v3.64Zm0,4.79V21.5088h-5.845V25.263Zm6.9855-4.79v-3.64h-5.8923v3.64Zm0,4.81V21.5088h-5.8923v3.7736Z"/><path class="cls-2" d="M234.4471,18.2108l-.666.7413a15.9165,15.9165,0,0,0-2.604-2.1767q-.4944.561-1.5774,1.6915h3.1549v.9318h-3.25V18.6a26.7317,26.7317,0,0,1-2.11,1.74l-.5229-.9415a13.2163,13.2163,0,0,0,4.1061-4.1438l.9212.2948a2.9571,2.9571,0,0,1-.2185.4273A21.4162,21.4162,0,0,1,234.4471,18.2108Zm.1895,13.6106-.8931.5229q-.5133-1.2265-.6844-1.5591-1.8051.6554-4.7614,1.6161l-.4283-.8554a.9269.9269,0,0,0,.39-.8748V20.53h5.6845v6.2539H229.21v4.2588a35.1432,35.1432,0,0,0,3.4218-1.0748,18.5018,18.5018,0,0,0-1.0266-1.7109l.8555-.4649A29.384,29.384,0,0,1,234.6366,31.8214Zm-1.6916-8.6965V21.5281H229.21v1.5968Zm0,2.6611V24.0751H229.21V25.786Zm10.75-5.76h-.9976v-1.73h-6.6724v1.73h-.96v-2.69h3.7639q-.2958-.664-.8844-1.6916l.9221-.4272a14.0436,14.0436,0,0,1,1.0642,2.1188h3.764Zm-.6457,11.2725h-6.2065V32.382h-.9985V20.5866h6.5206v4.2676h-5.5221v1.9486h6.2065Zm-1.6732-7.4235V21.5465h-4.5333V23.875Zm.6843,6.4259V27.7723h-5.2176v2.5286Z"/><path class="cls-2" d="M245.3291,34.7579a13.5189,13.5189,0,0,0,3.2033-8.9816,13.7783,13.7783,0,0,0-3.2314-9.086h1.4538a13.5531,13.5531,0,0,1,3.1936,9.1053,13.1044,13.1044,0,0,1-3.1936,8.9623Z"/><path class="cls-2" d="M248.6609,48.5H20.5037A20.3138,20.3138,0,0,1,.2129,28.2092V25.24A20.3138,20.3138,0,0,1,20.5037,4.9491H248.6609A20.3137,20.3137,0,0,1,268.9517,25.24v2.9694A20.3138,20.3138,0,0,1,248.6609,48.5ZM20.5037,5.9389A19.323,19.323,0,0,0,1.2027,25.24v2.9694A19.3231,19.3231,0,0,0,20.5037,47.51H248.6609a19.3231,19.3231,0,0,0,19.301-19.301V25.24a19.323,19.323,0,0,0-19.301-19.3009Z"/></svg>