<svg id="Capa_1" enable-background="new 0 0 512.004 512.004" height="512" viewBox="0 0 512.004 512.004" width="512" xmlns="http://www.w3.org/2000/svg"><g><path d="m375.896 405.761c0-4.142-3.357-7.5-7.5-7.5h-220.723c-4.143 0-7.5 3.358-7.5 7.5s3.357 7.5 7.5 7.5h220.724c4.142 0 7.499-3.358 7.499-7.5zm37.106-20.536c4.143 0 7.5-3.358 7.5-7.5v-265.221c0-19.14-14.417-34.966-32.96-37.215v-57.785c.071-11.093-10.736-19.6-21.438-17.048l-104.473 24.123c-4.036.932-6.552 4.959-5.62 8.995s4.959 6.553 8.995 5.62l104.478-24.124c1.797-.335 2.978.642 3.058 2.434v57.5h-256.647c2.057-1.363 4.374-2.391 6.894-2.972l108.161-24.975c4.036-.932 6.552-4.959 5.62-8.995s-4.961-6.555-8.995-5.62l-108.157 24.973c-16.126 3.715-27.601 17.861-27.905 34.4-.001.046-.003.159-.003.205-.004.158-.008.319-.008.483v402c0 9.649 7.851 17.5 17.5 17.5h274c20.678 0 37.5-16.822 37.5-37.5v-61.779c0-4.142-3.357-7.5-7.5-7.5s-7.5 3.358-7.5 7.5v61.779c0 12.407-10.094 22.5-22.5 22.5h-274c-1.379 0-2.5-1.122-2.5-2.5v-402c0-1.378 1.121-2.5 2.5-2.5h274c12.406 0 22.5 10.093 22.5 22.5v265.221c0 4.143 3.357 7.501 7.5 7.501zm-157-55.479c51.351 0 93-42.24 93-93 0-50.936-41.673-93-93-93-51.529 0-93 42.295-93 93 0 50.885 42.637 93 93 93zm35.593-23.63c2.978-4.707 5.639-10.013 7.93-15.82 3.56.884 6.952 1.878 10.135 2.98-5.359 5.09-11.435 9.425-18.065 12.84zm28.457-24.931c-4.855-1.974-10.192-3.703-15.913-5.164 2.522-9.747 4.123-20.445 4.615-31.774h24.88c-1.308 13.637-6.146 26.253-13.582 36.938zm13.582-51.939h-24.88c-.492-11.329-2.093-22.026-4.615-31.774 5.722-1.461 11.058-3.191 15.913-5.165 7.436 10.685 12.274 23.301 13.582 36.939zm-23.973-49.03c-3.183 1.103-6.575 2.096-10.135 2.98-2.292-5.807-4.953-11.114-7.931-15.82 6.63 3.416 12.706 7.751 18.066 12.84zm-46.159-19.746c7.879 3.553 15.467 12.514 21.094 25.623-6.713.979-13.793 1.612-21.094 1.871zm0 42.497c8.998-.302 17.746-1.135 25.992-2.468 2.251 8.554 3.753 18.204 4.241 28.747h-30.233zm0 41.279h30.233c-.488 10.544-1.99 20.194-4.241 28.748-8.246-1.333-16.994-2.166-25.992-2.468zm0 41.284c7.3.258 14.381.891 21.094 1.87-5.627 13.108-13.215 22.069-21.094 25.622zm-61.159 7.746c3.183-1.103 6.575-2.096 10.135-2.98 2.292 5.807 4.953 11.113 7.93 15.82-6.629-3.415-12.705-7.75-18.065-12.84zm46.159 19.747c-7.879-3.553-15.466-12.514-21.094-25.622 6.713-.979 13.793-1.612 21.094-1.87zm0-42.497c-8.998.302-17.746 1.135-25.992 2.468-2.251-8.554-3.753-18.204-4.241-28.748h30.233zm0-110.056v27.493c-7.3-.258-14.381-.891-21.094-1.871 5.627-13.108 13.215-22.07 21.094-25.622zm0 42.497v26.279h-30.233c.488-10.544 1.99-20.193 4.241-28.747 8.246 1.334 16.994 2.166 25.992 2.468zm-28.093-35.591c-2.978 4.707-5.639 10.013-7.931 15.82-3.56-.884-6.952-1.878-10.135-2.98 5.359-5.089 11.436-9.424 18.066-12.84zm-28.457 24.932c4.855 1.974 10.192 3.703 15.913 5.165-2.522 9.747-4.123 20.445-4.615 31.774h-24.88c1.307-13.639 6.146-26.255 13.582-36.939zm-13.582 51.938h24.88c.492 11.329 2.093 22.027 4.615 31.774-5.722 1.461-11.058 3.191-15.913 5.164-7.436-10.684-12.275-23.3-13.582-36.938zm29.303 184.015c-4.143 0-7.5 3.358-7.5 7.5s3.357 7.5 7.5 7.5h100.724c4.143 0 7.5-3.358 7.5-7.5s-3.357-7.5-7.5-7.5z"/></g></svg>