<svg xmlns="http://www.w3.org/2000/svg" viewBox="0 0 38.8416 39.8416"><defs><style>.cls-1{fill:#3f406b;}</style></defs><title>商店</title><g id="圖層_2" data-name="圖層 2"><circle class="cls-1" cx="15.3659" cy="35.2733" r="4.7266"/><path class="cls-1" d="M29.16,30.5469h0a4.7266,4.7266,0,1,0,4.7265,4.7265A4.7266,4.7266,0,0,0,29.16,30.5469Z"/><path class="cls-1" d="M37.2076,25.7166H12.5629l-.471-2.7318H32.3378A1.4491,1.4491,0,0,0,33.69,22.067L38.5211,9.8935a1.4494,1.4494,0,0,0-1.3526-1.9806H9.5868L8.4217,1.2138A1.4564,1.4564,0,0,0,6.9654,0h-5.51A1.46,1.46,0,1,0,1.434,2.92H5.767l4.1494,24.51a1.4475,1.4475,0,0,0,1.4475,1.2062H37.1864a1.46,1.46,0,1,0,.0212-2.92Z"/></g></svg>