<svg xmlns="http://www.w3.org/2000/svg" viewBox="0 0 61 49"><defs><style>.cls-1{fill:#3f406b;}</style></defs><title>寄物櫃</title><g id="圖層_2" data-name="圖層 2"><path class="cls-1" d="M41.0328,9.1461V2.3434A1.9254,1.9254,0,0,0,39.1074.418H21.6759A1.9254,1.9254,0,0,0,19.75,2.3434V9.1461h-5.5V48.9609H46.4132V9.1461Zm-3.8259,0h-13.63V4.244h13.63V9.1461Z"/><path class="cls-1" d="M-.2167,15.6912V42.4159a6.545,6.545,0,0,0,6.545,6.545h4.0961V9.1461H6.3283A6.5451,6.5451,0,0,0-.2167,15.6912Z"/><path class="cls-1" d="M54.4589,9.1461h-4.1V48.9609h4.0961A6.545,6.545,0,0,0,61,42.4159V15.6946A6.5524,6.5524,0,0,0,54.4589,9.1461Z"/></g></svg>