<svg xmlns="http://www.w3.org/2000/svg" viewBox="0 0 61 62"><defs><style>.cls-1{fill:#3f406b;}</style></defs><title>遊客服務中心</title><g id="圖層_2" data-name="圖層 2"><path class="cls-1" d="M30.4987.8076A30.5,30.5,0,1,0,61,31.3063,30.5006,30.5006,0,0,0,30.4987.8076Zm6.3492,47.2688q-2.3549.93-3.7569,1.415a9.9111,9.9111,0,0,1-3.2584.488,6.4946,6.4946,0,0,1-4.4334-1.3917,4.4913,4.4913,0,0,1-1.5776-3.53,12.8315,12.8315,0,0,1,.1162-1.7016c.08-.5784.2066-1.229.38-1.96l1.9649-6.94c.173-.6661.3227-1.2987.4415-1.8874a8.3676,8.3676,0,0,0,.1756-1.6344,2.5168,2.5168,0,0,0-.5474-1.8513,3.1093,3.1093,0,0,0-2.0992-.519,5.51,5.51,0,0,0-1.5621.2324c-.5293.1626-.9889.31-1.3659.4544l.519-2.1379q1.9288-.7863,3.6923-1.3452a10.9075,10.9075,0,0,1,3.3308-.5629,6.3733,6.3733,0,0,1,4.3687,1.3684,4.5468,4.5468,0,0,1,1.5338,3.5529q0,.4532-.1059,1.5931a10.6572,10.6572,0,0,1-.3925,2.094l-1.9546,6.92c-.16.5551-.3021,1.19-.4312,1.9a10.0491,10.0491,0,0,0-.1884,1.6164,2.3212,2.3212,0,0,0,.6171,1.88,3.454,3.454,0,0,0,2.1353.5009,6.1914,6.1914,0,0,0,1.6163-.25,9.1846,9.1846,0,0,0,1.3065-.4389Zm-.346-28.0871A4.6651,4.6651,0,0,1,33.21,21.26a4.7136,4.7136,0,0,1-3.305-1.27,4.0554,4.0554,0,0,1-1.3762-3.08,4.0964,4.0964,0,0,1,1.3762-3.0881,4.68,4.68,0,0,1,3.305-1.2833,4.6276,4.6276,0,0,1,3.2921,1.2833,4.16,4.16,0,0,1,0,6.1684Z"/></g></svg>