<svg xmlns="http://www.w3.org/2000/svg" viewBox="0 0 66 82"><defs><style>.cls-1{fill:#29abe2;}</style></defs><title>飲水機</title><g id="圖層_2" data-name="圖層 2"><path class="cls-1" d="M43.7146,7.9877a3.271,3.271,0,1,1,3.282-3.26A3.271,3.271,0,0,1,43.7146,7.9877Z"/><path class="cls-1" d="M57.2392,16.5122a3.271,3.271,0,1,1,3.26,3.282A3.271,3.271,0,0,1,57.2392,16.5122Z"/><path class="cls-1" d="M56.9088,8.3622a3.271,3.271,0,1,1-3.282-3.282A3.2711,3.2711,0,0,1,56.9088,8.3622Z"/><path class="cls-1" d="M43.7146,9.3109a4.9,4.9,0,0,1-4.7218-6.1924A4.8356,4.8356,0,0,1,42.4121-.3008,4.9,4.9,0,0,1,48.6046,4.421h0a4.9043,4.9043,0,0,1-4.89,4.89Zm-4.147-4.5832a3.2821,3.2821,0,1,0,3.282-3.282h0a3.2716,3.2716,0,0,0-3.282,3.2609Z"/><path class="cls-1" d="M60.4992,13.2522a3.271,3.271,0,1,0,3.282,3.26A3.271,3.271,0,0,0,60.4992,13.2522Zm-4.89,3.26a4.901,4.901,0,1,1,4.89,4.912A4.901,4.901,0,0,1,55.6092,16.5122Z"/><path class="cls-1" d="M53.8411,11.6222a3.271,3.271,0,1,0-3.26-3.282v.022A3.2858,3.2858,0,0,0,53.8411,11.6222Zm4.6977-3.26a4.901,4.901,0,1,1-4.912-4.912A4.9011,4.9011,0,0,1,58.5388,8.3622Z"/><path class="cls-1" d="M35.9171,8.2537a3.282,3.282,0,1,0-3.304,3.26h.0219A3.29,3.29,0,0,0,35.9171,8.2537Zm1.4478.1085a4.9264,4.9264,0,0,1-7.0867,4.3863,4.3822,4.3822,0,0,1-2.21-2.2031,4.9684,4.9684,0,0,1,7.2322-6.2931A4.3893,4.3893,0,0,1,37.3655,8.09Z"/><path class="cls-1" d="M29.353,8.2537a3.282,3.282,0,1,1,3.304,3.26h-.022A3.29,3.29,0,0,1,29.353,8.2537Z"/><path class="cls-1" d="M23.8242,28.0779a3.271,3.271,0,1,1,3.282,3.26h-.022A3.2715,3.2715,0,0,1,23.8242,28.0779Z"/><path class="cls-1" d="M24.9256,17.7457a3.271,3.271,0,1,1,3.282,3.282A3.271,3.271,0,0,1,24.9256,17.7457Z"/><path class="cls-1" d="M24.1487,17.7457a4.9378,4.9378,0,0,1,7.08-4.441,4.3873,4.3873,0,0,1,2.2226,2.1893,4.98,4.98,0,0,1-7.224,6.3448,4.3875,4.3875,0,0,1-2.0778-3.8213Zm3.3482-3.282a3.282,3.282,0,1,0,3.26,3.3039v-.0219A3.29,3.29,0,0,0,27.4969,14.4637Z"/><path class="cls-1" d="M27.0842,24.73a3.2715,3.2715,0,1,0,.0212,0Zm-4.4318,6.0566a4.9378,4.9378,0,0,1,5.8781-6.8442,4.8164,4.8164,0,0,1,3.2818,3.3346,4.9118,4.9118,0,0,1-4.7061,6.2638h-.022A4.781,4.781,0,0,1,22.6524,30.7864Z"/><path class="cls-1" d="M66,35.2061V82H32.3632L2.3971,46.6352s-6.32-8.8743,2.5548-10.8919Z"/></g></svg>