<svg id="圖層_1" data-name="圖層 1" xmlns="http://www.w3.org/2000/svg" viewBox="0 0 42.5197 42.5197"><defs><style>.cls-1{fill:#a99467;stroke:#a99467;stroke-miterlimit:10;}</style></defs><title>列車站</title><path class="cls-1" d="M31.8036,4.1081h-.1548V1.7453h-19.17V4.1081h-.1845a6.2941,6.2941,0,0,0-6.2755,6.2756V30.8918A6.2543,6.2543,0,0,0,7.95,35.4041v3.5494a2.5913,2.5913,0,0,0,2.5913,2.5912h.8554a2.5912,2.5912,0,0,0,2.5912-2.5912V37.1673H30.1393v1.7862a2.5912,2.5912,0,0,0,2.5913,2.5912h.8553a2.5912,2.5912,0,0,0,2.5912-2.5912V35.3772a6.2544,6.2544,0,0,0,1.9021-4.4854V10.3837A6.2941,6.2941,0,0,0,31.8036,4.1081ZM14.9944,3.5567H29.133V7.1794H14.9944Zm-1.761,29.967a3.12,3.12,0,1,1,3.12-3.12A3.12,3.12,0,0,1,13.2334,33.5237Zm17.8619,0a3.12,3.12,0,1,1,3.12-3.12A3.12,3.12,0,0,1,31.0953,33.5237Zm3.12-12.1457H10.1138V11.4059H34.2149Z"/></svg>