<svg xmlns="http://www.w3.org/2000/svg" viewBox="0 0 66 82"><defs><style>.cls-1{fill:#754c24;}</style></defs><title>列車站</title><g id="圖層_2" data-name="圖層 2"><path class="cls-1" d="M52.3729,4.1H53.6V0H14.65V4.1H13.6231A13.2319,13.2319,0,0,0,.3,17.1586V59.8329a12.8913,12.8913,0,0,0,4.1,9.3894V76.688A5.312,5.312,0,0,0,9.712,82h1.7258A5.07,5.07,0,0,0,16.7,77.146h0V73.8H49.5v2.9376A5.2623,5.2623,0,0,0,54.7624,82H56.488A5.3119,5.3119,0,0,0,61.8,76.688V69.1663a12.7989,12.7989,0,0,0,4.1-9.3334V17.1586A13.3383,13.3383,0,0,0,52.3729,4.1ZM18.75,4.1h28.7v8.2H18.75ZM15.784,65.4705a6.396,6.396,0,1,1,6.396-6.396,6.396,6.396,0,0,1-6.396,6.396Zm36.6169,0a6.396,6.396,0,1,1,6.396-6.396,6.396,6.396,0,0,1-6.396,6.396Zm5.3-24.47H8.5V20.5H57.7Z"/></g></svg>