<svg xmlns="http://www.w3.org/2000/svg" viewBox="0 0 77 77"><defs><style>.cls-1{fill:#3f406b;}</style></defs><title>娃娃車／輪椅租用</title><g id="圖層_2" data-name="圖層 2"><path class="cls-1" d="M76.9834,31.2682q-.0006-1.1236-.0751-2.235H13.6945l-2.9066-9.4464a8.94,8.94,0,0,0-8.46-6.1906,2.2927,2.2927,0,0,0-2.3185,2.05,2.2559,2.2559,0,0,0,2.2464,2.46,4.4549,4.4549,0,0,1,4.2212,3.0065C10.2112,33.0505,9.8485,31.8774,9.8957,32.016c.0726.2122.4512,1.2694,4.2421,11.8838,1.3851,3.8785,5.7426,6.4844,10.8431,6.4844h7.7736l-2.1056,5.2634A10.683,10.683,0,0,0,18.1933,66.1719a10.6607,10.6607,0,0,0,21.1132,2.2553H47.3a10.8626,10.8626,0,0,0,2.87,5.3491,10.4952,10.4952,0,0,0,15.136,0,10.8351,10.8351,0,0,0,3.1075-7.6044A10.6831,10.6831,0,0,0,55.9577,55.6476l-2.1059-5.2634h7.774c5.0949,0,9.4484-2.6,10.8384-6.4718,4.6582-12.5951,4.5192-12.06,4.5192-12.6442ZM47.3041,63.9165H39.3023a10.7032,10.7032,0,0,0-4.4658-6.5922l2.7764-6.94H48.9935l2.7764,6.94A10.7028,10.7028,0,0,0,47.3041,63.9165Z"/><path class="cls-1" d="M76.3005,24.5225C73.5182,10.9384,62.1976.014,48.1143.014H44.5057A2.2549,2.2549,0,0,0,42.3651,1.56L34.75,24.5225Z"/></g></svg>