<svg xmlns="http://www.w3.org/2000/svg" viewBox="0 0 61 71"><defs><style>.cls-1{fill:#3f406b;}</style></defs><title>廁所</title><g id="圖層_2" data-name="圖層 2"><path class="cls-1" d="M12.4541,14.73A7.0677,7.0677,0,1,0,5.3005,7.749,7.0659,7.0659,0,0,0,12.4541,14.73Z"/><path class="cls-1" d="M44.2565,14.3411A7.0677,7.0677,0,1,0,37.1029,7.36,7.0658,7.0658,0,0,0,44.2565,14.3411Z"/><path class="cls-1" d="M17.8114,18.145l-10.5456.1289A7.0885,7.0885,0,0,0,.2849,25.4275L.5224,44.8622l5.3-.0648.3239,26.502,14.0792-.172-.3239-26.502,5.3-.0648-.2375-19.4349A7.0884,7.0884,0,0,0,17.8114,18.145Z"/><path class="cls-1" d="M51.2255,22.5784A7.0454,7.0454,0,0,0,44.47,17.8192l-.4063.0049a7.0453,7.0453,0,0,0-6.6371,4.923L28.7455,49.8185l10.6008-.13.2591,21.2016,10.6008-.13-.2591-21.2016,10.6008-.13Z"/></g></svg>