<svg xmlns="http://www.w3.org/2000/svg" viewBox="0 0 109 72"><defs><style>.cls-1{fill:#4b4b41;}</style></defs><title>提款機</title><g id="圖層_2" data-name="圖層 2"><path class="cls-1" d="M25.0715,24.7347A4.5378,4.5378,0,0,0,20.5207,29.25v5.6444h9.1015V29.25A4.5378,4.5378,0,0,0,25.0715,24.7347Z"/><path class="cls-1" d="M96.1551-.03H12.6186A12.4175,12.4175,0,0,0,.201,12.3877V59.73A12.4175,12.4175,0,0,0,12.6186,72.1473H96.1551A12.4176,12.4176,0,0,0,108.5727,59.73V12.3877A12.4176,12.4176,0,0,0,96.1551-.03ZM36.3954,50.609a3.4449,3.4449,0,0,1-2.9988,3.4547,3.3885,3.3885,0,0,1-3.7744-3.3649v-9.031H20.5207V50.609a3.4449,3.4449,0,0,1-2.9988,3.4547,3.3884,3.3884,0,0,1-3.7744-3.3649V29.3262a11.324,11.324,0,1,1,22.6479,0ZM60.0826,24.7347H55.6568V50.609a3.4449,3.4449,0,0,1-2.9988,3.4547,3.3884,3.3884,0,0,1-3.7744-3.3649V24.7347H44.4578a3.445,3.445,0,0,1-3.4547-2.9988,3.3885,3.3885,0,0,1,3.365-3.7744H60.1723a3.3885,3.3885,0,0,1,3.365,3.7744A3.445,3.445,0,0,1,60.0826,24.7347ZM95.0262,50.6673a3.445,3.445,0,0,1-2.9988,3.4548,3.3886,3.3886,0,0,1-3.7744-3.365V34.18l-2.6879,4.7027a3.5007,3.5007,0,0,1-5.8469,0L77.0348,34.18V50.6673a3.445,3.445,0,0,1-2.9988,3.4548,3.3886,3.3886,0,0,1-3.7744-3.365V21.414a3.379,3.379,0,0,1,6.3127-1.675l6.0741,10.6263L88.7225,19.739a3.3729,3.3729,0,0,1,6.3037,1.675Z"/></g></svg>