<svg id="圖層_1" data-name="圖層 1" xmlns="http://www.w3.org/2000/svg" viewBox="0 0 42.5197 42.5197"><defs><style>.cls-1{fill:#a9936d;}</style></defs><title>涼亭</title><path class="cls-1" d="M39.0463,42.2392H36.1244v-18.25l-7.1211-7.1208H12.7922l-6.488,6.4882V42.2392H3.3823V18.1679l-.4448.3024L1.295,16.054,21.0718,2.6056l19.872,13.4459-1.6379,2.42-.26-.1759Zm-2.1915-.73h1.461V16.92l.7947.5375.8189-1.21L21.0725,3.4884,2.3094,16.2473l.8214,1.2083.982-.6677V41.5088H5.5737V23.0544l6.916-6.9162h16.816l7.5491,7.5487Zm0-19.8881L31.372,16.1382h5.4828Zm-3.7194-4.7521,2.989,2.9887V16.8686Zm-27.5617,4.12v-4.85h4.85Zm.7305-4.12v2.3563L8.66,16.8686Zm28.6977-2.1914H7.2162L11.15,12.0023l19.4911-.2754ZM9.59,13.9467h23.029l-2.1965-1.4861L11.38,12.73ZM13.3443,10.51l7.73-5.2563,7.4511,5.042Zm7.731-4.3736-5.307,3.6089,10.4232-.1473Z"/><path class="cls-1" d="M22.5812,42.006H19.6593V32.8878H12.9662V29.9659H29.1809v2.9219h-6.6Zm-2.1914-.73h1.461V32.1573h6.6V30.6964H13.6967v1.4609H20.39Z"/><rect class="cls-1" x="1.1461" y="11.4636" width="21.8169" height="0.7307" transform="translate(-4.5653 8.8262) rotate(-34.2176)"/><rect class="cls-1" x="5.9389" y="16.1382" width="30.5506" height="0.7305"/><rect class="cls-1" x="20.0246" y="32.1573" width="2.1914" height="0.7305"/><rect class="cls-1" x="29.5128" y="1.0225" width="0.7305" height="21.2576" transform="translate(3.4845 29.8676) rotate(-55.9166)"/></svg>