<svg xmlns="http://www.w3.org/2000/svg" viewBox="0 0 78 78"><defs><style>.cls-1{fill:#754c24;}</style></defs><title>涼亭-02</title><g id="圖層_2" data-name="圖層 2"><path class="cls-1" d="M74.4163,77.9856l-5.8139-.0182.1093-34.8464L54.8725,29.481l-31.6019-.0991L10.584,41.7308l-.113,36.0543-5.8131-.0182.1462-46.6433-.8719.5832L.7342,27.0147,39.4992,1.0768,78.2869,27.253l-3.2184,4.6792L74.561,31.59Zm-3.87-1.95,1.9377.006.1494-47.6468,1.5275,1.0463,1.5847-2.34L39.5007,2.2643,3.2814,26.874,4.8562,29.22l1.8956-1.2878-.15,47.902,3.8755.0121L10.5876,40.61,23.91,27.4462l32.2918.1013L70.6529,42.0062Zm.1186-37.8186L60.074,27.56l10.6241.0333ZM62.9686,27.57l5.7736,5.8094.0182-5.7921ZM8.6618,36.7964l.0294-9.3979,9.398.03Zm1.9672-9.3911-.0144,4.5659,4.5792-4.5523Zm56.0216-3.7005L12.81,23.5359l7.6408-5.7892,37.7682.1184ZM17.4157,21.6126l44.6236.14-4.25-1.9511L20.89,19.6858Zm7.2916-5.375,15.01-10.1383,14.4075,9.8152Zm15.01-9.299L29.4117,13.8993,49.61,13.6772Z"/><path class="cls-1" d="M43.4188,75.9507l-5.8137-.0182.0547-17.44-13.564-.0425.0182-5.8131,31.0034.0972-.0182,5.8131-11.6263-.0364Zm-3.876-.0121,1.9377.006.0608-19.3771,11.6262.0364.0061-1.9377-29.0657-.0911-.0061,1.9377,15.5017.0486Z"/><rect class="cls-1" x="1.0637" y="17.7527" width="42.2751" height="1.4159" transform="translate(-6.5294 15.5899) rotate(-34.038)"/><rect class="cls-1" x="39.6916" y="-1.5671" width="1.9377" height="60.0694" transform="translate(12.0655 69.0386) rotate(-89.8204)"/><rect class="cls-1" x="38.6256" y="57.5303" width="1.9377" height="3.8754" transform="translate(-19.9974 98.8758) rotate(-89.8204)"/><rect class="cls-1" x="56.0313" y="-2.371" width="1.4155" height="41.1914" transform="translate(9.7333 54.8569) rotate(-55.737)"/></g></svg>