<svg xmlns="http://www.w3.org/2000/svg" viewBox="0 0 110.3619 125.0198"><defs><style>.cls-1{fill:#b53838;}</style></defs><title>販賣機</title><g id="圖層_2" data-name="圖層 2"><path class="cls-1" d="M22.41,47.5519V66.0432h6.0826v-3.554a3.7116,3.7116,0,0,1,3.2352-3.7224,3.65,3.65,0,0,1,4.064,3.6268v3.65h7.2992v-3.554a3.7115,3.7115,0,0,1,3.2352-3.7224,3.65,3.65,0,0,1,4.064,3.6268v3.65h6.0827V47.5519Z"/><path class="cls-1" d="M28.4923,36.6988a3.7115,3.7115,0,0,1,3.2352-3.7224,3.65,3.65,0,0,1,4.064,3.6267v3.65h7.2992V36.6988a3.7114,3.7114,0,0,1,3.2352-3.7224,3.65,3.65,0,0,1,4.064,3.6267v3.65h6.0827V21.7614H22.41V40.2527h6.0826Z"/><path class="cls-1" d="M22.41,87.9407H63.7718v14.5984H22.41Z"/><path class="cls-1" d="M101.4843-.1362H9.0278A8.5157,8.5157,0,0,0,.5121,8.38V115.921a8.5157,8.5157,0,0,0,8.5157,8.5157h92.4565A8.5157,8.5157,0,0,0,110,115.921V8.38A8.5157,8.5157,0,0,0,101.4843-.1362ZM18.76,14.4622H60.1222a3.65,3.65,0,0,1,3.65,3.65v51.581a3.65,3.65,0,0,1-3.65,3.65H18.76a3.65,3.65,0,0,1-3.65-3.65V18.1118A3.65,3.65,0,0,1,18.76,14.4622Zm48.6613,95.3761H18.76a3.65,3.65,0,0,1-3.65-3.65V84.2912a3.65,3.65,0,0,1,3.65-3.65H67.4214a3.65,3.65,0,0,1,3.65,3.65v21.8975A3.65,3.65,0,0,1,67.4214,109.8383ZM74.67,72.86a3.65,3.65,0,1,1,3.65-3.65A3.6493,3.6493,0,0,1,74.67,72.86Zm0-14.5984a3.65,3.65,0,1,1,3.65-3.65A3.6493,3.6493,0,0,1,74.67,58.2611Zm20.7316,44.2817a3.65,3.65,0,0,1-4.064,3.6268,3.7115,3.7115,0,0,1-3.2352-3.7224V88.04a3.7115,3.7115,0,0,1,3.2352-3.7224,3.65,3.65,0,0,1,4.064,3.6268Zm-3.7-29.6871h-4.77a3.7114,3.7114,0,0,1-3.7224-3.2351,3.65,3.65,0,0,1,3.6267-4.064h4.77a3.7115,3.7115,0,0,1,3.7224,3.2351A3.65,3.65,0,0,1,91.7014,72.8557Zm0-14.5983H87.0881a3.7119,3.7119,0,0,1-3.7227-3.2352,3.6508,3.6508,0,0,1,3.6267-4.064h4.6137a3.7115,3.7115,0,0,1,3.7224,3.2351A3.65,3.65,0,0,1,91.7014,58.2574ZM91.752,43.659H74.7206a3.65,3.65,0,0,1-3.65-3.65V18.1118a3.65,3.65,0,0,1,3.65-3.65H91.752a3.65,3.65,0,0,1,3.65,3.65V40.0094A3.65,3.65,0,0,1,91.752,43.659Z"/><path class="cls-1" d="M78.37,21.7614h9.7322V36.36H78.37Z"/></g></svg>