<svg id="圖層_1" data-name="圖層 1" xmlns="http://www.w3.org/2000/svg" viewBox="0 0 42.5197 42.5197"><defs><style>.cls-1{fill:#a99467;}</style></defs><title>飲水機</title><path class="cls-1" d="M23.6488,5.8621a1.485,1.485,0,1,1,1.49-1.48A1.4852,1.4852,0,0,1,23.6488,5.8621Z"/><path class="cls-1" d="M29.7888,9.7321a1.485,1.485,0,1,1,1.48,1.49A1.49,1.49,0,0,1,29.7888,9.7321Z"/><path class="cls-1" d="M29.6388,6.0321a1.485,1.485,0,1,1-1.49-1.49A1.4917,1.4917,0,0,1,29.6388,6.0321Z"/><path class="cls-1" d="M23.6488,6.6021a2.22,2.22,0,1,1,2.22-2.22A2.215,2.215,0,0,1,23.6488,6.6021Zm-1.49-2.22a1.49,1.49,0,1,0,1.49-1.49A1.4852,1.4852,0,0,0,22.1588,4.3821Z"/><path class="cls-1" d="M31.2688,8.2521a1.485,1.485,0,1,0,1.49,1.48A1.49,1.49,0,0,0,31.2688,8.2521Zm-2.22,1.48a2.225,2.225,0,1,1,2.22,2.23A2.2278,2.2278,0,0,1,29.0488,9.7321Z"/><path class="cls-1" d="M28.1488,7.5121a1.485,1.485,0,1,0-1.48-1.48A1.4917,1.4917,0,0,0,28.1488,7.5121Zm2.23-1.48a2.225,2.225,0,1,1-2.23-2.23A2.23,2.23,0,0,1,30.3788,6.0321Z"/><path class="cls-1" d="M20.1088,6.0321a1.49,1.49,0,1,0-1.49,1.48A1.4937,1.4937,0,0,0,20.1088,6.0321Zm.73,0a2.22,2.22,0,1,1-2.22-2.23A2.2214,2.2214,0,0,1,20.8388,6.0321Z"/><path class="cls-1" d="M17.1288,6.0321a1.49,1.49,0,1,1,1.49,1.48A1.4937,1.4937,0,0,1,17.1288,6.0321Z"/><path class="cls-1" d="M14.6188,15.2321a1.485,1.485,0,1,1,1.48,1.48A1.4852,1.4852,0,0,1,14.6188,15.2321Z"/><path class="cls-1" d="M15.1188,10.2921a1.485,1.485,0,1,1,1.49,1.49A1.4937,1.4937,0,0,1,15.1188,10.2921Z"/><path class="cls-1" d="M14.3788,10.2921a2.225,2.225,0,1,1,2.23,2.22A2.2235,2.2235,0,0,1,14.3788,10.2921Zm2.23-1.49a1.49,1.49,0,1,0,1.48,1.49A1.4937,1.4937,0,0,0,16.6088,8.8021Z"/><path class="cls-1" d="M16.0988,13.7421a1.485,1.485,0,1,0,1.49,1.49A1.4852,1.4852,0,0,0,16.0988,13.7421Zm-2.22,1.49a2.225,2.225,0,1,1,2.22,2.22A2.23,2.23,0,0,1,13.8788,15.2321Z"/><path class="cls-1" d="M33.7309,18.07V39.7418H18.1526L4.2743,23.3632s-2.927-4.11,1.1832-5.0444Z"/></svg>