<svg xmlns="http://www.w3.org/2000/svg" viewBox="0 0 174 270"><defs><style>.cls-1{fill:#b53838;}</style></defs><title>餐飲</title><g id="圖層_2" data-name="圖層 2"><path class="cls-1" d="M88.001,72.7063,77.7786,4.5922A5.6116,5.6116,0,0,0,72.2168-.2039h-.1916A5.6009,5.6009,0,0,0,66.61,4.9527L61.6788,64.0935c-.304,3.6478-6.7778,3.6478-7.0818,0l-4.92-59.1408a5.6263,5.6263,0,0,0-11.2134,0L33.5328,64.0935c-.304,3.6478-6.7778,3.6478-7.0818,0l-4.92-59.1408A5.6389,5.6389,0,0,0,16.1041-.2039h-.18a5.6116,5.6116,0,0,0-5.5619,4.7961L.151,72.7063a44.0412,44.0412,0,0,0,26.0857,47.0155L17.5453,241.5389A26.5764,26.5764,0,0,0,44.048,270h.0449a26.5774,26.5774,0,0,0,26.5137-28.4617L61.9152,119.7218A44.0406,44.0406,0,0,0,88.001,72.7063Z"/><path class="cls-1" d="M171.1563.832a5.6463,5.6463,0,0,0-5.1228-.7092c-.484.1688-48.7829,17.9121-48.7829,72.8537,0,39.5511,12.8684,59.5235,20.1075,67.63l-7.2053,7.2053a5.59,5.59,0,0,0-1.6212,3.4224L119.6259,240.3a27.02,27.02,0,1,0,53.9063,2.68V5.4255A5.5711,5.5711,0,0,0,171.1563.832Z"/></g></svg>