<svg id="圖層_1" data-name="圖層 1" xmlns="http://www.w3.org/2000/svg" viewBox="0 0 90.7723 133.7822"><defs><style>.cls-1{fill:#bfbbd0;}</style></defs><title>arrow</title><path class="cls-1" d="M16.0492.5519C4.3563,12.1013,7.6775,31.3913,15.2513,44.3287c3.4136,5.831,8.9776,11.5472,16.274,11.0634,5.497-.3646,11.2815-4.349,11.0689-10.3453-.2125-5.9932-6.5053-10.234-12.1756-9.7632-6.9481.5769-11.7984,7.1709-13.109,13.5473C15.3085,58.5664,19.3685,69.38,22.53,78.4551c3.225,9.257,6.9019,19.4308,13.1547,27.1022,12.5833,15.4382,34.8914,15.52,53.0555,14.9008,1.9253-.0656,1.9341-3.0659,0-3-15.3778.5241-33.6657.9289-46.3087-9.3523-7.3136-5.9474-11.1013-15.19-14.5-23.7221-3.4592-8.6839-7.0988-18.2985-7.958-27.6548-.4976-5.4192.3741-11.1915,4.35-15.2226,3.48-3.5285,8.9634-4.4927,12.8932-1.004,4.7063,4.178,1.528,10.0685-3.7316,11.53-4.3472,1.2079-8.3852-.66-11.5065-3.6888C11.0025,37.6913,6.5854,14.1162,18.1705,2.6732c1.3757-1.3588-.7458-3.48-2.1213-2.1213Z"/><path class="cls-1" d="M69.3716,133.4683l14.8826-8.5224c2.29-1.3113,5.5071-2.365,5.6957-5.4049.4641-7.4809-8.7085-13.2625-9.9491-20.5054-.3253-1.8991-3.2168-1.0939-2.8929.7975,1.0249,5.9834,5.3752,9.9356,8.1668,15.08a14.4071,14.4071,0,0,1,1.234,2.6971q.64,3.0741-2.1151,3.7981c-1.301,1.19-3.4486,1.9748-4.9608,2.8408l-11.5754,6.6285a1.5011,1.5011,0,0,0,1.5142,2.59Z"/></svg>