<svg xmlns="http://www.w3.org/2000/svg" viewBox="0 0 375 423"><defs><style>.cls-1{fill:#f2f2f2;}</style></defs><title>draw</title><g id="圖層_1" data-name="圖層 1"><path class="cls-1" d="M126.3519,307.2428c3.7756,4.3751,5.47,9.4668,1.727,14.37-3.0866,4.0435-8.4214,6.0325-12.74,2.7342-4.6953-3.5859-4.9134-9.34-1.86-14.4628C116.5823,304.678,121.36,305.44,126.3519,307.2428Z"/><path class="cls-1" d="M319.4126,199.1819c5.0679,3.6723,5.14,8.0661,2.108,12.6494-3.1089,4.6983-7.5045,5.8372-12.44,2.9973-4.7676-2.7431-7.1712-7.0427-3.8109-11.9495C308.656,197.9334,314.0544,197.5285,319.4126,199.1819Z"/><path class="cls-1" d="M141.8959,147.7676c-4.5076-4.2738-5.297-9.3855-2.66-14.713,2.7157-5.4873,12.4794-3.3572,12.4794-3.3572s3.9369,8.6945,2.47,13.124C152.2928,148.5358,147.04,148.4326,141.8959,147.7676Z"/><path class="cls-1" d="M119.6278,83.802c-3.3465-3.9251-6.5438-7.912-3.0726-12.9442,3.8983-5.6515,9.47-4.0793,14.4015-1.8725,4.9168,2.2,5.6986,6.4385,2.26,10.4544C129.7363,83.5036,125.6343,87.29,119.6278,83.802Z"/><path class="cls-1" d="M271.4228,49.52c4.5014,3.25,4.1846,7.2614,1.5725,11.2624-3.6129,5.5338-8.5066,5.8787-13.928,2.6926-4.201-2.4688-6.67-5.7386-3.538-10.4969C259.6213,46.7612,265.6015,48.2208,271.4228,49.52Z"/><path class="cls-1" d="M237.1942,252.6838c4.5871,4.8773,3.431,8.98.4478,12.3948-3.773,4.3192-9.09,6.9186-14.1432,3.2105-3.3523-2.46-4.9768-7.8838-1.7111-11.54C225.9949,252.0381,232.1278,252.3721,237.1942,252.6838Z"/><path class="cls-1" d="M279.7627,358.428c-3.8833-4.3691-8.5468-9.3919-6.0238-15.408,2.2221-5.2985,8.1857-4.3991,12.6423-2.0031,6.1548,3.3089,5.2,8.9469,2.9363,14.0684C287.616,358.9344,284.176,360.36,279.7627,358.428Z"/><path class="cls-1" d="M329.885,135.4619c-4.1528,3.62-9,4.9141-13.5907,2.1769-5.0921-3.0359-5.0621-8.6528-2.6091-13.0985,2.8547-5.1737,8.391-5.2562,12.7783-2.2465C330.8623,125.3115,331.6663,130.2855,329.885,135.4619Z"/><path class="cls-1" d="M325.6309,161.0786c4.7932,3.87,5.4113,8.9848,3.1391,14.4123-1.6983,4.0567-5.1824,5.9754-9.1462,3.2282-5.0576-3.5053-9.4527-7.9972-5.7648-14.8551C316.4285,159.0857,321.0445,159.9917,325.6309,161.0786Z"/><path class="cls-1" d="M147.4919,319.0383c-4.9608-3.4174-7.6713-7.4377-4.3477-12.4538,3.8568-5.8211,9.4409-3.3541,14.4286-1.4982,4.6813,1.742,4.6841,5.3982,2.7354,9.1448C157.3681,319.8836,152.8223,321.36,147.4919,319.0383Z"/><path class="cls-1" d="M233.6172,228.1777c-3.943,4.1581-14.2923,3.5372-14.2923,3.5372s-5.7938-6.6871-3.0454-10.7109c3.3319-4.8776,14.207-3.7947,14.207-3.7947S235.6186,223.5087,233.6172,228.1777Z"/><path class="cls-1" d="M45.6191,305.881c-2.5289,3.0594-6.2,7.1957-11.3018,2.3554-3.4059-3.2316-7.4807-7.9157-3.2887-12.8046,3.4365-4.0079,8.86-4.1451,13.6017-1.5875C49.7687,296.616,49.12,300.7036,45.6191,305.881Z"/><path class="cls-1" d="M161.8127,200.9914c-3.7773,4.6756-8.24,5.5836-13.0767,2.3726-4.0121-2.6634-6.5969-6.61-2.825-10.9212,3.9308-4.4925,9.6823-5.82,14.9121-2.78C165.6712,192.4812,164.1815,197.0485,161.8127,200.9914Z"/><path class="cls-1" d="M272.003,295.3146c-2.8108,4.214-6.4955,4.2354-10.09,2.2649-5.8809-3.2237-5.8916-14.7815-5.8916-14.7815s7.8536-3.9432,11.5184-1.7631C272.8942,284.22,272.1036,290.1791,272.003,295.3146Z"/><path class="cls-1" d="M338.858,252.4948c-4.4184,5.9482-9.2135,6.67-14.38,3.0054-3.8812-2.7529-5.8678-7.0306-2.52-10.9633,3.8826-4.5607,14.84-2.2318,14.84-2.2318S340.286,249.1552,338.858,252.4948Z"/><path class="cls-1" d="M59.1482,241.2124c-3.7771,6.3461-7.9428,6.177-12.6915,2.8135-4.2448-3.0068-5.21-7.1548-2.6227-11.2539,3.7356-5.9177,9.378-4.5529,14.29-1.7994C63.5937,234.0389,60.5912,238.2441,59.1482,241.2124Z"/><path class="cls-1" d="M247.4049,33.146c-3.2472,5.5773-9.0657,4.9875-13.17,3.7425-6.6027-2.0028-3.9035-8.381-2.4055-12.4216,1.7311-4.669,7.18-5.5947,11.2262-3.922C248.441,22.7714,248.2286,28.1744,247.4049,33.146Z"/><path class="cls-1" d="M66.6042,333.6243C61.99,330.8251,60.5594,326.8,63.27,322.6385c2.6489-4.0667,6.9565-7.8,12.0957-5.05a9.2482,9.2482,0,0,1,3.8524,12.5752C76.6606,335.1216,71.3176,334.6827,66.6042,333.6243Z"/><path class="cls-1" d="M271.3449,154.4468c-3.8371,2.5667-7.6653,7.157-12.7086,4.04-4.6075-2.8474-5.125-8.3165-2.6971-12.8905,2.878-5.4218,7.8291-4.9957,12.4313-2.1059C272.4527,146.054,274.2541,149.6362,271.3449,154.4468Z"/><path class="cls-1" d="M206.6286,154.5848c-4.2171,4.8439-8.6546,6.8261-13.0382,2.6409-3.61-3.4462-5.6137-8.876-1.8056-12.9611,3.5982-3.86,9.3083-2.7611,13.4956-.2884C210.2,146.8817,207.9138,151.3118,206.6286,154.5848Z"/><path class="cls-1" d="M99.3733,161.4731c4.2868,2.4039,6.0651,5.4335,3.55,9.4934-3.18,5.133-8.2168,7.4462-13.7428,5.1448-4.57-1.9035-5.5219-7.407-3.5645-11.108C88.5817,159.3951,94.4063,160.0115,99.3733,161.4731Z"/><path class="cls-1" d="M96.4184,200.5814c-3.0621,4.3463-6.95,7.4-12.2217,4.3293-5.12-2.9826-5.3605-8.5473-2.7684-12.8226,3.6542-6.0269,9.7421-3.3272,14.3751-1.1686C100.57,193.14,98.2971,197.1805,96.4184,200.5814Z"/><path class="cls-1" d="M92.3574,230.5678c-3.9217,2.7814-7.9754,6.9837-12.6965,2.2559-3.59-3.595-5.0567-9.0591-1.8238-13.3482,3.77-5.0021,9.2735-1.7124,13.2712.1693C96.12,222.0039,95.2314,226.4865,92.3574,230.5678Z"/><path class="cls-1" d="M104.0156,248.6006c-4.4465-3.1-5.6842-7.1807-2.72-11.183,2.8384-3.8326,12.2056-4.4288,12.2056-4.4288s6.0417,8.1513,3.2452,12.673C113.9013,250.2619,108.6779,250.0334,104.0156,248.6006Z"/><path class="cls-1" d="M248.5019,408.4606c-4.6053,3.6135-9.295,6.0545-13.7568,2.6476a8.381,8.381,0,0,1-1.8128-11.6679c2.5344-3.57,6.6213-6.3713,11.0826-3.1351C248.0779,399.2524,250.285,403.5054,248.5019,408.4606Z"/><path class="cls-1" d="M131.3811,378.6629c-3.5685,5.1572-7.6052,6.624-11.7537,3.6479-4.2809-3.0711-6.0817-8.1431-3.4539-12.8933,2.3324-4.2162,7.4258-5.0876,11.4034-2.86C132.63,369.388,131.4978,374.7634,131.3811,378.6629Z"/><path class="cls-1" d="M69.2138,206.9327c-3.192,4.1262-6.6454,7.3315-11.1137,4.0916-4.1636-3.019-6.1137-7.6256-2.4863-12.5558,3.3951-4.6145,7.8484-5.3837,12.6008-2.1815C73.1476,199.6107,71.05,203.5757,69.2138,206.9327Z"/><path class="cls-1" d="M72.6525,148.6907c3.8394,3.4258,5.2758,7.4744,1.7816,11.426-3.4383,3.8883-8.5669,5.8269-13.0529,2.5659A8.139,8.139,0,0,1,59.45,151.0741C62.7551,146.8158,67.8163,146.7719,72.6525,148.6907Z"/><path class="cls-1" d="M108.49,347.4421c-3.9145,3.3706-8.7075,6.6023-14.04,2.59-3.0221-2.2737-4.2924-6.8458-1.3258-10.1971,3.889-4.3933,8.9619-6.2568,14.5265-2.6064C111.7627,339.9264,111.3438,343.3967,108.49,347.4421Z"/><path class="cls-1" d="M137.9579,224.8828c-4.28,3.16-9.0417,4.6215-13.5478,1.57-4.1512-2.8117-4.9009-7.4093-1.301-11.2122,3.5434-3.7432,8.667-5.7607,13.05-2.212C139.5429,215.768,140.2688,220.466,137.9579,224.8828Z"/><path class="cls-1" d="M267.0427,91.8568c-3.8383,5.2887-8.9346,5.2242-14.1852,2.2737-4.1794-2.3485-4.4-6.0822-1.6235-9.706,4.02-5.2474,9.8247-5.0094,14.9078-2.8807C271.1991,83.6616,267.7458,88.0531,267.0427,91.8568Z"/><path class="cls-1" d="M202.6521,265.436a11.9922,11.9922,0,0,1-13.8617,4.8552c-4.9283-1.4391-4.3427-5.4236-2.1885-9.1752,3.0165-5.253,7.103-8.3564,13.2935-5.44C203.9105,257.5672,205.2463,260.82,202.6521,265.436Z"/><path class="cls-1" d="M264.9745,249.3582c-4.1655,3.3093-8.538,6.1856-13.3843,2.5864-4.0513-3.0089-4.8021-7.686-.9391-11.276,4.196-3.9,9.7338-5.79,14.6434-1.4165C268.5592,242.1605,267.3774,246.1666,264.9745,249.3582Z"/><path class="cls-1" d="M93.7838,289.741c3.803,2.3893,4.8847,5.5878,2.3456,9.4083-3.5659,5.3658-8.9378,5.7779-14.1054,3.4812a6.0617,6.0617,0,0,1-2.4056-9.4663C83.08,288.7918,88.0734,286.7532,93.7838,289.741Z"/><path class="cls-1" d="M225.8172,388.6069c-3.4715,4.3505-7.6443,4.1942-11.281,1.1812-3.0513-2.5281-7.8992-5.57-4.6225-10.4429,3.6206-5.3844,9.789-4.5516,14.4857-2.0938C229.1323,379.7282,226.9109,384.6474,225.8172,388.6069Z"/><path class="cls-1" d="M299.4828,168.3035c5.733,3.3541,4.6119,7.9084,2.258,11.5453-2.3937,3.6982-6.4894,6.6077-11.1124,3.5078a9.67,9.67,0,0,1-3.6425-11.7131C289.5266,165.4653,295.3161,168.4931,299.4828,168.3035Z"/><path class="cls-1" d="M296.5194,92.78c5.733,3.3541,4.6119,7.9084,2.258,11.5453-2.3937,3.6982-6.4894,6.6077-11.1124,3.5078A9.67,9.67,0,0,1,284.0225,96.12C286.5632,89.942,292.3527,92.97,296.5194,92.78Z"/><path class="cls-1" d="M157.1128,96.2688c-2.9782-2.6621-5.8721-6.0084-2.7612-9.6562,3.9753-4.6613,9.4785-4.8011,14.6222-1.5348,4.0981,2.6025,3.829,6.312,1.1011,9.7171C166.3693,99.42,161.844,99.2871,157.1128,96.2688Z"/><path class="cls-1" d="M145.2058,350.4863c-3.3481,3.9883-7.3232,5.1851-11.3137,1.9959-3.2641-2.6087-7.2382-6.6488-3.8772-10.6923,2.7911-3.3579,8.21-6.6535,12.74-4.0772C147.4185,340.3645,146.8588,345.8215,145.2058,350.4863Z"/><path class="cls-1" d="M228.6807,290.1968c4.1108,2.4878,4.7156,6.2871,2.2462,9.7617-2.8631,4.0284-6.9989,7.8489-12.3683,4.7557-4.0921-2.3575-5.76-7.215-3.1994-11.3753C218.3513,288.4781,223.6441,288.8579,228.6807,290.1968Z"/><path class="cls-1" d="M140.5633,171.8545c-3.8047,2.457-7.3277,8.23-12.2706,4.2163-3.6058-2.9281-4.85-8.8842-2.4648-13.4676,2.4793-4.7643,7.67-3.7764,11.574-2.0262C142.2269,162.74,142.0287,167.2376,140.5633,171.8545Z"/><path class="cls-1" d="M184.4531,69.5007c-2.2769-3.4465-6.5567-6.7889-3.5747-11.2826,3.8632-5.8218,9.7691-3.5368,14.5414-1.3578,6.45,2.9451,2.2616,7.1909.0115,10.4047C192.73,71.1228,189.0092,72.9535,184.4531,69.5007Z"/><path class="cls-1" d="M208.9086,325.655c-3.5145,4.7019-7.7707,2.9476-11.5556,1.2416-4.1228-1.8583-7.7211-5.3211-5.3906-10.0539,2.4781-5.0324,7.8971-5.3927,12.6224-3.5087C210.32,315.62,209.5555,320.827,208.9086,325.655Z"/><path class="cls-1" d="M93.5956,266.0445c-4.2644,5.53-8.5427,2.3182-12.6622-.3178-3.4762-2.2242-6.4319-5.1165-1.9984-8.9005,3.79-3.2348,8.38-5.9395,13.2908-2.459C96.495,257.3933,96.2151,261.6832,93.5956,266.0445Z"/><path class="cls-1" d="M137.9786,112.1475c-3.3726,4.3137-7.9839,5.0547-12.548,2.5319-4.393-2.4281-5.2569-6.8944-2.2278-10.8853,3.1237-4.1156,8.0387-5.9385,12.722-3.3959C140.5527,102.9106,138.8926,107.73,137.9786,112.1475Z"/><path class="cls-1" d="M238.2441,65.37c-4.44,5.2337-9.4234,6.9407-14.925,5.029-4.9777-1.73-4.0355-6.2266-1.8821-9.2556,2.65-3.727,5.8613-8.2736,11.7459-5.5186C237.5734,57.68,239.2311,61.2482,238.2441,65.37Z"/><path class="cls-1" d="M201.5944,365.44c-2.992,4.5538-6.9426,6.0421-11.231,3.1944-4.2367-2.8134-4.5013-7.1966-1.9614-11.4787,2.44-4.1134,10.7977-4.342,10.7977-4.342S202.596,361.0336,201.5944,365.44Z"/><path class="cls-1" d="M258.3,373.9183c-2.992,4.5538-6.9426,6.0421-11.231,3.1944-4.2367-2.8134-4.5013-7.1966-1.9614-11.4788,2.44-4.1133,6.12-6.7746,10.7977-4.3419C261.7346,364.3233,259.3015,369.5123,258.3,373.9183Z"/><path class="cls-1" d="M214.447,24.26c3.5188,2.3513,6.54,5.483,4.4062,9.3964-2.9536,5.4183-9.03,6.2376-14.1338,4.6061-3.9933-1.2766-4.3472-6.5071-2.5157-9.79C204.7431,23.9208,209.1955,21.9236,214.447,24.26Z"/><path class="cls-1" d="M355.21,183.0438c-3.6,4.6357-12.867,2.29-12.867,2.29s-4.8037-6.4518-2.4238-9.9174c3.3-4.8058,13.1176-1.9844,13.1176-1.9844S357.7829,179.0806,355.21,183.0438Z"/><path class="cls-1" d="M240.5943,149.2637c4.1812,2.9606,4.3468,6.4932,1.5786,9.8942-3.2342,3.9734-7.8793,6.9223-12.3859,3.1812-3.16-2.6229-4.7076-8.21-2.0667-11.8276C230.9748,146.0532,236.2168,147.015,240.5943,149.2637Z"/><path class="cls-1" d="M183.3462,129.449c-3.5022,4.533-7.8223,5.39-12.6259,2.4075-4.0121-2.4914-6.8431-6.4057-3.2507-10.5273,3.5979-4.1281,9.1189-2.3778,13.58-.9108C185.6912,121.9446,185.7475,125.6111,183.3462,129.449Z"/><path class="cls-1" d="M252.0569,205.5372c-3.0117,4.4225-6.7393,4.89-10.7368,1.5478-3.53-2.9514-5.8191-7.5365-3.2971-11.2286,3.011-4.408,8.4227-4.013,12.8991-1.2431C255.7276,197.5867,254.7517,201.5631,252.0569,205.5372Z"/><path class="cls-1" d="M120.6,146.0065c-3.5417,3.671-11.5488,1.4627-11.5488,1.4627l-4.041-11.2533,12.594-1.6581S122.3042,141.5384,120.6,146.0065Z"/><path class="cls-1" d="M121.392,203.5732c-3.694,3.88-7.9063,5.9975-11.9948,3.7452-4.1956-2.3113-5.2491-6.8595-2.0995-11.0961,3.0861-4.1511,7.6531-7.1142,12.3716-3.9633C123.6034,194.8861,122.59,199.8459,121.392,203.5732Z"/><path class="cls-1" d="M176.6386,258.0375c-2.8811,4.1468-6.32,8.237-11.6361,4.6077-3.4215-2.3358-6.3083-6.6017-2.8074-10.9711,3.289-4.1048,8.25-5.0856,13.0292-3.0431C180.0859,250.7088,178.4771,254.5266,176.6386,258.0375Z"/><path class="cls-1" d="M184.1231,294.4252c-3.5211,3.9371-7.5947,4.0353-11.7235,1.3549-4.06-2.6361-6.6819-6.5343-3.1658-10.8871,2.7307-3.3806,7.0741-5.9478,11.3689-2.0229C183.84,285.8289,186.3852,289.5255,184.1231,294.4252Z"/><path class="cls-1" d="M171.9545,380.7364c-3.16,3.628-7.4029,4.9937-11.4985,3.14-4.5134-2.0432-5.4907-7.2-3.7288-11.0773,2.2636-4.9822,7.67-6.2077,12.2821-3.5736C173.1057,371.565,173.1239,376.278,171.9545,380.7364Z"/><path class="cls-1" d="M52.0933,285.9933c-3.2919-3.2019-4.6261-6.5977-1.2734-10.1355,3.8665-4.08,8.7-4.4333,13.5539-2.0291,4.979,2.466,3.7883,6.2971.8566,9.2736C61.6233,286.7645,57.1538,288.7408,52.0933,285.9933Z"/><path class="cls-1" d="M22.5458,271.3112c-3.2918-3.2019-4.6261-6.5977-1.2734-10.1355,3.8666-4.08,8.7-4.4332,13.5539-2.0291,4.979,2.4661,3.7884,6.2971.8567,9.2736C32.0759,272.0824,27.6064,274.0588,22.5458,271.3112Z"/><path class="cls-1" d="M189.22,104.4493c-3.3676-3.0226-5.8226-7.5125-3.116-11.1679,3.1309-4.2283,8.5676-3.7753,13.1121-.9407,4.048,2.525,4.1291,6.0974,1.4567,9.5862C197.7441,105.75,193.9115,106.9774,189.22,104.4493Z"/><path class="cls-1" d="M173.3731,231.4518c-3.238,4.8443-7.7739,4.1494-11.6044,2.089a7.9,7.9,0,0,1-3.3233-11.2132c2.5732-4.29,8.1655-3.4169,11.8574-2.0183C175.2737,222.1923,174.305,227.2145,173.3731,231.4518Z"/><path class="cls-1" d="M139.1241,45.9838c-3.1183,4.4-7.0525,6.8943-12.1842,3.6437a6.9608,6.9608,0,0,1-2.3652-9.8769c2.9558-5.0959,8.0539-5.0243,12.74-3.1963C142.1943,38.458,140.7241,42.38,139.1241,45.9838Z"/><path class="cls-1" d="M199.4867,233.5557c-3.2391,3.1547-7.415,6.6863-12.1178,2.9863-3.6012-2.8332-3.592-7.9521-.7527-11.7059,3.03-4.0055,7.3718-3.9224,11.4957-1.3266C202.1414,226.0458,202.0881,229.44,199.4867,233.5557Z"/><path class="cls-1" d="M299.0566,142.3231c-3.7038,3.16-8.101,5.5078-12.8081,2.5306-3.8409-2.4294-2.9295-6.56-.8954-9.9759,2.391-4.0146,6.0015-6.8617,10.5022-3.7994C299.3833,133.4789,301.762,137.31,299.0566,142.3231Z"/><path class="cls-1" d="M196.6062,389.4176c3.7627,2.9447,6.2143,7.2079,3.99,11.3022-2.1717,3.9975-7.6864,4.8244-11.6978,3.49-5.1905-1.7266-4.7536-6.9988-3.1724-11.0618C187.6308,388.2533,191.8755,387.5539,196.6062,389.4176Z"/><path class="cls-1" d="M21.6435,242.5439c-4.2879,3.017-7.7013,7.0609-12.02,2.6788-3.0276-3.0723-5.97-7.5378-2.0241-11.3773,3.5546-3.4591,8.8215-4.675,13.252-.9674C24.517,235.9452,22.2116,239.6821,21.6435,242.5439Z"/><path class="cls-1" d="M120.7692,281.7c-4.5355,4.1143-9.1969,7.3864-14.7139,4.9917-3.517-1.5268-5.4846-5.8536-2.63-9.4161,3.6536-4.56,9.0154-5.645,14.4061-3.1539C121.0785,275.6217,121.9782,278.617,120.7692,281.7Z"/><path class="cls-1" d="M251.1557,332.2923c-3.609-3.7837-2.615-8.0841-.5368-11.79,2.4663-4.3981,6.7137-5.2694,10.95-2.4337,3.5591,2.3822,4.5573,6.2647,2.32,9.86C261.0419,332.5043,256.3568,333.39,251.1557,332.2923Z"/><path class="cls-1" d="M302.0485,294.4737c-3.6089-3.7838-2.615-8.0842-.5367-11.79,2.4663-4.3981,6.7136-5.2694,10.95-2.4338,3.5591,2.3823,4.5574,6.2647,2.32,9.86C311.9347,294.6856,307.25,295.5714,302.0485,294.4737Z"/><path class="cls-1" d="M149.1659,282.7c-3.643,4.4294-7.9658,5.1972-12.7482,2.0782-3.7164-2.4236-4.9478-6.4677-2.4284-9.7384,4.102-5.3253,9.8171-2.9768,14.5125-.65C152.2414,276.2422,151.0109,279.73,149.1659,282.7Z"/><path class="cls-1" d="M311.6635,252.6274c-3.1135,3.5829-6.74,6.1166-10.88,2.1828-3.1262-2.9713-5.7674-7.1176-1.6182-11.1575,3.185-3.1012,7.7461-4.6945,11.7582-2.25C315.75,244.3433,313.813,248.7162,311.6635,252.6274Z"/><path class="cls-1" d="M214.793,132.6225c-3.1742-2.2885-2.9806-9.0031-2.9806-9.0031l13.0461-2.7594.8336,9.4832S219.1877,135.4425,214.793,132.6225Z"/><path class="cls-1" d="M278.4875,224.2747c-2.4677-3.5254-5.7559-7.4827-1.813-11.4693a9.4053,9.4053,0,0,1,12.0048-1.55c5.3986,3.5893,1.7656,7.6653-.649,11.06C285.6827,225.6155,282.5781,227.7839,278.4875,224.2747Z"/><path class="cls-1" d="M147.317,254.8037c-2.6609,2.9863-5.98,5.2427-9.5963,2.4382-4.0207-3.1186-6.1325-7.5154-2.554-12.4266,2.8474-3.9077,6.4116-2.7423,9.8114-.6713C149.4238,246.852,150.3507,250.3986,147.317,254.8037Z"/><path class="cls-1" d="M231.3952,341.3922c3.2064,3.0248,4.62,6.5779,1.2987,9.9678-3.1134,3.178-7.2963,5.7856-11.3716,1.6128-2.6571-2.7209-4.6764-6.9866-1.8834-10.3162C222.5058,339,227.1482,339.2884,231.3952,341.3922Z"/><path class="cls-1" d="M189.19,191.6328c4.402,2.8861,5.08,6.52,2.7052,10.1582-2.621,4.0157-7.1717,6.0034-11.3291,3.6257-3.456-1.9767-3.8031-6.6414-2.2378-10.3725C180.6356,189.5457,185.4515,191.49,189.19,191.6328Z"/><path class="cls-1" d="M219.923,183.0014c-3.4646,5.1815-6.8758,8.839-12.5726,6.0736-3.8236-1.8562-2.971-5.232-1.3527-8.3684,2.6453-5.1267,12.1809-4.9724,12.1809-4.9724S220.2591,180.93,219.923,183.0014Z"/><path class="cls-1" d="M167.5875,172.5953c-3.0053-2.5527-5.85-5.728-3.0773-9.5124,3.1908-4.3551,8.2108-5.01,12.8624-2.3479,3.6057,2.0638,2.3992,5.4446.73,8.3885C175.6705,173.4117,172.4506,175.5144,167.5875,172.5953Z"/><path class="cls-1" d="M232.9221,86.2036c3.5492,2.42,5.7171,5.6209,2.1572,9.2088-3.1134,3.138-7.5983,4.7119-11.7788,2.2872-4.0928-2.3736-3.3412-6.4881-1.3329-9.9326C224.7968,82.9148,228.7775,83.3627,232.9221,86.2036Z"/><path class="cls-1" d="M271.8463,180.6055c3.87,2.8344,3.7908,6.2454,1.1333,9.7081-2.5171,3.28-6.2445,5.3821-9.6389,2.3375-3.2361-2.9026-4.7815-7.569-1.65-11.5955C264.5026,177.439,268.3459,178.6138,271.8463,180.6055Z"/><path class="cls-1" d="M165.6394,347.7126c-3.15-3.3045-4.1285-6.792-1.9653-9.4324,3.1142-3.8014,7.4489-6.662,12.7265-3.8964,3.7907,1.9863,3.038,5.351,1.1248,8.2623C174.542,347.1857,170.1212,348.2163,165.6394,347.7126Z"/><path class="cls-1" d="M33.0392,202.1913c3.56,2.9545,3.7343,6.5454,1.1387,9.84-2.8095,3.5663-7.11,5.6646-11.1547,2.9418a6.965,6.965,0,0,1-1.5312-10.002C24.2823,201.1757,28.6338,200.9265,33.0392,202.1913Z"/><path class="cls-1" d="M248.964,125.6c-3.0979-3.42-2.6465-7.3376-.4182-10.402,3.2558-4.4774,7.6611-3.0085,11.3954-.3174,2.6139,1.8836,5.5749,4.88,2.5513,7.9122C258.9633,126.3325,253.9432,126.7828,248.964,125.6Z"/><path class="cls-1" d="M162.8915,54.09c3.4426,2.6807,5.2864,6.2014,2.3056,9.6056-2.899,3.3107-7.4888,4.7529-11.5257,2.0307-3.3134-2.2343-4.7163-6.738-2.3767-9.8657C154.0226,52.2138,158.7121,52.32,162.8915,54.09Z"/></g></svg>