<svg xmlns="http://www.w3.org/2000/svg" viewBox="0 0 448 139"><defs><style>.cls-1{fill:#e6e6e6;}</style></defs><title>draw</title><g id="圖層_1" data-name="圖層 1"><path class="cls-1" d="M3.1972,45.2777c5.874-12.7463,22.12-8.9591,32.349-5.1209,12.77,4.7915,25.1517,7.6432,38.8757,6.9568,13.41-.6708,26.5372-3.74,39.807-5.5543a124.88,124.88,0,0,1,21.2325-1.2883c5.7925.2,11.9419,1.9063,17.4036-.7016,3.03-1.4467,5.7033-3.3439,8.8973-4.4878a30.93,30.93,0,0,1,10.44-1.86c6.4484.0116,13.7446,2.6905,15.7559,9.4256a9.8881,9.8881,0,0,1-.9117,8.2157c-2.3821,3.5585-7.4038,4.4751-11.3523,4.9517a41.7847,41.7847,0,0,1-9.74-.0537c-2.7557-.3125-5.549-.8133-8.32-.3551a16.2231,16.2231,0,0,0-6.6983,3.173,20.0739,20.0739,0,0,1-9.9868,3.7609,180.0068,180.0068,0,0,1-21.5284.7345c-7.2244-.1055-14.8606-.1166-21.9561-1.5857C91.2055,60.192,86.601,55.3266,80.28,54.3267c-6.814-1.0779-13.59.246-20.4207-1.3292-6.7942-1.5668-13.1938-4.4313-19.6037-7.1044C34.1351,43.3406,27.8836,40.8409,21.302,39.78c-7.1042-1.1448-12.79.89-19.03,4.1244-1.1492.5957-.1336,2.3313,1.0147,1.736,3.7057-1.9209,7.5153-3.89,11.7494-4.23A32.9463,32.9463,0,0,1,26.23,42.9293c6.41,1.7565,12.4813,4.5111,18.6071,7.0442,5.8814,2.432,11.888,4.7179,18.2114,5.6722,6.8659,1.0362,14.4968-.9869,20.9833,1.8677,2.7637,1.2163,5.1545,3.1231,7.9163,4.3482a31.0311,31.0311,0,0,0,9.2979,2.2141A198.5993,198.5993,0,0,0,124.71,65.0981c6.9068-.0633,14.8859.41,21.5469-1.6943a25.2737,25.2737,0,0,0,6.5075-3.6676c3.6418-2.4744,7.184-2.6861,11.4524-2.1809,9.12,1.08,26.62,1.1558,26.2351-12.0561-.339-11.6456-13.2843-15.3586-22.9031-13.93a33.6072,33.6072,0,0,0-8.2221,2.3125c-3.5865,1.5255-6.8215,4.3354-10.7227,4.9606-3.4418.5515-7.0537-.2523-10.5066-.4584a104.577,104.577,0,0,0-11.7231-.0341c-15,.789-29.6285,4.5327-44.5308,6.15a94.3251,94.3251,0,0,1-25.7118-.315c-8.2161-1.37-15.675-4.5258-23.4927-7.2221-10.43-3.5974-25.6348-4.7284-31.1778,7.3-.5379,1.1671,1.1946,2.19,1.7361,1.0147Z"/><path class="cls-1" d="M105.3568,53.06c2.4713-.4827,4.3877,1.0943,5.8525,2.8771,1.3167,1.6025,3.33,4.6806.7374,6.1623a1.006,1.006,0,0,0,1.0147,1.7361c3.1071-1.7755,2.4456-5.46.6918-7.9865-2.0778-2.9936-4.9878-5.4783-8.8308-4.7278-1.2687.2478-.7316,2.186.5344,1.9388Z"/><path class="cls-1" d="M150.7443,60.6308q7.32,5.4883,14.64,10.9767c2.1717,1.6337,3.2113,2.488,3.4147,5.3511.0551.7767-.0911,1.5471-.0056,2.3431a23.4735,23.4735,0,0,0,2.1278,7.6406c2.8442,4.7428,6.8391-5.8522.4514-4.3178-1.2576.3021-.7251,2.2413.5344,1.9388.57-.1369.67,1.4651.2584-.43-.1665-.7668-.4746-1.52-.6944-2.274a15.2562,15.2562,0,0,1-.61-5.4138,5.0124,5.0124,0,0,0-2.167-4.8492c-5.4764-4.4251-11.3011-8.4781-16.9345-12.702-1.0356-.7764-2.0388.9682-1.0148,1.736Z"/><path class="cls-1" d="M169.8716,74.9871c.7169-.3713,3.6291,2.2549,4.0259,2.621a13.78,13.78,0,0,1,2.5792,3.724c.8147,1.4243,2.4893,2.42,4.0274,1.3157,3.2228-2.313-2.2081-6.4265-3.3284-2.3522a1.0062,1.0062,0,0,0,1.9388.5345c-.1851.6732-1.2687-1.31-1.3448-1.4573a10.9773,10.9773,0,0,0-1.1065-1.7354,13.4771,13.4771,0,0,0-2.3382-2.29c-1.4772-1.1637-3.52-3.1051-5.4682-2.096-1.1493.5952-.1337,2.3308,1.0148,1.736Z"/><path class="cls-1" d="M169.4822,74.5663a45.0888,45.0888,0,0,1,9.1213-2.5732c3.3083-.5463,1.4756,1.2344,3.41,2.4772a.98.98,0,0,0,1.0148,0,5.2811,5.2811,0,0,0,1.8047-2.7322,1.0216,1.0216,0,0,0-.462-1.1353l-.6462-.4592c-1.0566-.7509-2.0619.9919-1.0147,1.7361l.6461.4592-.462-1.1353c-.5968,1.5876.67,1.1508.3613.232a2.8025,2.8025,0,0,0-.3925-.923,2.61,2.61,0,0,0-2.1561-.7983c-3.8727-.0786-8.2167,1.5241-11.7592,2.9133-1.1911.4671-.6726,2.4121.5345,1.9387Z"/><path class="cls-1" d="M149.2808,38.234c1.5709-5.7372,4.9329-10.4746,8.8185-14.8927,1.4389-1.6361,3.0677-3.1542,4.3392-4.9285a8.3824,8.3824,0,0,0,1.2779-2.3337,5.4923,5.4923,0,0,0,.2605-1.1724q-.3249-1.3451,1.1349-1.7286l-1.2366.7021.7232,1.0391,1.68-.9781-.41-1.2182a1.0059,1.0059,0,0,0-2.0106,0,3.6848,3.6848,0,0,0,.9991,2.64c.7082.8588,1.8265-.1041,1.68-.9781a2.773,2.773,0,0,0-2.1274-2.4434,1.0173,1.0173,0,0,0-1.2366.7022c-.8892,2.9583,2.7138,5.5081,4.9452,3.0105,2.3994-2.6857-.6166-6.3149-3.7646-5.5544a3.0313,3.0313,0,0,0-2.4294,2.8217c-.439,2.3206-.393,3.5529-2.0011,5.4285-1.0457,1.22-2.1842,2.3629-3.2456,3.57-4.1022,4.6644-7.6767,9.7218-9.3355,15.78a1.0061,1.0061,0,0,0,1.9387.5345Z"/><path class="cls-1" d="M157.1582,22.9a23.2737,23.2737,0,0,1-2.82-8.196,4.2548,4.2548,0,0,0-.44-1.6477c-.17-.2572-.538-.3875-.6744-.6318a.502.502,0,0,0-.2218-.1293q-.48-.1325.0775-.7676c-.5353-1.176-2.2686-.1552-1.736,1.0148a1.8654,1.8654,0,0,0,3.5733-.6955,2.4988,2.4988,0,0,0-3.7981-2.2,2.2624,2.2624,0,0,0-1.03,2.1951c.1082,1.1954.838,1.41,1.5587,2.1415.632.641.6449.7287.8168,1.8249a22.9176,22.9176,0,0,0,.51,2.4751,22.7218,22.7218,0,0,0,2.4483,5.6315,1.006,1.006,0,0,0,1.736-1.0148Z"/><path class="cls-1" d="M157.66,24.5924a21.7713,21.7713,0,0,1,5.638-1.5506c2.0309-.156,2.6957,1.0181,4.1253,2.122,1.3737,1.0608,3.2411,1.06,4.0018-.6962.5495-1.2686.3428-4.0411-1.4053-4.2154-1.9983-.1993-2.6181,2.3992-2.7812,3.885-.1258,1.1458,1.684,1.334,1.9746.2672a3.6885,3.6885,0,0,0,.1838-1.65c-.0682-1.2871-2.0792-1.2952-2.0105,0l-.112,1.1159,1.9746.2673q1.07-1.3193-.33-1.0281a.67.67,0,0,1-.943-.2881c-.3324-.2034-.5609-.6472-.8933-.8942a4.8416,4.8416,0,0,0-2.3747-.8927c-2.5167-.2884-5.2786.7683-7.5824,1.62-1.2033.4447-.6829,2.3886.5345,1.9387Z"/><path class="cls-1" d="M102.1136,42.7886c2.265-5.05,8.432-4.1219,12.78-5.8674a9.604,9.604,0,0,0,3.8675-2.6719c.5376-.6409,2.5212-3.5158.9271-3.9049-1.2567-.3067-1.7929,1.6316-.5345,1.9387,4.891,1.1938,1.5675-6.71-.6253-2.8143-.2917.5183-.16,1.2152-.3428,1.7637a6.4485,6.4485,0,0,1-3.3,3.5135c-2.171,1.0969-4.7184,1.1989-7.047,1.7534-3.1749.7561-6.0686,2.17-7.4608,5.2745-.5251,1.1708,1.2069,2.1945,1.736,1.0147Z"/><path class="cls-1" d="M103.7276,39.7013c2.33-3.3094,6.7631-4.97,9.7428-7.6338,1.33-1.1889,3.2065-4.7351.4229-5.41a1.0361,1.0361,0,0,0-1.1352.4619c-.7423,1.1706-.6919,2.7772.846,3.1313a1.0487,1.0487,0,0,0,1.1353-.462l.2192-.3069a.9857.9857,0,0,0,0-1.0147l-.1808-.2918c-.68-1.0978-2.42-.0894-1.736,1.0147l.1808.2918V28.4672l-.2192.3068,1.1352-.462.3555-.1777-1.1353.462c.58.14-2.4526,2.9029-2.7682,3.1334-1.2338.9014-2.4749,1.7931-3.7123,2.6895a19.4558,19.4558,0,0,0-4.8867,4.2673c-.7463,1.06.9961,2.0658,1.736,1.0148Z"/><path class="cls-1" d="M103.4668,39.5031c.7663-2.573,2.8077-4.4451,3.96-6.8309.6019-1.2462,1.8258-3.6191,1.0993-5.007a1.6789,1.6789,0,0,0-2.6546-.3506c-1.1881,1.2331-.0917,2.7358.9646,3.5061,1.0467.7633,2.051-.98,1.0148-1.736l-1.3113.1613-.1866.68a17.1689,17.1689,0,0,0-.6622,1.7313,18.2568,18.2568,0,0,1-1.6248,2.6557,16.058,16.058,0,0,0-2.5381,4.6555,1.0062,1.0062,0,0,0,1.9388.5345Z"/><path class="cls-1" d="M97.1971,63.3722a51.1658,51.1658,0,0,0,2.6,10.1719c.5238,1.4613,1.0812,2.9115,1.556,4.39.2949.9184.5659,1.8431.7861,2.7825q.146.5591.2406,1.1289.4926,1.4225-1.2672,2.2842l1.8733-.5073-.3391-.7547c-.5294-1.1782-2.2625-.157-1.736,1.0148l.339.7546c.4384.9758,1.8283.3978,1.8733-.5074.0782-1.5713-1.6966-4.3033-3.229-2.16-1.22,1.706.91,4.9334,2.9989,4.4574,3.1617-.7207,1.2684-6.1226.7426-7.92-1.5471-5.29-3.7194-10.1585-4.5-15.6685-.1807-1.2759-2.1182-.7331-1.9387.5344Z"/><path class="cls-1" d="M97.5829,63.6934c1.3965,4.0731,4.2843,6.9774,6.72,10.4229,1.0888,1.54,1.7877,3.2594,2.7844,4.8435a10.8669,10.8669,0,0,0,1.4451,1.85,8.812,8.812,0,0,0,.9825.857q1.3958.3914.6227,1.61c.175,1.2761,2.1125.7328,1.9388-.5345a2.1958,2.1958,0,0,0-1.6636-2.1853,1.0042,1.0042,0,0,0-.9781.2586c-3.5083,3.3023,4.7054,4.7825,3.2393,1.0228-.516-1.3233-2.458-2.1316-3.2853-3.172-1.14-1.4343-1.763-3.1922-2.7683-4.7232-2.3822-3.6276-5.6612-6.5912-7.0991-10.7848-.4172-1.2169-2.36-.6942-1.9387.5345Z"/><path class="cls-1" d="M98.6894,64.5545a58.2761,58.2761,0,0,1,10.9689,7.7382c1.415,1.2784,2.6373,2.7584,4.0367,4.0406.1078.0988,1.47,1.1614,1.5571,1.2539,1.4884,1.59.8244-1.68.792,1.7738a1.0059,1.0059,0,0,0,2.0106,0c.0111-1.1846-.265-2.6427-1.7215-2.8423a1.7628,1.7628,0,0,0-2.0017,1.4739c-.469,2.4247,3.0287,3.8034,4.49,1.9619a2.672,2.672,0,0,0,.1529-2.9046,3.1353,3.1353,0,0,0-1.0472-.8846,6.319,6.319,0,0,1-2.81-1.2536q-.7659-.8484-1.5656-1.665A59.61,59.61,0,0,0,99.7042,62.8184c-1.1335-.6259-2.1489,1.11-1.0148,1.7361Z"/><path class="cls-1" d="M170.32,38.3884c-5.1154.6649-7.67,3.9191-7.8266,9.0688-.1632,5.3633,3.7851,7.3991,8.6209,7.24,4.842-.16,7.0229-3.6355,6.8845-8.2959-.1395-4.6946-3.6582-8.68-8.5575-7.8256-1.2723.2219-.733,2.16.5344,1.9387,4.6176-.8053,6.5241,4.2048,5.8747,7.9352-.5344,3.0691-2.4761,4.2709-5.531,4.2358-3.5519-.0409-5.9085-1.5154-5.8155-5.2281.0952-3.801,1.9067-6.55,5.8161-7.0583,1.265-.1644,1.2814-2.177,0-2.0105Z"/><path class="cls-1" d="M168.5961,42.3016a4.2934,4.2934,0,0,0-2.2308,3.433c-.1777,1.2408-.337,2.9629.5,4.0143.8806,1.1055,2.6824,1.5194,4.006,1.68a3.2414,3.2414,0,0,0,3.2821-1.3444,5.3138,5.3138,0,0,0-1.4842-7.3875,2.6369,2.6369,0,0,0-3.2672-.0025,9.8059,9.8059,0,0,0-1.984,4.5809,1.0142,1.0142,0,0,0,1.68.9781l2.2512-1.94-1.7161-.7108a12.87,12.87,0,0,1-.6985,2.6974,1.01,1.01,0,0,0,1.8374.7746l1.7932-3.1811-1.8374-.24a11.6972,11.6972,0,0,1,.3295,2.7686,1.01,1.01,0,0,0,1.9746.2673l.5153-1.6951c.3254-1.0706-1.3292-1.8114-1.8374-.7746a4.2357,4.2357,0,0,1-1.7517,1.9124,1.006,1.006,0,0,0,1.0147,1.7361,6.0762,6.0762,0,0,0,2.4731-2.6338l-1.8374-.7746-.5153,1.6951,1.9746.2672a14.002,14.002,0,0,0-.4013-3.3031,1.0163,1.0163,0,0,0-1.8374-.24L169.0365,48.06l1.8374.7747a15.0917,15.0917,0,0,0,.77-3.2319c.1051-.9459-1.129-1.2167-1.7161-.7108l-2.2511,1.94,1.68.9781c.1885-.94.8093-3.81,2.044-3.5,1.7307.4342,1.8478,2.93,1.3024,4.2063-.5745,1.344-3.1666,1.0882-4.12.1249-.4618-.4664-.3232-1.5489-.2835-2.1377a2.6615,2.6615,0,0,1,1.3111-2.4652c1.1558-.5822.139-2.3173-1.0147-1.7361Z"/><path class="cls-1" d="M164.553,42.922c3.9525-1.26,7.0467-2.3685,11.2117-1.0613A1.0158,1.0158,0,0,0,176.9,40.384c-3.2278-5.4845-10.9537-3.3719-13.7773,1.3087a1.0061,1.0061,0,0,0,1.7361,1.0148c2.0284-3.3624,7.8454-5.4882,10.3052-1.3088l1.1352-1.4767c-4.4932-1.41-7.989-.3073-12.2807,1.0613-1.2281.3916-.7032,2.3334.5345,1.9387Z"/><path class="cls-1" d="M179.9365,43.77q-.1038,3.2274.0391,6.4518c.0571,1.2887,2.068,1.2958,2.0106,0q-.1431-3.2261-.0391-6.4518c.0416-1.2942-1.969-1.2927-2.0106,0Z"/><path class="cls-1" d="M181.3071,48.3194a20.2517,20.2517,0,0,0,6.5268,1.62c1.29.0995,1.2839-1.9115,0-2.0106a17.2711,17.2711,0,0,1-5.5121-1.3459c-1.1759-.5057-2.2012,1.2258-1.0147,1.7361Z"/><path class="cls-1" d="M167.483,32.8628a9.0585,9.0585,0,0,1,7.031-3.9525c3.4809-.2857,5.46,1.3942,6.3958,4.614a1.0061,1.0061,0,0,0,1.9387-.5345c-1.0419-3.5859-3.3611-6.196-7.282-6.1633a11.4829,11.4829,0,0,0-9.8195,5.0216c-.7318,1.071,1.01,2.0779,1.736,1.0147Z"/><path class="cls-1" d="M174.4055,28.6983a6.0439,6.0439,0,0,0,1.8826,2.5736,3.5674,3.5674,0,0,0,2.94.43,1.0157,1.0157,0,0,0,.4436-1.68,7.29,7.29,0,0,0-3.2766-1.9845c-1.0645-.3108-1.8327,1.3577-.7747,1.8373l.7975.3615c1.1694.53,2.1927-1.202,1.0147-1.736l-.7974-.3615-.7746,1.8374a5.2552,5.2552,0,0,1,2.3895,1.4675l.4436-1.68c-1.4155.3883-2.0477-1.016-2.5524-2.08-.5542-1.1684-2.2881-.1493-1.736,1.0147Z"/><path class="cls-1" d="M169.8534,30.1455c.586.5915,1.8336.829,2.21,1.5388l.1572-1.2182c.2659-.2594-.1054-.25-.3586-.394a5.3736,5.3736,0,0,1-.7385-.542,2.348,2.348,0,0,0-1.2285-.681c-1.0055-.1324-1.9451.81-2.7232,1.3294a1.0151,1.0151,0,0,0,0,1.7361c.9259.4173,1.7823.0564,2.7055.3346a6.2,6.2,0,0,0,2.6712.6488c1.2665-.16,1.2825-2.1723,0-2.0105a4.9934,4.9934,0,0,1-2.1368-.577,3.688,3.688,0,0,0-.9941-.179c-.3488-.01-.905.1939-1.231.047v1.7361c.3361-.2246,1.3179-1.043,1.5457-1.0078-.1169-.018.3522.3691.4242.4253a5.8385,5.8385,0,0,0,.8364.56c.87.4663,1.8661.76,2.6493-.0041a1.029,1.029,0,0,0,.1572-1.2182c-.5758-1.0865-1.7339-1.148-2.5241-1.9457a1.0058,1.0058,0,0,0-1.4217,1.4216Z"/><path class="cls-1" d="M146.8339,40.1268c1.5481,3.7714,2.8271,14.7716,9.3142,13.8313,2.4853-.36,3.0791-4.8831,3.4946-6.8193a65.8055,65.8055,0,0,0,1.0706-12.0849,1.0059,1.0059,0,0,0-2.0105,0c-.0632,2.3791-.1167,4.7657-.3481,7.1359-.2356,2.4135-.4738,6.7252-1.9808,8.7806q-.0077,1.373-1.1024.8759a4.8227,4.8227,0,0,1-2.1536-1.39,8.8829,8.8829,0,0,1-1.9857-3.307c-.9638-2.467-1.35-5.0974-2.36-7.5568-.4846-1.1806-2.4305-.6637-1.9387.5345Z"/><path class="cls-1" d="M142.2153,41.899c.1329.4981-.3355,1.1761-.4153,1.6833a2.1566,2.1566,0,0,0,.6127,1.9471c.9341.8761,2.9986,1.2627,3.7927.0652a3.671,3.671,0,0,0-.1-4.27,2.8737,2.8737,0,0,0-3.6811-.6173c-1.0794.7045-.073,2.446,1.0147,1.736a.8693.8693,0,0,1,1.2417.3345,1.49,1.49,0,0,1,.1187,1.0031,4.0692,4.0692,0,0,1-.1653.519q-.2162.3374-.0308.1133.1743-.12-.0257-.0992c-.1487-.1493-.6915-.0118-.81-.2575-.0613-.1277.0643-.3674.1054-.496a3.6693,3.6693,0,0,0,.28-2.1962,1.0061,1.0061,0,0,0-1.9387.5345Z"/><path class="cls-1" d="M138.6366,49.8621a39.9486,39.9486,0,0,1-.95,6.242c-.1692,1.008-.5914,2.4217.2,3.25,1.6034,1.6782,5.37-.4386,6.5327-1.7762,1.8307-2.1063,1.6491-4.9853.25-7.2938-1.1438-1.8877-3.7957-3.1232-5.4549-1.0984-.8137.993.6007,2.4235,1.4217,1.4217,1.6185-1.9752,3.2284,2.3916,3.1472,3.6188a4.1185,4.1185,0,0,1-3.4571,3.4832c-1.2662.2979-.9352.4882-.76-.7283.132-.9195.3534-1.8245.5374-2.7343a23.1186,23.1186,0,0,0,.5434-4.385,1.0059,1.0059,0,0,0-2.0106,0Z"/><path class="cls-1" d="M132.1294,42.1252a11.65,11.65,0,0,0-3.0218,7.07c-.0773,2.0764.5748,5.4309,2.556,6.5726,1.9607,1.13,3.0492-1.0924,3.3425-2.6672a15.9042,15.9042,0,0,0,.2093-4.5165c-.1823-1.65-.9467-3.15-1.0362-4.8149-.0692-1.2869-2.08-1.295-2.0106,0a17.1663,17.1663,0,0,0,.7474,3.56c.2684,1.0119.8958,4.7166.0859,5.6571-1.3872,1.6108-1.9068-3.2608-1.8838-3.7914a9.4541,9.4541,0,0,1,2.4329-5.6481c.83-.9827-.5852-2.4118-1.4216-1.4217Z"/><path class="cls-1" d="M118.6254,40.7338a30.6239,30.6239,0,0,0-1.2377,13.2944c.4083,3.0227,1.05,5.8235,4.6216,5.486,2.8943-.2735,4.1283-1.9443,4.3021-4.7033a49.7764,49.7764,0,0,1,3.6695-15.61c.469-1.2066-1.4742-1.7294-1.9387-.5345A64.113,64.113,0,0,0,125,47.778c-.5112,2.28-.1519,4.8558-.6988,7.0329q-.5772,2.98-3.0815,2.7415a1.595,1.595,0,0,1-1.4954-1.7426c-.6013-1.2324-.5028-3.0521-.5662-4.39a29.2538,29.2538,0,0,1,1.4064-10.1517c.3859-1.2381-1.5543-1.7677-1.9387-.5345Z"/><path class="cls-1" d="M108.644,41.86l-.0069,2.71a5.3963,5.3963,0,0,0,.1438,1.9721c.4226,1.056,2.35,1.6863,3.4,1.57,1.1758-.13,2.1482-1.7518,2.7048-2.6654a5.1849,5.1849,0,0,0,.6408-4.4564c-.429-1.2113-2.3722-.69-1.9387.5344a3.12,3.12,0,0,1-.3414,2.74c-.2208.3876-.9394,1.6891-1.333,1.8168a8.8631,8.8631,0,0,1-1.2891-.3946,4.1461,4.1461,0,0,1,.0233-.9092l.0075-2.918a1.0059,1.0059,0,0,0-2.0106,0Z"/><path class="cls-1" d="M95.1989,49.7009c.5432,1.3066.8539,3.2646-.131,4.4794l-.3018.5289a2.9687,2.9687,0,0,1-.7733-1.5215,9.1128,9.1128,0,0,1-.1933-2.08,1.0059,1.0059,0,0,0-2.0106,0,2.2563,2.2563,0,0,1-1.7457,2.0056c-2.0074.2736-2.2345-1.52-2.4371-2.8115a23.7023,23.7023,0,0,1-.0918-4.7368c.0579-1.2936-1.9528-1.2907-2.0105,0-.1216,2.7163-.6,7.8988,2.4942,9.33,2.707,1.2521,5.5818-1.1081,5.8015-3.7873H91.7889c.0261,1.6619.6961,6.4968,3.436,5.7,1.1155-.3242,1.8659-1.9752,2.17-2.9618a6.8307,6.8307,0,0,0-.2575-4.68c-.49-1.1776-2.4358-.661-1.9387.5345Z"/><path class="cls-1" d="M90.7239,44.847l.832,2.1194a3.4137,3.4137,0,0,0,.7941,1.4688c.9628.8147,2.2435-.1494,3.0206,1.1089.6787,1.0989,2.4185.09,1.7361-1.0147a3.6078,3.6078,0,0,0-2.7406-1.7671,3.31,3.31,0,0,0-.7563.0134q.2019.4287.0037-.041l-.1189-.3028q-.417-1.0593-.832-2.1194c-.4675-1.1909-2.4126-.6724-1.9387.5345Z"/><path class="cls-1" d="M71.9366,46.7368a10.85,10.85,0,0,0,1.7265,7.8137c.7232,1.064,2.466.0592,1.7361-1.0148a8.78,8.78,0,0,1-1.5239-6.2644c.1824-1.2656-1.7546-1.8122-1.9387-.5345Z"/><path class="cls-1" d="M77.7217,45.7892c.1573,2.013.7357,5.6306-.6714,7.31-.8259.9854.5892,2.4149,1.4217,1.4217,1.9121-2.2815,1.476-5.97,1.26-8.7312-.1-1.2815-2.1115-1.2923-2.0105,0Z"/><path class="cls-1" d="M52.0155,45.3383c-.2545,2.1856-1.0753,4.9873.2537,6.9636.7183,1.0682,2.4607.0629,1.736-1.0148-1.0159-1.5107-.1747-4.27.0209-5.9488.1493-1.2828-1.8624-1.272-2.0106,0Z"/><path class="cls-1" d="M60.966,45.803a26.8433,26.8433,0,0,1-.0113,3.3668c-.0624.88.0054,2.502-.7334,3.1153-.9965.8272.4326,2.2427,1.4217,1.4217a4.2711,4.2711,0,0,0,1.1638-2.99,26.6227,26.6227,0,0,0,.17-4.9135c-.07-1.2868-2.0812-1.295-2.0106,0Z"/><path class="cls-1" d="M39.0253,41.252a14.853,14.853,0,0,0,.6878,6.0279c.4014,1.224,2.3435.7,1.9387-.5345a13.3905,13.3905,0,0,1-.6159-5.4934c.1182-1.2879-1.8931-1.28-2.0106,0Z"/><path class="cls-1" d="M46.129,43.8206a4.7876,4.7876,0,0,1-.9392,4.04c-.78,1.0321.9646,2.035,1.736,1.0147a6.7205,6.7205,0,0,0,1.1419-5.5891c-.2844-1.2617-2.2233-.7277-1.9387.5345Z"/><path class="cls-1" d="M30.3,37.7991c-.0627,1.639.0637,4.8674,2.0021,5.5,2.3038.7514,2.9233-2.7757,2.72-4.3015-.1685-1.2638-2.1812-1.28-2.0105,0a4.29,4.29,0,0,1-.0258,1.5359c-.0572.2518-.29.6062-.3157.8463l.2706-.0049a1.0661,1.0661,0,0,1-.152-.2611,11.5662,11.5662,0,0,1-.478-3.3143c.05-1.294-1.9611-1.2918-2.0105,0Z"/><path class="cls-1" d="M28.6222,37.0288a2.9787,2.9787,0,0,0-.7024.6731c-.0333.0438-.1626.2737-.23.2957-.1112.0363.0842.0314-.0009,0-.383-.1412-.4172-.982-.4674-1.3014a1.0127,1.0127,0,0,0-1.2366-.7021,1.03,1.03,0,0,0-.7022,1.2366,3.0249,3.0249,0,0,0,1.7744,2.6649,1.9571,1.9571,0,0,0,1.6118-.1244c.4307-.2486.5877-.7424.9683-1.0064,1.0558-.7326.0518-2.4762-1.0148-1.7361Z"/><path class="cls-1" d="M14.298,36.8572c.421.6921.1105,1.6874.3923,2.46a2.1956,2.1956,0,0,0,1.9253,1.55,1.0128,1.0128,0,0,0,1.0053-1.0052,1.0269,1.0269,0,0,0-1.0053-1.0053c.0924.01.1472.112.071,0a.9637.9637,0,0,1-.1392-.3323,3.4878,3.4878,0,0,1-.0523-.8,3.7006,3.7006,0,0,0-.4611-1.8817c-.6715-1.1039-2.4109-.0947-1.736,1.0147Z"/><path class="cls-1" d="M20.3149,35.7909a12.21,12.21,0,0,1,.4174,3.8c-.0571,1.2937,1.9536,1.2909,2.0106,0a14.0721,14.0721,0,0,0-.4893-4.3343,1.0061,1.0061,0,0,0-1.9387.5344Z"/><path class="cls-1" d="M190.1376,44.0472c7.6862,1.0082,13.7956-2.5011,19.0631-7.7855,2.7176-2.7264,5.2374-5.6344,8.3146-7.9738a42.03,42.03,0,0,1,11.8181-6.1508c7.5508-2.5991,16.7832-4.7971,24.6073-2.3437A24.128,24.128,0,0,1,269.71,35.9654a1.0062,1.0062,0,0,0,1.9388-.5345,26.1227,26.1227,0,0,0-12.5975-15.629c-7.196-3.9074-14.9869-3.3022-22.7513-1.6556-8.0706,1.7115-15.9852,4.83-22.2177,10.3641-7.3519,6.5282-12.7706,14.992-23.9448,13.5263-1.279-.1678-1.2667,1.8444,0,2.01Z"/><path class="cls-1" d="M188.1483,48.2884c2.3462,6.4611,8.5006,10.07,15.0234,11.3011,4.5218.8535,9.1641.5569,13.7307.368,3.7633-.1557,12.1925-1.5764,14.1136,2.742.525,1.18,2.258.1583,1.7361-1.0147-1.0689-2.4028-3.4018-3.2882-5.8766-3.6458-4.5478-.6572-9.2809-.0671-13.8459.0668-8.5008.2493-19.5708-1.0664-22.9425-10.3519-.4382-1.2067-2.3819-.6858-1.9388.5345Z"/><path class="cls-1" d="M255.3921,98.0807q-5.9206-3.9612-11.6039-8.2546c-1.0324-.78-2.0354.965-1.0147,1.7361q5.6839,4.2939,11.6039,8.2546c1.0784.7215,2.086-1.0193,1.0147-1.7361Z"/><path class="cls-1" d="M238.0414,81.8673c.8084-2.9749-.226-5.5315-1.4244-8.2453-1.0078-2.2822-2.2212-4.6228-1.74-7.2081.468-2.5161,2.3692-4.8492,3.7337-6.9527,1.8334-2.8263,4.9742-6.1857,4.4211-9.8339a12.715,12.715,0,0,0-1.9966-4.359,14.9572,14.9572,0,0,1,2.1943-18.7471c1.4686-1.3737,4.3337-2.6048,5.267.1248a13.933,13.933,0,0,1,.2721,2.5464,7.1316,7.1316,0,0,0,1.34,3.6184c2.1363,2.8346,6.0312,3.983,8.5661,6.44a20.8906,20.8906,0,0,1,6.19,12.86c.1354,1.2734,2.1474,1.2873,2.01,0a23.169,23.169,0,0,0-4.49-11.68,22.2113,22.2113,0,0,0-4.3644-4.3784c-2.0943-1.5777-5.4318-2.6482-6.7216-5.06-1.4288-2.6716.23-7.5427-3.8641-8.3556-3.4836-.6916-6.7972,3.2738-8.3379,5.8867a17.5787,17.5787,0,0,0-2.208,11.404,16.4169,16.4169,0,0,0,1.85,5.4253c.8942,1.6508,2.4369,3.2963,2.3732,5.3224a8.4345,8.4345,0,0,1-1.6314,3.7534c-2.5044,4.0167-6.98,8.65-6.7254,13.7327.2307,4.6033,4.6221,8.4812,3.3474,13.1716a1.0062,1.0062,0,0,0,1.9388.5345Z"/><path class="cls-1" d="M242.85,34.7006c.9917,6.941,5.96,12.283,7.5389,19.0142,1.3674,5.83-1.1074,12.9544,2.8956,17.934.8107,1.0085,2.2252-.4221,1.4216-1.4217-2.4054-2.9923-1.61-7.0688-1.6587-10.6119a27.4827,27.4827,0,0,0-1.3363-8.5546c-1.9922-5.8088-6.0366-10.6954-6.9224-16.8945-.1823-1.2758-2.12-.7331-1.9387.5345Z"/><path class="cls-1" d="M257.3072,82.7605a39.2141,39.2141,0,0,0,6.6735,10.2c.8676.9636,2.2858-.4619,1.4217-1.4217a37.546,37.546,0,0,1-6.3592-9.793c-.53-1.1782-2.2626-.157-1.736,1.0148Z"/><path class="cls-1" d="M176.5072,110.8028c-3.1745,2.6486-2.4312,7.3123.0918,10.1653,3.3089,3.7419,8.5452,4.1319,13.043,2.5748,6.0567-2.0969,10.4776-7.0941,15.7436-10.5172,5.5212-3.5891,11.2833-6.5646,16.51-10.6138A120.6745,120.6745,0,0,1,239.7476,90.73c3.0593-1.6081,6.1684-3.1191,9.2778-4.6273,2.9668-1.439,6.2961-3.7454,9.4736-4.5906,2.65-.705,5.4211,1.9941,8.1826,2.4564a16.8746,16.8746,0,0,0,7.4748-.514c6.0548-1.7594,11.1772-6.1332,16.1573-9.819,1.5241-1.1279,3.4527-2.4748,3.1222-4.6554a2.6007,2.6007,0,0,0-2.742-2.2907c-2.8758.0206-6.4975,2.806-9.0143,4.0352l-11.4875,5.6105,1.4767.6008c-1.7315-4.5187,19.0212-9.9678,13.8461-14.8859-1.8369-1.7457-4.758.3657-6.438,1.2623l-13.24,7.0663,1.4767.6008c-.7638-2.8181,7.3611-5.5725,9.0664-6.6172a12.2168,12.2168,0,0,0,5.1489-5.4935,1.0415,1.0415,0,0,0-.1572-1.2182c-1.8794-1.71-3.9917-.9376-6.1156-.0268-4.4132,1.8926-8.7859,3.8866-13.1774,5.8293l1.3754,1.3754c1.9088-4.2485,7.8977-4.9337,11.36-7.6007,1.7816-1.3723,4.8312-4.8748,3.2077-7.3366-1.79-2.714-7.8509.5723-9.9611,1.48a32.9451,32.9451,0,0,0-12.1435,8.4341,15.0436,15.0436,0,0,0-2.9458,5.1083c-.7163,2.2564.1672,4.3712-.23,6.5412-.6521,3.5649-4.4064,4.7833-7.3036,6.1676-3.0546,1.46-6.1859,2.75-9.3388,3.98-10.301,4.0193-20.8847,7.463-30.25,13.4829a79.3789,79.3789,0,0,1-16.8745,8.6c-5.2493,1.8525-10.3757,3.72-14.8108,7.1777-1.0194.7947.4125,2.2083,1.4216,1.4217,7.659-5.9709,17.863-7.0456,26.0773-12.0891,4.2252-2.5943,8.233-5.4094,12.69-7.62,4.76-2.3613,9.7216-4.2768,14.6879-6.1518,4.2393-1.6006,8.4908-3.1709,12.6643-4.9389,3.6155-1.5316,9.2418-3.2345,11.8721-6.2888a5.321,5.321,0,0,0,1.1749-3.7408c-.0319-2.6245-.5064-4.7072.6658-7.2268,2.1894-4.7055,7.1059-7.9235,11.6078-10.171a37.322,37.322,0,0,1,4.4422-1.8692c.6367-.2207,3.8426-1.5664,4.3489-1.2185,1.3477.9262-.8089,3.401-1.4511,4.0157a13.9445,13.9445,0,0,1-3.0147,2.0713c-3.4813,1.8938-7.87,2.8336-9.6334,6.7574a1.0149,1.0149,0,0,0,1.3754,1.3754l8.021-3.5482c1.9491-.8622,6.9646-4.27,8.8355-2.5686l-.1572-1.2183c-1.7841,4.0493-5.905,5.5686-9.6013,7.44-2.52,1.2763-5.7108,2.9205-4.8166,6.2194a1.0179,1.0179,0,0,0,1.4767.6008l9.93-5.3c1.3924-.7431,3.4546-2.3957,4.9651-2.65q.621-.6417,1.182.1149,1.3611.4686-.196.9882a15.6208,15.6208,0,0,1-2.9467,1.9672c-2.7207,1.7816-5.7967,3.3779-8.27,5.4884-1.4965,1.2768-2.5332,2.7956-1.7856,4.7465a1.0253,1.0253,0,0,0,1.4767.6008l14.9338-7.2936c.4933-.2409,3.0094-1.8708,3.4462-1.6831.6626.2848-.0956,2.5338-.2878,2.8051a6.9273,6.9273,0,0,1-1.4256,1.04c-2.063,1.5049-4.1062,3.0441-6.2205,4.4767-4.317,2.9252-9.5352,5.6414-14.926,4.5357-3.7765-.7746-5.3711-3.8528-9.2427-2.1757a192.996,192.996,0,0,0-27.7122,14.39c-4.1556,2.6818-7.898,5.8834-11.8946,8.7825-4.2984,3.118-9.0656,5.45-13.5065,8.341-4.6056,2.998-8.49,7.198-13.4815,9.5753-3.2159,1.5318-7.2744,2.3278-10.5562.5386-3.07-1.674-5.74-6.396-2.4044-9.179.9946-.83-.4343-2.2455-1.4216-1.4217Z"/><path class="cls-1" d="M240.6659,81.6123a12.2288,12.2288,0,0,1,4.069,3.3888c.7953,1.019,2.209-.4129,1.4217-1.4216a13.5772,13.5772,0,0,0-4.4759-3.7032c-1.1475-.5938-2.1656,1.1406-1.0148,1.736Z"/><path class="cls-1" d="M272.2509,50.4218a67.9115,67.9115,0,0,1,16.2347-36.2772h-1.4217a89.7775,89.7775,0,0,1,18.5086,36.7986c3.438,14.9742,1.2322,29.2951-2.14,44.0546-.2878,1.26,1.65,1.7974,1.9387.5345,3.4546-15.118,5.661-29.79,2.1405-45.1236a91.9722,91.9722,0,0,0-19.0257-37.6858,1.0094,1.0094,0,0,0-1.4217,0A70.2716,70.2716,0,0,0,270.24,50.4218c-.159,1.2809,1.853,1.2693,2.0106,0Z"/><path class="cls-1" d="M281.5043,81.1226c3.2256,2.1554,5.1071,5.7041,8.3992,7.8076,3.296,2.1061,7.12,3.0567,9.7275,6.145.8357.99,2.2518-.4384,1.4217-1.4217-2.5117-2.9752-6.0673-4.1-9.3447-5.99-3.6722-2.1183-5.6977-5.9438-9.1889-8.2768-1.0788-.7209-2.0865,1.02-1.0148,1.7361Z"/><path class="cls-1" d="M275.91,71.714l.4778.4777a1.0052,1.0052,0,0,0,1.4216-1.4216l-.4777-.4778A1.0053,1.0053,0,0,0,275.91,71.714Z"/><path class="cls-1" d="M272.12,65.3247l.4854.9516a1.0054,1.0054,0,0,0,1.7361-1.0147l-.4854-.9516a1.0054,1.0054,0,1,0-1.7361,1.0147Z"/><path class="cls-1" d="M284.6961,28.4892a90.2244,90.2244,0,0,0,8.3049,33.75c2.7055,5.9455,5.3875,11.7715,5.9943,18.3539.487,5.2845.3949,10.4922,2.8859,15.3252.593,1.15,2.3285.1346,1.736-1.0148-2.6227-5.0886-2.0966-10.7665-2.8213-16.2748-.7087-5.3864-2.8357-10.3422-5.0707-15.2449-5.112-11.2132-8.4838-22.5119-9.0186-34.8948-.0556-1.2889-2.0665-1.2959-2.01,0Z"/><path class="cls-1" d="M270.49,31.21a8.27,8.27,0,0,1,4.4568-1.7449c1.28-.1058,1.2916-2.1173,0-2.0106a10.675,10.675,0,0,0-5.8785,2.3338c-1.0141.8024.4171,2.2165,1.4217,1.4217Z"/><path class="cls-1" d="M297.6464,26.9086a27.5839,27.5839,0,0,1,9.76.8741,1.0062,1.0062,0,0,0,.5344-1.9388,29.186,29.186,0,0,0-10.2946-.9459c-1.2793.11-1.291,2.1219,0,2.0106Z"/><path class="cls-1" d="M302.6684,34.5823c1.6941-2.2122,3.2753-4.8068,5.2885-6.7349,1.4864-1.4237,3.5772-1.8866,4.9932-3.42.8768-.9494-.5415-2.3747-1.4217-1.4217-1.5369,1.6642-3.8786,2.1517-5.4243,3.8771-1.8692,2.0864-3.47,4.462-5.1718,6.6845-.7863,1.0268.9592,2.0292,1.7361,1.0148Z"/><path class="cls-1" d="M320.1015,66.4305a69.0673,69.0673,0,0,1-10.3263-21.0767l-1.4767,1.1352,8.49,6.5181a1.0127,1.0127,0,0,0,1.4768-.6008c.8248-2.7716-.162-5.3671-.73-8.1054a88.4282,88.4282,0,0,1-1.62-12.85,233.0313,233.0313,0,0,1,.2059-23.4267l-1.8733.5074a77.1231,77.1231,0,0,1,12.8855,34.7505,1.006,1.006,0,0,0,2.0106,0,36.0315,36.0315,0,0,1,1.7266-9.5063,46.3437,46.3437,0,0,1,4.5811-8.395q4.6761-7.4126,9.7674-14.5488l-1.8374-.24c2.0634,5.6782-.1091,13.4179-.9406,19.2222q-1.3067,9.12-3.0623,18.1666a1.01,1.01,0,0,0,1.8374.7746,25.6142,25.6142,0,0,1,13.19-10.4477A39.2333,39.2333,0,0,1,364.63,36.1517c1.1944-.1014,2.3935-.1553,3.5918-.1791q1.1988-.0223,2.3976-.0015,1.6652.6435.8331,1.9942c-.0844,2.3356-1.8339,5.13-2.93,7.1816a38.5685,38.5685,0,0,1-4.98,7.214,39.018,39.018,0,0,1-12.5262,9.458c-1.1654.5612-.1468,2.2955,1.0147,1.736A40.6809,40.6809,0,0,0,367.02,51.2379a40.2681,40.2681,0,0,0,5.0511-8.9477c.6722-1.655,2.7957-5.72,1.6251-7.4768-1.2316-1.8482-6.1124-.8631-7.8707-.7575a42.8845,42.8845,0,0,0-11.3894,2.1192A27.8981,27.8981,0,0,0,339.48,47.7409l1.8373.7746q1.9877-10.3406,3.4265-20.7733c.76-5.5726,2.56-12.2262.5764-17.6844a1.0207,1.0207,0,0,0-1.8374-.24c-3.8573,5.4336-7.6148,10.9592-11.0815,16.6521a36.5344,36.5344,0,0,0-5.2681,16.8128h2.0106a79.2579,79.2579,0,0,0-13.16-35.7653,1.0141,1.0141,0,0,0-1.8733.5074c-.3138,7.3822-.6241,14.7787-.2724,22.1655.1541,3.2383.4364,6.4709.8961,9.6807.5177,3.6148,2.6459,8.4609,1.5923,12.001l1.4768-.6008-8.49-6.518c-.7188-.5519-1.7045.3582-1.4767,1.1353a70.6769,70.6769,0,0,0,10.529,21.5569c.75,1.04,2.4947.0374,1.736-1.0147Z"/><path class="cls-1" d="M323.924,21.5338a35.4017,35.4017,0,0,1,9.2849.9791c1.2572.304,1.7936-1.6343.5345-1.9387a37.5052,37.5052,0,0,0-9.8194-1.051,1.0059,1.0059,0,0,0,0,2.0106Z"/><path class="cls-1" d="M343.5207,30.79a71.5213,71.5213,0,0,1,4.6152,7.9929c.5735,1.16,2.3082.1424,1.7361-1.0148a71.5421,71.5421,0,0,0-4.6152-7.9928c-.7145-1.0714-2.4567-.0659-1.7361,1.0147Z"/><path class="cls-1" d="M333.7133,21.9014l.7073.4913a1.0145,1.0145,0,0,0,1.3754-.3607,1.0258,1.0258,0,0,0-.3607-1.3754l-.7072-.4912a1.0145,1.0145,0,0,0-1.3754.3606,1.0257,1.0257,0,0,0,.3606,1.3754Z"/><path class="cls-1" d="M310.0271,103.4856c-4.2409-2.0065-4.1576-6.8215-3.0854-10.7334.4526-1.6513,1.0348-3.2687,1.5787-4.8918.4858-1.45.781-3.5466,1.7412-4.737a5.03,5.03,0,0,1,3.4683-1.5872c.5324.0132,1.0911.3628,1.653.3428a3.7932,3.7932,0,0,0,1.96-.6512c1.76-1.1577,2.5125-3.7019,3.23-5.5493,1.1708-3.0135,1.7491-6.3677,3.1191-9.2775,2.05-4.3552,6.4777-3.1363,10.364-2.9407a16.076,16.076,0,0,0,8.4161-2.09,32.2681,32.2681,0,0,1,4.4888-2.3889c1.428-.4439,1.8149-.7757,2.6684.9089a6.821,6.821,0,0,1,.5031,3.4641c-.07,1.2929,1.9409,1.289,2.0106,0,.1159-2.1448-.45-6.6331-3.14-7.1527-1.435-.2772-3.0911,1.0619-4.2139,1.6608-2.3391,1.2475-4.7258,2.7909-7.3348,3.3868-4.1707.9524-8.6632-1.3869-12.626.8185-3.12,1.7365-3.619,5.4969-4.6119,8.6-.7376,2.3048-1.407,5.1627-2.73,7.2035-1.9248,2.9684-3.2572.9725-5.6284,1.4073-2.7951.5127-3.7951,3.6743-4.5913,6.0036-2.08,6.0853-6.21,16.1753,1.7458,19.9393,1.1633.55,2.1849-1.1824,1.0148-1.736Z"/><path class="cls-1" d="M311.7722,105.2586c-2.13-5.89,4.4382-9.0865,8.5741-11.437a34.7589,34.7589,0,0,0,9.1309-8.0514c6.4076-7.397,13.6415-13.9757,20.8991-20.5188.963-.8683-.4625-2.2865-1.4217-1.4217-4.3317,3.9052-8.6674,7.8109-12.8168,11.9112-3.8967,3.8506-7.3229,8.1032-11.1258,12.029-4.8325,4.9886-18.6241,8.4933-15.1785,18.0232.4365,1.2075,2.38.6865,1.9387-.5345Z"/><path class="cls-1" d="M254.403,99.2453c1.484,2.8716,4.428,3.6545,7.4375,4.069,5.0044.6892,9.8234,1.73,14.7525,2.8148a97.416,97.416,0,0,0,31.7821,1.6619c1.2717-.1416,1.2861-2.1537,0-2.0106a95.0142,95.0142,0,0,1-28.8166-1.0789c-4.3847-.8593-8.6875-2.1157-13.104-2.816-3.3865-.537-8.4913-.1252-10.3155-3.6549-.5942-1.15-2.33-.1341-1.736,1.0147Z"/><path class="cls-1" d="M256.13,100.1846c.0516-5.0379,5.0228-7.0341,9.232-7.9222a81.5966,81.5966,0,0,1,13.4252-1.8989c9.1149-.3684,16.66,3.551,24.3148,8.0194a1.0061,1.0061,0,0,0,1.0148-1.7361c-4.4319-2.587-8.9265-5.2032-13.8336-6.7928a36.9685,36.9685,0,0,0-16.4075-1.0553c-6.9848.9093-19.6582,1.8153-19.7562,11.3859a1.0059,1.0059,0,0,0,2.0105,0Z"/><path class="cls-1" d="M291.1359,106.3107a67.6349,67.6349,0,0,0-8.1854-12c-.84-.987-2.2559.441-1.4217,1.4217a65.2043,65.2043,0,0,1,7.871,11.5927c.6095,1.1419,2.3457.1275,1.7361-1.0148Z"/><path class="cls-1" d="M253.9379,99.92c1.6919,3.5911,5.6913,4.4177,9.2325,5.2043a151.3589,151.3589,0,0,0,17.24,2.79c10.7118,1.1082,21.2442,1.679,31.3261-2.5829,9.5256-4.0268,18.3339-8.2616,25-16.4013a43.0709,43.0709,0,0,1,5.159-5.5862,62.2025,62.2025,0,0,0,5.181-4.3572c3.626-3.8665,3.0367-8.9426,5.1735-13.49.5471-1.1644-1.1856-2.1862-1.736-1.0148-1.8794,4-1.48,8.9346-4.336,12.4518-2.6076,3.2111-6.3838,5.2642-9.0981,8.4333-3.2484,3.7926-6.1706,7.4523-10.3779,10.2656a77.0326,77.0326,0,0,1-11.8232,6.1575c-4.7444,2.0959-9.4815,4.2433-14.7064,4.7236a92.1671,92.1671,0,0,1-14.6831-.1719,146.7041,146.7041,0,0,1-16.1637-2.02c-4.0728-.7412-11.629-1.1238-13.6517-5.417-.551-1.17-2.2849-.15-1.736,1.0148Z"/><path class="cls-1" d="M230.85,65.4573a38.8593,38.8593,0,0,0,1.1132,17.51,1.0062,1.0062,0,0,0,1.9388-.5345,36.5561,36.5561,0,0,1-1.1133-16.4407c.2028-1.2657-1.7343-1.8106-1.9387-.5344Z"/><path class="cls-1" d="M236.3313,92.3256c-.032,5.322,2.6352,9.783,6.1826,13.5787,3.8482,4.1175,7.9836,8.2345,12.0757,12.109,4.164,3.9426,9.0477,5.16,14.5043,6.3859,6.1732,1.3873,12.36,3.0482,18.6314,3.9305,6.6665.9378,12.4974-.2605,19.0208-1.4491,5.4142-.9866,11.1414-.5613,16.1765-3.0976,4.4182-2.2256,7.7366-6.0561,10.9758-9.6866,3.3515-3.7564,7.9274-6.9192,10.4987-11.2535,6.6293-11.1744,10.7229-25.05,8.8973-38.0354-.1793-1.2759-2.1169-.733-1.9387.5345,1.6155,11.4912-1.91,22.81-6.9131,33.0455a23.2014,23.2014,0,0,1-4.3283,6.6524c-1.6265,1.6139-3.4027,3.05-4.9828,4.7171-3.022,3.189-5.734,6.7141-9.1144,9.5466-4.3841,3.6736-9.2274,4.4171-14.7546,4.9481-5.607.5386-11.0568,2.408-16.6973,2.5374-5.811.1334-11.511-1.3114-17.1409-2.5766-5.4505-1.2249-11.7729-1.8747-16.8383-4.3356-4.9379-2.399-8.3034-7.4111-12.2307-11.1069-4.7882-4.5061-10.0561-9.3438-10.0134-16.4444a1.0059,1.0059,0,0,0-2.0106,0Z"/><path class="cls-1" d="M356.8588,128.9168c-.7979,3.134-3.2572,7.6066.8416,9.1276,3.673,1.3629,8.2219,1.596,11.0272-1.514a26.8664,26.8664,0,0,0,3.5076-5.9928l4.7014-9.2285c2.854-5.6021,5.6317-11.2517,8.6124-16.7878,2.9349-5.4509,6.5774-10.3076,9.92-15.4906,2.9841-4.6274,1.2305-6.2157-2.8969-8.9139-3.8994-2.5492-5.9275-4.3353-9.1063-.13-3.2054,4.24-4.7949,9.5041-7.18,14.2065-3.2422,6.393-6.8913,12.67-10.7012,18.74-3.333,5.31-7.1586,10.3176-8.8534,16.4468a1.0061,1.0061,0,0,0,1.9387.5344c1.4825-5.3612,4.6665-9.7684,7.641-14.3786,3.1474-4.8782,6.0117-9.9456,8.8474-15.0094,2.6695-4.767,4.75-9.7191,7.1354-14.6181,1.1436-2.3484,2.8589-7.0733,6.0948-6.1266a15.6467,15.6467,0,0,1,4.2247,2.7619c1.8856,1.69,2.5212,3.2989,1.1194,5.4726-3.0128,4.6719-6.3512,9.03-9.0552,13.908-2.8164,5.0806-5.3713,10.3113-8.0078,15.4865-2.65,5.2017-5.1343,10.5449-7.99,15.6367-1.9592,3.4939-4.6768,4.3728-8.5209,3.5621q-.7558-.1619-1.5016-.3664-1.8234-.9269-.955-2.4914a21.6441,21.6441,0,0,1,1.0948-4.3,1.0061,1.0061,0,0,0-1.9387-.5345Z"/><path class="cls-1" d="M397.8959,86.0174c.9929-5.1085,4.5958-8.7551,6.9349-13.2348,2.4993-4.7863,3.7887-10.072,6.389-14.8531,4.8694-8.9534,11.4736-16.905,14.5385-26.7638.2439-.7847-.7574-1.6647-1.4768-1.1352a100.4754,100.4754,0,0,1-15.3847,9.3863c-1.9267.9426-4.0238,1.6143-5.38,3.36a41.9914,41.9914,0,0,0-3.6818,6.7527c-2.7416,5.3719-5.312,10.8319-8.1848,16.1364-2.72,5.0223-6.5189,9.6154-8.8223,14.818-.5191,1.1725,1.2128,2.1967,1.7361,1.0148,2.1442-4.8432,5.6814-9.1129,8.2453-13.7612,2.719-4.9292,5.1481-10.01,7.6733-15.039a77.3259,77.3259,0,0,1,3.8979-7.49c1.6552-2.5465,3.9745-3.26,6.609-4.5916a101.0681,101.0681,0,0,0,14.3073-8.8509L423.82,30.6312c-3.2575,10.4782-10.6482,18.7921-15.4889,28.4928-2.3442,4.6978-3.5315,9.94-6.2617,14.4253-2.365,3.8852-5.2232,7.3618-6.1118,11.9336-.2457,1.264,1.6917,1.8053,1.9387.5345Z"/><path class="cls-1" d="M366.6953,65.7921A159.26,159.26,0,0,1,379.22,86.4633c.5848,1.1545,2.32.138,1.736-1.0147a159.26,159.26,0,0,0-12.5246-20.6712c-.7459-1.0436-2.49-.0408-1.736,1.0147Z"/><path class="cls-1" d="M387.8242,101.0527c4.902,5.8151,7.3861,13.52,10.36,20.4154l1.3754-1.3754c-2.9863-1.7856-4.3081-6.1532-6.22-8.9365a48.1857,48.1857,0,0,0-6.4713-7.5392c-.9352-.8943-2.3591.5253-1.4217,1.4217a45.1938,45.1938,0,0,1,7.9838,10.0257c1.4709,2.5427,2.5,5.2014,5.114,6.7643.9435.5641,1.7457-.5171,1.3754-1.3754-3.0616-7.0978-5.6306-14.8387-10.6747-20.8223-.835-.99-2.251.4379-1.4217,1.4217Z"/><path class="cls-1" d="M376.7908,93.4984c-4.154-6.9145-8.94-13.7567-12.2624-21.1207L363.66,73.89a60.86,60.86,0,0,0,7.7928.2468c1.2905-.0414,1.2963-2.0522,0-2.0105A60.867,60.867,0,0,1,363.66,71.88c-.8373-.08-1.1469.8943-.868,1.5127,3.3221,7.3639,8.1087,14.2065,12.2625,21.1206a1.006,1.006,0,0,0,1.736-1.0147Z"/><path class="cls-1" d="M367.2951,65.2525c10.1717.5046,19.6521-3.13,28.91-6.9188,1.1814-.4834.6643-2.4293-.5345-1.9387-9.0916,3.72-18.3777,7.343-28.3757,6.847-1.2932-.0642-1.29,1.9465,0,2.0105Z"/><path class="cls-1" d="M413.5949,55.9538c5.5694-1.6606,11.35-1.5961,16.9259-3.5031,5.5061-1.883,10.8087-4.2291,16.6112-5.078l-1.2366-1.2366c-.6756,3.4743-3.4385,6.4868-5.4426,9.3308-2.1565,3.06-4.3257,6.111-6.48,9.1725-4.1857,5.948-8.321,11.9357-12.1962,18.092-3.7828,6.01-7.0368,12.3155-10.7363,18.3707-3.9155,6.4087-8.3655,12.47-12.802,18.522-.7657,1.0446.9781,2.0487,1.7361,1.0147,4.4365-6.0525,8.8864-12.1132,12.8019-18.5219,3.9167-6.4107,7.3672-13.0792,11.4028-19.4236,3.9045-6.1385,8.0568-12.1147,12.2484-18.0593,2.1572-3.0593,4.3263-6.11,6.48-9.1725,1.927-2.74,4.273-5.4267,4.9271-8.7909a1.0223,1.0223,0,0,0-1.2366-1.2366c-5.8042.8491-11.1035,3.1944-16.6112,5.078-5.561,1.9017-11.3629,1.8444-16.9259,3.5031a1.0061,1.0061,0,0,0,.5345,1.9387Z"/></g></svg>