<svg xmlns="http://www.w3.org/2000/svg" viewBox="0 0 680 198"><defs><style>.cls-1{fill:#f47b50;}</style></defs><title>draw</title><g id="圖層_1" data-name="圖層 1"><path class="cls-1" d="M8.7181,58.1983C17.483,39.179,41.724,44.83,56.9874,50.5572c19.0543,7.1495,37.53,11.4047,58.0077,10.38,20.01-1.0009,39.5972-5.58,59.3975-8.2877a186.3486,186.3486,0,0,1,31.6818-1.9223c8.6431.299,17.8189,2.8444,25.9685-1.0468,4.5212-2.1588,8.51-4.99,13.2759-6.6964a46.1517,46.1517,0,0,1,15.5781-2.7761c9.622.0174,20.5088,4.0147,23.51,14.0643,1.1941,3.9988,1.02,8.7026-1.36,12.259-3.5545,5.31-11.0475,6.6773-16.9393,7.3886a62.3446,62.3446,0,0,1-14.5334-.08c-4.1117-.4662-8.28-1.2135-12.4144-.53-3.8262.6327-6.8661,2.5433-9.9949,4.7344a29.952,29.952,0,0,1-14.9017,5.6118A268.58,268.58,0,0,1,182.14,84.7524c-10.78-.1573-22.1741-.1739-32.7615-2.3661-9.3395-1.9338-16.21-9.1937-25.6415-10.6857-10.1673-1.6083-20.2786.367-30.47-1.9833-10.1378-2.3379-19.6869-6.6122-29.2513-10.6008-9.133-3.8087-18.4612-7.5385-28.2817-9.121-10.6-1.7081-19.085,1.3279-28.3953,6.1542-1.7147.8888-.1993,3.4786,1.5141,2.59,5.5294-2.8663,11.2138-5.8047,17.5317-6.3114,5.6166-.45,11.3109.7881,16.702,2.2655C52.65,57.3151,61.71,61.4253,70.85,65.205c8.7758,3.6289,17.7385,7.04,27.1738,8.4638,10.2449,1.546,21.6313-1.4727,31.31,2.7868,4.1239,1.8149,7.6913,4.66,11.8122,6.4882A46.3065,46.3065,0,0,0,155.02,86.2475a296.3523,296.3523,0,0,0,35.0119,1.5255c10.3059-.0944,22.2118.6116,32.1509-2.5281,3.6541-1.1542,6.5822-3.3474,9.71-5.4726,5.434-3.6921,10.72-4.0081,17.0885-3.2542,13.6079,1.6109,39.72,1.7246,39.1464-17.9893-.5059-17.3768-19.8219-22.9171-34.1746-20.7854a50.1529,50.1529,0,0,0-12.2685,3.4506c-5.3515,2.2762-10.1785,6.4691-16,7.4019-5.1356.823-10.5251-.3764-15.6773-.684a156.0563,156.0563,0,0,0-17.4925-.0508c-22.3826,1.1773-44.21,6.7633-66.4461,9.1772-12.7581,1.3849-25.67,1.6473-38.3653-.47-12.26-2.0446-23.3892-6.7532-35.0543-10.7764C37.0859,40.4242,14.3987,38.7365,6.1277,56.6841c-.8026,1.7416,1.7824,3.2675,2.59,1.5142Z"/><path class="cls-1" d="M161.1543,69.8109c3.6874-.72,6.5469,1.6328,8.7326,4.2931,1.9648,2.3911,4.9694,6.9841,1.1,9.195a1.5011,1.5011,0,0,0,1.5141,2.59c4.6362-2.6492,3.6491-8.1464,1.0322-11.9169-3.1-4.4668-7.4425-8.1744-13.1768-7.0544-1.893.37-1.0916,3.2618.7976,2.8928Z"/><path class="cls-1" d="M228.8786,81.1073q10.9221,8.1893,21.8443,16.3787c3.24,2.4377,4.7917,3.7124,5.0952,7.9844.0823,1.159-.1359,2.3086-.0084,3.4963.3353,3.1233,1.5712,8.7263,3.1751,11.4008,4.2439,7.077,10.2048-8.7323.6734-6.4427-1.8764.4508-1.0819,3.3443.7975,2.8929.85-.2042,1,2.1862.3856-.6408-.2485-1.1443-.7082-2.2687-1.0362-3.3932a22.7656,22.7656,0,0,1-.91-8.0781c.1865-3.3307-.6617-5.1576-3.2335-7.2357-8.1716-6.6028-16.8627-12.65-25.2686-18.9531-1.5452-1.1585-3.0421,1.4448-1.5141,2.59Z"/><path class="cls-1" d="M257.419,102.5287c1.07-.554,5.4151,3.3646,6.0072,3.9109,1.8229,1.6817,2.6676,3.4922,3.8485,5.5567,1.2157,2.1254,3.7144,3.61,6.0094,1.9632,4.8089-3.4512-3.2947-9.5892-4.9663-3.51a1.5013,1.5013,0,0,0,2.8928.7976c-.2762,1.0044-1.8929-1.9546-2.0066-2.1744a16.3774,16.3774,0,0,0-1.6509-2.59,20.1167,20.1167,0,0,0-3.489-3.4174c-2.2041-1.7364-5.2522-4.6332-8.1593-3.1276-1.7149.8883-.2,3.478,1.5142,2.59Z"/><path class="cls-1" d="M256.838,101.9009a67.2717,67.2717,0,0,1,13.61-3.84c4.9365-.8151,2.2018,1.842,5.0883,3.6964a1.4622,1.4622,0,0,0,1.5141,0,7.88,7.88,0,0,0,2.6928-4.0768,1.5242,1.5242,0,0,0-.6893-1.694l-.9641-.6852c-1.5767-1.12-3.0767,1.48-1.5142,2.59l.9641.6852-.6893-1.6939c-.89,2.3689,1,1.7171.539.3461a4.1773,4.1773,0,0,0-.5857-1.3772,3.8938,3.8938,0,0,0-3.2171-1.1911c-5.7787-.1174-12.26,2.2741-17.5463,4.3469-1.7773.697-1.0037,3.5992.7975,2.8929Z"/><path class="cls-1" d="M226.6947,47.6881c2.3441-8.5607,7.3606-15.6295,13.1584-22.2219,2.147-2.4413,4.5774-4.7065,6.4748-7.354a12.5063,12.5063,0,0,0,1.9067-3.4823,8.1913,8.1913,0,0,0,.3888-1.7493q-.485-2.007,1.6934-2.5794l-1.8451,1.0477,1.079,1.55,2.5071-1.4594-.6121-1.8177a1.5009,1.5009,0,0,0-3,0,5.498,5.498,0,0,0,1.4908,3.9391c1.0566,1.2814,2.7252-.1554,2.507-1.46-.3488-2.0849-1.2427-2.9084-3.1743-3.6458a1.5178,1.5178,0,0,0-1.8452,1.0476c-1.3268,4.4143,4.0493,8.2189,7.3788,4.4921,3.58-4.0074-.92-9.4227-5.6172-8.2878-2.3668.5718-3.2078,2.0055-3.6249,4.21-.6551,3.4626-.5865,5.3014-2.986,8.1-1.56,1.82-3.2591,3.5257-4.8429,5.3265-6.1211,6.96-11.4547,14.5063-13.93,23.5457a1.5013,1.5013,0,0,0,2.8928.7975Z"/><path class="cls-1" d="M238.449,24.8075a34.7277,34.7277,0,0,1-4.2084-12.23,6.3454,6.3454,0,0,0-.6563-2.4586c-.2535-.3838-.8026-.5782-1.0062-.9428a.7488.7488,0,0,0-.3309-.1929q-.7162-.1975.1156-1.1453c-.7987-1.7548-3.3851-.2317-2.59,1.5141a2.7835,2.7835,0,0,0,5.3319-1.0377c.2473-2.9215-3.2658-4.8236-5.6673-3.283A3.3756,3.3756,0,0,0,227.9,8.307c.1614,1.7838,1.25,2.1046,2.3258,3.1954.9429.9565.9622,1.0874,1.2187,2.723a34.2308,34.2308,0,0,0,.7612,3.6933,33.9007,33.9007,0,0,0,3.6532,8.4029,1.5011,1.5011,0,0,0,2.59-1.5141Z"/><path class="cls-1" d="M239.1983,27.333a32.4852,32.4852,0,0,1,8.4126-2.3138c3.03-.2326,4.0224,1.5192,6.1556,3.1664,2.05,1.5828,4.836,1.5823,5.9712-1.0388.82-1.893.5115-6.03-2.097-6.29-2.9816-.2974-3.9065,3.58-4.15,5.7969-.1877,1.71,2.5129,1.9906,2.9464.3988a5.506,5.506,0,0,0,.2743-2.4627c-.1018-1.9205-3.1024-1.9325-3,0l-.1671,1.6652,2.9464.3987q1.5971-1.9683-.4927-1.5339a1,1,0,0,1-1.4071-.43c-.496-.3035-.8369-.9658-1.3329-1.3344a7.2249,7.2249,0,0,0-3.5434-1.332c-3.7552-.43-7.8764,1.1464-11.3139,2.4167-1.7956.6635-1.0191,3.5641.7975,2.8928Z"/><path class="cls-1" d="M156.315,54.4842c3.38-7.5352,12.5815-6.1505,19.069-8.7549a14.3318,14.3318,0,0,0,5.7708-3.9869c.8022-.9563,3.7619-5.2461,1.3833-5.8266-1.8752-.4577-2.6752,2.4345-.7975,2.8928,7.2981,1.7813,2.339-10.0121-.933-4.1993-.4353.7734-.2389,1.8132-.5116,2.6316a9.6217,9.6217,0,0,1-4.9238,5.2427c-3.2394,1.6367-7.04,1.7889-10.5151,2.6163-4.7375,1.1281-9.0551,3.2384-11.1325,7.87-.7836,1.747,1.8008,3.2745,2.59,1.5141Z"/><path class="cls-1" d="M158.7233,49.8775c3.4762-4.938,10.0914-7.4158,14.5375-11.3907,1.9843-1.7739,4.7845-7.0654.6311-8.0723a1.5464,1.5464,0,0,0-1.694.6893c-1.1076,1.7467-1.0324,4.1439,1.2624,4.6722a1.5645,1.5645,0,0,0,1.694-.6893l.3271-.4578a1.4711,1.4711,0,0,0,0-1.5142l-.27-.4354c-1.0148-1.6381-3.6111-.1333-2.59,1.5141l.27.4355V33.1147l-.3271.4578,1.694-.6893.53-.2652-1.694.6893c.8649.21-3.66,4.3315-4.1306,4.6756-1.841,1.345-3.6928,2.6754-5.5392,4.0131-2.6517,1.9211-5.3839,3.6574-7.2916,6.3673-1.1137,1.582,1.4863,3.0825,2.59,1.5142Z"/><path class="cls-1" d="M158.334,49.5817c1.1435-3.8392,4.19-6.6326,5.9091-10.1926.8981-1.8594,2.7244-5.4,1.64-7.471a2.505,2.505,0,0,0-3.9609-.5232c-1.7728,1.84-.1369,4.0822,1.4393,5.2316,1.5618,1.139,3.06-1.4628,1.5141-2.59l-1.9565.2407-.2785,1.0149a25.63,25.63,0,0,0-.9881,2.5833,27.2171,27.2171,0,0,1-2.4245,3.9625,23.96,23.96,0,0,0-3.787,6.9467c-.5523,1.8542,2.3421,2.6464,2.8928.7975Z"/><path class="cls-1" d="M148.9788,85.1978a76.35,76.35,0,0,0,3.8794,15.1778c.7816,2.18,1.6134,4.3444,2.3217,6.55.44,1.37.8445,2.75,1.173,4.1518q.2178.8341.359,1.6845.7351,2.1223-1.8908,3.4083l2.7952-.757-.5059-1.1261c-.79-1.758-3.3761-.2342-2.59,1.5142l.506,1.126c.6542,1.456,2.728.5935,2.7952-.7571.1167-2.3447-2.5316-6.4211-4.8181-3.2238-1.82,2.5457,1.3585,7.3614,4.4747,6.651,4.7177-1.0753,1.8926-9.1356,1.1081-11.818-2.3085-7.8935-5.55-15.1578-6.7142-23.3795-.2695-1.9038-3.1606-1.0939-2.8928.7975Z"/><path class="cls-1" d="M149.5545,85.677c2.0838,6.0776,6.3927,10.4112,10.0276,15.5524,1.6247,2.2978,2.6675,4.8635,4.1547,7.2272a16.2224,16.2224,0,0,0,2.1562,2.7612,13.1539,13.1539,0,0,0,1.4661,1.2788q2.0826.5838.9292,2.4022c.2611,1.9042,3.1521,1.0935,2.8928-.7975-.2535-1.8493-.7758-2.67-2.4823-3.2607a1.4979,1.4979,0,0,0-1.4594.3857c-5.2349,4.9276,7.0211,7.1363,4.8335,1.5262-.77-1.9744-3.6677-3.1806-4.9021-4.733-1.7018-2.14-2.6306-4.7632-4.1307-7.0476-3.5545-5.4129-8.4473-9.835-10.5928-16.0925-.6225-1.8157-3.5214-1.0358-2.8928.7976Z"/><path class="cls-1" d="M151.2055,86.9618a86.962,86.962,0,0,1,16.3671,11.5465c2.1114,1.9075,3.9352,4.1159,6.0234,6.0292.1609.1474,2.194,1.7329,2.3233,1.871,2.221,2.3719,1.23-2.5074,1.1818,2.6467a1.5009,1.5009,0,0,0,3,0c.0166-1.7676-.3953-3.9433-2.5686-4.2411a2.63,2.63,0,0,0-2.9869,2.1992c-.7,3.618,4.5194,5.6753,6.6993,2.9275a3.9871,3.9871,0,0,0,.2282-4.3341,4.68,4.68,0,0,0-1.5627-1.32,9.4287,9.4287,0,0,1-4.1931-1.8706q-1.1428-1.2659-2.3361-2.4844a88.9416,88.9416,0,0,0-20.6615-15.56c-1.6913-.9339-3.2065,1.656-1.5142,2.59Z"/><path class="cls-1" d="M258.0882,47.9185c-7.6328.9921-11.4445,5.8478-11.6783,13.5319-.2435,8.0027,5.6479,11.04,12.8636,10.8029,7.2249-.2379,10.4791-5.4247,10.2725-12.3786-.2081-7.0049-5.4584-12.9518-12.7689-11.6768-1.8984.331-1.0938,3.2226.7975,2.8928,6.89-1.2017,9.7348,6.2741,8.7657,11.84-.7973,4.5794-3.6946,6.3727-8.2529,6.32-5.3-.061-8.8163-2.2611-8.6775-7.801.1421-5.6716,2.8449-9.7737,8.6783-10.5319,1.8877-.2453,1.9121-3.2485,0-3Z"/><path class="cls-1" d="M255.5158,53.7576a6.4061,6.4061,0,0,0-3.3287,5.1225c-.2651,1.8514-.5027,4.421.7468,5.99,1.3138,1.65,4.0024,2.2672,5.9774,2.5064a4.8367,4.8367,0,0,0,4.8973-2.0061c2.36-3.5594,1.518-8.7831-2.2145-11.0231-1.5071-.9044-3.5035-1.3546-4.8751-.0038-1.5806,1.5567-2.5341,4.71-2.96,6.8354a1.5132,1.5132,0,0,0,2.5071,1.4594l3.359-2.8945-2.5607-1.0607a19.1978,19.1978,0,0,1-1.0422,4.0249c-.5493,1.6217,1.915,2.6223,2.7416,1.1558l2.6757-4.7467-2.7416-.3583a17.46,17.46,0,0,1,.4917,4.1311,1.5071,1.5071,0,0,0,2.9464.3988l.7688-2.5293c.4856-1.5974-1.9834-2.7028-2.7416-1.1558a6.3211,6.3211,0,0,1-2.6138,2.8536,1.5011,1.5011,0,0,0,1.5141,2.59,9.065,9.065,0,0,0,3.69-3.93l-2.7416-1.1558-.7689,2.5293,2.9465.3987a20.8949,20.8949,0,0,0-.5989-4.9286,1.5164,1.5164,0,0,0-2.7416-.3583L256.173,62.35l2.7417,1.1558a22.52,22.52,0,0,0,1.1493-4.8224c.1568-1.4114-1.6847-1.8155-2.5606-1.0607l-3.3591,2.8946,2.5071,1.4594c.2813-1.4025,1.2077-5.6849,3.05-5.2227,2.5824.6478,2.7572,4.3724,1.9434,6.2763-.8573,2.0055-4.725,1.6238-6.1482.1864-.6891-.696-.4823-2.3112-.4231-3.19.1036-1.5374.4972-2.9434,1.9564-3.6784,1.7246-.8687.2075-3.4577-1.5141-2.59Z"/><path class="cls-1" d="M249.4829,54.6832c5.8977-1.8807,10.5148-3.5341,16.73-1.5836a1.5158,1.5158,0,0,0,1.694-2.2035c-4.8164-8.1835-16.3444-5.0312-20.5576,1.9529a1.5011,1.5011,0,0,0,2.59,1.5142c3.0267-5.0172,11.7064-8.1892,15.3768-1.9529l1.6939-2.2035c-6.7044-2.1043-11.9208-.4585-18.3245,1.5836-1.8324.5843-1.0493,3.4817.7975,2.8928Z"/><path class="cls-1" d="M272.4373,55.9479q-.1551,4.8159.0583,9.627c.0852,1.9229,3.0857,1.9335,3,0q-.2133-4.8136-.0583-9.627c.0621-1.931-2.938-1.9288-3,0Z"/><path class="cls-1" d="M274.4823,62.7369a30.2144,30.2144,0,0,0,9.739,2.4178c1.9253.1486,1.9157-2.8522,0-3a25.7741,25.7741,0,0,1-8.2248-2.0082c-1.7547-.7547-3.2846,1.8289-1.5142,2.59Z"/><path class="cls-1" d="M253.8549,39.6736a13.5165,13.5165,0,0,1,10.4913-5.8977c5.1939-.4263,8.1474,2.08,9.5434,6.8847a1.5013,1.5013,0,0,0,2.8928-.7975c-1.5547-5.3507-5.0152-9.2454-10.8658-9.1965-6.0464.0506-11.2252,2.477-14.6521,7.4928-1.0919,1.5982,1.5066,3.1006,2.59,1.5142Z"/><path class="cls-1" d="M264.1842,33.46a9.0183,9.0183,0,0,0,2.8091,3.84,5.3231,5.3231,0,0,0,4.3873.642,1.5157,1.5157,0,0,0,.6619-2.5071,10.8793,10.8793,0,0,0-4.8893-2.9613c-1.5883-.4636-2.7345,2.026-1.1558,2.7417l1.19.5393c1.7449.7911,3.2718-1.7936,1.5141-2.59l-1.19-.5393-1.1559,2.7416a7.841,7.841,0,0,1,3.5654,2.19l.6619-2.5071c-2.112.58-3.0554-1.5159-3.8084-3.1033-.8269-1.7434-3.4142-.2227-2.59,1.5141Z"/><path class="cls-1" d="M257.3919,35.619c.8743.8826,2.7359,1.2369,3.2973,2.2961l.2345-1.8177c.3969-.3871-.1572-.3732-.535-.588a8.0064,8.0064,0,0,1-1.1019-.8087,3.504,3.504,0,0,0-1.8331-1.0161c-1.5-.1976-2.9024,1.2082-4.0634,1.9836-.8428.5629-1.1018,2.0938,0,2.59,1.3816.6227,2.66.0842,4.0369.4994,1.3722.4137,2.4918,1.1565,3.9858.9681,1.89-.2383,1.9137-3.2413,0-3-1.1719.1478-2.1074-.5215-3.1883-.8609a5.5049,5.5049,0,0,0-1.4834-.2671c-.5205-.0143-1.35.2894-1.8369.07v2.59c.5016-.335,1.9666-1.5562,2.3064-1.5036-.1744-.027.5256.5506.6331.6345a8.7008,8.7008,0,0,0,1.248.8353c1.2988.6959,2.7845,1.134,3.9532-.0061a1.5358,1.5358,0,0,0,.2345-1.8178c-.8592-1.6211-2.5873-1.7129-3.7663-2.9032a1.5009,1.5009,0,0,0-2.1214,2.1213Z"/><path class="cls-1" d="M223.0437,50.5124c2.31,5.6275,4.2183,22.0412,13.8979,20.6382,3.7085-.5375,4.5946-7.2862,5.2146-10.1753,1.2695-5.9152,1.4374-12.0075,1.5974-18.0324.0513-1.9312-2.9487-1.93-3,0-.0943,3.55-.1741,7.1112-.5194,10.6478-.3515,3.6013-.7069,10.0349-2.9555,13.1019q-.0115,2.0486-1.645,1.3069a7.1968,7.1968,0,0,1-3.2135-2.0743,13.2573,13.2573,0,0,1-2.9629-4.9345c-1.4381-3.6811-2.0144-7.6061-3.5208-11.2758-.7231-1.7617-3.6267-.99-2.8928.7975Z"/><path class="cls-1" d="M216.152,53.1568c.1984.7432-.5,1.7549-.62,2.5118a3.2183,3.2183,0,0,0,.9142,2.9053c1.3939,1.3072,4.4743,1.884,5.6592.0972A5.4774,5.4774,0,0,0,221.957,52.3a4.2883,4.2883,0,0,0-5.4928-.9211c-1.6106,1.0513-.1089,3.65,1.5141,2.59a1.2971,1.2971,0,0,1,1.8528.4991,2.2227,2.2227,0,0,1,.1771,1.4967,6.0672,6.0672,0,0,1-.2466.7745q-.3225.5032-.046.169.26-.1794-.0384-.148c-.2219-.2227-1.0318-.0176-1.2079-.3842-.0916-.1906.0958-.5482.1571-.74a5.4747,5.4747,0,0,0,.4185-3.277,1.5013,1.5013,0,0,0-2.8929.7975Z"/><path class="cls-1" d="M210.8122,65.0389c-.0308,3.1862-.8942,6.1932-1.4179,9.3139-.2524,1.504-.8823,3.6134.299,4.85,2.3926,2.5041,8.013-.6544,9.7478-2.65,2.7317-3.143,2.4606-7.4388.3736-10.8833-1.7067-2.8167-5.6637-4.66-8.1395-1.639-1.2141,1.4816.8964,3.6162,2.1213,2.1213,2.4152-2.9473,4.8173,3.5687,4.6961,5.4-.1856,2.8063-2.6206,4.6-5.1583,5.1974-1.8894.4444-1.3955.7284-1.1348-1.0867.1971-1.372.5274-2.7225.8019-4.08a34.4894,34.4894,0,0,0,.8108-6.543,1.5009,1.5009,0,0,0-3,0Z"/><path class="cls-1" d="M201.1025,53.4944a17.3825,17.3825,0,0,0-4.5089,10.549c-.1154,3.0983.8577,8.1036,3.8139,9.8072,2.9256,1.6859,4.55-1.63,4.9875-3.98a23.7319,23.7319,0,0,0,.3123-6.7393c-.2721-2.4614-1.4127-4.7-1.5462-7.1843-.1032-1.92-3.1039-1.9325-3,0a25.6079,25.6079,0,0,0,1.1152,5.3124c.4,1.51,1.3367,7.0377.1281,8.4411-2.07,2.4035-2.8452-4.8656-2.8108-5.6573a14.1064,14.1064,0,0,1,3.63-8.4277c1.2386-1.4663-.8733-3.5988-2.1213-2.1213Z"/><path class="cls-1" d="M180.9527,51.4182a45.6975,45.6975,0,0,0-1.8468,19.8371c.6093,4.51,1.5665,8.6894,6.8961,8.1858,4.3187-.4081,6.16-2.9012,6.4193-7.0181A74.2727,74.2727,0,0,1,197.8967,49.13c.7-1.8-2.2-2.5805-2.8928-.7975a95.6761,95.6761,0,0,0-4.54,13.5962c-.7628,3.4016-.2266,7.2455-1.0426,10.4939q-.8614,4.4464-4.5981,4.0909a2.38,2.38,0,0,1-2.2313-2.6c-.8973-1.839-.75-4.5543-.8449-6.55a43.652,43.652,0,0,1,2.0985-15.1478c.5759-1.8474-2.3192-2.6377-2.8928-.7975Z"/><path class="cls-1" d="M166.0592,53.0992l-.01,4.0431a8.0516,8.0516,0,0,0,.2146,2.9426c.6306,1.5757,3.506,2.5162,5.0725,2.3431,1.7544-.1939,3.2054-2.6138,4.0359-3.9771a7.7368,7.7368,0,0,0,.9563-6.65c-.64-1.8074-3.54-1.0289-2.8929.7975a4.6551,4.6551,0,0,1-.5094,4.089c-.3294.5784-1.4017,2.52-1.9891,2.711a13.2572,13.2572,0,0,1-1.9235-.5889,6.1931,6.1931,0,0,1,.0348-1.3566l.0112-4.3541a1.5009,1.5009,0,0,0-3,0Z"/><path class="cls-1" d="M145.9972,64.7983c.8106,1.95,1.2741,4.8712-.1954,6.6838l-.45.7893a4.4291,4.4291,0,0,1-1.1538-2.27,13.6,13.6,0,0,1-.2885-3.1039,1.501,1.501,0,0,0-3,0,3.3664,3.3664,0,0,1-2.6049,2.9926c-2.9953.4084-3.3342-2.2675-3.6364-4.1952a35.3552,35.3552,0,0,1-.137-7.0678c.0864-1.93-2.9138-1.926-3,0-.1814,4.053-.8956,11.786,3.7217,13.9217,4.0392,1.8682,8.3287-1.6535,8.6566-5.6513h-3c.0388,2.48,1.0387,9.6941,5.1269,8.5059,1.6645-.4837,2.7842-2.9472,3.2382-4.4193a10.1924,10.1924,0,0,0-.3842-6.983c-.73-1.757-3.6345-.9862-2.8928.7976Z"/><path class="cls-1" d="M139.32,57.5556l1.2415,3.1624a5.0946,5.0946,0,0,0,1.1848,2.1918c1.4367,1.2156,3.3477-.2231,4.5073,1.6546,1.0126,1.64,3.6087.1347,2.59-1.5142a5.3831,5.3831,0,0,0-4.0893-2.6367,4.9369,4.9369,0,0,0-1.1286.02q.3013.64.0056-.0612l-.1774-.4518q-.6222-1.5805-1.2415-3.1625c-.6976-1.7768-3.6-1.0033-2.8928.7976Z"/><path class="cls-1" d="M111.2867,60.3755a16.1886,16.1886,0,0,0,2.5762,11.659c1.0791,1.5877,3.68.0884,2.5905-1.5142A13.1,13.1,0,0,1,114.18,61.173c.2722-1.8884-2.6181-2.704-2.8928-.7975Z"/><path class="cls-1" d="M119.9188,58.9615c.2347,3.0036,1.0979,8.4016-1.0017,10.9068-1.2323,1.47.8792,3.6033,2.1213,2.1213,2.8531-3.4042,2.2024-8.9081,1.88-13.0281-.1494-1.9122-3.1506-1.9283-3,0Z"/><path class="cls-1" d="M81.5617,58.2887c-.38,3.2613-1.6044,7.4417.3786,10.3906,1.0718,1.5939,3.6717.094,2.59-1.5141-1.5158-2.2542-.2607-6.3713.031-8.8765.223-1.9141-2.7789-1.8981-3,0Z"/><path class="cls-1" d="M94.9172,58.9821a40.0613,40.0613,0,0,1-.017,5.0237c-.0931,1.3129.0081,3.7334-1.0943,4.6485-1.4869,1.2342.6455,3.3464,2.1213,2.1213,1.3465-1.1177,1.5226-2.8226,1.7366-4.462a39.7291,39.7291,0,0,0,.2534-7.3315c-.1047-1.92-3.1054-1.9323-3,0Z"/><path class="cls-1" d="M62.1786,52.1914a22.1655,22.1655,0,0,0,1.0262,8.9945c.599,1.8263,3.4969,1.0443,2.8929-.7976a19.984,19.984,0,0,1-.9191-8.1969c.1765-1.9218-2.8246-1.91-3,0Z"/><path class="cls-1" d="M72.7783,56.024a7.1435,7.1435,0,0,1-1.4014,6.0281c-1.1645,1.54,1.4393,3.0366,2.59,1.5142a10.0286,10.0286,0,0,0,1.7038-8.34c-.4244-1.8826-3.3174-1.0859-2.8928.7975Z"/><path class="cls-1" d="M49.1594,47.0391c-.0936,2.4456.0951,7.2629,2.9873,8.2062,3.4378,1.1212,4.362-4.1416,4.0585-6.4183-.2514-1.8858-3.2548-1.9108-3,0a6.3989,6.3989,0,0,1-.0385,2.2917c-.0854.3758-.4324.9045-.4711,1.2627l.4037-.0072a1.59,1.59,0,0,1-.2267-.39,17.254,17.254,0,0,1-.7132-4.9455c.0738-1.9307-2.9263-1.9275-3,0Z"/><path class="cls-1" d="M46.6558,45.89a4.4488,4.4488,0,0,0-1.0481,1.0043c-.05.0653-.2427.4084-.3435.4413-.1659.0541.1256.0469-.0014,0-.5714-.2107-.6225-1.4653-.6974-1.9418A1.511,1.511,0,0,0,42.72,44.3461a1.5369,1.5369,0,0,0-1.0477,1.8452c.2644,1.68.9056,3.3668,2.6476,3.9763a2.9205,2.9205,0,0,0,2.405-.1856c.6427-.371.877-1.1078,1.4448-1.5017,1.5754-1.0932.0773-3.6948-1.5141-2.59Z"/><path class="cls-1" d="M25.2821,45.6338c.6282,1.0326.1648,2.5178.5854,3.67a3.2762,3.2762,0,0,0,2.8728,2.313,1.5113,1.5113,0,0,0,1.5-1.5,1.5323,1.5323,0,0,0-1.5-1.5c.1378.0145.22.1671.1059.0005a1.4352,1.4352,0,0,1-.2077-.4959,5.1991,5.1991,0,0,1-.078-1.1943,5.5225,5.5225,0,0,0-.688-2.8077c-1.002-1.6471-3.5975-.1413-2.59,1.5141Z"/><path class="cls-1" d="M34.26,44.0427a18.2185,18.2185,0,0,1,.6229,5.67c-.0852,1.93,2.915,1.9261,3,0a20.997,20.997,0,0,0-.73-6.4675,1.5013,1.5013,0,0,0-2.8928.7975Z"/><path class="cls-1" d="M287.6586,56.3622c11.469,1.5044,20.585-3.732,28.4448-11.617,4.055-4.0681,7.8149-8.4073,12.4065-11.8981a62.7177,62.7177,0,0,1,17.6342-9.1777c11.2669-3.8782,25.0429-7.158,36.7175-3.4972a36.0026,36.0026,0,0,1,23.53,24.1309c.5395,1.85,3.4354,1.0626,2.8929-.7975a38.9789,38.9789,0,0,0-18.7972-23.3207c-10.7375-5.83-22.3624-4.9272-33.948-2.47-12.0424,2.5538-23.8522,7.2067-33.1519,15.4645-10.97,9.7411-19.0554,22.37-35.7289,20.1831-1.9084-.25-1.89,2.7521,0,3Z"/><path class="cls-1" d="M284.69,62.6906c3.5008,9.6409,12.684,15.0257,22.4169,16.8628,6.7471,1.2735,13.6742.8309,20.4881.5491,5.6153-.2323,18.1928-2.3521,21.06,4.0915.7832,1.76,3.3691.2362,2.59-1.5142-1.595-3.5851-5.0759-4.9064-8.7686-5.44-6.786-.9806-13.8485-.1-20.66.1-12.6844.372-29.2023-1.5911-34.2334-15.4464-.6538-1.8006-3.554-1.0233-2.8929.7975Z"/><path class="cls-1" d="M385.0273,136.9876q-8.8345-5.9106-17.3146-12.317c-1.5406-1.1639-3.0372,1.44-1.5142,2.59q8.4813,6.4073,17.3146,12.317c1.6091,1.0765,3.1127-1.521,1.5142-2.59Z"/><path class="cls-1" d="M359.1376,112.795c1.2063-4.439-.3372-8.2538-2.1254-12.3032-1.5037-3.4053-3.3142-6.8978-2.5968-10.7554.6982-3.7544,3.5351-7.2358,5.5711-10.3745,2.7357-4.2172,7.4222-9.23,6.5969-14.6734-.368-2.427-1.7733-4.4266-2.9792-6.5042a22.3179,22.3179,0,0,1,3.2742-27.9732c2.1914-2.05,6.4664-3.8869,7.8591.1861a20.7853,20.7853,0,0,1,.406,3.8,10.6411,10.6411,0,0,0,1.9988,5.3992c3.1877,4.23,8.9994,5.9431,12.7818,9.6094a31.1713,31.1713,0,0,1,9.2369,19.1888c.202,1.9,3.2042,1.9208,3,0a34.5714,34.5714,0,0,0-6.7-17.4281,33.1355,33.1355,0,0,0-6.5123-6.5332c-3.125-2.3541-8.1049-3.9515-10.0295-7.55-2.132-3.9865.3428-11.2548-5.7658-12.4677-5.1979-1.0321-10.1423,4.8849-12.4412,8.7837a26.23,26.23,0,0,0-3.2947,17.0163,24.4975,24.4975,0,0,0,2.76,8.0953c1.3343,2.4631,3.6362,4.9186,3.541,7.9418-.0617,1.9623-1.437,4.0013-2.4341,5.6006C357.5482,77.846,350.87,84.76,351.25,92.3436c.3443,6.8687,6.8968,12.655,4.9949,19.6538a1.5013,1.5013,0,0,0,2.8928.7976Z"/><path class="cls-1" d="M366.3123,42.4157c1.48,10.357,8.8933,18.328,11.249,28.3718,2.04,8.7-1.6524,19.33,4.3206,26.76,1.21,1.5048,3.32-.63,2.1213-2.1213-3.5892-4.4649-2.4017-10.5477-2.475-15.8344a41.0081,41.0081,0,0,0-1.994-12.7647c-2.9725-8.6674-9.0074-15.959-10.3291-25.2089-.272-1.9036-3.1631-1.0939-2.8928.7975Z"/><path class="cls-1" d="M387.8848,114.1276a58.5083,58.5083,0,0,0,9.9579,15.22c1.2945,1.4379,3.4106-.6892,2.1213-2.1213a56.0194,56.0194,0,0,1-9.4887-14.6125c-.79-1.758-3.3763-.2342-2.5905,1.5141Z"/><path class="cls-1" d="M267.32,155.9706c-4.7367,3.9521-3.6276,10.911.137,15.1681,4.9374,5.5833,12.7506,6.1652,19.4619,3.8418,9.0375-3.1287,15.6341-10.5853,23.4917-15.6931,8.2383-5.3553,16.8361-9.7952,24.6347-15.8371a180.0632,180.0632,0,0,1,26.638-17.431c4.5648-2.4,9.2041-4.6542,13.8437-6.9046,4.4269-2.1471,9.3948-5.5886,14.136-6.85,3.9546-1.0519,8.089,2.9755,12.2094,3.6653a25.1822,25.1822,0,0,0,11.1535-.7669c9.0346-2.6252,16.678-9.1516,24.109-14.6513,2.2741-1.6831,5.1518-3.6928,4.6586-6.9465a3.8807,3.8807,0,0,0-4.0914-3.4181c-4.291.0307-9.6951,4.187-13.4506,6.0212L407.1108,104.54l2.2035.8964c-2.5837-6.7424,28.3822-14.8732,20.66-22.2117-2.7409-2.6048-7.0995.5457-9.6063,1.8836L400.6118,95.6522l2.2035.8965c-1.14-4.205,10.9837-8.315,13.5282-9.8737a18.2287,18.2287,0,0,0,7.6829-8.1971,1.5539,1.5539,0,0,0-.2346-1.8177c-2.8042-2.551-5.956-1.3991-9.1251-.04-6.5852,2.824-13.11,5.7994-19.6626,8.6981l2.0523,2.0523c2.8482-6.3393,11.7844-7.3618,16.9512-11.3413,2.6585-2.0476,7.2089-7.2739,4.7864-10.9472-2.6706-4.05-11.7147.854-14.8633,2.2083-6.663,2.866-13.3866,6.9893-18.12,12.5849a22.4492,22.4492,0,0,0-4.3957,7.6223c-1.0687,3.3669.25,6.5223-.3428,9.76-.973,5.3193-6.575,7.1373-10.898,9.2029-4.5578,2.1777-9.23,4.1036-13.9347,5.9393-15.37,5.9973-31.1629,11.1359-45.1367,20.1183-8.1732,5.2539-15.9731,9.5831-25.179,12.8317-7.8327,2.7641-15.4819,5.5508-22.1,10.71-1.521,1.1857.6156,3.2951,2.1213,2.1213,11.4283-8.9094,26.654-10.513,38.9108-18.0386,6.3047-3.871,12.2848-8.0715,18.935-11.3707,7.1021-3.5232,14.5061-6.3814,21.9164-9.1792,6.3257-2.3884,12.6695-4.7314,18.8969-7.37,5.3949-2.2854,13.79-4.8264,17.7147-9.3838a7.9386,7.9386,0,0,0,1.7531-5.5818c-.0475-3.9162-.7556-7.0237.9936-10.7833,3.2668-7.0213,10.6029-11.823,17.32-15.1766a55.7076,55.7076,0,0,1,6.6283-2.7891c.95-.3293,5.7337-2.3372,6.4891-1.8181,2.0111,1.382-1.2069,5.0748-2.1651,5.9919a20.8119,20.8119,0,0,1-4.4984,3.0907c-5.1946,2.8258-11.7439,4.2281-14.3744,10.083a1.5144,1.5144,0,0,0,2.0523,2.0523l11.9685-5.2945c2.9082-1.2865,10.3921-6.3722,13.1837-3.8327l-.2345-1.8178c-2.6622,6.0421-8.8112,8.3091-14.3265,11.1022-3.7605,1.9044-8.5213,4.3577-7.1871,9.28a1.519,1.519,0,0,0,2.2035.8964l14.8173-7.9078c2.0777-1.1089,5.1548-3.5748,7.4087-3.954q.9266-.9574,1.7637.1715,2.031.6992-.2925,1.4745c-.9606,1.108-3.197,2.15-4.3968,2.9354-4.06,2.6583-8.65,5.04-12.3405,8.1894-2.2329,1.9052-3.78,4.1714-2.6644,7.0825a1.53,1.53,0,0,0,2.2035.8964l22.2833-10.883c.7361-.3595,4.49-2.7916,5.1422-2.5115.9886.4249-.1427,3.7808-.43,4.1856a10.3364,10.3364,0,0,1-2.1272,1.5518c-3.0782,2.2454-6.127,4.5421-9.2817,6.68-6.4417,4.3648-14.2279,8.4177-22.2717,6.7678-5.635-1.1557-8.0144-5.7489-13.7913-3.2465-14.0716,6.0956-28.4607,13.154-41.35,21.472-6.2007,4.0015-11.7849,8.7787-17.7483,13.1045-6.4139,4.6526-13.5271,8.1325-20.1537,12.446-6.8721,4.4734-12.6687,10.74-20.1161,14.2877-4.7986,2.2856-10.8544,3.4734-15.7513.8036-4.5814-2.4978-8.5649-9.5437-3.5877-13.6964,1.484-1.2381-.6481-3.3505-2.1213-2.1213Z"/><path class="cls-1" d="M363.0538,112.4145a18.2447,18.2447,0,0,1,6.0715,5.0566c1.1867,1.52,3.2961-.6162,2.1213-2.1214a20.2591,20.2591,0,0,0-6.6787-5.5257c-1.7122-.8859-3.2313,1.702-1.5141,2.5905Z"/><path class="cls-1" d="M410.1828,65.874a101.3336,101.3336,0,0,1,24.2244-54.1306h-2.1213C445.4507,27.706,455.2605,46.43,459.9033,66.652c5.13,22.3436,1.8386,43.7123-3.1938,65.7355-.43,1.88,2.4622,2.6819,2.8928.7975,5.1547-22.5581,8.4469-44.4509,3.1938-67.33-4.7618-20.74-14.8944-39.87-28.3889-56.2324a1.5061,1.5061,0,0,0-2.1213,0A104.8543,104.8543,0,0,0,407.1828,65.874c-.2372,1.9112,2.7649,1.894,3,0Z"/><path class="cls-1" d="M423.99,111.6837c4.813,3.2162,7.62,8.5113,12.5327,11.65,4.9181,3.1425,10.6246,4.561,14.5148,9.1691,1.247,1.4772,3.36-.6541,2.1213-2.1213-3.7477-4.4394-9.0532-6.1176-13.9434-8.9383-5.48-3.1607-8.5019-8.869-13.7112-12.35-1.61-1.0757-3.1134,1.5218-1.5142,2.59Z"/><path class="cls-1" d="M415.6423,97.6448l.7129.7129a1.5,1.5,0,0,0,2.1213-2.1213l-.7129-.7129a1.5,1.5,0,1,0-2.1213,2.1213Z"/><path class="cls-1" d="M409.9882,88.1112l.7243,1.42a1.5,1.5,0,0,0,2.59-1.5142l-.7243-1.42a1.5,1.5,0,1,0-2.59,1.5142Z"/><path class="cls-1" d="M428.7528,33.1475a134.6264,134.6264,0,0,0,12.3921,50.36c4.0369,8.8715,8.0389,17.5647,8.9442,27.3866.7268,7.8852.5892,15.6557,4.3062,22.8672.8848,1.7166,3.4744.2009,2.59-1.5142-3.9135-7.5928-3.1284-16.0651-4.21-24.2842-1.0575-8.0373-4.2311-15.432-7.5662-22.7475-7.6277-16.7316-12.6589-33.5907-13.4568-52.0678-.0831-1.9232-3.0835-1.9336-3,0Z"/><path class="cls-1" d="M407.5555,37.2071a12.34,12.34,0,0,1,6.65-2.6037c1.91-.1578,1.9273-3.1592,0-3a15.9275,15.9275,0,0,0-8.7715,3.4823c-1.5133,1.1973.6223,3.3073,2.1213,2.1214Z"/><path class="cls-1" d="M448.0764,30.789A41.1631,41.1631,0,0,1,462.64,32.0933a1.5013,1.5013,0,0,0,.7975-2.8928,43.548,43.548,0,0,0-15.361-1.4115c-1.909.1646-1.9264,3.1661,0,3Z"/><path class="cls-1" d="M455.57,42.2392c2.5279-3.3009,4.8873-7.1723,7.8912-10.0494,2.2179-2.1243,5.3378-2.815,7.4506-5.1028,1.3083-1.4166-.8081-3.5433-2.1213-2.1213-2.2934,2.4833-5.7874,3.2107-8.0939,5.7852-2.7891,3.1132-5.1774,6.6579-7.717,9.9742-1.1733,1.5321,1.4312,3.0279,2.59,1.5141Z"/><path class="cls-1" d="M481.5825,89.7611a103.0563,103.0563,0,0,1-15.4083-31.4493l-2.2035,1.694,12.6676,9.7258a1.511,1.511,0,0,0,2.2035-.8965c1.2307-4.1357-.2416-8.0084-1.09-12.0943a131.97,131.97,0,0,1-2.4169-19.1734c-.6774-11.6447-.1875-23.3144.3073-34.9558l-2.7952.7571A115.08,115.08,0,0,1,492.074,55.2212a1.501,1.501,0,0,0,3,0c.4191-4.811.8878-9.6277,2.5764-14.1848,1.652-4.458,4.3125-8.5268,6.8356-12.5264Q511.4634,17.4495,519.06,6.8012l-2.7416-.3583c3.0789,8.4727-.1628,20.0214-1.4035,28.6822q-1.95,13.609-4.5693,27.1069a1.5073,1.5073,0,0,0,2.7416,1.1559,38.22,38.22,0,0,1,19.6808-15.5894,58.5384,58.5384,0,0,1,15.2565-3.2174c1.7822-.1514,3.5715-.2318,5.3595-.2673q1.7887-.0333,3.5776-.0022,2.4846.96,1.243,2.9756c-.1259,3.485-2.7363,7.6543-4.3713,10.7159a57.5523,57.5523,0,0,1-7.431,10.7642A58.2177,58.2177,0,0,1,527.7116,82.88c-1.7388.8375-.219,3.4252,1.5142,2.59a60.7,60.7,0,0,0,22.3648-18.3786,60.0863,60.0863,0,0,0,7.537-13.3511c1.0029-2.47,4.1715-8.5353,2.4249-11.1565-1.8377-2.7577-9.1206-1.2878-11.7442-1.13a63.9956,63.9956,0,0,0-16.9945,3.1622c-9.1908,3.1637-17.1841,8.93-22.3168,17.2577l2.7416,1.1559q2.9658-15.43,5.1127-30.9967c1.134-8.315,3.82-18.2431.86-26.3875A1.5229,1.5229,0,0,0,516.47,5.287c-5.7557,8.1076-11.3624,16.3527-16.5351,24.8472-4.9031,8.0516-7.0465,15.7393-7.8607,25.087h3A118.261,118.261,0,0,0,475.4375,1.8545a1.5132,1.5132,0,0,0-2.7952.7571c-.4682,11.0152-.9312,22.0518-.4065,33.0739.23,4.832.6512,9.6554,1.3371,14.445.7725,5.3937,3.948,12.6248,2.376,17.9071l2.2035-.8964-12.6675-9.7259c-1.0726-.8235-2.5434.5346-2.2035,1.694a105.4574,105.4574,0,0,0,15.7107,32.1659c1.1189,1.5517,3.7224.0558,2.59-1.5141Z"/><path class="cls-1" d="M487.2861,22.7691A52.8231,52.8231,0,0,1,501.1405,24.23c1.8758.4535,2.6762-2.4387.7975-2.8929a55.9582,55.9582,0,0,0-14.6519-1.5682c-1.927.0491-1.9344,3.0493,0,3Z"/><path class="cls-1" d="M516.5271,36.58a106.7329,106.7329,0,0,1,6.8865,11.9265c.8557,1.7307,3.4441.2124,2.59-1.5142a106.716,106.716,0,0,0-6.8865-11.9264c-1.066-1.5987-3.6656-.0983-2.59,1.5141Z"/><path class="cls-1" d="M501.8931,23.3177l1.0554.733a1.5136,1.5136,0,0,0,2.0522-.5381,1.5305,1.5305,0,0,0-.5381-2.0523l-1.0553-.733a1.5139,1.5139,0,0,0-2.0523.5381,1.5306,1.5306,0,0,0,.5381,2.0523Z"/><path class="cls-1" d="M466.55,145.0524c-6.3279-2.994-6.2036-10.1786-4.6037-16.0158.6754-2.4638,1.544-4.8773,2.3555-7.2991.725-2.1635,1.1654-5.2921,2.5982-7.0683a7.5059,7.5059,0,0,1,5.1751-2.3684c.7946.02,1.6282.5414,2.4666.5115a5.6579,5.6579,0,0,0,2.9244-.9717c2.6269-1.7273,3.7489-5.5237,4.82-8.28,1.747-4.4967,2.61-9.5015,4.6541-13.8434,3.06-6.4986,9.6656-4.68,15.4645-4.3879,4.641.2336,8.4648-1.0453,12.558-3.118,2.151-1.0892,4.404-2.8515,6.6979-3.5646,2.1308-.6623,2.7081-1.1574,3.9816,1.3562a10.1794,10.1794,0,0,1,.7507,5.169c-.1042,1.9292,2.8961,1.9234,3,0,.173-3.2-.6709-9.8975-4.6852-10.6729-2.1413-.4136-4.6124,1.5846-6.2877,2.4782-3.49,1.8615-7.0516,4.1644-10.9446,5.0535-6.2232,1.4212-12.9266-2.0693-18.84,1.2214-4.6559,2.5911-5.4,8.2021-6.8816,12.8319-1.1006,3.4391-2.0993,7.7035-4.074,10.7487-2.872,4.4292-4.86,1.451-8.3983,2.1-4.1707.7649-5.6628,5.4826-6.8509,8.9581-3.1037,9.08-9.2656,24.1357,2.6051,29.7523,1.7357.8212,3.26-1.7643,1.5141-2.59Z"/><path class="cls-1" d="M469.154,147.698c-3.1778-8.7894,6.6224-13.5584,12.7937-17.0656,5.5047-3.1284,9.5025-7.2552,13.6246-12.0138,9.561-11.0373,20.355-20.8537,31.1842-30.6169,1.437-1.2956-.69-3.4117-2.1213-2.1213-6.4634,5.8271-12.9329,11.6549-19.1243,17.7731-5.8145,5.7457-10.9268,12.0911-16.6014,17.9489-7.2106,7.4437-27.79,12.6732-22.6483,26.8931.6514,1.8018,3.5515,1.0243,2.8928-.7975Z"/><path class="cls-1" d="M383.5513,138.7253c2.2144,4.2847,6.6072,5.453,11.0978,6.0715,7.4673,1.0284,14.6579,2.5818,22.0128,4.2a145.3574,145.3574,0,0,0,47.4231,2.48c1.8976-.2111,1.9191-3.2135,0-3a141.778,141.778,0,0,1-42.9982-1.61c-6.5426-1.2822-12.9629-3.157-19.553-4.2019-5.0531-.8012-12.67-.1869-15.3921-5.4536-.8867-1.7157-3.4763-.2-2.59,1.5141Z"/><path class="cls-1" d="M386.1289,140.1268c.077-7.5171,7.4947-10.4959,13.7754-11.821a121.76,121.76,0,0,1,20.0323-2.8334c13.6006-.55,24.8587,5.2985,36.2809,11.966a1.5011,1.5011,0,0,0,1.5142-2.59c-6.6131-3.86-13.32-7.7639-20.6416-10.1359-8.0065-2.5937-16.1953-2.6534-24.4822-1.5746-10.4223,1.3568-29.3328,2.7088-29.479,16.9893a1.5009,1.5009,0,0,0,3,0Z"/><path class="cls-1" d="M438.3618,149.2679a100.9085,100.9085,0,0,0-12.2138-17.9051c-1.2527-1.4728-3.366.658-2.1213,2.1213a97.2989,97.2989,0,0,1,11.7447,17.2979c.9094,1.7039,3.5.19,2.59-1.5141Z"/><path class="cls-1" d="M382.8574,139.7318c2.5245,5.3585,8.4922,6.5919,13.7761,7.7656a225.8239,225.8239,0,0,0,25.7248,4.1634c15.9836,1.6537,31.6994,2.5054,46.7429-3.854,14.2135-6.0085,27.3566-12.3274,37.303-24.4729a64.2713,64.2713,0,0,1,7.6979-8.3354c2.5536-2.1893,5.419-4.0365,7.7306-6.5015,5.4106-5.7694,4.5314-13.3436,7.72-20.1293.8163-1.7373-1.7691-3.2621-2.59-1.5141-2.8042,5.9681-2.2081,13.3315-6.47,18.58-3.8909,4.7915-9.5254,7.8549-13.5756,12.5837-4.847,5.6591-9.2074,11.12-15.4852,15.3176a114.9459,114.9459,0,0,1-17.6418,9.1879c-7.0794,3.1273-14.1477,6.3315-21.944,7.0482a137.5386,137.5386,0,0,1-21.9092-.2565,218.8894,218.8894,0,0,1-24.1184-3.0136c-6.0772-1.106-17.352-1.6769-20.37-8.0829-.8223-1.7454-3.4095-.2243-2.59,1.5141Z"/><path class="cls-1" d="M348.4073,88.3089a57.9853,57.9853,0,0,0,1.6612,26.1268c.5505,1.8456,3.4467,1.06,2.8928-.7976A54.5488,54.5488,0,0,1,351.3,89.1064c.3026-1.8887-2.5878-2.7017-2.8929-.7975Z"/><path class="cls-1" d="M356.586,128.4c-.0477,7.9412,3.9321,14.5975,9.2252,20.2612,5.742,6.144,11.9126,12.2871,18.0185,18.0684,6.2133,5.8828,13.5,7.6988,21.6425,9.5286,9.2113,2.07,18.4428,4.5484,27.8006,5.8648,9.9473,1.3994,18.6478-.3886,28.3816-2.1623,8.0788-1.4721,16.6245-.8375,24.1375-4.622,6.5926-3.3209,11.544-9.0365,16.3774-14.4537,5.0009-5.605,11.8287-10.3244,15.6655-16.7918,9.8918-16.6737,16-37.3776,13.276-56.7539-.2676-1.9039-3.1587-1.0938-2.8928.7975,2.4105,17.1464-2.8505,34.0351-10.3153,49.3084-1.7781,3.638-3.5408,7.0313-6.4584,9.9263-2.427,2.4081-5.0773,4.5505-7.435,7.0385-4.5092,4.7585-8.556,10.0184-13.6,14.2449-6.5416,5.4814-13.7685,6.5909-22.0158,7.3832-8.3664.8037-16.4983,3.5931-24.9146,3.7862-8.6709.199-17.176-1.9568-25.5766-3.8447-8.133-1.8278-17.5668-2.7972-25.1251-6.4693-7.368-3.58-12.39-11.0583-18.25-16.5729-7.1447-6.7237-15.0051-13.9423-14.9414-24.5374a1.5009,1.5009,0,0,0-3,0Z"/><path class="cls-1" d="M536.4293,182.9992c-1.1905,4.6763-4.86,11.35,1.2558,13.62,5.4806,2.0337,12.2682,2.3815,16.4541-2.2591,2.304-2.5543,3.6907-5.9132,5.2338-8.9421l7.0152-13.77c4.2585-8.359,8.4032-16.7891,12.8508-25.05,4.3792-8.1335,9.8144-15.38,14.8018-23.1141,4.4528-6.9047,1.8361-9.2747-4.3225-13.3008-5.8185-3.8038-8.8447-6.4688-13.5879-.1941-4.7828,6.3272-7.1546,14.1814-10.7131,21.198-4.8378,9.5393-10.2827,18.9053-15.9676,27.9623-4.9732,7.9232-10.6816,15.3951-13.21,24.5407a1.5013,1.5013,0,0,0,2.8928.7975c2.212-8,6.9631-14.5757,11.4014-21.4548,4.6963-7.2789,8.97-14.84,13.2014-22.3961,3.9833-7.1131,7.0878-14.5023,10.6471-21.8121,1.7063-3.5043,4.2659-10.5545,9.0943-9.1418,1.7692.5177,4.9229,2.8834,6.3038,4.121,2.8135,2.5219,3.762,4.9226,1.67,8.166-4.4955,6.9711-9.4769,13.4743-13.5116,20.7526-4.2024,7.581-8.0148,15.3859-11.9488,23.1079-3.9541,7.7617-7.6611,15.7345-11.9215,23.3322-2.9235,5.2134-6.9784,6.5247-12.7144,5.3151q-1.1278-.2415-2.24-.5467-2.7209-1.383-1.425-3.7176c.0419-2.0032,1.1373-4.4671,1.6335-6.4163.4765-1.8717-2.416-2.67-2.8928-.7975Z"/><path class="cls-1" d="M597.6623,118.9874c1.4815-7.6226,6.8575-13.0638,10.3478-19.7481,3.7292-7.1417,5.6533-15.0288,9.5332-22.1629,7.2658-13.36,17.12-25.2244,21.6934-39.9351.3641-1.171-1.13-2.484-2.2035-1.694A149.9164,149.9164,0,0,1,614.0771,49.453c-2.8749,1.4065-6.004,2.4087-8.0285,5.014-2.293,2.9508-3.8032,6.7637-5.4937,10.076-4.0908,8.0156-7.9261,16.1627-12.2128,24.0777-4.0587,7.4939-9.7271,14.3475-13.164,22.1105-.7746,1.7495,1.81,3.2778,2.59,1.5141,3.1995-7.2267,8.4774-13.5977,12.3032-20.5334,4.0571-7.3552,7.6816-14.936,11.45-22.44a115.3638,115.3638,0,0,1,5.8163-11.1758c2.47-3.8,5.9305-4.8644,9.8614-6.8514a150.7925,150.7925,0,0,0,21.3485-13.2067l-2.2035-1.6939c-4.8605,15.6348-15.8885,28.04-23.1114,42.515-3.498,7.01-5.27,14.8322-9.3434,21.5246-3.5288,5.7971-7.7938,10.9847-9.12,17.8065-.3666,1.8861,2.5242,2.6938,2.8928.7975Z"/><path class="cls-1" d="M551.1067,88.8086a237.631,237.631,0,0,1,18.6884,30.8442c.8727,1.7227,3.4618.2059,2.59-1.5142a237.6378,237.6378,0,0,0-18.6884-30.8442c-1.1131-1.5572-3.7161-.0608-2.59,1.5142Z"/><path class="cls-1" d="M582.6339,141.4221c7.3145,8.677,11.0211,20.1737,15.4591,30.4625l2.0523-2.0523c-4.456-2.6643-6.4283-9.1813-9.2805-13.3343a71.895,71.895,0,0,0-9.656-11.25c-1.3955-1.3343-3.52.7839-2.1214,2.1214A67.4336,67.4336,0,0,1,591,162.33c2.1947,3.7941,3.7306,7.7612,7.6308,10.0933,1.4078.8417,2.6048-.7716,2.0523-2.0523-4.5683-10.5909-8.4017-22.1413-15.9282-31.07-1.2459-1.478-3.3588.6533-2.1213,2.1213Z"/><path class="cls-1" d="M566.1706,130.15c-6.1983-10.3173-13.34-20.5269-18.2972-31.5149l-1.2953,2.257a90.7978,90.7978,0,0,0,11.6279.3684c1.9257-.0619,1.9342-3.0622,0-3a90.8094,90.8094,0,0,1-11.6279-.3684c-1.2494-.12-1.7114,1.3345-1.2952,2.2571,4.957,10.988,12.0993,21.1982,18.2973,31.5149a1.5011,1.5011,0,0,0,2.59-1.5141Z"/><path class="cls-1" d="M552.0018,88.0034c15.1775.7529,29.3236-4.6712,43.1378-10.3238,1.7628-.7213.9913-3.6248-.7975-2.8929-13.5659,5.551-27.422,10.9568-42.34,10.2167-1.93-.0957-1.9247,2.9045,0,3Z"/><path class="cls-1" d="M621.0873,74.1285c8.31-2.4778,16.9351-2.3817,25.2557-5.2272,8.2158-2.81,16.128-6.31,24.7862-7.577l-1.8452-1.8452c-1.008,5.1841-5.1306,9.6792-8.1211,13.9228-3.2177,4.566-6.4545,9.1185-9.6692,13.6867-6.2456,8.8752-12.416,17.81-18.1983,26.9957-5.6445,8.9672-10.5,18.3763-16.02,27.4116-5.8424,9.5626-12.4824,18.6062-19.1022,27.6373-1.1426,1.5588,1.46,3.057,2.59,1.5141,6.62-9.0311,13.26-18.0745,19.1022-27.6373,5.8442-9.5656,10.9929-19.5158,17.0145-28.9826,5.8261-9.1594,12.0218-18.0767,18.2763-26.9468,3.2189-4.5651,6.4555-9.1176,9.6685-13.6867,2.8753-4.0889,6.3758-8.0974,7.3518-13.1173a1.5253,1.5253,0,0,0-1.8451-1.8452c-8.6607,1.2671-16.568,4.7666-24.7862,7.5771-8.2978,2.8377-16.955,2.7522-25.2557,5.2272-1.8457.55-1.06,3.4465.7975,2.8928Z"/></g></svg>