<svg xmlns="http://www.w3.org/2000/svg" viewBox="0 0 516 397"><defs><style>.cls-1{opacity:0.42;}.cls-2{fill:#cf9a84;}.cls-3{fill:#373374;}</style></defs><title>draw</title><g id="圖層_1" data-name="圖層 1"><g class="cls-1"><path class="cls-2" d="M258.9922,77.6915c-.7016-5.4692-1.3616-11.2563.8544-16.3055,1.9383-4.4161,5.8-7.6245,8.9976-11.2352a61.7411,61.7411,0,0,1,5.2824-5.81A35.5311,35.5311,0,0,1,281.761,39.64c5.3787-2.6994,11.09-5.3887,17.1012-5.0985a10.4351,10.4351,0,0,1,6.8449,2.561c3.1873,3.1042,2.7352,8.7148-.1021,12.1419s-7.3931,4.98-11.818,5.4437c-5.4514.5716-11.3857-.1579-16.0194,2.77-2.7833,1.7587-4.6652,4.6038-6.4617,7.3628l-8.8076,13.5266c-.3984.6118-1.0025,1.3091-1.7068,1.1167a1.6747,1.6747,0,0,1-.8822-.836,16.5275,16.5275,0,0,1-2.3846-7.5432"/><path class="cls-2" d="M416.8446,100.0505a4.8084,4.8084,0,0,0,5.0262-1.2729,7.4257,7.4257,0,0,0,1.5141-3.06,22.9693,22.9693,0,0,0-.3106-12.1058,61.5829,61.5829,0,0,0-4.6926-11.3006,52.6678,52.6678,0,0,0-4.3229-7.49,37.0365,37.0365,0,0,0-4.1-4.654A54.5957,54.5957,0,0,0,373.4463,44.818a7.53,7.53,0,0,0-3.9116.6668,7.3609,7.3609,0,0,0-2.743,3.5654c-1.3554,2.9729-2.3523,6.28-1.7217,9.4859a16.0428,16.0428,0,0,0,3.5111,6.693,17.0453,17.0453,0,0,0,5.7536,5.0132c2.1666,1.0318,4.6031,1.298,6.9462,1.8164a64.0925,64.0925,0,0,1,7.7742,2.4267,18.3306,18.3306,0,0,1,7.8482,4.615c3.3787,2.9717,6.7912,5.9806,9.3793,9.6615,2.9418,4.1839,5.12,9.4828,9.8505,11.4281"/><path class="cls-3" d="M416.4458,101.4969c12.7136,2.3448,8.8737-17.2061,6.2031-23.5956-5.4472-13.0326-13.59-23.0135-26.5273-29.14a56.5446,56.5446,0,0,0-17.8243-5.1077c-5.5769-.6307-10.0985-.8739-12.8008,4.64-2.6,5.3048-2.8561,10.8255.4365,15.8344,3.61,5.4911,7.7417,7.8277,14.0646,9.1989a49.2434,49.2434,0,0,1,11.376,3.7374c3.9988,1.9912,7.6032,5.6077,10.6342,8.8678,4.6521,5.0036,6.9805,12.3822,13.3683,15.5536,1.7238.8558,3.2453-1.7309,1.5141-2.59-5.3677-2.665-7.43-8.7807-11.0918-13.1909-3.3415-4.0243-7.72-8.5054-12.3648-11.0038-5.3928-2.9005-11.4-3.2513-17.03-5.258-7.976-2.8427-13.1409-13.6906-7.6191-21.009,3.7041-4.9094,15.2678-1.0031,20.1682.6452a52.746,52.746,0,0,1,17.5557,9.9571c5.1036,4.4033,8.4342,9.5987,11.3589,15.6014,1.728,3.5466,10.1486,25.954-.6238,23.9673-1.8873-.3481-2.6965,2.5425-.7975,2.8928Z"/><path class="cls-3" d="M385.5342,374.09l-.8721-.0312c-.2871-.0108-.4892-.0181-.6914-.0332-.9111-.0664-1.9453-.1421-2.3643-.9654-.42-.8212.1221-1.6962.6006-2.4677.0371-.06.0772-.12.1192-.1792a1.424,1.424,0,0,1-.3858-1.4644,1.2375,1.2375,0,0,1,.085-.1919l-.0195-.0161a1.6248,1.6248,0,0,1,.0654-2.3472,1.6148,1.6148,0,0,1,1.3252-.2392l.0029.0307a2.932,2.932,0,0,1,1.1279.1011,2.4267,2.4267,0,0,0,.3487.0708c.0088-.0034.0674-.0166.122-.0268a1.5351,1.5351,0,0,1,1.9629.9174,2.03,2.03,0,0,1,.0645,1.272l.56.0982-.6065.0547a2.7824,2.7824,0,0,1-.4131.7719,1.3116,1.3116,0,0,1,.5332,1.6836,2.0127,2.0127,0,0,1-.167.3174,1.5786,1.5786,0,0,1,.42,1.0107,1.4888,1.4888,0,0,1-.3643,1.18,1.5844,1.5844,0,0,1-1.2422.4292l-.1318.001c-.0235.0015-.0469.0024-.07.0034Zm-.3135-1.0112.02.5-.0127-.499h.0088Zm-.3486-.0127.0947.0029-.2676-.01c-.0488-.0015-.0957-.0034-.1406-.0049.042.0015.0859.0029.1309.0049Zm.8379-.0019c-.0557,0-.0928.0009-.13.0024l-.0186.001.1934-.0025c.0342.001.07-.0014.1035.0015l-.0273-.0015C385.7822,373.0649,385.7432,373.0645,385.71,373.0645Zm-2.0948-.0718c.0889.0088.18.0166.2735.0244C383.791,373.0088,383.6992,373.001,383.6152,372.9927Zm2.6729-.7432.0156.042a.8458.8458,0,0,1,.0488.2329l.003.0352-.002-.0279A.77.77,0,0,0,386.2881,372.25Zm-1.8057-1.0112a.808.808,0,0,0-.083.0039.48.48,0,0,0-.3955.5576c.0107.1128.0215.252.4678.23.22.0044.3808-.0034.5459-.0117l.1387-.0064-.128.002-.0058-.1792.0009-.0025-.0088-.3183.3545-.1773c-.0312.0044-.0634.0078-.0957.01a1.6512,1.6512,0,0,1-.4228-.0547A1.7317,1.7317,0,0,0,384.4824,371.2383Zm-1.5361.062c-.1172.1914-.2217.373-.3047.54C382.7139,371.6968,382.8125,371.521,382.9463,371.3Zm2.9033-.1489a1.0787,1.0787,0,0,1-.4189.1748l.27-.0645Zm.0137-.01.001.002a.9225.9225,0,0,0,.2392-.2583l-.0195.0288A.94.94,0,0,1,385.8633,371.1416Zm-2.7149-.1587c-.03.043-.0576.0835-.083.1235Zm1.292-.7554v.0113h.0049Zm-.8056-1.2539h-.001a2.33,2.33,0,0,0-.38.06l.1836-.0361C383.4922,368.9893,383.5586,368.9805,383.6348,368.9736Zm.3789-.0312-.2158.0195C383.877,368.9565,383.9492,368.9507,384.0137,368.9424Zm2.0215-.5952.0019,0a1.0673,1.0673,0,0,0,.02-.6553A1.0916,1.0916,0,0,1,386.0352,368.3472Zm-3.0987-1.2378a.3848.3848,0,0,0-.248.0713c-.0322.0249-.1309.102-.1494.37-.0225.3125.082.4014.1162.43.1367.1181.3642.0766.6045.02.082-.0191.1318-.03.1738-.0357a1.5454,1.5454,0,0,1,.4365.0035l.3067.0537-.69-.7989,1.2481.1245.0107.001a3.46,3.46,0,0,1-.4219-.083,2.106,2.106,0,0,0-.7627-.0986.6992.6992,0,0,1-.29-.0191A2.0749,2.0749,0,0,0,382.9365,367.1094Zm2.5557.1635a.5661.5661,0,0,1,.4414.1827l.0508.0561c-.1006-.1919-.2471-.2583-.5313-.2378Zm-.2881.0367-.002,0c-.07.0131-.1308.0239-.1855.0317.0654-.0083.126-.02.1826-.0313Z"/><path class="cls-3" d="M374.6279,374.605a3.48,3.48,0,0,1-.9824-.1748,2.8641,2.8641,0,0,0-.3916-.0977,2.2314,2.2314,0,0,1-2.1924-2.4448,5.7407,5.7407,0,0,0-.1455-1.0176c-.0527-.2524-.1006-.4995-.1367-.7471a2.9092,2.9092,0,0,1,.3594-2.3413,2.8384,2.8384,0,0,1,2.1953-.7558l.1621-.0093c.1953-.01.3779-.019.5615-.0107a1.2855,1.2855,0,0,1,1.5,1.249,1.5243,1.5243,0,0,1-.2314.9775,1.6246,1.6246,0,0,1,1.0029,2.6621,1.3524,1.3524,0,0,1-.249.2051,1.6424,1.6424,0,0,1,.08,1.3643A1.5215,1.5215,0,0,1,374.6279,374.605Zm.3379-1.08-.0683.0317a.4219.4219,0,0,1-.0616.0249A.4787.4787,0,0,0,374.9658,373.5249Zm.2881-.5518a1.4719,1.4719,0,0,1-.0469.1866.734.734,0,0,1-.164.2939l-.0537.0547a.6592.6592,0,0,0,.2177-.3486A1.3194,1.3194,0,0,0,375.2539,372.9731Zm-1.8.378c.0273.0044.0547.01.082.0156C373.5088,373.3608,373.4814,373.3555,373.4541,373.3511Zm1.208-2.01c-.2754.001-.5459.0049-.834.0171-.5234.02-.5244.2158-.5254.3589-.0009.2207.13.3193.4961.4863a1.8348,1.8348,0,0,0,.6143.1167l.04.0034.1758-.3584Zm-2.5889.7754v0Zm-.0127-.3062c0,.023.001.0459.001.0694.001.0825.0049.1611.0117.2368q-.01-.1135-.0117-.2373C372.0615,371.8564,372.0605,371.8335,372.0605,371.8105Zm2.877-.47h0Zm.19,0h.0283a1.2667,1.2667,0,0,0,.1289-.0053Zm.5771-.6557.0039.0278c-.0019-.0215-.0049-.0415-.0078-.061Zm-3.8076-2.25c-.2149.2656-.249.688-.127,1.5473.0166.1192.0381.2388.0606.3584-.0225-.1191-.043-.2387-.0606-.3579C371.6494,369.1333,371.6846,368.6973,371.8965,368.4341Zm2.3174,1.6821.0078.002c.124.0273.2539.0478.3847.0634v0C374.4746,370.1655,374.3438,370.1445,374.2139,370.1162Zm-1.2041-.352a.3945.3945,0,0,0,.2539.3227.9671.9671,0,0,0,.4052.04l-.12-.4371-.4961.1944a.7559.7559,0,0,1-.0429-.1192Zm.7548.3545-.0439.0039Zm.2149-.0186c-.0459.002-.0918.0059-.14.0107C373.8916,370.106,373.9365,370.1021,373.98,370.1Zm.3135-1.8-1.083.6733.0224-.0127a1.4849,1.4849,0,0,1,.6944-.11l.1074-.0025a.8072.8072,0,0,0,.3388-.0654Zm-1.6192-.2183a1.1707,1.1707,0,0,0-.7636.3355A1.1929,1.1929,0,0,1,372.6738,368.082Zm1.8174.0948.0674.1323a.4754.4754,0,0,0-.03-.1553Z"/><path class="cls-3" d="M367.5156,375a1.5088,1.5088,0,0,1-.9482-.31,1.9438,1.9438,0,0,1-.6553-1.3735c-.06-.4966-.1318-.9946-.2012-1.4673l-.1074-.7407a6.1416,6.1416,0,0,1,.0225-.6245,3.7447,3.7447,0,0,0,.0224-.56l-.0185-.2134a1.9115,1.9115,0,0,1,1.5674-2.3476l.3086-.0674a2.6431,2.6431,0,0,1,3.0107.7768,3.3419,3.3419,0,0,1,.5947,3.377,2.1087,2.1087,0,0,1-2.0136,1.32c-.0352,0-.07.001-.1.001.002.0474.0069.1064.0157.1777l.0185.105a1.6536,1.6536,0,0,1-.207,1.3433,1.4685,1.4685,0,0,1-1.0244.5825A2.1021,2.1021,0,0,1,367.5156,375Zm-.6006-1.72a1.6537,1.6537,0,0,0,.0762.3384A1.8634,1.8634,0,0,1,366.915,373.28Zm1.1426.0044c.01.0547.0186.1108.0235.1582l.0019.0166C368.0781,373.4043,368.0693,373.3462,368.0576,373.2847Zm-.0195-.1138.0058.0386.003.0161Zm.0117-.8848a1.886,1.886,0,0,0-.0283.7827l.001.004A1.9139,1.9139,0,0,1,368.05,372.2861Zm.7725.4991Zm-2.1133-1.0215c.0469.3208.0947.6523.14.9878C366.8037,372.416,366.7559,372.084,366.709,371.7637Zm2.1963.0073a.9266.9266,0,0,0-.6983.2451A1.0015,1.0015,0,0,1,368.9053,371.771Zm.1054-.002c-.0263,0-.0517,0-.0771.001.0244,0,.0557-.0024.0732-.001h.0039Zm-.5078-.9985a1.4469,1.4469,0,0,0,.1875-.01A.4769.4769,0,0,1,368.5029,370.7705Zm-1.87-.33c-.0029.0274-.0049.0552-.0068.083-.0069.0806-.0127.1524-.0176.2315l.0117-.1548C366.624,370.5449,366.6289,370.4917,366.6328,370.44Zm2.1924.2925h0l-.0029.0005Zm-1.0684-.6435-.0175.1674c-.0039.0357-.0108.0874-.0127.1446Zm-1.123-.3809.0117.1392a2.9217,2.9217,0,0,1,.0029.3335,2.997,2.997,0,0,0-.0019-.3248Zm2.54.4473v0Zm-.0537-.1831.0479.1113-.001-.0112-.0361-.0889C369.13,369.9907,369.127,369.9863,369.12,369.9727Zm-.0644-.1587.0078.0195.0058.0137-.0009-.0015C369.0645,369.835,369.0605,369.8242,369.0557,369.814Zm-.5967-.5806c-.0156,0-.0322,0-.0488.002a.7187.7187,0,0,0-.3711.0922l.0283-.0156a.805.805,0,0,1,.3945-.0737h.0723A.5481.5481,0,0,0,368.459,369.2334Zm.5566-1.0464a1.3978,1.3978,0,0,1,.7188.51c.0136.0166.0273.0332.04.05l-.039-.05A1.38,1.38,0,0,0,369.0156,368.187Zm-1.8662.2241a.829.829,0,0,0-.39.2549A.8519.8519,0,0,1,367.1494,368.4111Zm.6524-.1557c-.0264.0053-.0528.0112-.0791.0175l-.1631.0352.167-.0361Z"/><path class="cls-3" d="M390.4668,372.4429a3.1392,3.1392,0,0,1-3.2432-3.2427c.04-.8833.1221-2.64,2.1172-2.8491a3.6089,3.6089,0,0,1,2.6319,1.0014,3.15,3.15,0,0,1,1.1953,2.1592,2.6492,2.6492,0,0,1-2.5811,2.93Zm-2.2393-3.3325c-.0009.0322-.0029.0644-.0048.0971a2.1327,2.1327,0,0,0,2.2441,2.2354l.0918-.0015c.0576-.0015.1143-.0054.1689-.0117-.0546.0058-.1113.01-.1689.0117h-.0029a2.1605,2.1605,0,0,1-2.3311-2.2666Zm2.1621,1.331h.0069l.0049-.189-.0118,0Zm1.7139-1.2466a1.2162,1.2162,0,0,1,.0645.3448c.0009.0522.0009.104,0,.1547q.0028-.0761,0-.1552A1.2129,1.2129,0,0,0,392.1035,369.1948Zm-2.1562-.6382a1.4877,1.4877,0,0,1,1.0185.7881A1.4683,1.4683,0,0,0,389.9473,368.5566Zm-.6162.6587.0009.0078.0049.0293-.0049-.03Zm-.0079-.0805c.001.0219.003.0439.0059.0664Zm1.669-1.2823a3.8521,3.8521,0,0,1,.3223.2525,3.3337,3.3337,0,0,1,.4492.4761,3.3364,3.3364,0,0,0-.4492-.4766A3.845,3.845,0,0,0,390.9922,367.8525Zm-1.2109.6792.1318.0181c-.0156-.0034-.0313-.0063-.0469-.0088A.6649.6649,0,0,0,389.7813,368.5317Zm-.4532-1.1709a1.1112,1.1112,0,0,0-.8174.4781A1.1393,1.1393,0,0,1,389.3281,367.3608Zm.2578-.0224c-.0332,0-.0664.001-.0986.0034Z"/><path class="cls-3" d="M395.5215,372.2686a3.139,3.139,0,0,1-3.2422-3.2427c.04-.8833.1221-2.6387,2.1172-2.8491a3.6186,3.6186,0,0,1,2.6338,1.0024,3.1505,3.1505,0,0,1,1.1924,2.16,2.6455,2.6455,0,0,1-2.58,2.9282Zm.2939-1.0171q-.0981.0124-.2021.0156l-.0195,0,.0205,0C395.6826,371.2651,395.75,371.26,395.8154,371.2515Zm-2.5332-2.2974c-.0009.0264-.0019.0522-.0039.0791a2.1467,2.1467,0,0,0,1.3721,2.0918,1.981,1.981,0,0,1-.6719-.4116,2.378,2.378,0,0,1-.6982-1.7149C393.2813,368.9839,393.2822,368.9692,393.2822,368.9541Zm2.1631,1.314.0068,0,.0049-.191-.0117,0Zm1.35-1.8931a1.768,1.768,0,0,1,.4278.9907c.0019.0606.0009.12,0,.1782q.0029-.0872,0-.1782A1.768,1.768,0,0,0,396.7949,368.375Zm-1.96-.0171.1338.0176a1.4837,1.4837,0,0,1,1.0908.8769l.0175.0386a1.4818,1.4818,0,0,0-1.1552-.9238A.6122.6122,0,0,0,394.835,368.3579Zm-.4561.604c.001.021.0029.042.0059.0635Zm1.002-1.6445a3.39,3.39,0,0,1,.96.5879A3.3758,3.3758,0,0,0,395.3809,367.3174Zm-1.0039-.1294a1.11,1.11,0,0,0-.8008.4619A1.14,1.14,0,0,1,394.377,367.188Z"/><path class="cls-3" d="M353.7725,374.0361h-.0186a1.5921,1.5921,0,0,1-1.2519-.5034,1.8751,1.8751,0,0,1-.3194-1.5908,1.939,1.939,0,0,0,.0293-.2964,2.2261,2.2261,0,0,1-.0742-.8267l.0049-.1733c-.0117-1.0757-.0117-1.0757-1.0791-1.2529-.4072-.065-1.6045-.2564-1.7119-1.3218l-2.71-.49,2.7754-.1265a1.4483,1.4483,0,0,1,.4277-.6338,1.9915,1.9915,0,0,1,1.5235-.4282,10.608,10.608,0,0,0,1.5341.0185,7.826,7.826,0,0,1,3.3545.3975l1.0118.4121-.5.9717a1.2234,1.2234,0,0,1-.8184.8491c-.6289.1626-.6836.2774-.6523,1.3653a6.7409,6.7409,0,0,1-.0372,1.1528c.0069.0229.0352.1347.0557.2231a1.869,1.869,0,0,1-.1982,1.6817,1.6282,1.6282,0,0,1-1.3438.5722Zm-.0069-1h.0049a.8129.8129,0,0,0,.5088-.1357.8608.8608,0,0,1-.5117.1357Zm-.0927-.0024c.0263.0015.0527.0024.081.0024h.0068Zm-.4971-.9707v0l-.002.0151Zm.0166-.13-.0088.0708Zm1.1025-1.6284c0,.043.002.0859.003.13a5.5656,5.5656,0,0,1-.0284.9809,1.7085,1.7085,0,0,0,.0694.5767,1.6222,1.6222,0,0,1-.0674-.5786,5.821,5.821,0,0,0,.0264-.9785Zm-1.1631.7866a1.0578,1.0578,0,0,0,.042.3008A1.0988,1.0988,0,0,1,353.1318,371.0908Zm-1.7646-2.6611c1.5869.2744,1.7568.5185,1.7754,2.2026v-.0034C353.1221,368.7959,353.1211,368.7236,351.3672,368.43Zm4.4766-.6109-.8536.5469a1.3824,1.3824,0,0,0-.6308.9258,1.5967,1.5967,0,0,1,1.3388-1.2178C355.7451,368.061,355.7988,367.9331,355.8438,367.8188Zm-4.7178-.4409a1.1255,1.1255,0,0,1,.1416.0093,11.4856,11.4856,0,0,0,1.6758.0225c.3632-.0127.73-.0264,1.0966-.0161-.3652-.01-.73.0039-1.09.0156a11.2333,11.2333,0,0,1-1.6953-.0239,1.0874,1.0874,0,0,0-.252-.003l.0733-.0034Z"/><path class="cls-3" d="M378.4756,373.22l-.0283,0a1.6729,1.6729,0,0,1-1.65-1.518,12.1071,12.1071,0,0,1,.1045-3.1783,1.5483,1.5483,0,0,1,1.6865-1.3325c.4189.0195,1.3682.2163,1.3906,1.6333.0039.2881.0156.5747.0274.8613l.0488,1.3916-.084.003c.0039.146.0059.2915.0059.4375a1.7611,1.7611,0,0,1-.462,1.3032A1.4452,1.4452,0,0,1,378.4756,373.22Zm-.0244-.99.0244.49v-.49h-.0244Zm.4863-.3755a.4763.4763,0,0,1-.2578.334.3754.3754,0,0,0,.1367-.0845.5023.5023,0,0,0,.1289-.2471Zm-1.2-.9c.0078.2056.0244.4116.0518.6182a.962.962,0,0,0,.02.1113.9785.9785,0,0,1-.02-.1138C377.7617,371.3647,377.7451,371.16,377.7373,370.9541Zm1.2373.2876h0c-.0039-.208-.0127-.4155-.0215-.6235l-.01-.2369.0058.1358C378.96,370.78,378.97,371.0151,378.9746,371.2417Zm-.041-1.127v0l.0859-.0034Zm.0449-1.2812v.0132c.0039.249.0127.5054.0235.7617l.0009.0269c-.0107-.2642-.0205-.53-.0244-.7955Zm-.8457-.5591c-.0176.01-.0342.021-.0508.0327Zm.3076-.0815c-.0293.0019-.0576.0049-.0849.0092Z"/><path class="cls-3" d="M363.7539,372.6553a1.589,1.589,0,0,1-1.2139-.482,2.0684,2.0684,0,0,1-.3505-1.8,1.5772,1.5772,0,0,0,.0322-.2592,1.7213,1.7213,0,0,0-.0459-.2793,2.26,2.26,0,0,1,.2041-1.9043,1.8767,1.8767,0,0,1,2.6494-.1343,1.713,1.713,0,0,1,.2705,1.5488c-.0068.0361-.0146.0762-.0215.1157l.2539.2662,2.1836-1.189-2.3379,2.0439c.02.0967.042.2051.0567.3223l.0058.0015-.0049.0029a1.52,1.52,0,0,1-.2578,1.1357,1.6073,1.6073,0,0,1-1.2334.6035C363.8779,372.6528,363.8154,372.6553,363.7539,372.6553Zm-.0029-1h0Zm.2314-.0171c-.0254.0039-.0527.0073-.081.01.0293-.0024.0566-.0058.082-.01Zm.3379-1.2959.0039.0425h0Zm-1.2324-1.06c.0166.1035.0381.208.0586.3086a3.1173,3.1173,0,0,1,.0752.4868c.001.03.001.062-.001.0957.002-.0332.002-.0654.001-.0957a3.2164,3.2164,0,0,0-.0752-.4868C363.123,369.4756,363.1035,369.374,363.0879,369.2827Zm1.248.6406.0225.0533-.0273.1421a.5249.5249,0,0,1,.03-.1011l.0264-.0405Zm-.07-.2295a.5193.5193,0,0,0,.0352.1441l.0019.0039-.0136-.04A.659.659,0,0,1,364.2656,369.6938Zm.0752-.666c-.0049.0327-.0107.0645-.0166.0948-.0127.0649-.0254.1308-.0351.1958.0078-.0469.0166-.0962.0263-.149C364.3252,369.12,364.334,369.0728,364.3408,369.0278Zm-.5224-.7163c-.0528,0-.0977.003-.127.0049a.755.755,0,0,0-.44.1416l.0273-.02a.8107.8107,0,0,1,.4121-.1221,1.5469,1.5469,0,0,1,.211-.0015l.0547.0039A1.2722,1.2722,0,0,0,363.8184,368.3115Z"/><path class="cls-3" d="M356.1406,374.8818l.4639-1.49a1.4742,1.4742,0,0,1-.4512-1.8926l.3574-.9912c.2735-.7661.5479-1.5327.8623-2.2832a1.9862,1.9862,0,0,1,1.7549-1.2622,1.5468,1.5468,0,0,1,1.5274.9487c.47.9961.8711,2.0166,1.26,3.0039.1563.397.3125.7945.4727,1.1895l.0518.1724a1.496,1.496,0,0,1-1.1026,1.75,1.553,1.553,0,0,1-2-.7569c-.1484-.2622-.2685-.3481-.2988-.3574.0019,0-.1377-.002-.45.2754a1.524,1.524,0,0,1-1.5274.4346Zm4.13-2.0044a.642.642,0,0,0,.1963.1885l-.0254-.0166A.6627.6627,0,0,1,360.2705,372.8774Zm1.0586-.7285.1338.334-.001-.0024-.0195-.0552C361.4063,372.3364,361.3682,372.2441,361.3291,372.1489Zm-2.02-.1992a1.345,1.345,0,0,1,.6807.4981A1.34,1.34,0,0,0,359.3086,371.95Zm-.2705-.0366a1.745,1.745,0,0,0-1.1143.5273l-.0009.001a1.65,1.65,0,0,1,1.21-.5239C359.1016,371.9146,359.07,371.9131,359.0381,371.9131Zm-1.9561-.043c-.0078.021-.0146.041-.02.0606Zm.21-.58-.18.4952c.0615-.1656.1211-.33.1807-.4947Zm3.2441-1.1381c.1465.3632.29.727.4317,1.0859l.0185.0469-.0019-.0039c-.2315-.5894-.4688-1.19-.7207-1.7881l-1.2471.0434-.4141,1.0987,1.0957.3237-.1142-.51Zm-2.2295-1.5679-.0107.0259c-.2754.6562-.5186,1.3252-.7578,1.9956.2471-.69.4873-1.3482.7578-1.9956l.0107-.0249Zm1.4629-.2056.2608.5728C359.9453,368.7593,359.8584,368.5679,359.77,368.3784Zm-1.0136-.3017a1.07,1.07,0,0,0-.4385.4834h0A1.0963,1.0963,0,0,1,358.7559,368.0767Zm.3955-.1148a.6677.6677,0,0,1,.5693.3179.58.58,0,0,0-.55-.3184Z"/><path class="cls-3" d="M239.698,137.6305a394.0379,394.0379,0,0,1,18.485-67.0754c3.54-9.4449,7.5119-18.9169,13.5078-27.1019,6.6769-9.1146,15.712-15.056,26.2731-18.8282,20.0383-7.1574,42.7773-12.3347,64.0143-8.5915a92.7749,92.7749,0,0,1,48.5631,25.0641c14.8,14.5414,22.0418,33.2934,27.4359,52.9436,5.1868,18.8949,10.096,37.3834,19.1323,54.8869,17.1541,33.2273,43.2472,62.6374,52.9689,99.3749,3.0553,11.5453,5.0384,24.4845,1.8889,36.2111-2.8531,10.6226-10.4778,19.044-20.0209,24.2456-22.1324,12.0636-47.9215,4.2509-67.8912-8.4074-1.6354-1.0366-3.1422,1.5585-1.5142,2.59,17.5211,11.1062,39.1128,18.7,59.8421,12.9087,17.9255-5.0075,31.85-19.0857,33.799-37.9443,2.0631-19.9612-5.2338-40.6088-13.9586-58.2236-9.1974-18.5689-21.0689-35.6233-31.79-53.3105a228.3663,228.3663,0,0,1-25.99-59.7645C438.9205,86.1177,433.9275,65.038,420.641,47.95a95.2106,95.2106,0,0,0-44.9751-31.5421c-21.0493-6.99-42.0028-4.6466-63.1219.8022-11.3859,2.9376-23.1449,6.2118-32.6349,13.466-9.13,6.9786-15.2359,17.0005-19.8655,27.3529C248.9,82.9483,241.7288,110.0519,236.8052,136.833c-.347,1.8874,2.5436,2.6967,2.8928.7975Z"/><path class="cls-3" d="M127.7991,61.0438c2.5349,41.0891,5.4175,82.1743,7.5236,123.2877,1.0452,20.4043,1.5564,40.8826.0837,61.28a260.1311,260.1311,0,0,1-3.9923,30.818c-1.3221,6.8144-3.6666,14.6938-.6163,21.3894,2.963,6.5037,9.9221,8.2369,15.9089,10.9189a67.4421,67.4421,0,0,1,18.4365,12.67c10.6225,9.984,18.9138,22.1006,28.285,33.1954a121.7708,121.7708,0,0,0,15.4981,15.7355c5.4041,4.4393,10.8613,8.4579,18.1654,7.75,9.7754-.9476,19.2221-2.1224,29.0861-1.8489a266.3364,266.3364,0,0,1,31.12,2.971c21.2061,3.101,42.2465,7.5905,63.6614,9.0894,21.9476,1.5362,44.7476-.035,65.4371,8.774.7835.3336,2.0358.1678,2.2035-.8965a619.1144,619.1144,0,0,0,7.57-95.2264,1.5009,1.5009,0,0,0-3,0,613.9576,613.9576,0,0,1-7.4628,94.4289l2.2035-.8964c-16.186-6.8915-33.602-7.7774-50.9552-8.4241-19.7157-.7347-38.9819-3.2141-58.43-6.4632-18.239-3.0471-36.587-6.1817-55.1261-6.4106-4.6326-.0572-9.2676.0683-13.8875.4234-4.6342.3563-9.3744,1.5247-14.0077,1.6081-8.3417.15-16.0366-7.9447-21.5562-13.4919-19.304-19.4006-32.2184-45.9112-58.7051-56.83-4.0361-1.6639-8.6956-3.1868-11.1114-7.142-2.7891-4.5666-1.7837-10.5565-.8335-15.4934,1.7353-9.0164,3.3109-18.0068,4.2695-27.1446,2.031-19.3623,2.0437-38.8761,1.3147-58.3114-1.6985-45.2784-5.293-90.537-8.083-135.7595-.1183-1.918-3.1191-1.9314-3,0Z"/><path class="cls-3" d="M426.8564,290.02v-6.6535a1.5009,1.5009,0,0,0-3,0V290.02a1.5009,1.5009,0,0,0,3,0Z"/><path class="cls-3" d="M430.2251,270.5321a79.5558,79.5558,0,0,1,.4619-13.776c.2306-1.9126-2.7714-1.8959-3,0a79.5469,79.5469,0,0,0-.4619,13.776c.1018,1.9206,3.1025,1.9326,3,0Z"/><path class="cls-3" d="M432.6241,243.9373l11.5011-45.918,5.2713-21.0457,2.8753-11.48c.8045-3.212,2.6056-7.3487,1.8158-10.7346-.84-3.6008-3.9844-4.3062-7.2328-4.7-7.8276-.9485-15.8-1.2165-23.6667-1.7647q-23.6751-1.65-47.3793-2.84-46.4177-2.33-92.9017-2.8946-11.8653-.144-23.7318-.1728c-3.15-.0075-6.339.1428-9.4834-.0176-5.6028-.2858-8.4568-3.7864-12.1148-7.4875a375.366,375.366,0,0,0-30.4318-27.5864,381.7592,381.7592,0,0,0-75.39-47.7027c-1.7324-.8314-3.2559,1.7545-1.5142,2.59a379.8691,379.8691,0,0,1,67.0222,41.1034,373.3686,373.3686,0,0,1,30.8711,26.51c4.3516,4.169,8.3329,9.3119,13.1792,12.879,4.4575,3.281,9.6231,2.7,14.8954,2.7064q89.9858.109,179.8009,6.84c3.2374.2428,14.39-.4454,15.2493,4.0308.6046,3.15-2.0421,9.09-2.8385,12.27l-6.23,24.8722-12.46,49.7445c-.4692,1.8731,2.4233,2.6722,2.8928.7975Z"/><path class="cls-3" d="M326.5649,39.4437c-1.96-13.0013-3.8755-29.52-17.1835-35.6087-5.66-2.5894-11.993-4.8793-18.3082-3.9088-6.5974,1.014-12.78,5.2411-17.9367,9.2849-10.5613,8.2824-10.6831,24.8509-7.5305,36.7865,1.7176,6.5027,4.5851,12.2818,10.6655,15.64A34.9037,34.9037,0,0,0,295.75,65.6352c14.54-1.2141,26.3405-10.888,31.2361-24.4759,1.311-3.639-4.4846-5.2064-5.7857-1.5951a30.1786,30.1786,0,0,1-30.5351,20.1094c-8.01-.5876-15.3583-3.8564-18.1962-11.7576a43.7323,43.7323,0,0,1-1.9467-21.9583c1.2659-7.372,4.8182-11.2818,10.9239-15.26,6.2783-4.0906,12.02-6.1338,19.465-3.7766,7.2935,2.3093,12.4674,5.3327,15.0316,12.8185a122.0045,122.0045,0,0,1,4.8363,21.2992c.5737,3.8053,6.3561,2.1884,5.7857-1.5951Z"/><path class="cls-3" d="M325.8085,35.5465c6.0616-6.4773,15.7372,3.8843,20.4251,7.605,2.9938,2.3761,7.2672-1.8421,4.2427-4.2426-7.6-6.0321-19.6327-17.5191-28.91-7.605-2.6366,2.8174,1.5975,7.0692,4.2426,4.2426Z"/><path class="cls-3" d="M403.7734,25.3673c-4.0468-5.2939-9.6311-7.86-16.1934-8.6648-7.1376-.8753-15.7886-1.0981-22.731,1.103C350.3561,22.4,346.5663,40.92,348.2107,54.1987c.8647,6.9829,3.1414,14.5437,7.6145,20.11,4.4309,5.5135,11.5642,7.9111,18.4774,8,14.8648.1922,27.39-9.97,33.528-22.963,3.2461-6.8714,6.1611-15.6032,4.3058-23.2324-1.8345-7.543-8.004-13.0859-14.79-16.2956-3.4716-1.6421-6.52,3.529-3.0283,5.1808C400.8747,28.1,406.6405,33.31,406.66,41.0839c.0173,6.8377-3.0577,14.3327-6.6344,20.0383-7.0494,11.2454-24.4351,21.1034-36.9953,11.9161-6.1225-4.4784-8.54-14.2081-9.0831-21.3636-.528-6.96.5287-14.6764,4.05-20.8052,4.0976-7.1309,10.9325-8.3673,18.5721-8.5176,7.4554-.1467,16.9652-.5723,22.0227,6.0437,2.3136,3.0267,7.5273.0413,5.1808-3.0283Z"/><path class="cls-3" d="M408.1933,43.5715c9.1887,8.1783,18.3907,16.3547,28.1131,23.9,3.9912,3.0975,10.82,6.3287,13.45,10.6732,2.5316,4.1837.6615,9.6362-3.45,11.9169-3.3771,1.8736-.3544,7.0576,3.0283,5.1809,9.3182-5.17,9.703-17.5742,1.8589-24.1453C444.93,65.85,438.0073,61.3566,431.71,56.1105c-6.5461-5.4527-12.91-11.1181-19.2735-16.7817-2.876-2.56-7.1342,1.6691-4.2427,4.2427Z"/><path class="cls-3" d="M265.7029,23.0407a46.2318,46.2318,0,0,0,11.2728,12.3618c1.2936.9959,3.3472.188,4.1045-1.0762a3.0729,3.0729,0,0,0-1.0762-4.1046,38.25,38.25,0,0,1-9.12-10.2093c-2.03-3.2759-7.2225-.2664-5.1808,3.0283Z"/><path class="cls-3" d="M318.09,74.4616c-2.683-.6566-4.523-4.2587-6.0913-6.32a46.1273,46.1273,0,0,1-4.1806-5.9336c-1.1326-2.1134-1.5151-2.7873-.5232-5.0891,1.0545-2.4473,1.5226-2.2707,3.9932-2.6853A31.065,31.065,0,0,1,319.75,54.32c5.6869.6006,16.573,1.91,13.819,10.0969-2.3041,6.85-9.8294,11.459-16.7774,9.0975-1.8319-.6226-2.6183,2.274-.7975,2.8929,8.2006,2.7871,16.5468-2.2139,19.9345-9.88,1.4971-3.3875,1.6724-7.4807-.7552-10.503C332.56,52.77,327.47,52.49,323.662,51.8635c-5.1176-.8425-20.5411-2.9652-20.5073,5.395.018,4.44,3.1667,8.3361,5.7028,11.6754,2.2672,2.9852,4.5246,7.4634,8.4351,8.4206,1.875.4589,2.6749-2.4334.7975-2.8929Z"/><path class="cls-3" d="M299.7416,72.2781c4,7.8516,8.7263,21.3294,20.021,18.8216C330.8038,88.6482,341.6445,78.9825,349,70.8643c1.2937-1.4278-.8216-3.5557-2.1213-2.1213a75.5565,75.5565,0,0,1-22.47,17.2605c-6.4537,3.1778-11.7348,2.9084-15.8924-3.4437-2.411-3.6836-4.1883-7.8779-6.1843-11.7959-.8766-1.7207-3.4658-.2043-2.59,1.5142Z"/><path class="cls-3" d="M255.2688,70.2091c.1754,3.057.1287,13.0143,4.4051,13.6806,3.9258.6117,9.1529-5.6207,10.4261-8.6547,1.4906-3.552,1.9867-7.02,4.68-10.01a27.0712,27.0712,0,0,1,10.1639-6.6575,116.3229,116.3229,0,0,1,12.2671-3.6678c3.22-.8949,7.5322-1.6433,10.1917-3.8566,3.3294-2.7708,3.1282-9.5485,1.3778-13.15-2.2275-4.5828-9.0332-6.0273-13.6236-5.3131-6.8277,1.0623-14.6468,5.8149-20.3858,9.4309-5.96,3.7551-11.02,8.5083-14.275,14.8142-.8843,1.7129,1.7035,3.2321,2.59,1.5141,5.1457-9.9674,14.9862-15.2726,24.7862-19.8289,5.5773-2.593,17.8662-6.2781,18.8784,3.608a9.1721,9.1721,0,0,1,.06,2.561c-.8034,3.5954-2.79,4.9644-6.0111,6.032-2.6069.864-5.2771,1.5241-7.9261,2.2427-7.7937,2.114-16.0624,4.76-21.2507,11.3809-2.7959,3.5676-2.9159,8.0836-5.3787,11.6862-.8,1.1695-4.3863,5.08-5.9175,4.7132-1.6665-.3987-1.9911-9.3493-2.0586-10.525-.11-1.9193-3.1108-1.932-3,0Z"/><path class="cls-3" d="M298.5029,36.244c-2.431,2.5829-7.24,7.8112-2.6593,10.8055,3.9276,2.5671,8.2735-.5751,11.2329-3.1234,1.4654-1.2619-.6645-3.3758-2.1213-2.1213-1.6386,1.4109-4.05,3.6262-6.437,3.1433-3.7273-.7543.9039-5.3056,2.106-6.5828,1.3226-1.4053-.7948-3.5308-2.1213-2.1213Z"/><path class="cls-3" d="M306.659,56.2l.1673,4.4688a1.5074,1.5074,0,0,0,2.9465.3988,26.1861,26.1861,0,0,1,3.1179-6.1779l-2.7952-.7571a29.3849,29.3849,0,0,1-.7774,8.48,1.5013,1.5013,0,0,0,2.8928.7976A20.2089,20.2089,0,0,1,315.87,56.585l-2.5607-1.0607a21.8763,21.8763,0,0,1-2.1839,7.7643l2.7416,1.1558a28.1035,28.1035,0,0,1,4.4077-7.619l-2.5606-1.0607a29.0985,29.0985,0,0,1-2.5618,11.0437l2.7417,1.1559a43.6271,43.6271,0,0,1,2.8041-9.0362l-2.7953-.757a32.291,32.291,0,0,1-2.2232,13.297l2.8928.7976a37.4572,37.4572,0,0,1,4.87-11.3514l-2.7952-.7571a53.6046,53.6046,0,0,1-2.3656,15.6612l2.9464.3987a60.1361,60.1361,0,0,1,5.9185-20.4633l-2.7416-.3583a102.1277,102.1277,0,0,1,.8873,15.5285c-.0329,1.9415,2.8929,1.9165,3,0a22.4107,22.4107,0,0,1,4.4131-12.2949l-2.7952-.7571a26.1853,26.1853,0,0,1-1.8845,13.51l2.9464.3988a19.9532,19.9532,0,0,1,1.1358-9.8962H327.214a11.2391,11.2391,0,0,1-.7291,7.899l2.7952.7571a11.708,11.708,0,0,1,1.8885-6.9625l-2.3558.3036.195.4724c.0761,1.6114,2.5831,2.1317,2.9464.3987a9.8819,9.8819,0,0,1,1.3465-3.83l-2.7416-.3583c1.04,6.5754-9.128,6.6127-12.762,10.9092l2.3559,1.8177c1.4339-3.0845,2.9879-6.0873,4.6782-9.04l-2.7416-.3584a15.0072,15.0072,0,0,1-1.9541,10.5635h2.5905c-.7683-1.61,6.749-3.2605,7.81-3.8717a6.3143,6.3143,0,0,0,2.2783-2.2727c1.8187-2.9746,1.12-6.4929-.1345-9.5329-.7938-1.9232-1.515-3.08-3.6246-3.5972-4.6732-1.1465-10.5053-.3946-15.3214-.55v3l8.545-.2461a1.5071,1.5071,0,0,0,.3987-2.9464q-3.068-.8324-6.1417-1.643A1.5068,1.5068,0,0,0,315.38,55.54l8.5268,4.8222.757-2.7952-10.2518.9922a1.5078,1.5078,0,0,0-.3988,2.9464,99.5764,99.5764,0,0,0,13.7077,3.9934c2.2.4552,3.56.8285,4.9477-1.02a1.5124,1.5124,0,0,0-.8964-2.2035c-3.5056-1.111-7.1287-1.229-10.7735-1.5025-2.5412-.1906-7.261-1.4709-9.7112-.24-2.6971,1.3549-5.7436,7.46-3.3646,9.914a1.51,1.51,0,0,0,2.507-.6619c.5749-3.6271-1.6811-5.9462-2.4922-9.3457L305.43,61.8983a39.082,39.082,0,0,1,3.7591,5.1305,1.507,1.507,0,0,0,2.7417-1.1559,11.4537,11.4537,0,0,1-.5992-4.8875l-2.7952.757,4.0558,9.5711c.56,1.3214,2.3427.6907,2.7416-.3583,1.2911-3.3949,5.1844-5.5364,8.09-7.4452,1.16-.762,5.8375-4.628,5.17-1.74h2.8929a7.6434,7.6434,0,0,1-.8062-3.1234c-.28-1.9031-3.1715-1.0941-2.8928.7975a7.6432,7.6432,0,0,0,.8061,3.1234c.4814,1.2832,2.5321,1.561,2.8929,0,.8593-3.7181.3525-7.1912-4.1756-4.9406-5.2233,2.5961-12.67,6.7455-14.87,12.5309l2.7416-.3583-4.0558-9.5711c-.6128-1.4462-2.7725-.6065-2.7952.7571a19.4923,19.4923,0,0,0,.7063,5.6851l2.7417-1.1559a43.5453,43.5453,0,0,0-4.2282-5.7376c-1.032-1.19-2.8332.0925-2.5071,1.4594.5906,2.4756,2.8889,5.248,2.4922,7.7507l2.5071-.6619c-1.03-1.0627,2.8-4.9243,3.3682-5.1216,1.0956-.38,4.5221.3393,5.69.4269,3.9733.298,8.05.3262,11.8726,1.5376l-.8965-2.2035c-.3291.4384-7.1581-1.7308-7.6269-1.8628-2.5823-.7267-5.1187-1.5759-7.64-2.4892l-.3988,2.9464,10.2518-.9922a1.5132,1.5132,0,0,0,.7571-2.7952l-8.5267-4.8222-1.1559,2.7416q3.0739.8106,6.1418,1.643l.3988-2.9464-8.545.2461a1.5009,1.5009,0,0,0,0,3l11.6028.3733c2.9028.0934,4.3335.7706,5.2637,3.8159l.2209,3.5824a5.7235,5.7235,0,0,1-5.1046,3.3417c-2.7353,1.3737-7.4293,3.3514-5.5808,7.2249a1.5118,1.5118,0,0,0,2.5905,0,18.1068,18.1068,0,0,0,2.2564-12.8752,1.5154,1.5154,0,0,0-2.7416-.3583c-1.69,2.9519-3.2442,5.9547-4.6782,9.04-.6617,1.4234,1.1712,3.2183,2.3558,1.8178,3.3191-3.9242,8.1652-2.8227,11.7407-5.8279,2.4858-2.0894,2.256-5.072,1.7928-8a1.5143,1.5143,0,0,0-2.7416-.3583,16.7751,16.7751,0,0,0-1.6489,4.5462l2.9464.3988a3.1788,3.1788,0,0,0-1.0737-2.5937,1.5165,1.5165,0,0,0-2.3559.3036,13.2259,13.2259,0,0,0-2.2981,8.4766c.062,1.36,2.1316,2.2033,2.7952.7571a14.8,14.8,0,0,0,1.0316-10.2107c-.373-1.5484-2.4093-1.2948-2.8929,0a21.228,21.228,0,0,0-1.2429,10.6937,1.5083,1.5083,0,0,0,2.9464.3987,27.9279,27.9279,0,0,0,1.9917-14.3076,1.5148,1.5148,0,0,0-2.7952-.757,25.25,25.25,0,0,0-4.8227,13.809h3a107.3163,107.3163,0,0,0-.9945-16.3261c-.1731-1.2745-2.2054-1.4485-2.7416-.3583a64.3873,64.3873,0,0,0-6.3281,21.9775c-.1823,1.7342,2.4716,1.9558,2.9464.3988a56.3069,56.3069,0,0,0,2.4728-16.4587,1.5123,1.5123,0,0,0-2.7952-.7571,39.98,39.98,0,0,0-5.172,12.068,1.5014,1.5014,0,0,0,2.8928.7976,34.6353,34.6353,0,0,0,2.33-14.0946c-.0523-1.3515-2.1582-2.2157-2.7952-.7571a47.2567,47.2567,0,0,0-3.1065,9.7527c-.3108,1.5508,2.0056,2.8057,2.7417,1.1559a33.5077,33.5077,0,0,0,2.9713-12.5579,1.5145,1.5145,0,0,0-2.5607-1.0606,33.3921,33.3921,0,0,0-5.1792,8.9428c-.6145,1.5724,2.0146,2.689,2.7416,1.1559a27.56,27.56,0,0,0,2.5935-9.2785,1.5131,1.5131,0,0,0-2.5607-1.0606,24.3441,24.3441,0,0,0-4.43,8.1485l2.8928.7976a31.9326,31.9326,0,0,0,.8846-9.2773,1.5133,1.5133,0,0,0-2.7952-.7571,28.9869,28.9869,0,0,0-3.42,6.8946l2.9464.3987L309.659,56.2c-.072-1.9245-3.0724-1.9339-3,0Z"/><path class="cls-3" d="M375.8859,48.9413a17.07,17.07,0,0,0-1.6171,8.1069c.024,2.26.0712,4.2066,2.5963,4.8328,5.7538,1.4269,11.2137-2.4474,14.704-6.5413,1.246-1.4614-.8663-3.5933-2.1213-2.1213-2.2877,2.6832-4.8177,4.9737-8.409,5.65-2.102.3956-3.7735.1482-3.7712-2.301a13.1455,13.1455,0,0,1,1.2088-6.1116c.8652-1.72-1.7219-3.2411-2.5905-1.5142Z"/><path class="cls-3" d="M258.9062,81.4938l8.31,9.9752c1.8852,2.263,3.6821,4.99,6.2665,6.5172,5.5592,3.2848,14.632,1.9872,20.7663,1.9922,17.6105.0147,34.45.1382,51.4375,5.4186,23.639,7.3479,58.8965,20.5591,75.4407-6.7366,1.0033-1.6554-1.59-3.1649-2.59-1.5142-16.9017,27.8855-53.9287,10.2472-77.38,3.7862-13.4832-3.7148-27.2109-4.0291-41.1095-3.9734-7.1024.0285-15.3048.9648-22.2742-.5917-4.4014-.9831-6.903-5.18-9.6228-8.4447l-7.1228-8.55c-1.237-1.4848-3.3493.6473-2.1213,2.1214Z"/><path class="cls-3" d="M271.6764,47.6045a73.3319,73.3319,0,0,1,40.6909-17.9864c14.9432-1.5317,30.8295.5117,45.4572,3.6145,14.964,3.1742,27.7739,9.4781,40.48,17.8352,6.3435,4.1722,11.655,8.77,15.3746,15.4915,3.5831,6.475,5.61,13.6734,7.6025,20.757a1.5013,1.5013,0,0,0,2.8929-.7975c-4.04-14.3641-8.8778-27.3313-21.556-36.1687-13.5927-9.4749-27.72-16.5578-43.9965-20.01-15.5844-3.3058-32.6238-5.5211-48.4961-3.4591a76.5907,76.5907,0,0,0-40.5708,18.6025c-1.4547,1.2749.6741,3.39,2.1213,2.1213Z"/><path class="cls-3" d="M391.6326,251.1078c6.51-.5347,13.8048-2.102,20.215-.4883,6.24,1.5708,12.4135,5.2826,18.2584,7.94,3.8933,1.77,16.4286,9.3337,15.5244-.9387-.7267-8.2567-9.9025-13.8058-17.1961-15.1613-10.7177-1.992-21.3008,2.1081-31.5039,4.7979a1.5013,1.5013,0,0,0,.7975,2.8928c8.2159-2.1659,16.5161-5.3188,25.1266-5.2053a23.8643,23.8643,0,0,1,13.04,3.6059,16.8259,16.8259,0,0,1,5.0149,5.0722,11.801,11.801,0,0,1,1.3956,2.8815q.0581,5.7138-3.7,2.64c-7.5777-3.375-15.0152-7.1977-22.7212-10.27-7.8314-3.1228-16.078-1.4378-24.25-.7666-1.9106.157-1.9274,3.1584,0,3Z"/><path class="cls-3" d="M393.8365,249.2924c1.6338-5.7413,16.3259-6.5025,20.809-6.5106a29.8261,29.8261,0,0,1,19.6136,6.7152c1.4679,1.236,3.6006-.8757,2.1213-2.1213-7.1152-5.9908-16.1134-8.21-25.3031-7.4351-6.0681.512-18.1014,1.4126-20.1336,8.5543a1.5013,1.5013,0,0,0,2.8928.7975Z"/><path class="cls-3" d="M396.093,249.0747a29.6676,29.6676,0,0,1,20.5927-5.4208l-.3988-2.9464c-3.51,1.1745-7.0444,2.1692-10.6521,2.9976-1.6281.3739-1.3032,3.0511.3988,2.9464,7.0756-.435,16.63-1.8483,22.8513,2.1619l1.1559-2.7416a98.085,98.085,0,0,0-12.2255-2.536c-2.4858-.3432-5.6667-1.3662-7.8927.1429a1.4955,1.4955,0,0,0-.7429,1.2952c.52,4.82,7.7806,5.5863,11.4777,6.7864,6.3452,2.0595,11.0071,7.2946,17.5621,8.7417a1.52,1.52,0,0,0,1.8988-1.4464,15.2553,15.2553,0,0,0-1.7682-7.576l-1.694,2.2035a4.1572,4.1572,0,0,1,3.8743,3.2711l1.4464-1.1012c-2.3415.0389-7.0008-8.34-8.2468-10.152-.7483-1.0883-2.9857-.86-2.7952.7571a16.8515,16.8515,0,0,0,3.661,8.8817c.9039,1.1546,3.0624-.1008,2.5071-1.4594a28.1192,28.1192,0,0,0-6.1586-9.39,1.5123,1.5123,0,0,0-2.507,1.4595l.76,3.5628,2.2035-1.6939-6.9473-4.802c-1.0491-.7251-2.1216.2846-2.2571,1.2953a8.6191,8.6191,0,0,0,.5,4.5641l2.2035-1.694a18.1986,18.1986,0,0,1-4.1533-2.6178,1.513,1.513,0,0,0-2.5071,1.4594,5.5359,5.5359,0,0,0,1.2963,2.8637l1.694-2.2035-3.2389-1.3481c-1.3716-.571-2.58,1.5845-1.4594,2.507a51.8547,51.8547,0,0,0,14.0584,8.2891,1.5066,1.5066,0,0,0,1.8987-1.4464,7.998,7.998,0,0,0-4.7363-7.1554,1.5069,1.5069,0,0,0-1.8177,2.3559l6.5823,6.8315c1.3421,1.393,3.4619-.73,2.1213-2.1213l-6.5823-6.8316-1.8177,2.3559a4.7355,4.7355,0,0,1,3.25,4.565l1.8988-1.4464a46.94,46.94,0,0,1-12.7346-7.5176l-1.4594,2.5071,3.2389,1.3482c1.196.4978,2.4058-1.1833,1.6939-2.2035l-.9939-2.1471-2.507,1.4594a21.94,21.94,0,0,0,4.7605,3.087c1.0666.5062,2.6882-.3528,2.2035-1.694a5.1762,5.1762,0,0,1-.393-3.7666l-2.257,1.2952,6.9472,4.8019c1.1539.7975,2.455-.5148,2.2035-1.694l-.76-3.5629-2.5071,1.4595a23.9916,23.9916,0,0,1,5.387,8.0665l2.5071-1.4594a12.8956,12.8956,0,0,1-2.7823-6.76l-2.7952.7571c2.1967,3.1951,6.4405,11.7109,10.8372,11.6378a1.5655,1.5655,0,0,0,1.4464-1.1013c1.4764-3.5527-3.1159-6.3308-5.97-6.9614a1.52,1.52,0,0,0-1.6939,2.2035,12.1222,12.1222,0,0,1,1.3586,6.0618l1.8987-1.4464c-6.6716-1.4729-11.719-6.9171-18.3011-8.9716-1.4751-.46-2.9871-.8159-4.4442-1.3344a15.8973,15.8973,0,0,0-3.8934-1.3626q1.7512.1383,3.4956.3448a93.8682,93.8682,0,0,1,13.3694,2.6793,1.5071,1.5071,0,0,0,1.1558-2.7417c-6.8824-4.4364-16.607-3.0485-24.3655-2.5715l.3987,2.9465c3.6072-.8283,7.1419-1.823,10.6522-2.9977a1.5077,1.5077,0,0,0-.3988-2.9464,32.1954,32.1954,0,0,0-22.1069,5.83c-1.5658,1.1038-.0686,3.7062,1.5142,2.59Z"/><path class="cls-3" d="M394.7926,278.9417c17.4685-6.073,35.1074.0834,51.63,6.17l.3987-2.9464c-4.0345-.2592-8.1551-3.0279-12.1243-3.989a88.1354,88.1354,0,0,0-11.675-1.7439c-9.422-.9769-18.8113-1.8211-28.2583-.6752l1.2952,2.257c1.7557-3.93,8.0147-5.3417,11.8235-6.4147a47.5608,47.5608,0,0,1,12.7907-1.7621c7.6129-.0132,24.3622,1.7952,24.5447,12.0183l2.7952-.757-3.4193-6.1984c-.7911-1.434-2.6238-.5978-2.7952.7571a4.9938,4.9938,0,0,0,.3009,3.3634c.4672,1.5525,3.0925,1.3509,2.9464-.3987a12.9343,12.9343,0,0,0-2.4071-6.9112c-.7823-1.1335-2.8806-.8408-2.7952.7571a26.5091,26.5091,0,0,0,1.2722,6.9553l2.7417-1.1559-3.9755-5.86a1.5129,1.5129,0,0,0-2.7952.7571,18.09,18.09,0,0,0,1.02,6.417l2.7417-1.1559-3.764-5.4128a1.5138,1.5138,0,0,0-2.7952.7571l-.2936,4.0742,2.7952-.7571a49.2238,49.2238,0,0,0-4.3905-5.4223,1.5086,1.5086,0,0,0-2.3558.3036,4.06,4.06,0,0,0-.4883,2.6473l2.5607-1.0606a30.8725,30.8725,0,0,1-3.3557-3.3528,1.5115,1.5115,0,0,0-2.5071.6619l-.5427,1.9887,2.5071-.6619c-2.454-2.1824-4.7739-2.15-7.8889-2.5272a1.5058,1.5058,0,0,0-1.4464,1.1013l-.521,1.79,2.2035-.8965a14.7975,14.7975,0,0,1-2.7562-1.736,1.4986,1.4986,0,0,0-1.8177.2345,4.9742,4.9742,0,0,0-1.1646,2.1476l1.8452-1.0477-2.9432-1.2881a1.529,1.529,0,0,0-2.2035.8964,10.3564,10.3564,0,0,0-.9036,2.745l1.8452-1.0477a23.6887,23.6887,0,0,0-6.1044-1.3036c-1.923-.1675-1.9118,2.8335,0,3a19.6684,19.6684,0,0,1,5.3069,1.1965,1.5138,1.5138,0,0,0,1.8452-1.0477,10.358,10.358,0,0,1,.9035-2.7449l-2.2035.8964a19.1422,19.1422,0,0,0,3.66,1.59,1.519,1.519,0,0,0,1.8452-1.0476l.393-.8237-1.8177.2345a14.8,14.8,0,0,0,2.7562,1.7361,1.5188,1.5188,0,0,0,2.2035-.8965l.5209-1.79-1.4464,1.1012c1.898.23,4.2927.3369,5.7675,1.6486a1.5176,1.5176,0,0,0,2.5071-.6619l.5428-1.9887-2.5071.6619a30.8716,30.8716,0,0,0,3.3557,3.3527c.8767.754,2.7047.3468,2.5606-1.0607l.0787-1.1332-2.3559.3036a42.8072,42.8072,0,0,1,3.9214,4.8152,1.5139,1.5139,0,0,0,2.7952-.7571l.2936-4.0742-2.7952.757,3.7639,5.4129c.908,1.3057,3.33.5587,2.7417-1.1558a16.1333,16.1333,0,0,1-.9128-5.62l-2.7952.7571,3.9755,5.86c.9045,1.3333,3.2965.5519,2.7416-1.1558a22.1746,22.1746,0,0,1-1.1651-6.1578l-2.7952.7571a8.4683,8.4683,0,0,1,1.9975,5.397l2.9465-.3988-.1938-2.5659-2.7952.7571,3.4193,6.1983a1.5114,1.5114,0,0,0,2.7952-.7571c-.2043-11.4459-15.2154-14.3041-24.2085-14.9114a50.4064,50.4064,0,0,0-18.5232,2.2395c-4.1038,1.3033-10.1174,3.0626-12.0176,7.3163-.4026.9012.0391,2.4094,1.2952,2.2571,9.4472-1.146,18.8346-.3018,28.2583.6752a68.7466,68.7466,0,0,1,13.3985,2.3295c3.5849,1.1146,6.6162,3.16,10.4008,3.4034,1.7907.1151,1.8922-2.3962.3988-2.9464-17.0313-6.2744-35.2488-12.42-53.225-6.17-1.8123.63-1.033,3.5292.7975,2.8929Z"/><path class="cls-3" d="M401.997,275.4839l12.5277-1.8862c5.855-.8815,10.2086-1.69,14.9951,2.7724l1.4594-2.5071a75.23,75.23,0,0,1-11.9952-2.6851c-1.8486-.5747-2.6355,2.3152-.7976,2.8928,3.4638,1.0885,6.9486,2.09,10.4789,2.9412,1.476.356,5.2317,1.9539,6.8539,1.0946,3.7619-1.9927-1.9767-4.5619-2.0821-6.0827l-1.1013,1.4464a9.08,9.08,0,0,1,2.7636-.25,1.5009,1.5009,0,0,0,0-3,9.4963,9.4963,0,0,0-3.5611.3572,1.5406,1.5406,0,0,0-1.1012,1.4465,4.639,4.639,0,0,0,.7867,2.39c.2886.4668,2.9744,3.0108,1.9945,1.284-.8926-1.573-4.4865-1.7465-6.3944-2.2441-2.635-.6872-5.2424-1.46-7.84-2.276l-.7976,2.8928a75.21,75.21,0,0,0,11.9953,2.6851c1.345.1882,2.6764-1.3723,1.4594-2.5071-3.3813-3.1527-6.26-4.915-10.9854-4.5656-6.4782.479-13.032,1.9407-19.4563,2.908-1.9026.2864-1.0942,3.1776.7976,2.8928Z"/><path class="cls-3" d="M402.2927,303.2573c3.0069-8.7925,13.1625-10.6029,21.27-11.339,3.7282-.3385,7.4764-.429,11.2178-.4711,5.2055-.0585,9.0606.38,11.6315,5.7194l.8965-2.2035c-7.013,2.7917-15.7389,1.6583-23.1765,2.5619a152.2963,152.2963,0,0,0-22.3532,4.4794l1.8452,1.8452a14.5359,14.5359,0,0,1,3.72-6.0016l-2.5071-.6619-.3375,3.9017,2.59,1.5142a22.0767,22.0767,0,0,1,4.5673-6.091l-2.5071-.6619.5659,2.018a1.5179,1.5179,0,0,0,2.7416.3583l1.13-1.8995h-2.59l.09.8776c-.2285,1.3643,1.3922,2.6515,2.5071,1.4594,1.0268-1.0978,2.7467-3.5533,4.0416-4.197q.8586-1.8036.7915-.0557a5.6166,5.6166,0,0,0,.5185,1.0273,1.5106,1.5106,0,0,0,2.0523.5382l2.0137-1.3956-2.0523-.5382.2139,1.1919a1.5109,1.5109,0,0,0,2.7952.7571c.8663-1.7677,2.8059-3.393,3.64-.9235a1.52,1.52,0,0,0,2.7416.3583l3.2808-.7688a1.5112,1.5112,0,0,0,2.257,1.2952l1.7823.3a1.4744,1.4744,0,0,0,1.46.3857l2.517.2226a1.5288,1.5288,0,0,0,2.2035-.8965l1.4038-2.4275-2.5606-1.0607.2547,2.0034,1.5-1.5c-3.1338-.1108-5.1873-3.1916-8.3243-3.5575-2.8288-.33-5.6219.8858-8.2557,1.7092a146.446,146.446,0,0,1-25.27,5.4985l.3988,2.9465a225.7209,225.7209,0,0,1,31.625-2.27,1.5009,1.5009,0,0,0,0-3A231.3721,231.3721,0,0,0,402.2,296.6832c-1.6548.2377-1.2807,3.16.3987,2.9464a149.02,149.02,0,0,0,22.4705-4.521c4.0721-1.1719,8.4516-3.5028,12.7421-2.0138,2.64.9163,3.6188,2.7779,6.6374,2.8846a1.5039,1.5039,0,0,0,1.5-1.5l-.2547-2.0034c-.1391-1.0937-1.659-2.2226-2.5607-1.0607a15.2749,15.2749,0,0,0-2.1754,3.7514l2.2035-.8964c-2.2136-1.1831-6.5918-2.3343-8.787-.9086l2.2571,1.2952c.1254-6.0913-6.5733-4.3678-8.8712-.7453l2.7416.3583c-.572-1.6938-.9166-4.6014-3.0985-4.9361-2.678-.4108-5.0864,3.2283-6.0247,5.143l2.7952.757a4.2756,4.2756,0,0,0-.6235-2.706,1.5073,1.5073,0,0,0-2.0522-.5381l-2.0138,1.3955,2.0523.5382c-.78-1.4207-.3963-3.3455-2.6281-3.3258-2.5375.0224-5.9567,4.3632-7.4352,5.944l2.5071,1.4594a4.3332,4.3332,0,0,0-.3925-3.1892c-.4593-1.08-2.0711-.873-2.59,0l-1.13,1.8994,2.7416.3583-.5658-2.018a1.516,1.516,0,0,0-2.5071-.6619,24.1856,24.1856,0,0,0-5.0364,6.6982c-.8811,1.708,1.6308,3.2034,2.59,1.5142a6.8,6.8,0,0,0,.64-6.2134,1.517,1.517,0,0,0-2.5071-.6619,17.7391,17.7391,0,0,0-4.4919,7.3254,1.5122,1.5122,0,0,0,1.8452,1.8451,146.0292,146.0292,0,0,1,25.27-4.7749c6.6372-.628,13.9658.2389,20.2594-2.2664a1.5318,1.5318,0,0,0,.8964-2.2035c-1.8209-3.7821-3.9317-6.3124-8.2294-7.0087-6.0521-.9806-13.0149-.2143-19.07.4617-9.1278,1.019-19.0328,3.7915-22.3033,13.3543-.6261,1.8308,2.2707,2.6169,2.8929.7976Z"/><path class="cls-3" d="M423.599,278.55a41.2258,41.2258,0,0,1,.5208,6.48,1.5009,1.5009,0,0,0,3,0,46.2919,46.2919,0,0,0-.628-7.2774c-.3107-1.9007-3.2021-1.0942-2.8928.7975Z"/><path class="cls-3" d="M54.9449,174.271c-4.2985,1.2045-4.5489,7.8224-5.5395,11.4509-1.74,6.3736-.3685,9.6788,2.6587,15.3369,6.3046,11.784,12.1874,24.5239,20.2886,35.2062,7.0079,9.2408,16.7318,15.5255,27.0852,20.464,10.2236,4.8765,22.3937,11.4543,33.9745,10.7435,1.9181-.1177,1.9314-3.1185,0-3-10.33.6341-21.0844-5.114-30.2609-9.3111-9.0543-4.1412-17.9309-9.1324-24.8258-16.44-7.35-7.79-12.1156-17.9561-17.22-27.2673-2.6338-4.8043-5.3135-9.5966-7.8174-14.47-2.0657-4.021-1.8956-7.1645-.744-11.3459.4237-1.5385,1.26-7.9308,3.1982-8.4741a1.5013,1.5013,0,0,0-.7975-2.8928Z"/><path class="cls-3" d="M54.3578,178.5771c7.3457-2.8991,15.089.768,22.0837,3.158,6.7967,2.3224,13.5988,4.6474,20.522,6.57,12.765,3.5449,25.7782,5.4624,38.9882,3.6489,1.9042-.2615,1.0936-3.1525-.7975-2.8929-15.1774,2.0837-30.1375-1.26-44.5715-5.7821-6.5477-2.0515-12.9949-4.3973-19.5131-6.5365-5.8059-1.9055-11.6174-3.3835-17.5093-1.0581-1.7751.7005-1.0018,3.6029.7975,2.8928Z"/><path class="cls-3" d="M55.2681,174.8073c-6.9681-2.57-10.439-11.5555-11.4088-18.3263a30.3554,30.3554,0,0,1,4.0084-19.8867c1.7207-2.8809,4.4955-4.91,6.26-7.6459a3.2627,3.2627,0,0,0,.725-2.9951c-.9845-3.1063-4.8864-1.8414-7.0849-.8969-9.8918,4.25-14.3854,18.1769-15.02,28.0516-.7157,11.134,10.19,20.2311,18.2262,26.3034l.7571-2.7952c-3.3184.0872-6.3535-10.9508-6.9543-13.1836a45.4168,45.4168,0,0,1-1.4288-13.4941l-2.9464.3988a69.6965,69.6965,0,0,0,15.8373,25.2148l1.4594-2.5071c-6.0672-1.3638-9.1684-6.4911-12.0036-11.5492l-2.0523,2.0523a22.9654,22.9654,0,0,1,5.7139,6.2932l1.6939-2.2035c-5.5257-1.9654-7.9975-7.5576-10.0508-12.62a1.5079,1.5079,0,0,0-2.9465.3987,15.1679,15.1679,0,0,0,1.8619,7.7954l2.0523-2.0523a6.2992,6.2992,0,0,1-3.2085-3.5852l-2.59,1.5142a33.6652,33.6652,0,0,0,4.0931,6.0888c.9607,1.1514,2.97-.08,2.5071-1.4594l-4.7129-14.0487-2.8929.7976a42.8217,42.8217,0,0,1,2.68,9.98l2.7416-1.1559a24.9129,24.9129,0,0,1-2.5637-10.7645l-2.9464.3988,1.2884,6.5236c.3267,1.6543,3.0291,1.2864,2.9464-.3988a30.9856,30.9856,0,0,1,1.79-12.1688H38.2066a9.83,9.83,0,0,1,.4557,4.62h3l-.1541-10.7627c-.0234-1.6307-2.62-2.1138-2.9464-.3987a121.4545,121.4545,0,0,1-3.8887,15.0947l2.8929.7975a71.2257,71.2257,0,0,1,7.5825-16.2276l-2.7952-.757a22.7735,22.7735,0,0,1-2.3319,12.8557l2.7416.3583c-2.0361-5.6871,2.2793-14.801,6.9328-18.3309,1.5186-1.1519.0255-3.7583-1.5141-2.59C42.4173,131.9119,37.3,142.0781,39.87,149.2583c.4,1.1174,2.12,1.5992,2.7416.3583a25.615,25.615,0,0,0,2.7415-14.37,1.5135,1.5135,0,0,0-2.7952-.7571,74.3593,74.3593,0,0,0-7.885,16.9442c-.593,1.8436,2.2946,2.6262,2.8929.7975a121.4467,121.4467,0,0,0,3.8886-15.0947l-2.9464-.3988.1541,10.7627a1.5009,1.5009,0,0,0,3,0,16.5076,16.5076,0,0,0-.5629-5.4173,1.5136,1.5136,0,0,0-2.8928,0A32.9452,32.9452,0,0,0,36.309,155.05l2.9464-.3987-1.2884-6.5236c-.33-1.671-2.979-1.2736-2.9464.3987a28.6752,28.6752,0,0,0,2.9733,12.2787c.8087,1.6649,2.963.3782,2.7417-1.1559a42.8246,42.8246,0,0,0-2.68-9.98c-.7005-1.7464-3.52-1.07-2.8929.7976l4.7129,14.0486,2.5071-1.4594a28.9969,28.9969,0,0,1-3.624-5.4817c-.9-1.7241-3.4222-.209-2.59,1.5142a10.222,10.222,0,0,0,4.2847,4.6615,1.512,1.512,0,0,0,2.0523-2.0523,12.114,12.114,0,0,1-1.4523-6.2813l-2.9464.3988c2.5136,6.1972,5.4765,12.3431,12.1462,14.7155a1.5146,1.5146,0,0,0,1.694-2.2035,27.1964,27.1964,0,0,0-6.79-7.37c-1.2625-.9591-2.7264.85-2.0523,2.0522,3.2659,5.8265,6.8854,11.3745,13.7965,12.928a1.5121,1.5121,0,0,0,1.4594-2.5071A66.048,66.048,0,0,1,43.2944,149.54a1.5075,1.5075,0,0,0-2.9464.3988A47.5722,47.5722,0,0,0,43.7318,169.7c1.3523,3.3146,3.5395,10.0333,7.9993,9.9161a1.5143,1.5143,0,0,0,.7571-2.7952,67.192,67.192,0,0,1-12.5313-12.1569c-4.8184-6.1694-4.6356-11.8464-2.6246-19.15,1.6626-6.038,3.8671-12.7168,9.3122-16.4206.9419-.6408,3.27-2.5361,4.12-1.5723.5513.6247-.5211,1.136-1.1724,1.8338a33.9909,33.9909,0,0,0-3.9124,5.0853,33.5517,33.5517,0,0,0-4.5111,24.24c1.4829,7.56,5.66,16.2,13.3021,19.019,1.8139.6691,2.5965-2.2293.7975-2.8929Z"/><path class="cls-3" d="M60.5976,119.5586c-3.979.11-8.6128,1.1925-11.1572,4.5453-2.258,2.9755-2.5995,7.9757-1.8028,11.5106.8887,3.943,5.2821,5.7775,8.9214,6.4709a18.0468,18.0468,0,0,0,12.84-2.4347c1.6493-.9988.1432-3.594-1.5142-2.59a15.17,15.17,0,0,1-8.5017,2.34c-2.7689-.0809-7.5885-1.07-8.7584-4.0227-.8568-2.163-.3172-6.93.7827-8.8385,1.7568-3.048,6.0164-3.8926,9.1907-3.9806,1.9266-.0535,1.9344-3.0537,0-3Z"/><path class="cls-3" d="M62.3511,139.3405c-1.1317-1.4787-2.6174-3.4047-2.4013-5.417L58.8485,135.37c6.7246-2.1914,7.6176,15.8275,7.7144,18.8617.2255,7.0667-.9583,14.0075-6.1174,19.191a1.5008,1.5008,0,0,0,2.1213,2.1213c7.4681-7.5034,7.6882-18.2819,6.4427-28.2072-.5965-4.7538-3.3625-17.335-10.9585-14.86a1.5707,1.5707,0,0,0-1.1012,1.4464c-.272,2.5325,1.3411,5.0108,2.8109,6.9311,1.1576,1.5125,3.7645.02,2.59-1.5141Z"/><path class="cls-3" d="M58.1367,140.12c2.582,5.2464,2.58,11.5736,2.2,17.3217-.3831,5.7929-3.6417,10.6006-6.3227,15.59-.9137,1.7,1.6753,3.2173,2.59,1.5142,2.9779-5.5421,6.3259-10.6836,6.7323-17.1043.4043-6.3887.2588-13.0083-2.6092-18.8358-.8524-1.7322-3.4407-.2137-2.59,1.5141Z"/><path class="cls-3" d="M58.3348,172.9155a8.4266,8.4266,0,0,0,1.4315-2.3567l-2.3559.3036.6611.7635c.92,1.0631,2.4716.1287,2.5607-1.0607a9.2731,9.2731,0,0,1,1.0425-4.2012H58.7819a19.12,19.12,0,0,1,.5589,5.0385,1.5009,1.5009,0,0,0,3,0l-.0073-2.48a1.5115,1.5115,0,0,0-2.7952-.7571l-2.1918,4.015,2.7416.3583.6966-4.1161-2.507-.6619.7629,1.8947a1.5079,1.5079,0,0,0,2.9464-.3987,54.3,54.3,0,0,1,1.2-8.0037H60.2944A18.7085,18.7085,0,0,1,61.3618,165c.3222,1.7884,2.7888,1.1545,2.9464-.3987l.6488-6.3944h-3l-.0129,7.8981c-.0033,1.9847,2.7687,1.8607,3,0l1.2208-9.8243-2.9464.3988,1.2829,3.0994c.5985,1.4459,2.9891,1.44,2.9464-.3988a56.8373,56.8373,0,0,0-1.844-13.1814c-.3515-1.3478-2.6492-1.5093-2.8929,0a10.532,10.532,0,0,0,.5775,6.1137c.6947,1.7576,3.5418,1.0522,2.8928-.7975l-5.1927-14.801c-.635-1.81-3.5344-1.0309-2.8929.7976l5.1928,14.8009,2.8928-.7975a6.62,6.62,0,0,1-.5774-4.5187H62.7109A53.4656,53.4656,0,0,1,64.4478,159.38l2.9464-.3988-1.2829-3.0993a1.5083,1.5083,0,0,0-2.9464.3987l-1.2208,9.8243h3l.0129-7.8981c.0032-1.9677-2.8089-1.8836-3,0l-.6488,6.3944,2.9464-.3988a18.7111,18.7111,0,0,0-1.0673-3.7467c-.4969-1.2559-2.5349-1.5846-2.8929,0a59.6287,59.6287,0,0,0-1.3074,8.8012l2.9465-.3988-.763-1.8947c-.366-.9089-1.7308-1.6546-2.5071-.6619a7.2306,7.2306,0,0,0-1.4682,7.0349,1.5176,1.5176,0,0,0,2.7417.3583l2.1918-4.0149-2.7952-.7571.0073,2.48h3a33.0324,33.0324,0,0,0-.6661-5.836c-.3265-1.6189-2.39-1.2135-2.8928,0a15.0029,15.0029,0,0,0-1.15,4.9987l2.5606-1.0606-.661-.7635a1.5088,1.5088,0,0,0-2.3559.3036,8.4261,8.4261,0,0,1-1.4315,2.3566c-1.1359,1.5644,1.4657,3.0631,2.59,1.5142Z"/><path class="cls-3" d="M62.0542,120.12c.1336-3.1258.7847-6.5013,3.0207-8.8677,2.1294-2.2537,5.3067-2.7433,8.1813-3.426,6.5564-1.5572,13.2789-3.64,20.0263-4.072,6.1413-.3934,14.6685.4026,20.128,3.5393,6.7909,3.9017,6.7474,12.9,4.989,19.49-1.4852,5.5659-3.549,12.7387-8.0569,16.5666-5.6721,4.8165-13.4941,6.9186-20.554,4.377-5.8918-2.1211-13.0586-5.0921-18.1386-8.7859-4.9362-3.5893-9.1466-12.0934-9.09-18.1037a1.5009,1.5009,0,0,0-3,0c-.055,5.79,2.9764,11.8745,6.3171,16.5069,3.7058,5.1388,9.7913,7.1927,15.328,9.7967,5.4338,2.5555,10.9343,5.4768,17.1342,4.6922a26.81,26.81,0,0,0,15.616-7.8082c3.8318-4.2032,5.8851-11.0725,7.3366-16.4441,1.4647-5.4208,1.8253-11.3366-.66-16.53-5.1653-10.7905-22.2252-11.4152-32.3987-9.6843-4.4573.7584-8.8523,1.93-13.25,2.9693-3.0058.7107-6.31,1.1589-9.0739,2.609-4.9038,2.5724-6.6322,7.9593-6.8552,13.1745-.0826,1.93,2.9176,1.9265,3,0Z"/><path class="cls-3" d="M68.8649,111.0442c-6.2249,7.6381,7.2054,11.7571,12.549,12.1371,5.6876.4044,11.3392-.8807,16.732-2.5643,4.1114-1.2835,10.08-2.41,12.7373-6.2023,6.2332-8.8945-8.592-10.5452-13.7174-10.479A79.8235,79.8235,0,0,0,78.3,106.93c-4.084,1.058-9.074,1.66-11.4425,5.5388-1.0088,1.6522,1.5847,3.1612,2.59,1.5141,1.6938-2.774,6.8321-3.43,9.65-4.16,3.037-.7874,6.0976-1.5068,9.1927-2.0283a57.63,57.63,0,0,1,9.8045-.8555,41.2638,41.2638,0,0,1,4.6386.2426c3.4033.3994,3.7906-.0013,3.9539,3.88.1638,3.8947-.32,3.5056-3.5293,4.7165-1.0893.4111-2.2065.7679-3.3111,1.136a78.9472,78.9472,0,0,1-8.397,2.4181,35.3262,35.3262,0,0,1-10.0355.8495c-1.879-.1422-14.1685-2.4257-10.4277-7.0157,1.21-1.4843-.9006-3.6192-2.1213-2.1214Z"/><path class="cls-3" d="M14.0177,136.0484c-.32,12.63.433,24.0921,7.9219,34.7243,5.7543,8.17,13.2562,17.29,24.624,14.9616,2.6133-.5352,3.5826-2.29,2.2042-4.7535-1.3687-2.4463-4.7293-4.5917-6.7942-6.4648q-4.37-3.9637-8.74-7.9277c-5.3924-4.9-8.8914-9.4222-10.2505-16.7145-1.1132-5.9725-1.3556-12.0078-3.2941-17.8109a1.5191,1.5191,0,0,0-2.7416-.3583c-4.1837,8.193.07,18.8394,2.6973,26.94l2.8929-.7976a39.059,39.059,0,0,1-2.9464-15.2852h-3a63.1952,63.1952,0,0,0,16.49,40.6967c1.1268,1.2418,3.3442-.41,2.3559-1.8178a94.7573,94.7573,0,0,1-10.6454-19.66l-2.507,1.4594c6.4325,5.7025,10.0793,13.776,16.6891,19.3134,1.4575,1.2211,3.5509-.7815,2.1213-2.1213a98.8176,98.8176,0,0,1-9.0693-9.7207l-1.8178,2.3559a45.0139,45.0139,0,0,1,12.0546,7.92l.6619-2.507c-3.1958.4388-5.8284-2.8126-8.5822-4.0043-1.7223-.7454-3.2443,1.6207-1.5142,2.59a44.3294,44.3294,0,0,1,9.9674,7.58l1.4594-2.5071-3.5994-.5545a1.5014,1.5014,0,0,0-.7975,2.8928,17.25,17.25,0,0,0,5.8642,1.331v-3l-2.4646-.0312a1.5009,1.5009,0,0,0,0,3l2.4646.0312c1.9443.0245,1.9133-2.8827,0-3a13.9709,13.9709,0,0,1-5.0667-1.2238l-.7975,2.8928,3.5994.5545a1.5132,1.5132,0,0,0,1.4594-2.507,47.1779,47.1779,0,0,0-10.5745-8.0494l-1.5142,2.59c3.9477,1.7084,6.2757,4.9409,10.894,4.3067a1.5089,1.5089,0,0,0,.6619-2.5071,47.4472,47.4472,0,0,0-12.6618-8.3889,1.5074,1.5074,0,0,0-1.8178,2.3559,98.8409,98.8409,0,0,0,9.0694,9.7206l2.1213-2.1213c-6.6036-5.5323-10.2544-13.609-16.6891-19.3134-1.009-.8944-3.1045-.0493-2.5071,1.4594a97.9646,97.9646,0,0,0,10.9478,20.3771l2.3558-1.8177a59.9734,59.9734,0,0,1-15.6109-38.5754,1.5009,1.5009,0,0,0-3,0,41.2406,41.2406,0,0,0,3.0535,16.0828c.7048,1.7391,3.5027,1.083,2.8929-.7976-2.2953-7.0781-6.63-17.52-3-24.6282l-2.7417-.3584c2.7152,8.1282,1.9215,17.1539,5.3933,25.0453,3.8621,8.7788,13.6534,15.095,20.5759,21.3742.3048.2764,2.985,2.36,2.9133,2.6426-.284,1.1208-2.1342.7965-2.863.8469a13.9169,13.9169,0,0,1-9.5771-3.2971c-3.8205-3.1253-6.9457-7.5255-9.665-11.5992-6.4967-9.7324-6.843-20.5035-6.556-31.8247.0489-1.9312-2.9511-1.93-3,0Z"/><path class="cls-3" d="M45.7026,192.1657c-.1292,2.2867,1.1,3.8756-1.9117,5.3958-2.4149,1.2191-7.3306.1337-9.7646-.394-4.9576-1.0747-9.6291-3.2276-14.1777-5.4114-4.4177-2.1208-8.409-4.2781-10.9153-8.6931-2.1483-3.7844-2.9706-8.242-3.8129-12.4594l-2.8928.7975c6.1132,18.9457,26.8059,21.4662,43.9744,21.6667l-1.0607-2.5607c-1.76,1.7692-2.047,4.8117-4.9978,5.3719-2.3272.4417-7.6716-1.96-9.929-2.61C23.0963,191.22,16.8518,186.71,10.545,182.9461l-.7571,2.7952c3.3576.4219,5.8069,3.6846,8.5174,5.47a30.1505,30.1505,0,0,0,8.0274,3.6928,31.1994,31.1994,0,0,0,16.773.1422c1.8681-.4817,1.0762-3.376-.7976-2.8928a27.9072,27.9072,0,0,1-20.5041-2.3493c-4.1908-2.2872-7.0865-6.4434-12.0161-7.0629-1.5512-.1949-1.9336,2.0932-.7571,2.7952,8.13,4.8516,15.4892,9.364,24.7021,11.7722,2.5748.673,6.5254,2.6235,9.2224,1.4737,2.63-1.1212,2.4725-4.3094,4.3074-6.1539a1.5169,1.5169,0,0,0-1.0607-2.5607c-15.6532-.1828-35.4245-1.9321-41.0816-19.4642a1.5013,1.5013,0,0,0-2.8928.7975c1.1039,5.5274,2.3411,11.4,5.9424,15.916,3.9351,4.9347,10.5578,7.408,16.2035,9.7774,5.7929,2.4313,12.1093,4.3657,18.46,3.6125,1.7563-.2083,4.31-.4337,5.56-1.871,1.6515-1.8993.1867-4.5018.3092-6.67.109-1.9289-2.8913-1.9227-3,0Z"/><path class="cls-3" d="M232.4344,169.79c2.4623,16.8853-.5857,33.6757-3.8287,50.2359-3.0116,15.3782-5.5611,30.5231-5.6668,46.2393-.1122,16.6795.3125,33.3-.5808,49.9714q-1.4037,26.1991-5.4244,52.1531c-.29,1.8887,2.6,2.7028,2.8929.7975,2.5993-16.9057,4.4506-33.9174,5.4234-50.9958.987-17.3259.5723-34.59.6889-51.9262s3.403-33.96,6.6219-50.9185c2.9122-15.3428,5.0384-30.7741,2.7664-46.3543-.2775-1.9032-3.1687-1.094-2.8928.7976Z"/><path class="cls-3" d="M246.6745,166.836a111.6058,111.6058,0,0,0-3.0283,26.7181,1.5009,1.5009,0,0,0,3,0,108.2911,108.2911,0,0,1,2.9211-25.9205c.4448-1.8773-2.4472-2.6784-2.8928-.7976Z"/><path class="cls-3" d="M248.9231,161.0814a127.613,127.613,0,0,1,1.5542,31.7378c-.1433,1.9259,2.8573,1.9167,3,0a130.87,130.87,0,0,0-1.6614-32.5353c-.3341-1.8981-3.2257-1.0937-2.8928.7975Z"/><path class="cls-3" d="M242.1547,166.4885c3.1154.4109,6.1209-.0809,9.2352-.0835,2.7228-.0024,5.6815.15,7.243,3.0535,1.8429,3.4267-.8239,6.9853-4.2072,7.7478-1.6185.3648-1.3036,3.117.3988,2.9464,3.1229-.3129,7.5268-1.039,10.2091.9589,5.3593,3.992,1.64,9.8959-3.6456,11.0574-6.5254,1.4339-14.5419-1.186-21.0242-2.22-1.8887-.3014-2.7018,2.589-.7975,2.8928,8.5683,1.3671,24.6048,6.8742,30.2109-3.1257a7.9043,7.9043,0,0,0-.7787-9.1849c-3.4973-4.13-9.3194-3.8645-14.174-3.3782l.3988,2.9464c5.4557-1.23,8.8669-6.94,6-12.1547-3.7833-6.8822-12.8722-3.6387-19.0686-4.4559-1.9081-.2516-1.89,2.7508,0,3Z"/><path class="cls-3" d="M287.2614,165.02l-.5207,24.2571c-.0415,1.9312,2.9585,1.9309,3,0l.5207-24.2571c.0415-1.9312-2.9585-1.9308-3,0Z"/><path class="cls-3" d="M279.144,165.7418l-.0013,16.2788c0,3.3044-1.1138,8.681.5264,11.7285,1.0772,2.0015,2.9274,2.2858,5.019,2.1232,5.762-.4478,11.1465-2.8813,16.7029-.0108a1.5193,1.5193,0,0,0,2.2035-.8965,13.9906,13.9906,0,0,0-.193-8.2061c-.5759-1.8359-3.473-1.052-2.8929.7975a11.1184,11.1184,0,0,1,.1931,6.6111l2.2034-.8964a16.31,16.31,0,0,0-8.3605-1.8485c-2.6669.0862-8.7231,2.4487-10.9382,1.5493-2.8249-1.1471-1.4637-11.5775-1.4635-13.824l.0011-13.4061a1.5009,1.5009,0,0,0-3,0Z"/><path class="cls-3" d="M277.78,167.0622l9.9832-.6676c1.9163-.1281,1.93-3.1291,0-3l-9.9832.6676c-1.9162.1281-1.93,3.1291,0,3Z"/><path class="cls-3" d="M317.326,163.6379l-8.8291,32.5772a1.5013,1.5013,0,0,0,2.8928.7975l8.8291-32.5771a1.5013,1.5013,0,0,0-2.8928-.7976Z"/><path class="cls-3" d="M324.0335,166.4533a94.7153,94.7153,0,0,1-8.2211,29.2369c-.8065,1.74,1.7786,3.2659,2.59,1.5141a99.4262,99.4262,0,0,0,8.6307-30.751c.2188-1.9149-2.783-1.8993-3,0Z"/><path class="cls-3" d="M309.7206,198.8139a15.6928,15.6928,0,0,1,10.118-2.2437c1.9175.2038,1.9032-2.7977,0-3a18.38,18.38,0,0,0-11.6321,2.6533c-1.6446,1.0056-.1391,3.6013,1.5141,2.59Z"/><path class="cls-3" d="M324.6672,167.4469c2.3843,8.348,4.386,16.9389,7.1849,25.1563,1.104,3.2413,3.6689,6.1164,6.9256,3.3016,1.4632-1.2647-.6666-3.3787-2.1213-2.1213-1.235,1.0674-3.3-6.8382-3.4511-7.3685l-1.7962-6.2891L327.56,166.6493a1.5013,1.5013,0,0,0-2.8928.7976Z"/><path class="cls-3" d="M320.2452,185.6992l6.4381-1.3172c1.89-.3867,1.09-3.2791-.7975-2.8929l-6.4381,1.3172c-1.89.3867-1.09,3.2791.7975,2.8929Z"/><path class="cls-3" d="M309.5391,167.0638a72.9583,72.9583,0,0,1,14.5854-.4771c1.9277.1246,1.92-2.8759,0-3a76.7494,76.7494,0,0,0-15.383.5842c-1.9042.2593-1.0934,3.15.7976,2.8929Z"/><path class="cls-3" d="M344.7277,164.3168V196.396a1.5009,1.5009,0,0,0,3,0V164.3168a1.5009,1.5009,0,0,0-3,0Z"/><path class="cls-3" d="M349.1287,166.4662a108.9107,108.9107,0,0,0,1.3852,27.4716c.3355,1.8978,3.2271,1.0935,2.8928-.7975a105.8089,105.8089,0,0,1-1.278-26.6741c.148-1.9254-2.8528-1.9159-3,0Z"/><path class="cls-3" d="M340.1349,164.8144a37.9292,37.9292,0,0,1,10.0578-1.0386,11.8576,11.8576,0,0,1,5.3854,1.4567c3.868,2.47,4.0791,10.392-3.4176,9.31l-.3988,2.9464c8.2516-.3885,13.7452,13.6148,5.3737,16.9947-5.7036,2.3028-12.9923,2.4373-19.0462,2.5677l.3988,2.9464a148.416,148.416,0,0,1,24.8542-4.1631c1.9111-.1546,1.9277-3.1559,0-3a153.1078,153.1078,0,0,0-25.6518,4.27,1.5068,1.5068,0,0,0,.3988,2.9464,85.8005,85.8005,0,0,0,18.1095-2.2387c3.7737-.9,7.0712-1.4842,7.9284-5.6416,1.653-8.0178-3.4113-18.1036-12.3654-17.6821-1.5886.0748-2.1565,2.6927-.3987,2.9464,6.6153.9552,12.6739-5.3019,8.8177-11.806-4.0472-6.8265-14.5226-4.9506-20.8433-3.7074-1.8926.3723-1.0914,3.2644.7975,2.8929Z"/><path class="cls-3" d="M375.4554,169.3812h7.8416a1.5009,1.5009,0,0,0,0-3h-7.8416a1.5009,1.5009,0,0,0,0,3Z"/><path class="cls-3" d="M380.7769,168.3l-7.753,26.1914c-.5491,1.8551,2.3452,2.6476,2.8928.7976l7.753-26.1915c.5491-1.855-2.3452-2.6475-2.8928-.7975Z"/><path class="cls-3" d="M381.8352,168.5911a70.0494,70.0494,0,0,1-4.145,28.8763c-.6631,1.8165,2.235,2.6,2.8929.7975a72.1165,72.1165,0,0,0,4.2521-29.6738c-.125-1.9168-3.1259-1.9308-3,0Z"/><path class="cls-3" d="M371.7006,196.8777c5.1456-5.3612,14.3422,3.141,20.7151,2.3238a1.6,1.6,0,0,0,1.4464-1.1012q2.6858-7.166,5.561-14.2563c.7253-1.7884-2.1755-2.5664-2.8928-.7976q-2.8759,7.0919-5.5611,14.2563l1.4465-1.1012c-7.5134.9634-16.0361-8.53-22.8364-1.4452-1.3372,1.3932.7812,3.5176,2.1213,2.1214Z"/><path class="cls-3" d="M409.6733,172.2327h7.8416a1.5009,1.5009,0,0,0,0-3h-7.8416a1.5009,1.5009,0,0,0,0,3Z"/><path class="cls-3" d="M413.8992,173.1745l-10.4427,29.3169c-.649,1.8221,2.2486,2.6063,2.8929.7975L416.792,173.972c.649-1.8221-2.2485-2.6063-2.8928-.7975Z"/><path class="cls-3" d="M412.0549,171.1085a162.1336,162.1336,0,0,1-11.4935,32.3842c-.8317,1.7323,1.7543,3.2558,2.59,1.5141a165.8536,165.8536,0,0,0,11.7959-33.1008c.4509-1.8762-2.4412-2.6769-2.8928-.7975Z"/><path class="cls-3" d="M398.3039,204.8077a9.0185,9.0185,0,0,1,5.9769-1.2415c1.8886.2836,2.7033-2.6067.7975-2.8929a12.3,12.3,0,0,0-8.2886,1.544,1.5011,1.5011,0,0,0,1.5142,2.59Z"/><path class="cls-3" d="M415.8752,172.4533l4.2063,20.287c.8954,4.3183,1.3286,8.7738,5.2492,11.3645,1.6154,1.0674,3.12-1.53,1.5142-2.59-3.9674-2.6217-4.1542-10.94-5.0177-15.1044l-3.0592-14.7542c-.3917-1.8892-3.2841-1.09-2.8928.7975Z"/><path class="cls-3" d="M413.9505,189.3416h3.5644a1.5009,1.5009,0,0,0,0-3h-3.5644a1.5009,1.5009,0,0,0,0,3Z"/></g></g></svg>