<svg xmlns="http://www.w3.org/2000/svg" viewBox="0 0 315 341"><defs><style>.cls-1{fill:#eed095;}.cls-2{fill:#f3cde1;}.cls-3{fill:#5f6598;}.cls-4{fill:#c1272d;}.cls-5{fill:#474c72;}</style></defs><title>draw</title><g id="圖層_1" data-name="圖層 1"><path class="cls-1" d="M154.5182,197.5449a45.0291,45.0291,0,0,1-14.2954-5.7472c-6.5123-4.0343-11.88-9.6573-18.06-14.184a128.9672,128.9672,0,0,0-11.672-7.3317L98.0461,163.07c-5.0132-2.9051-10.1681-5.9338-13.6376-10.5743l-2.4136,9.1971a1.7169,1.7169,0,0,0-.0233,1.1816,1.6887,1.6887,0,0,0,.61.5942c4.7327,3.2388,9.77,6.0024,14.7985,8.76l40.9267,22.4467a26.003,26.003,0,0,0,7.4228,3.1191,8.7932,8.7932,0,0,0,7.5959-1.74"/><path d="M180.8916,87.019c-1.1355,8.0025-7.1324,14.2764-11.5991,21.0127a121.5027,121.5027,0,0,0-8.26,15.5284L144.979,157.61c1.1954,2.5871,5.0091,1.9656,7.6493.8926q13.2062-5.3667,25.8858-11.9236a23.6519,23.6519,0,0,0,5.7485-3.7521,20.6707,20.6707,0,0,0,4.624-8.0209,43.5025,43.5025,0,0,0,2.8066-19.3864c-1.0407-9.5206-6.1448-18.0451-11.1274-26.2243"/><path class="cls-2" d="M214.56,304.829a73.26,73.26,0,0,1,19.2485-12.2351c5.6106-2.4359,11.5381-4.1734,16.9-7.1172,12.9312-7.1,21.1294-20.2993,28.7505-32.93,10.6639-17.6744,21.4-35.5,28.31-54.9515,2.5371-7.1427,4.5638-14.64,4.108-22.2064-.4683-7.7752-3.5154-15.12-5.992-22.5055-4.3075-12.8446-7.0788-26.4529-14.3217-37.9018S270.9119,94.5093,257.7,97.5086l-1.0128,12.1108a127.85,127.85,0,0,1-39.1846-14.548c-2.0936,2.5339-.1984,6.292,1.7115,8.9672,6.33,8.8667,12.785,17.699,17.8568,27.3406,14.9834,28.4834,16.8922,61.9119,16.46,94.0929-.1119,8.3379-.5282,17.2116-5.3037,24.0473-2.6513,3.7951-6.4457,6.6359-9.4166,10.1863s-5.1412,8.3872-3.6389,12.7662c.757,2.2066,2.39,4.6015,1.2308,6.6261a5.6711,5.6711,0,0,1-3.0835,2.0958l-24.1863,9.4181a38.3563,38.3563,0,0,1,2.9983,13.0642"/><path class="cls-2" d="M157.6865,123.5958l-11.4317,21.2619a13.65,13.65,0,0,1-3.0893,4.2931c-3.5485,2.9027-8.7945,1.5745-13.137.1049L80.6861,132.5562C66.94,127.9039,52.5553,122.8421,42.86,112.0434c-8.36-9.3112-12.1639-21.7315-15.7348-33.7244-1.4706-4.9394-2.95-9.9275-3.3109-15.0686C22.477,44.173,37.1114,26.98,54.366,18.7326s36.8472-9.6209,55.84-11.8615c5.6166-.6627,11.3339-1.41,16.893-.37,4.6625.8727,8.994,2.9647,13.2617,5.0353L193.218,37.1815c7.177,3.4819,14.669,7.2261,19.242,13.7622,5.4638,7.8093,5.6916,18.008,5.7184,27.5389.0143,5.0771-.0332,10.4078-2.4936,14.849a30.03,30.03,0,0,1-6.2736,7.1667l-14.6288,13.5008a36.5069,36.5069,0,0,1-12.4384-17.4,3.7989,3.7989,0,0,0-.9556-1.7809c-1.7089-1.4564-3.9288.976-5.13,2.8728a20.0858,20.0858,0,0,1-12.2974,8.7184,4.1078,4.1078,0,0,1-3.232-.2424c-1.0291-.7023-1.2911-2.0809-1.4668-3.3144l-5.2126-36.6093c-.4368-3.0676-.9046-6.2259-2.4863-8.89a18.7633,18.7633,0,0,0-4.2512-4.6692c-14.0112-11.7047-33.414-13.8776-51.5929-15.562a25.2976,25.2976,0,0,0-7.3743.0393,25.3042,25.3042,0,0,0-7.0693,3.0317l-18.81,10.45c-3.8255,2.1252-7.8623,4.4623-9.8693,8.3512-1.53,2.9642-1.6584,6.44-1.5476,9.7734.2708,8.1509,2.1149,16.879,8.15,22.3649,5.0734,4.6121,12.1549,6.1,18.8324,7.6557,25.6079,5.9677,50.2439,15.4408,74.7838,24.884"/><path class="cls-2" d="M150.0436,190.5384l11.1407-8.61a26.8208,26.8208,0,0,0,6.0161-5.7407,13.3727,13.3727,0,0,0-7.9871-20.5781c-.3617-2.2792,1.5038-4.3995,3.6323-5.2912s4.503-.91,6.7845-1.257a23.55,23.55,0,0,0,13.7985-7.4144c2.7684-3.06,5.3058-7.1883,9.423-7.4648,3.2853-.2206,6.1179,2.2238,8.2423,4.7395a44.55,44.55,0,0,1,10.3922,26.9042q-23.3148,13.5407-47.4082,25.6773c-4.4648,2.249-10.6288,4.1628-13.8272.3206"/><path class="cls-2" d="M23.8312,276.8708c-3.7207.6223-6.704,3.6012-8.3351,7.0027S13.3629,291.09,12.882,294.832l-2.6989,21a6.108,6.108,0,0,0,.0952,2.8985,5.9644,5.9644,0,0,0,1.9822,2.3467,121.3368,121.3368,0,0,0,16.8983,11.7c2.8248,1.62,5.8192,3.1579,9.0658,3.4106,3.2885.2561,6.5181-.8286,9.63-1.9226,7.4205-2.6088,15.0125-5.49,20.7224-10.9,3.7882-3.5892,6.5677-8.1343,10.3491-11.73,2.8653-2.725,10.9835-10.7586,14.7914-11.2807,3.9831-.546,12.1254,4.9336,15.8938,6.4841l11.5524,4.753c6.9442,2.8571,14.2851,5.7715,21.7325,4.812,3.8907-.5012,7.56-2.04,11.1877-3.5325q28.0789-11.5509,57.119-20.5511a64.0467,64.0467,0,0,1,6.7907,34.197c-28.8067,5.32-58.306,5.1836-87.5995,5.03l-25.8066-.1356c-5.8711-.0308-12.7483-.5841-15.9186-5.5258,4.8369-16.8623,9.62-35.0062,21.9907-47.9967,2.5149-2.641,5.39-5.0177,7.2436-8.1585,2.4444-4.142,2.8422-9.1357,3.1813-13.9333l-13.8449,9.0954.9286-15.779A151.0268,151.0268,0,0,1,83.24,265.9928L84.775,253.517c-5.9469,5.8785-12.3361,11.68-20.1932,14.5417a70.88,70.88,0,0,1-9.2679,2.4066c-14.42,3.1338-28.6007,7.2655-42.7678,11.3938"/><path class="cls-3" d="M17.76,286.6264c-.1111-7.7057,6.86-12.4974,13.6387-14.18,6.8952-1.7116,14.1235-1.3547,21.0615-2.9133,13.0085-2.9222,24.5722-10.0554,35.7722-16.99l-1.7107-1.3151a33.91,33.91,0,0,1-14.7528,23.5771l1.4113,1.829q18.7242-15.0936,38.1877-29.2264l-1.7107-1.3151a61.9919,61.9919,0,0,1-8.0137,18.8483c-.5941.9341.6428,2.3079,1.5933,1.5933l21.8975-16.4624-1.7107-1.3152A105.0088,105.0088,0,0,1,105.8033,279.57c-7.53,9.0919-16.6778,15.9476-25.8706,23.2256A82.9982,82.9982,0,0,0,67.64,314.4705c-3.9993,4.7731-7.7081,9.7307-13.2937,12.7748-10.1825,5.5493-26.3445,9.1163-33.21-2.9631-2.9167-5.1313-3.8692-11.1854-4.876-16.92-1.4495-8.2559-2.5392-16.5571-.7739-24.8525.3112-1.462-1.9335-2.0868-2.2459-.6192-1.4851,6.9785-1.1138,13.9751-.0682,20.9921.9164,6.15,1.8236,12.578,4.04,18.42,4.1419,10.9165,13.439,15.0011,24.665,12.7578,5.94-1.1869,12.1882-3.3647,17.087-7.0012,5.3048-3.9378,8.8366-9.63,13.3442-14.3627,9.43-9.9015,21.5591-16.6855,30.9374-26.7057A107.911,107.911,0,0,0,125.67,249.3755c.3331-.9074-.9069-1.9195-1.7108-1.3152l-21.8975,16.4625,1.5934,1.5934a63.9959,63.9959,0,0,0,8.2485-19.4048c.2181-.9011-.84-1.9475-1.7107-1.3151q-19.7007,14.3066-38.6591,29.5906c-1.0254.8265.3163,2.5617,1.4112,1.829A36.1,36.1,0,0,0,88.768,251.8468c.1342-.9314-.76-1.9037-1.7107-1.3151C73.058,259.2,59.1417,267.1045,42.4393,268.636c-10.8445.9944-27.2132,3.7506-27.008,17.99a1.1653,1.1653,0,0,0,2.3291,0Z"/><path class="cls-3" d="M208.1451,293.0316c5.4325,12.5375,11.2415,25.01,14.5723,38.3121a1.1656,1.1656,0,0,0,2.2459-.6192c-3.3785-13.4925-9.297-26.152-14.8071-38.8685-.5944-1.3716-2.6016-.187-2.0111,1.1756Z"/><path class="cls-3" d="M98.8518,302.4539A124.723,124.723,0,0,1,87.5656,329.96c-.7306,1.31,1.28,2.4864,2.0111,1.1756a127.3182,127.3182,0,0,0,11.521-28.0626,1.1655,1.1655,0,0,0-2.2459-.6192Z"/><path class="cls-3" d="M69.7727,158.8074a217.412,217.412,0,0,1,3.7587,53.044,228.25,228.25,0,0,1-3.0178,26.2253c-1.3331,7.8336-2.5429,15.6089-1.0388,23.5116.28,1.4708,2.5252.848,2.2459-.6191-1.7482-9.1855.4714-18.2614,1.8746-27.3328a217.83,217.83,0,0,0,2.4024-24.7611,220.2052,220.2052,0,0,0-3.9791-50.6871c-.2861-1.47-2.5314-.8475-2.2459.6192Z"/><path class="cls-3" d="M82.3616,161.0915l.1751-8.26-2.17.5878c3.6237,4.9889,8.5285,8.2242,14.0394,10.8451,6.6985,3.1858,13.4742,6.1767,20.0994,9.521a422.6887,422.6887,0,0,1,39.4167,22.6789c1.2615.8176,2.43-1.1979,1.1756-2.0111a423.1682,423.1682,0,0,0-36.8425-21.3683q-9.3171-4.7844-18.8633-9.0946c-6.4075-2.9077-12.758-5.8869-17.0142-11.7465a1.1751,1.1751,0,0,0-2.17.5877l-.1751,8.26a1.1653,1.1653,0,0,0,2.3291,0Z"/><path class="cls-3" d="M152.6,195.4005a460.6214,460.6214,0,0,1-7.5011,120.8444c-.2876,1.4641,1.9568,2.0909,2.2459.6191a463.0068,463.0068,0,0,0,7.5843-121.4635c-.1038-1.4869-2.4337-1.4983-2.3291,0Z"/><path class="cls-3" d="M162.3316,203.3631c-.4083,2.2673-.7847,7.3211,2.24,8.1129,1.3526.354,2.4871-.5245,3.2995-1.51,1.5122-1.8344,2.7758-3.9362,4.134-5.8882.8645-1.2423,2.43-2.8533,2.1525-4.5212a2.23,2.23,0,0,0-2.2717-1.8223c-3.1561.0032-5.7208,3.5465-6.6554,6.16a1.1742,1.1742,0,0,0,1.4325,1.4326l4.081-1.059-1.4325-1.4326a14.4837,14.4837,0,0,1-3.98,5.918l1.9464.5139a9.5687,9.5687,0,0,1-.1677-5.219c.3505-1.4566-1.8948-2.0781-2.2459-.6191a11.989,11.989,0,0,0,.1677,6.4572,1.1785,1.1785,0,0,0,1.9464.5139,16.9089,16.9089,0,0,0,4.5794-6.9457,1.1742,1.1742,0,0,0-1.4325-1.4325l-4.081,1.059,1.4325,1.4325a7.2149,7.2149,0,0,1,3.1708-3.9266c1.5978-.9125.8746-.0014.28.9746-.4226.6933-.9363,1.3455-1.4,2.0113a25.5452,25.5452,0,0,1-2.7992,4.0228c-.851.8031-1.6448,1.4685-2.1655.1457a7.8657,7.8657,0,0,1,.0143-3.7591c.2639-1.4656-1.98-2.0943-2.2459-.6192Z"/><path class="cls-3" d="M180.3351,198.2313c1.2358,2.0782-.569,5.5549,2.4567,6.773,2.4082.97,5.2222-2.4054,6.5452-4.0191,1.4508-1.77,2.9754-4.6618,1.8941-6.9895-1.3661-2.941-5.2559-.2794-6.9354.9463a1.1829,1.1829,0,0,0,0,2.0111l1.5635,1.0323-.5767-1.0056-.971,1.094,1.5933,1.5933c.526-1.2019,2.4912-4.0419,1.0327-5.2988-1.0753-.9267-2.2494.0415-2.3607,1.2119a1.1709,1.1709,0,0,0,.855,1.1229l.1561.0427a1.1655,1.1655,0,0,0,.6192-2.2459l-.1562-.0427.855,1.123.0024.1946-1.0056.5768.2113.0047-1.0055-.5768a14.4726,14.4726,0,0,1-1.2148,2.7121,1.176,1.176,0,0,0,1.5934,1.5933,3.4713,3.4713,0,0,0,2.1245-3.1051,1.158,1.158,0,0,0-.5768-1.0055l-1.5636-1.0323v2.0111a15.1432,15.1432,0,0,1,2.3363-1.4488c1.2206-.5889,1.5365-.1972,1.323.98a8.3771,8.3771,0,0,1-2.7063,4.2241,6.7245,6.7245,0,0,1-1.6309,1.4523c-2.01.7784-1.773-.5262-1.7528-1.6248a6.1135,6.1135,0,0,0-.6942-3.48,1.1654,1.1654,0,0,0-2.0112,1.1755Z"/><path class="cls-3" d="M197.9705,191.0925c.4843.0371,1.0556,3.42,1.5991,3.9981,1.3422,1.4284,2.888.6809,4.52.1008,3.6537-1.2987,7.2574-2.7727,10.876-4.1667,2.12-.8167,4.2025-1.4735,5.0374-3.7683.8688-2.3878.729-7.8106-2.903-7.3906-2.5372.2934-5.6536,3.1309-7.7341,4.5141-2.9856,1.985-5.8619,4.1165-8.6759,6.3365-.9038.713.0747,2.3461,1.133,1.9464l11.5719-4.37-.8973-2.1285-11.4868,7.5544,1.4112,1.829a21.9906,21.9906,0,0,1,10.8289-6.669,1.1655,1.1655,0,0,0-.6192-2.2459,24.127,24.127,0,0,0-11.8566,7.268c-.8455.9366.2533,2.59,1.4112,1.829l11.4868-7.5544c1.0382-.6827.4041-2.62-.8973-2.1285l-11.5719,4.37,1.133,1.9464a123.3147,123.3147,0,0,1,12.3178-8.5906c.39-.2371,1.98-1.5062,2.3977-1.4195,1.2676.2628,1.0771,1.9218.936,2.9075-.455,3.1786-4.43,3.82-7.0407,4.82l-6.1178,2.3438c-2.4576.9415-3.0795,1.4527-4.1557-.91-.6822-1.4977-.8276-2.6078-2.7039-2.7514-1.4948-.1143-1.4874,2.2153,0,2.3291Z"/><path class="cls-3" d="M168.7714,248.6591a30.062,30.062,0,0,1,15.3529-8.3025l-1.3151-1.7107q-7.6,12.511-14.4073,25.4707a1.1788,1.1788,0,0,0,1.3151,1.7107c7.4067-1.9569,10.0174-11.2184,17.5334-12.5369,1.4737-.2585.8491-2.5034-.6192-2.2459-7.7433,1.3584-10.1952,10.5981-17.5333,12.5369l1.3151,1.7107q6.8073-12.9594,14.4073-25.4707a1.1782,1.1782,0,0,0-1.3152-1.7107,32.3081,32.3081,0,0,0-16.3806,8.9015,1.1652,1.1652,0,0,0,1.6469,1.6469Z"/><path class="cls-3" d="M192.1158,237.2743a9.4091,9.4091,0,0,0-.55,8.5072c1.0386,2.4619,3.5355,5.2087,6.4736,4.9484,3.3887-.3,3.1541-4.8965,2.8518-7.3539-.4235-3.4416-2.585-6.4319-6.2227-6.6952-1.4955-.1082-1.4886,2.2214,0,2.3291,2.7847.2015,3.8781,3.0319,3.9863,5.4482.0333.7443.2152,2.8287-.2086,3.4339-.7794,1.1131-2.141.1446-2.814-.4a7.1176,7.1176,0,0,1-1.5054-9.0421,1.1654,1.1654,0,0,0-2.0111-1.1755Z"/><path class="cls-3" d="M206.8556,234.0354c-1.8668,3.2317-3.16,7.3992-.6163,10.6682,2.1378,2.7471,6.2068,2.7185,8.7929.6206,2.2918-1.8593,4.4032-6.6135,2.4674-9.3387-.9923-1.397-2.9753-2.1615-4.5081-2.76a7.77,7.77,0,0,0-5.9356-.2718c-1.3691.559-.77,2.8131.6192,2.2459,2.2576-.9217,4.6212.07,6.6323,1.1993,2.6452,1.485,1.2508,5.4347-.6867,7.0522-2.0036,1.6727-5.176,1.3979-6.1758-1.2857-.8951-2.4023.2262-4.8843,1.4218-6.9541a1.1654,1.1654,0,0,0-2.0111-1.1756Z"/><path class="cls-3" d="M83.211,186.1378c-1.55,3.2251.2008,6.2045,3.2432,7.6907,5.3254,2.6017,12.2455,3.3724,17.9615,4.83a1.179,1.179,0,0,0,1.4325-1.4325c-.742-3.696-3.309-6.1848-6.4785-8.038a48.0289,48.0289,0,0,0-6.1558-2.827c-1.8282-.7471-4.1526-2.2038-6.1561-2.073-2.6724.1744-3.9347,2.6431-3.0789,5.0984,1.6979,4.8709,8.3595,2.6635,11.4587,5.7092l1.1331-1.9464a14.8825,14.8825,0,0,1-8.473-6.4868l-1.3151,1.7108a51.8388,51.8388,0,0,1,14.77,4.8823c1.3336.6771,2.5138-1.3316,1.1755-2.0111a53.9474,53.9474,0,0,0-15.3264-5.1171c-.93-.1614-1.9059.7812-1.3151,1.7107a17.4719,17.4719,0,0,0,9.8649,7.5571,1.1732,1.1732,0,0,0,1.133-1.9465,9.2963,9.2963,0,0,0-5.5915-2.4752c-.9991-.1687-3.4288-.2625-4.1088-1q-.8934-4.3121,1.5555-2.8539l1.8275.7437c4.9025,1.995,11.6454,4.0561,12.8351,9.982l1.4326-1.4326L94.8678,193.82c-2.4633-.6283-11.8773-1.8643-9.6457-6.5064.6464-1.3447-1.3613-2.5274-2.0111-1.1756Z"/><path class="cls-3" d="M82.025,201.01c-1.2594,2.8068.3327,5.0692,2.5728,6.8578,4.198,3.352,8.9962,6.1485,13.4419,9.1645a1.182,1.182,0,0,0,1.5933-.4178c5.2973-8.27-7.6086-16.3553-14.315-17.5494a1.17,1.17,0,0,0-.8974,2.1285L97.8992,209.82l.5878-2.17A13.221,13.221,0,0,1,86.06,199.473L84.35,200.7882a23.1073,23.1073,0,0,1,7.4019,6.3189c.8965,1.1766,2.92.0176,2.0111-1.1755a25.7962,25.7962,0,0,0-8.2374-7.1545c-.8-.44-2.1213.316-1.7108,1.3151a15.6392,15.6392,0,0,0,14.6726,9.887,1.1742,1.1742,0,0,0,.5878-2.17l-13.4786-8.6266-.8974,2.1286c5.1407.9153,17.1865,7.472,12.9231,14.128l1.5933-.4178-7.9282-5.3787c-1.8549-1.2584-8.5838-4.4864-7.2509-7.4569.6086-1.3563-1.3979-2.5422-2.0111-1.1756Z"/><path class="cls-3" d="M81.93,219.1429a3.5429,3.5429,0,0,0-1.6377,4.6324c.9875,2.4361,3.8988,3.0525,6.1593,3.656,2.5328.6761,6.5321,2.6091,9.1472,1.34,2.028-.9845,2.1134-3.2249,1.02-4.964-1.61-2.56-5.029-4.0457-7.6565-5.2677-2.1208-.9862-5.1876-2.6664-7.2334-.6867-4.332,4.1919,7.0851,8.67,9.7362,9.3264a1.1778,1.1778,0,0,0,1.3151-1.7107,4.7681,4.7681,0,0,0-3.8292-2.3282c-1.4873-.166-1.4755,2.1644,0,2.3291l1.8181,1.1746,1.3152-1.7107c-2.3305-.5772-6.4714-1.8518-7.919-4.0156l-.6373-.5927,1.4833-.9105c.787-.1146,2.12.8324,2.7755,1.1362a40.8621,40.8621,0,0,1,3.736,1.9723c.92.5483,3.0915,1.6065,3.2933,2.7738.4389,2.54-3.14,1.1074-4.1342.8444-1.5468-.4093-3.1019-.7965-4.6426-1.2285-.9782-.2742-5.8342-2.43-2.9335-3.7583,1.361-.6234.1788-2.6315-1.1756-2.0112Z"/><path class="cls-3" d="M147.446,191.7483c9.2411-2.5753,18.4165-7.0291,23.67-15.427,2.9573-4.7278,7.0931-17.0986-1.9284-17.8845-1.493-.13-1.4842,2.2,0,2.3291,5.86.5105,2.4158,9.671,1.0662,12.3539a26.1582,26.1582,0,0,1-5.4324,7.1923c-4.9973,4.7243-11.4625,7.37-17.994,9.19a1.1655,1.1655,0,0,0,.6191,2.2459Z"/><path class="cls-3" d="M182.0977,84.38c-1.0805,6.23-4.673,11.224-8.3069,16.2327a105.7653,105.7653,0,0,0-9.6917,16.3576c-3.2037,6.6457-6.3027,13.3435-9.4489,20.0166l-4.4949,9.534-2.2475,4.767c-.4654.9873-1.7677,2.7461-1.7435,3.838.1925,8.6976,22.7024-3.7129,25.1792-4.8828,5.2563-2.4827,11.84-4.7918,16.0717-8.922,3.9731-3.8781,5.7547-10.0647,6.9107-15.3185,3.2765-14.8921-2.8664-27.2966-10.4255-39.7244-.7778-1.2788-2.7928-.11-2.0111,1.1756,3.9623,6.5142,8.035,13.1717,10.002,20.61,2.01,7.5994,1.1451,15.3819-1.3331,22.77-1.2916,3.85-2.9239,7.66-6.3246,10.1073a57.1312,57.1312,0,0,1-7.9914,4.3427c-7.1158,3.5512-14.5029,7.4078-22.0535,9.9357-1.458.4882-4.4353,1.6957-5.233-.7124-.273-.8242,2.1629-4.5875,2.5686-5.448l5.137-10.896c3.1462-6.6731,6.2434-13.3719,9.4489-20.0166a109.9679,109.9679,0,0,1,10.054-16.8556c3.6307-5.0179,7.1013-10.0752,8.1794-16.2911.2542-1.4659-1.99-2.0955-2.2459-.6192Z"/><path class="cls-4" d="M182.864,87.2435l-17.2124,43.4232a25.1315,25.1315,0,0,0,26.8122-23.7314"/><path class="cls-3" d="M152.5366,53.0675c-5.17,9.5914-3.5621,22.019-2.0259,32.3818a56.8883,56.8883,0,0,0,5.4715,16.6273c1.9526,4.0219,3.7911,8.9636,8.5179,10.2321a1.1655,1.1655,0,0,0,.6191-2.2459c-4.4687-1.1992-6.5774-7.8306-8.3044-11.65a52.4361,52.4361,0,0,1-4.3687-16.0517c-1.0239-9.14-2.433-19.7053,2.1016-28.118.7112-1.3194-1.2989-2.4968-2.0111-1.1755Z"/><path class="cls-3" d="M160.133,157.9288a11.4285,11.4285,0,0,1,8.5219,1.3249,1.1654,1.1654,0,0,0,1.1756-2.0111,13.8867,13.8867,0,0,0-10.3166-1.56c-1.46.3366-.842,2.5828.6191,2.2459Z"/><path class="cls-3" d="M153.0592,52.2924a109.0044,109.0044,0,0,0-46.8018-14.8532C91.19,36.2628,75.3324,37.998,64.4979,49.622a32.2487,32.2487,0,0,0-6.321,35.0125C64.6,99.14,81.2612,102.9311,94.9956,107.3781q30.8187,9.9789,62.4655,17.0627c1.46.3284,2.0833-1.9166.6192-2.2459q-24.2531-5.4548-48.0846-12.5774-11.5432-3.4626-22.9618-7.3253c-7.2145-2.4406-14.9664-4.7936-20.6861-10.0728-10.1789-9.3947-11.0339-25.6219-3.4733-36.8346C71.8063,42.1385,87.1327,38.9507,102.1879,39.53a106.1767,106.1767,0,0,1,49.6957,14.7735,1.1654,1.1654,0,0,0,1.1756-2.0111Z"/><path class="cls-3" d="M190.4529,136.4239c2.7188,1.1695,5.5209,1.9189,7.863,3.8307a20.7944,20.7944,0,0,1,5.4961,7.2758c3.2059,6.7747,3.0695,14.5381,3.0028,21.861a1.1652,1.1652,0,0,0,2.3291,0c.0707-7.7652.0945-15.8729-3.3208-23.0366a22.9944,22.9944,0,0,0-5.4469-7.3827c-2.658-2.3388-5.5591-3.1877-8.7478-4.5593-1.3622-.5859-2.55,1.42-1.1755,2.0111Z"/><path class="cls-3" d="M42.4345,26.6455C23.4453,43.8468,19.2688,71.5939,31.0785,94.0628c12.6365,24.0421,37.8151,38.5344,62.8827,46.5745,17.2966,5.5476,35.2751,8.4649,53.1625,11.365,1.4663.2377,2.0973-2.0063.6192-2.2459-27.4711-4.4538-55.7415-9.0644-80.2368-23.0755C45.746,114.2343,25.6988,92.48,26.5726,65.8591A53.3637,53.3637,0,0,1,44.0814,28.2924c1.1133-1.0085-.5379-2.6516-1.6469-1.6469Z"/><path class="cls-3" d="M42.6017,28.6687A113.5062,113.5062,0,0,1,86.2636,8.9756,132.6535,132.6535,0,0,1,111.66,6.42c8.9236-.1452,17.8113-.2488,26.2083,3.1811,8.36,3.4147,16.4056,7.7983,24.5261,11.744,7.7834,3.7819,15.6216,7.469,23.3384,11.3854,12.9989,6.5972,26.0556,15.0483,30.0333,29.9783a67.3954,67.3954,0,0,1,1.975,14.4791,22.6567,22.6567,0,0,1-4.4079,15.0669c-5.8961,8.33-12.287,16.35-18.4268,24.5023-.9019,1.1975,1.1194,2.3595,2.0111,1.1755,6.14-8.1523,12.5329-16.1707,18.4268-24.5023,5.1211-7.2392,5.18-14.4922,4.1733-23.0693-.9218-7.8563-3.1825-15.306-8.0992-21.6037-4.2566-5.452-9.8629-9.6757-15.7461-13.2309-7.1635-4.3289-14.83-7.8-22.3481-11.4529q-13.5863-6.6015-27.1726-13.203c-8.0159-3.892-15.4782-6.4793-24.4591-6.7595A168.9983,168.9983,0,0,0,94.167,5.2655,114.97,114.97,0,0,0,41.4261,26.6576c-1.1951.8784-.0346,2.9005,1.1756,2.0111Z"/><path class="cls-5" d="M207.7448,72.9943c3.293,2.0118,6.8461,3.7093,10.6282,1.9415,1.3567-.6341.1754-2.6425-1.1756-2.0111-2.9014,1.3562-5.838-.4514-8.277-1.9415-1.2825-.7835-2.4541,1.23-1.1756,2.0111Z"/><path class="cls-5" d="M195.9078,53.164c3.6357-2.1926,6.9529-.6777,9.94,1.8211,1.1423.9555,2.7984-.6837,1.6469-1.6469-3.8051-3.1827-8.1905-4.9427-12.7628-2.1853a1.1654,1.1654,0,0,0,1.1756,2.0111Z"/><path class="cls-5" d="M204.7809,81.5453a3.7215,3.7215,0,0,0,2.5209,5.7805,3.3106,3.3106,0,0,0,3.3626-4.7163c-1.2068-2.2948-4.9431-2.2312-5.6486.4494a2.02,2.02,0,0,0,1.8823,2.5815,1.9609,1.9609,0,0,0,1.7469-2.5747,1.1813,1.1813,0,0,0-1.9464-.5139,1.99,1.99,0,0,0-.4532.6093c-.65,1.3436,1.358,2.5261,2.0111,1.1756l.089-.138-1.9464-.5138.1859-.3014.679.2492c.0233-.0041.2543-.2674.3184-.3007a.7079.7079,0,0,1,.7826.0612.8692.8692,0,0,1,.0265,1.3476,1.0975,1.0975,0,0,1-1.4772-.0051,1.4863,1.4863,0,0,1-.1223-2.0149c.81-1.2666-1.2053-2.436-2.0111-1.1755Z"/><path class="cls-5" d="M190.0681,63.5481c-2.6221-2.0238-4.589,3.15-3.0236,4.9684,2.0745,2.41,5.2347-.22,5.84-2.5242.8753-3.3318-3.1031-4.3357-5.3945-2.7967-2.283,1.5333-2.7962,5.2863-.5289,7.1184,1.5748,1.2724,3.111-.1053,3.8-1.58.6209-1.3283,1.3589-3.3055-.25-4.23a1.1857,1.1857,0,0,0-1.4112.1821c-.9816,1.0307-2.4814,3.3556-.7922,4.4654,1.4746.9688,3.2486-.587,3.9969-1.752l-2.1285-.2782c.0164.0545-.1165,1.0226-.01,1.0657-1.3877-.5645-1.9916,1.6876-.6192,2.2459,2.2116.9,3.3748-2.2731,2.8755-3.9307a1.18,1.18,0,0,0-2.1285-.2782,2.4139,2.4139,0,0,1-.4426.5425c-.367.3167-.7431.1378-.2587.63.4673.4744.3275.1382.5514-.2719a3.73,3.73,0,0,1,.6032-.7912l-1.4112.1821c-.3457-.1988-.2864.2751-.38.5307a7.9677,7.9677,0,0,1-.4942,1.0854l-.2464.35.1085-.0834c-.1926-.06-.3613-.654-.4055-.8062a2.1912,2.1912,0,0,1,1.3673-2.7151c.4037-.1406,1.1572-.2778,1.35.1678.1769.4084-.2938,1.0862-.5454,1.4083-.2.2556-.9149.973-1.2993.5426-.3448-.386.4426-1.1733.1017-1.4364,1.1857.9151,2.3466-1.1073,1.1755-2.0111Z"/><path class="cls-3" d="M213.77,95.2117c5.3236,3.2453,8.3152,9.9,11.4117,15.0929q4.6567,7.8093,8.9814,15.81c5.9279,10.9654,12.5273,22.4895,16.2411,34.4294,3.7611,12.0918,4.7231,25.548,5.26,38.14.5383,12.6329-.2125,25.387-3.27,37.6888A86.6932,86.6932,0,0,1,234.74,271.8573c-.9655,1.1358.6743,2.7911,1.6469,1.6469,16.2121-19.0714,21.9669-44.1915,21.7625-68.7533a190.5547,190.5547,0,0,0-4.25-40.1365c-2.8573-12.5832-9.6939-24.5-15.67-35.8256q-5.4309-10.2933-11.411-20.2838c-3.2529-5.4343-6.2905-11.9009-11.8736-15.3044-1.2833-.7823-2.4549,1.2312-1.1756,2.0111Z"/><path class="cls-3" d="M215.88,305.3236c19.19-9.62,39.1645-18.2873,55.2444-32.8439A133.7208,133.7208,0,0,0,303.65,226.8333c7.8634-18.0434,12.3486-37.99,10.4353-57.7114a112.7848,112.7848,0,0,0-42.1321-76.2552c-9.7071-7.5564-20.1176-10.6637-32.1678-12.3634a1.1751,1.1751,0,0,0-1.133,1.9464,98.519,98.519,0,0,1,20.38,30.3142l2.0111-1.1756a70.6806,70.6806,0,0,0-41.4616-29.6114,1.1656,1.1656,0,0,0-.6192,2.2459,68.2449,68.2449,0,0,1,40.07,28.5411,1.1655,1.1655,0,0,0,2.0111-1.1756,100.2168,100.2168,0,0,0-20.7446-30.7855l-1.133,1.9464c11.184,1.5775,21.1336,4.2573,30.3056,11.13a105.0744,105.0744,0,0,1,20.631,20.84A109.6476,109.6476,0,0,1,311.21,164.5969c5.4154,37.2932-11.7733,77.0786-38.26,102.969-16.6128,16.2387-37.7489,25.4715-58.2454,35.7466-1.34.6719-.162,2.6817,1.1756,2.0111Z"/><path class="cls-3" d="M216.5336,92.3821a87.4594,87.4594,0,0,1,40.5793,19.3767c1.1347.9671,2.79-.6728,1.6469-1.6469a89.7606,89.7606,0,0,0-41.607-19.9756c-1.4648-.2777-2.0925,1.9666-.6192,2.2458Z"/><path class="cls-3" d="M251.4857,96.8635c7.43.3841,15.0745.8049,21.8343,4.2346,6.2466,3.1694,11.8419,7.9029,17.5174,11.9613,1.2213.8734,2.3856-1.1458,1.1755-2.0111-6.3633-4.55-12.6938-10.0676-19.9754-13.09-6.4839-2.6918-13.6282-3.0656-20.5518-3.4235-1.498-.0775-1.4938,2.2518,0,2.3291Z"/><path class="cls-1" d="M144.9027,315.7017c9.8353-4.3411,19.7309-8.7032,30.1651-11.2926,18.1849-4.5128,38.2123-3.7569,54.2044-13.52,4.2267-2.58,8.466-7.2622,6.7122-11.8934-13.8656,10.9189-32.7929,12.2341-49.1107,18.9576-12.7548,5.2554-24.5994,14.0546-38.3805,14.6769"/><path class="cls-3" d="M71.7562,159.4937q21.3156,12.04,42.6313,24.08c6.67,3.7654,13.35,7.5442,20.3324,10.7094,5.74,2.6019,11.936,5.4721,18.39,4.6238,6.3708-.8372,11.8332-4.6717,17.1336-8.01q9.69-6.1038,19.74-11.6083a372.8418,372.8418,0,0,1,42.498-19.85l-1.4742-1.1229q1.7478,31.6968,1.72,63.4545c-.03,19.8694-.523,39.8821,3.9952,59.3694l.8134-1.4326-74.8924,29.2047c-5.8734,2.29-11.749,5.01-17.7954,6.803-6.657,1.9745-13.39-.6389-19.6892-2.8016a146.814,146.814,0,0,1-33.8742-16.8942c-1.25-.8352-2.4171,1.1814-1.1756,2.0111a149.2874,149.2874,0,0,0,33.7726,16.9031c5.6673,1.9762,12.0525,4.5665,18.16,3.7869,5.7923-.74,11.5583-3.7942,16.9418-5.8936l79.1719-30.8735a1.1987,1.1987,0,0,0,.8134-1.4325c-4.5868-19.7832-3.9143-40.1175-3.9106-60.28q.0057-30.98-1.7215-61.9247c-.0375-.68-.7258-1.4173-1.4741-1.123a378.7377,378.7377,0,0,0-38.01,17.3759q-9.4974,5.0066-18.6934,10.5587c-6.192,3.7388-12.3483,8.72-19.3534,10.81-8.0473,2.4015-16.05-1.7483-23.157-5.1919-6.51-3.1541-12.7887-6.7555-19.0837-10.3111l-40.633-22.951a1.1654,1.1654,0,0,0-1.1755,2.0111Z"/></g></svg>