<svg id="圖層_1" data-name="圖層 1" xmlns="http://www.w3.org/2000/svg" viewBox="0 0 389 570"><defs><style>.cls-1{fill:#bfbbd0;}.cls-2{fill:#fcfbfb;}.cls-3{fill:#ee7960;}</style></defs><title>ducks</title><rect class="cls-1" width="389" height="570"/><path class="cls-2" d="M272.0583,566.9242h-2.0744c-.1682-.37-.2809-1.0134-.5149-1.061-.7609-.1552-.8045.5094-.8681,1.061h-6.2233c.3157-4.2219.6118-8.4455.9633-12.6644.07-.844.9613-2.0284-.3461-2.3211-1.7573-.3934-.7557,1.0751-.9118,1.7924a2.6912,2.6912,0,0,1-.6847,1.1031c-3.0772,3.4382-7.0129,3.4911-11.1464,2.8326-2.9309-.4669-5.8648-1.5457-8.8266-1.029a107.7748,107.7748,0,0,1-19.85,1.2761c-3.4449-.0393-6.9936-.4491-10.3086.226a16.0855,16.0855,0,0,1-9.3836-.83,4.2446,4.2446,0,0,0-5.2147,1.1385q-.7.0862-1.4.1707c-.1414-.3872-.3248-.529-.6054-.1038-1.1437-.4292-2.2167.0344-3.3084.2618-5.6945-.5351-11.4119-.8986-17.0772-1.6526-5.8654-.7807-11.7832-.9431-17.5341-3.0028-3.6565-1.31-7.4011-3.1853-11.561-2.7942-3.1931-.403-5.6437-3.1933-9.0773-2.8229-.7371-.51-1.185-1.3036-2.1391-1.6437a67.3985,67.3985,0,0,1-19.5313-10.4164c-4.63-3.67-9.768-6.7027-13.88-11.0252,1.2734-.02,2.5191-.12,1.4259-1.8713A29.9789,29.9789,0,0,0,99.753,520.55a1.2339,1.2339,0,0,0-2.0492-.0587c-.7683.8113-.2965,1.4591.4418,1.947,1.139.7525,2.4028,1.3814,2.4442,3.015-5.8083-2.4952-8.6347-7.54-11.0041-12.9466-.91-2.0764-.7383-4.8586-1.828-6.4186-2.913-4.1705-2.4017-8.532-2.0255-12.9573.2926-3.4417.6261-6.8453-.0747-10.26,1.1691-1.0255,2.3859-.6515,3.5052.0014a20.46,20.46,0,0,0,6.8568,2.1157c1.9585.3508,4.3359,1.2218,6.0267-.9119,2.2016-2.7784,1.9846-5.1745-1.0157-7.1276-4.5874-2.9863-9.3429-5.7144-14.027-8.5521.8375-6.1371-.7248-12.2818.37-18.4811,1.0567-5.984,1.7085-11.965,4.086-17.6868,1.9213-4.6238,4.57-8.9933,5.11-14.1932.6614-6.37,1.9591-12.6761,2.5551-19.05.8433-9.0174-2.2608-16.8932-7.9891-23.7562-3.4034-4.0776-8.3618-5.3182-13.2161-6-4.6665-.655-9.0528.5893-12.2446,4.678q-5.6113,7.1885-11.5729,14.1014c-3.7462,4.3321-7.6756,8.5192-13.0946,10.8706a4.3362,4.3362,0,0,0-1.3536-2.5821c-2.489-2.1413-5.1572-4.0453-7.6911-6.1077-2.6108-2.1251-4.4921-1.8411-6.4059.6326a18.6055,18.6055,0,0,1,.0464-6.7822c.7474-4.2446,1.0976-8.5591,1.6134-12.8445a27.8205,27.8205,0,0,0,2.7089-7.6161c6.4645-2.0388,11.5091-6.6236,17.3947-9.7A9.2857,9.2857,0,0,0,53.85,351.42c2.0286.0471,3.67-1.1309,5.4921-1.7361C67.1213,347.1,74.8136,343.7969,83.29,346.38c4.9143,1.4973,10.5507,1.5038,14.5794,4.8163,4.9053,4.0334,9.5642,8.3549,13.1268,13.9491,4.8787,7.6608,13.12,11.9682,20.0135,17.6222,4.1885,3.4354,8.8913,3.7431,13.8375,3.7272,2.1882-.0071,4.384.0864,6.563-.0615a43.7509,43.7509,0,0,1,15.9322,2.28c5.1784,1.5892,10.68,2.0244,15.6,4.5913-6.3221-8.1639-13.8051-15.1008-18.885-24.1138-3.3072-5.8677-8.0566-10.5936-15.4878-11.4544-1.859-.2154-3.65-1.3506-5.3805-2.2415-1.53-.7877-3.1889-1.7557-3.0953-3.7746.0981-2.1162,1.9826-2.6421,3.6022-3.2027a99.7906,99.7906,0,0,0,10.8058-4.522c2.485-1.2018,2.1772-2.192.103-3.4389-1.7672-1.0622-3.5138-2.1656-5.2116-3.335-6.2037-4.2732-12.9725-7.7563-17.99-13.6556-4.3808-5.1508-9.1868-9.94-13.5678-15.0908A90.3875,90.3875,0,0,1,107.78,294.5928c-2.9692-5.2388-4.8293-10.89-6.98-16.445-.2737-.7068-.3112-1.751-1.4827-1.4629-.8576.2109-.8133,1.0365-.7833,1.7082.2613,5.8574-2.4655,10.6287-5.55,15.2554-5.79,8.6841-14.3428,14.439-22.255,20.8628-4.089,3.32-8.1478,6.7327-13.4493,8.0443-4.0515.39-7.9031,1.2831-10.8966,4.3335-4.3135-.171-8.124,2.0492-12.3147,2.568-4.2059.5207-8.4886.4032-11.19-2.9072a22.2009,22.2009,0,0,0-7.2233-5.8925A52.58,52.58,0,0,0,1,315.2272V279.2705c3.6319-.2747,7.5166,1.1628,10.5062-2.6869,1.046-1.347,1.6542-2.2725.5318-3.166-.664-.5284-.8678-3.7909-2.9931-1.141-1.3095,1.6327-2.8795,1.3408-4.3908.0805-1.0459-.8722-2.1494-1.6822-3.6541-1.3843V246.08c5.4316-.79,10.8961-1.4422,16.0588-3.5974-5.6034.1462-10.512-3.3563-16.0588-2.6259v-6.2233c2.4517-.5723,5.0965-.5055,8.073-2.38-3.277-.7434-5.66.7834-8.073.3055V220.4951c7.2078,1.7352,14.4224-.593,21.6347.03,1.3319.115,2.3563-.76,3.5066-1.2746,4.897-2.19,9.4376-5.3288,15.0432-5.6758,1.8841-.1166,2.2627-1.4193,1.7852-2.9609-.337-1.0879-1.0256-2.0614-1.45-3.1285-3.3975-8.5343-4.2844-16.6434,2.001-24.6467,4.8733-6.2054,10.5144-11.5812,16.1363-16.9876,3.1764-3.0546,6.3392-6.5275,10.4988-8.1368,6.9149-2.6754,13.2019-1.27,19.2586,3.3735,3.9676,3.0421,7.6928,6.4988,12.1022,8.9744-1.5949,4.8346-5.32,8.0868-8.6433,11.6383-5.7513,1.5142-11.4609,3.2189-17.2655,4.49a21.1121,21.1121,0,0,0-13.6032,9.7329c-3.7289,5.7272.7955,16.3361,7.4733,17.749a17.7253,17.7253,0,0,1,7.5989,3.0473c5.5677,4.3709,8.8849,10.4159,12.3368,16.3551,3.0487,5.2454,4.88,11.05,7.1513,16.675,2.278-3.553,2.04-7.7646,3.9847-11.2074,3.7215-6.5877,7.9363-12.9664,11.4334-19.5863,5.575-10.5531,11.25-21.0951,14.8063-32.7812,4.0254-13.227,8.9066-26.2232,12.6328-39.5726a34.0308,34.0308,0,0,0,.1863-18.2083c-.8474-3.24-1.5661-6-4.8206-7.2951a24.6293,24.6293,0,0,1-11.01-8.9914c-.8177-1.14-1.5059-2.6307-3.07-3.1323a40.07,40.07,0,0,1,2.5916-11.6284,8.9753,8.9753,0,0,0,.5047-4.16c.69.0184,1.3793.0533,2.069.0525,8.2813-.01,16.4018-.8674,24.0841,4.4211,6.289,4.3293,9.0783,10.1143,10.614,16.81,1.3972,6.0917.1025,12.2984-1.256,18.2966a138.15,138.15,0,0,1-4.4506,16.3057c-1.7213,4.7987-1.4436,10.3865-1.6508,15.6418-.4811,12.1992-.12,24.3189,3.9227,36.0685,1.8431,5.3563,4.3589,9.8432,10.2465,11.5171a10.3,10.3,0,0,1,2.7124,1.4475q7.6067,5.0214,15.1737,10.1026c7.0929,4.7913,14.7017,9.0108,19.0909,16.864.8418,1.5063,1.66,1.0054,2.7438.1811,4.0492-3.0805,7.2862-7.0226,11.0945-10.3332a13.7872,13.7872,0,0,0,4.6357-8.9238,66.5909,66.5909,0,0,0,.7666-9.9359c-.076-7.23-.4118-14.4581-.6778-21.6856a10.3126,10.3126,0,0,0-.4606-2.3484c-2.371-8.4943-4.9407-16.9654-6.0981-25.7154-.5023-3.798-2.5562-7.6426.507-11.6876,4.5733-6.0391,14.6411-10.18,22.08-8.2,3.27.8707,6.9039,1.26,9.0031,4.3871a19.4459,19.4459,0,0,0,3.4667,3.7568c-1.6362.1919-4.39-1.89-4.5819,1.2728-.2012,3.3064-1.8417,6.2809-1.6388,9.59-1.7415-.2856-2.98.47-4.3152,1.5847-4.5188,3.77-4.9087,8.5543-3.6634,13.7535,2.3485,9.8049,5.24,19.4542,8.17,29.1031,2.6,8.5624.3461,17.34-.0351,26.007-.1582,3.5945-.5735,6.9307,1.6554,10.1861,5.5312,8.0787,12.0906,15.4305,16.929,23.9974.506.8959,1.4892,1.5921,1.8868.0019,1.5216-6.0851,4.9043-11.7116,4.8551-18.1631-.0638-8.3837.1967-16.7546-.5682-25.1559a289.4092,289.4092,0,0,1-.7257-34.81c.117-3.9446.18-8.05,2.4659-11.6239a2.82,2.82,0,0,0,.5546-2.5858c-.72-2.0864.7935-3.2737,2.1817-4.19,6.6539-4.3946,17.2244-2.8525,21.3236,4.1154a64.8251,64.8251,0,0,1,3.8924,7.252c-2.1039,1.1008-5.3579,1.27-5.13,4.5579.306,4.419-2.2494,9.8367,3.7541,12.595a7.1942,7.1942,0,0,1-2.4481,3.6163,14.3236,14.3236,0,0,0-3.97,7.0067c-1.5874,6.4164-1.535,12.9446-2.1644,19.4381-1.2429,12.8228.1415,25.3033,3.3349,38.4787.6808-3.2185,1.0818-5.7031,1.7435-8.1162,1.2717-4.6378,1.058-9.6675,3.1844-14.0305,4.6814-9.6055,9.7926-19.0024,14.4228-28.6314,2.5991-5.4048,3.2727-11.3609,3.4667-17.3329,2.3056-1.9625,1.16-4.0594.2394-6.1476,1.1023-1.6428.0852-3.3524.0761-5.0114-.076-13.8527-1.0007-27.6-5.5477-40.8608-2.1738-6.34-4.8771-12.1684-11.9491-14.4138,1.8-2.4706,3.3837-4.9735,3.6977-8.1865.3471-3.5507-1.1055-5.4245-4.9171-5.69,2.3859-1.7455,4.8878-3.3558,7.1248-5.2749a8.9617,8.9617,0,0,1,7.3391-1.9667,59.9812,59.9812,0,0,1,12.6395,3.2143,4.549,4.549,0,0,1,2.7267,2.4928c2.3521,5.141,4.2456,10.4555,4.0474,16.1725-.2578,7.4374-1.7707,14.9466-1.0923,22.272a140.5709,140.5709,0,0,0,5.4367,27.1886c2.8346,9.4824,7.3775,18.2893,11.0428,27.444.7554,1.8867,1.7245,4.07,3.8124,4.6777,3.0661.8929,6.07,2.2994,9.3163,2.3284,9.5813.0858,17.6371,4.4561,25.7639,8.78,1.9264,1.0248,2.7324,3.5453,5.2354,3.6492v87.1259l-9.8905.8066c-3.1487-1.2424-5.2851,1.2968-7.8834,2.1106-4.6595.4236-9.05,2.5861-13.8925,1.952a131.587,131.587,0,0,1-13.4549-2.6629c-3.099-1.9559-6.6047-2.8253-10.083-3.7679-6.512-3.7657-13.8157-5.68-20.7372-9.369a21.0118,21.0118,0,0,0,1.8278,5.0077c2.5992,6.0651,5.2677,11.9493,3.1446,19.063-1.6814,5.6337-3.3666,11.4024-3.6312,17.3941-1.3237,1.2118-1.0864,2.8309-1.1412,4.3739-1.2149,3.8687-1.4727,7.9514-2.8784,11.814-.6757,1.8569-1.6051,4.0877-.4515,6.2492a7.5007,7.5007,0,0,1-4.3726,1.832c-3.4133.5225-6.8145,1.1292-10.2108,1.7545-1.0979.2021-2.898.5331-2.6772,1.5479a4.0774,4.0774,0,0,0,2.7355,3.1879c.7652.1918,1.616.015,2.404.1476,2.9013.4879,6.0089-.02,8.647,1.7577-2.6436,8.0129-8.5918,13.2544-14.8524,18.4353-3.8258,3.166-8.2245,5.7646-11.2137,9.902-5.4946-.3064-7.7661,4.3459-11.1679,7.2591-1.4729-.062-2.5587.8042-3.7753,1.4563-5.6582,3.0326-11.5112,5.6741-17.8515,6.8567-7.378,1.3763-14.8684.5418-22.3094.6873-.0266-.68-.3314-1.53-.0359-2.0129,2.438-3.9808-.861-5.9295-2.8476-8.3423a1.9083,1.9083,0,0,0-2.0522-.9011c-1.1369.3234-.5684,1.2684-.7133,1.9812-.4938,2.429-.2907,4.9987-1.4528,7.2926-1.8838-.3752-3.7841-.6841-5.6468-1.145-1.7185-.4252-2.1776.5373-1.8818,1.82,1.0776,4.6715,1.8213,9.5034,5.2956,13.2238l.2652,2.0068c-.9192,2.89-.6353,5.498,1.7835,7.6054q.197,1.7462.3938,3.4924c-1.1538,1.0255-1.2682,1.9471.27,2.7036.0836,1.3554.2622,2.7129.2315,4.0657-.0676,2.9714.1894,5.8245,2.2292,8.2105a4.8684,4.8684,0,0,0-.1187,1.369c2.25,11.075,4.93,22.0132,9.7071,32.3416,5.7914,12.5222,14.1811,23.2242,23.0272,33.6571,3.186,3.7573,7.9572,5.8963,10.2592,10.54.8592,1.7334,1.6065.4357,2.0589-.53,5.8016-12.3909,14.2319-23.0083,22.699-33.5937,2.0033-2.5045,3.764-5.8324,6.4288-7.0572,7.1286-3.2763,9.1306-9.3592,10.8459-16.0547,3.2906-12.8451,6.1281-25.8049,11.8316-37.95,4.36-9.2849,7.0969-19.403,12.4229-28.154,4.6537-7.6464,5.2306-15.7232,5.466-24.0718.1038-3.6836-1.2934-6.43-5.3071-7.8333-4.3-1.5033-8.9477-2.2075-12.8011-4.8992,2.5332-2.8071.8642-5.8148.4184-8.7641,1.4526-1.3516,3.288-.6488,4.9416-.9219.591-.0976,1.192-.3425,1.3106-.9364.1521-.7612-.6439-.6956-1.07-.9984-1.9483-1.3845-3.77-.8-5.6122.1606-.5447-.6887.0043-2.0015-1.2907-2.2622,4.4322-4.376,9.9374-6.893,15.7183-8.826a8.2093,8.2093,0,0,1,4.0825.1622c4.1364.8985,8.1975,2.2251,12.3678,2.8622,3.6549.5584,5.6019,2.7472,7.2012,5.6587,4.7227,8.5971,5.739,17.9227,4.7219,27.418-.5648,5.2732-1.4019,10.8216-3.6034,15.5542a310.817,310.817,0,0,1-17.5534,32.0983c-1.6945,2.7439-3.182,5.8747-3.32,8.8236-.3993,8.5517-.82,17.1869,1.8054,25.594,2.9431,9.4255,7.56,13.0278,17.4584,13.0714a20.2634,20.2634,0,0,1,5.7739.7721c6.0771,1.8292,12.4411,2.5322,18.1355,5.901A106.1663,106.1663,0,0,1,390.992,504c0,20.1681-.0388,40.3362.0588,60.5038.01,2.0638-.4015,2.6042-2.4825,2.4794-3.56-.2135-7.1417-.0589-10.7143-.0589q-.231-1.5195-.4623-3.0389a32.18,32.18,0,0,0-1.0238-6.0616c-.5551-1.5343,2.3752-1.2366,1.0821-2.1267-2.5524-1.7569-1.88-4.3646-2.3856-6.67-.4145-1.8919-.6614-3.8242-1.1514-5.6943-.2571-.9811-.848-2.1233-2.1467-1.7052-1.2138.3907-.6218,1.4836-.5044,2.3573.1669,1.2423.2416,2.4967.3923,3.7415.8051,6.6527-1.1326,12.9044-2.7894,19.1979H361.95c-.6909-4.0845-1.3538-8.1741-2.0933-12.25-.1754-.9669.6517-2.7435-1.1345-2.6384-1.465.0861-1.5224,1.7445-1.6,3-.2444,3.9621-.4708,7.9253-.7041,11.8881H334.2911c.1357-3.8447,1.741-7.2913,3.01-10.8148.7037-1.9534.6462-3.4549-1.4321-4.4918-1.3383,2.34-2.7383,4.563-3.9126,6.9-1.3553,2.6968-2.7133,5.4839-.4314,8.407h-14.521a24.4906,24.4906,0,0,0,.424-3.0382c.0531-2.7987,1.3585-5.508.3249-8.415-.4317-1.2143-.8954-1.736-2.1177-1.63-1.1961.1043-2.1139.738-1.9678,1.9247.4767,3.8718-1.837,7.3327-1.5037,11.158H301.7917a30.29,30.29,0,0,0,.1257-11.9857,23.0622,23.0622,0,0,0-2.2,11.9857H274.1327v-3.17C272.9392,564.7983,272.0746,565.5862,272.0583,566.9242ZM352.242,298.6651l.3427.2825-.2809-.3445c-.7476-3.3537-4.6867-3.0828-6.2534-5.5062-1.9332-4.6154-7.0449-6.3324-9.5428-10.4463a.9656.9656,0,0,0-1.5117-.11,1.5343,1.5343,0,0,0-.3336,2.1528c1.1872,1.8082,2.7034,3.4593,3.5745,5.4034,1.68,3.7488,4.2875,4.3849,7.8052,3.0072C346.25,297.0293,349.852,297.1718,352.242,298.6651ZM47.3265,359.4781a4.4924,4.4924,0,0,0,5.0345-1.5629c.432-.5772-.0641-1.0282-.74-1.0942-2.1043-.2054-3.849.1834-4.2879,2.6647-.8408.1229-1.9952-.3729-2.1959,1.1275A2.3463,2.3463,0,0,0,47.3265,359.4781Zm141.07-100.27.2241.147-.2406-.13c-.3325-3.5792-3.2774-5.8842-4.4384-9.065a.7393.7393,0,0,0-1.1589-.2686c-.2668.24-.4924.978-.3374,1.1663C184.5881,253.66,185.2238,257.368,188.3962,259.2077ZM98.4954,426.5522c-3.702,5.7892-6.4353,11.8939-6.2708,18.9423,2.4315-6.2021,5.7193-12.1249,6.2757-18.9381,4.32-4.88,3.5587-10.75,2.89-16.6055Q99.943,418.2515,98.4954,426.5522ZM249.2525,310.404c-5.5856-.1087-10.4036,2.5065-15.421,4.3885a1.8606,1.8606,0,0,0-.9441,2.6265c.6308,1.7445,1.9974.9688,2.8448.4523,3.8389-2.34,8.064-3.765,12.2124-5.3651a1.8932,1.8932,0,0,0,1.2783-2.1316l.1642-.2625ZM43.19,277.8773c.7219,1.2265-1.4848,3.9034,1.6355,3.8114,1.6211-.0479,3.2193-1.0115,4.8183-1.5882.5529-.1994,1.101-.5654,1.0015-1.2033a1.2639,1.2639,0,0,0-.8483-.8573c-2.2066-.1079-4.3963-1.615-6.6287-.1362-.2126-2.189,1.153-3.5766,2.4785-5.0213.6323-.6891,2.0174-1.28,1.1911-2.4715-.9586-1.3821-2.1212-.228-2.9817.2936-2.62,1.5879-5.2017,3.2535-7.6822,5.0492-1.6149,1.169-1.2058,2.0332.5722,2.8856C39.1633,279.7979,41.11,278.65,43.19,277.8773Zm184.6034-.0049.0251.03c.0024.6893.0115,1.3787.006,2.068-.0112,1.4111.1306,3.1523,1.2421,3.7506,1.7727.954,1.3147-1.6891,2.45-2.128.5179-.2.9114-.702,1.4167-.9574,4.5409-2.2955.8189-4.8156-.0681-6.9155-.7151-1.6928-2.3883.1135-3.647.1792a8.4776,8.4776,0,0,0-1.6318.523c-.8167.2228-1.5727.5395-1.6761,1.49C225.7628,277.2654,226.6668,277.6968,227.7934,277.8724ZM375.8187,288.9c.8383-.163,1.5982,1.0755,2.9656-.3168-3.7169-1.9548-6.9354-4.395-10.7647-5.81a1.844,1.844,0,0,0-2.1565.6549.9666.9666,0,0,0,.19,1.4982c3.2557,2.1423,4.4849,5.9525,7.1319,8.5758.8417.8341,1.91,2.06,3.218,1.089,1.22-.9057.8955-2.2216-.0189-3.3228a3.1627,3.1627,0,0,1-.6748-2.24ZM145.51,478.4239c.2635-.9867.5327-1.9719.7889-2.9605.2684-1.0358,1.2833-2.3309-.2017-2.997-1.5587-.699-2.5311.4589-3.1988,1.7946-1.066,2.1327-2.1607,4.2514-3.2048,6.3948-.4919,1.01-.56,1.9406.5988,2.6594,1.1549.7166,1.4555-.3474,2.1914-.7554,1.7285-.9582.8027-3.7075,3.0431-4.1533-1,4.4783.6164,8.8179.7285,13.24.0286,1.1268-.67,2.7017,1.1228,3.2051a3.8907,3.8907,0,0,0,3.5394-.9639c1.1638-.9485.8895-2.2613.5018-3.5072a33.5322,33.5322,0,0,1-1.6989-5.5689C149.3551,481.89,147.4108,480.2193,145.51,478.4239Zm4.86-201.212c-1.5007-.0612-2.0512.3361-1.4633,2.0174,1.2864,3.6788,2.5271,7.3932,3.44,11.1766.7807,3.2345,3.5476,2.7671,5.1078,2.26,2.3014-.7487.8752-2.8679.1553-4.3531-1.9456-4.0146-5.83-6.7719-7.2669-11.1274l.1613-.2433Zm160.4219-13.83a1.48,1.48,0,0,0-1.4165,1.2539c-1.24,5.5544-.6636,11.1763-.3894,16.7518.0655,1.3319,1.6788,3.2155,3.2938,2.971,1.9761-.2992,1.0454-2.43,1.1875-3.7964a8.2141,8.2141,0,0,0-.3055-2.0187q-1.2-7.5936-2.3959-15.1878l.1652-.242Zm-91.3009,76.0308c1.2089-.1077,1.4592.9016,1.9391,1.6534.921,1.4429,1.9,1.4683,2.99.1509,3.46-4.1843,7.7653-7.4579,11.8721-10.9432.63-.5344,1.3937-1.013.6369-1.9368-.7027-.8577-1.4789-.3532-2.15.0684q-6.9476,4.36-13.8611,8.7748a2.7767,2.7767,0,0,0-1.3957,2.2639c-2.3944.2152-9.6641,6.4806-10.2359,8.8215a1.6313,1.6313,0,0,0,.6277,1.8285,1.33,1.33,0,0,0,1.8884-.028C214.3835,346.5291,218.6048,344.1676,219.4908,339.4128ZM122.7079,518.5084l.2384.1511-.2593-.13q-2.19-11.8357-4.3714-23.6268c-1.52.0311-.6323,1.7538-1.6891,1.99-.46-1.3054.3492-2.7326-.8363-4.2951.1728,4.1638-.084,7.8793.43,11.6755.3253,2.4026,1.9656,4.5507,1.5254,6.888C116.9381,515.4481,119.7407,516.9553,122.7079,518.5084Zm144.5-177.6858c-.0876-1.4267,1.0874-2.2272,1.691-3.2985.7184-1.2751,2.2274-2.0188,2.5093-3.6271.1459-.8328,1.1536-1.7767.0514-2.4547-.98-.6028-1.64.4078-2.3319.98-1.2346,1.0211-2.5734,1.9354-3.6991,3.0634-.9793.9814-2.7463,1.72-1.9921,3.6011.6741,1.6814,2.2538,1.7427,3.7926,1.7155-1.24,2.1728-1.3533,5.5007-4.8888,5.4262-2.7655-.0583-4.2294,2.1273-6.322,3.1989a1.9716,1.9716,0,0,0-.942,2.6754,6.3617,6.3617,0,0,0,3.6646,2.9355c1.1477.2608,1.3477-.9945,1.832-1.7387.852-1.31,1.0483-3.1231,2.8366-4.0738.2574,1.7176-.7076,2.6882-1.2163,3.7812a1.7727,1.7727,0,0,0,1.0135,2.5479c.97.4809,1.6246,1.9374,2.9178,1.3688a1.997,1.997,0,0,0,.9471-2.0962c-.6129-3.9825.6068-7.6536,1.8482-11.32C269.4821,341.8451,269.2637,340.7711,267.2074,340.8226ZM204.4763,511.8967a9.1514,9.1514,0,0,0-8.1841-.2041c-9.21,4.3354-18.7522,6.5041-28.9538,4.8845-.5634-.0895-1.2381-.1151-1.4649.54a1.7728,1.7728,0,0,0,.1532,1.2713c.6573,1.22,7.1087,4.43,8.2738,3.9311,5.4644-2.3374,11.7-1.4924,17.0762-4.3419a15.6316,15.6316,0,0,1,7.1878-2.0442C201.7358,515.9869,203.3567,514.6855,204.4763,511.8967ZM175.7935,319.5315c-.4652-.3746-1.0911-.8634-1.7-1.3719-1.6717-1.3955-3.3648-2.7672-4.9985-4.2061-4.1369-3.6438-8.3074-7.2535-12.3335-11.0168-1.4687-1.3729-2.8-.5125-3.6948.177-1.3728,1.0579.1284,1.9479.8069,2.7563,1.3252,1.5787,2.6184,3.1945,4.0572,4.6654,2.7747,2.8364,4.9,6.3438,8.9589,7.8383,2.223.8185,4.6434,1.2,6.6306,2.77C174.48,321.9021,175.4643,321.2356,175.7935,319.5315ZM127.687,272.5021c-1.3014-.1672-.4362-2.4895-1.977-1.8247-1.295.5587-.9334,1.9468-.7792,3.0727a2.5786,2.5786,0,0,0,.4949.8923c1.3537,2.1224,2.6771,4.2655,4.0837,6.3524.75,1.1121,1.2136,3.2,3.2237,1.6471,1.5878-1.2268,2.5606-2.8324.7267-4.641a6.7016,6.7016,0,0,1-1.5872-7.0485c1.2438-4.0814-.4174-7.956-.2652-11.9294a1.5562,1.5562,0,0,0-1.7384-1.7122c-1.1256.0493-1.53.9124-1.5542,1.92-.0443,1.8379.06,3.6837-.0688,5.5141C128.0654,267.308,128.7461,269.9621,127.687,272.5021ZM190.1511,291.52c-.5215,3.7173-.5774,7.5013,1.6473,10.6368a25.5439,25.5439,0,0,1,3.5617,7.3546,8.9622,8.9622,0,0,0,3.48,4.5782c1.5062,1.0979,3.0772.3074,4.0088-.7848,1.6055-1.8826-.94-1.4371-1.51-2.027a11.4573,11.4573,0,0,1-2.3435-4.5338c-1.01-2.9124-1.8477-5.89-2.9765-8.7543C194.8979,295.1439,194.1265,291.838,190.1511,291.52ZM388.8172,545.8232c-1.4551-6.388-4.9427-11.1365-9.0509-15.4893a1.4887,1.4887,0,0,0-2.1642-.2986c-.7929.7862-.3954,1.7781.1082,2.5379,2.711,4.09,3.3,8.8216,3.5341,13.4628.182,3.6092,2.8241,3.0536,4.5766,3.2154C388.0792,549.46,388.4015,547.1529,388.8172,545.8232ZM211.3765,369.1485c.44-2.42-.6608-1.9933-1.8479-1.52-5.7184,2.28-10.9159,5.9272-17.2749,6.538a1.1886,1.1886,0,0,0-.9132,1.8427c.9376,1.9277,1.74,4.1013,4.7732,2.709,2.9146-1.3379,6.2193-1.9636,8.9026-3.6278C207.5048,373.547,211.46,373.0679,211.3765,369.1485ZM124.4318,497.2747c.4594,1.2915.8535,2.6107,1.39,3.87,2.0226,4.7466,5.7928,7.8861,9.9256,10.6883,1.2315.835,2.4463,3.0732,3.8237,1.7579,1.1239-1.0732-.222-3.1793-.9637-4.6926a10.961,10.961,0,0,0-1.2811-1.6134c-2.7283-3.5831-6.5595-6.2556-8.5448-10.461-.8688-1.84-2.4221-.536-3.6727-.6236C124.1449,496.1323,124.2686,496.6417,124.4318,497.2747Zm26.164-34.4565c-2.414-.2031-3.3815,2.1047-2.476,4.6122,1.557,4.3116,4.6619,7.5181,7.4758,10.94,1.3143,1.5982,2.9273,3.0605,4.941,1.333,1.9457-1.6692-.1684-3.2139-.8842-4.4626-2.3816-4.1542-6.262-7.2855-8.2631-11.7463C151.2313,463.1419,150.7427,462.9379,150.5958,462.8182ZM251.33,279.6348c-1.3662-2.8036-3.4179-5.0442-.7859-8.5306,1.57-2.0795,1.2955-5.0716-1.0469-8.21-.7533,5.9708-2.9291,10.8889-1.9771,16.2542.1061.5979.1818,1.0879-.3727,1.525-2.3909,1.8847-3.1109,5.019-5.2667,7.0882-.4087.3922-.8779.9055-.4614,1.4753a1.37,1.37,0,0,0,1.5984.2634,5.7306,5.7306,0,0,0,4.178-4.9733,2.6836,2.6836,0,0,1,2.1657-2.3923c1.2836-.2919,1.835.2751,2.1134,1.5529.3144,1.4431,1.0563.9328,1.9865.3216,2.1375-1.4045,2.3466-3.53.4965-6.81-.2854-.5063-.5154-1.0984-1.2026-1.008-.784.1032-.6272.8188-.715,1.3566C251.9364,278.1813,252.2852,278.9225,251.33,279.6348Zm-85.5672,255.808c-6.8351-4.1072-13.029-9.1258-19.82-13.2545-1.9544-1.1883-3.8386-2.5428-6.13-3.0748-.8226-.1909-1.7512-1.0963-2.3908.1366-.4582.8831.3838,1.4378.8636,2.0651,1.8876,2.4683,4.7934,3.5185,7.261,5.1524A64.4975,64.4975,0,0,0,165.7624,535.4428ZM155.1555,326.5214a4.592,4.592,0,0,0-.6784-2.6107,71.54,71.54,0,0,1-4.92-10.5794c-.46-1.1113-.5257-3.1915-2.5184-2.4279-1.6342.6262-1.7258,2.3305-1.27,3.8789.5512,1.8723,1.242,3.703,1.8317,5.5646.2021.638.5509,1.8041.3766,1.9-2.38,1.31-.1751,2.2062.3744,2.8943a19.4711,19.4711,0,0,0,3.5254,3.2225c.6677.5058,1.34,1.5017,2.393.94C155.3917,328.7066,155.1313,327.5383,155.1555,326.5214Zm118.18,65.8524c-.1223-.94-.7744-1.1082-1.5013-.8714a13.6082,13.6082,0,0,0-3.5054,1.3872q-8.4942,5.8167-16.8439,11.843c-.615.442-1.9012,1.0388-1.0608,2.1118.5981.7636,1.4785-.0256,2.1829-.3287,7.1073-3.0595,13.0023-8.0526,19.4176-12.2153A2.5022,2.5022,0,0,0,273.3359,392.3738Zm-89.1033-82.0552.7013-.6965c-2.3676-2.3442-3.6123-6.1-6.7332-7.2042-4.1406-1.4652-5.827-4.9247-8.383-7.7311-.46-.505-.7945-1.13-1.28-1.6047a1.87,1.87,0,0,0-2.2207-.4472c-.9833.5119-.5221,1.3574-.2663,2.1084.8015,2.3538,1.496,4.62,3.2551,6.6674,1.4072,1.6377,2.535,3.2239,4.5725,2.1624,1.5978-.8325,2.236-.1834,3.2131.6714C179.4436,306.3018,181.8489,308.2978,184.2326,310.3186Zm29.5438,97.08c-.9692.6265-1.3928-.1717-1.9511-.4533-.7643-.3854-1.5581-.6185-2.2347.0122a2.4329,2.4329,0,0,0-.3849,2.29c.1812,1.2206,5.1932,4.3582,6.6228,4.0875,3.2449-.6144-.7634-2.3449.4615-3.3134a.4665.4665,0,0,0,.1235-.3161c.1988-4.5107-1.6976-8.1652-4.7217-11.3185-.854-.89-2.0886-2.2584-3.17-1.23-1.0558,1.004.1317,2.4306.7774,3.6133C210.5793,403.115,213.1064,404.6524,213.7764,407.3988ZM211.0527,335.12a2.4869,2.4869,0,0,0,.6544-.1812q6.3959-3.8918,12.77-7.82a2.4237,2.4237,0,0,0,.877-1.0348c.4854-1.1044.1626-2.03-1.134-1.6053-4.7578,1.5584-9.492,3.2033-14.1652,4.9974a2.4048,2.4048,0,0,0-1.2871,3.4512C209.2146,333.9527,209.5547,335.1573,211.0527,335.12ZM135.1863,468.9065c-.4316,1.1406-.9853,2.8055,1.3069,3.0564,2.3078.2525,1.7768-1.6813,2.1693-3.0534,1.2887-4.5047,1.74-9.1575,2.6478-13.7269.1366-.6878,1.0185-1.5973-.0455-2.115a2.5087,2.5087,0,0,0-2.8875.4015,5.196,5.196,0,0,0-1.7368,3.2611C136.14,460.6777,135.6925,464.6321,135.1863,468.9065ZM46.6684,265.049c4.1455,1.0806,6.3865-2.7985,9.8429-3.5722.92-.206.453-1.8622.4322-2.8652-.0117-.5646-.21-1.3111-.9965-.8977-2.1623,1.1365-1.8663.0535-1.2739-1.3372.2443-.5733,1.09-1.1178.2394-1.7383-.597-.4357-1.3-.1684-1.9428.1626-3.5771,1.8405-5.379,5.4546-8.0084,8.2207C43.8122,264.2307,45.2434,265.1916,46.6684,265.049Zm184.4859,77.8181-1.4465-1.248c-2.4573,2.8452-4.8814,5.72-7.389,8.52-.9425,1.0525-2.0358,2.1227-1.973,3.5239.0839,1.8711-2.1314,4.311-.0865,5.3749,2.0075,1.0445,2.5714-2.053,3.7553-3.2382A26.026,26.026,0,0,0,231.1543,342.8671ZM147.4717,233.3438a21.8227,21.8227,0,0,1,2.3,11.4461c-.154,2.9864-.09,5.9894.0049,8.981.0522,1.6464.9137,3.0969,2.6685,3.0039,1.8145-.0962,1.4993-1.8769,1.3269-3.0145-.57-3.7636-.24-7.6145-.8576-11.3124C152.32,238.883,149.8651,236.02,147.4717,233.3438ZM367.2124,513.8594a39.7154,39.7154,0,0,0-5.9228-6.6445c-2.2725-1.9316-4.8828-2.8985-7.8963-2.0486-.6016.17-1.5234.1942-1.4855,1.1224.0249.608.6481.826,1.1947,1.0711a14.2035,14.2035,0,0,1,6.5033,5.2132C361.8577,516.3475,364.2165,515.6994,367.2124,513.8594ZM146.2972,297.8289c-1.0767-3.3762-2.1993-7.4121-3.75-11.2763-.2745-.684-.8194-3.4509-3.0782-1.82-1.5373,1.11-2.6028,2.1949-.7409,4.1319a10.7445,10.7445,0,0,1,2.6212,6.9184,8.8155,8.8155,0,0,0,1.0894,3.5792c.5779,1.0937,1.0361,2.6464,2.5574,2.3337C146.639,301.3586,146.1223,299.709,146.2972,297.8289Zm-2.789-58.2529c-5.269,3.0332-5.542,7.5818-4.7345,11.5075,1.0776,5.2383,4.5014,9.567,8.1946,13.5266C145.7091,256.4343,138.6091,249.4169,143.5082,239.576ZM328.7125,489.73c-.2536-3.4023-.4522-6.4789-.7331-9.548-.0714-.78-.3521-1.8545-1.1407-1.9332-1.1724-.1171-1.3352,1.1313-1.416,1.9562a37.7371,37.7371,0,0,1-2.1117,10.0361c-1.2891,3.3151,2.7479,4.0716,2.8,6.657.0025.1252,1.0489-.1431,1.1409-.8295C327.5555,493.806,329.0112,491.7949,328.7125,489.73ZM244.078,394.1282c3.5489-3.9837,6.9412-8.2344,10.9783-11.8969.794-.72,2.3262-1.6648,1.464-2.71-.8661-1.05-2.3366.0273-3.2863.6986a62.7191,62.7191,0,0,0-9.22,7.6085C241.7577,390.174,241.0117,392.0506,244.078,394.1282Zm114.2933-86.984a5.9477,5.9477,0,0,0-2.1862-3.3709,50.0871,50.0871,0,0,0-7.3159-4.4119c-.7393-.4142-1.6715-1.2447-2.4631-.2694-.7065.87.0922,1.7609.517,2.5179,1.7712,3.1566,4.539,5.4508,7.0512,7.9627a1.6918,1.6918,0,0,0,2.4593.2893C357.32,309.1557,358.3043,308.48,358.3713,307.1442Zm9.3259-14.4c-.1657-.2889-.2567-.6632-.4935-.8288-6.3417-4.4354-13.4169-7.8322-18.9446-13.4234-.5-.506-1.2238-.81-1.8257-.1968-.6074.6182-.2561,1.3317.2351,1.83,2.9851,3.0266,5.9642,6.0619,9.0451,8.9893a3.3613,3.3613,0,0,0,2.4952.9814c2.9194-.6588,4.887,1.272,7.2044,2.2679C366.1054,292.661,366.76,293.346,367.6972,292.7442ZM134.3958,304.1417c.8895,4.0128.8433,8.1928,2.1739,12.1354.4326,1.2816,1.1473,2.4481,2.6367,2.2225,1.7112-.2591,1.46-1.8141,1.4609-3.0507a5.2313,5.2313,0,0,0-.2938-2.024,51.377,51.377,0,0,1-2.61-9.5995c-.2188-1.0094.0879-2.9135-1.7765-2.6989C134.3745,301.312,134.332,302.7861,134.3958,304.1417Zm-5.3784-7.178a62.3615,62.3615,0,0,0-6.8119-11.7546c-.5872-.7885-2.0276-.6148-2.9293-.1486-1.0153.525-.7975,1.649-.3117,2.4319,2.4056,3.8759,4.8731,7.714,7.3688,11.5327a1.5547,1.5547,0,0,0,1.7812.75C129.1438,299.4392,128.8564,298.5,129.0174,296.9637Zm29.5545,225.152a2.8006,2.8006,0,0,0-1.736-2.9543c-2.67-1.467-5.3559-3.0733-7.0534-5.769a2.17,2.17,0,0,0-3.2712-.68c-1.6422,1.0561-.3821,2.3244.364,3.1518a49.2617,49.2617,0,0,0,8.4965,7.9569c.6839.4689,1.3089,1.0338,2.1614.6419C158.5206,524.01,158.59,523.0559,158.5719,522.1157Zm36.5012-64.7068c-3.8783-9.0643-10.8412-15.3048-15.7742-23.5483C179.1063,438.1645,191.1589,456.4453,195.0731,457.4089ZM23.5132,242.4828a23.8689,23.8689,0,0,0-6.75,4.6571c-2.2783,2.0187-3.4366,5.2123-6.6188,6.2748a.7594.7594,0,0,0-.4233,1.13c.3694.534,1.0086.4673,1.5689.35,4.2253-.8875,8.6929-1.5909,9.8934-6.7256C21.6634,246.115,24.6707,245.1886,23.5132,242.4828ZM368.7186,508.78a36.3174,36.3174,0,0,0,5.9386,10.0009c1.9027,2.3879,4.1621.89,5.7841-.3691,1.9859-1.5421-.2017-2.6287-1.1213-3.4589A28.6913,28.6913,0,0,0,368.7186,508.78ZM124.7973,479.4691c.0535,2.1842-.1952,3.9795.4782,5.7942.42,1.1311,1.0455.8529,1.8114.9238,1.036.0958,1.1224-.479,1.1088-1.2318-.0871-4.8329,1.2873-9.4613,1.9913-14.1833.1893-1.2693-.1-2.502-1.3289-2.8019-.9549-.2329-1.6552,1.1883-1.6624,1.7852C127.1529,473.32,123.7388,476.0593,124.7973,479.4691ZM277.4626,357.5246c-.0065-.7538-.0992-1.1963-.6582-1.31a2.22,2.22,0,0,0-2.2781,1.2435c-2.3273,3.39-4.5618,6.8444-6.845,10.2653-.8959,1.3424-1.5728,2.6638.2958,3.7441s2.7008-.0862,3.3449-1.6211a66.4328,66.4328,0,0,1,4.664-8.7706A22.8365,22.8365,0,0,0,277.4626,357.5246ZM288.5094,562.01c.9564-9.6949,2.1038-18.8884,1.3834-28.1742C287.128,539.844,286.24,557.8081,288.5094,562.01Zm13.8975-26.7526c.1873,1.8411-.1969,3.89,1.5135,4.208,1.3615.2531,2.6133-1.1985,3.2057-2.6692.3395-.8425.5243-1.7466.8546-2.5935.917-2.3508.1-5.0583,1.5365-7.302.5188-.81.14-1.2847-.7039-1.4573-.72-.1474-1.6217-.9519-2.122.1386C305.1736,528.89,302.7774,531.8374,302.4069,535.2573ZM124.869,240.5542l-.7787-.108c-2.4839,6.6361-4.9835,13.2664-7.4259,19.9177a3.45,3.45,0,0,0-.0726,2.0248c.3,1.0266.3468,2.6026,1.7651,2.5476,1.0633-.0412,1.3767-1.3038,1.6119-2.3742.7853-3.574,1.6972-7.12,2.4951-10.6914C123.3048,248.1073,124.0705,244.3271,124.869,240.5542Zm39.9671,34.0764c1.1549,2.15-2.5991,2.4548-1.3829,4.45q2.7724,4.5489,5.551,9.0942c.5.8226,1.0743,1.6039,2.1637,1.2987,1.2544-.3515,1.3673-1.4563,1.2768-2.5143a10.6126,10.6126,0,0,0-4.2325-7.9581A8.134,8.134,0,0,1,164.8361,274.6306ZM136.241,222.6985a9.1576,9.1576,0,0,0-2.3508,7.6664c.2035,1.43,1.0246,2.5462,2.4966,1.1388a13.022,13.022,0,0,1,5.9847-2.9822c1.343-.3565,2.8461-.7617,2.315-2.6644-.4651-1.666-2.03-1.6153-3.358-1.6637a4.25,4.25,0,0,0-1.9628.5654C137.5241,225.702,136.3694,225.347,136.241,222.6985Zm166.0245,27.4109a3.8145,3.8145,0,0,0,1.3319,2.8785c1.4236,1.0106.714,4.15,2.78,3.8088,1.8624-.307.4007-3.1195,1.5567-4.4966.357-.4253.9039-1.7146.1281-1.6656-4.1728.2636-1.2332-2.451-1.1665-3.2752a15.8964,15.8964,0,0,1,1.8318-5.1228c.3991-.8561.5953-1.5193-.287-2.05a1.3969,1.3969,0,0,0-2.0847.5507C304.9228,243.8292,303.6179,246.98,302.2655,250.1094ZM175.9011,509.662c1.9077-.1241,3.069-.1082,4.1931-.305.7469-.1308,1.7421-.3279,1.772-1.3283a1.843,1.843,0,0,0-1.5081-1.6881c-3.9645-1.1464-7.9546-2.2038-11.929-3.3167-.741-.2076-1.3895-.2065-1.769.542a1.3042,1.3042,0,0,0,.6418,1.7681C170.3487,506.8917,172.64,510.16,175.9011,509.662ZM68.6372,295.3076c-3.7533,2.4972-5.8126,6.1317-9.1779,8.339-.8393.5506-2.2839,1.7455-.38,2.9376,1.5006.94,3.2473,2.6,4.78.552C66.3334,303.829,68.51,300.2687,68.6372,295.3076Zm208.2946,74.1865c6.704-6.7326,12.1171-13.2,13.997-21.9373C288.2044,355.7857,278.5425,359.4383,276.9318,369.4941Zm-27.4713-47.8749a86.3189,86.3189,0,0,0-10.8162,11.7067c-1.0126,1.2513-.048,2.5073.8266,3.3251,1.2029,1.1247,1.7268-.1606,2.2891-1,1.9666-2.9349,3.8718-5.9145,5.9385-8.7773C248.7434,325.4264,250.5224,324.38,249.4605,321.6192ZM59.6928,265.689c.009-.98.1776-1.9909-1.1064-2.2109-1.1191-.1916-2.0184-.0147-2.3539,1.3233a14.8955,14.8955,0,0,1-3.19,5.9893c-.71.8464-1.354,2.05-.5141,3.1488a4.8929,4.8929,0,0,0,3.6979,1.533c1.5558.1131,1.4908-1.5286,1.7679-2.5317C58.661,270.5283,59.1481,268.0662,59.6928,265.689Zm264.1809-18.0211c0-.9377.0337-1.5127-.0083-2.0821-.0557-.7559.2419-1.7875-.8147-2.0081-1.1436-.2389-1.2119.8667-1.38,1.5692-1.06,4.423-2.1252,8.8472-3.0453,13.3005-.3552,1.719,1.4215,1.5006,2.3245,1.9191.9549.4426,1.4575-.245,1.5692-1.1937C322.9848,255.2176,323.4505,251.2625,323.8737,247.6679ZM185.5378,472.4668c.5129-7.7665-4.8817-12.5453-6.8265-18.5944C177.1516,460.11,178.9023,464.8644,185.5378,472.4668Zm-69.8836-4.54c.7478,3.2862.71,7.0808,1.9224,10.6856.4108,1.2216.9217,2.0671,2.3832,1.8377,1.8677-.2932.7594-1.49.7315-2.357-.1176-3.6532-1.6461-7.11-1.4751-10.8122.0673-1.457-.4153-3.1139-2.0212-3.0472C115.2277,464.315,115.9643,466.2753,115.6542,467.9263ZM219.2466,349.4018c-.6069-1.333-1.5228-1.0313-2.2644-.4564-3.2551,2.5226-6.43,5.1493-9.6941,7.66-1.1964.92-.8642,1.7043-.0829,2.5708,1.4892,1.6516,3.905,1.3679,5.1555-.8347a37.42,37.42,0,0,1,5.8065-7.6382C218.5609,350.2983,218.892,349.8326,219.2466,349.4018ZM29.2484,280.9728c-4.7354-.6356-8.3829-.5264-11.79,1.4952-1.2792.759-2.1064,1.7-1.3324,3.3778.72,1.5593,1.7436,1.851,3.3439,1.4622C23.2109,286.399,25.4269,283.3736,29.2484,280.9728ZM13.57,238.3647c4.5612.68,6.7381-2.7438,9.3879-5.2755.4128-.3943.9252-1.1941.3259-1.8239-.5244-.5512-1.2708-.2573-1.9434-.1019-3.8331.8854-6.69,3.938-10.5664,4.7448-.6537.1361-.7288.8056-.652,1.4043a1.111,1.111,0,0,0,1.1427,1.0431C12.0619,238.3934,12.8627,238.3647,13.57,238.3647Zm250.9313,72.2037c-.8036-.1382-1.1163.322-1.4931.7787a46.46,46.46,0,0,1-6.0669,6.0585c-.7844.6563-2.162,1.89-.4644,2.5925,1.4038.5809,2.8387,3.8314,4.704.8711a86.35,86.35,0,0,0,4.14-8.2277A1.31,1.31,0,0,0,264.5009,310.5684Zm-57.7694,73.8622c-1.5275,0-2.5638-.0092-3.6.0025-1.1612.0131-2.4734-.0633-2.7586,1.43-.2568,1.345.9058,2.0366,1.7626,2.7489a3.2262,3.2262,0,0,0,3.2868.2622c3.0218-1.0389,6.031-2.1143,9.0425-3.1826.6621-.2349,1.3818-.5326,1.1219-1.4088-.2046-.6892-.932-.5312-1.4758-.5393C211.4665,383.7047,208.9241,384.8888,206.7315,384.4306Zm147.5462-138.436c.03-1.9131-6.6936-10.86-8.4976-11.3554a1.1089,1.1089,0,0,0-1.2255.3242,1.4021,1.4021,0,0,0-.2166,1.8795,92.6673,92.6673,0,0,1,6.684,10.2953,1.6651,1.6651,0,0,0,2.0978.7757A1.8058,1.8058,0,0,0,354.2777,245.9946Zm-.6724,282.8838c1.72,0,2.6371.0219,3.5522-.0073.6656-.0211,1.4417.0931,1.7688-.7076a1.5112,1.5112,0,0,0-.66-1.795,21.1723,21.1723,0,0,0-7.1077-4.0519c-1.7669-.5169-3.0963.2429-2.88,2.5525C348.6527,528.8622,351.2642,529.2221,353.6053,528.8784ZM34.9074,265.9712c-7.0517-.4227-11.0761,3.5824-16.5762,6.9061,2.54-.0245,3.1976,2.6732,5.0246,1.8567C27.61,272.8332,30.2264,268.7907,34.9074,265.9712ZM366.761,545.6737c.0518-2.157-5.4814-8.24-7.5671-8.3691-1.1178-.0689-1.3376.5609-1.4058,1.4769-.1832,2.463,4.0829,8.2522,6.4462,8.6743C365.6551,547.7094,366.8217,547.547,366.761,545.6737ZM228.9144,401.5521c2.1984.0647,8.5865-6.14,8.579-8.0566-.0048-1.2326-.8366-1.8831-1.76-1.3813-2.95,1.6021-6.4761,2.5091-8.112,5.8953C226.7984,399.7123,226.8973,401.15,228.9144,401.5521ZM170.6,446.801c.5972-5.7052,1.4053-11.4224-2.5789-16.4352-.4584-.5768-.9419-1.0658-1.7077-.7577-.8123.3267-.78,1.1636-.6134,1.7722C167.1215,436.5725,167.9932,441.9384,170.6,446.801Zm6.4449-161.1464c-4.974-6.2252-6.3309-14.8039-13.1745-20.1011C164.6046,270.9322,172.2738,282.9252,177.0445,285.6546Zm157.5716,19.8766c.8872-.0773,1.881.2439,2.5644-.6248.5362-.6815.1858-1.24-.2548-1.8365a32.6579,32.6579,0,0,1-4.78-9.08c-.3759-1.1267-1.5672-2.1474-2.1981-1.0925-1.77,2.96.7932,5.65,1.4232,8.4171.31,1.3593-.2275,4.3792,2.8986,4.2226C334.384,305.5315,334.4991,305.5365,334.6161,305.5312ZM331.69,500.6822c2.2115-1.4014,3.2259-1.6966,4.09.2036.8737,1.9221,2.968,1.3423,4.1636.6077,1.2188-.749.0437-2.0782-.5583-2.9641-1.3494-1.986-2.8363-3.8781-4.238-5.8295-.51-.7105-.7474-1.9143-1.9631-1.4043a1.8869,1.8869,0,0,0-.894,2.3928A8.6706,8.6706,0,0,1,331.69,500.6822Zm-25.0927,50.774a19.2373,19.2373,0,0,0,.3574,3.3761c.3422,1.3749,1.1108,2.634,2.878,2.3126,1.6617-.3022,1.7383-1.6758,1.6256-2.9549a22.129,22.129,0,0,0-.7343-4.3751c-.4409-1.4764,1.3315-4.2144-1.86-4.1967-3.1719.0176-1.9153,2.7192-2.1979,4.4381C306.63,550.281,306.6416,550.5138,306.5975,551.4562Zm-143.6486-3.7655c-9.15-2.3767-17.3136-8.1617-27.2488-7.9845C144.2344,544.1333,153.82,545.1408,162.9489,547.6907Zm84.3088-232.3169c-3.1753,2.0172-6.3663,3.9594-9.4606,6.045-1.63,1.0988-1.2139,2.5487-.1673,3.86,1.072,1.3435,1.9605.5738,2.84-.309,2.0309-2.0386,4.08-4.059,6.1222-6.0864C247.5255,317.9567,248.3119,316.9952,247.2577,315.3738ZM56.2463,296.1278c-.1985-1.8451-1.1168-1.24-1.9738-.9256-2.6756.983-4.1876,3.4982-6.5335,4.9427-1.0921.6726-2.4887,1.7348-.7518,3.2258,1.3031,1.1185,2.6683,1.9107,4.0651.0645,1.4443-1.9091,2.9373-3.7818,4.3626-5.7048A9.9692,9.9692,0,0,0,56.2463,296.1278Zm78.1354-56.7125c-.5011,1.3866-2.4316.441-3.0058,1.8534a17.4351,17.4351,0,0,0-.7294,9.4606c.328,2.1417,1.932.67,2.8546,1.0272,1.2124.469.8448-.9942.8548-1.6474C134.41,246.5452,134.3817,242.98,134.3817,239.4153Zm73.1344,107.5152c-.6313-.9049-1.5682-.7034-2.4648-.1363-3.0813,1.9489-6.1322,3.946-9.1982,5.9193-.7175.4619-1.3941,1.0682-.9432,1.9284A2.8757,2.8757,0,0,0,196.501,355.8C197.7831,356.2132,207.5177,348.564,207.5161,346.9305ZM43.5655,295.243c-.2653-.8031-1.0016-.7027-1.6635-.76a23.2968,23.2968,0,0,0-8.4116,1.1658c-1.02.29-2.46.5694-2.5913,1.916-.1221,1.2486,1.0333,1.99,1.9369,2.6516,1.0626.7785,2.1019.4436,3.139-.3013,1.994-1.4322,3.6379-3.5219,6.4532-3.4939C43.0107,296.4266,43.4258,295.9324,43.5655,295.243ZM171.8828,547.1664c6.81,3.9513,14.2338,4.2441,21.8213,3.5C186.52,549.0351,179.4162,546.933,171.8828,547.1664ZM320.3662,273.4645c-3.584,4.4463-2.8453,9.2335,2.6968,16.2568C323.4022,283.6827,320.9461,278.8262,320.3662,273.4645ZM367.1591,516.79c-.8674-.0129-.8051.6395-1.0652,1.127-1.7778,3.3324,1.1072,5.8776,1.4241,8.8458.1756,1.644.93,2.0916,2.6,1.5731,1.6607-.5158,2.3165-1.1294,1.6167-2.9331-1.076-2.7734-3.3921-4.9285-3.8931-7.98C367.7988,517.1654,367.3647,516.9722,367.1591,516.79ZM348.63,493.4022c-.1187-.47-.7429-.761-1.22-1.2342-1.6616-1.6468-4.0377-.7959-5.7847-1.7441-1.4143-.7677-3.16-1.6622-3.9449-.4038-.7307,1.1717.9158,2.5719,2.0554,3.5117a19.42,19.42,0,0,0,2.7841,2.0092C343.76,496.237,348.36,494.76,348.63,493.4022ZM37.5449,224.9669c-2.2809,3.1628-5.1108,3.8816-7.4635,5.313a4.2431,4.2431,0,0,0-2.0643,4.0449,1.29,1.29,0,0,0,1.2948,1.3239,3.5007,3.5007,0,0,0,3.8752-1.5986C34.7,231.4233,36.8293,229.0966,37.5449,224.9669ZM5.148,300.5384,4.272,301.54c2.5634,2.4456,4.6215,5.4348,7.93,7.0755,1.1524.5715,2.89,1.0187,3.68-.3957.6693-1.199-.4026-2.6136-1.4145-3.17C11.4464,303.39,8.266,302.0211,5.148,300.5384Zm321.8905-34.27c-.9266,7.7084,2.9932,12.8471,9.8812,12.127C331.2488,275.8768,330.8871,270.0411,327.0385,266.268Zm-59.856,98.212c-.271-1.6854-1.0265-1.4515-1.6924-.8013q-3.3129,3.2348-6.52,6.5769a2.051,2.051,0,0,0-.1252,3.0721,2.3655,2.3655,0,0,0,3.42.1461C264.6125,370.7892,264.9979,367.0015,267.1825,364.48Zm-49.0148,6.8834c.1609.3861-.3263,1.4062.7357,1.727,1.0916.33,1.7719-.4827,2.2077-1.2413,1.6967-2.9538,3.304-5.96,4.9122-8.9631.384-.7171.7076-1.6928-.0336-2.2-.8724-.597-1.4251.3806-1.8853.9666-1.4046,1.7886-2.8133,3.5816-4.0846,5.4645C219.2121,368.3134,218.0181,369.3762,218.1677,371.3634ZM53.868,229.2849l-1.0045-.0595c.5383,4.64-.8661,9.0045-1.3265,13.5016a3.8706,3.8706,0,0,0,.141,1.7054c.4989,1.3187,1.7.9059,2.6747.8752.8212-.0258,1.1625-.5529,1.0694-1.4065C54.891,239.0305,54.3835,234.1572,53.868,229.2849Zm77.5673,262.6635c-.46,1.81-.4069,2.9066.9573,3.2881,3.83,1.0714,6.6937,3.7244,9.9251,5.7925,1.8049,1.1551,3.1213,3.2683,5.8656,3.3855C144.8075,496.9531,136.5558,497.0254,131.4353,491.9484ZM288.5131,333.7722c-.2493-1.9486-.4239-3.3062-.5963-4.664-.0817-.6437.2114-1.53-.6856-1.73-.7654-.17-1.317.5022-1.5889,1.0918-1.1,2.3858-2.1929,4.7839-3.089,7.25a1.4362,1.4362,0,0,0,1.29,2.0121C284.9213,337.8244,288.4935,334.28,288.5131,333.7722Zm-51.8988,8.4171c.14-.9522.188-2.0307-.8912-2.335-1.2393-.35-1.4013.7486-1.6578,1.6648-.8046,2.8737-1.6845,5.7262-2.4991,8.5971-.25.882-.5564,1.9365.7235,2.2614a1.6446,1.6446,0,0,0,2.2507-1.4983A37.4777,37.4777,0,0,1,236.6143,342.1893ZM380.4552,311.454c-5.1116-.8381-9.8875-1.6391-14.6721-2.3841-.6446-.1-1.5348-.0592-1.3994.96.1072.8062.5641,1.7,1.511,1.6062,3.448-.3414,6.5845,1.2464,9.9243,1.4679C377.3267,313.2036,379.0009,313.5841,380.4552,311.454ZM240.2013,284.2171c-.0717-1.2992-.1361-2.5368-1.4669-1.51-1.7875,1.3789-3.3351,3.0648-5.0315,4.5672-1.66,1.4707.665,2.6953.2762,4.1468-.0536.2,1.4774.3681,2.1017-.2406C238.1606,289.1524,239.0535,286.439,240.2013,284.2171ZM40.3736,234.931c-2.96,1.3927-5.0552,2.9618-6.17,5.6131-.4073.9684-1.41,2.1017.4042,2.7629,1.4167.5165,2.94,1.1719,3.7163-.85C39.1658,240.264,40.3213,238.1446,40.3736,234.931Zm205.1055,33.6017a1.0931,1.0931,0,0,0-.7145-1.3023c-.7174-.2579-.9776.3219-1.26.8193-1.5691,2.7687-3.103,5.5585-4.7331,8.2908-.6754,1.132-.15,1.6983.7437,2.1673.8111.4257,1.7288.94,2.2442-.367C243.0105,274.9692,244.2238,271.783,245.4791,268.5327Zm108.95-16.1732c-.6392,2.6557,1.6063,3.9053,2.7712,5.6477.4681.7,1.458.6072,2.2344.24.8879-.42.7866-1.1126.7144-2.0128-.1752-2.1845-1.5647-3.5088-2.97-4.86-.6337-.6094-1.1594-1.7482-2.1606-1.4247C353.8712,250.32,354.5726,251.549,354.4289,252.36ZM300.4823,327.557h-.0134c0,.7978-.0556,1.6007.0162,2.3921.067.738-.401,1.7851.58,2.1094.9338.3088,1.6983-.4453,2.398-1.01,2.0754-1.675.0432-3.607.2651-5.4228a2.1381,2.1381,0,0,0-2.1722-2.5315c-1.71.118-.8755,1.7592-1.0554,2.7563A9.7475,9.7475,0,0,0,300.4823,327.557ZM352.84,260.8094c-.7512-.079-1.1614.3321-1.1408.97a23.1643,23.1643,0,0,0,2.2812,8.5824c.42.95,1.6245.7907,2.32-.0554.4805-.5843,1.8365-1.0836.542-2.1552-1.7285-1.4309-1.8874-3.6065-2.6373-5.5048C353.9174,261.9182,353.706,261.0952,352.84,260.8094ZM277.3065,542.0231c-2.8584,4.9546-4.1892,10.3879-5.4847,16.6523C276.4825,553.4655,276.5092,547.6236,277.3065,542.0231ZM245.6033,296.1562c-3.1077.68-10.3628,4.1007-12.0214,5.5321-.56.4829-1.0513,1.0752-.68,1.75.47.8524,1.2153.287,1.77-.01,2.1079-1.1309,4.1751-2.3376,6.2816-3.4712C242.6593,299.0386,244.3824,298.1652,245.6033,296.1562ZM60.446,247.8432a18.347,18.347,0,0,0,.0158,2.2234c.161,1.2235.2726,2.551,1.3048,3.372.5967.4746,1.2845-.02,1.8215-.483,1.25-1.0776,1.1664-2.3532.58-3.7215a7.5726,7.5726,0,0,0-.7587-1.87c-.6924-.8371-.9516-2.5754-2.1981-2.3091C59.7617,245.3645,60.7048,247.0035,60.446,247.8432Zm61.0433,197.3653c2.1425.03,2.9324-.3325,3.0278-1.2882.0894-.8966-3.2665-4.2937-4.2213-4.1689-1.7313.2265-1.6446,1.6245-1.727,2.8906C118.4178,444.9635,119.9135,445.2636,121.4893,445.2085ZM241.691,258.2045c-.5207-1.3475.8977-3.8939-1.0217-4.1124-1.9095-.2174-.5331,2.4918-1.3624,3.6436a.6414.6414,0,0,0-.1228.32c-.0825,1.6228-1.532,3.2832.0643,4.84a1.3285,1.3285,0,0,0,1.2509.1493C242.3789,261.8543,241.2816,259.8971,241.691,258.2045ZM243.7357,550.7c-3.559-1.7259-12.632.2627-14.2727,3.4608C234.447,552.4408,238.9124,550.7146,243.7357,550.7Zm82.2862-295.8048c.1881.948-.4932,2.4589,1.1037,2.7849,1.7852.3645,1.4027-1.3407,1.8368-2.278.8747-1.8889-.078-3.5694-.5576-5.29a.7034.7034,0,0,0-1.1418-.2179A10.7018,10.7018,0,0,0,326.0219,254.8956Zm19.8955,13.353c-.4953-2.4409-.8774-4.4048-1.2955-6.361-.3965-1.8551-1.9257-1.4757-3.0044-1.1862-1.809.4856-.5094,1.6626-.1491,2.38C342.4086,264.9546,343.09,267.0951,345.9174,268.2486ZM145.3966,418.1924c-.46.0514-2.0243-1.03-1.6819.5744.4129,1.9347,1.6585,4.0183,3.6683,4.5712,1.2512.3443,1.1788-1.659,1.4134-2.6253C149.479,417.9,147.3286,418.28,145.3966,418.1924Zm-53.97-136.4612-.8556-.2489c-.8716,1.7483-1.7861,3.4769-2.6015,5.251-.67,1.4572.65,2.223,1.4818,2.6,1.3216.5986,1.8312-.8034,1.9182-1.7134C91.5554,285.6727,91.4262,283.6958,91.4262,281.7312Zm84.1068-26.9765c-1.0657-2.987-3.5491-4.5005-5.9939-6.0646a1.4184,1.4184,0,0,0-2.0719.5135c-.5636.8665.53,1.0492.9669,1.4568A21.0434,21.0434,0,0,0,175.533,254.7547Zm37.71-9.2285c-.0133-1.18-.1238-2.6643-1.0183-2.4429a5.1477,5.1477,0,0,0-3.4517,3.2764c-.4042,1.435,1.2888,3.0652,2.6671,2.86C213.3141,248.94,212.3822,246.5218,213.2427,245.5262Zm124.33,26.8868a33.3153,33.3153,0,0,0-7.1557-11.27A34.2935,34.2935,0,0,0,337.5729,272.413ZM132.3714,316.424a14.9653,14.9653,0,0,0-8.5-8.7982Zm80.3023,216.631c1.2355-2.7328-.3926-4.7667-.1695-6.928.0906-.8774.0948-2.0746-1.3272-1.8007a1.5985,1.5985,0,0,0-1.17,2.1659C210.6643,528.61,210.9286,530.9166,212.6737,533.055Zm-70.05-101.5244c-.6242-2.11-2.8629-2.2782-4.349-3.3439-.4337-.311-1.0614.4352-.8411,1.0637.5743,1.6388.5995,3.8344,2.9544,4.0349A2.0017,2.0017,0,0,0,142.6237,431.5306ZM163.29,493.9755l-7.1526-6.5885C156.8893,492.5732,157.9894,493.63,163.29,493.9755Zm-45.2919-75.5841-.7969.5159c.8359,1.6759,1.6828,3.3463,2.5037,5.0295.5379,1.1028,1.4281,1.643,2.4445.9092a1.8078,1.8078,0,0,0,.1194-2.7371A52.9032,52.9032,0,0,0,117.9977,418.3914Zm212.9356-175.104a32.8258,32.8258,0,0,1-1.37-12.2218C326.9717,235.0572,327.5634,241.0282,330.9333,243.2874Zm-76.535,65.5493c1.7232-1.5791,3.4241-3.078,5.0371-4.6661.3244-.3194.021-.976-.417-1.1332a1.6021,1.6021,0,0,0-1.28.1148,27.195,27.195,0,0,1-3.8632,2.8067c-.742.3545-.5071,1.4516-.3043,2.2271C253.6318,308.4193,254.0344,308.5633,254.3983,308.8367Zm-22.72,102.8951.14.9045a27.24,27.24,0,0,0,10.8521-2.3l-.1933-.94ZM106.77,401.8724c2.0832-3.8375-.52-6.4831-2.2871-9.3616C104.8462,395.7127,106.3211,398.642,106.77,401.8724Zm-11.311,88.9567a42.3042,42.3042,0,0,0,3.2091,12.7537C98.8976,498.99,96.6205,495.0307,95.4585,490.8291Zm239.64-122.3452c-1.2317.2577-2.0957.8594-2.0211,2.2737.0574,1.0879.3,2.0854,1.6965,2.0711,1.5709-.0161,2.215-1.0116,2.3-2.4118C337.1532,369.1,336.1758,368.7289,335.0981,368.4839ZM129.119,432.0265a29.6325,29.6325,0,0,1-3.5523-1.1125c-.6062-.331-1.5438.6756-1.1378,1.5507.5807,1.2519.7342,3.389,2.3844,3.2114C127.6421,435.587,128.254,433.4811,129.119,432.0265ZM232.3472,150.3977a1.6451,1.6451,0,0,0-1.6,1.8924c.116,1.2479.6674,2.7142,2.194,2.5834a2.3594,2.3594,0,0,0,1.8715-2.5528C234.8088,150.7285,233.2452,150.9338,232.3472,150.3977ZM83.8858,166.9309c-1.188.133-1.9378.7185-1.885,1.97.0393.9341.2589,1.994,1.3916,2.0506a2.0685,2.0685,0,0,0,2.4156-1.89A2.3026,2.3026,0,0,0,83.8858,166.9309ZM365.6235,497.5725c3.0634,2.5541,6.3575,4.49,10.1948,4.76l.28-.84ZM34.6121,379.7107c-.2238-1.2656-1.0084-2.272-2.2364-2.095-1.2079.1741-1.6539,1.4515-1.6937,2.6341a1.6227,1.6227,0,0,0,1.9462,1.8012A2.1236,2.1236,0,0,0,34.6121,379.7107Zm302.5754,104.46c-.4476-3.4385-.246-7.0517-2.3523-10.1217C334.9126,477.5683,335.1758,481.0441,337.1875,484.1711Zm49.3653-216.91c1.9468-2.0846,1.49-4.0074.0071-5.7137-1.4535-1.6723-2.2563.1823-3.3174.7859C384.6518,263.8021,387.6893,263.9757,386.5528,267.2614ZM186.5486,403.5067c-2.332-2.7083-4.5105-3.8912-7.371-3.3378C181.2327,401.666,183.1833,403.4293,186.5486,403.5067Zm46.4589,119.85a7.6938,7.6938,0,0,1-4.2551,2.8644c-.7654.2689-1.0589,1.4635-.4527,1.4348a13.3236,13.3236,0,0,0,5.833-1.262C235.2144,525.7776,233.1189,524.6521,233.0075,523.3563Zm-50.724-106.9151c-.2983.8444-2.2471.05-1.7214,1.4434.5346,1.4166,2.2556,1.7782,3.6791,2.1123a.8819.8819,0,0,0,1.0269-1.043A3.2766,3.2766,0,0,0,182.2835,416.4412Zm207.6548-119.062c-2.0725-1.176-3.3952-2.5469-5.2964-1.48a1.202,1.202,0,0,0-.1206,1.8307C386.2446,299.5156,387.7059,297.9442,389.9383,297.3792ZM139.7944,274.188c-.9071-1.1131.0621-3.46-2.2263-3.73-.8616-.1016-1.1506.8465-.9234,1.4945.4992,1.4242.5631,3.3059,2.529,3.6169C139.8576,275.6776,139.8791,274.8492,139.7944,274.188ZM381.081,250.9091l-5.96-5.4446-.6555.7807C376.5433,247.9517,377.4735,251.0373,381.081,250.9091ZM177.3866,265.6754c-1.2984-1.8151-.9881-4.2312-3.1824-5.4124a.6314.6314,0,0,0-.9219.648,6.4031,6.4031,0,0,0,3.21,4.9039C176.5642,265.8581,176.7048,265.7871,177.3866,265.6754Zm-97.7819-29.32c1.3179,2.7924,2.622,4.5849,4.6876,5.8115C83.561,239.9492,82.98,237.6194,79.6047,236.3558ZM344.9938,224.73c-.5332.1231-1.6744-.1212-1.2808.9169a4.59,4.59,0,0,0,2.8338,2.7726c.9371.2846.8542-.7877.85-1.4229A2.0438,2.0438,0,0,0,344.9938,224.73ZM138.1191,101.1628a1.9055,1.9055,0,0,0-1.8366-1.6837,1.6561,1.6561,0,0,0-1.686,1.7639,1.4244,1.4244,0,0,0,1.7084,1.6044C137.1832,102.7346,138.0707,102.325,138.1191,101.1628Zm143.4376,284.89c1.1226-1.4289,2.7847-2.521,2.6005-4.4908-.0567-.6061-1.002-.7568-1.4153-.4194C281.1858,382.4128,281.6349,384.314,281.5567,386.0531Zm7.0579-205.3509a2.2319,2.2319,0,0,0-2.2909-1.6878c-1.0607.0384-1.2194.9275-1.1891,1.7656.0363,1.0022.3156,1.87,1.6313,1.6155C287.7041,182.214,288.5928,181.9567,288.6146,180.7022Zm23.993,77.9831c.1812-1.8246,1.6282-3.4688.3182-5.3549a1.3015,1.3015,0,0,0-1.2093.1c-1.2623,1.7422-.0614,3.3855.3379,5.0594C312.0683,258.5481,312.2548,258.5651,312.6076,258.6853ZM194.1765,345.873c2.9857-1.1319,5.26-1.4435,7.1426-3.7708C198.4148,342.3914,196.0342,342.4268,194.1765,345.873Zm177.6463-75.26a7.8075,7.8075,0,0,0-5.83-3.5692C367.4616,269.7382,369.5477,270.3543,371.8228,270.6129Zm-56.99-150.4668a1.48,1.48,0,0,0-1.6187-1.45c-1.12.0252-1.6091.93-1.7465,1.8294-.1594,1.0441.6424,1.3881,1.5582,1.293C314.0127,121.7163,314.8093,121.3243,314.8325,120.1461ZM334.6931,534.771c.8477-.412,2.0638-.5745,2.0555-1.8723-.005-.7773-.7452-1.1409-1.4668-1.0772a1.6625,1.6625,0,0,0-1.5672,1.8667C333.7057,534.3053,333.8673,534.8108,334.6931,534.771ZM278.2615,293.6367c-.7048,1.5406-1.1708,3.0866.1692,4.8822A5.52,5.52,0,0,0,278.2615,293.6367Zm75.5009-.3237c1.7375,1.9334,2.59,3.3818,4.4282,3.4785A5.1982,5.1982,0,0,0,353.7624,293.313Zm-44.0006-44.6342-.5212-.2279c-.0751.1755-.2443.384-.1976.5167.0428.1217.3183.1616.4913.2375C309.61,249.03,309.6863,248.8554,309.7618,248.6788ZM125.15,237.5616c-.1137.1974-.2872.3692-.2949.5482-.0079.1823.1473.3717.2311.558.1049-.1736.2823-.3423.2944-.5221S125.24,237.7729,125.15,237.5616Z"/><path class="cls-2" d="M74.8612,483.525c-4.4965-1.1151-8.4009,1.0223-12.1486,2.7646-1.9051.8856-2.52,3.7314-2.5223,6.0808-.0139,11.8155-1.0367,23.7468,2.1164,35.3106,2.4435,8.9618,4.148,18.0758,6.2512,27.1029,1.083,4.6483,2.68,9.2618,2.6641,14.14H36.6482c.6617-10.5181,1.5349-21.0285,1.9179-31.5567.3043-8.3654-.8129-16.7293-.498-25.1215.281-7.4876-1.5431-14.7863-2.2655-22.1777-.6775-6.9326-3.5847-13.9089-.4979-20.9732.2621-.6.1661-1.33.7888-1.8155,4.9094-3.8311,8.0225-9.4454,13.1131-13.1475a7.638,7.638,0,0,1,3.6451-1.3979c7.7445-1.2383,13.6823,1.485,18.6649,7.4527,1.9218,2.3017,3.5143,5.1312,6.4158,6.5461a9.5861,9.5861,0,0,0-.2179,8.086,3.8063,3.8063,0,0,1-1.6207,5.2771C74.8005,480.883,74.0818,481.955,74.8612,483.525ZM64.38,470.7854c.072-1.6915-.2358-2.7178-1.5853-2.6332-1.241.0778-2.6614.3606-2.6354,2.0534.0181,1.1773.5119,2.4543,1.873,2.458A2.2142,2.2142,0,0,0,64.38,470.7854ZM55.7534,493.643c1.8566-2.83,1.8566-2.83,1.1693-6.64C56.3981,489.2866,55.0756,490.97,55.7534,493.643Z"/><path class="cls-3" d="M117.1987,116.3652a29.7637,29.7637,0,0,0,5.8035,8.3689c3.3725,3.3611,8.2746,5.1406,10.382,9.5428,4.3089,9.0011,1.66,21.3111-.7471,30.4338-2.526,9.5738-5.77,18.98-8.736,28.4243-2.8806,9.1722-5.2281,18.9193-9.7792,27.4443-4.0936,7.668-10.4864,13.868-14.2575,21.7229-3.4293,7.143-4.3578,15.0614-3.6971,22.902,1.4094,16.7223,8.01,34.2056,15.0777,49.3155,7.4388,15.9029,19.3771,30.44,36.9066,35.2328a1.5013,1.5013,0,0,0,.7976-2.8928c-17.4331-4.767-28.7429-19.6557-35.8552-35.47A229.0235,229.0235,0,0,1,103.5,285.1638c-2.59-8.3671-4.7274-17.0611-4.5288-25.8779.4136-18.3688,15.6055-29.7046,21.6126-46.0764,3.1187-8.5,5.5793-17.269,8.2915-25.9049,2.8133-8.9576,5.9808-17.9013,7.9309-27.0989,1.8276-8.62,2.8034-18.5315-.5337-26.9362-1.2629-3.1806-3.2233-4.7841-5.9685-6.6572a28.7919,28.7919,0,0,1-10.515-11.7613c-.8331-1.7407-3.4206-.2206-2.59,1.5142Z"/><path class="cls-3" d="M100.0179,101.7361a140.3109,140.3109,0,0,1,16.7076,13.4958c1.4047,1.3232,3.53-.7941,2.1214-2.1213A145.352,145.352,0,0,0,101.532,99.1457c-1.5945-1.0969-3.0964,1.5019-1.5141,2.59Z"/><path class="cls-3" d="M100.3156,102.1345c9.3644.1314,18.7876-.0335,28.14.4881,9.2368.5152,18.2928,2.9792,23.46,11.2888,5.4257,8.7252,3.9745,18.005,2.3434,27.5656-1.4983,8.7814-1.5387,17.6766-1.6553,26.5592-.1253,9.5512-.5054,19.1407-.2392,28.6907.1694,6.0765-.101,14.84,4.57,19.4866,2.4029,2.3905,5.6372,3.8223,8.4,5.7384a88.4522,88.4522,0,0,1,11.0258,9.3163c6.5055,6.3072,12.7972,12.9221,18.8173,19.6931,14.37,16.162,24.73,34.4574,27.3614,56.1929.2291,1.8925,3.2319,1.9156,3,0a98.4787,98.4787,0,0,0-20.2505-48.7121,256.2843,256.2843,0,0,0-18.8168-21.1813c-6.1369-6.37-12.3083-12.853-19.6231-17.8993-4.219-2.9107-8.7136-4.6417-10.1869-9.9754-1.4189-5.1369-1.327-10.9969-1.3491-16.2917-.0428-10.2633.2032-20.5393.37-30.8013.0806-4.957.2076-9.9228.7451-14.8548.5892-5.4053,2.0649-10.6957,2.4642-16.12a31.6681,31.6681,0,0,0-5.1707-20.122c-4.7178-6.8238-12.1005-10.0385-20.1288-11.1094-10.9119-1.4555-22.2883-.7978-33.2759-.952a1.5009,1.5009,0,0,0,0,3Z"/><path class="cls-3" d="M119.3794,101.5332a20.8363,20.8363,0,0,1,.0879,6.5258,40.8026,40.8026,0,0,1-2.1315,6.1126c-.6657,1.8154,2.2325,2.5982,2.8928.7975.8372-2.283,2.0481-4.6734,2.3129-7.1063a28.5672,28.5672,0,0,0-.2693-7.1272c-.2776-1.9032-3.1687-1.094-2.8928.7976Z"/><path class="cls-3" d="M134.1183,108.2809l.1858.0118.6619.3858q-.4737-.4106.16.8421-.3469.5133-.0838.2306-.1875.1376.0239-.0122.3519-.1961-.2051.02l-.7571-.2048q-.4581-.7607-.35-.3763.039.1611-.01-.0305l.0072-.1123q.3324-.8563,1.278-.4786a1.5358,1.5358,0,0,0-2.0523.5381,1.5151,1.5151,0,0,0,.5381,2.0523,2.182,2.182,0,0,0,3.1291-1.3143c.3439-1.1937-.2136-2.8627-1.5833-3.0468a2.82,2.82,0,0,0-2.7766,1.8141,2.0065,2.0065,0,0,0,1.8342,2.6807,1.5131,1.5131,0,0,0,1.5-1.5,1.53,1.53,0,0,0-1.5-1.5Z"/><path class="cls-3" d="M138.3083,355.6767a469.7822,469.7822,0,0,0,43.2364-19.1624c7.0308-3.56,14.0792-7.2024,20.8218-11.289,6.4335-3.8993,11.5082-8.9854,17.4193-13.5415,10.8589-8.37,25.0174-10.378,34.7878-20.5163a47.4338,47.4338,0,0,0,13.1876-32.43,1.5009,1.5009,0,0,0-3,0,44.3188,44.3188,0,0,1-16.097,33.8145c-9.8723,8.0415-23.028,10.172-32.8063,18.4648-5.3331,4.5229-10.3987,8.9264-16.4664,12.4863-6.3176,3.7066-12.8277,7.1132-19.361,10.4212a461.9943,461.9943,0,0,1-42.52,18.86c-1.7827.6873-1.0082,3.5891.7976,2.8929Z"/><path class="cls-3" d="M297.4414,186.0365c-1.4522-4.0692-3.26-9.4929-6.7637-12.259-2.654-2.0954-7.0765-2.1529-10.2775-1.9647-8.9309.525-13.1262,8.5369-14.2377,16.3337-1.5949,11.1876-1.5882,22.52-1.7321,33.7959-.1585,12.4167-.2768,24.7578.8925,37.1366.18,1.9055,3.1818,1.9243,3,0-1.63-17.26-1.1774-34.746-.6351-52.0566.1355-4.3249.35-8.6507.7714-12.9581.4507-4.6047.3909-10.2489,3.411-14.0056,3.28-4.08,7.1784-5.5917,12.3685-5.153,6.1894.5232,8.492,6.8344,10.31,11.9283.6443,1.8054,3.544,1.0273,2.8929-.7975Z"/><path class="cls-3" d="M295.4918,188.7878c4.0076,1.7425,5.9173,4.3882,7.9386,8.0852,1.6314,2.9839,4.6156,3.196,7.6782,3.9216,1.8773.4448,2.6784-2.4472.7975-2.8928-1.77-.4195-4.4418-.6366-5.6818-2.1415-.9632-1.1689-1.3941-2.89-2.318-4.1462a16.7036,16.7036,0,0,0-6.9-5.4167c-1.7528-.7622-3.2821,1.8217-1.5142,2.59Z"/><path class="cls-3" d="M289.3953,220.2867a17.5186,17.5186,0,0,1,2.7414-8.9122c2.6255-3.7254,4.108-3.1019,7.7719-2.9663a30.9166,30.9166,0,0,0,12.2188-1.9758c1.7939-.6666,1.0177-3.5673-.7976-2.8928a29.0638,29.0638,0,0,1-12.0643,1.8213c-2.1183-.1139-4.4183-.3463-6.3893.656-4.3181,2.1959-6.2948,9.9244-6.4809,14.27-.0827,1.93,2.9175,1.9265,3,0Z"/><path class="cls-3" d="M295.6932,185.6173c-4.82,1.4447-6.16,6.8884-6.4382,11.439-.2149,3.5125,2.18,9.1884,5.43,10.8832,1.71.8915,3.2286-1.6966,1.5142-2.59-4.92-2.5654-5.7126-15.04.2914-16.8389,1.8448-.5529,1.0589-3.4492-.7975-2.8929Z"/><path class="cls-3" d="M135.5114,356.0434c3.5767,2.4637,7.1526,4.9411,10.8907,7.1569,4.2172,2.5,7.9644,3.9192,10.9222,8.0077,5.3016,7.3282,10.43,14.7894,15.6432,22.1809,1.1041,1.5656,3.7065.0684,2.59-1.5141-5.6542-8.0173-10.9706-16.4762-17.0659-24.1618-2.2221-2.8017-5.075-4.0185-8.1545-5.7178-4.621-2.55-8.97-5.5514-13.3119-8.5422-1.5938-1.0979-3.0957,1.501-1.5142,2.59Z"/><path class="cls-3" d="M207.7986,426.7289c18.53,9.2687,38.7573,1.4766,56.0083-6.9753,16.6633-8.1639,32.9293-19.1668,41.06-36.444.8175-1.737-1.768-3.2617-2.59-1.5142-7.4744,15.8827-21.969,26.188-37.2054,33.9786-16.7532,8.5662-37.41,17.5426-55.7583,8.3645-1.7218-.8613-3.2429,1.7257-1.5141,2.59Z"/><path class="cls-3" d="M286.6241,219.4669c.6,13.4678-.7557,26.954.1139,40.4124A77.3793,77.3793,0,0,0,297.4564,294.79c6.8108,11.6627,15.9177,23.5338,16.19,37.6366.1326,6.8724-2.3012,13.5148-4.2025,20.03L303.12,374.1242a1.5013,1.5013,0,0,0,2.8929.7975l6.06-20.7648c1.74-5.9611,3.9306-12.0091,4.46-18.2358,1.0888-12.8149-5.471-24.5645-11.9125-35.1112-7.8085-12.7848-13.7174-24.8535-14.8254-40.0447-1.0028-13.7471.4424-27.5376-.1708-41.2983-.0857-1.9228-3.0862-1.9334-3,0Z"/><path class="cls-3" d="M218.9759,418.7914c1.1173.7323,3.1092,1.7818,3.5015,3.1541.2977,1.0413-.1287.9852-.33,2.007-.4085,2.072-.7529,4.057-1.0272,6.1688l-2.4147,18.5948c-.2479,1.909,2.7544,1.8909,3,0,1.0794-8.3118,1.6732-16.9308,3.8507-24.9756.9908-3.66-2.0819-5.5837-5.066-7.5395-1.6194-1.0614-3.1242,1.5351-1.5142,2.59Z"/><path class="cls-3" d="M217.809,417.796l-3.9166,24.62c-.3,1.8887,2.59,2.7019,2.8928.7975l3.9167-24.62c.3-1.8887-2.59-2.7019-2.8929-.7975Z"/><path class="cls-3" d="M219.5568,449.2794c8.69,8.9292,22.599,9.4293,34.1742,11.3338l-.6619-2.5071c-4.1483,5.0525-12.2071,6.3625-18.1394,8.3581-3.8391,1.2915-5.55,2.6032-8.7491-.2753-1.8337-1.65-2.6377-2.9585-5.0279-4.0064-1.7514-.7678-3.28,1.8162-1.5142,2.59,3.2768,1.4366,4.0587,5.0073,7.0149,6.4109,2.7829,1.3214,6.4655-.9493,9.0738-1.8267,6.4376-2.1656,14.9312-3.61,19.4633-9.13.6339-.7721.5631-2.3055-.6619-2.507-10.914-1.7957-24.6637-2.15-32.8505-10.5623-1.3489-1.386-3.4693.7363-2.1213,2.1213Z"/><path class="cls-3" d="M268.4322,415.5724c.5125,12.5656.8337,25.7046-6.0286,36.78a1.5163,1.5163,0,0,0,1.6939,2.2035,36.5733,36.5733,0,0,1,17.1637-.404c3.64.7676,7.169,1.9249,10.9291,1.8669a31.9027,31.9027,0,0,0,11.3349-2.7228c1.9393-.7789,4.1744-1.214,5.0274-3.2547a1.4415,1.4415,0,0,0-.3858-1.4595,1.8971,1.8971,0,0,0-2.028-.478,1.5252,1.5252,0,0,0-1.1012,1.4464l.0169.2285c.1414,1.9138,3.1425,1.9292,3,0l-.0169-.2285-1.1013,1.4464q-1.2251-3.509-4.2087-.5934l-1.6382.642a35.8213,35.8213,0,0,1-5.0091,1.5235c-4.6388.9585-8.7244-.0718-13.2206-1.1178a40.125,40.125,0,0,0-19.56.2121l1.694,2.2035c7.1448-11.5316,6.9728-25.1885,6.4382-38.2945-.0784-1.9237-3.0788-1.9337-3,0Z"/><path class="cls-3" d="M276.1267,410.6305c-.8828,5.86-1.6407,11.7357-2.2113,17.6347-.2978,3.0787-2.1076,8.9182.7606,11.26,2.9844,2.4364,9.0687,2.1829,12.6994,3.0564,6.3915,1.5377,12.2658,4.5417,18.0833,7.5192,1.7155.878,3.2352-1.7095,1.5142-2.59a89.9125,89.9125,0,0,0-24.8943-8.9772c-2.2892-.4346-4.7848-.3115-5.81-2.5738-.704-1.5528.48-5.9674.6473-7.6939.5448-5.6321,1.2613-11.2422,2.1042-16.8372.2845-1.8887-2.6058-2.7032-2.8929-.7975Z"/><path class="cls-3" d="M290.3165,380.3925l18.1787,6.067,9.0894,3.0335c2.64.8812,7.114,1.4365,9.2285,3.2175,5.3194,4.4807,3.3368,15.7438,1.3322,21.2928-1.88,5.204-4.382,9.6433-5.0876,15.2161-.88,6.9506-3.2885,11.7785-6.8688,17.669-3.053,5.0229-6.44,9.9716-9.0226,15.2576-4.9462,10.1224-5.1146,22.9363-6.74,33.95-.2787,1.8886,2.6115,2.7036,2.8928.7976,1.0237-6.9377,2.0143-13.8812,3.073-20.8136,1.1617-7.6077,3.8494-13.6254,7.8226-20.1679,3.256-5.3615,7.0981-10.6837,9.636-16.4328,2.7562-6.2435,2.2906-13.1559,5.0228-19.5227,2.2425-5.2256,4.1021-10.3139,4.1239-16.081.0153-4.0456-.3066-10.1767-3.668-13.0334-1.739-1.4778-4.3023-2.0242-6.4029-2.7252l-9.9983-3.3369L291.114,377.5c-1.8355-.6126-2.6227,2.2837-.7975,2.8928Z"/><path class="cls-3" d="M300.8879,495.7671a142.8982,142.8982,0,0,0-27.541,32.6289c-6.9869,11.4213-15.08,26.1348-15.577,39.7891-.07,1.9308,2.93,1.9279,3,0,.28-7.6949,3.6823-15.4354,6.7887-22.39a138.6957,138.6957,0,0,1,35.4507-47.9069c1.452-1.2782-.6766-3.3931-2.1214-2.1213Z"/><path class="cls-3" d="M290.3,379.2639c7.8094-1.7817,16.3057-2.8883,23.7429-5.91,7.4127-3.0115,13.54-7.9644,21.9963-7.4123a24.5861,24.5861,0,0,1,11.8313,3.7916c3.5178,2.3,3.5575,6.2261,4.4577,10.0772,2.0477,8.7611,2.968,16.4761-.2033,25.12-2.949,8.0379-7.2445,15.5887-10.6616,23.4365q-5.0195,11.5277-9.5246,23.2932c-2.7071,7.0858-3.3969,13.0875-1.48,20.4428,1.0044,3.8549,2.06,7.6989,3.1115,11.5412.6142,2.2443,1.0884,4.9241,3.0135,6.4683,2.5248,2.0253,6.3773,1.5428,9.38,1.9914a65.6645,65.6645,0,0,1,13.2014,3.71c9.1659,3.4215,18.401,7.0218,26.6165,12.403,1.62,1.0609,3.1246-1.5356,1.5142-2.59-6.5075-4.2624-13.6066-7.2908-20.81-10.1586-7.1243-2.8362-14.3458-5.79-22.0378-6.5934-3.5255-.368-6.1087-1.6087-7.7434-5.1325-.8592-1.8524-1.1528-4.2723-1.69-6.2649-1.202-4.4543-3.0553-9.3267-2.9071-13.9954.2795-8.8069,5.4449-18.0129,8.75-26.0309,3.4971-8.4846,7.4934-16.6831,11.3412-25.0052,2.97-6.4232,5.524-13.2211,5.2818-20.4068a55.7175,55.7175,0,0,0-1.68-10.55c-.7695-3.3506-1.0842-7.761-2.72-10.8282-2.4149-4.5289-9.6021-6.7406-14.2942-7.4447-7.362-1.1048-13.7011,1.099-20.1008,4.52-9.06,4.8427-19.2463,6.3691-29.1817,8.6358-1.8815.4293-1.0852,3.3224.7975,2.8929Z"/><path class="cls-3" d="M312.2258,372.8171c2.1424,1.8067,3.3085,3.4449,3.43,6.3205a9.9934,9.9934,0,0,1-1.6689,6.5876c-1.1361,1.5641,1.4654,3.0629,2.59,1.5141,1.8951-2.6091,2.2882-5.8692,2.0276-9.0238-.27-3.27-1.8025-5.4494-4.2573-7.52-1.4672-1.2373-3.6.8745-2.1214,2.1213Z"/><path class="cls-3" d="M331.8309,375.378c-.1342-.2653-.0365-.0387-.032.0682q-.0882.9955-1.7143.59a.5855.5855,0,0,1-.1686-.6853.4184.4184,0,0,1,.115-.43q.172-.1127.0359-.0292-.141.0775.05-.0076a1.6135,1.6135,0,0,1,.3464-.0187l.6619.3858-.0707-.067.3857.6619-.03-.0969a1.5,1.5,0,1,0-2.8928.7975c.873,2.8037,5.2531.5973,4.1361-1.9514a2,2,0,0,0-3.0409-.8739,2.4162,2.4162,0,0,0-.3722,3.17,1.5,1.5,0,0,0,2.59-1.5142Z"/><path class="cls-3" d="M198.8071,253.0685c1.7676-3.1214,3.5495-6.3988,6.1774-8.8943,2.2017-2.0907,4.8267-3.1583,7.4985-4.4691,4.0084-1.9665,7.0428-4.509,8.4571-8.8628,1.6586-5.1061,1.1263-10.8868,1.0442-16.1624a167.69,167.69,0,0,0-1.3592-20.9238c-1.4556-10.2805-12.3024-34.2565,1.2418-39.7731,5.7631-2.3472,14.7612-4.0753,19.9724-.1146,5.5121,4.1893,9.8767,10.9159,14.408,16.1347,1.2681,1.46,3.3823-.669,2.1213-2.1213-4.6425-5.3469-9.1452-12.2719-14.8112-16.5534-4.7249-3.57-10.606-2.8886-16.0977-1.8925-4.6573.8448-9.8593,2.066-12.7169,6.2139-3.118,4.5259-2.547,11.0487-1.7876,16.1657,1.202,8.0991,3.9193,15.8648,4.9447,24.009a198.9711,198.9711,0,0,1,1.1442,24.5279c.0049,3.2257.0661,6.6045-.9968,9.6924-1.6882,4.9042-5.6428,6.22-9.8012,8.3316-5.7412,2.9153-8.9271,7.7-12.0294,13.1779a1.5011,1.5011,0,0,0,2.59,1.5142Z"/><path class="cls-3" d="M235.9,182.1368c-.1428-5.0737.4475-11.57,6.8205-11.8482,3.8321-.1675,9.607-.8664,12.9726,1.1706,1.656,1.0023,3.1655-1.5909,1.5142-2.59-2.6209-1.5862-5.3128-1.5527-8.3033-1.5678-3.2514-.0165-7.38-.7066-10.4246.7154-5.0652,2.3655-5.7162,9.26-5.5794,14.12.0542,1.9264,3.0544,1.9343,3,0Z"/><path class="cls-3" d="M233.0052,182.1434a169.7679,169.7679,0,0,1,7.9647,26.6909c1.7288,8.9313,1.0936,17.5877,1.72,26.55,1.0935,15.6351,12.11,27.6957,17.56,41.8291.6874,1.7826,3.5892,1.0082,2.8928-.7975-5.8123-15.0717-17.4012-27.6369-17.555-44.4975-.0737-8.0767-.1773-15.9144-1.7256-23.882a170.5086,170.5086,0,0,0-7.9648-26.6909c-.6661-1.7942-3.5668-1.018-2.8928.7975Z"/><path class="cls-3" d="M244.4053,155.1812a20.0457,20.0457,0,0,0-3.3343,12.98c.1662,1.9086,3.1678,1.9262,3,0a17.3815,17.3815,0,0,1,2.9247-11.4656c1.0743-1.6107-1.5231-3.1144-2.59-1.5142Z"/><path class="cls-3" d="M231.2282,159.4752c-.0128-.0191-.1961-.383-.1348-.221-.0784-.2072.0228-.14-.0283.0286l-.6894.8965.0884-.0439-1.1559.1512q-.5411-.3944-.2263-.1066a.2331.2331,0,0,1-.0845-.1108.51.51,0,0,1-.0276-.4569q.675-1.0888,1.6009-.4322l.3858.6619c.0241.0595-.0625.2624-.0256.3029-.0242-.0265.0718-.2943.0789-.3311a3.0864,3.0864,0,0,0,0-1.1228,1.51,1.51,0,0,0-1.8452-1.0476,1.5382,1.5382,0,0,0-1.0476,1.8451c-.0152-.1019.0581-.5876-.0448-.2731a1.9174,1.9174,0,0,0-.06.2619,2.4515,2.4515,0,0,0,.0044,1.046,1.92,1.92,0,0,0,1.3635,1.3461,2.083,2.083,0,0,0,2.53-2.32c-.1695-1.2614-1.4165-2.6076-2.7808-2.08-1.4328.5536-1.1963,2.4755-.4913,3.52a1.5365,1.5365,0,0,0,2.0523.5381,1.5142,1.5142,0,0,0,.5381-2.0522Z"/><path class="cls-3" d="M277.8353,132.0808c5.4805.9084,8.64,5.8227,13.4844,8.0658,3.5175,1.6286,5.6081,1.6258,7.8579,5.2891a57.0279,57.0279,0,0,1,4.72,10.8092c4.6078,13.0348,6.557,27.182,7.3836,40.9363.398,6.621-2.7862,11.8782-3.0564,18.2764A25.0457,25.0457,0,0,1,305.04,227.543c-1.72,3.166-3.3655,6.3627-4.8546,9.6453a138.4276,138.4276,0,0,0-11.0012,38.2983c-.2611,1.8881,2.6291,2.7046,2.8929.7976a135.9423,135.9423,0,0,1,14.69-45.6473c1.5219-2.8432,3.335-5.6172,4.07-8.7965.8331-3.6017.1708-7.2386,1.15-10.86.8566-3.1669,2.1252-5.9494,2.3463-9.2819a70.8149,70.8149,0,0,0-.6753-11.5635c-1.4081-14.1657-3.7319-28.4307-9.5949-41.51-1.097-2.447-2.1665-5.1951-3.9105-7.2679-1.8775-2.2315-4.0054-2.5219-6.6175-3.5271-5.5433-2.133-8.8068-7.6323-14.9035-8.6428-1.8886-.3131-2.7007,2.5773-.7975,2.8928Z"/><path class="cls-3" d="M307.9387,313.07c5.111,3.9573,10.9341,5.5233,17.1922,6.7566a170.35,170.35,0,0,1,20.67,5.81c13.2928,4.3849,27.1489,3.2514,39.2994-3.8433a1.5011,1.5011,0,0,0-1.5142-2.59c-12.1862,7.1155-25.5168,7.51-38.6588,2.9662a127.1569,127.1569,0,0,0-17.4948-4.9474c-6.1292-1.19-12.3115-2.3543-17.3721-6.2725-1.5081-1.1677-3.6465.94-2.1213,2.1213Z"/><path class="cls-3" d="M331.0041,320.0967a157.7446,157.7446,0,0,0-3.0452,19.0648c-.1919,1.8352-.2749,4.1994-1.1176,5.8711-1.1182,2.218-2.8019,2.3385-5.0183,2.8751l-10.2845,2.49c-1.8755.4541-1.0813,3.3477.7976,2.8929,4.4607-1.08,9.417-1.7169,13.7125-3.32,2.236-.8344,2.8513-1.8374,3.6855-4.14,1.1338-3.1305,1.1767-6.6116,1.4911-9.8869a117.4972,117.4972,0,0,1,2.6718-15.0489c.43-1.8794-2.4613-2.6817-2.8929-.7976Z"/><path class="cls-3" d="M310.5548,356.3246c4.77-.0464,10.9308-1.1695,15.5716-.1513,2.1354.4685,3.5235,1.9982,5.4426,2.8657a15.5093,15.5093,0,0,0,4.9175,1.177,1.513,1.513,0,0,0,1.0606-2.5607c-1.0443-.8485-.996-3.7449-1.662-4.9942a16.3724,16.3724,0,0,0-1.3-1.8742,7.9166,7.9166,0,0,1-.9669-8.6c2.6625-5.7784,6.1577-11.11,8.6891-16.99.7553-1.7545-1.8284-3.2843-2.5905-1.5141a130.88,130.88,0,0,1-6.2793,12.7137c-1.612,2.85-3.7068,5.8083-3.9628,9.1856-.1926,2.54.7393,4.3059,2.179,6.3123,1.6978,2.3662,1.5388,6.068,3.7717,7.8822l1.0607-2.5606c-4.1211-.4586-6.414-3.7277-10.36-4.0427-5.1011-.4072-10.4516.1015-15.5716.1513a1.5009,1.5009,0,0,0,0,3Z"/><path class="cls-3" d="M367.7327,326.5541a134.6241,134.6241,0,0,0-2.5812,20.3295c-.0738,1.5886-.0076,3.2027-.135,4.7863a6.2623,6.2623,0,0,1-.468,3.4987,1.9392,1.9392,0,0,1-1.8222,2.2322c-2.0271,1.7219-4.3332,2.8266-6.2686,4.75a1.5186,1.5186,0,0,0,1.0606,2.5607,28.0591,28.0591,0,0,1,8.5486,2.1563c1.7787.7442,2.5552-2.1575.7975-2.8928a30.5308,30.5308,0,0,0-9.3461-2.2635l1.0607,2.5607c2.41-2.3949,5.6288-3.3079,7.975-5.44,1.647-1.4966,1.4412-3.0932,1.461-5.247a138.4586,138.4586,0,0,1,2.6105-26.2338c.38-1.8851-2.5115-2.6917-2.8928-.7975Z"/><path class="cls-3" d="M367.0307,366.4168c4.0807.333,8.0614-.7333,12.13-.8022a1.5181,1.5181,0,0,0,1.4464-1.8987,11.7042,11.7042,0,0,0-2.4634-4.8559c-1.179-1.3719-4.0549-2.4227-4.6792-4.06-.6812-1.7861-3.5827-1.0111-2.8929.7975a6.7763,6.7763,0,0,0,3.0395,3.3834,8.8844,8.8844,0,0,1,4.1032,5.5323l1.4464-1.8988c-4.0689.0688-8.05,1.1352-12.13.8022-1.9243-.1571-1.914,2.8438,0,3Z"/><path class="cls-3" d="M374.222,325.9552c-.3377,9.9671-3.6328,19.4954-4.4068,29.4179-.15,1.9251,2.8506,1.9154,3,0,.7741-9.9241,4.0687-19.4393,4.4068-29.4179.0654-1.9309-2.9346-1.9285-3,0Z"/><path class="cls-3" d="M278.2575,132.2585c5.1031-2.3029,10.8407-2.5186,15.791-4.8829,4.5325-2.1648,7.0391-6.2456,12.485-6.5755,15.85-.96,19.92,12.4033,18.9757,25.62-.1376,1.9264,2.863,1.9178,3,0,.871-12.1864-2.19-26.3886-16.3867-28.4053-5.1962-.7381-9.9653-.23-14.2131,2.9219a25.9914,25.9914,0,0,1-11.6072,5.3669,46.5878,46.5878,0,0,0-9.5589,3.3647c-1.7569.7928-.2334,3.379,1.5142,2.59Z"/><path class="cls-3" d="M326.0648,146.9448c-1.41,21.9621,2.1048,44.1391,11.4966,64.1259,1.6117,3.43,3.3627,8.9135,6.48,11.2725,2.5879,1.9583,7.3559,1.3751,10.3878,1.6233,12.5225,1.0252,23.6063,3.4241,33.51,11.6077,1.4775,1.2209,3.6115-.89,2.1214-2.1213a51.0728,51.0728,0,0,0-22.2684-10.9259,118.2145,118.2145,0,0,0-14.2253-1.6309c-2.7548-.225-6.4856.137-8.5579-2.0818-1.5862-1.6984-2.7019-4.8633-3.7167-6.9052-9.9908-20.1038-13.6594-42.66-12.2276-64.9643.1237-1.9278-2.8767-1.92-3,0Z"/><path class="cls-3" d="M293.548,127.6253c2.3271.9118,2.2133,3.9341,2.102,5.9662-.1142,2.0844-1.33,3.1867-2.8513,4.4244-1.4983,1.2187.6354,3.33,2.1213,2.1213a8.9838,8.9838,0,0,0,3.7527-8.3026c-.126-3.1733-1.2384-5.8919-4.3272-7.1021-1.7983-.7046-2.578,2.1952-.7975,2.8928Z"/><path class="cls-3" d="M310.1209,128.8051a5.5156,5.5156,0,0,1-.0769-.6191q-.0138-.1861-.02-.3727c-.0047-.1359.0732-.4463-.0239-.1058l-.3858.6619c-.2907.3677-.8936.0677-.9413-.33a.5727.5727,0,0,1,.2977-.5745.5117.5117,0,0,1,.2393-.0788q.5971.2263.2564.033a1.5,1.5,0,1,0-1.5142,2.59,2.4392,2.4392,0,0,0,3.28-.66,2.4693,2.4693,0,0,0-.3242-3.1531,2.4954,2.4954,0,0,0-3.3475-.0334c-.87.8464-.515,2.3849-.3317,3.44a1.5126,1.5126,0,0,0,1.8452,1.0477,1.5342,1.5342,0,0,0,1.0476-1.8452Z"/><path class="cls-3" d="M281.944,187.0788l-.0528.0633.6619-.3858-.0868.0151h.7976l-.0834-.0335.8964.6894.1032.69-.3858.6619.0677-.0715-1.0606.4394.0922-.0082-1.0607-.4394q-.05-.1056-.1052-.2092v-.7975l-.0245.1313.3857-.6619-.08.1033.6619-.3857-.1186.0366,1.6939.6894.1152.46a1.5,1.5,0,0,0-3,0,1.8811,1.8811,0,0,0,.2944,1.0543,1.54,1.54,0,0,0,1.694.6894,1.7852,1.7852,0,0,0,1.1648-2.4226,1.7669,1.7669,0,0,0-2.47-1.0348,1.8859,1.8859,0,0,0-.6293,2.4787,1.6637,1.6637,0,0,0,2.65.3692,1.5414,1.5414,0,0,0,0-2.1213,1.512,1.512,0,0,0-2.1213,0Z"/><path class="cls-3" d="M1.2543,229.0349A59.7929,59.7929,0,0,1,13.82,226.81c3.19-.1946,8.1187,1.0669,11.1387.12,1.815-.5691,2.7141-2.3112,4.3249-3.3137,3.6027-2.2424,8.7289-3.1587,12.7183-4.4586,1.8278-.5955,1.0455-3.4934-.7975-2.8928-3.8467,1.2534-7.9877,2.2395-11.6812,3.9171-2.4446,1.11-4.3331,3.4914-6.9185,3.7585-3.72.3843-7.622-.3185-11.4142.0832A65.1193,65.1193,0,0,0,.4568,226.142a1.5013,1.5013,0,0,0,.7975,2.8929Z"/><path class="cls-3" d="M44.0307,217c-2.2414-5.1037-5.6915-12.187-4.5045-17.8742C40.58,194.08,44.95,190.6125,48.41,187.1721c2.899-2.8825,4.7294-5.988,7.1366-9.2175,2.71-3.6364,7.342-6.3169,11.1914-8.6262,4.6408-2.7841,9.6054-4.9192,15.0673-3.3054a36.766,36.766,0,0,1,13.7936,7.9446c2.9951,2.9324,4.5307,5.1925,8.3842,7.164,4.3472,2.224,7.6125,4.8236,10.12,9.0974l1.2952-2.2571c-8.93.3493-17.6952.7569-26.5961.25-7.243-.4122-14.96,3.1228-21.0106,6.8631-4.8775,3.0155-9.3942,7.6161-10.2031,13.5425a10.1846,10.1846,0,0,0,7.9615,11.6845c1.8759.4533,2.6763-2.4389.7975-2.8929-8.8-2.1265-5.9478-12.0167-1.11-16.6759,4.2611-4.1036,10.6259-6.78,16.1762-8.5688,5.3286-1.717,10.667-.3331,16.1359-.5066,5.95-.1887,11.9-.4635,17.8484-.6962a1.5155,1.5155,0,0,0,1.2952-2.257,24.5354,24.5354,0,0,0-9.6835-9.4528c-3.159-1.69-5.437-2.8918-7.7626-5.69a24.4167,24.4167,0,0,0-5.6352-4.8991c-4.24-2.7589-9.4884-5.8775-14.65-6.25-4.9251-.3559-9.62,1.8442-13.7389,4.3151-3.8982,2.3386-8.4461,4.9979-11.388,8.5448-2.1028,2.5352-3.4562,5.45-5.7167,7.9086-2.1145,2.3-4.5494,4.2875-6.6217,6.629-8.0271,9.0694-4.4692,18.6481-.0575,28.6941.7746,1.7637,3.36.2386,2.5905-1.5141Z"/><path class="cls-3" d="M65.2112,220.4883c4.276,1.23,9.3509,2.3338,12.8208,5.2244,3.3062,2.7542,5.4118,7.3523,7.5014,11.0908a138.4262,138.4262,0,0,1,10.3652,22.9674c.6181,1.8177,3.5168,1.0374,2.8928-.7976a147.1794,147.1794,0,0,0-12.4887-26.864c-1.8276-3.1254-3.6266-6.66-6.5174-8.9573-3.8011-3.02-9.2089-4.2421-13.7766-5.5566a1.5013,1.5013,0,0,0-.7975,2.8929Z"/><path class="cls-3" d="M-.3988,320.57c10.68,3.1884,19.2343,11.8027,30.5445,13.1411,9.2994,1.1005,19.6526-4.0355,27.9422-7.784a58.697,58.697,0,0,0,12.1964-7.1743c4.555-3.5814,7.7924-8.2788,11.8144-12.3811,3.7282-3.8027,8.1834-6.6383,11.454-10.9122,3.3314-4.3534,5.7091-9.301,8.0512-14.23.8244-1.7348-1.7613-3.2589-2.59-1.5142A84.84,84.84,0,0,1,92.39,291.9662c-3.13,4.4945-7.23,7.3838-11.1614,11.0564-3.6236,3.3852-6.4143,7.5417-10.0016,10.962a49.8654,49.8654,0,0,1-13.1678,8.6643c-9.0325,4.298-21.0929,10.1394-31.1735,7.3682-9.4752-2.6049-17.0508-9.5233-26.4865-12.34-1.8539-.5534-2.646,2.3411-.7976,2.8929Z"/><path class="cls-3" d="M93.8134,190.493c2.2113-3.7029,4.4034-8.2457,8.1579-10.6116,1.6294-1.0267.1256-3.6237-1.5142-2.59-4.2507,2.6786-6.7288,7.4926-9.2341,11.6878a1.5011,1.5011,0,0,0,2.59,1.5142Z"/><path class="cls-3" d="M83.7762,176.0663a.6554.6554,0,0,1-1.0147.6468l-.5381-.5381a1.7689,1.7689,0,0,1-.0467-.29,2.4942,2.4942,0,0,1,.002.2748.4288.4288,0,0,1,.0644-.2432,1.005,1.005,0,0,1,1.726.0291,1.5,1.5,0,0,0-2.59,1.5142,1.9876,1.9876,0,0,0,3.0592.4483,2.723,2.723,0,0,0,.6256-2.7333,2.0629,2.0629,0,0,0-3.006-1.0849,2.47,2.47,0,0,0-1.1742,2.7741,1.5,1.5,0,0,0,2.8929-.7976Z"/><path class="cls-3" d="M5.6405,323.9141c4.2842,9.4308,9.1375,18.805,12.6259,28.5651a29.0486,29.0486,0,0,1,1.8386,6.0771c.6281,5.4548-1.3981,6.79-6.3977,7.6406-3.3.5615-5.9136.9577-8.7945,2.85a1.5215,1.5215,0,0,0,.3583,2.7416,64.3121,64.3121,0,0,0,19.2235,3.8741c1.93.094,1.9249-2.9062,0-3A61.5458,61.5458,0,0,1,6.0687,368.896l.3583,2.7416c3.1-2.0362,5.728-2.1577,9.2977-2.4381a6.9894,6.9894,0,0,0,4.6122-1.946,8.3,8.3,0,0,0,2.8531-8.6068C20.593,346.0573,13.5048,334.01,8.2309,322.4c-.7974-1.7552-3.3837-.232-2.59,1.5142Z"/><path class="cls-3" d="M18.8693,329.8087l3.0848,22.457c.4764,3.4678.6412,7.1913,1.4743,10.594.5779,2.3607,2.3939,3.9566,3.0467,6.2234a1.5013,1.5013,0,0,0,2.8928-.7975c-.6708-2.3295-2.4932-3.8245-3.0467-6.2234-.7935-3.4391-.9938-7.0962-1.4743-10.594l-3.0848-22.457c-.2615-1.9042-3.1526-1.0936-2.8928.7975Z"/><path class="cls-3" d="M45.1564,328.6848a159.4749,159.4749,0,0,0-1.6819,31.3912c.0884,1.9224,3.0889,1.9333,3,0a155.3587,155.3587,0,0,1,1.5747-30.5936c.2873-1.8887-2.603-2.703-2.8928-.7976Z"/><path class="cls-3" d="M54.99,326.4573a192.9743,192.9743,0,0,1-5.05,29.4963c-.4713,1.8727,2.4212,2.6717,2.8928.7975A198.3013,198.3013,0,0,0,57.99,326.4573c.1766-1.9218-2.8245-1.91-3,0Z"/><path class="cls-3" d="M25.6694,419.3259c-1.5641.4649-1.0916,1.0654-2.1117,2.0493-.7066.6815.7466,2.1958-1.1044.0963-1.2765-1.4479-.6576-.8519-.4308-2.3817.2656-1.7912,1.4116-3.702,1.8921-5.4827,1.7738-6.5738,1.9335-13.4346,2.53-20.1784.6574-7.433,1.0974-16.472,4.2569-23.3627,3.4368-7.4958,14.6308-8.6809,21.7559-10.8438,15.9538-4.8429,32.8682-11.1909,47.64.0494,5.5179,4.1987,10.0532,9.5415,14.6653,14.6768,4.1764,4.65,8.1853,10.4072,13.53,13.79,6.0645,3.838,14.1741,4.83,21.1927,5.3959,7.83.6307,18.3082-2.3292,25.1927,2.2058,1.6169,1.0652,3.1214-1.5316,1.5142-2.59-6.3311-4.17-13.97-2.3212-21.093-2.37-9.3686-.0645-21.3709-1.0219-28.4757-7.826-10.99-10.5248-19.5153-25.9492-34.6295-31.1925-8.0369-2.7881-16.6415-1.6754-24.7084.373-9.5567,2.4267-19.1124,5.427-28.4789,8.5048-6.1954,2.0357-10.1243,5.28-11.9637,11.6911-2.2984,8.0106-3.037,16.6873-3.6739,24.9663-.4321,5.6186-.7751,11.3087-2.3706,16.7455-.867,2.9542-3.3754,6.7034-2.0684,9.88a4.5714,4.5714,0,0,0,4.44,2.8091,3.5412,3.5412,0,0,0,1.86-.73c.5621-.4605,1.47-3.391,1.4368-3.3812,1.8463-.5488,1.06-3.445-.7976-2.8929Z"/><path class="cls-3" d="M174.3,395.2457c5.7666,3.2263,12.567,4.63,17.579,9.1126,4.3471,3.8883,7.6181,9.1617,10.6619,14.086a102.2414,102.2414,0,0,1,13.95,34.8521c2.4737,13.2994,2.6757,26.3709,7.1361,39.3,1.8975,5.5,3.6749,11.4605,6.6952,16.4789,3.1219,5.187,7.9093,9.0946,10.9926,14.3207a1.5011,1.5011,0,0,0,2.59-1.5142c-3.0858-5.23-7.877-9.1373-10.9926-14.3207-3.617-6.0177-5.8182-13.5316-7.8634-20.2391-4.1238-13.5243-3.5332-27.8075-7.1591-41.4281a110.4071,110.4071,0,0,0-15.0561-32.5361c-2.92-4.3862-6.0248-8.9735-10.1964-12.2717-4.9838-3.94-11.3452-5.3662-16.823-8.4309-1.6867-.9437-3.2011,1.6466-1.5142,2.59Z"/><path class="cls-3" d="M240.9911,522.4967c3.4741,5.0078,7.8807,9.1674,11.4227,14.1334,3.0619,4.293,7.35,7.0062,11.8334,9.6383a1.5011,1.5011,0,0,0,1.5141-2.59A36.8911,36.8911,0,0,1,253.2235,532.44c-2.8837-4.1026-6.7722-7.3205-9.6419-11.4571-1.0931-1.5755-3.6946-.0774-2.5905,1.5142Z"/><path class="cls-3" d="M26.566,424.4846a57.729,57.729,0,0,0,6.0235-8.8793,42.9221,42.9221,0,0,1,8.5136-10.2047c1.4371-1.2954-.69-3.4116-2.1213-2.1213a42.4646,42.4646,0,0,0-7.71,8.7219c-2.2332,3.5071-4.0649,7.2167-6.8272,10.3621-1.2694,1.4455.8443,3.5754,2.1213,2.1213Z"/><path class="cls-3" d="M42.0626,404.5335c2.0773-3.3478,4.1124-6.5216,7.6913-8.3972,2.0912-1.0959,4.5239-1.5009,6.4046-3,4.1129-3.279,6.3437-9.0288,9.48-13.1619,2.6154-3.4469,5.9571-3.6962,9.9259-4.0448,5.0117-.44,7.4731-1,11.166,3.6581a39.5946,39.5946,0,0,1,8.0007,18.2412c.2738,1.9035,3.1649,1.094,2.8928-.7975a44.3682,44.3682,0,0,0-10.3287-21.9031c-3.9731-4.3388-11.4228-2.744-16.6372-1.6838-6.7814,1.3788-9.5017,7.9417-13.1147,13.1707a14.5728,14.5728,0,0,1-7.3278,6.0131,17.3843,17.3843,0,0,0-4.4661,2.45c-2.6684,2.1168-4.5046,5.0851-6.2769,7.9414-1.0208,1.6451,1.5734,3.1532,2.59,1.5141Z"/><path class="cls-3" d="M95.0928,396.51c.4943,13.6969.5815,27.1347-3.503,40.3659-3.54,11.4662-8.4777,22.4585-9.0109,34.6153-.0846,1.93,2.9155,1.9262,3,0,.5723-13.05,6.4892-24.7466,9.88-37.1557,3.3791-12.3642,3.0917-25.1289,2.6335-37.8255-.0695-1.9248-3.07-1.934-3,0Z"/><path class="cls-3" d="M82.7573,485.8874c.9584,13.1657,3.7081,25.3692,10.7235,36.6945,3.0633,4.9452,6.31,10.5024,10.46,14.6338,4.0887,4.0711,9.6653,5.4505,14.5619,8.2177,4.2141,2.3815,7.6263,5.7538,12.4783,6.8156,6.181,1.3527,10.9018,4.7834,17.4833,4.974,6.9412.2011,13.4566.1355,20.3664,1.3048,6.7266,1.1384,13.339,2.3119,20.1887,1.7842,1.9126-.1474,1.9285-3.1486,0-3-12.0164.9257-23.6444-3.3562-35.6677-3.1494a54.7842,54.7842,0,0,1-7.8719-.1694c-3.4227-.4342-5.5808-2.0406-8.5855-3.4115-2.53-1.1545-5.2639-1.022-7.8228-2.0651-2.4079-.9816-4.4214-2.6533-6.5563-4.1019-4.0719-2.7629-8.8546-4.0285-12.9889-6.6308-5.5006-3.4622-9.0375-9.8265-12.4916-15.1967-7.3-11.35-10.3048-23.3446-11.277-36.7-.1394-1.9141-3.1405-1.9294-3,0Z"/><path class="cls-3" d="M187.7641,559.96c23.3167,5.6032,48.624,1.0772,72.1207-1.3278,1.902-.1947,1.922-3.1967,0-3-23.1673,2.3713-48.3388,6.9583-71.3232,1.435-1.8762-.4509-2.6768,2.4412-.7975,2.8928Z"/><path class="cls-3" d="M130.354,551.0558c2.8165,6.33.2585,13.46,4.7692,19.2579,1.1841,1.5221,3.2934-.6147,2.1213-2.1213-4.0125-5.1578-1.6964-12.799-4.3-18.6507-.7833-1.76-3.3692-.2362-2.59,1.5141Z"/><path class="cls-3" d="M140.2874,556v12.6622a1.5009,1.5009,0,0,0,3,0V556a1.5009,1.5009,0,0,0-3,0Z"/><path class="cls-3" d="M185.2173,560.2842l1.7005,11.2018c.2888,1.9025,3.18,1.0942,2.8929-.7975L188.11,559.4866c-.2888-1.9025-3.18-1.0942-2.8928.7976Z"/><path class="cls-3" d="M193.98,560.2484a28.8959,28.8959,0,0,0-1.1,8.9012c.0627,1.9256,3.063,1.9342,3,0a26.1249,26.1249,0,0,1,.9933-8.1037,1.5013,1.5013,0,0,0-2.8929-.7975Z"/><path class="cls-3" d="M39.0384,569.6361c1.3008-4.3969,1.1582-8.9907,1.3008-13.5407q.2766-8.8248.4751-17.6519c.2307-10.2792,1.2747-21.0735.034-31.3-1.2515-10.3162-5.5708-19.0549-3.1891-29.7114,1.1394-5.0977,3.28-10.6622,7.012-14.4609,3.7715-3.8387,10.51-4.9546,15.7209-4.7327,5.4963.2341,8.4459,4.0444,12.0471,7.5843a34.418,34.418,0,0,0,9.4841,6.4711c3.9058,1.8671,8.02,3.2651,11.889,5.212.9056.4557,1.8084.9187,2.6687,1.4571,2.2333,1.3976,2.3748,1.2146,2.1809,3.977-.2327,3.3161-1.408,3.0748-4.3871,2.738-2.08-.2352-3.8941-1.38-5.8106-2.1356a29.4213,29.4213,0,0,0-22.4726.2056c-7.7637,3.3813-9.2917,10.6854-9.0025,18.62.4032,11.0643,3.2794,22.3556,5.31,33.2095,2.3058,12.3251,4.95,24.5782,8.3212,36.6591a1.5013,1.5013,0,0,0,2.8928-.7975c-3.2844-11.7706-5.8814-23.7049-8.1438-35.7108-2.1807-11.5721-5.8037-24.2767-5.3908-36.0936.1019-2.9176.4659-6.8013,2.1375-9.3977,1.8779-2.9169,5.8-4.2573,8.9489-5.0476,6.7972-1.7062,12.7023-.2606,19.0242,2.3054,4.4239,1.7956,13.6977,2.1562,12.897-5.1816-.794-7.276-14.2443-10.0653-19.5486-12.61a37.465,37.465,0,0,1-10.8573-8.036c-2.6864-2.758-5.4981-5.3417-9.3833-6.1582-7.3524-1.5452-17.1356.8766-21.9061,6.8-5.9345,7.3682-8.2578,17.8505-7.32,27.1316.5211,5.16,2.4308,9.9577,3.4232,15.0144,1.36,6.9317.7779,14.2149.6655,21.238q-.1647,10.2995-.4365,20.5967c-.1911,7.2346.5827,15.5868-1.4771,22.5493-.5488,1.8551,2.3456,2.6476,2.8929.7975Z"/><path class="cls-3" d="M76.2272,468.4657c.3649,3.1134,1.8868,11.0418-2.0671,12.4747-1.8011.6527-1.0237,3.5528.7975,2.8928,6.0507-2.1927,4.8635-10.3011,4.27-15.3675-.2221-1.8945-3.2247-1.917-3,0Z"/><path class="cls-3" d="M61.6674,470.5957c.44.0387.8489.3548.666.8292-.0661.1717-.146.211-.3038.2833.2384-.1092-.1491-.0618.1239-.0193a.4985.4985,0,0,1-.3235-.1144q-.2554-.492-.1439-.1143l-.0161-.0827c.0125.1031-.0318.3756.0219.4651a.3254.3254,0,0,1,.0554-.176.9106.9106,0,0,1,1.4547-.1368,1.5319,1.5319,0,0,0-2.1213,0,1.5157,1.5157,0,0,0,0,2.1213,2.1438,2.1438,0,0,0,3.5466-1.2566c.254-1.4616-.2325-3.16-1.803-3.6037a2.7561,2.7561,0,0,0-3.3393,1.714,2.4127,2.4127,0,0,0,.253,1.9712,2.3835,2.3835,0,0,0,1.9294,1.12,1.5059,1.5059,0,0,0,1.5-1.5,1.5392,1.5392,0,0,0-1.5-1.5Z"/><path class="cls-3" d="M25.3922,395.793c3.3092-.75,5.5549,2.1753,7.7057,4.1406a17.3369,17.3369,0,0,0,2.2842,1.841c1.0568.6775,3.2361,1.1785,3.6682,2.5212.5891,1.8305,3.4867,1.0477,2.8928-.7975a5.1413,5.1413,0,0,0-2.7226-3.1431,25.6257,25.6257,0,0,1-5.49-3.97c-2.5776-2.44-5.4754-4.314-9.1356-3.4849-1.8821.4263-1.0855,3.3194.7976,2.8928Z"/><path class="cls-3" d="M32.8522,384.1478a.3768.3768,0,0,1-.0066.3571.6453.6453,0,0,1-.27.2251.4244.4244,0,0,1-.2273.048q-.264-.0577-.0977-.0162c.16.05-.1452-.0815-.1887-.1264a.6618.6618,0,0,1-.1722-.41.5.5,0,0,1,.171-.3985c.0665-.0581.4447-.1656.1483-.0956a1.5,1.5,0,0,0,.7976,2.8929,2.5177,2.5177,0,0,0,1.872-2.2786,2.4135,2.4135,0,0,0-1.7145-2.44,2.55,2.55,0,0,0-2.902,3.7559,1.5,1.5,0,1,0,2.59-1.5141Z"/></svg>