<svg xmlns="http://www.w3.org/2000/svg" viewBox="0 0 314 266"><defs><style>.cls-1{fill:#fddfb1;}.cls-2{fill:#f59270;}.cls-3{fill:#ebddc1;}.cls-4{fill:#8d9798;}.cls-5{fill:#f16e40;}</style></defs><title>explore</title><g id="圖層_1" data-name="圖層 1"><path class="cls-1" d="M104.1831,66.3106c-.4025,2.8408-1.0151,6.0283-3.4121,7.6051a8.027,8.027,0,0,1-2.9335,1.0633,13.3984,13.3984,0,0,1-3.5452.2449,11.52,11.52,0,0,1-7.8258-4.185,5.23,5.23,0,0,1-1.1971-2.2115,2.4426,2.4426,0,0,1,.6657-2.3289c.6373-.55,1.5752-.6252,2.24-1.1423a3.9884,3.9884,0,0,0,1.1-3.0888,49.1667,49.1667,0,0,0-.0655-5.4831l-5.2964,5.1816c-.5313.52-1.3195,1.0736-1.9425.6681a1.5418,1.5418,0,0,1-.5135-.7314,10.3672,10.3672,0,0,1-.7382-2.7559,2,2,0,0,1,.08-1.0623,2.19,2.19,0,0,1,.97-.8878q3.5145-2.0778,7.2086-3.83c1.0053-.4766,2.1343-1.0671,2.404-2.1464a3.7315,3.7315,0,0,0-.2113-1.9273l-1.8846-6.4186c1.9583-.7719,3.9419,1.0324,6.02,1.3646a4.5139,4.5139,0,0,0,4.7626-2.717c.9639,1.3279.0075,3.33.7764,4.779.8074,1.5221,2.9037,1.567,4.594,1.9011,2.6569.5252,4.92,2.1985,7.0847,3.8264,1.05.79,2.1808,1.7079,2.39,3.0049a1.3421,1.3421,0,0,1-.134.93,1.5652,1.5652,0,0,1-.596.4944,3.852,3.852,0,0,1-2.2986.5311,2.27,2.27,0,0,1-1.85-1.3386c-.1837-.4791-.1765-1.0514-.5182-1.4343a1.9971,1.9971,0,0,0-1.2728-.4924l-8.6053-1.16a3.1286,3.1286,0,0,0-2.3122.2877,2.58,2.58,0,0,0-.83,1.4456,7.5186,7.5186,0,0,0-.0673,3.6062,2.4162,2.4162,0,0,0,.58,1.2163,2.1563,2.1563,0,0,0,1.0584.5134c1.6765.3751,3.5893-.2431,5.0557.6519a3.607,3.607,0,0,1,1.5619,2.88,8.02,8.02,0,0,1-.66,3.3151"/><path class="cls-2" d="M122.7032,195.54a45.8321,45.8321,0,0,1,5.0756-18.2662.8964.8964,0,0,1,.4728-.5066.921.921,0,0,1,.627.1307,22.6451,22.6451,0,0,0,8.72,2.134c2.3159.0923,4.6356-.1722,6.9508-.0668a11.0774,11.0774,0,0,1,6.5109,2.0819,3.4894,3.4894,0,0,1,1.1557,1.4656,4.2315,4.2315,0,0,1,.1826,1.4089,21.1849,21.1849,0,0,1-2.127,9.92,32.6531,32.6531,0,0,1-2.6226,4.0351l-10.7431,14.8744a1.2217,1.2217,0,0,1-1.4756.6508c-2.3025-.3119-4.7308-.6759-6.5407-2.133-.7606-.6124-1.3792-1.3963-2.1893-1.9414a9.8124,9.8124,0,0,1-1.43-.9565,4.3521,4.3521,0,0,1-.9286-1.5828,23.4131,23.4131,0,0,1-1.6086-7.6716,7.5362,7.5362,0,0,0-.55-3.3116c-.2882-.539-.6145-1.4056-.029-1.5812"/><path class="cls-3" d="M99.69,261.4028a350.5723,350.5723,0,0,1,20.003-66.303,27.8038,27.8038,0,0,0,5.62,16.9064c1.8309,2.4085,4.1891,4.5857,7.1117,5.3677s6.4583-.1881,7.942-2.8248c.9766-1.7354.9446-3.8474,1.5385-5.7482,1.1541-3.6941,4.4823-6.1882,7.0906-9.0474,6.5988-7.2334,8.844-17.2988,11.1538-26.8136a458.5984,458.5984,0,0,1,18.9791-59.9157,14.842,14.842,0,0,1,3.2881-5.6559c2.6258-2.4375,6.548-2.6838,10.13-2.7533q16.1844-.3145,32.3626.57c5.9222.3239,12.122.8594,17.103,4.079,6.6566,4.3026,9.7008,12.5052,10.7936,20.3556,1.2789,9.1872.48,18.5293.98,27.7916s2.5077,18.8906,8.4795,25.9884c4.1683,4.9543,9.9074,8.26,15.2224,11.9571a109.3322,109.3322,0,0,1,32.2689,35.2045c1.8057,3.1476,3.5019,6.6062,3.2115,10.2233-.39,4.8617-4.24,8.7024-8.2076,11.54-15.3477,10.9765-35.1132,13.6015-53.9818,13.7123q-8.9239.0525-17.8361-.5416c-12.01-.8009-23.9533-2.4815-35.974-3.1081-29.6912-1.5478-59.354,3.3491-89.0856,3.3485-3.5864,0-7.6454-.2844-9.9484-3.0335"/><path class="cls-4" d="M101.5225,261.7154a209.0035,209.0035,0,0,1,20.78-70.8713c.5988-1.2005-1.2041-2.2608-1.8054-1.0553a211.9075,211.9075,0,0,0-21.0652,71.9266c-.144,1.336,1.9479,1.3259,2.0909,0Z"/><path class="cls-4" d="M120.9482,199.9179c2.0952-1.6865,4.1691-3.6463,6.4258-5.1141,2.5871-1.6827,5.2551-1.7947,8.2435-1.4563l-.7393-1.7846a50.0444,50.0444,0,0,1-5.2536,4.78c-.7662.5975-7.7091,5.9362-8.2924,3.1708-.2775-1.3158-2.2935-.759-2.0161.5558,1.692,8.0217,14.9425-4.8511,17.0406-7.0281a1.0594,1.0594,0,0,0-.7392-1.7846c-2.8868-.3269-5.793-.3133-8.3862,1.1584-2.8009,1.59-5.2633,4.0135-7.7616,6.0244-1.0482.8438.4394,2.3148,1.4785,1.4784Z"/><path class="cls-4" d="M125.3685,176.37q-1.3734,8.6052-2.8841,17.187c-.2317,1.3158,1.7829,1.8807,2.0161.5558q1.5109-8.5821,2.8841-17.187c.21-1.3163-1.8043-1.883-2.0161-.5558Z"/><path class="cls-4" d="M122.0813,201.1146c-.0064,2.9785-.5872,6.6056.0177,9.5195.3248,1.5647,1.1,2.1308,2.52,2.7931a52.815,52.815,0,0,0,9.4861,3.3019c1.5495.38,3.1706.7389,4.5941-.2273,1.9217-1.3044,2.9162-4.4269,3.9633-6.387,1.5764-2.9508,3.1165-5.9228,4.5258-8.9576a77.4921,77.4921,0,0,0,6.04-17.9236c.254-1.3146-1.7608-1.8776-2.0161-.5558-1.7745,9.185-5.691,17.6171-10.06,25.8278-1.13,2.1241-1.9556,4.5841-4.1152,5.7055-2.28,1.1841-4.8-.2094-7.1606-1.03a24.89,24.89,0,0,1-2.9482-1.0806c-1.8675-.932-2.55-1.7121-2.7725-3.514a61.9369,61.9369,0,0,1,.0162-7.4722,1.0461,1.0461,0,0,0-2.0909,0Z"/><path class="cls-4" d="M125.2746,169.7405c-.4255,1.8522-2.2524,5.6994-.493,7.3018a3.49,3.49,0,0,0,2.1127.6467c2.2237.2127,4.3539-.1207,6.6142.2917,4.1173.751,8.0365,2.3191,12.1451,3.1128,2.3125.4468,6.5886,1.5951,8.7093.2086,4.9386-3.229-2.1061-8.3584-4.7935-9.6479a42.6077,42.6077,0,0,0-22.1371-3.9482c-1.3307.1134-1.3428,2.2052,0,2.0909a41.3162,41.3162,0,0,1,15.1715,1.4071,38.5672,38.5672,0,0,1,6.985,2.7913c1.2549.6527,2.78,1.2894,3.3815,2.6709q1.6476,1.4875-.6884,2.991-.9591.0041-1.9154-.0645c-5.2288-.3137-10.0221-2.26-15.0866-3.3761a27.8356,27.8356,0,0,0-6.3938-.7333c-1.3712.02-1.6185.5068-2.201-.7623-.5735-1.2492.3164-3.1656.6057-4.4247.3008-1.31-1.7146-1.8688-2.0162-.5558Z"/><path class="cls-4" d="M141.45,167.9773c-.6619-6.3248,1.397-12.13,3.1812-18.0918.2862-.9562.425-2.8254,1.0295-3.6482,1.1674-1.5891,4.0778-1.9115,5.8542-2.3386,2.9688-.7137,5.9671-1.2638,8.9867-1.7121,1.3262-.1968.7625-2.2118-.5559-2.0161a101.4861,101.4861,0,0,0-11.52,2.3579c-2.7254.7343-4.1427.9954-4.942,3.7615-2.0472,7.0841-4.9092,14.1856-4.1241,21.6874.1386,1.3248,2.231,1.339,2.0908,0Z"/><path class="cls-4" d="M151.59,190.318a4.9349,4.9349,0,0,1,4.5335.9591l.7392-1.7846-6.6.8184c-1.3179.1635-1.3343,2.2563,0,2.0909l6.6-.8185c.79-.0979,1.5158-1.1342.7392-1.7846a7.1341,7.1341,0,0,0-6.5677-1.4968,1.0463,1.0463,0,0,0,.5558,2.0161Z"/><path class="cls-4" d="M149.5382,195.7385a3.558,3.558,0,0,1,4.2568,2.0575l.9027-1.5731a46.3242,46.3242,0,0,1-7.065.172c-1.3448-.07-1.341,2.0212,0,2.0908a46.3108,46.3108,0,0,0,7.065-.1719,1.0632,1.0632,0,0,0,.9026-1.5731,5.6291,5.6291,0,0,0-6.6179-3.0184,1.0463,1.0463,0,0,0,.5558,2.0162Z"/><path class="cls-4" d="M146.3662,201.7746a10.0466,10.0466,0,0,1,4.0134,1.6246l.25-1.9107a47.9127,47.9127,0,0,1-4.9358,1.2477c-1.3189.26-.7606,2.2755.5559,2.0161a47.9,47.9,0,0,0,4.9358-1.2477,1.06,1.06,0,0,0,.25-1.9107,11.4817,11.4817,0,0,0-4.5129-1.8354c-1.3159-.23-1.881,1.7848-.5558,2.0161Z"/><path class="cls-4" d="M115.2387,261.3652c4.8338-11.915,14.5665-21.2163,22.192-31.352a289.1539,289.1539,0,0,0,21.6959-33.4882c.6538-1.1774-1.1513-2.2331-1.8054-1.0553a287.5477,287.5477,0,0,1-22.46,34.5c-7.5728,9.9574-16.8677,19.0808-21.6384,30.84-.5056,1.2463,1.5161,1.7885,2.0162.5559Z"/><path class="cls-4" d="M158.8834,196.4324c4.4657-9.2949,4.6141-19.5023,4.563-29.6154-.0566-11.2138.2444-22.5338,3.4606-33.3665,3.0193-10.1694,8.7724-19.6117,17.6324-25.6908a33.5167,33.5167,0,0,1,12.599-5.4015c5.8522-1.119,11.6842-.0109,17.4414,1.1312,10.09,2.0016,20.9984,4.5408,27.21,13.53,5.8792,8.5077,7.4451,19.8129,8.9664,29.8051,1.56,10.2447.5432,22.1284,5.9923,31.3106,4.2572,7.1738,11.2571,12.2073,18.0694,16.7562A294.6977,294.6977,0,0,1,303.77,216.7755c2.6259,2.2617,5.6185,4.4851,6.5307,8.0085.7808,3.0159.3691,6.4759.1621,9.5523-.4421,6.5692-2.3113,14.3415-9.5075,16.408a1.0463,1.0463,0,0,0,.5558,2.0161c9.997-2.8707,11.1119-14.458,11.26-23.2283.0912-5.4151-1.5674-9.02-5.6193-12.5909-4.6611-4.1076-9.4169-8.1362-14.3022-11.975-8.4147-6.6122-18.0114-11.6864-26.1517-18.63a34.5176,34.5176,0,0,1-9.6212-12.141c-2.625-6.0064-2.4558-12.8075-3.1608-19.22-1.2213-11.11-2.6655-23.1009-7.2338-33.408-4.14-9.3411-11.7074-14.8454-21.3469-17.7112-9.8535-2.9294-21.5454-5.786-31.67-2.8051-8.9271,2.6283-16.4679,8.9333-21.6821,16.5212-7.15,10.4055-9.6508,23.2829-10.3827,35.6794-.8253,13.9793,1.7512,29.069-4.5218,42.1255-.58,1.2072,1.2222,2.269,1.8054,1.0553Z"/><path class="cls-4" d="M301.614,250.3645c-1.7093,2.3516-4.6335,3.9264-6.9555,5.62l-6.9459,5.0657c-1.0764.785-.0343,2.6,1.0553,1.8054l8.6823-6.3322c2.1286-1.5524,4.4027-2.9483,5.9692-5.1035.7921-1.09-1.0211-2.1344-1.8054-1.0553Z"/><path class="cls-4" d="M271.9849,214.4044c4.49,6.6837,6.1465,14.4834,7.4792,22.3006,1.4557,8.5386,2.851,17.0878,4.2752,25.6317.2207,1.3242,2.2359.7625,2.0161-.5558-1.4886-8.93-2.9162-17.8735-4.4748-26.792-1.3295-7.6079-3.1293-15.1474-7.49-21.64-.7464-1.1112-2.5584-.0658-1.8053,1.0553Z"/><path class="cls-4" d="M213.4786,153.0412l1.7022,12.58c.1795,1.3272,2.1944.762,2.0161-.5559l-1.7022-12.58c-.18-1.3272-2.1944-.762-2.0161.5558Z"/><path class="cls-4" d="M221.7433,180.8669l1.0456,6.9478c.2,1.3261,2.2145.7626,2.0161-.5558l-1.0456-6.9478c-.2-1.3261-2.2145-.7626-2.0161.5558Z"/><path class="cls-4" d="M231.0511,179.6338a4.1463,4.1463,0,0,1,.5845,3.9371c-.4409,1.2742,1.5781,1.8217,2.0161.5558a6.1108,6.1108,0,0,0-.7952-5.5482c-.7771-1.084-2.5914-.0412-1.8054,1.0553Z"/><path class="cls-4" d="M205.2417,163.9665l4.0184,15.556a1.0463,1.0463,0,0,0,2.0161-.5558l-4.0184-15.5561a1.0463,1.0463,0,0,0-2.0161.5559Z"/><path class="cls-4" d="M206.5363,212.3761v9.6054a1.0461,1.0461,0,0,0,2.0909,0v-9.6054a1.0461,1.0461,0,0,0-2.0909,0Z"/><path class="cls-4" d="M231.0466,225.9562V236.224a1.0461,1.0461,0,0,0,2.0909,0V225.9562a1.0461,1.0461,0,0,0-2.0909,0Z"/><path class="cls-4" d="M254.07,158.6439l1.27-8.2375c.3216-2.0859.2493-6.7643,2.6045-7.82l-1.43-.375a9.5884,9.5884,0,0,0,6.84,4.7981,8.7257,8.7257,0,0,1,5.05,2.7585,5.1727,5.1727,0,0,0,2.3592,1.355c.96.2883,1.8269.1553,2.8893.4839,2.2129.6845,1.0276.4777,2.2949,1.329a8.9188,8.9188,0,0,0,3.4367,1.7467,7.3164,7.3164,0,0,0,6.4611-1.87l-1.6419-.2116a12.5407,12.5407,0,0,0,5.7539,5.6025,8.0023,8.0023,0,0,1,1.5943.5995c1.1889.9731.5269,2.6278.0694,3.9442a52.5338,52.5338,0,0,1-3.0829,6.0749l-12.3317,24.3c-.6076,1.1972,1.1957,2.2568,1.8054,1.0553l14.1814-27.9445c.9046-1.7826,4.11-5.8714,2.6189-8.065-.72-1.0592-2.0669-1.1107-3.1625-1.5183a10.5151,10.5151,0,0,1-5.6408-5.1035,1.0583,1.0583,0,0,0-1.6419-.2116c-3.0074,2.6969-5.6914,1.0234-8.0728-1.302-1.5519-1.5154-3.2657-.9473-5.1968-1.5619-2.0082-.6391-2.7336-2.5127-4.7386-3.172-1.1058-.3636-2.2929-.2-3.42-.4692a7.22,7.22,0,0,1-4.6188-3.6728,1.0749,1.0749,0,0,0-1.43-.375c-2.164.97-2.6225,3.0881-2.9791,5.2678-.6555,4.0066-1.2376,8.0269-1.8562,12.0393-.203,1.3164,1.8114,1.8837,2.0161.5559Z"/><path class="cls-5" d="M261.664,147.1256a130.8109,130.8109,0,0,1-3.8678,30.9114,1.0464,1.0464,0,0,0,2.0162.5559,133.2488,133.2488,0,0,0,3.9425-31.4673,1.0461,1.0461,0,0,0-2.0909,0Z"/><path class="cls-5" d="M267.1557,149.1123c-.0814,5.2251-2.2253,10.448-3.6805,15.4235l-4.2429,14.5069,1.7473-.4613c-2.4457-2.2539.06-8.8624,1.0519-11.4506,1.2177-3.1779,2.8343-6.1875,4.0345-9.3734,1.2342-3.2761,2.786-8.0849-.85-10.382a1.0561,1.0561,0,0,0-1.573.9027c-.1456,2.4448-.1891,4.8794-.1309,7.3281a1.0461,1.0461,0,0,0,2.0909,0,14.63,14.63,0,0,1,.5543-3.6047l-2.0535-.2779c.1235,3.2258.0992,6.4309-.0731,9.6545l2.0535-.278-1.3552-3.4823a1.0553,1.0553,0,0,0-2.0162,0l-2.015,7.4829a1.0463,1.0463,0,0,0,2.0161.5558l2.0151-7.4828h-2.0162l1.3552,3.4823a1.0508,1.0508,0,0,0,2.0535-.2779c.1724-3.2236.1966-6.4287.0731-9.6545a1.05,1.05,0,0,0-2.0534-.2779,25.2792,25.2792,0,0,0-.6291,4.1605h2.0909c-.0582-2.4484-.0148-4.883.1308-7.3281l-1.5731.9027c4.36,2.7544-3.1613,14.7-4.3671,17.9971-1.1578,3.1659-3.3243,10.0878-.2923,12.8819a1.0575,1.0575,0,0,0,1.7473-.4613l4.6287-15.8257c1.3984-4.7813,3.291-9.6295,3.37-14.66a1.0461,1.0461,0,0,0-2.0909,0Z"/><path class="cls-5" d="M257.8029,145.2268a164.3745,164.3745,0,0,1-4.2839,19.0064h2.0161c-.7684-5.0345.6034-8.7989,2.4031-13.3845,1.1535-2.9391.0607-4.5046-.3436-7.43-.1638-1.1855-2.0559-.8709-2.0535.2779l.0159,7.404a1.046,1.046,0,0,0,2.0908,0l-.0158-7.404-2.0535.2779c.309,2.2364,1.1284,3.7461.4076,6.0607-.5341,1.7153-1.5023,3.2441-2.0028,4.9886a22.5654,22.5654,0,0,0-.4643,9.7655c.1635,1.0714,1.752.9155,2.0161,0a164.378,164.378,0,0,0,4.284-19.0063c.2157-1.3163-1.7987-1.8825-2.0162-.5559Z"/><path class="cls-5" d="M273.525,151.9249c-3.1882,10.6074-5.6206,21.9664-10.4794,31.9593-.586,1.2051,1.2165,2.2664,1.8054,1.0552,4.9465-10.1732,7.4455-21.6635,10.69-32.4587a1.0463,1.0463,0,0,0-2.0161-.5558Z"/><path class="cls-5" d="M280.56,154.0163c-5.2839,10.3974-11.0459,20.4394-15.7973,31.1188h1.8053c-2.67-4.6931,3.7253-11.5854,5.7907-15.5441,2.2561-4.3242,2.8117-9.2524,5.04-13.5761l-1.9107-.25a4.6891,4.6891,0,0,1-.0809,3.5422,1.05,1.05,0,0,0,1.9108.8055l1.75-3.359-1.8054-1.0553a6.4555,6.4555,0,0,1-2.8093,3.2382l1.5357.6248a3.9009,3.9009,0,0,1,.1609-3.6037l-2.0535-.2779-.04,1.5738,2.0535-.2779-.3293-.958-2.0161.5559a5.6472,5.6472,0,0,0,1.177,2.2572,1.0549,1.0549,0,0,0,1.9481-.5276l-.0057-3.192a1.0507,1.0507,0,0,0-2.0535-.2779l-.356.9572c-.47,1.2629,1.55,1.808,2.0161.5559l.356-.9573-2.0535-.2779.0058,3.192,1.9481-.5277-.9663-1.7578c-.4533-1.2512-2.4569-.7266-2.0161.5559l.3292.9579a1.0505,1.0505,0,0,0,2.0535-.2779l.04-1.5738c.0322-1.2706-1.6347-1.2958-2.0534-.2779a6.2032,6.2032,0,0,0-.1609,4.7153,1.0582,1.0582,0,0,0,1.5357.6248,8.2019,8.2019,0,0,0,3.5594-3.9883c.5286-1.2023-1.1711-2.2731-1.8054-1.0553l-1.75,3.359,1.9107.8056a7.888,7.888,0,0,0,.0809-4.6538,1.0569,1.0569,0,0,0-1.9107-.25,45.6537,45.6537,0,0,0-2.9175,8.1158,38.199,38.199,0,0,1-4.3981,9.3072c-2.3763,3.85-6.1065,9.2532-3.5149,13.8078a1.0527,1.0527,0,0,0,1.8053,0c4.7514-10.6792,10.5135-20.7215,15.7974-31.1189.6083-1.1969-1.195-2.2564-1.8054-1.0552Z"/><path class="cls-5" d="M286.8382,155.7269A108.225,108.225,0,0,1,270.6556,188.7c-.7893,1.0921,1.0237,2.1369,1.8054,1.0552a109.9226,109.9226,0,0,0,16.3934-33.4729,1.0463,1.0463,0,0,0-2.0162-.5558Z"/><path class="cls-5" d="M284.4337,152.7489c-.15,3.4965-1.755,6.7439-2.9909,9.9626l-3.4129,8.889-7.3136,19.0477c-.4826,1.2572,1.538,1.8012,2.0162.5559l7.8011-20.3177c2.1826-5.6845,5.7265-11.9719,5.9909-18.1375.0577-1.3453-2.0332-1.3426-2.0908,0Z"/><path class="cls-5" d="M287.8275,158.8777c.8241,1.8519-3.1212,6.5446-4.111,8.1131l-4.3128,6.8344-8.6255,13.6687,1.9107.8056c1.77-5.5744,6.2023-9.3757,9.3956-14.0934a19.9462,19.9462,0,0,0,2.9749-6.2354c.6554-2.6074-.26-5.7857,1.1539-8.14l-1.9108-.8056a30.3141,30.3141,0,0,1-3.8133,10.43l1.9108.25a5.5681,5.5681,0,0,1-.0355-3.4492c.2969-1.31-1.7184-1.87-2.0162-.5558a9.3812,9.3812,0,0,0,.0355,4.5608,1.0572,1.0572,0,0,0,1.9108.25,31.7548,31.7548,0,0,0,4.0241-10.93,1.0506,1.0506,0,0,0-1.9108-.8055c-1.2152,2.0227-.8955,3.9238-1.0115,6.2011-.1743,3.4241-1.7949,6.38-3.7685,9.099-3.2594,4.49-7.234,8.2471-8.9551,13.6681-.368,1.1591,1.2934,1.7838,1.9107.8055l11.1414-17.6555c1.78-2.82,3.8291-5.598,5.391-8.543.8691-1.6388,1.2883-2.7948.5169-4.5283-.5459-1.2269-2.3481-.1645-1.8053,1.0553Z"/><path class="cls-4" d="M260.8731,142.5865a19.151,19.151,0,0,1-1.34-3.7354q-1.2771-2.7014,2.1029-3.5816a3.829,3.829,0,0,0,1.0442.6629c.8859.1067,4.6657.7044,4.704,1.1655l2.0534-.2779c-.207-.8639-.4691-1.6752-.7367-2.5187q-.2654-.7432-.4617-1.5083l2.5-2.8072c.1061-.01,1.091.9791,1.5783,1.0188,1.7782.1449,2.4188-1.6755,2.2154-3.135-.32-2.2974-2.3524-7.0893,3.3638-3.7636.8315.4838,1.0913,1.0566,2.153,1.1309a11.2017,11.2017,0,0,0,1.7073-.3531c2.7.4812,3.0826,2.8513,1.5646,4.9172-2.213,3.0118-6.4219,2.1217-8.2731-.7482-.727-1.127-2.5377-.08-1.8054,1.0553,2.8534,4.4234,9.6479,5.1633,12.3649.1008,1.0286-1.9166,1.149-4.6377-.3774-6.3437a3.8822,3.8822,0,0,0-2.7709-1.2975c-.9063-.119-1.2788.2865-2.3083.0156a8.11,8.11,0,0,1-2.3138-1.2906,4.0211,4.0211,0,0,0-5.5362.9687,4.84,4.84,0,0,0-.5937,3.0525c.0564.6757.37,1.3026.4512,1.9566.173,1.3962.3415.7606-.3157.691-.8646-.0916-1.4341-.9521-2.6117-.7918a3.6164,3.6164,0,0,0-2.2568,1.2523c-2.1921,2.5784-.2059,6.23.447,8.9538.2693,1.1235,2.1524.9137,2.0535-.2779a3.4948,3.4948,0,0,0-3.1265-3.4883c-.7791-.0677-1.4819.3575-2.2572.3-1.255-.0929-1.9764-1.1524-3.2678-1.3026-5.9839-.6962-2.9,8.5686-1.756,11.0347.5654,1.22,2.3683.1588,1.8053-1.0553Z"/><path class="cls-4" d="M276.4316,133.4887c1.2018,2.3421-7.3327,3.382-8.5134,3.64-1.314.2869-.7579,2.303.5558,2.0161,2.87-.6267,12.4771-1.4217,9.7629-6.7112-.6144-1.1975-2.4191-.1409-1.8053,1.0553Z"/><path class="cls-4" d="M276.7673,132.551c-.0177,2.4016-1.1338,7.2043,1.8646,8.2736,1.526.5442,2.9936.041,4.4266.99.9987.6614,1.813,1.1444,3.0309.6371,2.84-1.1829,2.4111-5.5962,1.8466-8.0136-.6111-2.6168-2.9515-4.8543-5.7652-3.9553-1.2768.408-.7311,2.4274.5558,2.0162,2.7415-.876,3.3274,2.673,3.41,4.5471.0452,1.0324.4392,3.9052-1.8173,3.1022-.3968-.1412-.7878-.6-1.2077-.7751-1.0477-.4369-2.5784.04-3.5033-.4513-1.4788-.7861-.76-4.9836-.75-6.371a1.046,1.046,0,0,0-2.0908,0Z"/><path class="cls-4" d="M287.76,135.0111c2.3332-.81,4.046,1.0435,4.8089,2.9729.5514,1.3945.8392,1.7109-.2708,2.5707-1.3345,1.0337-2.8021.1861-4.257.5663-2.6165.6837-1.8886,3.9533-3.2682,5.7233-1.06,1.36-3.2923,2.2089-2.8472,4.254.4293,1.9723,3.4508,4.0086,5.1232,4.9649,11.4724,6.56,11.0912-16.35,3.1461-13.7782-1.2748.4126-.73,2.4322.5559,2.0162,3.2516-1.0524,3.0708,3.9953,2.969,5.4586-.1484,2.1323-.521,5.6468-3.96,5.2152-1.4476-.1816-2.9828-1.5781-4.0287-2.5246-1.4828-1.342-1.8457-1.65-.5043-3.219.8952-1.0474,2.0951-1.6892,2.6079-3.0567.478-1.2743-.1723-2.1719,1.2994-3.0027.673-.38,2.6751-.06,3.4536-.1636,3.5977-.479,3.0719-2.737,2.004-5.7331-1.1258-3.1581-3.9912-5.46-7.3876-4.28-1.2632.4388-.72,2.4593.5558,2.0161Z"/><path class="cls-4" d="M272.8221,147.7209c.1193-.6209-.3027-2.6365.0417-3.0236.6469-.727,2.6835.8775,3.3611,1.1269,2.223.8181,2.6185-2.2883,4.9506-1.3773,1.2539.49,1.7973-1.5312.5558-2.0162a4.0631,4.0631,0,0,0-3.6948.3062c-.3658.2348-.8532,1.0051-1.21,1.0461a12.7731,12.7731,0,0,1-2.1409-.9824c-1.1329-.3881-2.37-.64-3.2725.3232-1.1229,1.1991-.3374,2.64-.6068,4.0413-.2527,1.3147,1.7621,1.8778,2.0162.5558Z"/><path class="cls-4" d="M281.967,138.1655a2.1846,2.1846,0,0,1,3.8066-.9862c.9338.9724,2.411-.5073,1.4784-1.4784a4.29,4.29,0,0,0-7.3012,1.9088,1.0463,1.0463,0,0,0,2.0162.5558Z"/><path class="cls-4" d="M278.2606,129.2448a3.2645,3.2645,0,0,1,.2392-2.0374c.0984-.1291.4474-.3894.59-.2567.9852.9145,2.4672-.5606,1.4784-1.4784a2.475,2.475,0,0,0-3.3112.0342c-1.0936.9114-1.1566,2.4253-1.0877,3.7383.07,1.3386,2.1616,1.3469,2.0909,0Z"/><path class="cls-4" d="M287.879,150.2817a3.2159,3.2159,0,0,1,1.3479,1.0008c.0849.1574.0472.2068.0685.3695.0241.1844-.1878.1168.0208.1618-1.312-.2827-1.8726,1.7324-.5558,2.0161a2.24,2.24,0,0,0,2.6471-2.2284c.055-1.5135-1.2918-2.478-2.4732-3.1252s-2.237,1.158-1.0553,1.8054Z"/><path class="cls-4" d="M274.4086,133.9539a34.28,34.28,0,0,0-4.5828-.9617c-1.316-.1836-1.8849,1.8307-.5559,2.0162a34.2658,34.2658,0,0,1,4.5829.9617,1.0463,1.0463,0,0,0,.5558-2.0162Z"/><path class="cls-4" d="M261.1474,137.63a2.7738,2.7738,0,0,0,1.6823,3.4818,10.2742,10.2742,0,0,0,5.1966.5571c1.3234-.1441,1.3381-2.2366,0-2.0909-.8454.0921-5.5492.3239-4.8628-1.3922.5-1.2492-1.5217-1.7919-2.0161-.5558Z"/><path class="cls-4" d="M4.1626,35.5743c4.0608,35.1965,9.6841,70.185,15.8092,105.0747q2.2617,12.8834,4.5942,25.754,1.1007,6.0971,2.2081,12.1927c.5044,2.7792.4141,7.6538,2.5306,9.8455,1.6752,1.7347,4.1353,1.0614,6.2206.6626,4.2838-.8191,8.5388-1.8027,12.7869-2.7875,8.0773-1.8724,16.1305-3.8633,24.2733-5.4382a137.0869,137.0869,0,0,1,29.3-2.8367c7.9991.19,16.0431.8629,23.4443-2.7637,1.2082-.592.15-2.3958-1.0552-1.8054-7.0175,3.4386-14.8259,2.6625-22.3891,2.4782a126.4429,126.4429,0,0,0-22.1577,1.57c-7.5336,1.1493-14.9786,2.8087-22.3971,4.5366-3.6178.8427-7.2308,1.7059-10.8509,2.5387-3.8483.8852-8.201,2.4448-12.1507,2.6171-4.3722.1908-4.2551-2.1052-4.8007-5.1091q-.492-2.7091-.9836-5.4182-1.1061-6.096-2.2068-12.193-2.2-12.1952-4.35-24.3991c-2.8168-16.0454-5.5324-32.1092-8.0364-48.2066-2.9122-18.722-5.5264-37.4895-7.6981-56.3123-.1524-1.3211-2.245-1.3365-2.0908,0Z"/><path class="cls-4" d="M147.5506,172.5l11.9707-2.2337c1.321-.2465.7615-2.262-.5558-2.0162l-11.9707,2.2337c-1.321.2465-.7615,2.262.5558,2.0162Z"/><path class="cls-4" d="M4.9115,36.3791c13.91,2.0474,27.36-1.719,40.5075-5.9338A301.9313,301.9313,0,0,1,88.7731,19.61c31.1079-5.1146,62.7487-7.5645,94.0766-10.9948l53.3431-5.841-1.0454-1.0454c1.189,10.7325.152,21.496.15,32.256A277.3717,277.3717,0,0,0,237.4009,66.99c2.5636,21.411,7.0646,42.52,11.5783,63.5863.2818,1.315,2.2978.7585,2.0162-.5559-4.5682-21.3207-9.1517-42.6915-11.6618-64.3727a275.0981,275.0981,0,0,1-1.9452-31.6633c.0017-10.76,1.0389-21.5231-.15-32.256-.0569-.5128-.435-1.1122-1.0455-1.0454L142.6692,10.9239C113.1768,14.1532,83.2,16.4953,54.71,25.2826,38.7653,30.2,22.4758,36.8663,5.4674,34.3629c-1.3163-.1937-1.8843,1.8206-.5559,2.0162Z"/><path class="cls-4" d="M38.174,47.48q8.9372,54.1269,20.5914,107.7526c.2856,1.3142,2.3017.758,2.0161-.5559Q49.1307,101.0682,40.19,46.9239c-.2186-1.3244-2.2338-.7626-2.0161.5558Z"/><path class="cls-4" d="M50.0973,27.8664c3.5543,5.8382,8.241,10.8727,11.8159,16.7062a96.4261,96.4261,0,0,1,8.5707,18.362c2.0977,5.9442,3.7548,12.0311,5.3137,18.1351.44,1.7241.967,9.0475,4.4224,6.95a1.0829,1.0829,0,0,0,.48-1.1806l-.05-.263c-.25-1.32-2.2654-.7613-2.0161.5559l.05.263.48-1.1806c.7894-.4793-3.3558-13.2677-3.7977-14.8016a139.9169,139.9169,0,0,0-5.4495-15.7167A88.8536,88.8536,0,0,0,62.38,41.4062c-3.2945-5.0111-7.3555-9.4674-10.4771-14.5951-.6987-1.1477-2.5076-.0982-1.8054,1.0553Z"/><path class="cls-4" d="M101.5167,21.5469C106.68,24.691,109.62,31.648,112.3781,36.8023A125.4883,125.4883,0,0,0,122.03,52.9466C128.9466,62.22,137.5928,70.2218,142.531,80.85c.5664,1.2191,2.3693.1585,1.8053-1.0552-5.2689-11.34-14.7429-19.6523-21.84-29.7489-3.7746-5.37-6.6293-11.2834-9.7836-17.02-2.6029-4.734-5.3719-10.3807-10.1406-13.2842-1.1523-.7016-2.2041,1.1058-1.0552,1.8054Z"/><path class="cls-4" d="M116.1379,19.52c8.5974,2.1187,13.3734,10.08,19.4164,15.8363.9742.9281,2.455-.5481,1.4784-1.4784-6.349-6.0482-11.3129-14.15-20.339-16.3741-1.3063-.3219-1.8637,1.6939-.5558,2.0162Z"/><path class="cls-4" d="M158.8164,66.1423c4.5908,2.9048,9.9154,1.9169,14.9993,1.1644a155.32,155.32,0,0,1,22.8406-1.855c14.1778-.0045,27.6312-1.3074,41.0494-6.2009,1.254-.4573.7125-2.4787-.5558-2.0162-12.7449,4.648-25.6447,6.1453-39.14,6.1288a145.7161,145.7161,0,0,0-19.9179,1.2338c-5.7844.7856-12.9047,3.1028-18.22-.26-1.14-.7216-2.1906,1.087-1.0553,1.8053Z"/><path class="cls-4" d="M159.18,65.57a8.3783,8.3783,0,0,1,4.781-4.7974c1.8694-.7148,3.5008-.3485,5.3835-.5947,2.3831-.3116,3.663-1.8959,5.1319-3.6259,5.7478-6.7693,14.7533-5.2269,22.6679-5.3159,2.3559-.0265,3.921-.4336,5.5063-2.2541,2.641-3.0329,5.147-5.4236,8.8918-7.0707,7.3794-3.2458,15.6234-2.849,23.4947-2.4836,1.3452.0624,1.342-2.0285,0-2.0908-8.1237-.3772-16.5554-.7-24.1854,2.5909a23.6514,23.6514,0,0,0-7.6835,5.1624c-1.6678,1.7273-2.7491,3.7088-5.3349,4.0519-2.4382.3236-5.1256-.1135-7.5814-.138-7.1716-.0717-13.0553,1.3149-17.8577,6.824-2.6787,3.073-5.99,1.6412-9.3827,3.0363a10.6643,10.6643,0,0,0-5.8476,6.15c-.5063,1.246,1.5154,1.7881,2.0161.5558Z"/><path class="cls-4" d="M23.58,137.0035c1.5356-2.0368,3.8528-6.5431,6.3015-6.9253,1.6728-.2611,2.1194.4836,3.3868,1.393A18.5267,18.5267,0,0,0,36,133.1406a17.4974,17.4974,0,0,0,10.7078,1.4966c2.6793-.4891,5.49-2.1839,8.29-1.5784,2.5735.5565,3.2848,2.7468,5.2628,4.064,3.481,2.3182,9.9825-2.7941,12.3682.5972l.6248-1.5357c-9.1588,2.3318-18.2482,5.2746-27.77,5.3476-8.129.0622-15.5329,1.0239-22.9051,4.6658-1.2064.5959-.1482,2.4,1.0553,1.8053a41.54,41.54,0,0,1,12.0847-3.8978c4.5387-.6987,9.109-.3032,13.6717-.5767,8.2661-.4955,16.437-3.2957,24.42-5.3281a1.0527,1.0527,0,0,0,.6248-1.5357c-3.1347-4.4559-7.3463-.3248-11.38-.7628-2.6131-.2838-3.894-3.4973-6.3123-4.4741-2.2366-.9034-4.4654-.5275-6.7179.1236-3.48,1.006-6.6,1.6666-10.2095.7758-3.2851-.8108-5.1891-3.2926-8.131-4.5043-4.4979-1.8526-7.7764,5.2971-9.9088,8.1253-.81,1.0746,1.0044,2.1176,1.8054,1.0553Z"/><path class="cls-4" d="M116.9389,176.42c-9.6956-.8643-19.603-6.53-22.82-16.1668A19.6846,19.6846,0,0,1,104.71,135.7792c9.727-4.57,21.196-6.7409,31.6748-8.83a250.3992,250.3992,0,0,1,34.9279-4.3926c1.3379-.0751,1.3466-2.1664,0-2.0908a253.6048,253.6048,0,0,0-40.63,5.55c-6.4144,1.4208-12.7814,3.0859-19.0587,5.0264-5.2589,1.6258-10.7523,3.5285-14.7353,7.509-6.37,6.3657-7.5618,16.7724-3.7855,24.7768,4.3162,9.1488,14.0772,14.3131,23.8356,15.1831,1.34.1194,1.3318-1.9721,0-2.0909Z"/><path class="cls-4" d="M113.7407,71.6116a8.2531,8.2531,0,0,1,3.2359-2.5167c1.2954-.4337,2.5786-.2325,3.8823-.62a13.8677,13.8677,0,0,0,2.3314-1.1188c.7362-.3794,1.5115-1.1184,2.3535-.6642a2.0243,2.0243,0,0,1-.023,3.1575c-1.0593.8019-.0186,2.6183,1.0553,1.8054,2.3488-1.7781,2.7054-7.4776-1.2178-7.313a7.0689,7.0689,0,0,0-2.8825,1.0221,10.793,10.793,0,0,1-4.8487,1.2914c-2.4423.1743-3.7322,1.8279-5.3648,3.4778a1.046,1.046,0,0,0,1.4784,1.4784Z"/><path class="cls-4" d="M119.0169,78.457a15.5355,15.5355,0,0,0,4.4458-1.9631c1.3235-.8793,2.2593-2.2569,3.5445-3.1253,2.8237-1.9077,6.76,1.025,8.2869,3.323,1.4932,2.2478.8419,3.21.0271,5.3753.0842-.2235-.9451,2.2542-.6695,2.0475l-4.0153.2326a8.9258,8.9258,0,0,1-.7149-1.9558,6.2852,6.2852,0,0,0-.3893-1.2418,2.4849,2.4849,0,0,0-1.6994-1.1288,43.2108,43.2108,0,0,1-5.3348-2.0133,12.24,12.24,0,0,0-4.1389-1.2679c-1.3348-.1509-1.3241,1.9411,0,2.0909,1.9512.2206,3.5259,1.2894,5.2461,2.1186,1.0611.5115,2.4555.5725,3.4225,1.0849,1.4882.7887,1.5918,3.7439,3.1143,5.0195a4.3622,4.3622,0,0,0,4.2163.8351c2.1681-.8105,2.5907-3.846,3.4378-5.6447,2.3162-4.9178-2.0914-8.8228-6.0295-10.9914-1.7005-.9364-3.1174-1.3883-4.918-.3646a15.4066,15.4066,0,0,0-2.6689,2.3488,13.7177,13.7177,0,0,1-5.7186,3.2044,1.0463,1.0463,0,0,0,.5558,2.0161Z"/><path class="cls-4" d="M130.6244,72.8544c-2.1986,1.0514-5.097,2.2577-6.3581,4.4915a2.0126,2.0126,0,0,0,.0634,2.5121c.9.8618,2.8877.6051,4.0108.6773,2.1708.14,5,.1513,5.5108-2.54.3515-1.8506-.6967-4.814-2.8126-4.99-1.3409-.1114-1.3336,1.98,0,2.0908.31.0257.6695,1.4071.7172,1.6349a1.3956,1.3956,0,0,1-1.1977,1.7752,10.44,10.44,0,0,1-3.9733-.1752.6013.6013,0,0,0-.5132.07,3.3049,3.3049,0,0,1,.674-.8447A7.6434,7.6434,0,0,1,128.2135,76.5c1.12-.6782,2.2859-1.2761,3.4662-1.84,1.2134-.58.1539-2.3835-1.0553-1.8054Z"/><path class="cls-4" d="M100.7177,61.1163l3.3773,1.35.241,1.5989c.0575.408.06.823.1286,1.23a37.7836,37.7836,0,0,0,1.4771,5.3444c1.0312,3.1921,2.0152,6.4049,3.1361,9.5668,1.2007,3.3866,2.9954,11.4716,7.7362,10.4905,1.309-.2709,3.1808-1.457,4.5025-1.32,1.905.1979,2.5,2.7707,3.3013,4.1432a26.2075,26.2075,0,0,0,2.519,3.5492,2.8572,2.8572,0,0,1,1.0073,2.2334c.1507,2.1311.8485,2.81,2.7517,3.9319,3.5535,2.0945,8.8037,4.6987,7.26,9.7216-.3961,1.2891,1.6215,1.84,2.0162.5559a7.7444,7.7444,0,0,0-1.587-7.3445c-2.1956-2.7074-7.0857-3.7371-8.0042-7.0381a7.6035,7.6035,0,0,0-.356-1.6626c-.9953-1.9663-2.9789-3.52-4.0853-5.5129-1.1524-2.0757-1.559-4.9068-4.4288-4.7887-1.8672.0768-4.9761,2.2322-6.7533.9675-1.3757-.9791-2.4669-4.7943-3.0279-6.2241-1.5176-3.8679-2.6951-7.8736-3.9717-11.8252-1.32-4.0859-1.3154-13.8707-8.2954-10.7727-1.2274.5448-.1649,2.347,1.0553,1.8054Z"/><path class="cls-4" d="M138.0358,112.269c.1731,2.2137-.6066,4.4723-.1064,6.6647a8.9518,8.9518,0,0,0,2.7114,4.6725,2.8245,2.8245,0,0,0,3.6015.1785c.8907-.6.5117-.8187,1.608-.0448a20.8184,20.8184,0,0,0,2.9372,1.7808c1.2049.5867,2.2661-1.2158,1.0553-1.8054a16.1532,16.1532,0,0,1-3.135-1.9484,5.42,5.42,0,0,0-1.2026-.9678,1.803,1.803,0,0,0-1.92.4051c-.9084.7966-.339,1.9025-2.3535-.1147a6.3757,6.3757,0,0,1-1.286-2.7116c-.399-1.9842.3382-4.1.1811-6.1089-.1042-1.3326-2.1959-1.3439-2.0908,0Z"/><path class="cls-4" d="M125.6057,81.5544c3.6058,3.5654,6.2137,7.8366,8.9522,12.0655,1.6937,2.6156,4.3658,8.0066,7.4805,9.1513,2.5721.9453,5.786-1.9447,7.1929-3.8143,1.0912-1.45,1.34-2.6771,3.4743-3.461a18.93,18.93,0,0,1,3.0566-.53c.9957-.1843,2.008-.7406,2.9789-.8739,1.7007-.2336,3.1559.6671,4.51,1.5592a11.5915,11.5915,0,0,1,1.7972,1.3793q1.6355.9482-.4007,1.1286c-1.5611.7869-2.6769-.217-4.204-.6412a8.26,8.26,0,0,0-4.65-.1416c-3.487,1.0262-7.1542,4.4965-9.264,7.32-2.5942,3.4711.93,6.7864,2.1347,10.371.7031,2.0918.7245,4.7935,1.725,6.7287.58,1.1226,2.0217,1.2579,2.5512,2.3054.6071,1.2011,2.4115.1439,1.8054-1.0553a3.7832,3.7832,0,0,0-.9015-1.1042,6.031,6.031,0,0,1-1.9153-2.7623c-.7763-2.2882-1.1775-4.6707-2.0884-6.935q-.6148-1.5284-1.3548-3c-1.028-2.0548-1.2884-2.2334.4827-4.2a24.9177,24.9177,0,0,1,5.7764-4.9187c3.299-1.88,5.4989-.0527,8.7376.579,1.3409.2615,2.9218.34,3.9955-.68,2.0286-1.9269-.382-4.0771-1.9345-5.2934a14.8579,14.8579,0,0,0-4.6463-2.5916c-2.0776-.6352-3.6429.4316-5.691.8108-1.7605.3259-3.6043.3886-5.0964,1.5106-1.81,1.3613-2.4466,3.6575-4.3041,5.0056-2.9552,2.1446-4.603-.0607-6.3421-2.3723-1.5415-2.0489-2.9044-4.2266-4.288-6.3826a60.3379,60.3379,0,0,0-8.0916-10.635c-.9578-.947-2.4371.5306-1.4785,1.4785Z"/><path class="cls-4" d="M105.1387,73.5942c-.7324,1.4876-3.2829,3.1614-1.6523,4.9594a3.3063,3.3063,0,0,0,2.5186.8413c1.4664.0371,2.938.0064,4.4049.01a1.0461,1.0461,0,0,0,0-2.0909c-1.5261-.0033-3.0975.1008-4.6189-.0134a1.3074,1.3074,0,0,1-.4726-.0562q-.4375.0286-.1354-.1955c.0217-.1944.5126-.5352.6522-.6975a7.9923,7.9923,0,0,0,1.1089-1.7016c.5922-1.203-1.21-2.2638-1.8054-1.0553Z"/><path class="cls-4" d="M106.2033,75.262l1.1261-.7326a1.0687,1.0687,0,0,0,.375-1.43,1.0564,1.0564,0,0,0-1.43-.375l-1.1261.7326a1.0687,1.0687,0,0,0-.375,1.43,1.0564,1.0564,0,0,0,1.43.375Z"/><path class="cls-4" d="M106.7429,78.5106c-4.5705,3.8551-4.3356,9.7308-1.4508,14.4686.7138,1.1723,1.4124,2.2357,2.9062,1.5792,2.1685-.9531,1.8519-4.0768,3.8578-5.1,1.1988-.6118.142-2.4164-1.0553-1.8054a4.5036,4.5036,0,0,0-1.9528,1.9823c-.2528.4545-.4267.9543-.6469,1.4245a7.938,7.938,0,0,1-.4161.8312q-.2643,1.4313-.645.431c-1.3494-.75-2.2436-4.5128-2.2359-5.8948a8.8659,8.8659,0,0,1,3.1172-6.4377c1.03-.8687-.4555-2.3413-1.4784-1.4785Z"/><path class="cls-4" d="M112.6552,88.9549c-1.0585,3.0788-1.7871,6.5713,1.047,8.9083a39.2876,39.2876,0,0,0,5.5126,3.2677,8.6944,8.6944,0,0,1,3.7078,3.2671c.4.7884.26,1.8424.6351,2.6692.777,1.7146,2.28,2.1409,3.5187,3.48,1.2209,1.3195,1.8031,3.046,3.3212,4.1079,1.5483,1.0831,5.7049,2.0238,7.1276.3611a1.0587,1.0587,0,0,0,0-1.4784l-.1826-.15a1.0616,1.0616,0,0,0-1.4784,0l-.1116.1314c-.8662,1.02.6058,2.5059,1.4785,1.4784l.1115-.1313h-1.4784l.1825.15v-1.4784a14.7876,14.7876,0,0,1-1.9085.1063,4.2209,4.2209,0,0,1-3.88-2.173,24.4651,24.4651,0,0,0-1.7036-2.4023c-1.17-1.2408-2.5387-1.69-3.2693-3.5072a24.4432,24.4432,0,0,0-.7507-2.78c-1.0675-1.9933-3.4121-2.9673-5.27-4.031a22.5858,22.5858,0,0,1-3.7832-2.18c-2.5323-2.262-1.6873-4.5062-.81-7.0588.4384-1.2751-1.5806-1.8228-2.0162-.5558Z"/><path class="cls-4" d="M122.7275,106.6432c-1.92,1.1338-2.5619,2.4247-3.3638,4.365-.9417,2.2784-3.3535,3.0454-4.488,5.35a7.3728,7.3728,0,0,0-.28,5.8023c1.2611,3.4123,5.06,4.4233,6.2243,7.9023.4248,1.27,2.4447.7253,2.0161-.5558a9.7475,9.7475,0,0,0-2.4434-4.04c-2.1789-2.1608-5.2005-3.9019-3.9061-7.5889.8363-2.3818,3.171-2.4428,4.3865-4.1422,1.2254-1.7132.6005-3.9245,2.91-5.2879a1.0462,1.0462,0,0,0-1.0552-1.8054Z"/><path class="cls-4" d="M129.9859,114.47c-.5955,1.4942-2.8665,2.5043-3.9872,3.7a9.5724,9.5724,0,0,0-2.1724,3.4572,7.8728,7.8728,0,0,0,1.9413,7.9412c.9149.9906,2.3906-.4908,1.4784-1.4784-2.6458-2.8647-1.8946-6.514.8036-9.0091,1.5033-1.39,3.1668-2.0843,3.9524-4.0555.4982-1.25-1.5232-1.7927-2.0161-.5558Z"/><path class="cls-4" d="M100.2673,58.14c-2.5079-1.6823-.1142-4.3182,1.7833-4.7723,2.1472-.5138,5.9739.8071,6.844,2.8976,1.1139,2.6764.1391,6.66.5423,9.5245.308,2.1881.6793,4.2787,2.0719,6.0409a75.5422,75.5422,0,0,0,6.4337,6.4392c.9586.9462,2.4379-.5313,1.4785-1.4785-2.0712-2.0445-5.3645-4.4174-6.8144-6.9744-1.66-2.9276-1.3074-7.036-1.3362-10.2476-.0316-3.5142-.72-6.6959-4.4871-7.702-2.4626-.6577-7.1985-1.6066-8.9566.9072A5.5587,5.5587,0,0,0,99.212,59.945c1.1206.7516,2.1683-1.0588,1.0553-1.8053Z"/><path class="cls-4" d="M100.956,75.9013a8.12,8.12,0,0,0,3.3672,4.8019c1.1128.7625,2.16-1.0486,1.0552-1.8053a5.9392,5.9392,0,0,1-2.4062-3.5524c-.3188-1.3066-2.3355-.7533-2.0162.5558Z"/><path class="cls-4" d="M92.6373,42.8436c-1.0531-1.2748-4.2729-4.3153-5.1243-1.076-.3436,1.3076.77,1.9923.8213,3,.0805,1.59-1.1751,3.0762-1.0124,4.82.2771,2.9692,2.4824,7.4525,5.3976,8.6683a3.9423,3.9423,0,0,0,5.3785-2.1506c.5079-1.2452-1.5139-1.7872-2.0161-.5558-1.1584,2.84-4.6372-1.2032-5.3555-2.5389-1.4575-2.71-1.2982-4.2253-.4-7.1532a3.5047,3.5047,0,0,0,.2716-1.3949c-.1013-1.2164-.879-1.8845.5612-.1411.8577,1.0382,2.33-.4482,1.4785-1.4784Z"/><path class="cls-4" d="M93.0216,43.7472c1.2073.0064,3.602.5237,4.6841-.2007.51-.3413,1.1609-2.0155,1.632-2.0692.5466-.0622.84,1.9461.8424,2.1262.0043.3426-.3447.7141-.3075,1.0893.1507,1.5226,1.8984,2.5432,2.2,4.1659a1.0574,1.0574,0,0,0,1.0081.7675c2.2993.0872,4.536-1.1724,6.6405.31a10.4313,10.4313,0,0,1,1.9155,2.0146l1.1684,1.55q1.5984,1.4373-.7022,2.89c-1.186-.635-2.2433,1.1693-1.0553,1.8053,3.5836,1.9185,6.0448-1.6549,4.1844-4.8383A17.4381,17.4381,0,0,0,110.548,47.9c-2.5845-1.7607-4.6353-.2572-7.4673-.3647l1.0081.7675a9.19,9.19,0,0,0-1.1916-2.9654c-.93-1.7-.45-.5672.0281-1.9738.4879-1.4367,1.271-2.768-.2284-3.995a3.44,3.44,0,0,0-3.5167-.153,10.5628,10.5628,0,0,0-2.2214,1.6237c-1.25.8978-2.1857.8264-3.9372.8171a1.046,1.046,0,0,0,0,2.0908Z"/><path class="cls-4" d="M87.847,50.8641a12.3467,12.3467,0,0,0-5.6329,4.4779c-1.1281,1.65-2.6711,4.872-1.9215,6.92.7879,2.1525,3.83,1.14,5.2783.3786,2.8587-1.5036,1.3625-5.31,4.7586-6.2852a1.0463,1.0463,0,0,0-.5558-2.0161,5.8164,5.8164,0,0,0-3.2352,2.1956c-1.1154,1.5614-.7838,4.0518-2.9045,4.6448a1.8318,1.8318,0,0,1-.8666.1674q-.7549.3156-.4612-.4053a3.4536,3.4536,0,0,1,.2318-1.3146,9.8692,9.8692,0,0,1,1.1592-2.7331A10.032,10.032,0,0,1,88.4028,52.88c1.2261-.5067.6887-2.5305-.5558-2.0161Z"/><path class="cls-4" d="M89.02,58.3309a9.2967,9.2967,0,0,1,2.834.7992c.6966.3427,1.2595,1.0158.1914,1.3793-.2269.0772-.823.1693-.9764.0067-.2027-.2146-.2326-.9756-.3-1.27a5.7143,5.7143,0,0,0-1.0931-2.3854c-.8352-1.0541-2.3058.4342-1.4785,1.4785.8944,1.1289.3633,3.13,1.6461,4.0008a3.7026,3.7026,0,0,0,4.162-.6416,2.5585,2.5585,0,0,0-.017-3.6521,8.1217,8.1217,0,0,0-4.4129-1.732c-1.3159-.1822-1.885,1.8321-.5559,2.0161Z"/><path class="cls-4" d="M90.3408,62.8422c.3717,1.7164.4923,3.9352,1.8726,5.1945,1.2546,1.1446,3.51,1.3165,5.1219,1.2016,4.56-.325,3.7475-5.5988,3.9436-8.891.08-1.344-2.0111-1.3393-2.0908,0l-.231,3.8774c-.0982,1.6492-.2232,2.9236-2.1975,2.9382-1.3911.01-3.0163-.1-3.6446-1.5168a17.9812,17.9812,0,0,1-.7581-3.36c-.2847-1.3144-2.3008-.7582-2.0161.5558Z"/><path class="cls-4" d="M89.5328,61.7042c-1.6268.081-3.5881.348-4.2814,2.0609-.7676,1.8963.99,3.3736,1.5482,5.0317l.48-1.1806c-1.7238.7391-4.2947.6789-5.05,2.8118a2.5691,2.5691,0,0,0,1.4513,3.1454,11.7224,11.7224,0,0,0,3.7014.815c1.5556.2456,3.5021.9589,5.0535.7914,2.105-.2272,1.94-2.152,2.2724-3.9954l-1.0081.7675c.378.0056,4.9052.1364,4.8963.0595l1.0454-1.0454c-1.54.1322-4.59-.218-5.4137,1.5667-.713,1.544.66,2.3282,1.8746,2.7878,2.0548.7773,5.5043.9376,7.36-.4381a3.0587,3.0587,0,0,0,1.2477-2.2058c.489-2.4939.617-4.514,2.1953-6.6545.7992-1.084-1.0145-2.1279-1.8054-1.0553-1.5421,2.0915-1.7317,3.8487-2.4107,6.2177a2.76,2.76,0,0,1-1.1211,2.2875,8.4846,8.4846,0,0,1-4.3249.026q-1.2467-.337.4555-.2745l1.9425-.1667c.512-.0439,1.1148-.4458,1.0454-1.0454-.332-2.8669-5.0327-2.1214-6.9871-2.15a1.0541,1.0541,0,0,0-1.0081.7675c-.5942,3.2923-3.5857,1.9683-6.1184,1.5282-3.1931-.555.3318-2.1223,1.7613-2.7352a1.0448,1.0448,0,0,0,.48-1.1806c-.5771-1.7135-2.6306-4.2793.7171-4.446,1.3392-.0666,1.3471-2.1579,0-2.0908Z"/><path class="cls-4" d="M99.8232,47.5215c-.041-.0539-.1214-.2515-.0653-.0774L98.75,48.7674l-.4479-.1624A1.0454,1.0454,0,0,0,99.78,47.1266a1.4526,1.4526,0,0,0-1.0305-.45A1.052,1.052,0,0,0,97.7417,48a1.8919,1.8919,0,0,0,.2762.5769,1.08,1.08,0,0,0,1.43.375,1.0523,1.0523,0,0,0,.375-1.43Z"/><path class="cls-4" d="M91.7562,47.9456l-.0217-.0465v1.0552l.0249-.05-.6248.48.05-.0109a1.0457,1.0457,0,0,0-.5559-2.0162,1.076,1.076,0,0,0-.7.5416,1.1527,1.1527,0,0,0,.0217,1.1018,1.0542,1.0542,0,0,0,1.43.3751,1.0693,1.0693,0,0,0,.375-1.43Z"/><path class="cls-4" d="M95.291,52.668a7.9075,7.9075,0,0,1-.5664-2.704,1.6517,1.6517,0,0,1,.0978-.664q.5007-.6054.0275-.2628a1.99,1.99,0,0,1,.8224.63,2.0292,2.0292,0,0,1,.1384,2.0767q-.19.4144-.0117.1377l-.3394.1048-.6789.21q-.64.144-.081.1036l.6248.48a2.6611,2.6611,0,0,1-.0605-1.178l-.48.6248c.33-.2368,1.2-.1243,1.5913-.1454,1.3384-.072,1.3468-2.1633,0-2.0908-1.0341.0556-2.6788-.16-3.127,1.0556a3.5325,3.5325,0,0,0,.4347,3.0006c.7246.71,2.1331.1005,2.9024-.2309a2.7629,2.7629,0,0,0,1.4411-2.3326,3.7482,3.7482,0,0,0-.67-3.0473c-.555-.6965-1.7188-1.6926-2.6748-1.5913-1.0535.1116-1.7479,1.2922-1.9587,2.2223a8.0868,8.0868,0,0,0,.5525,4.1564c.4255,1.2693,2.4455.7251,2.0162-.5558Z"/><path class="cls-4" d="M117.2928,69.523q-.1821-.4237-.0754.1044a1.62,1.62,0,0,1-.0795.5733,2.7635,2.7635,0,0,1-.573,1.0529,5.4549,5.4549,0,0,1-2.21,1.4142c-1.2363.49-.6975,2.5125.5558,2.0161a7.2066,7.2066,0,0,0,3.7285-2.7488c.6387-1.0488,1.1129-2.9015.1326-3.8905a1.046,1.046,0,0,0-1.4785,1.4784Z"/><path class="cls-4" d="M117.192,72.2983a6.929,6.929,0,0,0,1.4252,3.2287,4.5728,4.5728,0,0,0,2.9827,1.43c1.3163.2135,1.8827-1.8009.5558-2.0162a2.8741,2.8741,0,0,1-2.03-.8622,5.3928,5.3928,0,0,1-.9179-2.3366c-.2248-1.3238-2.24-.7625-2.0162.5558Z"/><path class="cls-4" d="M119.3823,71.37a14.9966,14.9966,0,0,1,3.1273-.1061,2.2127,2.2127,0,0,1,1.3136.3019,6.4883,6.4883,0,0,1,.7141.9019c.8648,1.0328,2.3371-.4529,1.4785-1.4785-.8337-.9957-1.2259-1.5569-2.6-1.726a17.3879,17.3879,0,0,0-4.5892.0906c-1.3269.1866-.7623,2.2015.5558,2.0162Z"/><path class="cls-4" d="M119.8721,71.7243c-.02-.062.0224-.1548.0239-.217.0025-.101.181-.1006-.019-.0431.167-.048-.1158.0416-.1385.0491l-.0994.0322q-.4566.1077.5048.1986l.2689.4613.0215.116-.1427.5277c.0724-.151-.0338.0168.04-.0848.0563-.078.1249-.1517.1878-.224.1281-.1472.2623-.2885.4-.427L119.44,70.6349a3.7418,3.7418,0,0,0-.4494.61,1.0561,1.0561,0,0,0,.6248,1.5357,1.38,1.38,0,0,0,.7579-.0033,1.0457,1.0457,0,0,0-.5558-2.0162l-.1006.0286h.5558l-.1015-.0252.6248,1.5357c.0131-.0229.1471-.2143.1224-.1865a1.07,1.07,0,0,0,0-1.4784,1.0594,1.0594,0,0,0-1.4784,0,3.7552,3.7552,0,0,0-1.0593,1.4086,1.2951,1.2951,0,0,0,1.2756,1.6073c1.2439,0,2.6611-1.1453,2.2318-2.4823a1.068,1.068,0,0,0-1.286-.73,1.0566,1.0566,0,0,0-.73,1.286Z"/><path class="cls-4" d="M122.7465,201.2551c1.41-1.0783,2.1487-2.5013,3.7554-3.3978a26.4858,26.4858,0,0,1,5.4813-2.26L130.53,193.1a19.36,19.36,0,0,1-4.0381,2.7841,34.2639,34.2639,0,0,0-3.9,2.8828c-1.4722,1.241.6507,3.3455,2.1129,2.113,2.4816-2.0918,5.6992-3.3214,7.9384-5.6669a1.5057,1.5057,0,0,0-1.4536-2.4972A30.4872,30.4872,0,0,0,125.58,194.96a13.9232,13.9232,0,0,0-2.3305,1.4277c-.7946.646-1.2159,1.68-2.0107,2.2875-1.5072,1.1525-.02,3.749,1.5081,2.58Z"/><path class="cls-4" d="M150.2514,197.7416h1.1834a1.4941,1.4941,0,1,0,0-2.9881h-1.1834a1.4941,1.4941,0,1,0,0,2.9881Z"/><path class="cls-4" d="M148.0439,203.9236q-.55.075-.16.0937a1.4972,1.4972,0,0,0,1.4941-1.4941,1.5382,1.5382,0,0,0-1.4941-1.494,2.3041,2.3041,0,0,0-1.3479.3142,1.4943,1.4943,0,0,0,1.5081,2.58Z"/><path class="cls-4" d="M145.9587,169.6375c.0613-5.2848,1.4513-10.7,2.3977-15.8981.5872-3.225,1.7095-4.8512,4.9462-6.1029,2.3219-.8979,4.9384-1.242,7.32-1.959,1.6205-.4878,3.6074-1.0426,3.6258-3.0661a2.2234,2.2234,0,0,0-2.5191-2.2866c-1.9058.1429-1.9213,3.1322,0,2.9881a1.8121,1.8121,0,0,0-2.7145-.2991l-3.2534.8706a47.0325,47.0325,0,0,0-4.6621,1.2825c-1.8189.6961-3.419,1.4728-4.4445,3.2324-1.5444,2.65-1.6027,6.9277-2.1321,9.91a69.7,69.7,0,0,0-1.5524,11.3277,1.4949,1.4949,0,0,0,2.9881,0Z"/></g></svg>