<svg xmlns="http://www.w3.org/2000/svg" viewBox="0 0 1928 341"><defs><style>.cls-1{fill:#fb7d62;}</style></defs><title>filter-bg</title><g id="圖層_1" data-name="圖層 1"><path class="cls-1" d="M1925,325.88V135.86c0-20.0711,9.4765-90.8019-4.691-104.89-7.8818-7.8379-52.3935-4.24-63.8573-6.3768-31.1686-5.8089-62.4041-8.4618-93.9376-9.7515-122.1743-4.9966-244.4615,1.0318-366.6012,7.0592l-109.7857,5.4178c-151.4293,7.4729-303.3635,14.9346-454.3609-.2969C734.62,17.2224,637.38-1.9674,540.1644,6.8647c-90.5663,8.2279-183.1169,40.4526-270.3882,11.1609C253.537,12.5751,237.74,5.0335,221.0549,1.8867c-18.5057-3.49-37.4144-1.4476-56.0792.6027C130.1327,6.3169,24.0571-3.277,5.9022,34.525-4.4388,56.0572,5,113.2966,5,137.3671c0,33.5927-17.1922,171.29,13.1838,186.7284,15.0961,7.6724,62.465-17.2792,80.5556-19.5707,30.1312-3.8166,60.685-2.7222,90.8047.6416,63.2014,7.0584,125.6135,23.7939,189.0831,25.79,64.7251,2.0357,128.9828-11.2964,193.4906-17.7781,245.971-24.7152,493.7821,50.24,739.3976,21.1438,58.513-6.9315,116.49-19.7428,175.1775-24.2657Z"/></g></svg>