<svg id="圖層_1" data-name="圖層 1" xmlns="http://www.w3.org/2000/svg" viewBox="0 0 784.0336 172.3339"><defs><style>.cls-1{opacity:0.42;}.cls-2{fill:#343170;}.cls-3{opacity:0.44;}.cls-4{fill:#ee7960;}.cls-5{fill:#da3c42;}.cls-6{fill:#f2bfa0;}.cls-7{fill:#fef8f3;}</style></defs><title>hero</title><g class="cls-1"><path class="cls-2" d="M471.8566,154.847c-17.833.7513-35.621,1.75-53.4881,1.052-11.5343-.4506-22.6174-3.5854-33.92-5.3628-4.2149-.6628-9.4208-2.913-8.423-8.8687.9507-5.6747,5.6985-7.1588,10.8759-7.4435,11.1331-.6122,22.2747-1.1363,33.3859-2.031,2.5314-.2038,6.4471-.0643,4.5395-5.2155-6.5128-17.5861-3.4083-35.9239-3.4969-53.9514-.0668-13.5958,1.3385-27.1941,1.9083-40.7989.7865-18.7807,16.7609-30.3981,32.7387-23.689,7.89,3.3131,10.6662,9.8746,11.9755,17.77,1.5559,9.382-.432,18.7022.1519,28.0577.3319,5.3188,1.6844,6.4974,7.6459,6.0544,12.4808-.9276,24.0991-5.5589,36.4194-6.8356,7.5163-.7789,13.9622.9064,15.557,8.8115,1.46,7.2362-2.3667,12.6389-9.5047,15.5666-13.9986,5.7417-28.4163,5.1318-42.7991,2.6423-5.126-.8872-6.4376-.72-6.7516,5.144-.6108,11.4116,3.0158,22.84-.69,34.2563-1.6687,5.14,2.1564,4.8592,5.897,4.55,12.2421-1.0115,24.38-5.3906,36.8131-1.243,5.8508,1.9518,11.6775,4.2608,14.3067,10.2179,3.36,7.6129-1.3251,16.73-9.7761,17.7818C500.8423,153.1006,486.3191,153.73,471.8566,154.847Z"/></g><g class="cls-3"><path class="cls-4" d="M43.4027,97.1994c-3.88-.5532-6.8839-.904-9.8563-1.4319-2.0872-.3706-4.5366-.8074-4.1443-3.7045.2946-2.1748,1.67-4.3726,4.0955-4.1376,13.4338,1.3012,18.8831-6.9095,22.5675-17.9595,2.275-6.8232,7.8748-9.5742,14.46-7.1766,6.1633,2.2439,7.1879,7.42,4.6714,13.5039-2.0856,5.0426.7891,5.6893,4.9387,4.8769,7.4144-1.4517,14.8034-3.16,22.2863-4.0916,5.0021-.623,11.3319-1.2577,12.2909,5.7895.9609,7.0616-5.0171,8.4812-10.2471,8.5627-6.2329.0972-8.222,2.8394-8.7725,8.6711-.5943,6.2943-1.57,12.9367-5.5546,18.0509-4.3364,5.5656-1.9764,8.27,2.8635,11.1826,4.3957,2.6458,8.7327,5.5,11.7351,9.879,2.54,3.7048,2.4521,7.5641-.1442,10.9614-2.8376,3.7129-7.2346,2.7129-9.773.4244-13.4645-12.139-25.2176-10.1322-36.207,3.2772a7.23,7.23,0,0,1-3.7614,2.4459c-3.8433.7866-8.4776,4.7187-11.4226-.3826-2.538-4.3961,2.0863-6.8528,4.7878-9.49.8575-.8371,2.0028-1.3718,2.914-2.1628,4.27-3.7075,11.0284-7.4442,10.5152-12.5534-.5385-5.3622-8.3082-5.7588-13.42-7.445-7.2485-2.3912-10.73-8.9509-8.642-16.35C40.56,104.4829,41.98,101.1526,43.4027,97.1994ZM85.21,98.748c.3377-5.3156-2.925-3.5284-4.8916-3.5568-9.2306-.1335-17.8135,6.43-16.8074,14.1857.6228,4.8009,6.8325,5.79,11.0692,7.3368C76.7758,117.5153,85.19,102.3008,85.21,98.748Z"/></g><g class="cls-3"><path class="cls-4" d="M11.3155,68.9791c.9144-7.36,1.0013-14.7289,5.3484-21.0386,2.068-3.0016,4.0211-6.5314,8.4319-5.67,4.387.8572,9.4638,1.6574,10.4487,7.0762.7178,3.9488,2.397,3.9857,5.5562,3.26C64.4361,47.2435,88.6428,48.1,111.992,42.7452c6.34-1.4541,10.3938,2.0782,13.5687,6.9127,3.3318,5.0735,4.77,10.4629,1.8269,16.2795-1.4744,2.914-3.9743,4.9668-7.09,4.9218-3.4159-.0494-6.9144-1.6772-7.5345-5.4357-1.4473-8.7713-6.7133-9.3793-14.287-8.6613C80.0938,58.5049,61.6379,59.5748,43.19,60.45c-5.06.24-7.0254,2.0918-7.3322,6.8642-.2865,4.4578.01,8.99-3.1706,12.9531-3.2149,4.0052-6.2865,6.9857-12.0985,6.0839-6.2581-.971-7.4289-5.4527-8.4118-10.3035C11.698,73.6866,11.5811,71.2522,11.3155,68.9791Z"/></g><g class="cls-3"><path class="cls-5" d="M272.3172,117.1055c-15.8092-.21-30.6956-2.7462-41.3951-16.14-9.2274-11.5506-7.6436-24.8729-6.3433-38.141.2386-2.4352,2.0818-3.6534,4.3431-3.937,2.8143-.3529,4.627,1.3557,5.66,3.6826,2.1988,4.9511,4.4544,9.9044,6.2032,15.0221,3.3238,9.7268,10.5628,13.0263,20.13,13.8269,10.5158.88,21.0889-1.55,31.61,1.3286,4.9621,1.3576,8.1423,3.0029,8.7991,8.5512.6567,5.5462-1.0579,9.293-6.0482,11.8768C288.0008,116.9431,280.2067,117.1553,272.3172,117.1055Z"/></g><g class="cls-3"><path class="cls-6" d="M212.9569,58.5574c-1.4128,12.4016-2.3778,23.5383-4.0519,34.5674-1.0038,6.6125-10.7271,12.7344-18.8879,13.0561-8.3189.328-10.2425-5.7553-12.7085-11.786C173.4453,84.9473,178.4818,76.64,180.3739,68c1.2725-5.81,4.243-11.1483,5.9291-16.9726,1.4843-5.1273,6.7244-8.7382,12.662-8.49C204.369,42.764,213.04,54.1693,212.9569,58.5574Z"/><path class="cls-7" d="M189.3906,106.6936c-7.6587,0-9.9214-5.6114-12.1128-11.044l-.4321-1.0654c-2.9283-7.1612-.8541-13.71,1.1518-20.044.689-2.1753,1.4014-4.4253,1.8882-6.6469a61.3189,61.3189,0,0,1,3.24-9.5747c.9654-2.4063,1.9634-4.8951,2.6973-7.43,1.5576-5.3823,7.0962-9.1021,13.1631-8.85,5.71.2388,14.5557,12.0361,14.4712,16.5283l-.0034.0474c-.4283,3.7617-.816,7.4072-1.1944,10.9682-.87,8.189-1.6919,15.9243-2.86,23.6182-1.0938,7.2051-11.3067,13.1631-19.3628,13.48C189.8173,106.6887,189.6015,106.6936,189.3906,106.6936Zm9.0083-63.6675c-5.3985,0-10.2305,3.3554-11.6153,8.1406-.748,2.583-1.7553,5.0952-2.73,7.5244a60.5592,60.5592,0,0,0-3.1914,9.416c-.4961,2.2666-1.2159,4.5381-1.9117,6.7354-1.9521,6.1636-3.9707,12.5376-1.1792,19.3628l.4336,1.07c2.3164,5.7412,4.291,10.7012,11.7925,10.4053,8.375-.3291,17.4956-6.586,18.4136-12.6309,1.164-7.6714,1.9848-15.3955,2.854-23.5732.3779-3.5562.7646-7.1958,1.1924-10.9517.0439-4.0439-8.28-15.269-13.5137-15.4878C198.7622,43.03,198.58,43.0261,198.3989,43.0261Z"/></g><g class="cls-3"><path class="cls-4" d="M310.5205,52.6093c9.4443,2.2988,18.2346,6.4587,23.8106,14.5871,5.059,7.3749.9032,18.04-7.6912,23.1039-6.5407,3.8536-19.9753-.84-24.7226-9.6795-3.44-6.4045-7.6255-13.1321-3.1082-21.2632C301.5221,54.4743,304.8123,52.0227,310.5205,52.6093Z"/></g><g class="cls-3"><path class="cls-5" d="M67.5856,2c13.3585-.0236,20.89,5.1576,21.1949,14.5813.3085,9.5286-9.6677,18.4705-20.7318,18.5823-9.109.092-17.8411-6.8136-17.9641-14.2066C49.8513,6.9384,54.3888,2.0234,67.5856,2Z"/></g><g class="cls-3"><path class="cls-5" d="M254.1947,50.3566c-.2663-7.7167,4.8953-10.1016,11.0948-10.05,9.4723.0786,16.8147,7.4147,16.5576,15.5459-.1779,5.6273-8.061,11.3675-15.3162,11.1527C258.1464,66.7568,253.9664,61.1159,254.1947,50.3566Z"/></g><g class="cls-3"><path class="cls-6" d="M589.46,84.56c-4.6926,0-8.6883.1631-12.6662-.0342-8.1167-.4025-12.68-5.1731-13.2041-13.5266-.6368-10.1406,3.0539-16.71,11.5555-17.0639,18.2623-.7595,36.607-1.8429,54.8251,1.0459,5.11.81,7.332,4.0586,8.3219,9.0559,2.5771,13.01-2.5255,22.25-13.2149,29.1377-3.4367,2.2146-6.7309,4.65-11.1631,7.73,6.42,1.1269,11.6023-.0578,16.5084,1.8789,7.0815,2.7954,9.2069,7.335,7.8086,18.06-.8249,6.3267-4.882,8.278-10.7142,8.9331a211.1886,211.1886,0,0,1-48.4455.3445c-14.1041-1.6712-18.9149-13.0742-12.1339-25.8679,3.8357-7.2369,10.9071-10.7727,17.2375-15.1653C585.8242,87.9439,588.2008,87.7693,589.46,84.56Z"/></g><g class="cls-3"><path class="cls-4" d="M751.0792,126.5111c-15.6628-.0834-24.466-8.4553-24.3024-23.1114.1885-16.8879,8.9947-26.2211,24.7222-26.2019,14.955.0182,24.6039,10.9071,24.5,27.6492C775.9132,118.8234,766.9726,126.5958,751.0792,126.5111Zm8.6375-23.8915c-.4706-4.9091-3.6425-7.7442-8.2857-8.4115-4.7922-.6887-8.4594,3.4452-8.3713,8.6245.0874,5.1286,2.6781,8.4113,7.7917,8.5262C756.2515,111.48,759.0866,108.1238,759.7167,102.62Z"/></g><g class="cls-3"><path class="cls-5" d="M715.7064,104.5636c1.8145,14.5592-10.1364,22.1113-23.418,21.9906-16.4916-.15-24.6868-7.4663-24.7365-22.5564-.0572-17.36,8.3661-26.775,23.9777-26.8006C707.3618,77.1712,715.6883,86.5962,715.7064,104.5636ZM691.58,111.47c4.7665.0138,9.1536-4.0282,8.7144-8.5176-.499-5.1-3.5977-8.8407-8.6745-8.8487-5.0693-.0081-8.1964,3.7154-8.73,8.8061C682.4226,107.3645,686.8338,111.4562,691.58,111.47Z"/></g><path class="cls-2" d="M419.6093,166.0705c-4.417,0-8.832-.0723-13.2343-.2441-8.04-.3135-15.9615-1.89-23.6226-3.4131-3.8394-.7637-7.8091-1.5528-11.729-2.169-2.2114-.3476-6.2359-1.3691-8.3472-4.2988a7.8044,7.8044,0,0,1-1.2334-6.0664c1.1963-7.1406,7.5518-8.3086,12.2285-8.5654q3.3377-.1847,6.6758-.36c9.1792-.4912,18.6714-.998,27.98-1.748l.5947-.043c1.3282-.09,2.9795-.2031,3.503-1.0127.3652-.5644.2822-1.6084-.2393-3.0176-5.1494-13.9043-4.584-28.3877-4.0381-42.3925.18-4.5967.3652-9.3506.3428-13.9932-.044-9.0415.5439-18.2188,1.1133-27.0938.3222-5.0268.6562-10.2255.87-15.3339.4238-10.1348,5.1914-19.0513,12.7519-23.8521a24.203,24.203,0,0,1,22.6416-1.6352c9.333,3.9184,11.8291,11.913,13.0391,19.2167.9551,5.7559.6475,11.5308.35,17.1158a105.9361,105.9361,0,0,0-.18,12.1308c.1612,2.59.55,3.9268,1.3389,4.6148.8633.7539,2.4629.9668,5.5312.74,6.74-.501,13.377-2.0884,19.7959-3.623A139.8558,139.8558,0,0,1,503.748,57.551c9.9014-1.0264,15.7051,2.3208,17.2441,9.95s-2.2783,13.9316-10.4736,17.2929C494.4179,91.4,478.0068,89.7619,465.51,87.5988c-2.6191-.4531-4.0722-.583-4.7461-.0459-.6211.4951-.96,1.8692-1.0976,4.458a95.7684,95.7684,0,0,0,.4814,12.8926c.6172,7.4922,1.2559,15.24-1.2461,22.9463-.3174.9785-.5937,2.2754-.1025,2.8945.71.8975,3.1963.6924,5.1943.5264,3.5606-.2939,7.1914-.8779,10.7031-1.4424,9.0674-1.459,18.4424-2.9668,27.9366.2,6.2509,2.085,12.5927,4.6641,15.46,11.1592a14.5046,14.5046,0,0,1-.667,12.9512,13.676,13.676,0,0,1-10.28,6.915c-4.9463.6162-10.16,1.1367-16.4073,1.6387l-.16-1.9942c6.2177-.499,11.4033-1.0175,16.3213-1.6289a11.69,11.69,0,0,0,8.7861-5.917,12.4979,12.4979,0,0,0,.5771-11.1582c-2.539-5.7519-8.1953-8.0449-14.2626-10.0693-9.03-3.0107-18.1583-1.542-26.9864-.1221-3.5488.57-7.2187,1.1612-10.8564,1.4619-2.7266.2237-5.5518.459-6.9268-1.2793-.8467-1.0693-.9228-2.624-.2314-4.7529,2.3779-7.3252,1.7558-14.8691,1.1552-22.164a97.478,97.478,0,0,1-.4863-13.1651c.1543-2.8642.5166-4.8525,1.8487-5.914,1.3984-1.1148,3.4169-.8658,6.3349-.3614,12.2334,2.1192,28.2793,3.7266,43.9072-2.6845,7.3311-3.0064,10.6241-8.35,9.2725-15.0469-1.3184-6.5381-6.251-9.272-15.0762-8.3565a138.2633,138.2633,0,0,0-17.748,3.4312c-6.4951,1.5532-13.2119,3.1592-20.1123,3.6719-3.09.23-5.4629.1093-6.9942-1.2266-1.4453-1.2593-1.8525-3.3086-2.0205-5.9971a107.3443,107.3443,0,0,1,.1787-12.3623c.292-5.4775.5938-11.1421-.3252-16.6821-1.59-9.5894-5.1308-14.8828-11.84-17.7a21.9526,21.9526,0,0,0-20.7969,1.48c-7.0078,4.45-11.4287,12.7666-11.8252,22.2475-.2148,5.13-.5488,10.34-.872,15.3785-.5674,8.8408-1.1534,17.9834-1.1094,26.9555.0234,4.6865-.1631,9.4619-.3438,14.0811-.539,13.81-1.0966,28.0888,3.9141,41.6191.7715,2.083.7861,3.6524.0439,4.7988-1.0673,1.6514-3.2734,1.8018-5.0459,1.9229l-.5712.041c-9.335.752-18.8409,1.26-28.0337,1.751q-3.3363.1787-6.6724.3594c-6.4287.3545-9.626,2.4824-10.3657,6.8994a5.8826,5.8826,0,0,0,.8833,4.5674c1.687,2.3408,5.1318,3.1923,7.0351,3.4912,3.96.623,7.95,1.417,11.8086,2.1845,7.585,1.5079,15.4287,3.0684,23.3106,3.376,16.1426.6309,32.5283-.0879,48.374-.7851q3.5523-.1553,7.1074-.3077c3.2227-.249,6.4824-.4765,9.7451-.6992l.1348,1.9961q-4.8823.3311-9.7607.6992c-2.4034.1016-4.7715.2061-7.1387.31C443.3388,165.55,431.4736,166.0705,419.6093,166.0705Z"/><path class="cls-2" d="M40.727,169.5832c-1.7935,0-3.5264-.7617-4.9189-3.1738-2.5665-4.4444.7929-7.3076,3.4926-9.6074.5938-.5069,1.1543-.9844,1.648-1.4668a11.7277,11.7277,0,0,1,1.7827-1.3536,12.5324,12.5324,0,0,0,1.2881-.9326c.9663-.8388,2.02-1.6533,3.1338-2.5156,3.8413-2.9717,7.813-6.0449,7.4492-9.67-.3638-3.62-4.917-4.7354-9.32-5.8145-1.3335-.3271-2.7129-.665-3.938-1.0693-8.0781-2.6641-11.9463-9.9805-9.626-18.2051.6983-2.4746,1.6128-4.8887,2.5811-7.4443.3222-.8506.6523-1.7217.9848-2.6211-.82-.1143-1.604-.2207-2.3584-.3233-2.4487-.333-4.563-.62-6.6924-.998-2.1162-.376-5.6572-1.0068-5.1206-4.9668.3653-2.6992,2.1875-5.4668,5.3418-5.1592,13.9678,1.35,19.0176-7.8408,22.397-17.977A12.9585,12.9585,0,0,1,55.28,68.3405a12.51,12.51,0,0,1,9.8833-.1338,9.9076,9.9076,0,0,1,6.0645,5.2022c1.2031,2.7324.9853,6.2412-.63,10.147-.6963,1.6831-.8384,2.9052-.4,3.4414.2969.3623,1.2627.8789,4.4136.2607,1.9033-.373,3.8051-.7617,5.7075-1.15,5.7143-1.1689,11.6235-2.3769,17.5117-3.11,4.76-.5948,12.73-1.5855,13.8814,6.8711a8.1089,8.1089,0,0,1-1.5953,6.6523c-1.8881,2.1973-5.167,3.3018-10.0239,3.3779-4.9077.0762-5.0913,2.3477-5.4932,7.3262-.0463.5732-.0947,1.1719-.1533,1.793-.7011,7.4277-3.3276,14.5429-7.207,19.5205-1.9712,2.53-2.7593,4.15-2.5547,5.2529.2129,1.1455,1.6279,2.1963,4,3.625,4.5347,2.7285,9.2349,5.792,12.499,10.5527,2.8721,4.19,2.8081,8.65-.18,12.56a7.12,7.12,0,0,1-5.0606,2.9248,8.8129,8.8129,0,0,1-6.5552-2.3486c-6.5024-5.8633-12.5244-8.501-18.42-8.0518-6.06.4571-11.8652,4.169-17.748,11.3467a8.5,8.5,0,0,1-4.48,2.8867,19.3007,19.3007,0,0,0-2.9824.9942A14.4305,14.4305,0,0,1,40.727,169.5832ZM26,96.24c-1.917,0-2.7276,2.1357-2.9053,3.4492-.253,1.8652.8686,2.2646,3.4887,2.73,2.0884.37,4.1846.6553,6.6119.9844,1.1245.1533,2.313.3145,3.5927.4971l1.2154.1738-.4156,1.1553c-.478,1.3281-.956,2.59-1.4184,3.81-.9522,2.5136-1.8521,4.8877-2.5264,7.2783-2.0093,7.123,1.3374,13.458,8.3277,15.7637,1.1508.3789,2.4316.6933,3.7876,1.0253,4.8417,1.1866,10.3291,2.53,10.8344,7.5577.4746,4.7275-4.1421,8.3-8.2153,11.4511-1.0918.8448-2.1231,1.6416-3.0469,2.4444a14.2789,14.2789,0,0,1-1.4946,1.0888,10.1531,10.1531,0,0,0-1.49,1.1182c-.5416.5293-1.1548,1.0518-1.7481,1.5566-2.981,2.5411-4.6743,4.2852-3.0571,7.086,1.7646,3.0576,3.9956,2.3769,7.4887,1.0088a20.9749,20.9749,0,0,1,3.31-1.0909,6.4933,6.4933,0,0,0,3.3345-2.1953c6.248-7.624,12.51-11.5732,19.1445-12.0732,6.3726-.48,13.0757,2.3984,19.9092,8.56a6.8218,6.8218,0,0,0,5.0322,1.8437,5.1044,5.1044,0,0,0,3.6558-2.1484c2.456-3.2139,2.4975-6.7451.12-10.2139-3.0371-4.43-7.5346-7.3545-11.8808-9.9707-2.4712-1.4873-4.5479-2.8877-4.9351-4.9727-.3267-1.7607.5259-3.7441,2.9434-6.8466,3.6513-4.6856,6.1274-11.4209,6.7934-18.4795.0576-.6123.1055-1.2012.1509-1.7666.4092-5.0625.7319-9.0606,7.4556-9.1651,4.1928-.0654,7.0654-.9677,8.538-2.6816a6.1365,6.1365,0,0,0,1.1309-5.0791c-.8184-6.0078-5.7627-5.89-11.6528-5.1563-5.8106.7237-11.6812,1.9248-17.3579,3.085-1.9077.3906-3.8155.78-5.7246,1.1543-2.0577.4023-4.9541.7422-6.3448-.957-.9677-1.1817-.935-2.9722.0987-5.4727,1.4018-3.3891,1.6259-6.355.6479-8.5766a8,8,0,0,0-4.9184-4.129,10.5774,10.5774,0,0,0-8.3291.0557,11.02,11.02,0,0,0-5.4009,6.7764c-3.4668,10.3979-9.0928,20.8286-24.4873,19.3345C26.1718,96.2434,26.0849,96.24,26,96.24Zm43.22,29.955a1.5311,1.5311,0,0,1-.53-.0937c-.7559-.2764-1.5737-.5342-2.4116-.8-4.063-1.2852-9.12-2.8838-9.7354-7.6319a11.9839,11.9839,0,0,1,3.2183-9.5468c3.55-3.9815,9.3921-6.3692,15.2475-6.3174a9.0277,9.0277,0,0,0,1.1709-.1221c1.2022-.1787,2.6968-.4023,3.792.6035.8814.8106,1.2325,2.1612,1.1031,4.25-.0606,3.8321-7.2085,16.8643-10.5215,19.168A2.3718,2.3718,0,0,1,69.22,126.1945Zm5.4883-22.3916a18.3466,18.3466,0,0,0-13.4541,5.65,9.9962,9.9962,0,0,0-2.7276,7.958c.4517,3.4834,4.47,4.7539,8.355,5.9834.8179.2588,1.6172.5117,2.3618.7793,2.2139-.8408,9.8135-14.458,9.832-17.6806l.002-.0577c.1177-1.8535-.2368-2.4726-.459-2.6767-.3911-.3584-1.2827-.2266-2.1435-.0977a10.7788,10.7788,0,0,1-1.4947.1436C74.8891,103.8039,74.7983,103.8029,74.708,103.8029Z"/><path class="cls-2" d="M15.0292,94.79a14.5717,14.5717,0,0,1-2.2348-.18c-7.4712-1.1591-8.6319-6.89-9.5645-11.4931a49.8282,49.8282,0,0,1-.6836-5.2266c-.0708-.7441-.14-1.48-.2241-2.1987l-.0141-.12.0151-.12c.15-1.2124.2793-2.4252.4082-3.6342.6763-6.3643,1.3765-12.9449,5.3164-18.6636l.51-.7495c1.96-2.897,4.395-6.502,9.2641-5.5542l.4668.0908c4.4859.87,10.0689,1.9526,11.1792,8.0625.2642,1.4536.6543,2.3325,1.1919,2.687.6353.4185,1.7612.2735,3.3716-.0967,12.1938-2.8027,24.791-3.9956,36.9731-5.1489,12.1011-1.146,24.6138-2.331,36.6675-5.0952,7.9156-1.8164,12.439,3.4717,15.1543,7.6064,4.187,6.376,4.8262,12.2349,1.9541,17.9117-1.8452,3.6464-4.84,5.7251-8.2719,5.6606-3.5738-.0518-8.0225-1.7808-8.7989-6.4834-1.3071-7.9277-5.48-8.9482-13.76-8.1645-20.72,1.9643-41.6006,3.081-57.4771,3.8344-4.7593.2251-6.3789,1.731-6.6655,6.1953-.0425.6587-.0723,1.3184-.1026,1.9781-.184,4.06-.375,8.2592-3.4091,12.039C23.3828,91.5559,20.3017,94.79,15.0292,94.79ZM4.3227,75.58c.08.6958.1465,1.4053.2144,2.1225A48.4265,48.4265,0,0,0,5.19,82.72c1.064,5.251,2.2544,9.0362,7.9111,9.9141,5.6436.873,8.4951-2.0469,11.6348-5.958,2.6255-3.271,2.7934-6.9658,2.9712-10.878.03-.6718.061-1.3442.104-2.0151.3506-5.457,2.8325-7.7934,8.5669-8.0654,15.8545-.752,36.7051-1.8667,57.3833-3.8277,7.4165-.7026,14.22-.48,15.9219,9.83.5747,3.481,3.9174,4.7666,6.8544,4.8091,2.58.07,4.9712-1.6255,6.4585-4.564,2.5552-5.05,1.97-10.1059-1.8418-15.9106-3.8457-5.8564-7.8637-7.94-13.0351-6.7549-12.1816,2.794-24.7612,3.9849-36.9263,5.1372-12.1177,1.1475-24.6479,2.334-36.7134,5.107-1.8144.416-3.5551.7172-4.92-.1827-1.0322-.68-1.6865-1.9511-2.059-3.9995-.8658-4.7641-5.3023-5.6245-9.5923-6.4565l-.47-.0913c-3.56-.6958-5.26,1.81-7.2236,4.7119l-.52.7637C6.0429,59.59,5.4,65.632,4.72,72.03,4.5942,73.2106,4.4682,74.3952,4.3227,75.58Z"/><path class="cls-2" d="M271.82,128.6506c-.5147,0-1.0284-.002-1.545-.0049h-.0068c-15.7876-.209-32.0166-2.4307-43.7681-17.1416-9.5947-12.01-8.228-25.8769-6.9067-39.2881l.1035-1.0532c.2676-2.7319,2.28-4.5952,5.3823-4.9839,3.03-.3833,5.4859,1.1865,6.9185,4.4116l.6064,1.3643c2.0645,4.6382,4.1988,9.4346,5.8692,14.3227,2.9614,8.667,8.957,12.7618,20.0478,13.6905a104.4112,104.4112,0,0,0,12.4829.0361c6.71-.25,13.6534-.5068,20.5332,1.375,4.7481,1.2988,9.0757,3.0205,9.87,9.7305.7466,6.3086-1.419,10.5478-6.8159,13.3418C287.4,128.176,279.72,128.6506,271.82,128.6506Zm-1.53-2.0049c8.4863.0615,16.1177-.208,23.3808-3.97,4.6836-2.4248,6.4029-5.8135,5.75-11.3321-.5961-5.039-3.1875-6.6064-8.4106-8.0351-6.5854-1.8027-13.3711-1.5508-19.9316-1.3066a105.2355,105.2355,0,0,1-12.7242-.042c-11.8437-.9913-18.559-5.6289-21.7734-15.0362-1.6411-4.8032-3.7573-9.5581-5.8037-14.1562l-.6074-1.3657c-1.0733-2.4175-2.7056-3.5025-4.8413-3.2388-1.5371.1929-3.4165.9033-3.6411,3.1948l-.1036,1.0542c-1.3413,13.6123-2.6079,26.4688,6.479,37.8438C239.2939,124.3156,254.996,126.4426,270.2905,126.6457Z"/><path class="cls-2" d="M184.1245,117.3117c-8.2637,0-10.6768-5.9824-13.0127-11.7724l-.4483-1.1055c-3.1074-7.6006-.9258-14.4883,1.1836-21.1489.7124-2.2495,1.4492-4.5757,1.95-6.8619a64.1177,64.1177,0,0,1,3.3887-10.0219c.9985-2.4888,2.0308-5.0625,2.7866-7.6729,1.6787-5.8017,7.6211-9.8232,14.1553-9.54,6.2856.2627,15.5854,12.73,15.4927,17.6587l-.0064.0942c-.4448,3.9043-.8471,7.6885-1.24,11.3848-.9048,8.5141-1.7593,16.5552-2.9741,24.56-1.17,7.7061-12.0181,14.0743-20.5694,14.4112Q184.47,117.3116,184.1245,117.3117ZM193.496,51.175c-5.3955,0-10.2226,3.3423-11.603,8.1094-.7832,2.706-1.8345,5.3266-2.8511,7.8613a61.6086,61.6086,0,0,0-3.291,9.7051c-.52,2.3755-1.271,4.7456-1.997,7.0376-2.0943,6.6128-4.0723,12.8589-1.2388,19.7876l.4512,1.1142c2.3383,5.7959,4.3657,10.7832,11.7851,10.5088,8.5-.3349,17.7476-6.6328,18.6709-12.7138,1.208-7.96,2.0606-15.98,2.9629-24.4707.3916-3.6851.7925-7.4571,1.2354-11.3492.0117-3.9873-8.4849-15.3657-13.5772-15.5791Q193.77,51.1753,193.496,51.175Z"/><path class="cls-2" d="M320.7753,102.2082a21.5779,21.5779,0,0,1-5.7812-.8408c-6.43-1.7979-12.1182-6.07-14.8452-11.1485l-.6133-1.1347c-3.4224-6.3111-7.3013-13.4649-2.6089-21.9112,3.2676-5.8813,7.1978-8.1333,13.1416-7.5185l.1343.0229A64.0644,64.0644,0,0,1,317.5063,61.9l-.7022,1.873a61.9871,61.9871,0,0,0-7.0073-2.1362c-5.06-.5029-8.2788,1.39-11.122,6.5078-4.1587,7.4864-.7134,13.8413,2.6186,19.9864l.6172,1.1416c2.4785,4.6152,7.6982,8.5117,13.6221,10.1689,4.2314,1.1836,8.12,1,10.67-.5019a19.964,19.964,0,0,0,9.4189-12.46,12.6014,12.6014,0,0,0-1.7466-10.1118,29.968,29.968,0,0,0-3.6963-4.4077l1.4024-1.4258a31.9883,31.9883,0,0,1,3.9434,4.7016,14.7457,14.7457,0,0,1,2.0493,11.6773,21.9933,21.9933,0,0,1-10.3555,13.749A12.6872,12.6872,0,0,1,320.7753,102.2082Z"/><path class="cls-2" d="M62.0634,41.45c-9.9043,0-19.34-7.603-19.4756-15.7417-.1333-8.0254,1.2144-13.0371,4.3692-16.251C49.9306,6.4289,54.6362,5.0124,61.7656,5c6.5718-.0176,11.8115,1.1475,15.687,3.4468l-1.02,1.72C72.871,8.0549,67.9584,6.9543,61.77,7c-6.5586.0112-10.8115,1.2378-13.3853,3.8589-2.7495,2.8-3.92,7.37-3.7964,14.8164C44.7065,32.798,53.1708,39.45,62.0585,39.45c.06,0,.12-.0005.18-.001a21.9954,21.9954,0,0,0,8.84-2.0068l.831,1.8193a24.0043,24.0043,0,0,1-9.65,2.1875C62.1938,41.45,62.1279,41.45,62.0634,41.45Z"/><path class="cls-2" d="M80.0859,33.216l-1.5068-1.3154a15.7434,15.7434,0,0,0,4.2055-10.7217,12.52,12.52,0,0,0-6.3525-11.0122l1.02-1.72a14.5888,14.5888,0,0,1,7.331,12.6675A17.73,17.73,0,0,1,80.0859,33.216Z"/><path class="cls-2" d="M264.6987,76.6091q-.2286,0-.4571-.0069c-6.4575-.1909-14.0888-3.519-13.7856-18.2866-.1152-3.4966.7861-6.2549,2.6792-8.1982,2.1353-2.1919,5.4536-3.27,9.855-3.2481a19.1374,19.1374,0,0,1,13.6011,5.7427,15.7722,15.7722,0,0,1,4.5893,11.4375C280.98,70.3894,272.7431,76.6086,264.6987,76.6091Zm-1.9243-27.7407c-3.7364,0-6.4966.8891-8.2066,2.6445-1.5029,1.543-2.2134,3.8179-2.1118,6.7617l.001.0278,0,.0279c-.2241,10.5586,3.7612,16.0337,11.8447,16.2729,6.8779.1905,14.7139-5.351,14.88-10.6172a13.7912,13.7912,0,0,0-4.0322-9.9882,17.1269,17.1269,0,0,0-12.1758-5.1285C262.9072,48.8688,262.84,48.8684,262.7744,48.8684Z"/><path class="cls-2" d="M596.9052,145.5324a191.7159,191.7159,0,0,1-22.6347-1.2949c-7.002-.83-12.2823-4.0049-14.8682-8.94-2.8154-5.3711-2.2832-12.2588,1.4971-19.3926,3.3584-6.3359,9.0175-10.0381,14.4912-13.6191,1.251-.8184,2.5029-1.6368,3.7275-2.4864a11.6464,11.6464,0,0,1,1.6524-.9052,6.5694,6.5694,0,0,0,2.7343-1.9717c-.9687.0068-1.91.0176-2.83.0293-3.0215.0351-5.8731.0693-8.7032-.0713-8.8779-.44-14.0859-5.7627-14.665-14.9878-.4141-6.5943.8584-11.5835,3.7822-14.8291a12.5217,12.5217,0,0,1,9.1778-3.9575l4.2529-.1807c17.35-.7437,35.2871-1.5132,52.8965,1.2783,6.8925,1.0928,8.705,6.3447,9.4687,10.2,2.6211,13.2315-2.0127,23.4707-14.166,31.3028-2.373,1.5292-4.6738,3.1552-7.3369,5.038-.6875.4864-1.3965.9873-2.1348,1.5069,1.7979.18,3.5088.2246,5.1817.2676,3.37.0869,6.5546.1689,9.6679,1.3984,7.9483,3.1377,10.2344,8.3242,8.7354,19.8183-1.0254,7.8653-6.6465,9.542-12.01,10.1446A250.0428,250.0428,0,0,1,596.9052,145.5324ZM585.1787,94.9162h1.4668l-.5362,1.3652a7.6613,7.6613,0,0,1-4.4756,4.417,9.997,9.997,0,0,0-1.375.7432c-1.24.86-2.5068,1.69-3.7734,2.5176-5.5029,3.6006-10.7012,7.001-13.8184,12.8828-3.4628,6.5322-3.9931,12.7578-1.4931,17.5273,2.27,4.333,7.0058,7.1319,13.332,7.8819,15.3584,1.82,31.7442,1.7031,50.0938-.3594,6.6836-.751,9.5576-3.1094,10.25-8.4141,1.3662-10.4843-.5235-14.9511-7.4873-17.7011-2.7842-1.0987-5.6582-1.1729-8.9854-1.2588a52.0369,52.0369,0,0,1-7.9687-.6367l-2.3926-.42,1.9951-1.3867c1.5176-1.0556,2.9072-2.0381,4.2158-2.9629,2.6826-1.8965,5-3.5342,7.4082-5.0869,11.3848-7.3359,15.7315-16.8984,13.2891-29.2324-1.0576-5.3359-3.3965-7.9121-7.82-8.6133-17.4131-2.7612-35.2491-1.9956-52.4981-1.2559l-4.2549.1807a10.6,10.6,0,0,0-7.7754,3.2984c-2.5146,2.791-3.6464,7.4126-3.2724,13.3652.5146,8.1909,4.93,12.7261,12.7685,13.1147,2.7666.1377,5.5918.1045,8.58.0694C582.1005,94.9338,583.6015,94.9162,585.1787,94.9162Z"/><path class="cls-2" d="M692.3271,140.54c-.1143,0-.2275-.0009-.3418-.0019-17.6553-.16-26.6348-8.3789-26.6875-24.4278-.0322-9.7519,2.4434-17.2011,7.3564-22.14,4.4141-4.4346,10.6543-6.69,18.5489-6.7031h.0635A31.5791,31.5791,0,0,1,701.79,88.9055l-.668,1.8847a29.6168,29.6168,0,0,0-9.8545-1.5224h-.0605c-7.3447.0117-13.1094,2.0693-17.1348,6.1142-4.5254,4.5479-6.8047,11.52-6.7744,20.7227.05,14.9453,8.1309,22.2832,24.7051,22.4336,8.08.0713,15.084-2.585,19.2793-7.293,3.3535-3.7627,4.7519-8.751,4.0449-14.4258l-.0078-.123c-.0059-6.3242-1.0293-11.6524-3.043-15.835l1.8028-.8672c2.1376,4.4414,3.2275,10.0391,3.24,16.6387.7627,6.2393-.8076,11.751-4.544,15.9434C708.2558,137.6467,700.8173,140.5393,692.3271,140.54Zm-1.0439-15.6709h-.0284a10.6462,10.6462,0,0,1-7.747-3.5263,8.3621,8.3621,0,0,1-2.2715-6.47c.64-6.1025,4.582-10.0429,10.0459-10.0429h.0195c5.4775.0078,9.4043,3.9707,10.0039,10.0937a8.4143,8.4143,0,0,1-2.3135,6.4961A10.6017,10.6017,0,0,1,691.2832,124.8693Zm-.0225-2h.0225a8.5716,8.5716,0,0,0,6.2294-2.7949,6.4439,6.4439,0,0,0,1.8028-4.9551c-.5-5.1064-3.5723-8.2822-8.0176-8.289h-.0156c-4.4365,0-7.5235,3.16-8.0576,8.2519a6.3951,6.3951,0,0,0,1.77,4.9239,8.6152,8.6152,0,0,0,6.2656,2.8632Z"/><path class="cls-2" d="M753.3271,140.54c-.1143,0-.2275-.0009-.3418-.0019-17.6553-.16-26.6348-8.3789-26.6875-24.4278-.0322-9.7519,2.4434-17.2011,7.3564-22.14,4.4141-4.4346,10.6543-6.69,18.5489-6.7031h.0635A31.5791,31.5791,0,0,1,762.79,88.9055l-.668,1.8847a29.6168,29.6168,0,0,0-9.8545-1.5224h-.0605c-7.3447.0117-13.1094,2.0693-17.1348,6.1142-4.5254,4.5479-6.8047,11.52-6.7744,20.7227.05,14.9453,8.1309,22.2832,24.7051,22.4336,8.0947.0713,15.084-2.585,19.2793-7.293,3.3535-3.7627,4.7519-8.751,4.0449-14.4258l-.0078-.123c-.0059-6.3242-1.0293-11.6524-3.043-15.835l1.8028-.8672c2.1376,4.4414,3.2275,10.0391,3.24,16.6387.7627,6.2393-.8076,11.751-4.544,15.9434C769.2558,137.6467,761.8173,140.5393,753.3271,140.54Zm-1.0439-15.6709h-.0284a10.6462,10.6462,0,0,1-7.747-3.5263,8.3621,8.3621,0,0,1-2.2715-6.47c.64-6.1025,4.582-10.0429,10.0459-10.0429h.0195c5.4775.0078,9.4043,3.9707,10.0039,10.0937a8.4143,8.4143,0,0,1-2.3135,6.4961A10.6017,10.6017,0,0,1,752.2832,124.8693Zm-.0225-2h.0225a8.5716,8.5716,0,0,0,6.2294-2.7949,6.4439,6.4439,0,0,0,1.8028-4.9551c-.5-5.1064-3.5723-8.2822-8.0176-8.289h-.0156c-4.4365,0-7.5235,3.16-8.0576,8.2519a6.3951,6.3951,0,0,0,1.77,4.9239,8.6152,8.6152,0,0,0,6.2656,2.8632Z"/></svg>