<svg xmlns="http://www.w3.org/2000/svg" viewBox="0 0 515 291"><defs><style>.cls-1{fill:#fff;}</style></defs><title>hippo</title><g id="圖層_1" data-name="圖層 1"><path class="cls-1" d="M121.8706,66.3575c.0214-.0186.0439-.0311.0649-.0513,6.7472-6.5137,18.2434-8.6213,26.9768-11.3482,8.64-2.6977,17.3553-5.1585,26.1472-7.312a307.7413,307.7413,0,0,1,55.6115-8.7011,213.8872,213.8872,0,0,1,55.6531,3.73c8.7241,1.8128,17.4162,4.2375,25.45,8.1565,8.2033,4.0018,15.0736,10.1651,23.32,14.0651,1.6742.7917,3.1446-1.702,1.46-2.4985-6.7279-3.182-12.417-7.9776-18.8336-11.6844a88.11,88.11,0,0,0-19.0755-7.9657c-14.1738-4.2015-29.1192-6.1929-43.8619-6.866-30.4135-1.3881-60.8523,3.5238-90.1366,11.4655-8.4365,2.2879-16.8011,4.8368-25.0974,7.5887-6.8691,2.2787-14.3218,4.1708-19.66,9.3241a1.3658,1.3658,0,0,0-.4148.7449c-14.0818-1.9727-16.4276-21.2324-24.3919-30.36-7.08-8.1143-18.2577-12.9212-29.0234-10.9218-10.4972,1.95-19.5314,9.9794-21.706,20.5591-2.3852,11.6049.4956,28.2615,8.1026,37.6194,3.8736,4.765,9.5776,6.2516,15.4538,6.9034,8.7236.9679,17.0646,1.9943,25.4269,4.6934-11.4823,12.0857-22.8144,24.3808-30.6048,39.26-7.0237,13.4148-11.4534,27.99-15.2364,42.5961-3.9335,15.1867-7.2028,30.5683-12.0983,45.49-5.21,15.879-23.6656,52.074-28.27,68.0944a1.448,1.448,0,0,0,2.79.769c4.454-15.4976,22.6157-51.2653,27.7694-66.5866,4.8368-14.379,8.0846-29.22,11.808-43.9086,3.777-14.9007,8.0355-29.8345,15.0159-43.5966,7.8121-15.4016,19.39-27.9929,31.191-40.4078a1.3811,1.3811,0,0,0,.12-1.8226,1.5171,1.5171,0,0,0-.6908-2.356,96.5138,96.5138,0,0,0-22.7375-4.7217c-9.0228-.7943-16.4037-2.1587-20.6066-11.1171C45.0137,60.7532,42.46,39.0073,58.3335,29.6718c14.1431-8.3177,31.1921-.63,38.695,12.8362,5.6936,10.2193,9.6465,24.46,23.4872,25.5132A1.2926,1.2926,0,0,0,121.8706,66.3575Z"/><path class="cls-1" d="M511.954,169.3128c-2.8-8.7623-7.0369-17.2171-11.3676-25.3073-4.2937-8.0208-10.4982-14.3716-17.0457-20.5926-5.892-5.5981-12.5318-10.8256-20.7514-12.24-9.8283-1.691-20.6292.183-30.5009.8433-11.9155.7971-23.9532,1.6752-35.8969.9933-11.1476-.6368-23.0091-3.81-29.0108-13.817-.22-.69-.4626-1.4023-.7067-2.1439-.3465-1.0526-1.4514-2.4518-1.7773-3.6525-.5556-5.008-2.9017-8.9916-6-13a35.7825,35.7825,0,0,0,13.7972-6.3511c3.4263-2.6682,7.9681-6.4765,9.4455-10.7383,2.8981-8.3589-3.67-20.9634-9.9176-26.265-6.6109-5.61-16.3312-7.1646-23.4507-1.5582-9.2656,7.2964-3.94,19.2576-10.3459,27.6749-1.1274,1.4817,1.3843,2.9247,2.4986,1.4605,4.211-5.5334,2.9856-12.1917,4.544-18.5684,2.5656-10.4985,13.8577-14.0679,22.6891-8.43C374.86,41.9,381.6587,53.7255,379.3251,61.8494c-2.331,8.1145-13.5421,14.4248-21.3325,15.5972a1.2075,1.2075,0,0,0-.8009.4328,1.5631,1.5631,0,0,0-.8934,1.8109c-3.3207-1.42-7.2119-2.1737-10.1782-3.1512a1.2323,1.2323,0,0,0-1.4462.4236,1.4432,1.4432,0,0,0-.7275-.2268c-8.7849-.3906-14.539,4.1026-13.05,12.66.7515,4.3185,2.4916,11.5265,5.9054,14.202a100.4641,100.4641,0,0,0,8.5236,5.5565c2.12,1.3373,4.4776,3.4169,6.946,4.0385,4.013,1.0112,10.1076-2.6831,13.1468-4.9946a6.5949,6.5949,0,0,0,2.522-3.33c8.8051,9.7881,23.77,11.2139,36.619,11.2243,2.82.0021,5.6389-.0532,8.4565-.1434-3.8662,1.8991-7.3524,4.752-10.8891,7.3678a113.3473,113.3473,0,0,1-24.3342,14.157c-18.86,7.69-39.302,6.7433-59.2279,5.6019-1.8605-.1067-1.8543,2.7874,0,2.8936,19.044,1.091,38.7123,2.08,56.9566-4.5342a103.9914,103.9914,0,0,0,22.0424-11.38c7.3641-4.9009,15.0915-13.5994,24.5567-13.3769a1.3038,1.3038,0,0,0,1.38-1.2118c3.8867-.2253,7.7714-.4881,11.6547-.7505,9.9713-.6737,22.0311-3.0419,31.6351.5049,8.586,3.171,15.3462,10.5944,21.5614,17.0391,6.781,7.0315,10.9595,15.2869,15.1291,24.02,4.3655,9.1431,7.9728,18.5761,8.4605,28.8014.4988,10.4576-1.5068,20.8207-3.4658,31.041-2.0782,10.8425-4.9865,20.632-11.1749,29.907-6.0683,9.0951-23.1818,23.4752-30.8516,31.2527-1.3088,1.327.736,3.3745,2.0461,2.0459,12.8679-13.0483,35.996-34.3135,40.6293-52.425C513.8168,208.5622,517.8562,187.7813,511.954,169.3128ZM365.0323,101.3074c.2,5.6723-8.6163,9.87-13.468,8.363-2.9264-.909-6.1355-3.8657-8.76-5.5259-2.988-1.89-5.0478-6.6242-6.9076-9.7481-4.4876-7.538-1.5712-15.1945,8.05-14.7668a1.2563,1.2563,0,0,0,1.0792-.451,1.585,1.585,0,0,0,.3252.1507c3.22,1.0611,7.5139,1.5511,10.5459,3.0671,4,2,4.6342,5.2363,5.9771,9.3158.2456.746.5887,1.5928.9566,2.4822a26.0283,26.0283,0,0,1,.14,2.6379,1.3068,1.3068,0,0,0,.8348,1.2751,1.4572,1.4572,0,0,0,.1486.8836c.3212.6457.6682,1.2589,1.0265,1.8577C364.9955,101.0006,365.0271,101.161,365.0323,101.3074Z"/><path class="cls-1" d="M178.5772,92.0084c-2.4336-2.2875-6.6845-5.004-10.2015-4.1593a4.8822,4.8822,0,0,0-2.2,1.1713,1.4463,1.4463,0,0,0-2.6091-.2953c-3.9651,7.1064-8.1386,17.1288-.4692,23.4235,3.4606,2.84,11.6649,5.67,16.3288,3.2631-2.7137,5.0188-9.877,8.3191-15.0467,8.9611-1.8238.2263-1.8465,3.1227,0,2.8936,7.1138-.8836,16.4395-5.4873,18.61-12.9092a1.3194,1.3194,0,0,0-.85-1.6705C186.013,106.1939,183.8668,96.98,178.5772,92.0084Zm-3.4482,21.1831c-4.3463.293-10.14-2.0444-12.2021-5.8616-2.1985-4.07-1.1806-8.3283.62-12.2988-.3312,1.8172,2.452,2.5948,2.7906.7648.6232-3.3683,3.853-5.7194,7.163-3.9073a14.9035,14.9035,0,0,1,5.4259,5.0188C181.9111,101.68,182.9952,112.6615,175.129,113.1915Z"/><path class="cls-1" d="M359.1667,104.18a28.815,28.815,0,0,1-6.1027-3.8773,6.2345,6.2345,0,0,0,4.277-2.0941c2.7045-3.1315,1.4883-7.6024-1.1809-10.3211-3.4194-3.4829-8.5869-5.0674-13.3706-5.4841a1.2549,1.2549,0,0,0-1.2972,1.7214,1.1707,1.1707,0,0,0-.7261,1.57c1.6447,4.5068,2.4546,9.854,6.5846,12.9553.0387.0291.0809.0541.12.0822a30.3846,30.3846,0,0,0,10.2584,7.8555C359.3731,107.363,360.8194,104.959,359.1667,104.18Zm-4.7307-7.232a4.4975,4.4975,0,0,1-5.1815-.4587c-.1144-.1382-.2344-.27-.3466-.41a1.2251,1.2251,0,0,0-.6833-.4564,9.486,9.486,0,0,1-1.38-1.7259c-1.6183-2.61-2.2124-5.74-3.2182-8.61a20.2307,20.2307,0,0,1,8.0992,2.71C354.378,89.6088,358.55,94.3939,354.436,96.9475Z"/><path class="cls-1" d="M204.41,151.466c-1.4571,1.1584.6024,3.1936,2.0461,2.0459a37.2084,37.2084,0,0,0,13.9995-31.4671c-.1115-1.85-3.0058-1.8632-2.8936,0A34.5464,34.5464,0,0,1,204.41,151.466Z"/><path class="cls-1" d="M222.1929,153.1106a28.73,28.73,0,0,1,13.6-14.7318c1.6556-.8538.1936-3.3516-1.46-2.4985a31.7415,31.7415,0,0,0-14.93,16.461C218.7,154.0648,221.4981,154.8148,222.1929,153.1106Z"/><path class="cls-1" d="M101.533,75.4429C93.1359,73.39,91.0954,64.1626,86.1248,58.27a21.3646,21.3646,0,0,0-7.99-5.8273c-1.7255-.7566-4.7213-2.51-6.668-1.6957a1.5412,1.5412,0,0,0-1.0622,1.395c-.3117,3.5589,1.5743,8.1685,2.847,11.4509a25.1633,25.1633,0,0,0,6.4366,9.8556,21.8046,21.8046,0,0,0,19.9575,4.62,1.5785,1.5785,0,0,0,.2329-.0841c.29.0905.5833.1752.8849.2489C102.5723,78.6754,103.3439,75.8858,101.533,75.4429ZM80.746,70.4577a24.4512,24.4512,0,0,1-5.2284-9.072c-.7761-2.1838-2.0165-5.377-2.21-7.98,2.9791.2265,8.3159,4.2686,9.769,5.7717,2.5824,2.671,4.1944,6.114,6.1136,9.2462a25.0239,25.0239,0,0,0,6.3918,7.3925A18.4321,18.4321,0,0,1,80.746,70.4577Z"/><path class="cls-1" d="M352.61,73.2159a45.2479,45.2479,0,0,0,12.054-12.8625c2.1663-3.55,5.8514-9.8583,1.5847-13.33-8.9236-7.2609-13.9446,19.9331-16.2573,23.5473a1.3221,1.3221,0,0,0,.6542,1.983A1.2433,1.2433,0,0,0,352.61,73.2159Zm7.7608-21.33q1.2593-2.9734,4.49,1.708a34.1039,34.1039,0,0,1-1.9145,3.9641,38.7195,38.7195,0,0,1-8.5248,10.4967c.5986-1.63,1.0436-3.314,1.5113-5.08C356.83,59.59,357.7631,54.3019,360.371,51.8861Z"/><path class="cls-1" d="M345.8441,129.1679a1.4479,1.4479,0,0,0-1.4605-2.4985c-17.4281,10.5588-37.9488,7.937-56.7286,2.9673a1.4481,1.4481,0,0,0-.7692,2.79C306.4038,137.5918,327.7662,140.1205,345.8441,129.1679Z"/><path class="cls-1" d="M291.1,156.909c.9756-1.5924-1.5261-3.0476-2.4985-1.46-2.9723,4.851-10.1776,1.8636-14.6462,1.6625-1.8618-.0838-1.8576,2.81,0,2.8936C279.8159,160.2684,287.26,163.1761,291.1,156.909Z"/><path class="cls-1" d="M257.542,163.3009c-.6679-1.7166-3.467-.97-2.79.7694,3.9546,10.1627,18.217,9.8537,27.3352,11.0969,10.2172,1.3931,17.8685-3.5575,24.0353-11.3873,1.14-1.4473-.8942-3.5087-2.0461-2.0463-5.0341,6.3919-11.3859,11.5422-19.9658,10.7926-4.495-.3928-9.0491-1.3013-13.501-2.02C265.5236,169.6842,259.6783,168.791,257.542,163.3009Z"/><path class="cls-1" d="M447.71,132.3886c1.3786-1.258-.6722-3.3-2.046-2.0461-4.4087,4.0225-10.6591,3.7482-16.2348,3.4383-1.8606-.1036-1.8548,2.7905,0,2.8936C435.8817,137.033,442.6682,136.9892,447.71,132.3886Z"/><path class="cls-1" d="M427.149,151.4679c12.1608.2894,32.5155-1.7682,36.3063-16.193a1.448,1.448,0,0,0-2.79-.7693c-3.401,12.9414-22.7239,14.3256-33.5161,14.0687C425.2862,148.53,425.287,151.4236,427.149,151.4679Z"/><path class="cls-1" d="M497.3017,227.1705c3.84-3.074,7.817-11.839,8.2585-17.0743.1565-1.8556-2.738-1.8452-2.8936,0-.449,5.3238-8.0478,15.5571-11.844,18.5576-4.3675,3.452-8.7783,6.851-13.29,10.1131a173.8391,173.8391,0,0,1-26.801,16.339,97.5083,97.5083,0,0,1-32.0935,9.21c-11.47,1.1732-23.0927.8145-34.6053.8148q-3.1946,0-6.39-.0024c-.2617-3.7613-.9681-9.2286,1.354-11.5855,2.8807-2.9238,9.6238-2.6671,13.4137-2.6993,3.9247-.0337,7.8526.0442,11.7773.0737,6.4945.0487,6.9484,5.7137,8.2206,10.872.4456,1.8071,3.2368,1.0418,2.79-.7691-.9469-3.84-1.5272-12.1048-6.33-12.9125-5.8331-.981-12.8761-.352-18.7964-.1149-4.3361.1735-10.54.6841-13.8212,3.9811a5.1466,5.1466,0,0,0-1.4262,3.46,73.7664,73.7664,0,0,0-.0256,9.6932q-4.0236-.0012-8.047-.0031a1.3063,1.3063,0,0,0-.0367-1.3632c-1.9041-3.2278-4.5421-8.4913-8.1707-10.1378-1.7606-.7988-3.7816-.5788-5.6519-.5835-3.529-.0087-7.0588.0287-10.5878.0431-4.5044.0183-9.8714-.4978-14.0405,1.6081a8.7722,8.7722,0,0,0-3.4814,2.88c-1.3233,2.0628-.415,4.0838-1.2063,6.2646a1.2378,1.2378,0,0,0,.0252.9925c-4.0918-.0586-8.1839-.1111-12.2747-.1964-23.5351-.49-46.6691-3.106-68.8955-11.2471-11.1413-4.0809-21.9626-9.6386-29.79-18.7892-7.1688-8.38-11.5423-18.6816-15.5058-28.8985,12.2688,14.3734,26.351,27.59,44.0124,34.9426a68.0513,68.0513,0,0,0,29.2449,5.5049c11.0224-.5227,21.8914-3.6476,32.56-6.2424,11.4218-2.778,22.7984-5.7455,34.0992-8.982,11.9026-3.4089,23.7538-7.3158,36.136-8.5462,11.6566-1.1586,23.4908-.63,35.1855-.5779q18.3214.0816,36.6427.1635c6.0994.0273,12.62.287,19.18.2011a1.2434,1.2434,0,0,0-.5907,1.1809,51.7019,51.7019,0,0,1,.1694,7.6c-.371,3.4832-1.94,3.6255-5.0673,4.6058a104.44,104.44,0,0,1-14.7947,3.49c-4.4387.7069-11.1524,2.2818-15.6535,1.2794-5.5646-1.2391-5.8668-11.0651-6.05-15.589-.075-1.8556-2.969-1.8653-2.8936,0a45.7832,45.7832,0,0,0,1.3986,9.939c.5645,2.13,1.3936,6.3037,3.25,7.79,1.5418,1.2346,4.2637.7693,6.0846.7272a105.6519,105.6519,0,0,0,11.09-.849c7.39-.9546,15.7621-2.2622,22.5792-5.4229,4.8422-2.2451,2.9786-9.1622,2.7812-13.57a1.3794,1.3794,0,0,0-.7517-1.2092c14.2478-.3129,28.5361-2.4744,38.95-12.4344,1.3485-1.29-.7-3.334-2.0461-2.0464-14.4917,13.8606-37.2529,11.5053-55.7064,11.4228-22.7077-.1012-45.6711-1.1965-68.3511.0059-21.2473,1.1263-41.57,9.1134-62.0087,14.4158-20.99,5.4456-43.6784,13.4506-65.3421,7.57-22.6922-6.16-40.0777-22.8894-54.6781-40.525a1.3008,1.3008,0,0,0-2.2214.3789c-.93-.0617-1.8869.64-1.4653,1.7386,3.887,10.1361,7.8412,20.4571,14.1495,29.38,6.16,8.7124,14.4431,15.1088,24.0173,19.7081,21.4662,10.3115,45.6242,14.3557,69.23,15.4309,24.99,1.1384,50.1055.8845,75.1318.8525a1.6,1.6,0,0,0,1.7448-.0019c1.3451-.0009,2.6912-.0047,4.0357-.004,23.74.0115,46.7563.5885,68.8372-9.4083,11.7642-5.3261,22.5834-12.5272,32.8988-20.2423C487.7889,234.7338,492.5585,230.9677,497.3017,227.1705Zm-171.0622,37.7a1.6167,1.6167,0,0,0,.1271-.2654,17.8141,17.8141,0,0,0,.4211-2.7462c.8286-3.5137,1.7424-4.5029,5.0849-5.3549,3.8623-.9843,8.4223-.52,12.3571-.5355,3.973-.0162,8.7189-.6914,12.4732.6109,3.5412,1.228,5.5964,5.3765,7.4538,8.5395Q345.1978,265.0912,326.24,264.8707Z"/><path class="cls-1" d="M313.0625,255.0583c-4.64,1.3319-9.9107,1.7-14.6813,2.2637-8.129.961-26.5768,3.8464-27.7881-8.2892-.1833-1.8358-3.0788-1.8547-2.8937,0,1.5528,15.5565,23.2523,12.2046,33.68,10.803,5.516-.7413,14.3175-.4752,18.1213-5.4321,3.9618-5.1627,1.1437-11.7921-1.384-16.8679-.83-1.667-3.327-.2032-2.4986,1.46C318.3577,244.4979,321.2667,252.7033,313.0625,255.0583Z"/><path class="cls-1" d="M147.7269,83.5051a1.3465,1.3465,0,0,0-1.946-.5656c-6.9937,4.2239-14.5166,8.7873-20.2856,14.648-5.62,5.7095-6.577,13.106-5.8605,20.8106.6324,6.8005,2.1991,15.6629,7.46,20.5362,5.3459,4.9522,15.3082,5.3775,22.196,6.0187,14.9355,1.3906,31.4591-2.5646,38.95-16.8135,6.2694-11.9248,6.039-29.2455-2.9135-39.831C175.6012,76.808,160.16,77.5206,147.7269,83.5051Zm26.2556,54.816c-8.1195,4.2032-17.546,4.5837-26.46,3.5521a78.664,78.664,0,0,1-13.0881-2.3626c-5.6484-1.6687-8.0093-5.4588-9.75-10.7383-2.8139-8.5375-4.5293-20.6571,1.8286-28.0449,3.5494-4.1242,8.2469-7.535,13.0459-10.5944a1.2085,1.2085,0,0,0,1.9036.544c13.71-10.2532,36.6141-13.6922,45.1627,5.0763C193.3268,110.4656,188.89,130.6036,173.9825,138.3211Z"/></g></svg>