<svg id="圖層_1" data-name="圖層 1" xmlns="http://www.w3.org/2000/svg" viewBox="0 0 954.5065 502.6652"><defs><style>.cls-1{fill:#f2f2f2;}.cls-2{fill:#e6e6e5;}.cls-3{fill:#d1c9d9;}.cls-4{fill:#fff;}</style></defs><title>land-01</title><path class="cls-1" d="M647.897,368.9766l85.7989-2.41c1.89-.053,1.8977-2.9964,0-2.9431l-85.7989,2.4095c-1.89.0531-1.8977,2.9965,0,2.9432Z"/><path class="cls-1" d="M581.7,373.04c13.7361-1.745,27.5422-2.67,41.3717-3.263,1.8868-.0809,1.897-3.0245,0-2.9432-13.8295.593-27.6356,1.518-41.3717,3.263-1.8536.2355-1.8771,3.1817,0,2.9432Z"/><path class="cls-1" d="M2.1437,511.5691A202.4835,202.4835,0,0,1,83.3918,478.665a199.2535,199.2535,0,0,1,44.6379-2.4179c15.7589.9232,31.1481,4.5732,46.8445,5.9948,32.5236,2.9454,63.0016-11.2579,94.548-16.6325,33.0808-5.6361,66.7542-6.0668,100.22-6.6266,17.4548-.292,35.3971.2938,52.6485-2.7518,16.7395-2.9553,30.4659-11.2684,43.1087-22.3259,1.4284-1.2493-.66-3.3239-2.0811-2.0812-12.27,10.7318-25.5727,18.7147-41.81,21.569-16.3746,2.8784-33.425,2.3359-49.9921,2.6153-32.2.5431-64.5312.93-96.442,5.7308-15.9674,2.402-31.4466,6.3715-46.9939,10.6481-16.203,4.457-32.5327,8.2569-49.4562,7.201-15.89-.9915-31.4386-4.8661-47.3151-6.0644A200.6833,200.6833,0,0,0,89.11,474.8413,204.9563,204.9563,0,0,0,.6582,509.0277c-1.5495,1.068-.0794,3.62,1.4855,2.5414Z"/><path class="cls-2" d="M665.4,297.1278l33.5342,8.603c1.8357.4709,2.6188-2.367.7824-2.8381L666.182,294.29c-1.8357-.4709-2.6188,2.367-.7824,2.8381Z"/><path class="cls-2" d="M579.5438,294.6374A91.0519,91.0519,0,0,1,624.9848,288c1.879.2129,1.8637-2.732,0-2.9432a92.6732,92.6732,0,0,0-46.2234,6.743c-1.73.7064-.9731,3.5548.7824,2.838Z"/><path class="cls-2" d="M513.9266,336.9411c9.5284-6.6841,18.8245-13.69,28.3162-20.4257,1.5321-1.0872.0636-3.6406-1.4855-2.5413C531.2656,320.71,521.97,327.7157,512.4411,334.4c-1.5391,1.08-.07,3.6325,1.4855,2.5414Z"/><path class="cls-2" d="M280.992,462.5548c12.691-26.0672,27.5023-55.3857,53.8943-69.993,16.4063-9.0805,34.5405-8.2042,52.6612-9.6627a257.1693,257.1693,0,0,0,55.1184-10.6943c1.8045-.5563,1.0347-3.3983-.7825-2.838a254.38,254.38,0,0,1-47.8469,9.9788c-14.629,1.5663-29.7559.617-44.1167,4.1615-22.3083,5.5061-38.8985,22.4235-51.2655,40.976-7.7383,11.6088-14.1051,24.06-20.2036,36.5863-.8258,1.6961,1.7115,3.19,2.5413,1.4854Z"/><path class="cls-1" d="M747.0676,255.8763c5.3589-1.85,10.6145-1.544,13.7225,3.6486,2.563,4.2821,2.4369,9.8664-2.1383,12.6034-4.9741,2.9755-10.2966,1.0833-13.8555-3.5614C741.18,263.847,743.61,259.77,747.0676,255.8763Z"/><path class="cls-1" d="M718.7559,40.6748c5.1883-3.2837,9.2187-1.7531,12.2931,2.676,3.1517,4.5405,2.5921,8.96-1.79,12.4259-4.2322,3.3477-9.0239,3.9755-12.2741-.87C713.7091,50.0232,715.302,44.9566,718.7559,40.6748Z"/><path class="cls-1" d="M607.3914,183.7558c-5.5327,2.5545-10.4778,1.4162-14.3744-2.9226-4.0135-4.4689,1.4759-12.5922,1.4759-12.5922s9.3538-.4279,12.8572,2.5185C611.87,174.5606,609.8669,179.31,607.3914,183.7558Z"/><path class="cls-1" d="M541.0088,180.802c-4.793,1.6232-9.5881,3.0879-12.9123-1.9041-3.7333-5.6063-.2758-10.1121,3.5274-13.8041,3.7918-3.681,7.9381-2.8532,10.348,1.74C544.4105,171.482,546.37,176.5961,541.0088,180.802Z"/><path class="cls-1" d="M564.9333,30.0171c4.5978-2.9208,8.1379-1.1744,10.8345,2.66,3.73,5.3034,2.2657,9.8882-2.6079,13.6707-3.7765,2.9311-7.6534,3.9925-10.8513-.5906C558.13,39.7689,561.6337,34.85,564.9333,30.0171Z"/><path class="cls-1" d="M737.6313,135.0415c6.1116-2.4077,9.43.1368,11.4578,4.0963,2.5647,5.0079,3.0013,10.7976-2.2143,14.055-3.46,2.1609-8.9929,1.67-11.1381-2.6346C732.9728,145.0124,735.506,139.545,737.6313,135.0415Z"/><path class="cls-1" d="M849.4629,134.679c-5.3926,1.951-11.6646,4.3753-16.23-.11-4.0208-3.95-1.0339-9.0581,2.769-12.2485,5.2522-4.4062,10.0429-1.4873,13.8872,2.4369C852.7784,127.7066,852.8275,131.36,849.4629,134.679Z"/><path class="cls-1" d="M664.4957,7.9748c1.79,5.1,1.2074,9.987-2.9554,13.1759-4.6171,3.537-9.7247,1.4684-12.8845-2.3826-3.6771-4.4816-1.74-9.5566,2.5967-12.4608C655.601,3.3954,660.4259,4.47,664.4957,7.9748Z"/><path class="cls-1" d="M686.2934,21.1609c5.268-2.9617,10.1541-1.6659,14.2742,2.3771,3.08,3.0219,3.5619,6.8941-.3821,9.5078-5.0322,3.335-10.7228,5.7077-15.632-.1452C681.133,28.8225,683.6361,24.9454,686.2934,21.1609Z"/><path class="cls-1" d="M765.4991,240.8988c-4.9171,3.2786-9.5656,4.2876-12.9289-.564-3.903-5.63.3745-9.8222,3.8783-13.6929,3.2887-3.6328,6.6215-2.3066,9.3275.8308C769.8585,232.206,769.5516,236.8849,765.4991,240.8988Z"/><path class="cls-1" d="M714,129.3952c2.3561,5.1042-1.9707,14.31-1.9707,14.31s-8.1994,2.85-10.8673-1.1174c-3.234-4.8088,1.705-14.3254,1.705-14.3254S710.4723,125.8746,714,129.3952Z"/><path class="cls-1" d="M716.487,328.9509c1.8689,3.4164,4.304,8.2653-1.9608,11.155-4.1826,1.9293-9.9319,3.94-12.8636-1.6565-2.4034-4.5881-.5574-9.58,3.4964-12.9718C709.5522,321.8024,713.0412,323.8794,716.487,328.9509Z"/><path class="cls-1" d="M663.1307,184.9486c2.888,5.1413,2.0938,9.5376-2.59,12.7786-3.8851,2.6882-8.4212,3.6093-10.9788-1.3946-2.6654-5.2147-1.7849-10.9383,2.886-14.5991C656.7778,178.34,660.3986,181.3571,663.1307,184.9486Z"/><path class="cls-1" d="M789.13,118.8139c2.8186,4.0928,1.499,7.4584-1.603,10.018-5.0748,4.1875-15.611-.003-15.611-.003s-.7392-8.59,2.5793-11.1372C779.3434,113.97,784.4862,116.8558,789.13,118.8139Z"/><path class="cls-1" d="M774.4052,42.33c3.8147,6.188,2.73,10.82-2.4873,14.1966-3.9192,2.5364-8.5393,2.7922-10.9063-1.6879-2.745-5.1956,3.3591-14.334,3.3591-14.334S771.8808,39.8146,774.4052,42.33Z"/><path class="cls-1" d="M662.4731,293.1207c4.41,5.7482,2.7424,9.4828-2.0484,12.5878-4.2826,2.7755-8.4135,2.148-11.2085-1.7-4.035-5.5548-.7408-10.2,3.5533-13.6757C657.5517,286.4626,660.2926,290.727,662.4731,293.1207Z"/><path class="cls-1" d="M541.2836,45.9533c3.9024,4.986,1.25,10.0739-1.3759,13.3619-4.2246,5.289-9.056.5114-12.1937-2.3221-3.6256-3.2743-2.4889-8.5761.5059-11.6555C532.2061,41.2389,537.0524,43.396,541.2836,45.9533Z"/><path class="cls-1" d="M749.395,319.91c-4.2276,3.1875-8.4155,3.0285-11.2227-.954-2.7432-3.8917-4.58-9.1738-.2057-12.8575a9.0728,9.0728,0,0,1,12.8593,1.06C754.4141,311.29,752.0724,316,749.395,319.91Z"/><path class="cls-1" d="M660.5216,68.22c.9445,4.4294,3.7364,9.5862-.9367,13.0494-4.2692,3.1639-9.4411,1.6478-12.7269-2.2269-3.8948-4.593-1.7072-8.95,2.5987-12.0936C653.2761,64.1605,657.1952,63.8207,660.5216,68.22Z"/><path class="cls-1" d="M637.1285,127.2443c2.8815,5.6033,3.0752,10.3673-2.3317,12.8411-4.4523,2.037-10.1286,1.89-12.4672-3.0649-2.21-4.6817.8667-9.4858,4.6417-12.4029C631.4069,121.19,634.613,124.8836,637.1285,127.2443Z"/><path class="cls-1" d="M604.4274,227.4863c3.7485-3.0328,7.1556-3.5524,9.9411.2152,3.5218,4.7635,3.7994,10.1938-.3061,14.3931-3.3955,3.4732-8.7565,2.34-11.4178-.7885C598.612,236.5651,601.29,231.4813,604.4274,227.4863Z"/><path class="cls-1" d="M638.9918,244.3915c2.8479,4.37,4.2177,9.0227-.4963,12.7106-4.5789,3.5821-9.737,1.7787-12.691-2.1372-4.1641-5.52.5085-10.0868,4.1592-13.5242C633.72,237.9044,636.5755,241.4435,638.9918,244.3915Z"/><path class="cls-1" d="M664.8418,258.99c1.1093,4.5845,3.4656,9.8057-2.5584,12.39-4.5807,1.9649-10.093,1.3159-12.8267-3.1889-3.188-5.2536,1.81-9.073,4.9773-12.0322C658.4053,252.4483,662.167,254.8875,664.8418,258.99Z"/><path class="cls-1" d="M685.5112,254.9193c-4.4408,2.9254-8.6093,2.57-11.1793-1.5853-2.4609-3.9794.4-12.7321.4-12.7321s9.6237-2.5434,12.7279,1.6483C690.6178,246.5144,688.5113,251.1914,685.5112,254.9193Z"/><path class="cls-1" d="M883.6955,181.3487c1.6193,5.51,2.1393,10.6705-2.5867,13.4983a8.2222,8.2222,0,0,1-11.2914-2.5883c-2.3321-3.6069-3.4-8.3493,1.1706-11.2386C875.15,178.3887,879.828,177.923,883.6955,181.3487Z"/><path class="cls-1" d="M813.9783,277.2486c3.4028,5.126,3.2724,9.3375-.9473,12.0364-4.3543,2.785-9.6308,2.5828-13.0045-1.5381-2.9944-3.6577-1.9375-8.6159,1.5382-11.4309C805.98,272.74,810.4672,275.725,813.9783,277.2486Z"/><path class="cls-1" d="M634.893,271.49c2.6,4.4083,4.2659,8.72-.31,11.6146-4.2642,2.697-9.1708,2.8-12.3453-2.2973-2.9712-4.7709-2.0538-9.1085,2.5914-12.2756C629.65,265.2448,632.5011,268.5974,634.893,271.49Z"/><path class="cls-1" d="M583.0684,247.1908c4.5172-2.2537,8.7285-2.0914,11.06,2.5289,2.2937,4.5462,2.1966,9.9244-2.4054,12.8272a7.9849,7.9849,0,0,1-11.28-2.459C577.763,255.5287,579.5624,250.9006,583.0684,247.1908Z"/><path class="cls-1" d="M777.2087,286.7623c1.649,4.792,2.8521,10.3343-2.742,13.7358-3.17,1.9276-7.7982,1.4237-9.774-2.4976-2.59-5.1406-2.4448-10.4406,2.904-14.1848C771.5492,281.0488,774.5593,282.6916,777.2087,286.7623Z"/><path class="cls-1" d="M676.2331,215.3692c1.3244,5.0484.9255,9.919-3.4932,12.9162-4.0708,2.761-8.533,1.7733-10.69-2.8892-2.1233-4.5893-2.1-9.9915,2.7269-12.6959C668.5031,210.6124,673.048,211.6583,676.2331,215.3692Z"/><path class="cls-1" d="M601.9217,49.3944c3.4246,5.42,1.5137,10.04-3.0831,13.7529-3.659,2.955-7.1415,1.7988-9.4349-2.048-3.3208-5.57-.9944-10.7734,2.7927-14.6319C595.9642,42.6286,598.7111,47.3713,601.9217,49.3944Z"/><path class="cls-1" d="M736.6988,171.1529a11.7651,11.7651,0,0,1-.6131,14.3963c-3.1024,3.968-6.5206,1.9863-9.1564-1.34-3.6907-4.6578-5.0336-9.51-.1264-14.091C729.9856,167.1466,733.4349,167.1113,736.6988,171.1529Z"/><path class="cls-1" d="M744.6965,108.5174c1.5019,4.9986,2.534,10.0285-2.5071,13.1367-4.2143,2.5984-8.7492,1.5828-10.6168-3.242-2.0287-5.2409-1.7389-10.9744,4.0308-13.8589C739.44,102.6351,742.6614,105.1679,744.6965,108.5174Z"/><path class="cls-1" d="M719.2829,279.1943c3.5594-2.5973,6.8671-2.4206,9.426,1.2816,3.5938,5.2,2.0171,10.2445-1.9538,14.119a5.9469,5.9469,0,0,1-9.5006-1.2481C714.528,288.6035,714.485,283.3122,719.2829,279.1943Z"/><path class="cls-1" d="M857.36,194.8055c2.7029,4.7445,1.0439,8.49-3.0234,10.7093-3.4126,1.8618-7.9462,5.1741-11.1962.4172-3.5908-5.2561-.59-10.5745,3.3564-13.9613C850.4733,188.5579,854.1487,192.37,857.36,194.8055Z"/><path class="cls-1" d="M683.3746,47.6146c5.14-4.0055,8.8827-1.3287,11.3415,2.1381,2.5,3.5253,3.663,8.3149-.8419,11.4011a9.4873,9.4873,0,0,1-11.9976-.9373C677.17,55.6559,682.0331,51.4805,683.3746,47.6146Z"/><path class="cls-1" d="M613.4756,22.8688c5.14-4.0055,8.8827-1.3287,11.3414,2.138,2.5,3.5253,3.6631,8.315-.8419,11.4012a9.4871,9.4871,0,0,1-11.9975-.9374C607.2709,30.91,612.1341,26.7346,613.4756,22.8688Z"/><path class="cls-1" d="M565.9921,151.1737c-3.5082,1.7465-7.6093,3.1675-9.8029-.993-2.803-5.3166-.9305-10.3823,3.9153-13.8826,3.8609-2.7887,7.1434-1.1953,9.2551,2.528C572.228,143.8838,570.4619,147.9592,565.9921,151.1737Z"/><path class="cls-1" d="M793.3258,254.4107c2.4177,4.5,2.0637,8.5577-2.2927,11.0351-3.5634,2.0265-8.6893,4.18-11.1526-.3525-2.0456-3.7638-3.08-9.8992.9146-13.0916C784.9063,248.7159,789.6757,251.209,793.3258,254.4107Z"/><path class="cls-1" d="M768.7218,156.4323c3.761-2.8419,7.443-2.0123,9.7119,1.5007,2.63,4.073,4.609,9.23-.1611,12.9991-3.6355,2.8723-8.6682,2.6271-11.5286-1.2184C763.4018,165.2206,765.6714,160.5355,768.7218,156.4323Z"/><path class="cls-1" d="M628.8567,193.7237c.8563,4.36,4.837,9.6685-.6171,12.7141-3.9787,2.2218-9.8585,1.191-13.1684-2.6481-3.44-3.9908-.6539-8.362,2.36-11.2834C621.1558,188.8955,625.1821,190.7105,628.8567,193.7237Z"/><path class="cls-1" d="M551.5349,116.5313c-3.9681.8224-8.5692,3.5078-11.5806-.8427-3.9012-5.6362.3273-10.1877,4.0473-13.7447,5.0277-4.8072,7.3747.5524,9.4857,3.7708C556.0212,109.578,556.3371,113.6343,551.5349,116.5313Z"/><path class="cls-1" d="M793.8484,187.3361c3.0075,4.9114-.1379,8.1524-3.0681,10.9815-3.1916,3.0817-7.6549,5.1022-11.1208,1.2585-3.6853-4.087-2.0443-9.1561,1.39-12.7775C785.2169,182.4036,789.6839,184.992,793.8484,187.3361Z"/><path class="cls-1" d="M697.6206,270.7541c3.49,5.8959-.9921,8.6272-4.8912,11.4232-3.29,2.36-7,4.0018-8.8371-1.4135-1.57-4.6292-2.3669-9.7953,2.5893-13.0051C690.7907,264.968,694.5982,266.7821,697.6206,270.7541Z"/><path class="cls-1" d="M573.5082,174.3807c2.7053,4.641,1.7047,9.1124-2.2528,12.3547-3.8092,3.1208-8.1932,2.2849-10.7291-1.9257-2.6153-4.3423-2.49-9.4836,1.5287-12.8273C566.0264,168.6782,569.8146,171.9423,573.5082,174.3807Z"/><path class="cls-1" d="M567.3191,66.012c3.1557,5.9482,2.9,11.11-.8412,15.4284-3.385,3.9074-7.1407,1.4145-9.1183-1.6487-2.4333-3.7689-5.4094-8.3479-.76-12.7092C560.068,63.8287,563.9218,63.6147,567.3191,66.012Z"/><path class="cls-1" d="M827.4449,208.46c3.0623,4.3814,2.9829,8.5223-1.1706,11.3953-4.1035,2.8383-8.1939,1.4866-11.1731-2.3841-2.8617-3.7182-.0326-11.4176-.0326-11.4176S823.7938,205.9457,827.4449,208.46Z"/><path class="cls-1" d="M855.7789,159.8669c3.0623,4.3814,2.9829,8.5223-1.1706,11.3953-4.1034,2.8383-8.1939,1.4866-11.1731-2.3841-2.8617-3.7182-3.95-8.0386-.0326-11.4176C848.2834,153.25,852.1278,157.3529,855.7789,159.8669Z"/><path class="cls-1" d="M521.2084,72.7575c3.4214-2.3521,7.373-3.9666,10.1639-.6,3.8642,4.6606,2.4023,10.496-.939,14.5536-2.6145,3.175-7.51,1.5967-9.8356-1.2654C517.373,81.4772,517.1711,76.694,521.2084,72.7575Z"/><path class="cls-1" d="M717.059,2.1893c2.9161,4.965-2.5895,12.5575-2.5895,12.5575s-7.6251,2.0328-9.9183-1.3954C701.3712,8.5973,707.51.6765,707.51.6765S714.3826-1.5961,717.059,2.1893Z"/><path class="cls-1" d="M644.6232,94.3586c4.2174-2.7343,7.4968-1.6014,9.59,2.1572,2.4454,4.3912,3.4446,9.6958-1.6023,12.4429-3.5384,1.926-9.1922,1.3063-11.5292-2.415C638.2017,101.9578,640.9832,97.5305,644.6232,94.3586Z"/><path class="cls-1" d="M605.7619,139.3261c2.858,4.8389,2.0693,9.0872-2.3947,12.3806-3.7283,2.7507-8.3241,3.908-10.7745-.8635-2.4543-4.7789,1.1471-9.174,4.1053-12.7064C599.7755,134.462,603.1371,135.7431,605.7619,139.3261Z"/><path class="cls-1" d="M700.0693,104.3637c2.9356,4.3517,2.007,7.9185-2.4914,10.3466-3.9724,2.1442-8.9826,2.5639-11.4306-1.0761-2.9227-4.3457-.5959-9.1337,3.555-12.2064C694.1582,98.1294,697.4272,100.4637,700.0693,104.3637Z"/><path class="cls-1" d="M598.0473,202.5219c2.0582,4.5616-2.8641,11.0558-2.8641,11.0558l-11.7233-.4072,3.0658-12.0792S594.5949,199.3454,598.0473,202.5219Z"/><path class="cls-1" d="M650.794,222.721c2.1936,4.7765,2.592,9.3844-.9463,12.2917-3.6309,2.9833-8.1584,2.29-10.8745-2.1193-2.6613-4.3209-3.7017-9.56.8844-12.7143C643.6813,217.5488,647.8325,220.2752,650.794,222.721Z"/><path class="cls-1" d="M720.5031,192.17c2.7319,4.1325,5.2095,8.7525-.03,12.2781-3.3719,2.269-8.3085,3.35-11.0178-1.4287-2.5454-4.489-1.6361-9.3665,1.9619-12.9791C715.0775,186.3648,717.9719,189.2183,720.5031,192.17Z"/><path class="cls-1" d="M756.3821,198.573c2.3082,4.6395.9173,8.3873-3.0258,11.1757-3.8778,2.7422-8.3828,3.7143-11.0716-1.0716-2.0882-3.717-2.8492-8.608,2.2883-11.0953C748.4458,195.7068,752.7393,194.731,756.3821,198.573Z"/><path class="cls-1" d="M830.6127,241.0287c2.1578,4.1979,1.86,8.5608-1.3176,11.6193-3.5021,3.37-8.5561,2.3871-11.45-.6277-3.7175-3.8734-2.8692-9.2459,1.207-12.4911C822.6735,236.6466,826.9749,238.3428,830.6127,241.0287Z"/><path class="cls-1" d="M700.7168,315.8237c-4.1141,1.8361-7.6935,1.8179-9.699-2.523-2.3128-5.0063-.8783-9.5389,3.0767-13.0887,4.0566-3.641,7.115-1.1637,8.762,2.5895C704.8829,307.42,705.06,312.2106,700.7168,315.8237Z"/><path class="cls-1" d="M676.5994,337.4137c-4.1141,1.8361-7.6934,1.818-9.6989-2.523-2.3129-5.0062-.8783-9.5389,3.0766-13.0887,4.0567-3.641,7.1151-1.1637,8.7621,2.59C680.7656,329.01,680.9423,333.8007,676.5994,337.4137Z"/><path class="cls-1" d="M585.1148,124.8886c-3.9783,1.97-8.9619,2.5758-11.3093-1.219-2.7154-4.39-.3268-9.18,3.9078-12.2905,3.7721-2.7713,7.0569-1.5469,9.265,2.1563C589.3977,117.5931,589.1237,121.5318,585.1148,124.8886Z"/><path class="cls-1" d="M695.09,185.4837c3.2378,4.7112.9561,8.5921-2.3135,11.3339A7.7507,7.7507,0,0,1,681.35,195.771c-2.9745-3.904-.1462-8.6828,2.47-11.5388C687.3424,180.3867,691.5669,183.0945,695.09,185.4837Z"/><path class="cls-1" d="M513.6314,149.2919c2.8761,4.4405,3.72,8.9323-1.1074,12.4273a6.8292,6.8292,0,0,1-9.86-1.4341c-3.57-4.5455-1.6516-9.1651,1.7171-12.7708C507.8891,143.7592,510.9289,146.5242,513.6314,149.2919Z"/><path class="cls-1" d="M706.497,162.4517c1.6976,4.0981,3.3982,9.187-1.6825,12.1279-3.8906,2.252-8.552.3833-10.9409-3.5682-2.549-4.2165-.8952-8.1432,2.9689-10.9578C700.6181,157.3034,703.6917,158.5854,706.497,162.4517Z"/><path class="cls-1" d="M659.5445,38.5613c1.5333,4.5234,2.0751,9.3838-2.3486,12.5912-3.61,2.6173-7.043.2854-9.4161-2.8094-2.7895-3.6378-4.0719-7.9627.3543-10.9511C651.6038,35.0494,655.96,34.2742,659.5445,38.5613Z"/><path class="cls-1" d="M847.4825,221.7192c4.0508-2.3587,8.8268-3.0435,11.7494.4714,2.8536,3.4318,1.603,8.7577-1.0706,11.9282-3.46,4.1025-8.1054,1.7884-11.2332-1.129C843.16,229.4751,844.065,225.3529,847.4825,221.7192Z"/><path class="cls-1" d="M650.0567,327.7815c1.191,5.0038,3.6356,9.584-1.927,11.9267-3.9,1.6424-9.0384,2.7-11.1033-2.29-1.86-4.4964-1.0544-9.7378,3.9343-12.4278C645.0878,322.7649,647.6553,326.2238,650.0567,327.7815Z"/><path class="cls-1" d="M721.7619,251.6809c2.101,5.6282,3.3887,11.0652-.7985,15.2224-2.6694,2.65-7.3274,2.8707-9.5364-1.0253-2.8272-4.9863-1.8678-10.2668,2.3613-14.274C716.3357,249.19,719.3922,249.4589,721.7619,251.6809Z"/><path class="cls-1" d="M815.25,151.25c-4.76,1.9137-8.3171-.5549-10.9391-3.7956-3.1116-3.8458-2.362-8.0329,1.7616-10.8629,3.4643-2.3775,7.365-1.8763,9.8284,1.469C819.036,142.3177,818.1405,146.909,815.25,151.25Z"/><path class="cls-1" d="M799.2822,91.1286c-4.76,1.9137-8.3172-.5549-10.9391-3.7956-3.1116-3.8458-2.362-8.0329,1.7616-10.8629,3.4643-2.3775,7.365-1.8763,9.8284,1.469C803.0682,82.1967,802.1727,86.788,799.2822,91.1286Z"/><path class="cls-1" d="M732.9931,226.1673c2.7125,4.9295,1.8412,9.1477-2.739,12.3723-3.5592,2.5059-7.692,2.1583-9.7568-1.3261-3.3621-5.6734.8549-10.0279,4.6814-13.4612C728.2262,221.0179,730.9572,223.4067,732.9931,226.1673Z"/><path class="cls-1" d="M764.6432,67.1592c2.1334,4.1393,3.1243,8.3652-1.9648,10.7074-3.8437,1.7691-8.5819,2.669-10.7555-2.58-1.6685-4.0295-1.4629-8.7649,2.2227-11.5326C758.5793,60.4245,761.86,63.7791,764.6432,67.1592Z"/><path class="cls-1" d="M620.0819,111.8229c-3.239,2.0609-9.2873-.5558-9.2873-.5558l2.2265-12.8913,8.9447,2.6867S624.2489,108.843,620.0819,111.8229Z"/><path class="cls-1" d="M726.75,87.0877c-4.1094.9676-8.91,2.5259-11.1106-2.516A9.2272,9.2272,0,0,1,718.59,73.069c5.2328-3.6151,7.6268,1.1767,9.8423,4.6105C730.5861,81.0183,731.4339,84.6354,726.75,87.0877Z"/><path class="cls-1" d="M706.9,217.7143c1.7543,3.51,2.6042,7.3551-1.2656,9.6309-4.303,2.5306-9.0772,2.8572-12.2521-2.1887-2.5262-4.0148-.1689-6.8392,2.9538-9.1847C700.42,212.9047,703.9886,213.3489,706.9,217.7143Z"/><path class="cls-1" d="M816.3612,172.5638c3.9216-1.8226,7.6731-1.8194,9.5553,2.439,1.7646,3.9921,2.6207,8.7515-2.6629,10.9487-3.4451,1.4326-8.0661,1.7225-10.0853-2.0327C810.951,179.7952,812.9007,175.6694,816.3612,172.5638Z"/><path class="cls-1" d="M664.5519,156.599c4.23-2.9626,7.7876-2.26,10.24,1.2265,2.7069,3.8478,2.8645,8.7171-.8131,11.6415-3.0573,2.431-7.4343,1.0521-10.2654-1.73C659.5411,163.6363,663.0631,159.9543,664.5519,156.599Z"/><path class="cls-1" d="M667.8551,125.4565c3.4627,5.04,5.556,9.478.9656,13.6643-3.081,2.81-5.8475.806-8.1174-1.8085-3.7105-4.2738-.1045-12.9071-.1045-12.9071S666.09,124.3976,667.8551,125.4565Z"/><path class="cls-1" d="M639.3528,169.3666c-3.4183,1.811-7.3457,3.2493-9.7867-.6527-2.809-4.49-1.5816-9.303,2.5349-12.5743,3.1909-2.5359,5.8334-.2077,7.9093,2.3834C643.0343,162.2975,643.78,165.9959,639.3528,169.3666Z"/><path class="cls-1" d="M584.37,78.433c3.4951-2.3548,7.2-3.1671,9.1757,1.3809,1.728,3.9775,1.5324,8.6364-2.1964,11.5649-3.65,2.8669-7.1267.6868-9.5356-2.3951C578.42,84.6422,580.2751,81.1774,584.37,78.433Z"/><path class="cls-1" d="M684.5415,77.27c3.9893-2.4963,7.0689-1.1848,9.2586,2.4954,2.0739,3.4856,2.6352,7.6463-1.3729,9.6331-3.821,1.8941-8.635,1.6065-11.1664-2.71C678.9872,82.811,681.4545,79.7356,684.5415,77.27Z"/><path class="cls-1" d="M798.2242,234.7821c-4.156,1.6695-7.69,1.2939-9.31-1.6369-2.3323-4.2194-3.3638-9.209,1.0744-13.0134,3.1877-2.7325,5.98-.8238,7.938,1.9778C800.9793,226.478,800.3119,230.8811,798.2242,234.7821Z"/><path class="cls-1" d="M617.426,302.7322c3.9861-2.1706,7.3216-1.0243,9.3808,2.5384,2.2289,3.8562,2.5782,8.5377-1.373,11.234a6.833,6.833,0,0,1-9.671-2.2395C613.3181,310.343,614.6723,306.2871,617.426,302.7322Z"/><path class="cls-1" d="M626.1009,78.1318c-4.2423,1.58-7.6482-.2549-9.631-3.3992-2.897-4.594.0426-8.0746,3.8521-10.5,2.6663-1.6974,6.4727-3.3068,8.1373.55C630.4022,69.2859,628.9882,74.0242,626.1009,78.1318Z"/><path class="cls-1" d="M529.6559,130.5793c3.694-2.1629,7.5723-2.5636,9.5912,1.39,1.9634,3.8449,1.61,8.5516-2.3381,11.2411-3.24,2.2074-7.8541,1.8491-9.854-1.42C524.723,137.9794,526.5243,133.7448,529.6559,130.5793Z"/><path class="cls-3" d="M811.95,515.453c7.7928-13.8453,15.6127-27.82,20.8638-42.87,5.3731-15.3994,6.7592-31.0193,5.7364-47.2337-2.26-35.8289-6.4068-71.6258-9.6706-107.3772-.1708-1.8708-3.1156-1.8887-2.9432,0,3.1538,34.5467,6.7894,69.0885,9.4118,103.6794,1.2567,16.5765.4922,32.63-4.81,48.5036-5.1538,15.43-13.1815,29.6913-21.13,43.8128a1.4727,1.4727,0,0,0,2.5414,1.4855Z"/><path class="cls-3" d="M812.4327,254.0724c1.8124-11.2589-7.5826-19.1821-17.6053-21.7409-11.8379-3.0221-26.7561-4.3493-37.7475,1.7219-12.3934,6.8457-19.0124,17.6685-24.5924,30.2379-5.8794,13.2439-13.087,26.4324-14.59,41.05-.8117,7.8936-.8864,15.8924-1.22,23.8162-.2448,5.81-.6459,11.9114,1.2063,17.5239,1.2164,3.6861,3.97,9.1064,8.6022,8.7886,2.6213-.18,4.7127-2.0884,6.7525-3.523a54.22,54.22,0,0,1,11.0511-5.7677c28.577-11.5384,59.8533-18.7382,84.723-37.8408,5.4084-4.1544,7.4362-10.3473,9.0746-16.78,1.7658-6.9334,2.9867-14.9391,1.8566-22.0648-.9955-6.2773-6.7481-10.5432-11.86-13.6668-4.5673-2.7912-11.7563-6.9932-16.9348-3.6932-1.5927,1.015-.1181,3.5633,1.4855,2.5414,4.9807-3.1739,13.9913,3.4059,17.7843,6.3585,2.0787,1.6181,4.4236,3.4628,5.677,5.8494,1.866,3.5532,1.3015,8.87,1,12.7633a64.6427,64.6427,0,0,1-3.6783,17.15c-2.4849,6.7892-6.9573,9.9732-12.839,13.8088-20.8423,13.5917-44.9349,20.8378-68.1111,29.3782-4.371,1.6107-8.7921,3.1406-13.0333,5.0774a48.5083,48.5083,0,0,0-7.0282,3.8761,29.42,29.42,0,0,1-2.6053,1.903q-1.8331,1.9664-4.23.0291a3.1911,3.1911,0,0,1-3.6069-2.0811c-2.7968-3.9826-2.6153-10.1663-2.5261-14.7859.1231-6.3711.51-12.75.7909-19.1157.2622-5.9352.5561-11.9123,1.9721-17.7058,1.4872-6.0853,4.1281-11.7958,6.658-17.5,4.6642-10.5156,8.5089-22.5862,15.8625-31.5938a47.0211,47.0211,0,0,1,14.5435-11.88c6.5929-3.43,13.5055-3.4973,20.7294-2.9323,11.2856.8827,32.2154,3.7689,29.6,20.0158-.2982,1.8529,2.5374,2.65,2.8381.7824Z"/><path class="cls-3" d="M768.8633,141.213c5.726,7.926,7.3985,17.485,12.5565,25.6654,5.2064,8.2572,10.6322,16.18,14.9413,24.9767a165.3617,165.3617,0,0,1,16.0912,58.0964c.1661,1.8719,3.1108,1.8894,2.9432,0a169.5267,169.5267,0,0,0-15.0241-56.5031,194.0128,194.0128,0,0,0-14.9768-25.8747c-5.8658-8.7923-7.7677-19.2332-13.99-27.8462-1.0989-1.5211-3.6533-.0536-2.5414,1.4855Z"/><path class="cls-3" d="M696.4269,161.7242c8.2562-8.3382,21.5052-7.6072,32.3208-9.109q9.6386-1.3384,19.1346-3.5048c4.8989-1.12,11.0123-1.932,15.24-4.9092,7.504-5.2841,6.6874-18.1974,6.7087-26.1954.027-10.1088-1.9369-19.5983-9.6231-26.6779-6.9657-6.4161-16.1424-9.9162-24.9221-13.0568-11.15-3.9883-22.8451-7.2628-34.7865-7.12-10.4984.1258-21.2964,2.88-29.6838,9.4137-9.1731,7.1461-11.1626,17.7434-13.2744,28.6027-2.6248,13.4966-5.52,27.7008-6.05,41.4664-.5167,13.4158,5.267,25.5954,11.0887,37.3248.6125,1.234,2.2866.7355,2.69-.3515,4.9942-13.4661,19.0626-21.3041,31.826-26.1942,1.7509-.6708.9908-3.5174-.7824-2.838-13.8555,5.3085-28.4727,13.6656-33.8816,28.25l2.69-.3515c-5.038-10.15-10.2422-20.7036-10.7069-32.2415-.4416-10.9635,2.252-22.4951,4.013-33.2879,1.6406-10.0545,2.5331-22.7113,8.074-31.5109,6.0262-9.57,18.3358-14.08,29.12-15.0854,10.894-1.0154,21.7334,1.1918,32.0836,4.4579,8.8235,2.7844,18.0143,5.9036,25.7885,11.03,9.506,6.2687,13.232,15.2293,13.389,26.4408a106.2479,106.2479,0,0,1-.8221,15.6031c-.937,6.9516-3.9923,10.4729-10.8676,12.3833a232.84,232.84,0,0,1-37.1214,6.6586c-8.6092.9427-17.3786,2.3106-23.7262,8.7214a1.4724,1.4724,0,0,0,2.0811,2.0811Z"/><path class="cls-3" d="M875.1063,233.9638q1.1406,30.1946.064,60.4c-.0675,1.8943,2.8758,1.8916,2.9432,0q1.0767-30.1968-.064-60.4c-.0713-1.888-3.0149-1.8973-2.9432,0Z"/><path class="cls-3" d="M861.0372,144.9181a45.4326,45.4326,0,0,0-31.5423-2.2909c-10.1017,3.0446-15.18,9.2379-17.7507,19.3239-2.6892,10.55-2.91,20.2893,4.76,28.61,7.8148,8.4779,16.2032,16.5767,25.9263,22.8395,9.6092,6.1893,20.0572,10.9261,29.7709,16.9382a84.4706,84.4706,0,0,1,13.2514,9.8682c2.609,2.4311,5.0715,6.0751,9.0792,5.8091,4.22-.28,6.855-4.0176,7.756-7.8122,1.4224-5.99,1.0354-12.7881,1.3831-18.9135.72-12.6833,2.1948-25.6506,1.0152-38.3439-1.0879-11.7059-5.0612-23.4555-14.094-31.4308-8.7111-7.6914-20.7479-10.0688-31.4366-5.28-1.7255.773-.23,3.31,1.4855,2.5414,9.9667-4.4651,21.26-1.5534,28.9839,5.8476,7.5,7.1866,10.9581,17.332,12.0282,27.4526,1.0044,9.5.2163,19.1012-.3232,28.6053l-.8759,15.43c-.268,4.7213.9791,17.6175-5.367,18.872-3.7706.7454-7.8462-5.2346-10.4428-7.3964a93.4055,93.4055,0,0,0-9.6485-6.9708c-7.0069-4.4593-14.4511-8.1695-21.7015-12.2048a116.0445,116.0445,0,0,1-22.2382-15.478c-7.0723-6.4627-17.7328-14.5858-18.1511-24.8129-.4313-10.5444,2.65-24.3537,13.0489-29.0408,10.6139-4.784,23.0549-4.2824,33.598.3788,1.7167.759,3.216-1.7762,1.4855-2.5414Z"/><path class="cls-3" d="M821.5027,487.9745c-3.32.3276-7.208.8359-10.2535-.8888-3.0375-1.72-4.4067-5.5458-5.5444-8.6143-2.4158-6.516-3.5794-13.454-4.5439-20.31a143.5229,143.5229,0,0,1,.3479-44.01c1.7884-10.8675,3.072-22.5256-3.9242-31.9062a27.9368,27.9368,0,0,0-24.6313-11.1939c-10.9848.9637-22.9512,6.5408-32.3739,12.0828a34.1605,34.1605,0,0,0-10.4781,8.8906c-3.7071,5.0548-4.7192,11.1719-5.55,17.2427-.698,5.1007-1.3736,10.413.337,15.3934,1.8408,5.36,6.0521,9.4293,7.7978,14.8712,1.7509,5.4579,2.8864,10.5277,5.7649,15.5584,3.4994,6.1159,7.44,12.0147,11.1739,17.99,3.2329,5.1729,6.3056,10.7179,11.2125,14.5172,4.8311,3.74,10.89,6.0241,16.74,7.6331,6.1473,1.691,13.15,2.9314,19.5221,2.1032,7.236-.94,13.4854-5.852,20.9757-4.9327,1.8755.23,1.8588-2.7151,0-2.9432-5.0182-.6159-9.3165,1.1443-13.94,2.8645-6.689,2.4888-13.0017,2.6293-20.0055,1.375a60.2244,60.2244,0,0,1-16.34-5.2563c-6.2668-3.15-10.0685-8.0009-13.7277-13.814-6.1808-9.819-14.3233-20.0009-17.354-31.3269a43.6358,43.6358,0,0,0-5.4628-13.1162c-3.6461-5.6978-4.8977-10.4617-4.217-17.2492.6109-6.0926,1.37-12.9895,4.7908-18.2423,3.2028-4.9186,8.3706-8.1421,13.4809-10.7828,10.3524-5.3494,24.1744-12.3961,36.1178-9.28,11.9208,3.1106,18.7685,13.9658,18.6655,25.8992-.1042,12.0575-3.6594,23.7556-3.5977,35.9006.0661,13.0313,1.4663,27.0548,5.2916,39.5562,1.3211,4.3173,2.9192,9.6463,6.5426,12.6452,3.6739,3.0407,8.7479,2.7246,13.1837,2.287,1.8676-.1843,1.8867-3.1294,0-2.9432Z"/><path class="cls-3" d="M840.1026,446.6214c2.159-5.9158.83-11.8333.7734-17.9513a46.9549,46.9549,0,0,1,5.55-22.5371c2.9113-5.4416,6.4964-10.3587,8.5325-16.2452a65.845,65.845,0,0,0,3.171-17.31c1.365-21.1173-7.4718-63.9759,22.1519-69.1711,8.24-1.4452,16.6934-.884,23.3995,4.4724a64.2439,64.2439,0,0,1,6.9087,6.4759c2.39,2.57,4.1824,5.9116,6.8046,8.2161,3.3752,2.9661,9.0084,2.5306,13.1829,3.6419,6.5971,1.7563,13.2622,4.9377,17.1637,10.786,3.8767,5.8111,4.0828,13.04,3.6275,19.7713A86.2079,86.2079,0,0,1,947.72,377.628a36.6268,36.6268,0,0,1-9.6991,15.8764c-5.5908,5.1521-12.672,8.8819-19.05,12.9747-14.2654,9.1536-28.2984,19.2608-43.1608,27.4212-6.7547,3.7088-13.4275,5.1814-20.9239,6.3413-6.1629.9534-11.8884,2.2714-16.8507,6.2155-1.4823,1.1781.6126,3.2484,2.0811,2.0812,5.92-4.705,13.6-5.0367,20.7542-6.2554a54.4313,54.4313,0,0,0,18.6572-7.1219c14.4851-8.52,28.4218-18.1155,42.5652-27.1908,11.6755-7.4918,22.649-13.8347,27.7191-27.4282a78.6863,78.6863,0,0,0,4.053-18.9441c.7276-6.6043,1.2327-13.5811-.7642-20.0242-3.5779-11.5443-14.85-17.09-25.9831-19.1465-1.5524-.2867-3.2644-.3132-4.7794-.7248-2.3943-.6505-3.9705-2.6711-5.527-4.5417a89.4058,89.4058,0,0,0-7.1672-7.9506c-4.4941-4.2532-9.3764-8.2108-15.7044-9.0051-11.6971-1.4683-24.8708.781-31.54,11.4327-7.0324,11.2313-7.3662,25.4829-7.1913,38.3024.2324,17.0318,1.2348,33.8113-7.9044,48.9558-4.1328,6.8484-7.5067,13.6289-8.7539,21.6232-1.292,8.2817,1.5983,17.42-1.2849,25.32-.65,1.7821,2.1929,2.55,2.8381.7824Z"/><path class="cls-1" d="M448.7536,421.57q-3.2247-41.579-3.4159-83.3025l-1.4716,1.4716a121.5079,121.5079,0,0,1,38.3429,11.4371c1.6954.828,3.189-1.7094,1.4855-2.5413a125.9015,125.9015,0,0,0-39.8284-11.839,1.483,1.483,0,0,0-1.4716,1.4716q.19,41.7035,3.416,83.3025c.1455,1.8762,3.09,1.8919,2.9431,0Z"/><path class="cls-1" d="M446.6867,341.4364c14.289,15.011,28.2628,30.2145,37.7305,48.8383,8.8675,17.443,14.9452,36.2522,26.1261,52.47,1.0682,1.5493,3.62.0792,2.5414-1.4855-11.5011-16.6819-17.5942-36.108-26.8927-53.9612-9.4841-18.21-23.3767-33.1853-37.4242-47.9425-1.3085-1.3747-3.3875.7087-2.0811,2.0811Z"/><path class="cls-1" d="M447.8169,385.7118a96.2852,96.2852,0,0,1,36.4248.4526c1.8489.3772,2.64-2.4591.7824-2.8381a100.3782,100.3782,0,0,0-37.99-.4526c-1.8615.3329-1.0727,3.17.7824,2.8381Z"/><path class="cls-1" d="M487.3565,386.6012a23.4891,23.4891,0,0,0-.613-8.8024,1.4729,1.4729,0,0,0-2.8381.7824,21.2857,21.2857,0,0,1,.5079,8.02c-.2277,1.8761,2.7175,1.86,2.9432,0Z"/><path class="cls-1" d="M503.0066,384.8835a128.6664,128.6664,0,0,0-2.3816,33.89c.1177,1.8814,3.0617,1.8947,2.9432,0a125.64,125.64,0,0,1,2.2765-33.1073c.3773-1.849-2.459-2.64-2.8381-.7824Z"/><path class="cls-1" d="M502.2858,421.3035c-19.6642-5.6983-39.1851-17.5831-58.7213-4.6831-1.5738,1.0392-.1013,3.5891,1.4855,2.5414,18.7307-12.3681,37.699-.4549,56.4534,4.98a1.4729,1.4729,0,0,0,.7824-2.8381Z"/><path class="cls-1" d="M562.0485,405.67c10.7745,15.8693,13.364,35.2215,20.1063,52.8348.67,1.7512,3.5169.991,2.838-.7824-6.8335-17.8516-9.4818-37.4525-20.4029-53.5379-1.058-1.5582-3.6092-.0873-2.5414,1.4855Z"/><path class="cls-1" d="M542.9191,438.84a65.272,65.272,0,0,1,8.0074-17.4293c3.4113-5.1762,7.7509-9.61,10.6385-15.1343.8765-1.6769-1.6626-3.1666-2.5414-1.4855-3.1306,5.9889-7.9507,10.8021-11.5228,16.5114a67.9044,67.9044,0,0,0-7.42,16.7553c-.5408,1.8194,2.2987,2.5967,2.838.7824Z"/><path class="cls-3" d="M672.6959,505.4983c2.0221-20.0854-5.7837-39.1245-15.7945-56.114-5.2681-8.9406-11.1546-17.4949-16.6489-26.2943-5.6306-9.0176-10.4191-18.4054-15.18-27.8989-7.9479-15.8481-17.3-32.5218-33.3748-41.3907-4.1-2.2622-8.5089-3.8876-12.68-6.0047a64.4216,64.4216,0,0,1-12.95-9.0405,128.3317,128.3317,0,0,1-19.3787-20.9875,119.93,119.93,0,0,1-22.901-58.2292c-.1951-1.8649-3.14-1.8849-2.9432,0,3.546,33.8845,22.5682,68.2012,51.07,87.4967,8.2149,5.5613,17.9692,7.9987,25.736,14.3525,7.2862,5.9608,12.9349,13.6735,17.6644,21.7489,5.3276,9.0966,9.6035,18.7511,14.5741,28.0384,5.0381,9.4137,10.9525,18.3,16.7294,27.2672,12.9623,20.12,25.6346,42.221,23.1343,67.0561-.1895,1.8829,2.755,1.87,2.9432,0Z"/><path class="cls-3" d="M524.1529,259.9734c-1.7682-10.2216,13.464-9.6981,19.7169-8.5919a38.86,38.86,0,0,1,15.038,5.9818,29.0676,29.0676,0,0,1,11.0937,13.6712c2.3107,6.1961,2.4357,12.9969,3.9788,19.3913,3.147,13.0406,9.2766,25.439,14.4082,37.7818l16.1845,38.928c.7166,1.7238,3.5656.9676,2.838-.7824l-20.5984-49.5447c-3.2455-7.8063-6.7189-15.5858-9.0728-23.7213-2.2859-7.9-2.2177-16.5007-5.4053-24.1151-4.5051-10.7613-15.1491-17.8128-26.31-20.1614-8.8389-1.86-27.06-1.6413-24.71,11.9452.3222,1.8627,3.159,1.073,2.838-.7825Z"/><path class="cls-3" d="M637.7911,417.107c-5.1454-37.488-26.3768-75.3608-15.8163-113.7851,2.1614-7.8641,6.1825-19.3233,14.9672-21.9734,10.7991-3.2577,17.06,9.8508,18.5414,18.3086,1.77,10.1083-.3848,20.4525-2.7922,30.2689-2.3516,9.589-4.8386,19.1147-6.671,28.8238a332.1549,332.1549,0,0,0-5.6439,67.2225c.0321,1.8919,2.9753,1.8978,2.9432,0a327.9841,327.9841,0,0,1,6.64-72.01c4.0359-19.5094,13.9619-41.8529,6.5768-61.7014-2.4293-6.5292-7.5659-13.3622-14.9968-14.2241-7.3061-.8475-13.0681,4.4943-16.621,10.3181-9.931,16.2788-9.831,37.6231-7.0822,55.8261,3.7761,25.0057,13.6734,48.6229,17.1164,73.7081.2564,1.8681,3.0927,1.0728,2.8381-.7825Z"/><path class="cls-3" d="M629.4187,411.1024C618.4236,405.3263,609.69,396.6312,600.8,388.13a188.45,188.45,0,0,0-26.8842-21.5646A363.8678,363.8678,0,0,0,541.2918,347.74c-10.1788-5.2609-20.9871-9.9323-32.5168-10.9783-7.94-.72-19.0419-.5472-21.775,8.6252-2.5615,8.5962-2.745,20.7139.9365,28.9932,4.1517,9.3367,14.2251,12.8492,23.0823,16.3821,12.1455,4.8444,24.7207,8.51,37.3168,11.9723,30.2814,8.3241,60.6219,16.4385,90.9334,24.6526a1.4728,1.4728,0,0,0,.7824-2.838L568.36,405.1217c-22.5859-6.1206-46.6925-11.1968-67.6022-22.0537-10.6147-5.5114-12.9026-15.3131-12.2356-26.4944.34-5.7045.1361-13.6084,6.5551-15.9034,5.3122-1.8992,12.0664-1.3734,17.5123-.4606,11.053,1.8527,21.295,6.8565,31.0824,12.1126,9.772,5.2478,19.4793,10.6986,28.758,16.7847a198.8336,198.8336,0,0,1,28.64,23.3639c8.27,7.9439,16.6334,15.7991,26.8629,21.1729,1.6753.88,3.1647-1.6592,1.4854-2.5413Z"/><path class="cls-3" d="M677.3743,507.6074c.707-18.243,1.7047-36.5017,2.0924-54.7541a78.1994,78.1994,0,0,0-3.02-24.4429c-1.0978-3.645-2.588-7.0945-3.9978-10.62-2.1812-5.4551-2.12-10.0392,1.0154-15.1375,4.4047-7.1612,13.7329-17.1423,22.7005-11.8351,6.4415,3.8121,11.4827,11.3676,14.8494,17.8455,7.1992,13.8523,8.905,30.2023,6.4775,45.492-3.0357,19.12-11.8008,36.6828-21.7882,53.0543-.989,1.6213,1.5554,3.1018,2.5414,1.4855,18.04-29.5717,32.4163-66.6592,15.9659-100.2157-5.784-11.7986-18.49-29.1749-32.761-18.7459-5.8566,4.28-12.5605,11.6509-13.5759,19.13-.4711,3.4695.5312,6.6974,1.7937,9.8906a107.0242,107.0242,0,0,1,5.1,14.7367c2.8113,11.8862,1.5981,24.176,1.13,36.2519l-1.4674,37.8646c-.0734,1.8941,2.87,1.8909,2.9432,0Z"/><path class="cls-3" d="M689.9155,412.7127a149.9978,149.9978,0,0,1,6.4116,39.5726c.3062,12.7486.1714,27.6085-6.3815,38.9245a1.4727,1.4727,0,0,0,2.5414,1.4855c6.5414-11.2963,6.95-25.8365,6.8152-38.5644a152.38,152.38,0,0,0-6.5486-42.2006c-.5434-1.81-3.3849-1.0386-2.8381.7824Z"/><path class="cls-3" d="M639.7022,298.02c-7.6421,10.5455-7.6565,25.9061-9.3343,38.34a449.3828,449.3828,0,0,0-4.2226,46.1493c-.0587,1.8945,2.8845,1.8926,2.9432,0a432.1875,432.1875,0,0,1,3.8147-43.0914c.9664-7.3283,1.9668-14.66,3.0914-21.9657.9863-6.4064,2.3807-12.6088,6.249-17.9467,1.113-1.5359-1.4393-3.0064-2.5414-1.4855Z"/><path class="cls-3" d="M537.1691,265.4c8.5022,16.1008,16.6168,32.4943,25.7887,48.2286,7.871,13.5025,17.1457,26.153,29.8393,35.5,1.5266,1.1242,2.9962-1.4289,1.4855-2.5413-13.1437-9.6785-22.42-23.1845-30.3819-37.2278-8.459-14.9194-16.1825-30.28-24.19-45.445-.8848-1.6755-3.4261-.19-2.5414,1.4855Z"/><path class="cls-3" d="M518.5979,357.7017a280.461,280.461,0,0,0,108.1809,53.5939c1.8387.4549,2.6231-2.3827.7824-2.8381a277.1129,277.1129,0,0,1-106.8821-52.8369c-1.4632-1.1749-3.5586.8947-2.0812,2.0811Z"/><path class="cls-3" d="M712.1525,508.7129c6.2182-6.4626,11.9213-13.4061,17.9983-20,5.6443-6.1239,12.1091-12.3662,20.4981-14.2652,8.43-1.9083,21.795,1.9507,21.2664,12.9639-.25,5.2168-8.3369,8.6654-12.2542,10.9733-3.95,2.3269-8.0072,4.4461-12.14,6.428-1.7072.8188-.2159,3.3574,1.4855,2.5414a157.72,157.72,0,0,0,16.5339-9.1188c3.4759-2.2128,8.2512-4.5288,9.1777-8.9572,1.8-8.6041-6.6379-16.3875-14.2807-17.9263-9.5458-1.922-18.578,2.4766-25.6313,8.5935-9.1448,7.9309-16.3615,17.9829-24.7352,26.6859-1.3137,1.3652.7648,3.4492,2.0811,2.0811Z"/><path class="cls-3" d="M748.8129,488.4327c-5.909,3.6245-11.94,7.1073-17.726,10.9265-4.0507,2.6739-7.6263,5.7251-9.8568,10.113-.8565,1.6849,1.6819,3.1762,2.5414,1.4855,2.4684-4.856,6.7269-7.8,11.2458-10.6081,5.0757-3.1536,10.1873-6.2511,15.2811-9.3755,1.612-.9887.1351-3.5354-1.4855-2.5414Z"/><path class="cls-3" d="M669.4126,505.0686c-6.0023-6.6541-6.8127-16.5322-9.6411-24.7288-2.6123-7.5705-5.4151-15.51-9.2688-22.5544a29.1311,29.1311,0,0,0-14.0179-13.1583c-4.8629-2.12-13.7184-4.7115-18.8833-2.2921-4.8467,2.2705-6.76,9.8749-7.075,14.6632A33.2453,33.2453,0,0,0,615.87,476.61c4.04,6.4171,9.6964,11.59,15.53,16.3447,7.3943,6.027,15.006,11.8,22.5171,17.6808,1.4747,1.1546,3.5718-.9141,2.0812-2.0811-10.9253-8.5534-23.0946-16.5731-32.4965-26.8547-5.1627-5.6458-9.1648-12.4433-9.9528-20.1814a23.6432,23.6432,0,0,1,.9924-9.9454c.8-2.35,2.46-6.04,4.9717-6.82,1.4734-.4572,3.5284-.1608,5.0207-.0448,6.9647.541,14.074,3.0667,18.9637,8.2194,5.1683,5.4463,7.6347,13.0731,10.3356,19.9171a181.3522,181.3522,0,0,1,6.3523,19.3047c1.4919,5.5124,3.26,10.692,7.1463,15,1.2714,1.4094,3.3475-.6773,2.0812-2.0812Z"/><path class="cls-3" d="M627.6277,464.925c8.0912,6.1568,9.9046,16.0661,15.7449,23.9242,4.8974,6.5894,11.15,11.9665,17.3623,17.2678,1.4333,1.2231,3.5247-.8492,2.0812-2.0812-7.1944-6.14-14.6423-12.4431-19.58-20.6375-4.6275-7.68-6.6863-15.356-14.1228-21.0146-1.507-1.1468-2.9748,1.408-1.4855,2.5413Z"/><path class="cls-3" d="M624.3523,510.4719c-13.7943-16.9092-27.2571-34.1681-41.4555-50.739-12.2234-14.2658-29.7681-21.5139-48.4639-22.0556a60.3334,60.3334,0,0,0-25.5211,4.5893c-2.3722,1.0214-4.4808,1.998-5.4482,4.5252-1.3449,3.5134-1.0806,8.6059-.9014,12.29.7995,16.441,15.05,21.5214,28.8776,24.8494a154.9992,154.9992,0,0,1,60.4191,28.8834c1.4706,1.1618,3.5671-.9072,2.0811-2.0812a155.251,155.251,0,0,0-40.6524-23.27,191.8425,191.8425,0,0,0-23.0474-6.8505c-6.6747-1.6433-14.0648-3.5-19.1947-8.3721a18.5355,18.5355,0,0,1-5.4846-12.3682c-.3219-4.0851-.68-10.6982,2.2713-13.8746,2.1536-2.3177,8.7928-3.4137,11.8582-4.0809a61.0536,61.0536,0,0,1,14.7425-1.2969,72.5479,72.5479,0,0,1,25.9333,5.7172c8.782,3.7034,15.4856,9.5405,21.556,16.7856,13.656,16.2986,26.9077,32.9535,40.3489,49.43,1.1979,1.4684,3.2693-.6248,2.0812-2.0811Z"/><path class="cls-3" d="M539.9265,461.9346C568.286,468.35,595.09,491.91,605.1776,519.15c.6521,1.7609,3.4979.9993,2.8381-.7824-10.4426-28.1966-37.89-52.6165-67.3068-59.2709-1.8445-.4172-2.632,2.42-.7824,2.8381Z"/><path class="cls-4" d="M568.9,506.6542a152.4419,152.4419,0,0,1-36.5764-32.7265c-4.3987-5.4523-8.4426-11.2329-13.48-16.1008-9.1044-8.7974-20.9261-14.1306-32.5552-19.1353C429.11,414.0846,368.1467,392.9458,306.0546,397.34c14.5319,26.9524,19.2807,60.069,41.3676,81.2768,6.8124,6.5413,15.055,11.667,20.7859,19.1739,3.4235,4.4844,6.1782,9.9938,11.3431,12.2639"/><path class="cls-3" d="M569.6422,505.3835c-16.5012-10.6585-29.5754-24.073-41.69-39.393a75.7944,75.7944,0,0,0-19.43-17.9235c-7.8265-4.8736-16.37-8.4656-24.8273-12.0754-36.2987-15.4927-73.6759-29.3844-112.67-36.2628a270.2455,270.2455,0,0,0-64.97-3.86,1.49,1.49,0,0,0-1.2706,2.2143c11.0158,20.7319,16.1557,44.15,28.194,64.3757,5.9068,9.9242,13.5181,17.6056,22.3784,24.9132,4.93,4.0662,9.5256,8.2419,13.2513,13.47,2.921,4.0986,5.5919,8.1383,10.2008,10.484,1.6845.8574,3.1758-1.6811,1.4855-2.5414-5.1272-2.6095-7.65-7.6582-11.0453-12.0338-3.5529-4.5782-7.97-8.2947-12.4211-11.9613-9.2548-7.6246-16.9073-15.8516-22.7867-26.382-10.9785-19.663-16.1542-41.9329-26.7156-61.81l-1.2707,2.2143c39.458-2.636,78.5642,4.8272,116.0132,16.8669,18.5292,5.957,36.6967,12.9892,54.6368,20.5232,17.6739,7.4221,35.1237,14.5494,47.526,29.8162,6.5363,8.046,12.7576,16.14,20.2732,23.33a158.6189,158.6189,0,0,0,23.653,18.5766c1.5957,1.0307,3.0728-1.516,1.4854-2.5414Z"/><path class="cls-3" d="M489.5521,504.2873c-15.4247-8.961-30.96-17.8235-45.8395-27.6766-14.4568-9.5729-27.2881-21.17-42.3244-29.8881-15.0316-8.7154-29.9937-18.0779-45.7386-25.456-15.0931-7.0727-30.9836-12.3758-45.2176-21.1935-1.6147-1-3.0943,1.5447-1.4855,2.5413,14.2354,8.8187,30.1235,14.12,45.2176,21.1935,15.744,7.3777,30.708,16.7412,45.7386,25.456,15.0271,8.7128,27.8741,20.32,42.3244,29.8882,14.88,9.8529,30.4149,18.7156,45.84,27.6765a1.4726,1.4726,0,0,0,1.4854-2.5413Z"/><path class="cls-3" d="M364.5553,401.6469l5.1636,15.945c1.7209,5.3141,3.6889,10.5773,3.5663,16.24l1.8628-1.419c-8.7347-3.129-17.8583-3.5151-27.0468-3.7408q-15.0881-.3706-30.1771-.7035c-1.8947-.0441-1.894,2.8991,0,2.9432q14.1454.33,28.291.6595c9.5423.2242,19.0618.4239,28.15,3.68a1.4842,1.4842,0,0,0,1.8628-1.419c.1155-5.3341-1.4725-10.2258-3.0977-15.2512q-2.8652-8.86-5.7373-17.7167c-.5812-1.7945-3.424-1.0269-2.8381.7824Z"/><path class="cls-3" d="M412.1226,412.746q4.2294,16.0256,9.4705,31.7554,2.6338,7.8561,5.5313,15.6207c.5988,1.6047,1.6287,2.9339.7486,4.4745-.9112,1.5954-2.3976,1.1076-4.2045,1.284-2.2533.22-4.4984.5587-6.7251.961-10.9685,1.9813-21.5942,5.44-32.6085,7.2538A187.2,187.2,0,0,1,348,476.3777c-1.8945-.06-1.8925,2.8836,0,2.9432a190.6942,190.6942,0,0,0,38.05-2.541c13.541-2.3072,26.6169-7.1044,40.3565-8.1609,2.3566-.1812,5.08-.416,5.3491-3.3452.1827-1.9873-1.1318-4.1612-1.7931-5.9342q-1.77-4.7444-3.4419-9.5242-6.5388-18.6881-11.56-37.8518a1.4729,1.4729,0,0,0-2.8381.7824Z"/><path class="cls-3" d="M473.5639,435.3458q6.8316,35.3412,12.4869,70.8927c.2967,1.8654,3.1332,1.0736,2.838-.7824q-5.6547-35.5483-12.4869-70.8927c-.3591-1.8577-3.1963-1.0712-2.838.7824Z"/><path class="cls-2" d="M332.4821,207.9523a61.4335,61.4335,0,0,1,9.166,8.5865c1.8436,2.0883,3.56,3.953,6.12,5.128,5.414,2.4845,12.8073,3.082,18.651,2.4213a26.6678,26.6678,0,0,0,22.7543-19.5908,1.4728,1.4728,0,0,0-2.838-.7824c-3.1191,11.1713-12.9548,17.8557-24.4116,17.6212-6.0956-.1248-12.7528-1.04-17.0973-5.6247a88.0229,88.0229,0,0,0-10.8588-10.3c-1.5133-1.14-2.9817,1.4145-1.4855,2.5413Z"/><path class="cls-2" d="M338.5872,201.339c2.4743,9.0821,9.3694,17.0355,18.58,19.7227,4.8087,1.403,7.7081-1.1447,11.3423-3.9963,4.5223-3.5485,10.2752-7.3774,12.7441-12.7479.7857-1.7091-1.75-3.2063-2.5414-1.4855-1.704,3.7067-5.1186,6.245-8.1783,8.8209-4.0094,3.3754-8.16,8.0077-13.919,6.1151-7.6049-2.4991-13.1552-9.7432-15.19-17.2114a1.4728,1.4728,0,0,0-2.838.7824Z"/><path class="cls-2" d="M346.6945,195.3219c.8716,5.7814,3.2681,10.953,6.2516,15.9355,1.6661,2.7824,3.5816,7.6593,7.3551,7.9369,4.3355.3189,6.4823-4.5281,8.0977-7.7147,2.1084-4.159,5.0826-9.099,3.9988-13.883-.4183-1.8465-3.2566-1.0651-2.838.7824.849,3.7479-2.0532,8.3624-3.7021,11.6151-.5473,1.08-1.3531,3.2027-2.2283,4.0642-3.9031,3.8424-5.1177.5376-6.506-1.6518-3.5341-5.5737-6.5959-11.2683-7.5908-17.867-.2814-1.8666-3.1179-1.0735-2.838.7824Z"/><path class="cls-2" d="M357.1657,190.5743a223.7954,223.7954,0,0,0,2.8238,40.9332,201.7775,201.7775,0,0,0,4.2812,20.1231c1.2529,4.6328,2.8925,8.9383,6.3735,12.3509,1.3537,1.327,3.4365-.7524,2.0812-2.0811-4.1812-4.099-5.3929-9.9086-6.7175-15.4073q-2.1057-8.7412-3.4775-17.6374a219.6891,219.6891,0,0,1-2.4215-38.2814c.0407-1.8947-2.9025-1.8944-2.9432,0Z"/><path class="cls-1" d="M415.8724,126.5241a61.4231,61.4231,0,0,1,9.166,8.5864c1.8436,2.0883,3.56,3.9531,6.12,5.128,5.414,2.4846,12.8073,3.0821,18.6509,2.4213a26.6677,26.6677,0,0,0,22.7544-19.5907,1.4729,1.4729,0,0,0-2.8381-.7824c-3.119,11.1712-12.9548,17.8556-24.4115,17.6212-6.0956-.1248-12.7528-1.04-17.0973-5.6248a88.0241,88.0241,0,0,0-10.8589-10.3c-1.5132-1.14-2.9816,1.4145-1.4855,2.5414Z"/><path class="cls-1" d="M421.9775,119.9108c2.4744,9.0821,9.3694,17.0354,18.58,19.7227,4.8086,1.4029,7.708-1.1448,11.3423-3.9964,4.5223-3.5484,10.2752-7.3774,12.7441-12.7478.7857-1.7091-1.75-3.2063-2.5414-1.4855-1.704,3.7066-5.1186,6.245-8.1783,8.8209-4.0094,3.3754-8.16,8.0077-13.919,6.115-7.6049-2.4991-13.1552-9.7432-15.19-17.2113a1.4729,1.4729,0,0,0-2.8381.7824Z"/><path class="cls-1" d="M430.0848,113.8937c.8717,5.7814,3.2682,10.953,6.2517,15.9355,1.6661,2.7824,3.5816,7.6592,7.3551,7.9368,4.3354.319,6.4823-4.5281,8.0977-7.7147,2.1084-4.159,5.0826-9.0989,3.9988-13.883-.4183-1.8465-3.2566-1.065-2.8381.7824.8491,3.7479-2.0531,8.3624-3.702,11.6151-.5474,1.08-1.3531,3.2027-2.2283,4.0643-3.9032,3.8423-5.1177.5376-6.506-1.6519-3.5341-5.5737-6.5959-11.2682-7.5908-17.8669-.2814-1.8666-3.1179-1.0735-2.8381.7824Z"/><path class="cls-1" d="M440.5561,109.146a223.7958,223.7958,0,0,0,2.8237,40.9333,201.7819,201.7819,0,0,0,4.2813,20.123c1.2529,4.6329,2.8925,8.9384,6.3735,12.351,1.3537,1.327,3.4365-.7525,2.0812-2.0812-4.1812-4.099-5.393-9.9086-6.7176-15.4073q-2.1057-8.7411-3.4775-17.6373a219.69,219.69,0,0,1-2.4214-38.2815c.0407-1.8947-2.9025-1.8943-2.9432,0Z"/></svg>