<svg id="圖層_1" data-name="圖層 1" xmlns="http://www.w3.org/2000/svg" viewBox="0 0 825.6856 174.1988"><defs><style>.cls-1{fill:#343170;opacity:0.42;}.cls-2{fill:#ee7960;}.cls-2,.cls-3,.cls-4,.cls-5{opacity:0.44;}.cls-3{fill:#da3c42;}.cls-4,.cls-5{fill:#f2bfa0;}.cls-4{stroke:#fef8f3;}.cls-4,.cls-6{stroke-miterlimit:10;}.cls-6{fill:none;stroke:#343170;stroke-width:2px;}</style></defs><title>land</title><path class="cls-1" d="M498.4651,162.1979c-18.924.7972-37.8,1.8571-56.76,1.1163-12.24-.4781-24.0012-3.8046-35.9957-5.6909-4.4727-.7033-9.9972-3.0912-8.9383-9.4112,1.0088-6.0219,6.0472-7.5968,11.5412-7.8989,11.8142-.65,23.6375-1.2058,35.4285-2.1552,2.6863-.2163,6.8415-.0683,4.8172-5.5347-6.9112-18.6619-3.6169-38.1216-3.7109-57.252-.0708-14.4276,1.4205-28.8578,2.0251-43.2949.8346-19.93,17.7863-32.2578,34.7416-25.1383,8.3729,3.5158,11.3188,10.4787,12.7081,18.8567,1.6511,9.956-.4583,19.8464.1613,29.7742.3522,5.6442,1.7874,6.895,8.1136,6.4248C515.8408,61.01,528.17,56.0949,541.244,54.74c7.9761-.8266,14.8164.9618,16.5087,9.3506,1.5491,7.6788-2.5115,13.4121-10.0861,16.5189-14.855,6.093-30.1548,5.4458-45.4176,2.804-5.44-.9416-6.8314-.7638-7.1645,5.4586-.6483,12.11,3.2,24.2375-.7326,36.3521-1.7708,5.4545,2.2883,5.1565,6.2578,4.8285,12.9911-1.0734,25.8714-5.72,39.0653-1.319,6.2087,2.0711,12.3919,4.5213,15.1819,10.8429,3.5656,8.0787-1.4061,17.754-10.3741,18.87C529.2241,160.3447,513.8125,161.0128,498.4651,162.1979Z"/><path class="cls-2" d="M43.799,101.0235c-4.1175-.5871-7.3051-.9593-10.4593-1.5195-2.2149-.3933-4.8142-.8568-4.3978-3.9311.3125-2.3079,1.772-4.64,4.346-4.3908C47.5435,92.5629,53.3262,83.85,57.2361,72.1238c2.4142-7.24,8.3565-10.16,15.345-7.6155,6.54,2.3811,7.6276,7.8735,4.9573,14.33-2.2132,5.3511.8373,6.0374,5.2407,5.1753,7.8681-1.54,15.7091-3.3528,23.65-4.3419,5.3081-.661,12.0252-1.3346,13.0428,6.1437,1.02,7.4936-5.3239,9-10.874,9.0866-6.6142.1031-8.7249,3.0131-9.3092,9.2015-.6306,6.6794-1.6658,13.7282-5.8944,19.1553-4.6017,5.9061-2.0972,8.7754,3.0387,11.8667,4.6647,2.8077,9.267,5.8366,12.453,10.4834,2.6956,3.9315,2.6022,8.0269-.1529,11.632-3.0112,3.94-7.6773,2.8788-10.371.45-14.2882-12.8816-26.76-10.752-38.4221,3.4778a7.6729,7.6729,0,0,1-3.9915,2.5955c-4.0785.8348-8.9963,5.0074-12.1214-.406-2.6933-4.6651,2.2139-7.272,5.0807-10.0708.91-.8883,2.1254-1.4557,3.0923-2.2951,4.5316-3.9343,11.7031-7.9,11.1585-13.3215-.5715-5.69-8.8165-6.111-14.2406-7.9-7.692-2.5375-11.386-9.4985-9.1707-17.35C40.7818,108.7526,42.29,105.2185,43.799,101.0235Zm44.3651,1.6434c.3583-5.6409-3.1039-3.7443-5.1909-3.7745-9.7952-.1416-18.9033,6.8235-17.8356,15.0535.6609,5.0947,7.25,6.1443,11.7464,7.7858C79.2138,122.5823,88.1424,106.437,88.1641,102.6669Z"/><path class="cls-2" d="M9.7487,71.0767c.97-7.81,1.0626-15.63,5.6757-22.3257,2.1944-3.1852,4.267-6.931,8.9477-6.0165,4.6554.91,10.0427,1.7588,11.088,7.5091.7617,4.19,2.5436,4.23,5.896,3.4591,24.7631-5.6914,50.4507-4.7823,75.2284-10.4648,6.7281-1.5431,11.03,2.2053,14.3988,7.3355,3.5357,5.384,5.0616,11.1031,1.9386,17.2756-1.5645,3.0922-4.2174,5.2706-7.5237,5.2228-3.6249-.0524-7.3374-1.78-7.9955-5.7682-1.5358-9.3079-7.124-9.9532-15.161-9.1912C82.7348,59.9618,63.15,61.0971,43.5728,62.0259c-5.37.2548-7.4552,2.22-7.7808,7.2841-.3041,4.7306.0109,9.54-3.3646,13.7457-3.4116,4.25-6.6711,7.413-12.8386,6.456-6.641-1.03-7.8834-5.7862-8.9265-10.9338C10.1546,76.0723,10.0305,73.4889,9.7487,71.0767Z"/><path class="cls-3" d="M286.7182,122.1474c-16.7764-.2227-32.5735-2.9142-43.9277-17.1271-9.7919-12.2572-8.1111-26.3945-6.7313-40.4744.2532-2.5842,2.2091-3.8769,4.6088-4.1779,2.9865-.3745,4.91,1.4387,6.0066,3.908,2.3333,5.254,4.7269,10.51,6.5827,15.941,3.5271,10.3219,11.209,13.8233,21.3614,14.6728,11.1592.9339,22.3791-1.6446,33.5442,1.41,5.2657,1.4406,8.64,3.1866,9.3374,9.0744.6969,5.8854-1.1226,9.8614-6.4182,12.6033C303.3613,121.9751,295.09,122.2,286.7182,122.1474Z"/><path class="cls-4" d="M223.7263,60.0174c-1.4992,13.16-2.5232,24.9784-4.3,36.6822-1.0652,7.017-11.3833,13.5135-20.0434,13.8549-8.8278.348-10.8691-6.1074-13.4861-12.5071-4.1-10.0256,1.2451-18.8412,3.2529-28.0094,1.35-6.1659,4.5026-11.83,6.2918-18.011,1.5751-5.441,7.1358-9.2728,13.4367-9.0092C214.613,43.2578,223.8141,55.3609,223.7263,60.0174Z"/><path class="cls-2" d="M327.2587,53.7054c10.0221,2.4394,19.35,6.8539,25.2673,15.48,5.3685,7.8262.9584,19.1439-8.1617,24.5174-6.9409,4.0894-21.1974-.8917-26.2351-10.2716-3.65-6.7964-8.092-13.9355-3.2984-22.5641C317.71,55.6845,321.2013,53.083,327.2587,53.7054Z"/><path class="cls-3" d="M69.4613,0C83.6371-.0251,91.6291,5.4732,91.9529,15.4734c.3274,10.1116-10.2592,19.6005-22,19.7191-9.6662.0977-18.9325-7.23-19.063-15.0757C50.6421,5.2405,55.4572.0248,69.4613,0Z"/><path class="cls-3" d="M267.4869,51.3149c-.2825-8.1888,5.1948-10.72,11.7737-10.665,10.0517.0834,17.8433,7.8683,17.57,16.4969-.1888,5.9716-8.5542,12.063-16.2532,11.835C271.6805,68.7184,267.2447,62.7324,267.4869,51.3149Z"/><path class="cls-5" d="M623.2636,87.6113c-4.98,0-9.22.173-13.4411-.0363-8.6133-.4271-13.4553-5.49-14.012-14.3541-.6757-10.7611,3.2407-17.7327,12.2625-18.1079,19.38-.806,38.8466-1.9556,58.1792,1.11,5.4222.86,7.7806,4.3068,8.8311,9.61,2.7347,13.8062-2.68,23.6108-14.0234,30.92-3.6469,2.35-7.1427,4.9347-11.846,8.203,6.8125,1.1958,12.3121-.0614,17.5183,1.9938,7.5148,2.9665,9.77,7.7838,8.2863,19.1645-.8754,6.7138-5.1807,8.7845-11.37,9.48-17.1446,1.9258-34.3676,2.3849-51.4093.3656-14.9669-1.7735-20.0721-13.874-12.8762-27.45,4.07-7.68,11.5744-11.4317,18.292-16.0931C619.4051,91.2018,621.9271,91.0164,623.2636,87.6113Z"/><path class="cls-2" d="M794.77,132.1285c-16.621-.0886-25.9628-8.9726-25.7892-24.5254.2-17.921,9.545-27.8253,26.2347-27.8049,15.87.0193,26.1091,11.5744,25.9994,29.3408C821.1236,123.97,811.6359,132.2183,794.77,132.1285Zm9.1659-25.3532c-.4993-5.2094-3.8653-8.218-8.7925-8.9261-5.0854-.7308-8.977,3.6559-8.8835,9.1521.0927,5.4424,2.842,8.9259,8.2683,9.0478C800.259,116.1779,803.2675,112.6162,803.9361,106.7753Z"/><path class="cls-3" d="M757.2334,108.8382c1.9254,15.45-10.7566,23.464-24.8507,23.3359-17.5-.159-26.1972-7.923-26.25-23.9363-.0607-18.4221,8.878-28.4131,25.4447-28.44C748.3782,79.77,757.2141,89.7716,757.2334,108.8382Zm-25.6022,7.3289c5.0582.0147,9.7136-4.2746,9.2476-9.0386-.5295-5.4126-3.8178-9.3816-9.2052-9.39-5.38-.0086-8.6978,3.9427-9.2645,9.3449C721.9133,111.81,726.5943,116.1525,731.6312,116.1671Z"/><path class="cls-6" d="M498.3488,170.8862c-3.4578.2348-6.9147.4762-10.3685.7429-19.6577.8282-39.2658,1.9291-58.961,1.16-12.7146-.4967-24.9318-3.9521-37.3914-5.9115-4.6461-.7306-10.3848-3.211-9.2849-9.7762,1.048-6.2553,6.2817-7.8913,11.9888-8.2051,12.2723-.6749,24.554-1.2525,36.8021-2.2388,2.7905-.2247,7.1068-.0709,5.004-5.7492-7.1792-19.3856-3.7571-39.6-3.8547-59.4719-.0736-14.9869,1.4755-29.9767,2.1035-44.9735.867-20.7024,18.4759-33.5086,36.0887-26.113,8.6975,3.6521,11.7576,10.885,13.2008,19.5878,1.7151,10.342-.4761,20.6159.1675,30.9287.3659,5.863,1.8567,7.1623,8.4282,6.6739,13.7579-1.0225,26.565-6.1277,40.146-7.535,8.2854-.8586,15.3909.9991,17.1488,9.7131,1.6091,7.9766-2.6089,13.9322-10.4772,17.1595-15.431,6.3292-31.324,5.6569-47.1785,2.9126-5.6505-.978-7.0963-.7933-7.4424,5.67-.6733,12.5793,3.3243,25.1772-.761,37.7615-1.8394,5.6661,2.3771,5.3564,6.5,5.0158,13.4947-1.115,26.8745-5.9422,40.58-1.37,6.4494,2.1515,12.8723,4.6967,15.77,11.2634,3.7039,8.3919-1.4606,18.4423-10.7764,19.6012-5.7709.718-11.563,1.2666-17.3652,1.7333"/><path class="cls-6" d="M36.63,109.1852c-4.277-.61-7.5882-.9966-10.8648-1.5784-2.3008-.4086-5.0008-.89-4.5683-4.0836.3247-2.3974,1.8407-4.82,4.5146-4.561C40.52,100.3965,46.5264,91.3457,50.5878,79.165c2.5079-7.5213,8.6806-10.5538,15.94-7.9109,6.794,2.4735,7.9234,8.1788,5.15,14.8856-2.299,5.5586.87,6.2715,5.444,5.376,8.1731-1.6,16.3182-3.4829,24.5668-4.51,5.5139-.6867,12.4913-1.3864,13.5485,6.3819,1.0592,7.7842-5.53,9.349-11.2957,9.4389-6.8706.1071-6.4245,4.2112-7.0314,10.6395-.6551,6.9384-3.0358,14.5249-7.4283,20.1624-4.78,6.1351-3.5119,7.77,1.8231,10.9812,4.8456,2.9165,9.6263,6.0629,12.9359,10.89,2.8,4.084,2.703,8.3382-.1589,12.083-3.128,4.0929-7.9749,2.99-10.773.4679-14.8423-13.3811-27.798-11.169-39.9119,3.6125a7.97,7.97,0,0,1-4.1462,2.6962c-4.2366.8671-9.3451,5.2015-12.5915-.4217-2.7976-4.846,2.3-7.554,5.2778-10.4613.9452-.9228,2.2077-1.5122,3.2122-2.3842,4.7073-4.0867,12.1568-8.2058,11.5911-13.8379-.5936-5.9108-9.1584-6.348-14.7927-8.2067-7.99-2.6359-11.8275-9.8668-9.5263-18.0232C33.4956,117.214,35.0618,113.5429,36.63,109.1852Zm46.0853,1.7071c.3723-5.86-3.2242-3.89-5.3921-3.9209-10.1751-.1471-19.6362,7.0881-18.5272,15.6372.6866,5.2922,7.5317,6.3825,12.2018,8.0876C73.4177,131.58,82.6925,114.8085,82.715,110.8923Z"/><path class="cls-6" d="M1.2593,78.0773c1.008-8.1129,1.1038-16.2361,5.8957-23.1914,2.2795-3.3087,4.4325-7.2,9.2946-6.25,4.836.9449,10.4322,1.827,11.518,7.8.7912,4.3529,2.6422,4.3935,6.1246,3.5932,25.7232-5.9121,52.4068-4.9677,78.1451-10.8706,6.989-1.6028,11.4574,2.2908,14.9571,7.62,3.6728,5.5927,5.2579,11.5336,2.0138,17.9454-1.6252,3.2121-4.3809,5.4749-7.8154,5.4253-3.7654-.0544-7.6219-1.8487-8.3055-5.9918-1.5954-9.6689-7.4-10.3391-15.7488-9.5476-20.2633,1.921-40.6076,3.1-60.9437,4.0652-5.578.2647-7.7443,2.3059-8.0825,7.5666-.3159,4.914.0113,9.91-3.495,14.2786-3.5439,4.4149-6.93,7.7-13.3365,6.7063-6.8984-1.07-8.189-6.0106-9.2725-11.3577C1.6809,83.2665,1.552,80.583,1.2593,78.0773Z"/><path class="cls-6" d="M284.5583,133.3327c-17.4269-.2313-33.8365-3.0272-45.6309-17.7911-10.1715-12.7325-8.4256-27.418-6.9923-42.0438.263-2.6843,2.2948-4.0272,4.7875-4.34,3.1023-.389,5.1,1.4944,6.24,4.06,2.4237,5.4577,4.91,10.9178,6.8378,16.5591,3.6639,10.7221,11.6437,14.3592,22.19,15.2417,11.5919.97,23.2468-1.7084,34.8448,1.4646,5.47,1.4965,8.9754,3.31,9.7,9.4262.7238,6.1137-1.1662,10.2439-6.6672,13.0921C301.8467,133.1538,293.2551,133.3877,284.5583,133.3327Z"/><path class="cls-6" d="M219.1241,68.7938c-1.5574,13.6706-2.6211,25.9469-4.4666,38.1045-1.1065,7.289-11.8247,14.0374-20.8205,14.392-9.17.3616-11.2906-6.3442-14.009-12.992-4.2585-10.4143,1.2934-19.5717,3.3791-29.0954,1.4027-6.4049,4.6771-12.2891,6.5357-18.7093,1.6362-5.652,7.4125-9.6324,13.9576-9.3585C209.6574,51.3844,219.2153,63.9568,219.1241,68.7938Z"/><path class="cls-6" d="M348.8642,73.4834a32.7239,32.7239,0,0,1,4.0534,4.8334c5.5767,8.13.9956,19.8862-8.4781,25.4679-7.21,4.248-22.0192-.9262-27.2523-10.67-3.7917-7.06-8.4058-14.4758-3.4263-23.4389,2.9906-5.383,6.6175-8.0854,12.91-7.4388a66.4574,66.4574,0,0,1,7.6287,2.3215"/><path class="cls-6" d="M73.6086,38.5761a24.2647,24.2647,0,0,1-9.811,2.2256c-10.041.1015-19.6666-7.5107-19.8022-15.66C43.7382,9.6884,48.74,4.27,63.2871,4.2447c6.78-.012,12.1977,1.1922,16.1036,3.5091"/><path class="cls-6" d="M79.3907,7.7538a14.3453,14.3453,0,0,1,7.26,12.5643,17.7308,17.7308,0,0,1-4.7237,12.11"/><path class="cls-6" d="M264.5814,59.7539c-.2935-8.5064,5.3962-11.1353,12.23-11.0786,10.4415.0867,18.5352,8.1734,18.2518,17.1366-.1961,6.2031-8.8858,12.5307-16.8834,12.2939C268.9375,77.8322,264.33,71.6141,264.5814,59.7539Z"/><path class="cls-6" d="M618.72,99.6622c-5.1727,0-9.5773.18-13.9622-.0377-8.9473-.4437-13.9771-5.7025-14.5553-14.9107-.7019-11.1782,3.3664-18.42,12.7379-18.81,20.1311-.8372,40.3529-2.0314,60.435,1.153,5.6325.8931,8.0823,4.4738,9.1735,9.9825,2.8408,14.3415-2.7839,24.5263-14.5671,32.1192-3.7883,2.4411-7.42,5.126-12.3054,8.5211,7.0767,1.2421,12.79-.0638,18.1977,2.071,7.8061,3.0815,10.1489,8.0856,8.6075,19.9076-.9093,6.9741-5.3816,9.1251-11.81,9.8472-17.8093,2-35.7,2.4773-53.4026.38-15.5472-1.8422-20.85-14.4119-13.3755-28.5148,4.2283-7.9774,12.0232-11.875,19.0013-16.717C614.7119,103.3919,617.3316,103.1994,618.72,99.6622Z"/><path class="cls-6" d="M754.55,104.4492c2.2034,4.5774,3.3275,10.3459,3.3344,17.263,2,16.0489-11.1735,24.3738-25.8141,24.2407-18.1791-.1652-27.213-8.23-27.2677-24.8644-.063-19.1364,9.2222-29.5147,26.4312-29.543a32.36,32.36,0,0,1,10.8772,1.6771m-10.8214,36.1026c5.2543.0152,10.09-4.44,9.6062-9.3891-.55-5.6224-3.9658-9.7453-9.5622-9.7542-5.588-.0088-9.035,4.0956-9.6236,9.7073C721.1945,124.8,726.0571,129.31,731.2892,129.3252Z"/><path class="cls-6" d="M819.2815,104.4492c2.2034,4.5774,3.3275,10.3459,3.3344,17.263,2,16.0489-11.1735,24.3738-25.8141,24.2407-18.1791-.1652-27.213-8.23-27.2677-24.8644-.063-19.1364,9.2222-29.5147,26.4312-29.543a32.36,32.36,0,0,1,10.8772,1.6771m-10.8214,36.1026c5.2543.0152,10.09-4.44,9.6062-9.3891-.55-5.6224-3.9658-9.7453-9.5622-9.7542-5.588-.0088-9.035,4.0956-9.6236,9.7073C785.9264,124.8,790.789,129.31,796.0211,129.3252Z"/></svg>