<svg id="圖層_1" data-name="圖層 1" xmlns="http://www.w3.org/2000/svg" viewBox="0 0 1914.6035 593.0912"><defs><style>.cls-1{fill:#f2f2f2;}.cls-2{fill:#e4765e;}.cls-3{opacity:0.38;}.cls-4{fill:#343170;}.cls-5{opacity:0.42;}.cls-6{fill:#fff;}</style></defs><title>land</title><path class="cls-1" d="M552.3452,281.7348c3.7755,4.3751,5.47,9.4667,1.7269,14.37-3.0865,4.0435-8.4213,6.0326-12.74,2.7343-4.6953-3.5859-4.9135-9.34-1.86-14.4629C542.5756,279.17,547.3534,279.9315,552.3452,281.7348Z"/><path class="cls-1" d="M745.4058,173.6738c5.068,3.6723,5.1406,8.0662,2.108,12.6494-3.1088,4.6984-7.5045,5.8373-12.44,2.9973-4.7676-2.743-7.1712-7.0426-3.811-11.9495C734.6493,172.4253,740.0477,172.02,745.4058,173.6738Z"/><path class="cls-1" d="M567.8892,122.26c-4.5076-4.2738-5.297-9.3856-2.66-14.7131,2.7158-5.4873,12.48-3.3571,12.48-3.3571s3.9369,8.6944,2.47,13.1239C578.2861,123.0278,573.0336,122.9246,567.8892,122.26Z"/><path class="cls-1" d="M545.6211,58.2939c-3.3465-3.9251-6.5438-7.9119-3.0726-12.9442,3.8983-5.6515,9.47-4.0792,14.4014-1.8724,4.9169,2.2,5.6987,6.4384,2.26,10.4543C555.73,57.9956,551.6276,61.782,545.6211,58.2939Z"/><path class="cls-1" d="M697.4161,24.012c4.5014,3.25,4.1846,7.2614,1.5724,11.2624-3.6129,5.5338-8.5065,5.8787-13.928,2.6927-4.201-2.4689-6.67-5.7387-3.538-10.4969C685.6145,21.2531,691.5948,22.7127,697.4161,24.012Z"/><path class="cls-1" d="M663.1874,227.1758c4.5872,4.8773,3.431,8.98.4479,12.3948-3.773,4.3192-9.09,6.9186-14.1433,3.21-3.3522-2.46-4.9767-7.8837-1.711-11.54C651.9882,226.53,658.1211,226.864,663.1874,227.1758Z"/><path class="cls-1" d="M705.7559,332.92c-3.8832-4.369-8.5467-9.3919-6.0237-15.4079,2.2221-5.2985,8.1857-4.3991,12.6423-2.0032,6.1548,3.309,5.2,8.947,2.9363,14.0684C713.6093,333.4264,710.1693,334.8522,705.7559,332.92Z"/><path class="cls-1" d="M755.8783,109.9539c-4.1528,3.62-9,4.914-13.5907,2.1769-5.0921-3.0359-5.0622-8.6528-2.6091-13.0986,2.8547-5.1736,8.391-5.2561,12.7782-2.2464C756.8555,99.8035,757.66,104.7775,755.8783,109.9539Z"/><path class="cls-1" d="M751.6242,135.5706c4.7932,3.8694,5.4112,8.9847,3.1391,14.4122-1.6984,4.0567-5.1825,5.9755-9.1462,3.2282-5.0576-3.5053-9.4528-7.9971-5.7648-14.8551C742.4218,133.5776,747.0377,134.4837,751.6242,135.5706Z"/><path class="cls-1" d="M573.4852,293.53c-4.9608-3.4175-7.6713-7.4377-4.3477-12.4539,3.8568-5.821,9.4409-3.3541,14.4286-1.4982,4.6812,1.742,4.684,5.3983,2.7353,9.1449C583.3614,294.3755,578.8156,295.8516,573.4852,293.53Z"/><path class="cls-1" d="M659.6105,202.67c-3.9431,4.158-14.2923,3.5372-14.2923,3.5372s-5.7939-6.6872-3.0454-10.7109c3.3318-4.8777,14.207-3.7947,14.207-3.7947S661.6119,198.0007,659.6105,202.67Z"/><path class="cls-1" d="M471.6123,280.3729c-2.5289,3.0595-6.2,7.1958-11.3017,2.3555-3.4059-3.2316-7.4807-7.9158-3.2887-12.8047,3.4365-4.0078,8.86-4.145,13.6017-1.5874C475.762,271.1079,475.113,275.1955,471.6123,280.3729Z"/><path class="cls-1" d="M587.8059,175.4834c-3.7772,4.6756-8.2395,5.5835-13.0766,2.3725-4.0121-2.6633-6.597-6.61-2.825-10.9212,3.9308-4.4925,9.6823-5.82,14.912-2.78C591.6645,166.9731,590.1748,171.5405,587.8059,175.4834Z"/><path class="cls-1" d="M697.9963,269.8066c-2.8109,4.2139-6.4956,4.2353-10.09,2.2648-5.8808-3.2236-5.8915-14.7814-5.8915-14.7814s7.8535-3.9432,11.5184-1.7631C698.8875,258.7121,698.0969,264.671,697.9963,269.8066Z"/><path class="cls-1" d="M764.8513,226.9867c-4.4184,5.9482-9.2135,6.67-14.38,3.0054-3.8812-2.7529-5.8679-7.0306-2.52-10.9632,3.8827-4.5608,14.84-2.2319,14.84-2.2319S766.2792,223.6471,764.8513,226.9867Z"/><path class="cls-1" d="M485.1415,215.7044c-3.7771,6.3461-7.9428,6.177-12.6915,2.8134-4.2448-3.0067-5.21-7.1547-2.6228-11.2539,3.7357-5.9177,9.3781-4.5528,14.29-1.7994C489.587,208.5309,486.5844,212.736,485.1415,215.7044Z"/><path class="cls-1" d="M673.3982,7.638c-3.2472,5.5773-9.0658,4.9875-13.17,3.7424-6.6027-2.0028-3.9036-8.381-2.4055-12.4216,1.7311-4.669,7.18-5.5946,11.2262-3.9219C674.4343-2.7366,674.2219,2.6663,673.3982,7.638Z"/><path class="cls-1" d="M492.5975,308.1162c-4.6141-2.7991-6.0448-6.8243-3.3342-10.9857,2.6489-4.0668,6.9565-7.8,12.0957-5.05a9.2482,9.2482,0,0,1,3.8523,12.5752C502.6539,309.6135,497.3109,309.1746,492.5975,308.1162Z"/><path class="cls-1" d="M697.3382,128.9387c-3.8371,2.5667-7.6653,7.1571-12.7087,4.04-4.6074-2.8475-5.1249-8.3166-2.697-12.8906,2.8779-5.4218,7.829-4.9956,12.4313-2.1059C698.446,120.5459,700.2474,124.1282,697.3382,128.9387Z"/><path class="cls-1" d="M632.6218,129.0768c-4.2171,4.8438-8.6545,6.826-13.0381,2.6409-3.61-3.4463-5.6137-8.8761-1.8056-12.9611,3.5982-3.86,9.3083-2.7611,13.4956-.2884C636.1936,121.3736,633.9071,125.8038,632.6218,129.0768Z"/><path class="cls-1" d="M525.3665,135.965c4.2868,2.404,6.0651,5.4336,3.55,9.4935-3.18,5.133-8.2168,7.4461-13.7428,5.1447-4.57-1.9034-5.5219-7.407-3.5645-11.108C514.575,133.8871,520.4,134.5034,525.3665,135.965Z"/><path class="cls-1" d="M522.4116,175.0733c-3.062,4.3464-6.95,7.4-12.2216,4.3294-5.12-2.9827-5.3606-8.5473-2.7684-12.8226,3.6542-6.0269,9.7421-3.3272,14.375-1.1686C526.563,167.6323,524.29,171.6725,522.4116,175.0733Z"/><path class="cls-1" d="M518.3507,205.06c-3.9217,2.7813-7.9755,6.9836-12.6965,2.2559-3.59-3.595-5.0567-9.0592-1.8238-13.3482,3.77-5.0022,9.2735-1.7125,13.2712.1692C522.1137,196.4959,521.2247,200.9784,518.3507,205.06Z"/><path class="cls-1" d="M530.0088,223.0925c-4.4465-3.1-5.6841-7.1807-2.72-11.183,2.8383-3.8325,12.2055-4.4288,12.2055-4.4288s6.0418,8.1513,3.2453,12.673C539.8946,224.7538,534.6712,224.5254,530.0088,223.0925Z"/><path class="cls-1" d="M674.4952,382.9525c-4.6053,3.6136-9.295,6.0545-13.7568,2.6476a8.3808,8.3808,0,0,1-1.8128-11.6678c2.5344-3.57,6.6213-6.3714,11.0825-3.1352C674.0712,373.7444,676.2783,377.9974,674.4952,382.9525Z"/><path class="cls-1" d="M557.3743,353.1549c-3.5684,5.1572-7.6051,6.624-11.7536,3.6479-4.2809-3.0712-6.0818-8.1432-3.454-12.8934,2.3324-4.2161,7.4259-5.0876,11.4035-2.86C558.6233,343.88,557.4911,349.2554,557.3743,353.1549Z"/><path class="cls-1" d="M495.207,181.4246c-3.1919,4.1263-6.6453,7.3315-11.1137,4.0916-4.1636-3.0189-6.1136-7.6256-2.4863-12.5557,3.3952-4.6146,7.8484-5.3837,12.6009-2.1816C499.1408,174.1027,497.043,178.0677,495.207,181.4246Z"/><path class="cls-1" d="M498.6457,123.1826c3.8394,3.4259,5.2759,7.4744,1.7816,11.426-3.4382,3.8883-8.5669,5.827-13.0528,2.566a8.1391,8.1391,0,0,1-1.9312-11.6086C488.7483,121.3078,493.81,121.2639,498.6457,123.1826Z"/><path class="cls-1" d="M534.4834,321.934c-3.9145,3.3706-8.7076,6.6023-14.04,2.59-3.0221-2.2736-4.2925-6.8457-1.3259-10.197,3.8891-4.3934,8.962-6.2568,14.5266-2.6064C537.7559,314.4183,537.3371,317.8886,534.4834,321.934Z"/><path class="cls-1" d="M563.9512,199.3748c-4.28,3.16-9.0417,4.6215-13.5478,1.57-4.1512-2.8117-4.9009-7.4093-1.301-11.2122,3.5434-3.7432,8.667-5.7607,13.05-2.2119C565.5362,190.26,566.262,194.9579,563.9512,199.3748Z"/><path class="cls-1" d="M693.0359,66.3487c-3.8382,5.2888-8.9346,5.2243-14.1851,2.2738-4.1794-2.3486-4.4-6.0823-1.6235-9.7061,4.02-5.2473,9.8247-5.0093,14.9078-2.8806C697.1923,58.1536,693.7391,62.5451,693.0359,66.3487Z"/><path class="cls-1" d="M628.6454,239.9279a11.9922,11.9922,0,0,1-13.8617,4.8553c-4.9283-1.4391-4.3427-5.4237-2.1885-9.1752,3.0164-5.2531,7.103-8.3564,13.2935-5.44C629.9038,232.0592,631.24,235.3116,628.6454,239.9279Z"/><path class="cls-1" d="M690.9678,223.85c-4.1655,3.3093-8.5381,6.1857-13.3843,2.5864-4.0514-3.0089-4.8021-7.686-.9392-11.276,4.196-3.9,9.7339-5.79,14.6434-1.4164C694.5525,216.6524,693.3707,220.6586,690.9678,223.85Z"/><path class="cls-1" d="M519.7771,264.2329c3.8029,2.3893,4.8847,5.5878,2.3456,9.4084-3.5659,5.3658-8.9378,5.7778-14.1054,3.4811a6.0617,6.0617,0,0,1-2.4056-9.4663C509.0731,263.2838,514.0666,261.2451,519.7771,264.2329Z"/><path class="cls-1" d="M651.81,363.0989c-3.4714,4.3505-7.6442,4.1941-11.2809,1.1811-3.0514-2.5281-7.8992-5.57-4.6225-10.4429,3.6206-5.3844,9.789-4.5515,14.4856-2.0937C655.1255,354.22,652.9041,359.1393,651.81,363.0989Z"/><path class="cls-1" d="M725.476,142.7955c5.7331,3.354,4.612,7.9084,2.2581,11.5453-2.3938,3.6981-6.49,6.6077-11.1124,3.5077a9.67,9.67,0,0,1-3.6426-11.7131C715.52,139.9572,721.3094,142.985,725.476,142.7955Z"/><path class="cls-1" d="M722.5126,67.2723c5.7331,3.354,4.612,7.9084,2.2581,11.5453-2.3938,3.6981-6.49,6.6077-11.1124,3.5077a9.67,9.67,0,0,1-3.6426-11.7131C712.5565,64.434,718.346,67.4618,722.5126,67.2723Z"/><path class="cls-1" d="M583.1061,70.7608c-2.9782-2.6621-5.8722-6.0084-2.7612-9.6562,3.9753-4.6614,9.4785-4.8012,14.6222-1.5348,4.0981,2.6024,3.8289,6.3119,1.1011,9.7171C592.3626,73.9124,587.8373,73.7791,583.1061,70.7608Z"/><path class="cls-1" d="M571.1991,324.9782c-3.3481,3.9883-7.3232,5.1852-11.3137,1.9959-3.2641-2.6086-7.2382-6.6487-3.8772-10.6922,2.7911-3.358,8.21-6.6536,12.74-4.0772C573.4118,314.8565,572.8521,320.3134,571.1991,324.9782Z"/><path class="cls-1" d="M654.674,264.6887c4.1108,2.4878,4.7155,6.2871,2.2462,9.7617-2.8632,4.0284-6.9989,7.849-12.3683,4.7557-4.0922-2.3574-5.76-7.2149-3.1994-11.3752C644.3446,262.97,649.6374,263.35,654.674,264.6887Z"/><path class="cls-1" d="M566.5566,146.3464c-3.8047,2.457-7.3277,8.23-12.2706,4.2163-3.6058-2.9281-4.85-8.8842-2.4649-13.4676,2.4793-4.7642,7.67-3.7764,11.574-2.0261C568.22,137.2322,568.022,141.73,566.5566,146.3464Z"/><path class="cls-1" d="M610.4464,43.9927c-2.2769-3.4465-6.5567-6.7889-3.5748-11.2826,3.8633-5.8218,9.7692-3.5369,14.5415-1.3578,6.45,2.945,2.2616,7.1908.0115,10.4046C618.7236,45.6147,615.0024,47.4454,610.4464,43.9927Z"/><path class="cls-1" d="M634.9019,300.1469c-3.5145,4.702-7.7707,2.9477-11.5556,1.2416-4.1228-1.8582-7.7211-5.3211-5.3906-10.0538,2.4781-5.0324,7.8971-5.3927,12.6223-3.5088C636.3128,290.1123,635.5488,295.3189,634.9019,300.1469Z"/><path class="cls-1" d="M519.5889,240.5365c-4.2644,5.5305-8.5427,2.3181-12.6622-.3178-3.4762-2.2243-6.4319-5.1166-1.9985-8.9006,3.79-3.2348,8.3805-5.9395,13.2908-2.459C522.4883,231.8853,522.2084,236.1752,519.5889,240.5365Z"/><path class="cls-1" d="M563.9719,86.64c-3.3726,4.3136-7.984,5.0546-12.548,2.5319-4.393-2.4281-5.2569-6.8945-2.2278-10.8853,3.1237-4.1156,8.0387-5.9385,12.722-3.3959C566.5459,77.4026,564.8859,82.2217,563.9719,86.64Z"/><path class="cls-1" d="M664.2373,39.8618c-4.44,5.2337-9.4233,6.9407-14.925,5.0291-4.9776-1.73-4.0354-6.2267-1.882-9.2557,2.65-3.7269,5.8613-8.2735,11.7459-5.5185C663.5666,32.1722,665.2244,35.74,664.2373,39.8618Z"/><path class="cls-1" d="M627.5876,339.9316c-2.992,4.5538-6.9425,6.042-11.2309,3.1943-4.2367-2.8133-4.5014-7.1966-1.9615-11.4787,2.44-4.1133,10.7978-4.342,10.7978-4.342S628.5893,335.5255,627.5876,339.9316Z"/><path class="cls-1" d="M684.2931,348.41c-2.992,4.5537-6.9425,6.042-11.2309,3.1943-4.2367-2.8134-4.5014-7.1966-1.9614-11.4787,2.44-4.1133,6.1195-6.7746,10.7977-4.342C687.7279,338.8152,685.2948,344.0042,684.2931,348.41Z"/><path class="cls-1" d="M640.44-1.2483c3.5188,2.3512,6.5395,5.4829,4.4062,9.3963-2.9536,5.4184-9.03,6.2376-14.1339,4.6062-3.9932-1.2766-4.3472-6.5072-2.5156-9.79C630.7364-1.5873,635.1888-3.5845,640.44-1.2483Z"/><path class="cls-1" d="M781.2028,157.5358c-3.6,4.6357-12.8671,2.29-12.8671,2.29s-4.8037-6.4519-2.4237-9.9174c3.3-4.8059,13.1176-1.9844,13.1176-1.9844S783.7762,153.5725,781.2028,157.5358Z"/><path class="cls-1" d="M666.5875,123.7557c4.1813,2.96,4.3469,6.4932,1.5786,9.8942-3.2341,3.9733-7.8792,6.9223-12.3858,3.1812-3.1595-2.6229-4.7076-8.21-2.0667-11.8276C656.968,120.5451,662.21,121.507,666.5875,123.7557Z"/><path class="cls-1" d="M609.34,103.941c-3.5022,4.533-7.8223,5.39-12.6259,2.4074-4.0121-2.4913-6.8431-6.4056-3.2508-10.5273,3.598-4.1281,9.119-2.3778,13.58-.9107C611.6845,96.4365,611.7408,100.103,609.34,103.941Z"/><path class="cls-1" d="M678.05,180.0291c-3.0117,4.4226-6.7393,4.89-10.7367,1.5479-3.53-2.9514-5.8192-7.5365-3.2972-11.2287,3.011-4.408,8.4228-4.0129,12.8992-1.2431C681.7208,172.0787,680.745,176.0551,678.05,180.0291Z"/><path class="cls-1" d="M546.5935,120.4984c-3.5417,3.6711-11.5489,1.4628-11.5489,1.4628l-4.041-11.2533,12.5941-1.6582S548.2975,116.03,546.5935,120.4984Z"/><path class="cls-1" d="M547.3853,178.0652c-3.694,3.88-7.9063,5.9974-11.9949,3.7451-4.1955-2.3112-5.249-6.86-2.0994-11.096,3.0861-4.1512,7.6531-7.1142,12.3716-3.9634C549.5967,169.378,548.5828,174.3378,547.3853,178.0652Z"/><path class="cls-1" d="M602.6319,232.5294c-2.8811,4.1469-6.32,8.2371-11.6362,4.6077-3.4214-2.3358-6.3083-6.6017-2.8073-10.971,3.289-4.1049,8.25-5.0856,13.0292-3.0431C606.0791,225.2008,604.47,229.0186,602.6319,232.5294Z"/><path class="cls-1" d="M610.1164,268.9171c-3.5211,3.9371-7.5947,4.0354-11.7235,1.3549-4.0605-2.636-6.6819-6.5343-3.1658-10.887,2.7307-3.3807,7.0741-5.9479,11.3688-2.0229C609.8335,260.3208,612.3785,264.0175,610.1164,268.9171Z"/><path class="cls-1" d="M597.9478,355.2283c-3.16,3.628-7.4029,4.9938-11.4986,3.14-4.5134-2.0432-5.4907-7.1995-3.7288-11.0773,2.2637-4.9822,7.6706-6.2076,12.2822-3.5736C599.099,346.0569,599.1171,350.77,597.9478,355.2283Z"/><path class="cls-1" d="M478.0866,260.4852c-3.2919-3.2018-4.6262-6.5976-1.2734-10.1355,3.8665-4.08,8.7-4.4332,13.5539-2.029,4.979,2.466,3.7883,6.297.8566,9.2735C487.6166,261.2565,483.1471,263.2328,478.0866,260.4852Z"/><path class="cls-1" d="M448.5391,245.8031c-3.2918-3.2018-4.6261-6.5976-1.2734-10.1355,3.8666-4.08,8.7-4.4332,13.5539-2.029,4.979,2.466,3.7883,6.297.8566,9.2736C458.0692,246.5744,453.6,248.5507,448.5391,245.8031Z"/><path class="cls-1" d="M615.2129,78.9412c-3.3676-3.0226-5.8226-7.5125-3.116-11.1678,3.1308-4.2284,8.5676-3.7754,13.112-.9407,4.0481,2.525,4.1291,6.0973,1.4567,9.5862C623.7374,80.2416,619.9048,81.4693,615.2129,78.9412Z"/><path class="cls-1" d="M599.3664,205.9437c-3.238,4.8444-7.7739,4.1495-11.6044,2.089a7.9,7.9,0,0,1-3.3233-11.2132c2.5731-4.29,8.1655-3.4169,11.8574-2.0183C601.267,196.6843,600.2983,201.7064,599.3664,205.9437Z"/><path class="cls-1" d="M565.1174,20.4757c-3.1183,4.4-7.0525,6.8943-12.1842,3.6438a6.961,6.961,0,0,1-2.3652-9.877c2.9558-5.0958,8.0538-5.0242,12.74-3.1963C568.1876,12.95,566.7174,16.872,565.1174,20.4757Z"/><path class="cls-1" d="M625.48,208.0477c-3.2391,3.1546-7.4151,6.6862-12.1178,2.9863-3.6012-2.8333-3.592-7.9522-.7527-11.706,3.03-4.0055,7.3718-3.9223,11.4957-1.3265C628.1346,200.5378,628.0814,203.9318,625.48,208.0477Z"/><path class="cls-1" d="M725.05,116.815c-3.7038,3.16-8.101,5.5078-12.8081,2.5306-3.8409-2.4293-2.9295-6.5605-.8954-9.9758,2.391-4.0147,6.0015-6.8618,10.5021-3.7995C725.3766,107.9709,727.7553,111.8022,725.05,116.815Z"/><path class="cls-1" d="M622.6,363.91c3.7626,2.9448,6.2143,7.208,3.99,11.3023-2.1718,3.9974-7.6864,4.8244-11.6978,3.49-5.1905-1.7265-4.7536-6.9987-3.1724-11.0617C613.6241,362.7452,617.8688,362.0459,622.6,363.91Z"/><path class="cls-1" d="M447.6367,217.0359c-4.2878,3.0169-7.7012,7.0608-12.02,2.6788-3.0275-3.0724-5.9695-7.5379-2.024-11.3773,3.5546-3.4591,8.8214-4.675,13.252-.9674C450.51,210.4372,448.2049,214.1741,447.6367,217.0359Z"/><path class="cls-1" d="M546.7624,256.1916c-4.5354,4.1143-9.1968,7.3864-14.7138,4.9916-3.517-1.5267-5.4846-5.8536-2.63-9.4161,3.6535-4.56,9.0154-5.6449,14.4061-3.1539C547.0718,250.1136,547.9714,253.109,546.7624,256.1916Z"/><path class="cls-1" d="M677.149,306.7843c-3.609-3.7838-2.615-8.0842-.5368-11.79,2.4663-4.3981,6.7136-5.2694,10.95-2.4338,3.5591,2.3823,4.5574,6.2647,2.32,9.86C687.0352,306.9963,682.35,307.8821,677.149,306.7843Z"/><path class="cls-1" d="M728.0418,268.9656c-3.609-3.7837-2.615-8.0841-.5367-11.79,2.4663-4.3981,6.7136-5.2694,10.95-2.4338,3.5591,2.3823,4.5574,6.2647,2.32,9.86C737.928,269.1776,733.2429,270.0634,728.0418,268.9656Z"/><path class="cls-1" d="M575.1592,257.1917c-3.6431,4.4294-7.9658,5.1972-12.7482,2.0783-3.7164-2.4236-4.9478-6.4678-2.4285-9.7384,4.1021-5.3253,9.8172-2.9769,14.5126-.65C578.2347,250.7342,577.0042,254.2217,575.1592,257.1917Z"/><path class="cls-1" d="M737.6568,227.1193c-3.1135,3.5829-6.74,6.1166-10.88,2.1828-3.1262-2.9712-5.7674-7.1176-1.6183-11.1575,3.1851-3.1012,7.7462-4.6945,11.7582-2.25C741.7435,218.8352,739.8063,223.2082,737.6568,227.1193Z"/><path class="cls-1" d="M640.7862,107.1144c-3.1741-2.2885-2.9805-9.003-2.9805-9.003l13.0461-2.76.8336,9.4832S645.181,109.9345,640.7862,107.1144Z"/><path class="cls-1" d="M704.4808,198.7666c-2.4677-3.5254-5.7559-7.4826-1.813-11.4693a9.4053,9.4053,0,0,1,12.0048-1.55c5.3985,3.5894,1.7655,7.6653-.649,11.0595C711.6759,200.1074,708.5714,202.2758,704.4808,198.7666Z"/><path class="cls-1" d="M573.31,229.2956c-2.661,2.9863-5.9805,5.2427-9.5963,2.4382-4.0207-3.1185-6.1325-7.5154-2.554-12.4266,2.8474-3.9076,6.4116-2.7422,9.8114-.6713C575.417,221.344,576.344,224.8906,573.31,229.2956Z"/><path class="cls-1" d="M657.3885,315.8841c3.2064,3.0248,4.62,6.5779,1.2987,9.9678-3.1135,3.178-7.2963,5.7857-11.3716,1.6128-2.6571-2.7208-4.6764-6.9865-1.8835-10.3162C648.4991,313.4922,653.1415,313.78,657.3885,315.8841Z"/><path class="cls-1" d="M615.1836,166.1247c4.4021,2.8861,5.08,6.52,2.7053,10.1582-2.621,4.0157-7.1717,6.0035-11.3291,3.6257-3.456-1.9766-3.8031-6.6414-2.2378-10.3725C606.6289,164.0377,611.4448,165.982,615.1836,166.1247Z"/><path class="cls-1" d="M645.9163,157.4934c-3.4646,5.1815-6.8758,8.8389-12.5726,6.0735-3.8236-1.8561-2.971-5.232-1.3527-8.3683,2.6453-5.1268,12.1808-4.9725,12.1808-4.9725S646.2524,155.4223,645.9163,157.4934Z"/><path class="cls-1" d="M593.5807,147.0872c-3.0053-2.5526-5.85-5.728-3.0772-9.5124,3.1908-4.355,8.2108-5.01,12.8623-2.3478,3.6058,2.0637,2.3993,5.4446.73,8.3884C601.6638,147.9036,598.4439,150.0064,593.5807,147.0872Z"/><path class="cls-1" d="M658.9154,60.6955c3.5491,2.42,5.717,5.6209,2.1572,9.2089-3.1134,3.1379-7.5983,4.7118-11.7788,2.2872-4.0928-2.3737-3.3412-6.4882-1.3329-9.9326C650.79,57.4068,654.7708,57.8546,658.9154,60.6955Z"/><path class="cls-1" d="M697.84,155.0974c3.87,2.8345,3.7909,6.2455,1.1334,9.7082-2.5172,3.28-6.2445,5.3821-9.6389,2.3374-3.2361-2.9026-4.7815-7.5689-1.65-11.5955C690.4959,151.931,694.3392,153.1058,697.84,155.0974Z"/><path class="cls-1" d="M591.6327,322.2046c-3.15-3.3045-4.1285-6.792-1.9653-9.4325,3.1142-3.8013,7.4488-6.6619,12.7265-3.8964,3.7907,1.9864,3.038,5.3511,1.1247,8.2624C600.5353,321.6776,596.1144,322.7082,591.6327,322.2046Z"/><path class="cls-1" d="M459.0325,176.6833c3.56,2.9544,3.7343,6.5453,1.1387,9.84-2.81,3.5663-7.11,5.6647-11.1547,2.9419a6.9651,6.9651,0,0,1-1.5313-10.0021C450.2756,175.6677,454.6271,175.4184,459.0325,176.6833Z"/><path class="cls-1" d="M674.9573,100.092c-3.0979-3.42-2.6465-7.3375-.4182-10.402,3.2558-4.4774,7.6611-3.0085,11.3954-.3173,2.6138,1.8836,5.5748,4.88,2.5513,7.9122C684.9566,100.8244,679.9364,101.2747,674.9573,100.092Z"/><path class="cls-1" d="M588.8848,28.582c3.4426,2.6808,5.2863,6.2014,2.3056,9.6056-2.899,3.3107-7.4888,4.753-11.5257,2.0308-3.3134-2.2343-4.7163-6.738-2.3767-9.8657C580.0159,26.7057,584.7054,26.8123,588.8848,28.582Z"/><path class="cls-2" d="M1204.42,332.9919c1.0378,8.1394.4026,16.5485-.0745,24.7057-.6769,11.5753-1.6963,23.1283-2.6116,34.6863-.8317,10.5028-1.6959,21.0293-1.9,31.5672-.2089,10.7865,1.5451,21.3089,3.23,31.9471,2.9178,18.4264,7.0731,36.648,15.0259,53.6129a1.5182,1.5182,0,0,0,2.0523.5381c4.0636-2.29,8.5668-4.8494,10.5653-9.296,2.5523-5.6789.55-13.6467.672-19.713.2918-14.5436,4.2379-28.2545,8.2443-42.12q8.227-28.4718,16.4634-56.9409,3.9828-13.7743,7.9634-27.5491a1.5013,1.5013,0,0,0-2.8928-.7975q-9.8262,34.02-19.67,68.0354c-3.2875,11.37-6.872,22.7192-9.6788,34.2182a117.4785,117.4785,0,0,0-3.4588,28.0017c-.001,4.5749,1.41,10.5536-.0807,14.9328-1.45,4.2592-5.9792,6.5744-9.641,8.6376l2.0522.5381c-7.1809-15.3182-11.17-31.7653-13.9864-48.3838-1.944-11.4716-4.0432-23.0434-3.8761-34.7117.3047-21.2832,2.9422-42.5064,4.3137-63.7333.6-9.28,1.4708-18.9067.2889-28.1762-.2408-1.889-3.2439-1.913-3,0Z"/><path class="cls-2" d="M1304.4185,310.2045c12.1544,28.6788,13.67,60.2,13.1358,90.9453-.2747,15.7933-1.0929,31.66,1.2367,47.3493,2.3206,15.6276,7.52,30.8379,11.8656,45.9856l7.553,26.3281c1.2269,4.2765,2.28,8.6547,3.7087,12.8678.82,2.4191,1.7659,4.2244,4.0554,5.48,1.6938.9285,3.2094-1.6612,1.5141-2.5905-4.0383-2.2136-4.9668-11.61-6.1156-15.6141l-4.316-15.0446q-4.0462-14.1042-8.0925-28.2086c-2.7483-9.5818-5.5923-19.1828-7.1383-29.0493-1.6184-10.3283-1.7558-20.8243-1.6074-31.2554.5243-36.8533,1.4679-74.0766-13.209-108.7072-.7509-1.7718-3.3358-.2447-2.5905,1.5141Z"/><path class="cls-2" d="M1200.222,273.8278c-1.2411,6.4033,6.5051,9.9836,11.2909,12.1761a49.1106,49.1106,0,0,0,23.1308,4.3933c4.2939-.241,8.5319-1.1172,12.84-1.16a44.4339,44.4339,0,0,1,15.5872,3.1448c9.7129,3.5308,19.157,7.9619,28.67,11.9973,8.9151,3.7819,17.879,8.4872,27.1789,11.2316,6.883,2.0312,13.17.9137,17.9172-4.6913,9.79-11.5586,7.655-28.98,2.6163-42.09-5.8066-15.1087-16.6934-28.27-32.1835-33.8969-1.8176-.66-2.6009,2.2378-.7975,2.8929,16.3189,5.9274,27.2632,21.1134,31.9635,37.37,2.449,8.47,3.4222,18.0192.3141,26.459-1.7606,4.7807-5.213,10.2706-10.4483,11.684-5.9119,1.5961-12.4826-1.9834-17.7328-4.2052q-14.5853-6.1725-29.16-12.37c-8.3733-3.5521-16.868-7.8875-25.8362-9.7087-8.724-1.7717-17.1164.7849-25.852.377a45.9876,45.9876,0,0,1-14.0183-2.9125c-3.3047-1.2438-13.5248-5.0564-12.5871-9.8939.3656-1.8862-2.5253-2.694-2.8929-.7975Z"/><path class="cls-2" d="M1317,242.4131a1.5009,1.5009,0,0,0,0-3,1.5009,1.5009,0,0,0,0,3Z"/><path class="cls-2" d="M1318.477,241.5005c-6.7712-2.4258-15.8234-4.6015-21.0543,1.7353a18.8579,18.8579,0,0,0-2.1491,20.206,20.3479,20.3479,0,0,0,7.138,7.7654c5.0136,3.3169,9.0907,5.6984,12.4883,10.8935,6.1491,9.4025,11.918,19.3854,12.4194,30.8778.0839,1.9231,3.0843,1.9335,3,0a50.6948,50.6948,0,0,0-6.2664-21.4542c-3.204-6.1094-6.9087-13.5387-12.332-17.9991-2.5971-2.136-5.758-3.3862-8.4689-5.3459a16.4018,16.4018,0,0,1-6.9955-12.7168c-.123-4.3672,1.8086-10.277,5.9193-12.5176,4.3939-2.395,11.1818-.1,15.5036,1.4484,1.8208.6523,2.6048-2.2454.7976-2.8928Z"/><path class="cls-2" d="M1215.5568,283.91c.4285-2.2958,2.813-4.1839,4.198-5.987a54.2953,54.2953,0,0,0,4.1233-6.2483,1.5011,1.5011,0,0,0-2.59-1.5141,50.2109,50.2109,0,0,1-5.2027,7.5695c-1.41,1.6729-3.0043,3.15-3.421,5.3824-.3522,1.8871,2.5385,2.6959,2.8929.7975Z"/><path class="cls-2" d="M1243.8146,265.5817c2.6708,4.953,5.0927,10.1878,8.0882,14.9509,1.69,2.687,3.8194,4.7155,7.1628,4.6129,5.1563-.1582,10.9492-3.1336,15.8317-4.7057l17.65-5.6833c1.83-.5893,1.0477-3.4869-.7975-2.8928l-26.0108,8.3753c-1.6467.53-3.7181,1.6174-5.4781,1.7129-4.721.256-5.5872-2.5793-7.3785-5.8718-2.174-3.996-4.3184-8.0085-6.4775-12.0126-.9166-1.7-3.5076-.1869-2.59,1.5142Z"/><path class="cls-2" d="M1249.8722,262.1311a18.0735,18.0735,0,0,0,10.9646,8.5822c4.92,1.5141,12.9442,2.7055,17.8207.8645,7.5881-2.8646,7.1279-17.3577.9485-21.3184-1.63-1.0448-3.1364,1.5507-1.5142,2.59,3.3166,2.1257,3.4253,7.6409,2.53,11.15-1.5173,5.9472-6.5219,5.24-11.0388,5.0121-6.7628-.3407-13.6451-2.02-17.12-8.3951-.9244-1.6956-3.5158-.1832-2.59,1.5142Z"/><path class="cls-2" d="M1307.3368,258.5016c3.95-2.46,8.6822.7814,12.3059,2.5259,1.7317.8336,3.255-1.7524,1.5142-2.59-4.7108-2.2678-10.2412-5.6978-15.3342-2.5259-1.6354,1.0185-.131,3.615,1.5141,2.59Z"/><path class="cls-2" d="M1278.3381,252.1642l42.8042-21.4624c11.3571-5.6945,23.0147-10.7473,27.32-23.5356a1.51,1.51,0,0,0-1.4465-1.8987c-8.0078.3743-15.8663,3.1851-23.7984,4.3586a162.8461,162.8461,0,0,1-26.9876,1.63c-1.9313-.0371-1.9313,2.9629,0,3a166.1788,166.1788,0,0,0,24.7715-1.3145c8.651-1.1316,17.3439-4.2684,26.0145-4.6737l-1.4464-1.8988c-4.5274,13.4487-19.4729,18.5-31.1825,24.3708l-37.5628,18.8343c-1.7261.8655-.2087,3.4543,1.5141,2.59Z"/><path class="cls-2" d="M1207.2609,246.8181c1.3519-10.8965-5.6786-21.5416-3.0922-32.473,1.5126-6.3932,11.9794-7.9293,17.3585-9.7526l17.6534-5.9839c11.0723-3.7531,22.2473-8.5208,33.6126-11.26,7.3716-1.7768,11.5531,1.7216,14.507,8.0834,2.65,5.7064,4.8625,11.6553,7.267,17.4688.7276,1.759,3.6314.9879,2.8929-.7975-2.5881-6.2571-4.9264-12.6987-7.8633-18.8016-1.8958-3.9394-4.5916-7.7694-8.9831-9.0621-6.0028-1.767-12.4887,1.3949-18.0732,3.2878l-22.2991,7.5587-22.2992,7.5586c-4.7188,1.6-11.5443,2.6619-14.8127,6.839-3.21,4.1025-2.4688,10.5743-1.9253,15.359.8381,7.378,3.9873,14.4744,3.0567,21.9756-.2371,1.9112,2.765,1.894,3,0Z"/><path class="cls-2" d="M1206.9815,242.65c29.8783-6.4708,60.5395-15.7435,85.8133-33.4508,1.57-1.1.0721-3.7017-1.5141-2.59-25.0782,17.57-55.4436,26.7264-85.0967,33.1484-1.8859.4085-1.0878,3.3012.7975,2.8928Z"/><path class="cls-2" d="M1206.0383,250.2973c16.022-.5614,32.1231-6.0727,47.1889-11.2278a170.93,170.93,0,0,0,42.7047-22.14c1.5728-1.0961.075-3.6978-1.5142-2.59-13.16,9.1705-26.7725,16.6316-41.988,21.8379-14.7711,5.0543-30.6983,10.5709-46.3914,11.1207-1.9251.0675-1.9341,3.0678,0,3Z"/><path class="cls-2" d="M1329.3683,228.1455c11.5481-1.4955,23.1052-2.9962,34.7239-3.8307,11.947-.858,23.9215-.6245,35.8788-1.1972,22.9567-1.1,45.5741-5.7908,68.5341-6.8374,12.1519-.5539,24.3826-.0362,36.28,2.6542,11.278,2.55,22.1945,6.6508,33.1354,10.3373,20.0887,6.7689,40.8581,12.3589,53.9188,30.3495,12.0449,16.5913,16.3065,37.7788,14.9148,57.9664-.1328,1.9269,2.8677,1.9186,3,0,1.2375-17.95-1.94-36.5238-10.7727-52.3424-9.4832-16.9832-24.3443-26.53-42.3647-32.8173-22.6921-7.9169-45.9735-17.553-70.1775-19.0712-24.2024-1.5181-48.1849,3.2938-72.1674,5.6774-14.131,1.4044-28.2642,1.2042-42.4309,1.8281-14.2267.6266-28.3608,2.4558-42.4725,4.2833-1.8879.2445-1.9123,3.2476,0,3Z"/><path class="cls-2" d="M1606.8715,318.2216c-4.8023,17.25-8.3077,35.88-17.1111,51.6386-4.1359,7.4033-9.0052,14.37-13.1942,21.7463-4.5971,8.0948-8.8273,16.4005-13.071,24.6838q-25.3019,49.3873-47.3917,100.3266c-.7613,1.753,1.8225,3.2823,2.59,1.5141q22.4886-51.7831,48.2727-102.0437c4.2519-8.2767,8.49-16.5768,13.1453-24.6364,4.3616-7.5511,9.4543-14.6853,13.5042-22.4139,8.0827-15.4245,11.51-33.3568,16.1482-50.0179a1.5013,1.5013,0,0,0-2.8928-.7975Z"/><path class="cls-2" d="M1506.66,317.0149c-3.9139,34.0715-4.948,68.3679-5.0618,102.64-.0561,16.8917-.63,34.0005.36,50.8672.9391,15.99,7.6907,31.5522,12.5385,46.6746.5871,1.8313,3.4846,1.0484,2.8928-.7975-5.0626-15.7928-12.0036-31.9283-12.5476-48.669-.5413-16.6565-.31-33.39-.2365-50.0543.1482-33.6134,1.2156-67.2458,5.0542-100.6613.22-1.9147-2.7819-1.8989-3,0Z"/><path class="cls-2" d="M1456.42,371.9919c.1979,17.8291-1.3764,35.7432-2.3015,53.5377-1.043,20.0627-2.7395,40.0014,1.5785,59.8149,1.9414,8.9085,4.644,17.6289,7.4454,26.2981,2.131,6.5944,3.9035,13.5685,9.11,18.4673,1.4054,1.3224,3.5309-.7949,2.1213-2.1214-6.8554-6.4509-8.83-18.3347-11.45-27.0488a168.3911,168.3911,0,0,1-6.4739-28.929c-1.2546-10.8025-.5223-21.7564-.0213-32.5861,1.0372-22.42,3.2412-44.9772,2.9919-67.4327a1.5009,1.5009,0,0,0-3,0Z"/><path class="cls-2" d="M1501.42,457.9919c-.299,3.8952-2.7119,8.2281-4.1408,11.7878-2.4861,6.1934-5.1168,12.33-7.8164,18.4333-1.9365,4.378-4.0107,8.611-6.1888,12.8708a118.0414,118.0414,0,0,0-6.2475,13.5868c-1.4932,4.1524-.8759,10.6851-4.5459,13.6109-1.5093,1.2032.6258,3.3135,2.1213,2.1213,3.0568-2.4369,3.3358-5.8938,3.9457-9.5367,1.037-6.193,4.0827-11.8818,6.8929-17.4392,2.4428-4.8307,4.8105-9.6071,6.9941-14.564,2.6679-6.0561,5.2721-12.144,7.7374-18.2857,1.5642-3.8967,3.9212-8.3275,4.248-12.5853.1478-1.9254-2.8529-1.9158-3,0Z"/><path class="cls-2" d="M1346.71,533.86a52.6588,52.6588,0,0,0-.5382,22.5109c1.603,8.1056,7.6883,15.9331,11.6935,23.0031a1.5011,1.5011,0,0,0,2.59-1.5142c-3.6462-6.4363-8.9181-13.402-10.9789-20.5443-1.9511-6.7623-1.6279-15.9387.1261-22.6579a1.5013,1.5013,0,0,0-2.8929-.7976Z"/><path class="cls-2" d="M1347.4782,531.605c-.6288,15.9088,8.3465,30.7638,17.9138,42.6626,1.21,1.5046,3.3205-.63,2.1213-2.1213-9.0382-11.2408-17.6291-25.5134-17.0351-40.5413.0763-1.9306-2.9239-1.9272-3,0Z"/><path class="cls-2" d="M1347.9971,533.362a78.073,78.073,0,0,1,8.0037,9.7591c2.0279,3.1125,3.3354,6.57,5.19,9.7723a34.8906,34.8906,0,0,0,12.9424,12.726,1.5011,1.5011,0,0,0,1.5142-2.59c-6.7338-3.9-10.755-9.3332-14.1586-16.1877-2.9421-5.9251-6.9383-10.74-11.37-15.6006-1.3037-1.43-3.42.6966-2.1214,2.1213Z"/><path class="cls-2" d="M1465.5846,523.6888c1.2016,15.8176,2.6678,31.7975,10.0172,46.1336.881,1.7185,3.4705.2024,2.59-1.5142-7.0953-13.84-8.4479-29.3531-9.6076-44.6194-.1453-1.913-3.1465-1.9288-3,0Z"/><path class="cls-2" d="M1472.891,528.0087c.8031,6.6334,1.0849,13.6757,3.0346,20.0968,1.9057,6.2763,5.3758,11.9055,8.81,17.4388,1.0161,1.6371,3.6124.1325,2.59-1.5142-3.2946-5.3083-6.6789-10.6995-8.5076-16.7222-1.878-6.1851-2.1529-12.9016-2.9274-19.2992-.2291-1.8925-3.2319-1.9156-3,0Z"/><path class="cls-2" d="M1475.7079,525.5477q4.38,14.5782,9.1749,29.0249c.6052,1.8236,3.5034,1.0422,2.8928-.7975q-4.7946-14.4472-9.1749-29.0249c-.5541-1.8443-3.45-1.0586-2.8928.7975Z"/><path class="cls-2" d="M1517.3688,515.1422a73.1993,73.1993,0,0,0,2.273,55.0869c.7932,1.7568,3.3794.2333,2.59-1.5142a70.139,70.139,0,0,1-1.9706-52.7752c.655-1.82-2.2428-2.6035-2.8928-.7975Z"/><path class="cls-2" d="M1513.19,519.8318l9.6005,27.79c1.94,5.6164,3.3,14.0488,10.3353,15.16,1.8887.2983,2.7021-2.5921.7975-2.8929-6.5846-1.04-8.8334-14.7827-10.7175-20.2363l-7.123-20.6188c-.6266-1.8138-3.5256-1.0342-2.8928.7976Z"/><path class="cls-2" d="M1514.9792,519.984a46.8857,46.8857,0,0,1,9.5979,10.8023c2.0659,3.2849,3.2358,6.9865,5.1819,10.3106,3.5321,6.0331,10.5645,7.5852,15.5465,12.0167,1.4383,1.2794,3.5675-.835,2.1213-2.1213a49.1861,49.1861,0,0,0-8.4035-5.4988,18.26,18.26,0,0,1-8.0838-8.8767,52.2969,52.2969,0,0,0-13.839-18.7541c-1.4659-1.2392-3.5983.8727-2.1213,2.1213Z"/><path class="cls-2" d="M1219.47,510.3382c5.1866,11.9832,3.0316,26.1232,11.8865,36.5755,1.25,1.4751,3.3628-.6559,2.1213-2.1213-8.456-9.9815-6.4244-24.4326-11.4174-35.9683-.7648-1.7671-3.35-.2412-2.59,1.5141Z"/><path class="cls-2" d="M1221.0061,510.036q5.1222,8.1986,10.2442,16.3971c2.4951,3.9884,4.8481,7.7429,8.6814,10.5679,1.5555,1.1464,3.0535-1.4559,1.5141-2.59-4.3427-3.2005-6.8521-8.2865-9.6539-12.7711l-8.1954-13.1177c-1.0207-1.6338-3.6173-.13-2.59,1.5142Z"/><path class="cls-2" d="M1222.08,502.5263c5.782,9.8038,11.9519,19.6623,22.3845,25.0269,1.7141.8814,3.2335-1.7063,1.5142-2.59-9.98-5.1316-15.7823-14.5809-21.3083-23.9506a1.5011,1.5011,0,0,0-2.59,1.5141Z"/><path class="cls-2" d="M1407.8493,309.0365c3.4475,41.0423-13.64,79.2675-28.6873,116.3966-7.4191,18.3063-14.1573,36.8138-18.7472,56.0534q-3.4749,14.5662-5.5231,29.4222-.9242,6.6894-1.5643,13.4125c-.49,5.1157-.765,14.312-8.3336,13.3879-1.9121-.2335-1.8952,2.7686,0,3,4.8593.5933,8.503-2.8305,9.9724-7.2544,2.4208-7.2884,1.993-16.03,3.0794-23.6019a307.3411,307.3411,0,0,1,11.2669-49.2068c10.26-32.3584,26.2715-62.6347,35.3218-95.4072,5.0526-18.2961,7.81-37.2175,6.215-56.2023-.16-1.91-3.1619-1.9269-3,0Z"/><path class="cls-2" d="M1204.2861,246.2476c-.58,3.4624-5.3178,5.6912-7.9633,7.6332l-7.9257,5.8182-15.0589,11.0547a1.514,1.514,0,0,0,.7571,2.7952c8.8418.472,17.9151,1.5075,26.76.7664,8.0017-.67,15.974-2.8028,23.794-4.5568,18.2617-4.0959,35.6972-10.2369,53.1487-16.9214,1.7847-.6836,1.01-3.5852-.7976-2.8929-16.8432,6.4516-33.6869,12.4775-51.297,16.503-8.707,1.99-17.738,4.5283-26.683,4.9882-8.2738.4253-16.6644-.4455-24.9255-.8865l.7571,2.7952,19.8143-14.5456c3.9511-2.9,11.6132-6.39,12.5122-11.7534.3166-1.8885-2.5738-2.7-2.8928-.7975Z"/><g class="cls-3"><path class="cls-4" d="M1107.7318-.3988C1071.98,89.9933,1006.7569,167.942,924.9294,220.2441c-94.208,60.2153-209.03,81.7247-319.68,74.94-33.5451-2.0567-66.7257-8.058-97.9308-20.8158-31.6089-12.923-60.9394-30.9882-90.3248-48.2088a1.5011,1.5011,0,0,0-1.5141,2.59c26.3627,15.4493,52.634,31.4546,80.5442,44.0044a291.1777,291.1777,0,0,0,84.8769,23.2358c30.3553,3.6828,61.1844,3.8675,91.6965,2.447a610.383,610.383,0,0,0,87.2246-10.1854c53.5922-10.34,105.3624-28.9494,152.4281-56.7006a474.49,474.49,0,0,0,112.2562-92.1759A465.6994,465.6994,0,0,0,1110.6247.3988c.71-1.7957-2.19-2.5749-2.8929-.7976Z"/></g><g class="cls-3"><path class="cls-4" d="M1306.0532,308.3165c-39.3448-7.4554-77.9437-18.5605-114.8564-34.1514-1.7576-.7424-3.2885,1.841-1.5141,2.59a568.66,568.66,0,0,0,115.573,34.4539c1.8867.3575,2.6952-2.5333.7975-2.8929Z"/></g><g class="cls-3"><path class="cls-4" d="M388.7576,256.827c-35.7951,53.22-77.1155,102.9671-126.7142,143.8945-47.0652,38.8369-100.8833,70.4054-158.9679,89.5216A373.5059,373.5059,0,0,1,4.35,508.95c-1.9219.0924-1.9331,3.0929,0,3,60.4566-2.9046,119.1733-21.7574,172.34-50.1947,53.9094-28.8344,102.6466-67.4438,143.873-112.53,25.9478-28.3769,49.3353-58.9928,70.785-90.8842,1.08-1.6064-1.5173-3.11-2.59-1.5142Z"/></g><g class="cls-3"><path class="cls-4" d="M457.1981,140.2349Q436.5928,179.8766,413.46,218.1c-1.0056,1.6541,1.5878,3.1634,2.59,1.5142q23.2112-38.1768,43.7378-77.865c.8893-1.7109-1.6987-3.23-2.59-1.5141Z"/></g><g class="cls-3"><path class="cls-4" d="M511.3978,29.5246c-5.9353,12.2472-11.6618,24.596-17.5448,36.8686-.8306,1.7326,1.7553,3.2563,2.59,1.5141,5.883-12.2725,11.61-24.6214,17.5448-36.8686.8384-1.73-1.7477-3.253-2.59-1.5141Z"/></g><g class="cls-3"><path class="cls-4" d="M512.693,31.7817a1.5009,1.5009,0,0,0,0-3,1.5009,1.5009,0,0,0,0,3Z"/></g><g class="cls-3"><path class="cls-4" d="M369.6218,237.5956c-16.56,22.9193-37.9173,41.5694-57.6562,61.6193a281.8317,281.8317,0,0,0-26.5014,30.398c-8.8555,12.0353-15.0244,25.9908-24.5771,37.4977-9.871,11.89-23.5166,19.78-36.7034,27.44q-19.6681,11.4252-40.042,21.5727a648.8325,648.8325,0,0,1-85.3687,35.204A626.9378,626.9378,0,0,1-.3988,475.2827c-1.9016.2992-1.0942,3.1905.7976,2.8928a637.7387,637.7387,0,0,0,174.8853-54.4148q20.894-9.9486,41.084-21.2926c13.0988-7.3491,26.6974-14.68,38.0924-24.5709,11.2732-9.7853,17.9818-22.65,25.7275-35.1464,7.7135-12.4441,17.0768-23.7209,27.0976-34.3623C329,285.33,353.5631,264.9208,372.2122,239.11c1.1324-1.5672-1.4689-3.0663-2.59-1.5142Z"/></g><g class="cls-3"><path class="cls-4" d="M436.8846,119.7683q-9.0853,16.5551-17.9086,33.25C413.51,163.3069,408.71,174.2045,402.47,184.0415c-1.0373,1.6351,1.5578,3.1418,2.59,1.5142,6.2411-9.8377,11.04-20.734,16.5065-31.0234q8.86-16.6765,17.9086-33.25c.9294-1.6935-1.66-3.209-2.59-1.5141Z"/></g><g class="cls-3"><path class="cls-4" d="M436.18,125.0253a1.5009,1.5009,0,0,0,0-3,1.5009,1.5009,0,0,0,0,3Z"/></g><g class="cls-3"><path class="cls-4" d="M482.0013,46.0226a1.5009,1.5009,0,0,0,0-3,1.5009,1.5009,0,0,0,0,3Z"/></g><g class="cls-3"><path class="cls-4" d="M495.3289,19.9573q-7.3866,11.8581-14.6228,23.8082c-1.0026,1.6558,1.5906,3.1653,2.5905,1.5142q7.2363-11.95,14.6227-23.8082c1.0237-1.6434-1.5706-3.1512-2.59-1.5142Z"/></g><g class="cls-3"><path class="cls-4" d="M1925.92,406.4919c-81.0207-10.2745-158.2762-43.2867-226.4086-87.5577a664.5687,664.5687,0,0,1-96.3869-76.11q-21.5807-20.57-41.147-43.117c-13.86-15.975-26.9125-32.8655-36.6887-51.6939-11.1961-21.5633-15.8055-44.8307-19.4307-68.64-3.5129-23.0721-6.8549-46.3443-16.8228-67.6864-.8163-1.7478-3.4033-.2262-2.59,1.5141,18.4038,39.404,13.8073,84.9544,30.8294,124.8473,16.0694,37.66,45.6683,69.2919,74.3766,97.7991,58.3228,57.9142,127.897,105.5842,203.6728,137.587,41.7513,17.633,85.5855,30.35,130.5963,36.0576,1.91.2423,1.8925-2.76,0-3Z"/></g><g class="cls-3"><path class="cls-4" d="M1945.92,392.4919c-81.0207-10.2745-158.2762-43.2867-226.4086-87.5577a664.5687,664.5687,0,0,1-96.3869-76.11q-21.5807-20.57-41.147-43.117c-13.86-15.975-26.9125-32.8655-36.6887-51.6939-11.1961-21.5633-15.8055-44.8307-19.4307-68.64-3.5129-23.0721-6.8549-46.3443-16.8228-67.6864-.8163-1.7478-3.4033-.2262-2.59,1.5141,18.4038,39.404,13.8073,84.9544,30.8294,124.8473,16.0694,37.66,45.6683,69.2919,74.3766,97.7991,58.3228,57.9142,127.897,105.5842,203.6728,137.587,41.7513,17.633,85.5855,30.35,130.5963,36.0576,1.91.2423,1.8925-2.76,0-3Z"/></g><g class="cls-3"><path class="cls-4" d="M1175.4468,267.18c-42.9183-19.92-84.0042-44.3953-123.8718-69.8131-19.3267-12.3218-37.4117-26.4464-54.8087-41.3425-16.135-13.8154-32.4231-27.8342-47.188-43.1259C901.4287,63.0316,869.84-1.1723,845.2-65.27c-8.79-22.865-16.1117-46.2561-24.8335-69.1366-.6809-1.7863-3.5823-1.0113-2.8928.7975,7.6452,20.0562,14.0917,40.5612,21.62,60.666,11.2265,29.98,23.806,59.4971,38.632,87.8866,16.7452,32.0645,36.3969,62.8843,60.4285,90.0117,13.6139,15.3678,28.9644,28.9788,44.3122,42.5723,16.6192,14.72,33.6829,28.9806,51.8146,41.8143,21.7705,15.4091,45.0947,28.8472,68.0807,42.3462,23.3136,13.6914,47.0378,26.6959,71.5708,38.0827,1.74.8077,3.2656-1.7775,1.5142-2.59Z"/></g><g class="cls-3"><path class="cls-4" d="M1317.3189,364.5455c-61.2628-11.6071-118.6709-33.8465-173.1458-63.9924-26.6723-14.76-53.2639-30.2618-78.7645-46.9765-23.7651-15.5771-45.4314-34.2976-66.3843-53.4177-20.5079-18.7141-40.86-37.7564-59.0559-58.7621a485.0308,485.0308,0,0,1-47.0352-64.5541c-23.172-37.8869-41.3014-78.626-55.6523-120.6079-5.9965-17.5421-11.3082-35.3006-16.4015-53.1228-3.2968-11.5362-6.248-23.2891-10.5129-34.5188-.6788-1.7874-3.58-1.0122-2.8928.7975,3.7357,9.8365,6.3993,20.0934,9.2811,30.2013,4.375,15.3452,8.8334,30.6655,13.7674,45.8421,13.3706,41.1267,30.08,81.2332,51.5087,118.844A503.4021,503.4021,0,0,0,924.8474,127.83c17.3328,21.8635,36.8293,41.4958,57.1169,60.591,21.0479,19.8107,42.6068,39.243,65.8447,56.4766,23.9959,17.7957,50.3882,32.7073,76.206,47.6721,53.4342,30.9723,109.4277,56.3718,169.8463,70.1652,7.5221,1.7173,15.08,3.267,22.66,4.7033,1.8867.3574,2.6951-2.5333.7975-2.8929Z"/></g><g class="cls-3"><path class="cls-4" d="M1507.6242,319.36c-31.855,1.5451-63.7554,1.9223-95.6263.6292-1.9305-.0783-1.927,2.9218,0,3,31.8709,1.2931,63.7713.9159,95.6263-.6292,1.9218-.0932,1.933-3.0938,0-3Z"/></g><g class="cls-3"><path class="cls-4" d="M1663.7224,295.11a180.1651,180.1651,0,0,1-55.2408,15.8526c-1.8947.2214-1.9171,3.224,0,3a184.7524,184.7524,0,0,0,56.755-16.2621c1.7491-.8131.2272-3.4-1.5142-2.59Z"/></g><g class="cls-3"><path class="cls-4" d="M1919.4467,117.7723c-13.3244,9.3585-23.6754,21.835-34.5548,33.7875-12.3637,13.583-26.2668,24.57-41.7376,34.4243-33.3913,21.2689-67.2446,41.8434-100.87,62.7412-18.5631,11.537-36.9736,23.3824-55.8672,34.3741a1.5011,1.5011,0,0,0,1.5141,2.59c34.0347-19.8,67.1193-41.3672,100.56-62.1507q25.0772-15.5855,50.1531-31.1735c14.7962-9.2342,29.2625-18.9085,41.5329-31.4115,13.4481-13.703,24.9228-29.452,40.7829-40.5914,1.568-1.1013.0706-3.7035-1.5142-2.59Z"/></g><g class="cls-3"><path class="cls-4" d="M1502.5214,364.5455c-32.797,6.81-66.35,5.9238-99.6662,6.0312a1.5009,1.5009,0,0,0,0,3c33.5941-.1083,67.3958.7282,100.4637-6.1383,1.8891-.3923,1.09-3.2847-.7975-2.8929Z"/></g><g class="cls-3"><path class="cls-4" d="M1701.86,321.9313c-5.4462,5.71-13.5749,9.1067-20.6666,12.2256a296.2955,296.2955,0,0,1-29.0578,10.7977c-6.4833,2.0735-13.0981,4.2542-19.8129,5.4587-10.631,1.907-21.5464,2.7732-32.2627,4.0624-1.8929.2277-1.9158,3.2305,0,3,10.8566-1.3061,21.8558-2.2641,32.6412-4.0969,7.2209-1.2271,14.3381-3.6245,21.2883-5.8711a298.9582,298.9582,0,0,0,29.2482-10.9934c7.1754-3.1811,15.2268-6.6776,20.7436-12.4617,1.3325-1.3971-.7856-3.5218-2.1213-2.1213Z"/></g><g class="cls-3"><path class="cls-4" d="M1725.86,311.6c12.9422-8.8351,24.9485-18.9,37.3515-28.4541a313.079,313.079,0,0,1,40.3753-26.1144c14.0434-7.737,27.8934-15.5913,40.8051-25.144a368.81,368.81,0,0,0,33.9374-28.7554c12.8716-12.1768,25.11-24.9982,37.3345-37.8178,1.3324-1.3972-.7857-3.522-2.1213-2.1213-21.4425,22.4866-43.0206,45.1612-67.8447,63.9914-24.9439,18.921-54.0791,30.9387-79.132,49.67-14.1716,10.5957-27.593,22.17-42.22,32.1551-1.5851,1.0821-.086,3.6828,1.5142,2.59Z"/></g><g class="cls-5"><path class="cls-4" d="M1963.8491,593.0912c-3.1973-51.82-4.8483-104.0328-10.7-155.6374-2.705-23.8532-6.7624-47.6354-13.774-70.63-7.2244-23.6924-18.1682-45.7627-29.8358-67.5324q-9.3531-17.4512-18.7725-34.8668c-5.1093-9.4867-9.5847-21.0619-18.05-28.1466-7.7992-6.5274-18.4282-9.217-27.7618-12.7593a331.4668,331.4668,0,0,1-31.7981-13.6556,155.2076,155.2076,0,0,1-28.8264-18.3263c-8.6989-7.1507-15.8909-15.6539-23-24.3329-7.0493-8.6059-14.21-17.0989-23.0838-23.9a125.37,125.37,0,0,0-28.17-15.7313c-25.6958-10.74-53.0329-18.0754-79.5134-26.6224l-85.6545-27.6464a1.5145,1.5145,0,0,0-1.8451,1.0476c-5.3145,22.2667,2.3955,44.0721,13.6027,63.2294a310.8763,310.8763,0,0,0,20.5669,29.9661c6.3347,8.3968,12.7706,16.7737,20.1833,24.2605,7.28,7.3527,15.5655,13.8359,25.0729,18.0461,9.5214,4.2164,19.8219,6.0614,29.9175,8.3475,10.8777,2.4632,22.1509,5.5094,30.7562,12.9911,8.8422,7.6877,13.53,18.7753,17.65,29.4617,7.8712,20.4171,17.25,39.3866,31.29,56.3548,14.99,18.1165,33.7638,30.5849,52.35,44.5826,10.2521,7.721,19.4928,16.39,27.0832,26.7787a211.7328,211.7328,0,0,1,17.585,29.6843c10.286,20.3618,19.4832,41.099,32.0691,60.2122a293.9324,293.9324,0,0,0,50.5052,58.3242c9.1778,8.1277,19.1274,15.2053,28.5972,22.9639,9.6719,7.9242,18.618,17.0932,21.6752,29.5883.4586,1.8744,3.3523,1.08,2.8928-.7976-4.9306-20.1519-23.6314-31.5991-38.8591-43.6643a291.4451,291.4451,0,0,1-48.7972-49.2c-14.3706-18.4355-25.8688-38.5152-36.0238-59.5178-9.5933-19.8406-18.8922-40.2389-33.371-57.1027-15.7174-18.3064-37.5348-29.332-55.4174-45.1727a169.2007,169.2007,0,0,1-41.0485-55.0265c-8.4452-18.1188-12.4935-40.4368-29.9108-52.5952-17.3664-12.1228-40.0777-10.7013-58.8712-19.4592-22.9476-10.6938-38.7669-34.2831-52.8491-54.3848-15.6077-22.2794-30.4581-48.9928-23.7561-77.0728l-1.8452,1.0476c48.937,15.7952,98.1169,30.991,146.8333,47.4533,21.872,7.391,42.61,16.7194,58.4159,34.0716,7.4094,8.1345,13.8857,17.0689,21.378,25.1308a127.1572,127.1572,0,0,0,23.7062,19.7676c17.7636,11.6052,37.6937,19.3747,57.5031,26.7046,5.3308,1.9724,10.782,3.8347,15.6028,6.9072,5.6473,3.5993,9.252,8.8238,12.46,14.572,6.0374,10.8184,11.7667,21.8206,17.6413,32.7283,12.1821,22.6194,24.9385,45.14,33.8595,69.3053,8.3781,22.6943,13.49,46.4577,16.843,70.3768,3.8473,27.4443,5.4167,55.1445,7.1221,82.7846l5.3736,87.0924c.1183,1.9179,3.1191,1.9314,3,0Z"/></g><g class="cls-5"><path class="cls-4" d="M1950.1252,590.5035l-1.4266-93.1966c-.7891-51.5513-1.7387-104.0788-18.2212-152.93-6.5008-19.2673-15.3267-37.6539-24.13-55.9841q-9.948-20.7147-19.8958-41.4294c-2.5409-5.2909-5.1527-10.6848-9.2579-14.88-5.0388-5.1491-11.88-8.0487-18.5177-10.8488-27.9943-11.8091-56.6574-24.728-77.0739-47.2291-10.9837-12.1053-19.201-26.6147-30.9538-37.9747-16.6142-16.0586-38.9089-24.5731-60.5462-32.681l-133.37-49.9768c-9.7019,31.93,10.0117,64.64,28.8241,92.2037,11.93,17.48,24.6793,35.6907,43.6327,45.1063,19.4813,9.6778,44.1968,9.3339,59.9131,24.3733,11.5592,11.0613,15.2462,27.7123,20.5932,42.7914a169.9832,169.9832,0,0,0,46.9869,69.8341c13.9658,12.4239,30.017,22.56,42.59,36.3927,21.09,23.2037,30.4025,54.4011,43.8537,82.7256a292.067,292.067,0,0,0,74.998,97.3984c13.9505,11.793,30.116,24.0187,33.2661,42.0121"/></g><path class="cls-6" d="M1599.9659,84.2448a134.7626,134.7626,0,0,0-65.56-14.2425,9.7021,9.7021,0,0,0-5.1178,1.1964c-1.5385,1.0356-2.37,2.8189-3.09,4.5279a126.3846,126.3846,0,0,0-9.863,51.3635l62.0908-16.0206c-7.4835,9.7152-19.4523,14.5935-29.6578,21.3933A86.0192,86.0192,0,0,0,1525.78,155.057a10.0654,10.0654,0,0,0-1.9437,4.0812c-.3569,2.3718.892,4.6507,1.9971,6.7794,12.4015,23.8889,11.8773,54.492,30.2785,74.1356a748.6527,748.6527,0,0,1,46.9746-82.9809c2.4145-3.6945,6.3668-7.8845,10.4479-6.204.473,6.6761-2.772,12.9821-5.8331,18.9339a637.72,637.72,0,0,0-34.0886,78.9667c-.5705,1.6126-1.1371,3.38-.5768,4.9958.5577,1.6085,2.0894,2.6474,3.5618,3.5021,13.0728,7.5888,29.5475,10.3467,39.2273,21.9566a229.4341,229.4341,0,0,1,8.5573-54.5182c4.3858-15.462,12.7566-32.5664,28.499-35.8041a160.0278,160.0278,0,0,0-19.4721,85.0706c.235,4.4366.7745,9.1646,3.6132,12.5822,5.8616,7.057,17.5756,4.6378,25.3082,9.5741-1.4448-15.4889-2.8839-31.18-.3744-46.532s9.451-30.5848,21.8943-39.9205a230.805,230.805,0,0,0-6.3133,93.118,8.4284,8.4284,0,0,0,.79,2.9573,8.6517,8.6517,0,0,0,3.7928,3.0739q30.9965,16.5079,61.37,34.1518c18.8106-29.4755,37.5543-60.7245,40.6543-95.5532a11.6752,11.6752,0,0,0-.5935-6.069c-.96-2.0181-2.9218-3.3379-4.7941-4.5581l-65.4894-42.68a115.6471,115.6471,0,0,1,71.8454,23.5215l.3056-40.3722c.0128-1.6882-.0108-3.4993-.98-4.8814-1.0869-1.5493-3.0634-2.1458-4.8923-2.6324a609.9913,609.9913,0,0,0-82.5087-15.9631c1.6251-2.9962,5.1362-4.3586,8.4-5.3409a116.7371,116.7371,0,0,1,71.78,1.639c-.27-3.6383-1.5811-7.1076-2.8784-10.5175-4.5683-12.0075-10.1-25.1036-21.67-30.6876-6.7068-3.2369-14.4357-3.3775-21.8828-3.3859q-18.6075-.021-37.21.538c-9.1794.2759-19.2226,1.0042-25.9008,7.308,9.5493-10.5906,23.4321-16.4843,37.479-18.9409s28.43-1.7781,42.6733-1.0915l-17.6789-25.7994c-2.0555-3-4.2563-6.1276-7.5276-7.7154-2.7657-1.3424-5.9681-1.4114-9.0362-1.2179a60.7111,60.7111,0,0,0-39.8645,18.6868c-6.42,6.7945-12.7862,15.8609-22.1319,15.6545-1.8514-8.1316,3.3953-16.0135,8.3668-22.7094,10.662-14.36,22.68-29.6618,40.0148-34.0663l-41.4722-8.24c-8.4773-1.6844-17.6429-3.295-25.4627.3862-4.97,2.34-8.7745,6.5684-12.1554,10.8984a130.0243,130.0243,0,0,0-21.9441,42.3692"/><g class="cls-3"><path class="cls-4" d="M1598.32,82.95a138.9963,138.9963,0,0,0-33.9841-11.7848c-10.8763-2.2132-23.268-4.0264-34.34-2.4981-3.64.5025-5.6622,2.37-7.2116,5.6614a102.9492,102.9492,0,0,0-5.7852,16.4376,130.5511,130.5511,0,0,0-4.5677,36.3244,1.5175,1.5175,0,0,0,1.8988,1.4464l62.0907-16.0206-1.4594-2.5071c-9.2645,11.5011-23.8255,16.4188-35.1807,25.4018a87.5872,87.5872,0,0,0-15.7022,16.1218c-3.9188,5.2219-5.2517,8.4835-2.2768,14.4949,11.9845,24.2166,12.0352,54.41,30.8462,75.0866a1.51,1.51,0,0,0,2.3559-.3036q11.2515-23.1378,24.0168-45.4906,6.2763-10.959,12.9193-21.7024,3.4442-5.5693,6.9855-11.078c2.4769-3.8518,6.0407-11.7217,11.8069-10.2246l-1.1013-1.4464c.2128,8.21-4.1711,15.2551-7.7519,22.345q-5.2724,10.4392-10.16,21.0669-9.2661,20.1521-17.13,40.9122-1.9883,5.25-3.8838,10.5339c-.91,2.5358-2.4439,5.6519-1.5193,8.4372,1.38,4.1556,7.2479,6.1147,10.7994,7.7509,11.3282,5.2191,23.8893,8.654,32.3755,18.37a1.5158,1.5158,0,0,0,2.5607-1.0606,223.198,223.198,0,0,1,9.0923-56.1159c4.1693-13.708,11.6424-29.2033,26.8627-32.76l-1.694-2.2035a163.5358,163.5358,0,0,0-19.7094,69.9242c-.43,8.7859-2.093,22.2208,4.0851,29.5464,6.29,7.4582,17.728,5.2278,25.6118,9.8086a1.5113,1.5113,0,0,0,2.257-1.2952c-2.7365-29.4035-4.9821-65.133,21.0807-85.3918l-2.5071-1.4594a233.968,233.968,0,0,0-6.9567,88.8548c.5927,5.09.7129,8.9309,5.3674,11.6861,6.5966,3.9048,13.5631,7.2815,20.2884,10.9656q20.9615,11.4826,41.6294,23.4884a1.53,1.53,0,0,0,2.0523-.5381c17.606-27.6194,35.401-56.842,40.1034-89.8534.8534-5.991,2.2693-12.2407-2.8514-16.5943-6.1082-5.1932-13.8107-9.141-20.533-13.522l-47.48-30.9434-.7571,2.7952a115.7922,115.7922,0,0,1,71.0882,23.3167c.9464.7119,2.2493-.2613,2.2571-1.2952.097-12.8165.2232-25.6331.2911-38.45.0173-3.2732.2615-6.7074-2.5227-8.9783-3.6161-2.9494-10.2559-3.4386-14.6192-4.5194a621.1906,621.1906,0,0,0-72.7249-13.4017l1.2952,2.2571c3.7085-5.4666,13.5989-6.4646,19.609-7.58a114.0853,114.0853,0,0,1,19.9548-1.8784,117.2374,117.2374,0,0,1,38.9228,6.4456,1.5071,1.5071,0,0,0,1.8988-1.4464c-1.24-10.32-6.5927-22.2422-12.459-30.82a33.1787,33.1787,0,0,0-25.1087-14.8832c-14.3293-1.4789-29.281-.3456-43.6571.0393-10.79.2888-22.3114.3682-30.8774,7.8586l2.1214,2.1213c20.2614-21.742,51.743-20.906,79.0917-19.5931a1.5094,1.5094,0,0,0,1.2952-2.257c-6.7456-9.8442-12.8959-20.8744-20.7092-29.8991-6.5327-7.5456-16.7534-6.089-25.55-3.9318a62.6468,62.6468,0,0,0-26.1392,13.5857c-7.5717,6.6029-13.9512,18.81-25.1356,19.1108l1.4464,1.1012c-1.3051-7.6226,2.9465-14.28,7.22-20.1988,3.5886-4.97,7.33-9.8624,11.3388-14.5023,7.8347-9.0686,17.0072-17.002,28.7754-20.2293,1.3626-.3737,1.4946-2.5959,0-2.8929l-37.702-7.491c-10.1337-2.0135-21.3912-4.8355-31.1172.1667-8.9033,4.5791-15.1881,14.7531-20.261,23.0229a134.7325,134.7325,0,0,0-13.7994,30.7628c-.5709,1.8489,2.324,2.6395,2.8928.7975a131.9445,131.9445,0,0,1,12.1721-27.8432c5.1218-8.7419,11.6283-19.9454,21.1211-24.4076,10.1579-4.7747,22.5208-.7335,32.9068,1.33l32.9893,6.5547V34.6953c-13.3172,3.6521-23.4961,12.9729-32.1154,23.3887-7.9641,9.6239-19.623,21.745-17.3138,35.2321a1.5046,1.5046,0,0,0,1.4464,1.1013c7.7929-.21,13.3213-5.2844,18.34-10.7524,7.0936-7.7283,14.2631-14.4873,24.023-18.76,8.7261-3.82,24.3408-8.9749,31.8192-.7109,3.9227,4.3348,6.9646,9.7378,10.2647,14.5538L1744.13,94.0659l1.2952-2.2571c-28.1643-1.3521-60.3858-1.8773-81.2131,20.4718a1.5009,1.5009,0,0,0,2.1214,2.1213c8.5741-7.4975,21.0078-6.7948,31.693-7.0546,11.8208-.2873,23.72-.6746,35.5415-.2887,11.5575.3772,21.0057,3.9949,27.6969,13.7214,5.5792,8.11,10.8719,19.5065,12.0494,29.3062l1.8988-1.4464a119.5735,119.5735,0,0,0-45.0583-6.3919,118.1678,118.1678,0,0,0-21.5059,3.1263c-5.61,1.3565-11.8814,2.6023-15.31,7.6568-.71,1.0469.2716,2.13,1.2952,2.2571a615.0717,615.0717,0,0,1,64.4944,11.5027q7.4442,1.7452,14.8429,3.6767c3.5162.918,6.6157,2.0487,7.5383,6.1572.5492,2.4454-.0333,5.7926-.0525,8.33l-.2474,32.6823,2.2571-1.2952a118.4567,118.4567,0,0,0-72.6024-23.7263,1.5126,1.5126,0,0,0-.7571,2.7952l42.5681,27.7424q10.6419,6.9354,21.284,13.8711c4.2263,2.7676,6.5582,5.1252,6.282,10.3989a88.3837,88.3837,0,0,1-1.8147,12.497c-5.9933,30.09-22.3632,56.7728-38.6349,82.2991l2.0523-.5381q-18.5633-10.7706-37.3546-21.14-8.97-4.9444-17.9943-9.7911c-3.0765-1.6527-8.1854-3.3209-9.6527-6.8329-1.292-3.0923-1.0777-8.0806-1.3808-11.3942a231.8732,231.8732,0,0,1,7.4325-82.449,1.5139,1.5139,0,0,0-2.5071-1.4594c-26.6779,20.7369-24.7644,57.3725-21.9593,87.5131l2.2571-1.2952c-7.0813-4.1145-16.9564-2.5283-23.2974-7.7374-4.6681-3.8348-4.7959-10.1909-4.9962-15.7732a157.568,157.568,0,0,1,.2932-16.7832,159.9589,159.9589,0,0,1,19.0892-64.8809,1.5184,1.5184,0,0,0-1.6939-2.2035c-14.8235,3.464-22.95,17.422-27.6475,30.84-6.7832,19.3764-9.7089,40.487-10.51,60.9292l2.5607-1.0607c-7.2139-8.259-17.3308-12.2024-27.2055-16.3333-3.0717-1.2849-6.1323-2.5982-9.1-4.1118-3.7684-1.9222-6.3722-3.6416-5.5215-8.55.6032-3.48,2.5969-7.2315,3.8374-10.551q1.965-5.2584,4.0226-10.4817,8.1561-20.7123,17.7649-40.8121c3.1743-6.6448,6.5882-13.1643,9.84-19.7691,2.6183-5.3174,4.6657-10.6793,4.51-16.6855a1.5336,1.5336,0,0,0-1.1012-1.4465c-6.896-1.79-10.9669,5.0586-14.1811,10.0308q-8.3794,12.963-16.2188,26.2645-15.4406,26.1963-28.7165,53.5791l2.3558-.3036c-17.3014-19.0169-17.8005-46.4636-27.79-69.1058-1.5072-3.4163-4.1223-6.7992-3.5078-10.5712.7-4.2959,4.4554-8.06,7.28-11.25a84.77,84.77,0,0,1,16.37-14.3072c10.3009-6.8768,22.0123-11.76,29.9613-21.6279a1.5134,1.5134,0,0,0-1.4594-2.5071l-62.0908,16.0207,1.8988,1.4464a127.9644,127.9644,0,0,1,3.3374-31.1266,126.0847,126.0847,0,0,1,4.4658-14.7712c.79-2.1308,1.505-5.6,3.0933-7.2251,2.7283-2.7913,6.619-2.5421,10.1341-2.56a134.5608,134.5608,0,0,1,60.3435,14.133c1.7243.8544,3.246-1.7323,1.5141-2.59Z"/></g><g class="cls-3"><path class="cls-4" d="M1596.3279,84.3587c13.9224,7.2647,23.4551,20.5991,33.3055,32.4015,10.7957,12.935,21.5137,25.9443,31.746,39.3324,20,26.168,39.54,54.4324,51.4344,85.3535a114.2668,114.2668,0,0,1,6.6985,28.3466c1.0664,9.2927,1.8741,18.5725,4.6256,27.56.5636,1.8407,3.46,1.0558,2.8928-.7975-5.1573-16.846-3.9885-34.7686-9.7355-51.5383-5.3993-15.7548-13.548-30.7132-22.08-44.9635-17.3378-28.9579-38.492-55.3961-60.0305-81.2975-11.0269-13.2605-21.7029-28.8266-37.3427-36.9874-1.71-.8922-3.2283,1.6959-1.5142,2.59Z"/></g><g class="cls-3"><path class="cls-4" d="M1700.5282,213.8447c-5.3709,22.2333-8.324,44.1246-6.1979,67.0238.1769,1.9062,3.1787,1.9247,3,0-2.1-22.6188.7824-44.2521,6.0908-66.2263.4531-1.8759-2.439-2.6763-2.8929-.7975Z"/></g><g class="cls-3"><path class="cls-4" d="M1704.1153,216.8682c9.441.5519,16.91,13.2587,22.1775,19.947,6.5905,8.3682,12.84,16.9979,19.0919,25.6194,1.1227,1.5481,3.7265.0525,2.59-1.5141-7.1251-9.8252-14.2577-19.653-21.86-29.1179-5.633-7.0131-12.0692-17.3538-22-17.9344-1.9286-.1128-1.9221,2.8876,0,3Z"/></g><g class="cls-3"><path class="cls-4" d="M1676.452,177.5448c-9.828,7.9822-14.9213,19.6936-19.6677,31.1115a374.312,374.312,0,0,0-15.0091,43.6777,1.5013,1.5013,0,0,0,2.8929.7975,375.0232,375.0232,0,0,1,13.5788-40.1866c4.8693-12.0625,9.9534-24.854,20.3264-33.2787,1.4992-1.2176-.6347-3.3288-2.1213-2.1214Z"/></g><g class="cls-3"><path class="cls-4" d="M1682.6574,176.6038a97.3041,97.3041,0,0,1,44.985-2.5239c1.8878.3379,2.6979-2.5526.7975-2.8929a100.7385,100.7385,0,0,0-46.58,2.524c-1.8474.5459-1.061,3.442.7975,2.8928Z"/></g><g class="cls-3"><path class="cls-4" d="M1649.1815,135.8635c8.66-1.0348,16.8289-4.6043,25.3994-6.2343a118.5872,118.5872,0,0,1,30.5713-1.6541c1.9266.136,1.9181-2.8646,0-3a122.3753,122.3753,0,0,0-27.6538,1.1166c-9.6058,1.5078-18.7152,5.6245-28.3169,6.7718-1.8934.2263-1.9162,3.229,0,3Z"/></g><g class="cls-3"><path class="cls-4" d="M1646.0016,133.65c-7.8058,13.2268-15.84,26.3472-23.3237,39.76-6.7938,12.1757-12.68,24.8563-15.4235,38.6014-.3763,1.8854,2.5147,2.6922,2.8928.7975,2.815-14.105,8.9789-27.0121,16.008-39.4633,7.2549-12.8511,14.9366-25.4721,22.4368-38.181a1.5011,1.5011,0,0,0-2.59-1.5142Z"/></g><g class="cls-3"><path class="cls-4" d="M1638.4385,122.2826c3.7362-4.48,6.0791-9.8827,9.9913-14.2383a39.5559,39.5559,0,0,1,15.5088-10.44c1.7877-.6783,1.0125-3.58-.7975-2.8929a43.4713,43.4713,0,0,0-14.718,9.051c-5.0684,4.8218-7.6917,11.1055-12.1059,16.3986-1.2284,1.4728.8829,3.6062,2.1213,2.1213Z"/></g><g class="cls-3"><path class="cls-4" d="M1617.9947,96.484c.0808-7.5632,4.6123-14.9375,7.574-21.7414l8.65-19.8717c.7629-1.7526-1.8209-3.2818-2.59-1.5141l-10.2225,23.4846c-2.7338,6.28-6.3361,12.6408-6.4109,19.6426a1.5009,1.5009,0,0,0,3,0Z"/></g><g class="cls-3"><path class="cls-4" d="M1623.2349,107.9071c-15.8012-2.3707-28.5361,7.2727-39.8147,17.0617-12.3343,10.7053-24.3067,21.9795-32.7784,36.09a1.5011,1.5011,0,0,0,2.59,1.5142c7.4347-12.383,17.6474-22.5211,28.3878-32.0449,11.3053-10.0249,24.444-22.1843,40.8174-19.7277,1.8886.2833,2.7033-2.6069.7975-2.8929Z"/></g><g class="cls-3"><path class="cls-4" d="M1618.674,100.5987c-10.9243-7.4591-25.168-9.3382-37.9425-11.3936a302,302,0,0,0-44.081-3.7607,1.5009,1.5009,0,0,0,0,3,296.5392,296.5392,0,0,1,43.2835,3.6535c12.4871,2.0092,26.559,3.8078,37.2258,11.0912,1.5985,1.0915,3.1009-1.507,1.5142-2.59Z"/></g><path class="cls-6" d="M1482.3943,100.5887c-4.5279,2.2154-7.2,7.1241-8.2391,12.0567s-.73,10.0333-.9116,15.0709c-.4772,13.245-4.3539,26.1022-8.2,38.7853a8.8351,8.8351,0,0,1-4.9294,6.3535c-15.4387,9.8519-31.6708,19.9838-49.9153,21.58a5.36,5.36,0,0,1-3.6879-.61,4.9537,4.9537,0,0,1-1.5467-2.5357c-1.4706-4.4435-1.4421-9.224-1.3908-13.9042q.3133-28.5589,1.0235-57.1117c.0624-2.507.1659-5.15,1.4932-7.2773,1.3827-2.2166,3.8444-3.4791,6.1867-4.6363l35.372-17.4753a7.6086,7.6086,0,0,0,3.0113-2.1681,2.613,2.613,0,0,0-.1473-3.409c-.8387-.702-2.0741-.5542-3.1506-.36A242.5759,242.5759,0,0,0,1404.5359,96.8a213.8123,213.8123,0,0,1,10.4086-34.2275c1.38-3.5978,2.918-7.3275,5.8621-9.8134a20.92,20.92,0,0,1,7.9427-3.6937,87.9126,87.9126,0,0,1,52.5577,1.5124c1.57.5464,3.5559,1.049,4.6966-.1606a3.226,3.226,0,0,0,.6881-2.4574c-.3556-5.0641-3.9352-7.4243-8.7716-8.9674l-2.1853-.6972-.3716-.0936a113.796,113.796,0,0,0-31.261-3.3854,2.129,2.129,0,0,1-1.6115-.3895,2.0985,2.0985,0,0,1-.4515-1.2763l-1.29-10.8117a4.6928,4.6928,0,0,1,.1509-2.4767,4.3417,4.3417,0,0,1,1.971-1.8093c7.6755-4.3537,16.8843-4.8613,25.7084-4.9084,14.1043-.0753,28.8073.9244,41.0565,7.9168-2.174-5.12-7.319-8.2541-12.2851-10.7594a147.5133,147.5133,0,0,0-30.5184-11.3659c-.802-2.0271.511-4.4,2.3847-5.5136a13.4209,13.4209,0,0,1,6.323-1.375,172.4555,172.4555,0,0,1,48.1418,4.11c8.2839,1.989,16.942,5.1111,21.926,12.02a10.8251,10.8251,0,0,0,1.8219,2.2064c1.3362,1.0806,3.1612,1.2568,4.8669,1.4661a58.72,58.72,0,0,1,38.6514,22.0348c1.8988,7.8023,10.3568,11.36,12.9461,18.4808a24.7588,24.7588,0,0,1,1.0424,8.1057q.2885,18.0145.0636,36.0324a12.7813,12.7813,0,0,1-.8527,5.384c-.7882,1.6539-2.5439,2.9961-4.3521,2.7-1.1808-8.1079-6.2684-15.0295-11.1946-21.5765-7.6418-10.1561-15.9124-20.7986-27.7884-25.3268-.7387,3.1042.882,6.2275,2.4091,9.0292a336.0332,336.0332,0,0,1,26.2,62.2735,5.47,5.47,0,0,1,.3174,3.0952,5.53,5.53,0,0,1-2.3751,2.6561L1550.5612,161.03q1.3311-18.5444,1.3452-37.152c.0048-6.5559-.1228-13.1848-1.7533-19.5347a84.3484,84.3484,0,0,0-4.7265-12.6291l-4.47-10.242a7.6033,7.6033,0,0,0-2.2768-3.3755c-1.1257-.79-2.9433-.7641-3.6521.4146a3.7664,3.7664,0,0,0-.3847,1.8019c-1.2031,27.7235,2.4711,55.92-3.6015,82.9967-.4049,1.8055-1.0035,3.8058-2.631,4.6863a6.5813,6.5813,0,0,1-3.22.5282c-7.9758-.0725-16.0611-.7833-23.8485.9417-9.8016,2.1713-19.035,8.1577-29.0233,7.1489l10.5682-74.8974"/><path class="cls-6" d="M1547.3924,9.5287c-13.5647,9.6743-26.46,19.5694-36.6384,32.9249-5.5593,7.2945-10.582,14.9865-16.5127,21.9963a256.1806,256.1806,0,0,1-17.855,18.5711c-12.1836,11.7665-24.2924,23.396-33.72,37.5739-10.5824,15.9138-20.2729,32.4794-30.3356,48.7256-1.0194,1.646,1.5747,3.1542,2.59,1.5142,9.7517-15.744,19.2191-31.7132,29.3452-47.2195,9.5241-14.5845,21.7847-26.4422,34.2419-38.4728a279.4726,279.4726,0,0,0,31.7115-36.9706c10.77-14.7422,23.9141-25.5164,38.6873-36.0527,1.5586-1.1116.0621-3.7145-1.5141-2.59Z"/><path class="cls-6" d="M1454.3621,107.8941c-1.769,8.84-3.54,17.7261-3.9966,26.7509-.4866,9.6091.8161,20.2789-6.1417,27.9944-1.29,1.43.825,3.5588,2.1213,2.1213,5.7195-6.3424,6.6671-14.4806,6.8393-22.7086a188.4989,188.4989,0,0,1,4.07-33.36c.3773-1.8853-2.5137-2.6921-2.8928-.7975Z"/><path class="cls-6" d="M1453.9153,102.8069c-6.4353,2.6592-12.9775,4.3871-18.4009,8.9632-6.5071,5.49-12.3955,11.903-18.49,17.8436-1.3849,1.35.7373,3.47,2.1213,2.1213,5.3989-5.2628,10.7265-10.6135,16.2123-15.7855,5.6828-5.3577,12.313-7.34,19.3546-10.25,1.7592-.727.9882-3.6307-.7976-2.8928Z"/><path class="cls-6" d="M1499.75,59.1577c9.4314,11.4064,11.2673,26.37,11.32,40.6809.0266,7.2338-.3346,14.4647-.2127,21.6987.1182,7.0121,1.0241,14.2858-2.8986,20.5125-1.0321,1.6383,1.5627,3.1454,2.59,1.5142,3.5894-5.6976,3.5672-12.0664,3.3992-18.5925-.2318-9.0106.23-18.0085.1064-27.0179-.2-14.5882-2.6348-29.369-12.1835-40.9172-1.2313-1.4891-3.3433.6435-2.1213,2.1213Z"/><path class="cls-6" d="M1499.9077,54.6753c-13.4565-1.9886-26.4826,1.0315-39.4156,4.573-14.1316,3.87-28.244,7.8111-42.3657,11.7172a1.5013,1.5013,0,0,0,.7975,2.8928q19.36-5.3549,38.719-10.71c13.5141-3.7363,27.33-7.67,41.4672-5.5805,1.8886.2791,2.7036-2.6111.7976-2.8928Z"/><path class="cls-6" d="M1519.449,34.8513c7.2462,3.6422,14.8646,7.4964,20.3335,13.651,6.349,7.1449,6.1563,15.9241,8.5141,24.6529,4.46,16.51,15.0439,30.7407,17.6235,47.8467.2869,1.9026,3.1781,1.0942,2.8928-.7975-2.8208-18.7062-15.2207-34.107-18.7067-52.6011-1.5465-8.2052-2.792-15.442-8.691-21.7432-5.6433-6.0281-13.1671-9.9375-20.452-13.5992-1.7206-.8648-3.2414,1.7222-1.5142,2.59Z"/><path class="cls-6" d="M1521.3506,32.7672c-17.249-6.4773-35.1068-12.7046-53.72-8.8657-1.89.39-1.09,3.2821.7975,2.8928,18.0162-3.7158,35.4637,2.6091,52.125,8.8657,1.81.68,2.5913-2.2192.7975-2.8928Z"/><path class="cls-6" d="M1535.7847,15.6718c-7.8838-3.99-15.7014-8.1735-23.6958-11.9386-6.4772-3.05-13.0968-5.3673-20.3471-5.0351-1.9225.0881-1.9333,3.0886,0,3,7.9327-.3635,14.9567,2.6725,21.9284,6.14,6.89,3.4272,13.7346,6.9486,20.6,10.4238,1.7185.87,3.2389-1.7174,1.5141-2.59Z"/><path class="cls-6" d="M1537.8983,22.73c12.5786,3.796,25.85,7.89,34.99,17.8893,4.7367,5.1819,8.4842,11.4055,12.468,17.1649l13.6075,19.672c1.091,1.5772,3.6924.079,2.59-1.5142L1586.8126,54.631c-4.0687-5.882-7.89-12.2278-12.9436-17.3419-9.4406-9.5529-22.6494-13.6722-35.1731-17.4516-1.8524-.559-2.644,2.3356-.7976,2.8928Z"/><g class="cls-5"><path class="cls-4" d="M1481.6373,99.2935c-6.9269,3.8971-9.2126,11.4439-9.6794,18.96-.3843,6.1882-.1511,12.2964-1.0334,18.4619a138.9487,138.9487,0,0,1-3.5982,16.6386c-1.3183,4.8609-2.1987,11.0856-4.9621,15.307-2.8533,4.3588-10.2693,7.5427-14.7544,10.2028-9.21,5.4623-18.9047,10.3714-29.4008,12.7855-2.429.5587-5.5619,1.694-8.0106,1.2864-3.8029-.633-4.3647-3.3851-4.8169-6.9714-.7635-6.0552-.27-12.3375-.1886-18.4265q.23-17.2334.6053-34.4644c.1142-5.25-.7189-11.8282.6569-16.9193,1.6638-6.1571,11.1656-8.7649,16.3056-11.3043l15.0332-7.427c4.0668-2.0092,10.4221-3.751,13.5-7.1988,1.4859-1.6644,2.1182-4.4639.1271-6.094-2.5884-2.119-8.1842.059-10.8282.6088a248.4352,248.4352,0,0,0-36.4559,10.6144l1.8452,1.8452a203.882,203.882,0,0,1,7.7833-27.1556c1.43-3.9982,2.71-8.33,4.8183-12.0372,2.6023-4.5757,6.5629-6.3949,11.4226-7.7287a86.5451,86.5451,0,0,1,40.6227-1.1245c4.1665.8908,8.5659,3.1832,12.7883,3.45,4.5819.2893,5.4594-4.1044,4.143-7.7259-1.7459-4.8034-6.8933-6.7529-11.4271-8.0277a105.0034,105.0034,0,0,0-24.61-3.519c-1.7925-.0608-4.9159.557-6.4934-.0347-2.0658-.7749-1.8611-3.2508-2.1355-5.5506-.2864-2.4-1.0145-4.6874.0444-6.9012,1.2766-2.669,4.3687-3.3579,7.1315-4.1718,9.1105-2.6837,19.3232-2.3137,28.7257-1.8277,10.49.5423,20.7892,2.4271,30.083,7.5125a1.5127,1.5127,0,0,0,2.0523-2.0523c-3.23-6.5567-9.7388-9.8852-16.08-12.89a149.9191,149.9191,0,0,0-23.242-8.751c-2.176-.6178-2.6772.14-2.1283-2.3331.5028-2.2653,2.2938-2.3177,4.4164-2.6818a49.9177,49.9177,0,0,1,7.2355-.283q6.9954-.1336,13.9879.2348a155.0231,155.0231,0,0,1,28.1629,4.0043c8.9721,2.1757,15.8693,5.4205,21.8713,12.5,3.8869,4.5843,12.05,3.8192,17.4715,5.6064a57.5607,57.5607,0,0,1,21.4458,12.8417c4.8578,4.6028,7.032,10.5914,11.5865,15.4288,2.74,2.9108,5.7892,5.6323,7.0212,9.5683,1.5664,5.0048.8292,11.2147.8734,16.4047q.0645,7.5858.0381,15.1719c-.0124,3.5614,1.8027,17.6916-3.7956,17.963l1.4464,1.1013c-1.9282-10.7883-9.3468-19.588-15.9664-27.9581s-14.0364-15.9064-24.0642-19.9929c-1.0029-.4087-1.7982.5987-1.8988,1.4464-.4711,3.972,1.216,7.1725,3.0493,10.59,2.45,4.5678,4.83,9.1694,7.0845,13.8374q7.075,14.6489,12.6937,29.9412,2.5224,6.8676,4.744,13.8408c1.2918,4.0522.842,6.7494-2.6773,9.2636l-6.4,4.5725-28.0021,20.0046,2.2571,1.2952c1.1761-16.8244,2.9766-34.861.5916-51.6356-1.0147-7.1368-3.8181-13.5932-6.676-20.1443-1.6208-3.7153-3.7126-13.5618-9.2792-13.1845-4.9711.3369-3.6939,7.646-3.7548,10.8717-.1676,8.86.0453,17.72.159,26.5792.1093,8.5138.1393,17.0375-.3529,25.5412-.25,4.3193-.6364,8.6282-1.2148,12.916-.6209,4.6026-.5525,13.78-6.3432,15.0507-4.1492.9108-9.5768-.2894-13.8348-.1675a54.4534,54.4534,0,0,0-12.0411,1.5582c-9.0812,2.3354-17.3387,7.3127-26.9959,6.7l1.4464,1.8987,10.5682-74.8974c.2665-1.8882-2.6238-2.7043-2.8928-.7975l-10.5682,74.8974a1.5314,1.5314,0,0,0,1.4464,1.8988c6.9746.4426,13.2965-1.81,19.7608-4.16a64.0617,64.0617,0,0,1,22.96-4.13c4.3924.0267,12.4757,2.0725,15.7065-1.9219,1.89-2.3368,2.16-5.9931,2.6814-8.8212.65-3.5259,1.155-7.0794,1.5473-10.6431,1.7624-16.011,1.1068-32.15.9416-48.2193-.039-3.7957-.0538-7.5917-.0041-11.3874q.0372-2.8416.1255-5.6822c.0113-.3534-.14-2.6394.1049-2.8371,1.23-.9913,2.9916,1.212,3.5184,1.916,2.2,2.94,3.3378,7.6131,4.8067,11.0161a78.2762,78.2762,0,0,1,4.2384,11.4967c2.2345,8.72,1.7741,18.0393,1.6355,26.9639-.1518,9.7857-.5986,19.5616-1.281,29.3241a1.5082,1.5082,0,0,0,2.2571,1.2952l29.6021-21.1478c2.99-2.1357,8.6969-4.6325,10.1138-8.3382,1.3516-3.535-1.5782-8.7988-2.6762-12.09q-5.1268-15.3658-11.7108-30.1935-3.3374-7.5237-7.0373-14.88c-2.6432-5.2517-8.01-11.982-7.2975-17.9924l-1.8987,1.4464c9.4783,3.8626,16.5189,11.334,22.74,19.2214,6.29,7.9747,13.36,16.37,15.1949,26.6343a1.5029,1.5029,0,0,0,1.4464,1.1012c6.2872-.3048,6.6647-6.4578,6.7271-11.4807q.1825-14.6961-.0192-29.3952c-.0843-6.8771.12-13.1368-4.403-18.6978-2.01-2.4708-4.4522-4.549-6.4667-7.0135-2.3714-2.9013-3.1582-6.2734-5.6255-9.1039-9.8007-11.2432-23.1257-17.7818-37.7114-20.0469-4.5559-.7076-6.5169-4.909-9.8556-7.6331a34.3527,34.3527,0,0,0-8.9235-5.0738c-7.68-3.1106-16.1105-4.5816-24.2824-5.702a183.4024,183.4024,0,0,0-30.9-1.5019c-5.67.1852-14.4608,1.05-12.9493,8.8953a1.4768,1.4768,0,0,0,1.0477,1.0476,150.195,150.195,0,0,1,23.6077,8.1094c6.8274,3.0346,14.8161,6.2569,18.2993,13.3266l2.0523-2.0523c-14.9542-8.1826-33.4445-9.1346-50.14-7.8392a51.7992,51.7992,0,0,0-11.7662,2.0825c-2.8052.8962-7.0561,2.1235-8.6471,4.7922-1.3844,2.3221-.3527,5.5274-.0526,8.0421.2733,2.2907-.1527,7.2387,1.947,8.8784,2.0725,1.6184,6.4583.52,8.862.5834a111.75,111.75,0,0,1,17.1169,1.7674,63.298,63.298,0,0,1,10.4519,2.5874c2.13.7809,4.4185,1.7392,5.7148,3.716.4358.6646,1.6221,2.7842,1.3124,3.5837-1.0321,2.6637-3.6129,1.0988-5.1733.6043-16.9544-5.373-36.0468-6.029-53.0828-.5236-7.7782,2.5136-10.9724,7.68-13.7729,15.0143A217.9594,217.9594,0,0,0,1403.09,96.4007c-.2114,1.0174.6948,2.2755,1.8452,1.8452a249.13,249.13,0,0,1,32.8314-9.8318c2.7125-.6075,5.4358-1.1871,8.1711-1.6846l2.5335-.4308-.4608,2.71c-.4513.5733-2.2065,1.115-2.8872,1.4551-5.8818,2.9393-11.7909,5.8253-17.686,8.7377-5.011,2.4757-10.03,4.9353-15.0331,7.4271-3.4332,1.71-6.9766,3.5071-8.4193,7.3028-1.6412,4.3178-.9725,9.7061-1.0762,14.2193q-.2148,9.3537-.3867,18.7082c-.2186,11.8831-.9376,23.9351-.4186,35.8115.1521,3.482.3087,7.9384,2.2713,10.93,2.1054,3.21,5.9421,2.3982,9.2219,1.9379,9.3-1.3053,18.1374-4.7682,26.4538-9.0348,4.6237-2.3721,9.1025-5.0168,13.5213-7.7482,3.558-2.1994,8.6838-4.3822,11.1831-7.8894,2.8379-3.9822,3.6657-10.2487,4.96-14.8844a149.0115,149.0115,0,0,0,4.1033-18.4688c1.6324-11.167-2.3728-29.0424,9.3341-35.6288a1.5011,1.5011,0,0,0-1.5141-2.59Z"/><path class="cls-4" d="M1547.3924,9.5287c-13.5647,9.6743-26.46,19.5694-36.6384,32.9249-5.5593,7.2945-10.582,14.9865-16.5127,21.9963a256.1806,256.1806,0,0,1-17.855,18.5711c-12.1836,11.7665-24.2924,23.396-33.72,37.5739-10.5824,15.9138-20.2729,32.4794-30.3356,48.7256-1.0194,1.646,1.5747,3.1542,2.59,1.5142,9.7517-15.744,19.2191-31.7132,29.3452-47.2195,9.5241-14.5845,21.7847-26.4422,34.2419-38.4728a279.4726,279.4726,0,0,0,31.7115-36.9706c10.77-14.7422,23.9141-25.5164,38.6873-36.0527,1.5586-1.1116.0621-3.7145-1.5141-2.59Z"/><path class="cls-4" d="M1454.3621,107.8941c-1.769,8.84-3.54,17.7261-3.9966,26.7509-.4866,9.6091.8161,20.2789-6.1417,27.9944-1.29,1.43.825,3.5588,2.1213,2.1213,5.7195-6.3424,6.6671-14.4806,6.8393-22.7086a188.4989,188.4989,0,0,1,4.07-33.36c.3773-1.8853-2.5137-2.6921-2.8928-.7975Z"/><path class="cls-4" d="M1453.9153,102.8069c-6.4353,2.6592-12.9775,4.3871-18.4009,8.9632-6.5071,5.49-12.3955,11.903-18.49,17.8436-1.3849,1.35.7373,3.47,2.1213,2.1213,5.3989-5.2628,10.7265-10.6135,16.2123-15.7855,5.6828-5.3577,12.313-7.34,19.3546-10.25,1.7592-.727.9882-3.6307-.7976-2.8928Z"/><path class="cls-4" d="M1499.75,59.1577c9.4314,11.4064,11.2673,26.37,11.32,40.6809.0266,7.2338-.3346,14.4647-.2127,21.6987.1182,7.0121,1.0241,14.2858-2.8986,20.5125-1.0321,1.6383,1.5627,3.1454,2.59,1.5142,3.5894-5.6976,3.5672-12.0664,3.3992-18.5925-.2318-9.0106.23-18.0085.1064-27.0179-.2-14.5882-2.6348-29.369-12.1835-40.9172-1.2313-1.4891-3.3433.6435-2.1213,2.1213Z"/><path class="cls-4" d="M1499.9077,54.6753c-13.4565-1.9886-26.4826,1.0315-39.4156,4.573-14.1316,3.87-28.244,7.8111-42.3657,11.7172a1.5013,1.5013,0,0,0,.7975,2.8928q19.36-5.3549,38.719-10.71c13.5141-3.7363,27.33-7.67,41.4672-5.5805,1.8886.2791,2.7036-2.6111.7976-2.8928Z"/><path class="cls-4" d="M1519.449,34.8513c7.2462,3.6422,14.8646,7.4964,20.3335,13.651,6.349,7.1449,6.1563,15.9241,8.5141,24.6529,4.46,16.51,15.0439,30.7407,17.6235,47.8467.2869,1.9026,3.1781,1.0942,2.8928-.7975-2.8208-18.7062-15.2207-34.107-18.7067-52.6011-1.5465-8.2052-2.792-15.442-8.691-21.7432-5.6433-6.0281-13.1671-9.9375-20.452-13.5992-1.7206-.8648-3.2414,1.7222-1.5142,2.59Z"/><path class="cls-4" d="M1521.3506,32.7672c-17.249-6.4773-35.1068-12.7046-53.72-8.8657-1.89.39-1.09,3.2821.7975,2.8928,18.0162-3.7158,35.4637,2.6091,52.125,8.8657,1.81.68,2.5913-2.2192.7975-2.8928Z"/><path class="cls-4" d="M1535.7847,15.6718c-7.8838-3.99-15.7014-8.1735-23.6958-11.9386-6.4772-3.05-13.0968-5.3673-20.3471-5.0351-1.9225.0881-1.9333,3.0886,0,3,7.9327-.3635,14.9567,2.6725,21.9284,6.14,6.89,3.4272,13.7346,6.9486,20.6,10.4238,1.7185.87,3.2389-1.7174,1.5141-2.59Z"/><path class="cls-4" d="M1537.8983,22.73c12.5786,3.796,25.85,7.89,34.99,17.8893,4.7367,5.1819,8.4842,11.4055,12.468,17.1649l13.6075,19.672c1.091,1.5772,3.6924.079,2.59-1.5142L1586.8126,54.631c-4.0687-5.882-7.89-12.2278-12.9436-17.3419-9.4406-9.5529-22.6494-13.6722-35.1731-17.4516-1.8524-.559-2.644,2.3356-.7976,2.8928Z"/></g><g class="cls-5"><path class="cls-4" d="M291.858,5.9311c8.58,6.11,17.2095,12.2649,24.647,19.7694,7.272,7.3376,12.67,15.9551,17.22,25.1769,4.3106,8.7353,7.9448,17.79,12.4025,26.4545,4.4986,8.7442,10.1769,16.6065,16.1052,24.421,5.7123,7.53,11.5155,15.1237,15.5993,23.6965,4.6723,9.8083,6.6446,20.5631,9.3906,30.998a109.3742,109.3742,0,0,0,10.5428,25.9962c2.6249,4.6942,5.347,9.3776,7.1268,14.4752,1.7976,5.1484,2.35,10.5322,3.1167,15.9008,1.5957,11.1671,6.2631,20.764,11,30.8644,5.3628,11.4337,10.1629,24.6727,4.8651,37.0352l2.3559-.3036c-15.8581-12.9657-32.7979-24.8392-46.95-39.75-15.9-16.7523-26.1927-37.2524-27.6117-60.5142-.083-1.3609-2.103-2.1992-2.7952-.7571l-6.6632,13.8827c-1.0892,2.2693-1.97,5.7943-3.6722,7.6011-2.5247,2.68-6.3779,1.5855-9.4365.433a92.4161,92.4161,0,0,1-25.7269-14.8223c-3.72-3.0341-8.0991-6.5771-9.4293-11.3978-1.4608-5.2939.4255-11.5894,1.1919-16.8859l4.7828-33.053c.2682-1.8536-2.3715-2.7158-2.8929-.7975a131.36,131.36,0,0,1-21.2332,43.7979h2.59q-16.4151-24.2882-31.7635-49.2712c-2.7246-4.4421-7.53-9.5556-5.1569-14.9021,1.77-3.9888,4.2626-7.6843,6.0478-11.698a114.3762,114.3762,0,0,0,7.8447-25.3349c.2458-1.3016-1.4821-2.7516-2.5071-1.4594a108.8893,108.8893,0,0,1-9.8666,10.931c-1.6667,1.6-3.3805,3.1577-5.1613,4.6307-2.1219,1.7552-3.6106,3.9009-6.6933.6436a14.0945,14.0945,0,0,1-1.4461-2.5606,80.6546,80.6546,0,0,0-16.7637-20.0951c-12.3895-10.8447-28.4007-19.7126-34.3327-35.982-.6561-1.7994-3.5564-1.0223-2.8929.7975,6.8,18.6487,25.3976,27.6444,38.8722,40.7753a74.1655,74.1655,0,0,1,11.242,13.8817c1.7707,2.8438,3.416,7.8261,7.36,8.247,3.2925.3513,6.5628-3.3465,8.75-5.2788a107.7291,107.7291,0,0,0,13.0535-13.869l-2.5071-1.4594a110.702,110.702,0,0,1-9.867,29.5138c-1.6344,3.2316-4.3889,6.5438-5.0147,10.1757-.6307,3.66,1.64,6.6634,3.4443,9.6349q16.7136,27.5212,34.7677,54.1934a1.5249,1.5249,0,0,0,2.59,0,133.5762,133.5762,0,0,0,21.5357-44.5145l-2.8929-.7975c-2.0484,14.1561-4.3058,28.2992-6.14,42.4845-1.4571,11.2712,4.59,17.4544,13.1141,23.9364,8.3857,6.3767,19.3113,13.2476,29.8509,15.2643,4.7994.9184,6.5793-2.1929,8.4494-6.0427,3.0838-6.3481,6.1081-12.726,9.1619-19.0886l-2.7952-.7571c1.3619,22.3258,10.5024,42.4453,25.25,59.1061,14.6954,16.6018,33.1177,29.3211,50.19,43.2794.6549.5355,1.939.6691,2.3558-.3036,8.5849-20.033-5.5722-38.316-12.2226-56.45-3.8235-10.4256-3.2058-21.7993-7.3764-32.0951-4.0462-9.9888-10.5682-18.6537-14.058-28.92-3.4411-10.123-5.1387-20.7355-8.457-30.8945-3.22-9.8594-8.3893-18.58-14.488-26.9215-5.9389-8.1231-12.4034-15.8841-17.5392-24.5654-5.39-9.1111-9.3766-18.9466-13.85-28.5166-4.7907-10.2483-10.2815-20.1224-18.0519-28.4344-7.9776-8.5337-17.5759-15.3486-27.05-22.0954-1.5755-1.122-3.0754,1.4786-1.5142,2.59Z"/><path class="cls-4" d="M173.3682,12.19c.549,10.277,4.1032,19.75,7.6227,29.317,3.8319,10.4161,7.2376,20.98,10.3244,31.64,6.1951,21.394,11.1814,43.1165,16.194,64.8106,5.2654,22.7881,9.404,45.4952,10.35,68.9143.9073,22.46-.2257,44.9353-1.3857,67.3639q-1.9958,38.5874-3.9979,77.1743l2.2571-1.2952c-34.0132-25.2309-51.0108-71.2974-31.0465-110.6912a1.5187,1.5187,0,0,0-1.6939-2.2035,34.9017,34.9017,0,0,0-24.1906,26.2887l2.5071-.6619c-13.0761-12.2709-27.5591-26.8658-27.8255-46.0808-.2385-17.1969,13.6535-29.3344,19.9011-44.2547,1.6374-3.91,3.4255-9.8926-2.2167-11.2527-5.4224-1.3071-10.9462,3.7892-14.2275,7.4091a78.1834,78.1834,0,0,0-6.2416,8.201c-1.165,1.687-2.2911,3.4037-3.5008,5.0595-2.48,3.3946-5.8366,3.1346-8.8673.761a31.3406,31.3406,0,0,1-11.8118-23.5958c-.0748-1.9242-3.0752-1.9339-3,0a34.7278,34.7278,0,0,0,7.2644,20.252c2.8216,3.6079,9.17,10.8313,14.5086,8.6128,2.4192-1.0052,3.9471-3.728,5.3807-5.7659a124.8073,124.8073,0,0,1,7.8851-10.8452c1.9462-2.2166,7.7707-8.7047,11.3522-7.25,5.2075,2.1143-1.884,12.7-3.4269,15.3186-8.0013,13.58-18.058,25.9026-15.5453,42.6819,2.6644,17.7919,15.6985,31.0925,28.25,42.871a1.5138,1.5138,0,0,0,2.507-.6619A31.916,31.916,0,0,1,182.79,240.1133l-1.694-2.2035c-20.76,40.9629-3.2609,88.5482,32.1227,114.7957.9785.7259,2.2042-.2751,2.2571-1.2952l3.5426-68.384c1.1792-22.7628,2.54-45.5537,2.0762-68.3575-.9008-44.27-12.1135-87.8255-23.5611-130.39-3.2152-11.9547-6.735-23.8324-10.7786-35.5348-4.1314-11.9568-9.7024-23.7452-10.3866-36.5537-.1025-1.92-3.1032-1.9325-3,0Z"/><path class="cls-4" d="M437.5893,122.65c-1.3961-1.5538-2.9041-3.07-4.1837-4.7224-1.8537-2.3939-1.9471-4.88-1.9031-7.7585.0686-4.5019.7644-9.071,1.1429-13.5625.3577-4.2446,3.1739-14.1752-.6207-17.8152-3.455-3.3143-7.0414,1.113-9.0437,3.7637a40.0917,40.0917,0,0,0-6.6438,13.639c-.8495,3.1867-.1383,5.5306-5.8507,4.3072-3.4-.7281-7.67-4.1995-10.5641-5.9887q-5.1651-3.1935-10.08-6.7726a153.6947,153.6947,0,0,1-19.4022-16.7259c-3.4252-3.5067-6.4683-7.1385-7.0047-12.2358-.4477-4.2531.4033-8.7254.8124-12.9537l2.5427-26.2779A1.5149,1.5149,0,0,0,364.8921,18.1a25.1645,25.1645,0,0,0-15.3566,9.97c-.8864,1.2522-1.4108,3.01-2.3477,4.16l-.5571,1.3576q-3.4029,1.9578-6.2274-.0577c-4.324-1.4148-8.6037-4.25-12.6872-6.2714-7.3969-3.6624-12.8071-7.2354-16.9311-14.5084-2.5367-4.4734-5.1123-9-10.4891-10.2253-1.88-.4282-2.6822,2.4635-.7976,2.8928,6.6484,1.5145,8.42,9.6256,12.1949,14.4065,4.8673,6.164,12.7514,9.1562,19.5836,12.5334,3.7234,1.84,7.467,4.1283,11.3539,5.5864,2.0616.7733,3.72,1.0918,5.3962-.6282,2.5449-2.611,3.1029-6.8643,5.7207-9.6967A22.3644,22.3644,0,0,1,365.69,20.9929l-1.8988-1.4465-2.7243,28.1549c-.7406,7.6532-1.5432,14.48,3.262,20.93,4.9,6.5774,11.8053,12.1862,18.1757,17.2577A163.3742,163.3742,0,0,0,402.13,99.3316c3.6093,2.0983,11.373,8.4884,15.1392,3.7562,1.7449-2.1925,1.7645-5.775,2.6287-8.348,1.2514-3.7255,3.3955-8.891,6.4122-11.5943,5.7985-5.1963,4.091,4.4986,3.8255,7.6483l-1.3062,15.5c-.2764,3.2795-1.0113,6.9448.1753,10.1268,1.2078,3.2387,4.2133,5.8459,6.4637,8.35,1.2931,1.4391,3.4091-.6881,2.1213-2.1213Z"/><path class="cls-4" d="M442.2687,10.9824c27.0272,15.2551,42.9383,44.6963,56.2136,71.6,7.2744,14.7422,14.1722,29.6747,21.2081,44.5317,7.3745,15.5719,15.4534,31.005,21.71,47.07,6.929,17.79,9.2548,36.6074,10.8668,55.5093l1.8987-1.4464a109.76,109.76,0,0,1-48.8948-37.8128c-13.77-19.0745-18.9842-41.5048-23.5114-64.1945a1.5105,1.5105,0,0,0-2.2035-.8965A22.8908,22.8908,0,0,0,468.82,147.0119l1.8988-1.4464c-13.79-2.9726-23.9424-12.8108-33.1292-22.9158-1.3015-1.4317-3.4181.6948-2.1213,2.1213,9.5278,10.48,20.1679,20.608,34.453,23.6873a1.5151,1.5151,0,0,0,1.8987-1.4464,19.9252,19.9252,0,0,1,9.2511-19.0788l-2.2035-.8964c4.7907,24.0109,10.4973,47.5083,25.6045,67.3218a113.2473,113.2473,0,0,0,48.897,36.7808,1.5065,1.5065,0,0,0,1.8988-1.4464c-1.4207-16.6589-3.2147-33.4645-8.4851-49.4169-5.3358-16.15-13.4748-31.3923-20.7376-46.7282C511.516,102.8686,498.4523,70.4621,478.99,42.48c-9.4243-13.55-20.71-25.9049-35.2074-34.0878a1.5012,1.5012,0,0,0-1.5142,2.5905Z"/><path class="cls-4" d="M581.8787,8.39a524.9851,524.9851,0,0,1,37.05,50.39c5.7359,8.9272,8.1742,18.6925,10.83,28.8333l3.86,14.7346c.9061,3.459,5.5054,14.0551,2.6139,17.1169l2.3559.3036c-7.6693-10.02-19.1269-15.0014-28.7965-22.6832a46.6538,46.6538,0,0,1-17.71-37.7091,1.5151,1.5151,0,0,0-2.5606-1.0606,48.9039,48.9039,0,0,0-9.2381,16.6295l1.8451-1.0477a62.0872,62.0872,0,0,1-28.5607-19.0753c-5.1187-6.1508-6.13-11.4036-4.9464-19.1388.72-4.7079,1.364-9.1846-.1929-13.7925a1.5182,1.5182,0,0,0-2.2035-.8965,27.5657,27.5657,0,0,0-10.4459,11.2235,23.6328,23.6328,0,0,1-1.2869,3.0855q-.1887,2.7087-3.4478,2.1779l-1.5956-1.0637c-3.5671-1.441-7.21-4.7332-10.45-6.7944Q499.1738,17.0108,478.4515,5.9085c-1.7-.9142-3.217,1.6748-1.5141,2.59q23.2281,12.4887,45.3863,26.825c2.9941,1.9436,9.8228,8.8149,13.5339,4.68,1.7212-1.9177,1.9354-5.3681,3.1993-7.58a24.8373,24.8373,0,0,1,8.6819-8.8391l-2.2035-.8964c2.23,6.6012-.6858,12.9812-.6246,19.6548.0533,5.8086,2.8934,10.2723,6.5354,14.6A65.3657,65.3657,0,0,0,581.3306,76.79a1.5251,1.5251,0,0,0,1.8452-1.0476,45.0081,45.0081,0,0,1,8.4666-15.3057l-2.5607-1.0607a49.4009,49.4009,0,0,0,13.9892,35.7445c9.9562,10.0232,24.2164,14.7818,32.927,26.162a1.5243,1.5243,0,0,0,2.3559.3036c2.0637-2.1854,2.0174-4.6473,1.43-7.47-1.1993-5.7674-2.9861-11.4713-4.4789-17.17-2.9128-11.12-4.9362-23.1454-10.1714-33.4615-5.2492-10.3439-12.9064-19.7376-19.6566-29.1333C598.5984,24.7765,591.5156,15.3541,584,6.2683c-1.2316-1.4889-3.3436.6438-2.1213,2.1214Z"/><path class="cls-4" d="M577.8593,17.5806c-.3316,7.68.6293,15.4282-.23,23.0831-.9025,8.0405-4.2651,15.4835-7.5822,22.7666-.7943,1.744,1.79,3.2706,2.59,1.5141,3.218-7.0654,6.4914-14.2423,7.6922-21.9761,1.3035-8.3958.165-16.9415.53-25.3877.0834-1.93-2.9168-1.9264-3,0Z"/><path class="cls-4" d="M608.5327,58.2664a69.7649,69.7649,0,0,1,1.9222,32.7194c-.3393,1.8878,2.5513,2.6977,2.8928.7975a73.0716,73.0716,0,0,0-1.9222-34.3144c-.5551-1.8439-3.4515-1.0583-2.8928.7975Z"/><path class="cls-4" d="M512.6069,112.8459a121.62,121.62,0,0,1,8.46,46.0025,1.5009,1.5009,0,0,0,3,0,123.8373,123.8373,0,0,0-8.5668-46.8c-.6974-1.7769-3.6-1.0033-2.8928.7976Z"/><path class="cls-4" d="M452.7132,38.9827c5.9124,27.6923,11.7755,56.597,3.7986,84.4988a1.5013,1.5013,0,0,0,2.8928.7975c8.1244-28.4175,2.2245-57.8832-3.7985-86.0938-.4029-1.8871-3.2955-1.0885-2.8929.7975Z"/><path class="cls-4" d="M407.1675,14.3928a401.1607,401.1607,0,0,1-7.6438,42.8457c-.44,1.8779,2.4515,2.6794,2.8929.7976a408.562,408.562,0,0,0,7.7509-43.6433c.2342-1.9119-2.7679-1.8949-3,0Z"/><path class="cls-4" d="M391.6916,191.17a307.3414,307.3414,0,0,1-1.3621,44.9017c-.1991,1.9184,2.8024,1.9044,3,0a307.3423,307.3423,0,0,0,1.3621-44.9017c-.0823-1.9233-3.0827-1.9336-3,0Z"/><path class="cls-4" d="M346.3241,112.8769q-6.7228,17.9415-12.1758,36.3181c-3.3432,11.344-5.7256,23.539-13.4289,32.896-1.2179,1.4793.8928,3.6135,2.1213,2.1213,7.2765-8.8385,10.0374-19.7531,13.131-30.5408q5.81-20.2608,13.2453-39.9971c.6782-1.81-2.22-2.5919-2.8929-.7975Z"/><path class="cls-4" d="M297.2107,74.2761c-8.2028,6.413-13.2665,16.5324-18.0452,25.5659a226.0859,226.0859,0,0,0-13.032,29.7824c-.65,1.8217,2.2477,2.6059,2.8929.7975a220.6158,220.6158,0,0,1,12.7295-29.0658c4.6638-8.8162,9.59-18.7151,17.5761-24.9587,1.5195-1.188-.6169-3.2975-2.1213-2.1213Z"/><path class="cls-4" d="M259.9365,17.341,202.97,50.9527a1.5011,1.5011,0,0,0,1.5141,2.59l56.9667-33.6117a1.5011,1.5011,0,0,0-1.5141-2.59Z"/><path class="cls-4" d="M104.123,158.0361a90.444,90.444,0,0,1-13.7682-28.0474,87.5186,87.5186,0,0,1-3.0264-16.0262c-.3582-3.8805-.2747-6.4979,2.96-9.2831,2.0167-1.7364,4.6824-3.0654,6.8737-4.5737,14.9334-10.2788,35.4071-22.6624,33.1433-43.467a1.52,1.52,0,0,0-2.2571-1.2952L88.0156,78.5961l2.2035.8964A250.1027,250.1027,0,0,0,83.22,47.7838a1.5131,1.5131,0,0,0-2.8929,0c-5.6651,17.9329-4.9708,36.7243-5.6676,55.2934-.7639,20.3531-4.5422,40.315-9.3,60.0746-4.6081,19.1383-10.08,38.0826-14.0222,57.3774-3.8072,18.6339-4.712,39.4288-14.6421,56.06-5.0354,8.4332-10.756,16.3566-15.6124,24.9154C15.998,310.4663,10.317,319.282.6058,323.6841c-1.7558.7959-.2325,3.3822,1.5142,2.59,15.7925-7.1588,21.9333-25.3773,31.069-38.8172,4.6567-6.8506,9.2224-13.7895,11.9589-21.6659,3.2411-9.3289,4.401-19.5754,6.179-29.2613,7.347-40.0217,21.4531-78.9231,25.4165-119.5343,2.2252-22.8008-.52-46.2667,6.4769-68.4144H80.3274A250.0957,250.0957,0,0,1,87.3263,80.29a1.5115,1.5115,0,0,0,2.2034.8965l40.0329-23.2526-2.2571-1.2952c1.4627,13.4428-6.8011,21.807-16.51,29.6108Q103.08,92.4513,94.8923,98.0354c-3.0891,2.11-7.7386,4.0183-9.7844,7.3172-2.07,3.3379-.8751,8.2925-.412,11.9366A90.5067,90.5067,0,0,0,87.7,131.5886,92.8631,92.8631,0,0,0,101.5326,159.55c1.12,1.5511,3.7231.0553,2.59-1.5141Z"/><path class="cls-4" d="M207.8,254.0613a99.8084,99.8084,0,0,1-20.2465,39.3c-1.2345,1.469.8772,3.6018,2.1213,2.1213a103.2023,103.2023,0,0,0,21.0181-40.6241,1.5013,1.5013,0,0,0-2.8929-.7975Z"/><path class="cls-4" d="M192.1,174.3924c-12.5887,16.66-18.16,37.4719-31.2759,53.7782-1.199,1.4906.9107,3.6264,2.1213,2.1213,13.2906-16.5237,18.9987-37.5164,31.745-54.3853,1.164-1.5405-1.44-3.037-2.59-1.5142Z"/><path class="cls-4" d="M174.0449,101.1683a174.1928,174.1928,0,0,1-62.5176,31.4328,1.5013,1.5013,0,0,0,.7976,2.8928A177.8035,177.8035,0,0,0,176.1662,103.29c1.5141-1.196-.6216-3.3059-2.1213-2.1213Z"/><path class="cls-4" d="M142.4589,24.6278c-12.3522,7.8515-23.5523,17.8046-37.4964,22.8229-1.803.6489-1.0254,3.5489.7975,2.8928,14.2261-5.12,25.6118-15.1155,38.2131-23.1253,1.6248-1.0328.1216-3.63-1.5142-2.59Z"/></g></svg>