<svg id="圖層_1" data-name="圖層 1" xmlns="http://www.w3.org/2000/svg" viewBox="0 0 1632.7559 861.2295"><defs><style>.cls-1{fill:#f2f2f2;}.cls-2{fill:#e4765e;}.cls-3{opacity:0.38;}.cls-4{fill:#343170;}.cls-5{opacity:0.42;}.cls-6{fill:#fff;}.cls-7{fill:#f2bfa0;}.cls-8{fill:none;stroke:#343170;stroke-miterlimit:10;stroke-width:1.5px;}</style></defs><title>land-sm</title><path class="cls-1" d="M234.2814,398.4469c7.223,5.2339,7.3265,11.4962,3.0044,18.0283-4.4308,6.6962-10.6956,8.3194-17.7305,4.2718-6.7949-3.9094-10.22-10.0374-5.4314-17.0307C218.9509,396.6676,226.6449,396.0905,234.2814,398.4469Z"/><path class="cls-1" d="M165.8851,185.1448c6.4155,4.6325,5.964,10.3492,2.2411,16.0515-5.1492,7.8869-12.1238,8.3785-19.8506,3.8376-5.9874-3.5187-9.506-8.1789-5.0424-14.96C149.0652,181.2127,157.5884,183.293,165.8851,185.1448Z"/><path class="cls-1" d="M117.1015,474.6994c6.5377,6.9513,4.89,12.7982.6382,17.6654-5.3773,6.1558-12.9549,9.8606-20.1573,4.5756-4.7777-3.5059-7.093-11.2361-2.4386-16.4475C101.14,473.779,109.8808,474.2551,117.1015,474.6994Z"/><path class="cls-1" d="M177.7713,625.4089c-5.5346-6.2269-12.1811-13.3856-8.5852-21.96,3.1669-7.5516,11.6665-6.27,18.0181-2.855,8.772,4.716,7.4114,12.7514,4.1849,20.0506C188.964,626.1307,184.0613,628.1628,177.7713,625.4089Z"/><path class="cls-1" d="M249.2071,307.6315c-5.9188,5.16-12.8266,7.0036-19.37,3.1026-7.2574-4.3269-7.2147-12.3323-3.7185-18.6685,4.0685-7.3736,11.959-7.4911,18.2118-3.2016C250.6,293.1649,251.7457,300.254,249.2071,307.6315Z"/><path class="cls-1" d="M243.144,344.1411c6.8314,5.5149,7.7122,12.8054,4.4739,20.5407-2.4205,5.7818-7.3861,8.5164-13.0354,4.601-7.2082-4.9958-13.4723-11.3978-8.2162-21.1719C230.0285,341.3007,236.6073,342.5921,243.144,344.1411Z"/><path class="cls-1" d="M-10.7447,569.27c-7.07-4.8707-10.9333-10.6-6.1964-17.75,5.4968-8.2963,13.4555-4.78,20.564-2.1353,6.6719,2.4828,6.6759,7.6937,3.8985,13.0335C3.3312,570.4743-3.1476,572.5781-10.7447,569.27Z"/><path class="cls-1" d="M112.0035,439.7726c-5.62,5.9262-20.37,5.0413-20.37,5.0413s-8.2575-9.5306-4.34-15.2654c4.7486-6.9518,20.2481-5.4083,20.2481-5.4083S114.8559,433.1183,112.0035,439.7726Z"/><path class="cls-1" d="M9.6657,401.026c-5.3835,6.6638-11.7432,7.9578-18.6373,3.3814-5.7181-3.7959-9.4021-9.4212-4.0262-15.5652,5.6023-6.4028,13.8-8.2949,21.2531-3.962C15.165,388.8969,13.0418,395.4064,9.6657,401.026Z"/><path class="cls-1" d="M166.712,535.458c-4.0061,6.0058-9.2576,6.0364-14.3809,3.2279-8.3816-4.5944-8.3968-21.0669-8.3968-21.0669s11.1931-5.62,16.4163-2.5129C167.9822,519.6459,166.8554,528.1386,166.712,535.458Z"/><path class="cls-1" d="M261.9956,474.43c-6.2973,8.4776-13.1313,9.5066-20.4954,4.2834-5.5316-3.9235-8.3629-10.02-3.5914-15.6251,5.5337-6.5,21.15-3.1809,21.15-3.1809S264.0307,469.67,261.9956,474.43Z"/><path class="cls-1" d="M131.6541,161.808c-4.628,7.949-12.9207,7.1084-18.7708,5.3339-9.41-2.8544-5.5635-11.9448-3.4284-17.7037,2.4672-6.6543,10.2331-7.9736,16-5.59C133.1308,147.0218,132.828,154.7223,131.6541,161.808Z"/><path class="cls-1" d="M165.7741,334.6892c-5.4687,3.6582-10.9248,10.2-18.1127,5.7584-6.5668-4.0582-7.3043-11.8529-3.8439-18.3719,4.1017-7.7273,11.1581-7.12,17.7173-3.0014C167.353,322.7276,169.92,327.8331,165.7741,334.6892Z"/><path class="cls-1" d="M73.5385,334.886c-6.01,6.9036-12.3346,9.7287-18.5823,3.7639-5.1447-4.9117-8.0008-12.65-2.5734-18.4726,5.1283-5.5013,13.2665-3.9351,19.2343-.411C78.6292,323.9073,75.37,330.2212,73.5385,334.886Z"/><path class="cls-1" d="M133.2176,696.7167c-6.5636,5.15-13.2475,8.629-19.6066,3.7735a11.9448,11.9448,0,0,1-2.5836-16.6294c3.612-5.0879,9.4368-9.0806,15.7951-4.4683C132.6133,683.593,135.7589,689.6545,133.2176,696.7167Z"/><path class="cls-1" d="M159.6424,245.4843c-5.47,7.5376-12.7338,7.4457-20.2171,3.2406-5.9566-3.3473-6.27-8.6687-2.3138-13.8334,5.7291-7.4786,14.0024-7.1394,21.247-4.1056C165.5662,233.8043,160.6446,240.0632,159.6424,245.4843Z"/><path class="cls-1" d="M67.8712,492.8741c-4.602,6.6246-11.8143,9.239-19.7561,6.92-7.024-2.0511-6.1893-7.73-3.1191-13.0768,4.2991-7.4868,10.1234-11.91,18.9462-7.7535C69.6647,481.6594,71.5685,486.2947,67.8712,492.8741Z"/><path class="cls-1" d="M156.6948,469.96c-5.9368,4.7165-12.1687,8.816-19.0757,3.6862-5.7741-4.2883-6.844-10.9543-1.3385-16.0708,5.98-5.5579,13.873-8.2523,20.87-2.0189C161.8038,459.7012,160.12,465.4109,156.6948,469.96Z"/><path class="cls-1" d="M100.8867,668.4207c-4.9477,6.2005-10.8949,5.9777-16.078,1.6834-4.3488-3.603-11.2581-7.9382-6.5881-14.8835,5.16-7.674,13.9516-6.487,20.6454-2.984C105.6114,655.7665,102.4454,662.7775,100.8867,668.4207Z"/><path class="cls-1" d="M205.8769,354.4383c8.1709,4.78,6.5731,11.2712,3.2182,16.4546-3.4116,5.2708-9.2489,9.4175-15.8377,4.9994a13.7825,13.7825,0,0,1-5.1914-16.6938C191.6871,350.3931,199.9385,354.7084,205.8769,354.4383Z"/><path class="cls-1" d="M201.6534,246.8005c8.1709,4.78,6.5731,11.2713,3.2182,16.4547-3.4116,5.2707-9.2489,9.4174-15.8377,4.9993a13.7825,13.7825,0,0,1-5.1914-16.6938C187.4636,242.7553,195.7149,247.0707,201.6534,246.8005Z"/><path class="cls-1" d="M2.9673,251.7724C-1.2773,247.9783-5.4018,243.209-.968,238.01c5.6657-6.6435,13.5091-6.8428,20.84-2.1875,5.8407,3.7091,5.4571,8.9959,1.5692,13.849C16.16,256.2642,9.71,256.0741,2.9673,251.7724Z"/><path class="cls-1" d="M104.9679,528.1639c5.8588,3.5456,6.7207,8.9605,3.2013,13.9126-4.0806,5.7414-9.975,11.1866-17.6276,6.778-5.8323-3.36-8.21-10.283-4.56-16.2123C90.2462,525.7144,97.79,526.2557,104.9679,528.1639Z"/><path class="cls-1" d="M41.9334,213.6217c-3.2451-4.912-9.3447-9.6756-5.0948-16.08,5.5061-8.2974,13.9234-5.0409,20.725-1.9352,9.1924,4.1974,3.2233,10.2486.0163,14.8291C53.73,215.9336,48.4269,218.5427,41.9334,213.6217Z"/><path class="cls-1" d="M76.7881,578.7c-5.009,6.7013-11.075,4.201-16.4693,1.77-5.876-2.6484-11.0043-7.5838-7.6828-14.3291,3.5318-7.1723,11.2551-7.6858,17.99-5.0008C78.799,564.3983,77.71,571.8189,76.7881,578.7Z"/><path class="cls-1" d="M118.5978,207.7344c-6.3283,7.4592-13.43,9.8921-21.2715,7.1675-7.0943-2.4651-5.7515-8.8744-2.6823-13.1914,3.7763-5.3117,8.3536-11.7917,16.7406-7.8652C117.6419,196.7749,120.0046,201.86,118.5978,207.7344Z"/><path class="cls-1" d="M66.3637,635.4021c-4.2643,6.49-9.8947,8.6113-16.0067,4.5527-6.0383-4.01-6.4155-10.2568-2.7955-16.36,3.4773-5.8625,15.3892-6.1883,15.3892-6.1883S67.7912,629.1225,66.3637,635.4021Z"/><path class="cls-1" d="M147.1819,647.4861c-4.2643,6.49-9.8947,8.6113-16.0066,4.5527-6.0383-4.01-6.4155-10.2568-2.7955-16.36,3.4772-5.8624,8.7217-9.6553,15.3892-6.1883C152.0772,633.811,148.61,641.2065,147.1819,647.4861Z"/><path class="cls-1" d="M84.6816,149.1431c5.0151,3.351,9.32,7.8144,6.28,13.3919-4.2095,7.7223-12.87,8.89-20.1439,6.5648-5.6913-1.8195-6.1957-9.2742-3.5854-13.953C70.8513,148.66,77.1971,145.8135,84.6816,149.1431Z"/><path class="cls-1" d="M285.3,375.4466c-5.13,6.6069-18.3386,3.2634-18.3386,3.2634s-6.8463-9.1953-3.4544-14.1345c4.7038-6.8495,18.6956-2.8282,18.6956-2.8282S288.9679,369.798,285.3,375.4466Z"/><path class="cls-1" d="M121.9474,327.3022c5.9592,4.2195,6.1952,9.2543,2.25,14.1015-4.6094,5.6629-11.23,9.8658-17.6526,4.5339-4.503-3.7382-6.7094-11.7009-2.9455-16.857C108.2374,322.7264,115.7085,324.0973,121.9474,327.3022Z"/><path class="cls-1" d="M40.3559,299.0618c-4.9915,6.46-11.1485,7.6824-17.9948,3.4311-5.7182-3.5507-9.753-9.13-4.6331-15.0038,5.1279-5.8835,12.9966-3.3889,19.3552-1.298C43.698,288.3662,43.7783,293.5918,40.3559,299.0618Z"/><path class="cls-1" d="M138.2842,407.5047c-4.2923,6.3031-9.605,6.9694-15.3023,2.2061-5.031-4.2065-8.2936-10.7413-4.6992-16.0035,4.2914-6.2824,12.0043-5.7193,18.3843-1.7716C143.5158,396.1735,142.125,401.8408,138.2842,407.5047Z"/><path class="cls-1" d="M30.796,482.33c-4.1062,5.91-9.0072,11.74-16.5841,6.5671-4.8763-3.329-8.9908-9.4089-4.0012-15.6363,4.6876-5.85,11.7586-7.2481,18.57-4.3371C35.7092,471.8846,33.4163,477.3258,30.796,482.33Z"/><path class="cls-1" d="M41.4632,534.19c-5.0184,5.6113-10.8242,5.7513-16.7087,1.9311-5.7872-3.757-9.5232-9.3129-4.512-15.5166,3.8919-4.8182,10.0822-8.477,16.2032-2.8831C41.06,521.9387,44.6872,527.2072,41.4632,534.19Z"/><path class="cls-1" d="M24.12,657.2034c-4.5034,5.1707-10.5508,7.1173-16.388,4.4748-6.4327-2.912-7.8255-10.261-5.3144-15.7876,3.2262-7.1008,10.9323-8.8473,17.5048-5.0932C25.7608,644.1321,25.7867,650.8492,24.12,657.2034Z"/><path class="cls-1" d="M48.7268,263.4314c-4.7995-4.3079-8.2985-10.707-4.441-15.9167,4.4622-6.0264,12.2108-5.3807,18.6876-1.3407,5.77,3.5987,5.885,8.69,2.0762,13.6625C60.8761,265.2848,55.4138,267.0345,48.7268,263.4314Z"/><path class="cls-1" d="M26.142,444.4389c-4.6149,6.9043-11.08,5.9139-16.5389,2.9773-6.141-3.3031-8.1459-10.2967-4.7365-15.9814,3.6673-6.1147,11.6377-4.87,16.9-2.8765C28.8507,431.2421,27.47,438.4,26.142,444.4389Z"/><path class="cls-1" d="M63.36,447.4375c-4.6164,4.4961-10.5682,9.5294-17.2707,4.2561-5.1325-4.038-5.1194-11.3336-1.0727-16.6836,4.3179-5.7087,10.5065-5.59,16.384-1.8906C67.1433,436.7342,67.0674,441.5715,63.36,447.4375Z"/><path class="cls-1" d="M205.27,317.41c-5.2787,4.5032-11.5457,7.85-18.2544,3.6067-5.4742-3.4624-4.1752-9.35-1.2762-14.2179,3.4078-5.7218,8.5536-9.78,14.968-5.4151C205.7352,304.8053,209.1253,310.2658,205.27,317.41Z"/><path class="cls-1" d="M59.2544,669.5761c5.3626,4.1969,8.8568,10.273,5.6867,16.1083-3.0953,5.6973-10.9549,6.8759-16.672,4.9743-7.3977-2.4608-6.775-9.9749-4.5215-15.7656C46.4625,667.9167,52.512,666.92,59.2544,669.5761Z"/><path class="cls-1" d="M137,588.16c-5.1437-5.3927-3.727-11.5217-.765-16.8037,3.515-6.2683,9.5684-7.51,15.6062-3.4687,5.0725,3.3953,6.4953,8.9287,3.3068,14.0529C151.09,588.4617,144.4126,589.7242,137,588.16Z"/><path class="cls-1" d="M209.5337,534.2594c-5.1436-5.3927-3.7269-11.5217-.765-16.8037,3.5151-6.2683,9.5685-7.51,15.6063-3.4687,5.0725,3.3953,6.4953,8.9286,3.3068,14.0529C223.6238,534.5615,216.9465,535.824,209.5337,534.2594Z"/><path class="cls-1" d="M223.2373,474.619c-4.4375,5.1064-9.6066,8.7175-15.5058,3.1109-4.4556-4.2347-8.22-10.1441-2.3064-15.9019,4.5394-4.42,11.04-6.6908,16.7581-3.2069C229.0618,462.8122,226.3008,469.0446,223.2373,474.619Z"/><path class="cls-1" d="M85.1747,303.5846c-4.524-3.2616-4.248-12.8314-4.248-12.8314L99.52,286.82l1.1881,13.5157S91.4381,307.6038,85.1747,303.5846Z"/><path class="cls-1" d="M175.9539,434.21c-3.5171-5.0245-8.2035-10.6645-2.584-16.3464,4.4359-4.4852,11.391-6.0106,17.11-2.2085,7.6942,5.1157,2.5163,10.9248-.9249,15.7623C186.2086,436.1208,181.7839,439.2113,175.9539,434.21Z"/><path class="cls-1" d="M108.8367,601.129c4.57,4.311,6.5842,9.375,1.8509,14.2063-4.4374,4.5295-10.3989,8.2459-16.2071,2.2987-3.787-3.8779-6.6649-9.9575-2.6844-14.703C96.1673,597.72,102.7837,598.1307,108.8367,601.129Z"/><path class="cls-1" d="M48.6852,387.6877c6.2738,4.1134,7.24,9.2926,3.8555,14.4778-3.7355,5.7233-10.2213,8.5563-16.1465,5.1674-4.9257-2.8171-5.42-9.4655-3.1893-14.7831C36.4926,384.7132,43.3564,387.4843,48.6852,387.6877Z"/><path class="cls-1" d="M92.4862,375.3861c-4.9379,7.3848-9.8,12.5976-17.9189,8.6562-5.4495-2.6454-4.2344-7.4568-1.9279-11.9268C76.41,364.8087,90,365.0286,90,365.0286S92.9652,372.4343,92.4862,375.3861Z"/><path class="cls-1" d="M17.8961,360.555c-4.2833-3.6382-8.3375-8.1637-4.3857-13.5573,4.5476-6.207,11.7022-7.1406,18.3317-3.3463,5.139,2.9413,3.4194,7.76,1.04,11.9555C29.4163,361.7186,24.8272,364.7154,17.8961,360.555Z"/><path class="cls-1" d="M111.0129,237.4272c5.0583,3.449,8.148,8.011,3.0744,13.1246-4.4373,4.4724-10.8293,6.7155-16.7875,3.26-5.8331-3.383-4.7619-9.2471-1.9-14.1562C99.4324,232.74,105.1059,233.3782,111.0129,237.4272Z"/><path class="cls-1" d="M166.4886,371.9713c5.5153,4.04,5.4029,8.9012,1.6153,13.8363-3.5875,4.6743-8.9,7.6708-13.7377,3.3315-4.6121-4.1369-6.8146-10.7875-2.3521-16.5263C156.0222,367.4584,161.5,369.1328,166.4886,371.9713Z"/><path class="cls-1" d="M15.12,610.137c-4.4893-4.71-5.8841-9.68-2.801-13.4433,4.4385-5.4178,10.6163-9.4948,18.1381-5.5533,5.4027,2.831,4.33,7.6265,1.603,11.7757C27.8079,609.386,21.5072,610.8549,15.12,610.137Z"/><path class="cls-1" d="M133.8762,293.5761c-4.4152-4.8741-3.7718-10.4577-.596-14.8252,4.64-6.3813,10.9188-4.2878,16.2411-.4523,3.7252,2.6846,7.9453,6.9548,3.636,11.2767C148.1275,294.62,140.9726,295.2617,133.8762,293.5761Z"/><path class="cls-1" d="M11.2033,191.6581c4.9064,3.8207,7.5342,8.8384,3.286,13.69-4.1317,4.7186-10.6732,6.7741-16.4268,2.8943-4.7223-3.1843-6.7217-9.6031-3.3873-14.0609C-1.4369,188.9839,5.2466,189.1359,11.2033,191.6581Z"/><path class="cls-2" d="M622.2237,497.981c1.5249,11.7118.5648,23.8534-.1283,35.5906-.9656,16.3514-2.4018,32.672-3.6957,49-1.1824,14.92-2.4055,29.8734-2.7081,44.8433-.3158,15.6178,2.2322,30.866,4.6863,46.2648,4.1343,25.942,9.9863,51.6923,21.2409,75.56a1.5185,1.5185,0,0,0,2.0523.5381c5.8548-3.2842,12.5522-7.0534,15.1125-13.6619,1.5841-4.0887.9383-8.4216.7694-12.6934-.2316-5.86-.3188-11.7314-.0977-17.5935.7519-19.9439,6.4475-38.9086,11.9487-57.9457q11.7413-40.631,23.4946-81.2585,5.531-19.1284,11.0588-38.2577a1.5013,1.5013,0,0,0-2.8928-.7975Q692.3719,564.59,681.66,601.6055q-5.6057,19.3859-11.21,38.772c-4.2969,14.8658-9.0569,29.7-11.792,44.9507a171.6972,171.6972,0,0,0-2.1766,36.1385c.2013,6.0328,1.4146,12.2534-2.713,17.307-3.0355,3.7165-7.4952,6.1041-11.6113,8.413l2.0523.5381c-10.2259-21.6859-15.8973-45.0424-19.9094-68.5877-2.7482-16.1277-5.8049-32.4815-5.6516-48.8933.2852-30.5334,4.13-61.0015,6.1213-91.4476.878-13.4272,2.2-27.4038.4542-40.8152-.2458-1.8875-3.249-1.912-3,0Z"/><path class="cls-2" d="M764.6571,465.1818c17.1783,40.3054,19.5084,84.72,18.8405,127.9746-.3437,22.2632-1.6442,44.6571,1.3529,66.8053,3.0188,22.3078,10.3637,43.9532,16.5522,65.5249l10.9844,38.2893c1.7391,6.0622,3.4472,12.1343,5.2176,18.1874,1.1066,3.7834,2.2823,7.4723,6.0491,9.3035,1.7293.8406,3.2521-1.7456,1.5142-2.5905-4.8121-2.3392-5.535-10.524-6.8673-15.1684l-4.943-17.23-9.3368-32.5458c-6.2332-21.7278-13.7005-43.57-16.47-66.0869-2.7052-21.9971-1.3245-44.2144-1.0275-66.301.2809-20.8812-.1608-41.8212-2.63-62.5765-2.6615-22.3734-7.797-44.3364-16.6465-65.1-.7546-1.7706-3.34-.2438-2.59,1.5141Z"/><path class="cls-2" d="M616.2177,413.8282c-2.2508,9.2369,11.4344,14.8524,17.971,17.579a71.46,71.46,0,0,0,35.8,4.7384c5.93-.6588,11.8365-1.5319,17.8148-.9906,7.4159.6715,14.5692,3.1017,21.4492,5.8285,13.387,5.3059,26.566,11.1954,39.8226,16.8191,12.0825,5.1255,24.3748,11.7891,37.091,15.1586,9.9389,2.6337,18.4672.0251,24.7367-8.2094,12.6409-16.603,9.4353-40.3224,2.3422-58.5087-8.206-21.04-23.5507-39.6517-45.2447-47.4039-1.8214-.6508-2.6054,2.2468-.7975,2.8929,18.1392,6.4819,31.6764,21.1492,40.0145,38.1817,8.2263,16.8041,13.5777,39.2072,5.0319,56.9139-2.1577,4.4707-5.2466,8.9869-9.4634,11.7394-5.3272,3.4774-11.6544,2.8011-17.4547,1.0266-11.5577-3.536-22.7152-9.28-33.8366-13.9976q-16.2933-6.9118-32.5866-13.8237c-9.4457-4.0047-19.0341-8.1707-29.3095-9.4228-11.77-1.4343-23.3761,2.277-35.1852,1.1064a66.9851,66.9851,0,0,1-17.8422-4.2986c-4.8938-1.9219-19.1578-7.5652-17.46-14.5317.4569-1.8753-2.4353-2.6754-2.8928-.7975Z"/><path class="cls-2" d="M782.0375,368.2477a1.5009,1.5009,0,0,0,0-3,1.5009,1.5009,0,0,0,0,3Z"/><path class="cls-2" d="M783.9732,368.2c-10.3627-3.7743-23.4091-6.5243-30.5789,3.9a26.3632,26.3632,0,0,0,.8577,30.6391c3.4236,4.51,8.1086,7.1436,12.9057,9.9583,6.4922,3.8094,10.1627,8.8479,14.1561,15.084,8.1252,12.6883,15.5019,26.2894,16.0692,41.6759.0709,1.9247,3.0713,1.934,3,0-.4193-11.3737-4.3208-21.9541-9.7107-31.8769-4.6523-8.565-9.9908-19.2647-18.1357-25.0341-4.4519-3.1534-9.6115-5.1933-13.5922-9.008a23.5071,23.5071,0,0,1-7.1112-17.1242c.0791-6.2264,3.1874-14.478,9.0817-17.5043,6.2762-3.2224,16.1086-.0578,22.2608,2.1829,1.817.6618,2.6-2.2363.7975-2.8928Z"/><path class="cls-2" d="M636.843,427.8589c.63-3.3763,4.0616-6.0986,6.0974-8.75a76.9032,76.9032,0,0,0,5.8267-8.8407,1.5011,1.5011,0,0,0-2.59-1.5142,72.4356,72.4356,0,0,1-7.5149,10.9174c-1.9409,2.3036-4.1381,4.3175-4.7116,7.39-.3522,1.8871,2.5385,2.696,2.8928.7975Z"/><path class="cls-2" d="M678.2827,401.5841c3.7336,6.9239,7.2454,14.0343,11.2385,20.8114,2.3881,4.0532,5.546,7.2059,10.5723,6.7064,7.6293-.7581,15.6987-4.68,22.9776-7.024l23.9467-7.7107c1.83-.5893,1.0476-3.4869-.7975-2.8928L707.5372,423.93c-3.4423,1.1084-7.7429,3.09-11.38,1.62-2.72-1.1-4.3007-5.1222-5.6125-7.5439q-4.8528-8.9588-9.6716-17.936c-.9166-1.7-3.5076-.1869-2.59,1.5142Z"/><path class="cls-2" d="M686.9161,396.6662c3.1606,6.0667,8.7761,9.9674,15.2459,11.9385a49.4438,49.4438,0,0,0,11.4887,1.7969c4.1181.2427,9.034.8733,13.06-.3137,5.65-1.6657,7.0177-7.5642,7.4378-12.733.5085-6.2571.3086-13.2532-5.7277-16.7358a1.5012,1.5012,0,0,0-1.5142,2.5905c5.124,2.9561,4.6988,9.6981,4.1794,14.8453-.3241,3.2115-.8361,5.7733-3.4594,7.81-2.9192,2.2664-6.6426,1.7611-10.209,1.6744-10.578-.257-22.5217-2.0422-27.9111-12.3871-.8924-1.7129-3.4823-.1977-2.5905,1.5141Z"/><path class="cls-2" d="M767.9437,391.2645c5.8823-3.6634,12.7807,1,18.1825,3.6,1.7317.8336,3.2551-1.7524,1.5142-2.59-6.4866-3.1227-14.1855-7.9753-21.2109-3.6-1.6354,1.0185-.1309,3.615,1.5142,2.59Z"/><path class="cls-2" d="M726.6139,382.2324l59.4915-29.83c8.7346-4.38,17.7045-8.54,25.6809-14.24a36.8564,36.8564,0,0,0,14.4772-19.6817,1.5111,1.5111,0,0,0-1.4464-1.8988c-11.2726.3255-22.4623,4.5242-33.6191,6.172a231.8931,231.8931,0,0,1-38.7627,2.3626c-1.9312-.04-1.9309,2.96,0,3a234.2384,234.2384,0,0,0,36.5155-2.0348q8.6447-1.1764,17.1836-3.0026c6.196-1.3306,12.3076-3.3131,18.6827-3.4972l-1.4464-1.8988c-3.5053,10.5534-10.2806,16.58-19.6683,22.1417-7.8611,4.6569-16.2,8.5272-24.36,12.6191L725.1,379.642c-1.7261.8654-.2087,3.4542,1.5141,2.59Z"/><path class="cls-2" d="M624.9432,375.5624c1.0888-8.03-1.06-15.3945-2.7989-23.1684-1.6629-7.4326-3.7291-17.6145-1.1506-25.1088,1.8767-5.4547,7.1938-6.9432,12.1035-8.6126q6.5287-2.22,13.0617-4.4274l25.19-8.5387,25.19-8.5387c7.8716-2.6682,15.8966-6.1816,24.0644-7.7877,9.917-1.95,15.56,3.5073,19.4929,11.8713,3.8931,8.2788,7.0878,16.9493,10.5843,25.4026.7275,1.7589,3.6313.9879,2.8928-.7975-3.1047-7.5062-6.1655-15.0323-9.3172-22.5189-1.9775-4.6972-4.1624-9.6087-7.97-13.1363-9.8153-9.0927-24.4124-1.3945-34.9465,2.1762l-47.5818,16.1286c-7.774,2.6351-15.5708,5.2116-23.3244,7.9062-4.7923,1.6654-9.5158,3.6272-11.739,8.5286-2.7826,6.1345-1.7015,14.2681-.8278,20.687,1.32,9.7,5.5275,19.2245,4.1835,29.137-.256,1.8879,2.6342,2.7048,2.8928.7975Z"/><path class="cls-2" d="M625.0669,368.6076c42.4843-9.1638,86.2619-22.3682,122.1511-47.6108,1.5672-1.1023.07-3.7045-1.5141-2.59-35.694,25.1053-79.1751,38.193-121.4345,47.3084-1.8863.4069-1.0881,3.2995.7975,2.8928Z"/><path class="cls-2" d="M623.8922,379.4845c11.327-.3589,22.04-2.7011,32.922-5.7255,11.51-3.1991,23.0195-6.4341,34.3246-10.3078,21.8946-7.5022,41.6039-18.2127,60.55-31.437,1.5719-1.0971.0741-3.6989-1.5141-2.59-18.7356,13.0772-38.1666,23.71-59.8336,31.1346-10.4357,3.5758-21.0468,6.6067-31.67,9.5688-11.5152,3.211-22.7616,5.9765-34.7794,6.3573-1.9258.0611-1.9343,3.0613,0,3Z"/><path class="cls-2" d="M799.6655,347.9131c16.8713-2.1854,33.7568-4.375,50.7352-5.5476,17.072-1.179,34.1888-.7975,51.2711-1.684,32.8006-1.7024,65.1292-8.437,97.96-9.7521,16.8458-.6749,33.8014.1528,50.2818,3.8973,16.1721,3.6744,31.8262,9.5492,47.518,14.8365,15.78,5.3169,32.3125,9.8473,47.1091,17.6146A86.52,86.52,0,0,1,1174.64,393.569c16.9415,23.6278,23.0382,53.8063,21.001,82.4573-.137,1.9265,2.8636,1.9179,3,0,1.796-25.2586-2.6828-51.44-14.9783-73.7581a94.7084,94.7084,0,0,0-24.1535-28.8927c-11.5724-9.09-25.2622-14.4042-39.0631-19.1129-31.9227-10.8916-64.1536-24.3157-98.173-26.2232-34.7119-1.9463-69.0633,5.0448-103.4705,8.3466-19.5134,1.8726-39.0453,1.5667-58.6043,2.4224-20.2759.8872-40.4215,3.5-60.5329,6.1047-1.8879.2445-1.9123,3.2477,0,3Z"/><path class="cls-2" d="M1195.7858,477.1c-5.37,19.29-9.84,39.1855-17.0118,57.9042-7.1326,18.6167-19.5754,34.6231-29.128,52.0051-19.56,35.5917-37.2842,72.3212-54.49,109.0967q-14.8531,31.7461-28.7992,63.9048c-.761,1.7531,1.8228,3.2825,2.59,1.5142q24.8113-57.1571,52.4505-113.0261c9.1407-18.4595,18.4141-36.8759,28.154-55.0279,9.2841-17.3025,21.5054-33.2735,29.4679-51.231,9.04-20.3873,13.6957-42.9206,19.6594-64.3425a1.5013,1.5013,0,0,0-2.8928-.7975Z"/><path class="cls-2" d="M1052.9836,475.21c-4.3841,37.9981-6.2432,76.2217-6.9028,114.4525-.33,19.1341-.3681,38.2721-.3008,57.4086.0646,18.3534-1.2072,37.4351,1.3408,55.65,1.2811,9.1582,4.2875,17.9382,7.1,26.7112l9.91,30.9132c.587,1.8313,3.4846,1.0484,2.8928-.7975-5.3966-16.8346-11.956-33.7275-15.8022-50.9962-3.9846-17.8906-2.333-37.3249-2.4168-55.5418-.1743-37.927-.0028-75.876,1.94-113.7622,1.0971-21.3948,2.7838-42.755,5.2394-64.0379.2209-1.9144-2.7809-1.8986-3,0Z"/><path class="cls-2" d="M981.3811,553.5649c.3059,25.3092-1.9506,50.7518-3.265,76.0111-1.4724,28.2949-3.9578,56.5517,2.0273,84.5106a378.7935,378.7935,0,0,0,10.2319,36.5957c3.1193,9.6957,5.5781,20.656,13.383,27.7856,1.423,1.3,3.5505-.8158,2.1213-2.1213-7.7889-7.115-10.0965-18.59-13.1926-28.273-3.2809-10.261-6.4-20.5856-8.8267-31.0862a183.5466,183.5466,0,0,1-4.5437-46.6886c.7322-27.0911,2.5838-54.1511,3.9079-81.2169.5781-11.8164,1.3-23.6812,1.1566-35.517a1.5009,1.5009,0,0,0-3,0Z"/><path class="cls-2" d="M1045.5163,676.1345c-.341,5.5152-3.817,11.7145-5.8338,16.7435-3.4515,8.6062-7.1,17.1349-10.84,25.62-2.5226,5.7232-5.1051,11.3688-8.0038,16.9089a196.4017,196.4017,0,0,0-9.816,20.8481,44.1764,44.1764,0,0,0-2.3783,9.4319c-.5689,3.8767-.8362,8.2681-4.2569,10.8431-1.5237,1.147-.03,3.7529,1.5141,2.59,4.6281-3.4838,4.9517-8.6354,5.8293-13.9955,1.4316-8.7438,5.9633-16.9414,9.9311-24.7721,3.4177-6.7452,6.72-13.4175,9.7709-20.3407,3.7757-8.5664,7.4586-17.1782,10.9525-25.8637,2.2093-5.492,5.758-11.9877,6.1306-18.0135.1192-1.9281-2.8812-1.9211-3,0Z"/><path class="cls-2" d="M824.9957,784.4329a73.0253,73.0253,0,0,0-.6877,32.2626c1.1208,5.4061,4.1008,10.1871,6.7869,14.9288l9.7352,17.1848a1.5011,1.5011,0,0,0,2.5905-1.5141L835.54,833.3834c-2.8645-5.0565-6.38-10.2155-7.9431-15.8579-1.3478-4.8661-1.2872-10.302-1.4141-15.321a58.6458,58.6458,0,0,1,1.706-16.9741,1.5013,1.5013,0,0,0-2.8928-.7975Z"/><path class="cls-2" d="M826.114,781.05c-.5621,11.4195,3.5858,23.2683,7.903,33.7016,4.1118,9.9369,10.7558,18.3425,17.4414,26.6512,1.21,1.5043,3.3212-.63,2.1214-2.1213-6.7287-8.3621-13.3433-16.8355-17.3086-26.91-3.8532-9.7892-7.68-20.7059-7.1572-31.3217.095-1.93-2.9053-1.9248-3,0Z"/><path class="cls-2" d="M826.6668,783.103a122.5232,122.5232,0,0,1,10.7241,12.85c3.1147,4.5234,5.1357,9.5693,7.7667,14.3591a48.193,48.193,0,0,0,18.63,18.6657,1.5011,1.5011,0,0,0,1.5142-2.59c-9.2112-5.236-15.3083-12.7884-19.8837-22.2112-4.2866-8.8279-10.0442-15.9785-16.63-23.194-1.3043-1.4291-3.4212.6971-2.1213,2.1213Z"/><path class="cls-2" d="M994.4426,769.7674c1.6958,22.3713,3.7,45.1822,14.19,65.429.8884,1.7148,3.4782.1993,2.59-1.5142-10.2358-19.7563-12.1257-42.09-13.78-63.9148-.145-1.913-3.1462-1.9288-3,0Z"/><path class="cls-2" d="M1004.8558,775.9243c1.167,9.6394,1.5429,19.8687,4.5119,29.1655,2.7519,8.6172,7.54,16.3741,12.2822,24.0093,1.0167,1.6367,3.6131.1321,2.59-1.5142-4.6024-7.4093-9.3086-14.9279-11.98-23.2926-2.8845-9.0324-3.2695-18.9917-4.4047-28.368-.2291-1.8926-3.2319-1.9156-3,0Z"/><path class="cls-2" d="M1008.8478,772.2472q6.2374,20.7785,13.0763,41.3672c.6056,1.8233,3.5038,1.042,2.8928-.7976q-6.8387-20.5882-13.0763-41.3671c-.5537-1.8444-3.45-1.0587-2.8928.7975Z"/><path class="cls-2" d="M1068.224,757.7561a103.209,103.209,0,0,0,3.1752,78.02c.8,1.7544,3.3861.2314,2.59-1.5141a100.1781,100.1781,0,0,1-2.8727-75.7083c.6613-1.8171-2.2367-2.6-2.8929-.7975Z"/><path class="cls-2" d="M1062.2687,764.1007l13.5472,39.2146c2.7149,7.8588,4.7016,20.5067,14.8191,21.6076,1.9167.2086,1.902-2.793,0-3-6.6244-.7208-8.2072-8.6395-9.991-13.803l-5.1608-14.9389-10.3217-29.8778c-.6266-1.8138-3.5256-1.0343-2.8928.7975Z"/><path class="cls-2" d="M1064.6543,764.0363a66.9909,66.9909,0,0,1,12.7623,13.9643c3.1729,4.7131,5.1629,9.8316,7.6872,14.8726,4.7974,9.5809,15.3322,11.6039,22.7723,18.38,1.4248,1.2977,3.5524-.8179,2.1214-2.1213-3.66-3.3334-7.9762-5.4942-12.2293-7.9547a25.1648,25.1648,0,0,1-11.3675-12.6633,71.0079,71.0079,0,0,0-19.6251-26.5992c-1.4719-1.23-3.6052.8816-2.1213,2.1213Z"/><path class="cls-2" d="M643.5861,750.4179c7.4865,16.8744,4.1265,37.3388,16.8412,51.9993,1.2672,1.4611,3.3815-.6684,2.1214-2.1213-12.3129-14.1972-9.0768-34.9484-16.3722-51.3921-.7813-1.7613-3.3672-.2367-2.59,1.5141Z"/><path class="cls-2" d="M645.7754,749.9871,659.8283,772.48c3.63,5.8111,7.0063,11.6679,12.6915,15.7092,1.5765,1.1207,3.0765-1.48,1.5142-2.59-6.16-4.3792-9.7057-11.5763-13.6229-17.8463l-12.0453-19.28c-1.0207-1.6338-3.6173-.13-2.59,1.5141Z"/><path class="cls-2" d="M647.3055,739.2842c8.1462,13.8188,16.8875,27.9669,31.6742,35.44,1.719.8688,3.24-1.7184,1.5142-2.59-14.33-7.2425-22.7058-20.9759-30.598-34.3639a1.5011,1.5011,0,0,0-2.59,1.5142Z"/><path class="cls-2" d="M912.1566,463.8391c3.9,45.1658-10.0378,88.974-26.4486,130.4455-16.272,41.1208-33.9139,81.35-43.2851,124.7813q-3.7742,17.4916-6.116,35.25c-.8354,6.3227-1.5069,12.66-2.0993,19.0095-.6315,6.7677-2.28,18.5549-11.8736,17.1156-1.8886-.2834-2.7032,2.6069-.7975,2.8928,8.2493,1.2376,13.3864-5.5894,14.8273-13.0012,2.2328-11.4861,2.4549-23.4941,4.25-35.0837a438.6166,438.6166,0,0,1,16.4141-68.76c14.8211-45.4669,37.2511-88.1859,49.7645-134.4458,6.8868-25.4594,10.642-51.8272,8.3641-78.2043-.1649-1.9089-3.1664-1.9264-3,0Z"/><path class="cls-2" d="M621.9563,374.9189c-.4337,4.5988-8.0644,8.2741-11.5021,10.7977l-10.9484,8.0371L577.609,409.8281a1.514,1.514,0,0,0,.7571,2.7952c12.828.6848,25.963,2.2049,38.7927,1.0362,12-1.0931,24.0039-4.3359,35.7281-7.0127,25.1005-5.7308,49.1047-14.3237,73.11-23.52,1.7847-.6837,1.01-3.5852-.7975-2.8928-23.4054,8.9662-46.82,17.433-71.2759,23.0981-12.0474,2.7907-24.4342,6.1612-36.7648,7.3272-12.8149,1.2118-25.9772-.352-38.7927-1.0362l.757,2.7952,28.1531-20.667c4.35-3.1934,8.8143-6.2729,13.0593-9.6043,2.5471-1.9989,4.309-3.9223,4.6208-7.2283.1812-1.9212-2.82-1.9087-3,0Z"/><g class="cls-3"><path class="cls-4" d="M164.8489,284.8427a644.4723,644.4723,0,0,1-143.612,51.09c-1.8832.4217-1.0862,3.3147.7975,2.8928a647.7891,647.7891,0,0,0,144.3287-51.392c1.7318-.8532.2134-3.4415-1.5142-2.59Z"/></g><g class="cls-3"><path class="cls-4" d="M249.228,234.9137q-2.3729,1.6524-4.7593,3.2855c-1.5836,1.0838-.0847,3.6847,1.5142,2.59q2.3864-1.6331,4.7593-3.2855c1.5733-1.0955.0754-3.6973-1.5142-2.59Z"/></g><g class="cls-3"><path class="cls-4" d="M324.73,173.7085q-20.1338,18.8273-41.6888,36.0239c-1.5089,1.2036.6261,3.314,2.1213,2.1213q21.5494-17.1888,41.6889-36.0238c1.4131-1.3215-.7116-3.44-2.1214-2.1214Z"/></g><g class="cls-3"><path class="cls-4" d="M411.3228,75.0682q-6.4936,9.028-13.2648,17.8492c-1.1749,1.5307,1.43,3.0263,2.59,1.5141Q407.42,85.61,413.9132,76.5824c1.1291-1.57-1.472-3.0692-2.59-1.5142Z"/></g><g class="cls-3"><path class="cls-4" d="M766.2666,463.428c-56.12-10.6088-111.2152-26.4724-163.8488-48.7378-1.7574-.7435-3.2882,1.84-1.5142,2.59,52.8868,22.3725,108.17,38.38,164.5654,49.04,1.8869.3567,2.6954-2.534.7976-2.8928Z"/></g><g class="cls-3"><path class="cls-4" d="M1649.8876,603.3731c-56.7547-7.1643-112.3165-22.3793-165.5206-43.254-54.8419-21.5175-107.2932-49.0733-156.7028-81.1141a949.0061,949.0061,0,0,1-137.13-107.9829q-31.1413-29.5761-59.35-62.0356c-19.8039-22.7835-38.4831-46.8592-52.513-73.6934-14.3769-27.4982-21.48-57.0157-26.3528-87.469-4.7235-29.52-8.0328-59.5628-17.7528-87.99a191.4928,191.4928,0,0,0-7.889-19.4646c-.82-1.7461-3.4073-.2249-2.59,1.5142,26.2388,55.8571,19.7,120.5165,43.6178,177.1761,11.6358,27.5641,28.675,52.4131,47.4682,75.5538a818.3923,818.3923,0,0,0,59.1846,64.8883,948.0277,948.0277,0,0,0,134.9437,110.9113A897.9889,897.9889,0,0,0,1464.3,555.1626c53.268,22.4773,109.0241,39.48,166.1929,48.4752q9.6754,1.5223,19.3951,2.7353c1.91.2412,1.8929-2.7611,0-3Z"/></g><g class="cls-3"><path class="cls-4" d="M1678.3922,583.42c-56.7547-7.1643-112.3165-22.3792-165.5206-43.254-54.842-21.5174-107.2933-49.0733-156.7028-81.1141a949.0187,949.0187,0,0,1-137.13-107.9828q-31.1413-29.5763-59.35-62.0357c-19.8039-22.7835-38.4832-46.8591-52.513-73.6934-14.377-27.4982-21.48-57.0157-26.3529-87.469-4.7234-29.52-8.0328-59.5628-17.7527-87.99a191.4928,191.4928,0,0,0-7.889-19.4646c-.82-1.7461-3.4074-.2249-2.59,1.5142,26.2387,55.8571,19.7,120.5165,43.6178,177.1761,11.6358,27.5641,28.675,52.4131,47.4681,75.5538a818.3936,818.3936,0,0,0,59.1847,64.8883A948.0221,948.0221,0,0,0,1337.8051,450.46a897.9952,897.9952,0,0,0,154.999,84.7491c53.2681,22.4772,109.0242,39.4795,166.1929,48.4751q9.6754,1.5223,19.3952,2.7353c1.91.2412,1.8928-2.761,0-3Z"/></g><g class="cls-3"><path class="cls-4" d="M579.97,404.735c-51.7114-23.9717-100.7812-53.0694-149.368-82.752-23.41-14.3016-46.428-28.8948-68.2542-45.556-21.6173-16.5017-42.218-34.288-62.469-52.4259-23.194-20.7738-45.7037-41.8075-65.6554-65.7878-1.2361-1.4856-3.3483.6467-2.1214,2.1214,18.0192,21.6575,38.0641,40.9164,58.9512,59.76,19.8744,17.93,40.0091,35.5982,61.05,52.1557,43.7516,34.4285,92.4222,62.6062,140.6386,90.2583,27.9784,16.0457,56.4449,31.2488,85.7137,44.8168,1.74.8067,3.2659-1.7784,1.5141-2.59Z"/></g><g class="cls-3"><path class="cls-4" d="M782.3227,543.5671a769.8438,769.8438,0,0,1-119.5849-32.3318c-40.3952-14.646-79.3007-32.8641-117.0663-53.3111-37.3927-20.245-73.6894-42.4254-109.9284-64.646-32.9874-20.2268-63.042-44.701-91.9592-70.3221-33.485-29.6682-66.6984-60.2986-96.3113-93.8766-1.28-1.4508-3.3946.6776-2.1213,2.1213,26.7624,30.3459,56.5468,58.0338,86.546,85.1382,28.6011,25.8411,58.2177,51.0519,90.5586,72.14,35.2237,22.9674,71.8229,44.3751,108.56,64.8191,36.9949,20.5876,74.9919,39.3106,114.4765,54.6519A769.7209,769.7209,0,0,0,781.5252,546.46c1.8868.3566,2.6953-2.5342.7975-2.8929Z"/></g><g class="cls-3"><path class="cls-4" d="M1053.7206,479.19c-45.3965,2.2128-90.87,2.755-136.2891.8968-1.9306-.079-1.927,2.9212,0,3,45.4194,1.8582,90.8926,1.316,136.2891-.8968,1.9218-.0937,1.9331-3.0942,0-3Z"/></g><g class="cls-3"><path class="cls-4" d="M1276.5181,444.5407a256.0253,256.0253,0,0,1-79.0526,22.6806c-1.8955.2188-1.9176,3.2214,0,3a260.6076,260.6076,0,0,0,80.5668-23.09c1.7483-.8149.2266-3.4018-1.5142-2.59Z"/></g><g class="cls-3"><path class="cls-4" d="M1640.9835,191.7948c-19.2788,13.4584-34.148,31.6608-49.8767,48.8861-17.4785,19.1416-37.2482,34.5794-59.082,48.4755-47.4586,30.2049-95.5519,59.4533-143.3314,89.1482-26.5242,16.4848-52.8238,33.4286-79.83,49.119a1.5011,1.5011,0,0,0,1.5142,2.59c48.5327-28.1976,95.6853-58.9733,143.3556-88.6q36.0916-22.4308,72.1811-44.8666c20.9746-13.104,41.4113-26.8856,58.7638-44.6564,18.9968-19.4548,35.3081-41.7906,57.819-57.5054,1.5718-1.0973.074-3.6991-1.5141-2.59Z"/></g><g class="cls-3"><path class="cls-4" d="M1046.6175,543.5671c-46.7841,9.7536-94.687,8.4653-142.2164,8.6186a1.5009,1.5009,0,0,0,0,3c47.8067-.1541,95.9592,1.0842,143.014-8.7257,1.8888-.3938,1.0894-3.2863-.7976-2.8929Z"/></g><g class="cls-3"><path class="cls-4" d="M1331.0012,482.6681c-5.6626,6.0047-13.5968,9.9363-20.9136,13.5155a321.8345,321.8345,0,0,1-32.02,13.2592c-15.5888,5.64-32.05,11.9018-48.5434,14.3059-14.6393,2.1339-29.3755,3.7233-44.062,5.4894-1.893.2276-1.9159,3.23,0,3,20.1911-2.428,40.824-3.7346,60.4684-9.2577a408.616,408.616,0,0,0,62.164-22.5331c8.71-4.0655,18.3271-8.5522,25.028-15.6579,1.324-1.404-.7934-3.5295-2.1213-2.1213Z"/></g><g class="cls-3"><path class="cls-4" d="M1364.4349,466.9412c18.8022-12.8036,36.1919-27.4772,54.2194-41.3154a445.0277,445.0277,0,0,1,56.9052-36.648c19.8967-10.9547,39.4954-22.1029,57.7891-35.6293a525.9584,525.9584,0,0,0,48.9546-41.5565c18.0925-17.1574,35.3139-35.201,52.5163-53.2416,1.3323-1.3972-.7858-3.5219-2.1214-2.1213-30.542,32.03-61.28,64.29-96.6127,91.1422-35.4089,26.91-76.7964,43.9649-112.4129,70.5169-20.4112,15.2166-39.69,31.92-60.7518,46.2626-1.5866,1.08-.0874,3.681,1.5142,2.59Z"/></g><g class="cls-5"><path class="cls-4" d="M1732.71,815.9636l-6.96-112.8c-2.1848-35.4085-4.0877-70.8677-7.97-106.1417-3.7559-34.1309-9.4124-68.1736-19.25-101.12-10.087-33.7793-25.4417-65.2632-42.0218-96.2636q-13.1841-24.6508-26.5-49.2316c-4.27-7.9287-8.4706-15.9-12.8264-23.7819-3.6806-6.66-7.7811-13.2524-13.6-18.27-11.0863-9.56-26.4275-13.4047-39.8406-18.4955a476.2252,476.2252,0,0,1-45.0528-19.3135c-14.4262-7.2507-28.3674-15.6368-40.913-25.84-12.735-10.3569-23.2335-22.716-33.5905-35.3708-10.1465-12.3974-20.4817-24.6009-33.3053-34.3406-12.2941-9.3377-26.123-16.402-40.3491-22.29-32.39-13.4052-66.6431-22.7827-99.9722-33.54L1162.6067,84.3214l-26.5145-8.558a1.5151,1.5151,0,0,0-1.8452,1.0476c-7.82,32.1715,3.9762,63.8716,20.3437,91.3535,8.807,14.7874,18.9966,28.687,29.3663,42.403,9.3928,12.424,19.0084,24.7908,30.23,35.6387,10.7143,10.3575,22.92,19.1411,36.848,24.6192,14.1752,5.5754,29.3186,7.91,44.0544,11.4911,15.09,3.6675,30.2391,8.8573,41.49,20.0451,11.4622,11.3974,17.5938,26.8052,23.261,41.63,11.2486,29.4256,25.4081,56.6653,45.9535,80.768a243.3544,243.3544,0,0,0,35.6925,34.0891c13.2679,10.334,27.4122,19.48,40.679,29.8147a178.104,178.104,0,0,1,35.9643,37.0216c9.2755,12.9936,16.9768,27.03,24.1437,41.2706,14.8162,29.4407,28.1846,59.33,46.516,86.8527a419.0117,419.0117,0,0,0,63.86,74.9994c11.55,10.7014,23.78,20.5111,36.2881,30.0577,12.1015,9.2366,24.6248,18.8418,33.391,31.48a58.3006,58.3006,0,0,1,8.9518,19.8208c.4472,1.8773,3.3406,1.0825,2.8928-.7975-6.8652-28.8209-34.1681-45.2042-55.8162-62.4219a414.7908,414.7908,0,0,1-69.0192-69.74c-20.4584-26.2815-36.8662-54.8568-51.3344-84.7863-13.7983-28.5436-27.1719-57.9394-48.1511-82.0855-22.1712-25.5182-52.7081-41.0545-77.8371-63.19a241.4947,241.4947,0,0,1-58.4809-77.683c-12.3578-26.1152-18.0327-58.7889-43.3191-76.247-24.9964-17.2579-57.6383-14.98-84.4742-27.9451-29.71-14.3537-49.9705-43.2787-68.8768-69.2152-19.8564-27.24-40.271-58.4568-42.1223-93.1479a87.0877,87.0877,0,0,1,2.3975-25.2987l-1.8452,1.0476c69.7084,22.5,139.7492,44.1737,209.154,67.5923,30.8919,10.4236,60.4127,23.5544,82.8828,47.9208,11.0674,12.0015,20.6115,25.3142,31.7712,37.235a181.75,181.75,0,0,0,34.9448,28.6728c25.9658,16.6045,54.9657,27.532,83.7251,38.2008,7.4521,2.7645,15.0256,5.67,21.4687,10.4315,7.029,5.1951,11.6147,12.6247,15.7563,20.1654,8.8186,16.0562,17.3819,32.2578,26.068,48.386,17.0141,31.5911,34.6882,63.08,47.0814,96.8539,11.7865,32.12,18.9834,65.7374,23.7314,99.5659,4.849,34.5473,7.1514,69.3912,9.311,104.19q3.4251,55.1925,6.8116,110.3875l1.7094,27.7053c.1184,1.9179,3.1192,1.9313,3,0Z"/></g><g class="cls-5"><path class="cls-4" d="M1713.7886,812.2755l-2.0332-132.8263c-1.1246-73.4725-2.478-148.336-25.9694-217.9609-9.2651-27.46-21.844-53.6652-34.39-79.79q-14.178-29.5231-28.3561-59.0462c-3.6213-7.5408-7.3438-15.2283-13.1945-21.2071-7.1815-7.3387-16.9314-11.4713-26.392-15.4621-39.8983-16.8306-80.75-35.2429-109.8478-67.3122-15.6543-17.2527-27.3658-37.932-44.1163-54.1225-23.6789-22.8873-55.4541-35.0223-86.2921-46.578l-190.083-71.2283c-13.8275,45.5076,14.2689,92.127,41.0809,131.4114,17.0034,24.913,35.1735,50.8673,62.1865,64.2867,27.7653,13.7931,62.9906,13.3029,85.39,34.7374,16.4745,15.765,21.7293,39.4964,29.35,60.9875a242.2648,242.2648,0,0,0,66.967,99.5295c19.9045,17.707,42.7811,32.1538,60.7,51.8679,30.0586,33.0706,43.3305,77.5339,62.5015,117.9029A416.2674,416.2674,0,0,0,1668.1789,746.28c19.8826,16.8076,42.9221,34.232,47.4118,59.8768"/></g><path class="cls-6" d="M1214.7319,90.7416a192.0684,192.0684,0,0,0-93.4381-20.2988c-2.529.0986-5.1945.2918-7.294,1.7051-2.1927,1.476-3.3778,4.0176-4.4044,6.4534a180.1266,180.1266,0,0,0-14.0569,73.2047l88.4934-22.8331c-10.6656,13.8464-27.724,20.7991-42.2691,30.49A122.5986,122.5986,0,0,0,1109,191.6651a14.3474,14.3474,0,0,0-2.77,5.8167c-.5086,3.38,1.2714,6.6282,2.8464,9.6622,17.675,34.0471,16.9278,77.6635,43.1537,105.66A1066.9954,1066.9954,0,0,1,1219.18,194.5374c3.4412-5.2655,9.0742-11.2372,14.8906-8.8422.6742,9.515-3.9507,18.5025-8.3134,26.9852a908.9051,908.9051,0,0,0-48.5841,112.5456c-.813,2.2983-1.6206,4.8167-.8221,7.12.7949,2.2925,2.978,3.7731,5.0764,4.9913,18.6318,10.8158,42.112,14.7464,55.9079,31.2931a327,327,0,0,1,12.196-77.7009c6.2508-22.0367,18.1811-46.4144,40.6176-51.029a228.0786,228.0786,0,0,0-27.7522,121.245c.335,6.3232,1.1039,13.0617,5.15,17.9326,8.3541,10.0578,25.0493,6.61,36.07,13.6453-2.0591-22.0752-4.11-44.4382-.5336-66.3188s13.47-43.59,31.2045-56.8957a328.9462,328.9462,0,0,0-8.998,132.7142,12.0121,12.0121,0,0,0,1.1255,4.2149c1.1355,2.0621,3.3278,3.2743,5.4056,4.3809q44.1771,23.5278,87.4663,48.6742c26.8094-42.0093,53.5235-86.5463,57.9418-136.185.26-2.9219.4143-6.0009-.846-8.65-1.3684-2.8763-4.1642-4.7572-6.8327-6.4963l-93.3372-60.8294a164.8228,164.8228,0,0,1,102.3959,33.5234l.4356-57.54c.0183-2.406-.0153-4.9873-1.3971-6.957-1.5492-2.2081-4.366-3.0582-6.9727-3.7519a869.38,869.38,0,0,0-117.5937-22.751c2.3162-4.27,7.32-6.2119,11.9722-7.6119a166.3762,166.3762,0,0,1,102.3034,2.3359c-.3851-5.1854-2.2535-10.13-4.1024-14.99-6.5109-17.1135-14.3941-35.7784-30.8842-43.7369-9.5589-4.6133-20.5743-4.8136-31.1881-4.8256q-26.52-.03-53.0322.7668c-13.0828.3932-27.3966,1.4312-36.9147,10.4156,13.61-15.0941,33.3961-23.494,53.4162-26.9953s40.5189-2.534,60.8192-1.5555L1400.273,66.89c-2.9295-4.2751-6.0662-8.7332-10.7286-10.9962-3.9416-1.9132-8.5058-2.0115-12.8785-1.7358a86.5271,86.5271,0,0,0-56.816,26.6331c-9.15,9.6836-18.2233,22.6053-31.543,22.3111-2.6387-11.5893,4.839-22.8228,11.9245-32.366,15.1958-20.4667,32.324-42.2749,57.03-48.5522L1298.1543,10.44c-12.0821-2.4006-25.1451-4.6961-36.29.55-7.0839,3.3348-12.5055,9.3614-17.3242,15.5326a185.3156,185.3156,0,0,0-31.2753,60.3859"/><g class="cls-3"><path class="cls-4" d="M1212.064,89.4464a196.1157,196.1157,0,0,0-47.5447-16.58c-15.5047-3.2182-32.3387-5.31-48.1787-3.8442-6.02.5569-9.0986,3.3779-11.4655,8.8219a168.6074,168.6074,0,0,0-7.9078,22.848,184.2518,184.2518,0,0,0-6.3539,51.1138,1.5177,1.5177,0,0,0,1.8988,1.4464l88.4934-22.8331-1.4594-2.5071c-10.3461,12.9991-25.5827,19.81-39.2952,28.5218a125.79,125.79,0,0,0-34.0568,31.785c-4.6619,6.3639-6.2292,10.8061-2.6311,18.1476a175.5564,175.5564,0,0,1,9.21,21.977c4.78,14.3864,8.0089,29.2279,12.6059,43.6693,4.8577,15.26,11.4345,29.9406,22.3657,41.8519a1.51,1.51,0,0,0,2.3559-.3036q16.509-33.9808,35.3351-66.762,9.1854-15.9615,18.9184-31.5994,4.99-8.0181,10.1219-15.9467c3.3322-5.1484,8.2855-14.3955,15.7707-12.1115l-1.1012-1.4464c.3419,9.2567-3.582,17.3832-7.6988,25.43-3.7182,7.2678-7.3816,14.5614-10.9256,21.916q-10.7358,22.2789-20.25,45.1179c-6.3963,15.3392-12.7909,30.8671-17.97,46.6682-1.9384,5.9142-1.0847,10.0324,4.315,13.422,5.27,3.308,11.1234,5.7539,16.8391,8.1675,14.1469,5.9738,29.0837,11.309,39.3939,23.2744a1.5157,1.5157,0,0,0,2.5607-1.0606c1.04-27.4084,5.1408-55.0639,13.33-81.2893,6.0175-19.2705,16.9011-41.1553,38.3824-45.9942l-1.6939-2.2035a231.5237,231.5237,0,0,0-27.9361,98.06,203.9521,203.9521,0,0,0,.0735,25.53c.4676,6.5363,1.5964,13.4734,6.3573,18.3667,9.2443,9.5015,24.6524,6.43,35.5108,12.9182a1.5108,1.5108,0,0,0,2.2571-1.2952c-3.8719-41.5611-7.2308-93.3411,29.9279-121.9193l-2.2035-1.694a333.2907,333.2907,0,0,0-11.9916,96.4634q.2928,12.2589,1.5017,24.4725c.5294,5.3393.0763,14.2519,3.802,18.5939,1.7323,2.0188,4.3515,3.1709,6.6425,4.3975q6.0564,3.2427,12.1059,6.4981,11.226,6.0623,22.3946,12.23,25.7736,14.233,51.2337,29.0228a1.53,1.53,0,0,0,2.0523-.5381c19.2936-30.2562,38.3782-61.3191,49.5177-95.6587a196.1343,196.1343,0,0,0,6.601-26.144c1.2626-7.0974,4.1986-17.33,1.1283-24.188-2.7974-6.2481-11.3285-9.8734-16.6891-13.367L1431.88,284.0559l-58.3357-38.0184-.7571,2.7952a164.9464,164.9464,0,0,1,101.6388,33.3186c.9454.7144,2.2493-.2632,2.2571-1.2952l.4056-53.5713c.04-5.3441.713-11.3024-4.6134-14.3424-6.192-3.534-14.8163-4.4054-21.6866-6.0869a880.9334,880.9334,0,0,0-101.1335-18.4989l1.2952,2.2571c4.9206-7.7268,18.4677-9.18,26.7386-10.7939a163.9426,163.9426,0,0,1,28.9966-2.9911,166.6784,166.6784,0,0,1,56.8464,9.1983,1.5075,1.5075,0,0,0,1.8988-1.4464c-.8664-8.2214-4.2453-15.9771-7.3712-23.5627a108.841,108.841,0,0,0-10.2087-19.9092c-8.8195-12.973-21.1508-19.8166-36.7537-21.1572-19.9333-1.7127-40.5067-.3544-60.4824.1767-15.1437.4027-31.9013.3116-43.8663,11.0218l2.1214,2.1213c28.8044-31.204,74.1745-29.9873,113.1747-28.1114a1.5094,1.5094,0,0,0,1.2952-2.257l-15.337-22.3819c-4.5-6.5667-8.69-13.6357-13.7933-19.7576-9.4957-11.3906-25.1207-8.7637-37.9682-5.3021a88.4971,88.4971,0,0,0-36.8787,20.3217c-10.1328,9.3612-19.0193,25.6185-34.4806,25.819l1.4464,1.1013c-1.9838-10.6036,3.8163-20.1435,9.7472-28.4387,5.2475-7.3392,10.7625-14.5472,16.65-21.3849,11.2464-13.0614,24.5271-24.6948,41.51-29.2495,1.3685-.367,1.4893-2.5969,0-2.8928L1300.8481,10.13c-14.1889-2.8192-30.1712-6.9659-43.8636-.0838-12.6322,6.3493-21.4878,20.627-28.6782,32.2646A190.0042,190.0042,0,0,0,1208.3931,86.51c-.5674,1.85,2.3275,2.6408,2.8929.7975a186.926,186.926,0,0,1,18.2422-41.2362c7.1459-11.9411,16.0823-27.0037,28.9705-33.4347,14.2233-7.0973,31.6944-1.5725,46.3186,1.3332l48.6206,9.66V20.7374c-18.5195,4.9668-32.8309,17.9977-44.8488,32.4a264.3827,264.3827,0,0,0-17.58,23.199c-5.4184,8.1869-9.4385,17.1951-7.5732,27.1648a1.5091,1.5091,0,0,0,1.4464,1.1012c11.9517-.155,20.22-9.0606,27.6845-17.3467,10.0508-11.1568,21.2128-20.3257,35.3294-25.8835,12.7106-5.0041,33.355-11.0687,43.6846.9195,5.4,6.2671,9.7077,13.7254,14.38,20.5432l14.7893,21.5825,1.2952-2.2571c-39.8073-1.9148-85.9318-2.82-115.2961,28.99a1.5009,1.5009,0,0,0,2.1214,2.1213c11.7481-10.5161,28.9289-9.8183,43.7087-10.1941,17.6837-.45,35.5-1.0641,53.184-.4357,8.6078.3059,17.3848,1.4614,24.9577,5.8514a46.1542,46.1542,0,0,1,14.9387,14.7308,107.6176,107.6176,0,0,1,9.5077,18.5917c3.0053,7.2775,6.4325,14.8747,7.2641,22.7652l1.8987-1.4464a168.1,168.1,0,0,0-93.5732-4.8849c-7.8429,1.846-17.7335,3.5281-22.3963,10.85a1.5192,1.5192,0,0,0,1.2952,2.2571,875.253,875.253,0,0,1,92.8162,16.5866c7.527,1.7707,15.0375,3.6261,22.51,5.6158,4.768,1.2695,8.8142,2.2948,9.1319,8.2992.1991,3.7636-.041,7.61-.07,11.379l-.3605,47.6189,2.2571-1.2952a167.621,167.621,0,0,0-103.153-33.7282,1.5126,1.5126,0,0,0-.7571,2.7952l47.502,30.9578c15.6321,10.1878,31.7043,19.9186,46.9821,30.6281,4.8914,3.4288,6.2436,7.1407,5.7888,13.0944-.3669,4.804-1.0772,9.6007-1.9206,14.3419a194.29,194.29,0,0,1-6.07,24.4847,283.6331,283.6331,0,0,1-20.2781,47.1613c-8.99,16.9617-19.1524,33.2627-29.4683,49.44l2.0523-.5381q-26.3129-15.2724-52.9523-29.9711-13.7513-7.581-27.59-15.0024c-4.7843-2.5658-10.6374-4.4393-12.5426-9.948-1.5295-4.4226-1.3522-10.4264-1.789-15.1082a330.0256,330.0256,0,0,1,10.5634-118.2606c.316-1.1456-1.1175-2.5291-2.2035-1.6939-38.1829,29.3659-35.4114,81.5979-31.4137,124.51l2.2571-1.2953c-10.259-6.13-24.9625-3.4717-33.9885-11.5721-6.1867-5.5523-6.36-14.5541-6.6475-22.2559a223.7251,223.7251,0,0,1,.4-23.938,228.0334,228.0334,0,0,1,27.3068-93.0045,1.5186,1.5186,0,0,0-1.694-2.2035c-21.1051,4.7541-32.6029,25.0984-39.1613,44.0805-9.4708,27.4114-13.6567,57.2069-14.7535,86.0958l2.5607-1.0607c-7.9773-9.258-18.7725-14.7841-29.8485-19.5063-5.7185-2.4381-11.5142-4.7-17.161-7.3035-2.9067-1.34-5.7874-2.758-8.5632-4.3543-2.8806-1.6567-3.8238-2.2914-4.3366-5.8733-.5-3.4883.2565-5.2762,1.399-8.4637a905.3572,905.3572,0,0,1,37.8834-90.0621c3.8118-7.8478,7.8925-15.56,11.7283-23.394,3.5522-7.2551,6.3757-14.7268,6.0732-22.9174a1.5458,1.5458,0,0,0-1.1013-1.4464c-10.31-3.1459-16.7293,9.6951-21.2056,16.6651q-11.4825,17.88-22.2467,36.2067-21.5272,36.6479-40.0817,74.9264l2.3559-.3035c-19.5892-21.3453-24.062-50.9358-32.1477-77.6989a188.5021,188.5021,0,0,0-6.8026-19.1779c-1.2221-2.8794-2.5734-5.6821-3.9689-8.48-.9037-1.8116-2.3565-3.9129-2.5333-5.9707-.3211-3.7365,1.3844-6.4981,3.405-9.345a121.8731,121.8731,0,0,1,34.623-32.471c13.744-8.6321,28.8969-15.5887,39.2262-28.5667a1.5135,1.5135,0,0,0-1.4594-2.5071L1091.7147,150.36l1.8987,1.4465a181.6016,181.6016,0,0,1,5.1027-45.8832,179.5181,179.5181,0,0,1,6.8455-21.8277c1.2233-3.1733,2.3653-7.7136,5.0575-10.0651,3.1684-2.7675,8.6794-2.1806,12.6167-2.22a192.0167,192.0167,0,0,1,87.314,20.2264c1.723.858,3.2444-1.7288,1.5142-2.59Z"/></g><g class="cls-3"><path class="cls-4" d="M1209.8689,90.3532c20.0381,10.3226,33.77,29.71,47.8941,46.6352,15.4129,18.47,30.7081,37.0513,45.31,56.1735,28.3635,37.1448,55.939,77.193,72.9341,121.0133a161.22,161.22,0,0,1,9.6661,40.34c1.54,13.3916,2.6243,26.845,6.6474,39.7841.5714,1.8376,3.4684,1.0534,2.8929-.7976-3.9436-12.6831-5.03-25.8573-6.54-38.9865a162.6888,162.6888,0,0,0-7.59-35.22c-7.6676-22.0261-19.0568-42.9547-30.9956-62.92-24.56-41.0726-54.5163-78.5825-85.0459-115.3162-15.7888-18.9973-31.1747-41.7134-53.6586-53.2958-1.7135-.8828-3.2328,1.705-1.5141,2.59Z"/></g><g class="cls-3"><path class="cls-4" d="M1358.6712,275.6205c-7.6347,31.6084-11.888,62.7985-8.8108,95.3546.18,1.9055,3.1819,1.9243,3,0a251.3525,251.3525,0,0,1-.1136-47.0022c1.5048-16.1409,5.0188-31.8291,8.8172-47.5549.4531-1.8759-2.439-2.6763-2.8928-.7975Z"/></g><g class="cls-3"><path class="cls-4" d="M1363.1685,279.1223c7.66.302,13.0717,5.9357,17.8294,11.3511,4.8081,5.4727,9.402,11.1442,13.9133,16.8623,9.5425,12.0955,18.5836,24.575,27.6264,37.0451,1.1226,1.5481,3.7265.0525,2.59-1.5142-9.9369-13.703-19.8827-27.41-30.4606-40.6294-7.858-9.82-17.4326-25.56-31.4989-26.1149-1.9306-.0761-1.9272,2.924,0,3Z"/></g><g class="cls-3"><path class="cls-4" d="M1324.193,224.1664c-14.195,11.38-21.4439,28.5244-28.2208,44.9085a530.4976,530.4976,0,0,0-21.0375,61.4016,1.5013,1.5013,0,0,0,2.8929.7976,530.985,530.985,0,0,1,19.59-57.8661c6.9-17.0343,14.1492-35.2978,28.8966-47.12,1.5063-1.2076-.6284-3.3181-2.1213-2.1214Z"/></g><g class="cls-3"><path class="cls-4" d="M1332.4165,221.7592a138.1185,138.1185,0,0,1,64.4531-3.5972c1.8875.3438,2.6971-2.5469.7975-2.8929a141.497,141.497,0,0,0-66.0481,3.5973c-1.8453.5513-1.0594,3.4476.7975,2.8928Z"/></g><g class="cls-3"><path class="cls-4" d="M1284.8753,163.6722c12.6858-1.4105,24.6973-6.8,37.27-9.099a168.095,168.095,0,0,1,42.5008-2.1437c1.9261.1407,1.9172-2.86,0-3A172.2474,172.2474,0,0,0,1325.04,151.05a165.6944,165.6944,0,0,0-20.0926,4.4895c-6.6561,1.9271-13.1421,4.3622-20.0723,5.1327-1.8976.211-1.9191,3.2134,0,3Z"/></g><g class="cls-3"><path class="cls-4" d="M1280.894,161.4777c-11.0911,18.7937-22.5,37.4391-33.1429,56.4916-9.6823,17.333-18.1748,35.4421-22.0164,55.0382-.37,1.8859,2.5212,2.6933,2.8928.7975,3.91-19.946,12.6666-38.2737,22.584-55.8718,10.4247-18.4981,21.4815-36.6556,32.2729-54.9413a1.5011,1.5011,0,0,0-2.59-1.5142Z"/></g><g class="cls-3"><path class="cls-4" d="M1269.1131,144.5031c5.5162-6.4679,8.7986-14.4134,14.6038-20.69a56.94,56.94,0,0,1,22.0211-14.6459c1.7929-.6686,1.0168-3.5695-.7976-2.8929a60.6045,60.6045,0,0,0-21.2132,13.2331c-6.9492,6.7529-10.5376,15.6073-16.7355,22.8743-1.2462,1.4613.8661,3.5931,2.1214,2.1213Z"/></g><g class="cls-3"><path class="cls-4" d="M1239.7891,108.1852c-.079-10.5764,6.3875-20.9833,10.5083-30.45l12.7016-29.18c.7628-1.7527-1.821-3.2819-2.5905-1.5142q-7.1446,16.4136-14.2892,32.8273c-3.8817,8.9174-9.4047,18.3408-9.33,28.3168a1.5009,1.5009,0,0,0,3,0Z"/></g><g class="cls-3"><path class="cls-4" d="M1247.7259,125.0809c-22.487-3.586-40.8516,10.856-56.7776,24.7214-17.2769,15.0414-34.1392,30.9034-45.9637,50.7382a1.5011,1.5011,0,0,0,2.59,1.5141c10.7929-18.1042,25.8831-32.8551,41.5811-46.7033,15.9686-14.0867,34.7082-31.0556,57.7723-27.3776,1.8887.3012,2.7019-2.5891.7975-2.8928Z"/></g><g class="cls-3"><path class="cls-4" d="M1241.0732,114.6005c-15.7031-10.8764-36.7328-13.466-55.1744-16.3758a426.545,426.545,0,0,0-61.4057-5.1356,1.5009,1.5009,0,0,0,0,3,420.9962,420.9962,0,0,1,60.6082,5.0284c18.16,2.8654,39.0187,5.38,54.4578,16.0734,1.5908,1.1018,3.0924-1.4973,1.5141-2.59Z"/></g><path class="cls-6" d="M1047.1656,114.0355c-6.4534,3.1574-10.2614,10.1534-11.7425,17.1835s-1.0408,14.3-1.2994,21.4794c-.68,18.8771-6.2053,37.2016-11.6876,55.2779a12.5915,12.5915,0,0,1-7.0255,9.0552c-22.0035,14.0412-45.138,28.4814-71.1406,30.7569-1.81.1585-3.7941.21-5.2561-.87a7.0591,7.0591,0,0,1-2.2044-3.6139c-2.0959-6.333-2.0553-13.1462-1.9821-19.8166q.4464-40.7031,1.4586-81.3973c.0889-3.573.2364-7.3392,2.1281-10.3717,1.9707-3.1591,5.4792-4.9585,8.8175-6.6077l50.4132-24.9064a10.8446,10.8446,0,0,0,4.2918-3.09c1.029-1.4552,1.1567-3.7145-.21-4.8585-1.1953-1.0006-2.9561-.79-4.49-.5136A345.7265,345.7265,0,0,0,936.2,108.6349c3.3558-16.6819,8.7425-32.8938,14.8346-48.7819C953,54.7252,955.1931,49.41,959.3891,45.8666c3.2045-2.7057,7.2864-4.1162,11.32-5.2643a125.2942,125.2942,0,0,1,74.9066,2.1555c2.2381.7786,5.0681,1.4951,6.6937-.2289a4.5978,4.5978,0,0,0,.9807-3.5024c-.5067-7.2175-5.6085-10.5813-12.5014-12.78l-3.1147-.9937-.53-.1334a162.179,162.179,0,0,0-44.554-4.825,3.0335,3.0335,0,0,1-2.2966-.5552,2.9887,2.9887,0,0,1-.6435-1.819L987.8118,2.5106a6.6871,6.6871,0,0,1,.2149-3.53,6.1885,6.1885,0,0,1,2.8092-2.5787c10.9393-6.2051,24.064-6.9284,36.64-6.9956,20.1017-.1073,41.0569,1.3175,58.5148,11.2832-3.0984-7.2968-10.4313-11.7639-17.5091-15.3345a210.2336,210.2336,0,0,0-43.4956-16.199c-1.1431-2.8891.7282-6.27,3.3987-7.8582s5.908-1.817,9.0117-1.96c23.0062-1.0571,46.2191.4807,68.6131,5.8577,11.8064,2.8348,24.1461,7.2845,31.2495,17.1318a15.4353,15.4353,0,0,0,2.5965,3.1446c1.9045,1.54,4.5056,1.7912,6.9366,2.0894a83.69,83.69,0,0,1,55.087,31.4047c2.7062,11.12,14.7607,16.1909,18.4511,26.3393,1.3333,3.6668,1.4233,7.6513,1.4857,11.5525q.4112,25.6748.0907,51.3543c-.0326,2.6111-.0918,5.3162-1.2153,7.6734s-3.6258,4.27-6.2028,3.8487c-1.6829-11.5556-8.9339-21.42-15.9549-30.7515-10.8913-14.4748-22.6787-29.6427-39.6047-36.0964-1.0528,4.4241,1.257,8.8755,3.4334,12.8686a478.9257,478.9257,0,0,1,37.3412,88.7539,7.7955,7.7955,0,0,1,.4523,4.4114c-.486,1.6566-1.98,2.7819-3.385,3.7855l-52.4522,37.4719q1.8971-26.43,1.9172-52.95c.0068-9.3437-.175-18.7913-2.4988-27.8414a120.2275,120.2275,0,0,0-6.7365-17.9993l-6.37-14.5973c-.7841-1.7966-1.6407-3.6844-3.2451-4.8108s-4.1948-1.089-5.205.5909a5.3671,5.3671,0,0,0-.5483,2.5681c-1.7147,39.5124,3.5219,79.6982-5.133,118.2892-.5771,2.5733-1.43,5.4242-3.75,6.679a9.3766,9.3766,0,0,1-4.5888.7529c-11.3675-.1033-22.8909-1.1164-33.99,1.3422-13.97,3.0945-27.1291,11.6265-41.3648,10.1887l15.0621-106.7459"/><path class="cls-6" d="M1140.1246-15.195c-15.3526,10.9475-30.8664,22.032-43.45,36.2118-12.741,14.3571-22.4809,31.0616-35.1961,45.4541-12.4356,14.0759-26.5025,26.5634-39.7765,39.82A251.68,251.68,0,0,0,986.26,150.3643c-12.9668,20.5435-25.6084,41.2988-38.4,61.9516-1.0195,1.6459,1.5747,3.1541,2.59,1.5141q16.8018-27.1266,33.6037-54.2533c10.3009-16.624,21.2778-32.1494,34.9111-46.237,12.8521-13.28,26.7412-25.5192,39.3939-38.9971,12.959-13.804,23.0218-29.6119,34.7474-44.39,13.5786-17.1139,30.874-29.9648,48.5331-42.557,1.5587-1.1115.0622-3.7145-1.5141-2.59Z"/><path class="cls-6" d="M1007.8283,124.6168c-2.5357,12.6642-5.0779,25.3982-5.6948,38.33-.6529,13.6869,1.1248,29.0635-8.9185,39.9759-1.3057,1.4186.81,3.5456,2.1213,2.1213,8.7189-9.4734,9.413-22.1856,9.6016-34.4368.236-15.3373,2.7791-30.1892,5.7833-45.193.3775-1.8853-2.5135-2.6921-2.8929-.7975Z"/><path class="cls-6" d="M1006.7462,117.8119c-9.419,3.93-18.9382,6.4462-26.7764,13.3182-8.8776,7.7831-17.0667,16.4835-25.52,24.7235-1.3849,1.35.7374,3.47,2.1213,2.1214,7.6951-7.5011,15.2917-15.1216,23.1032-22.5013,8.1814-7.7292,17.7254-10.5369,27.8692-14.769,1.7558-.7325.9852-3.6366-.7975-2.8928Z"/><path class="cls-6" d="M1072.3526,54.5358c13.3419,15.9241,16.1592,37.1034,16.3172,57.1945.0837,10.65-.473,21.2961-.3013,31.9466.1623,10.0677,1.5588,20.8875-4.2168,29.7719-1.0554,1.6235,1.5408,3.1287,2.59,1.5142,5.3883-8.2887,4.9886-18.0848,4.7135-27.5877-.3627-12.5287.3867-25.0505.1926-37.5791-.3152-20.3443-3.73-41.3357-17.1743-57.3817-1.2414-1.4816-3.3539.65-2.1213,2.1213Z"/><path class="cls-6" d="M1071.9566,49.2134c-18.9336-2.9056-37.48,1.48-55.67,6.4722q-30.29,8.3125-60.5474,16.745a1.5013,1.5013,0,0,0,.7975,2.8929q28.4238-7.8621,56.8476-15.7242c18.796-5.1963,38.1323-10.5075,57.7752-7.4931,1.8887.29,2.7028-2.6.7975-2.8928Z"/><path class="cls-6" d="M1100.2989,19.7938c10.1672,5.1023,20.6924,10.5046,28.54,18.9411,9.425,10.1329,9.3574,22.5429,12.6388,35.198,6.19,23.8722,21.7435,44.3479,25.3466,69.0264.2779,1.9033,3.169,1.094,2.8928-.7975-3.8391-26.2951-21.2482-47.9306-26.4466-73.8085-2.4466-12.1793-3.8567-22.9269-12.8-32.2653-7.9746-8.3271-18.4739-13.7742-28.6573-18.8846-1.721-.8636-3.2419,1.7234-1.5142,2.59Z"/><path class="cls-6" d="M1102.5177,17.9894c-24.3649-9.1526-49.9115-18.2125-76.2242-12.6357-1.8876.4-1.0888,3.2926.7976,2.8928,25.712-5.4495,50.8479,3.7025,74.6291,12.6357,1.8094.68,2.5911-2.2191.7975-2.8928Z"/><path class="cls-6" d="M1126.4411,2.4544c17.7787,5.36,36.6968,11.1557,49.7135,25.1841,7.0674,7.6167,12.5733,16.782,18.4674,25.3029l19.2321,27.8034c1.091,1.5772,3.6924.079,2.59-1.5142l-20.3311-29.3921c-5.9933-8.6645-11.6036-18.02-19.0265-25.5684-13.3278-13.5537-32.1313-19.3676-49.8483-24.7085-1.8525-.5585-2.6442,2.3361-.7975,2.8928Z"/><g class="cls-5"><path class="cls-4" d="M1046.4086,112.74c-10.6426,5.7773-13.2309,17.9821-13.5936,29.1623-.2666,8.217-.2808,16.2942-1.4828,24.4557a201.787,201.787,0,0,1-5.2779,23.9623c-1.0032,3.6534-2.0672,7.29-3.1522,10.92-1.1312,3.7843-1.8677,8.8681-4.6583,11.8262-2.5035,2.6536-6.4185,4.4814-9.4859,6.415-3.218,2.0286-6.45,4.0353-9.7142,5.9886-12.796,7.6565-26.2165,14.632-40.7339,18.3617a89.0544,89.0544,0,0,1-10.7931,2.0921c-3.2536.4189-4.1588.797-6.9435-1.285-2.7561-2.0606-3.05-3.7452-3.5981-7.0086-1.372-8.1758-.6236-16.8123-.5177-25.062q.3249-25.3148.8685-50.6261c.1715-7.9845-.3212-16.3492.76-24.2665,1.1824-8.6547,9.9859-11.31,16.8559-14.7041,14.4774-7.1524,29.123-14.0414,43.46-21.471,3.3769-1.75,8.472-6.1435,4.5027-10.1526-3.4647-3.4994-12.2792.1051-16.1348.9187a351.7136,351.7136,0,0,0-50.9688,14.922l1.8451,1.8452a285.3555,285.3555,0,0,1,10.8923-38.14A162.9389,162.9389,0,0,1,954.65,55.0359c3.2125-6.6983,7.9208-10.3515,14.9453-12.5423,25.1946-7.8578,50.7183-5.593,75.6223,1.7106,2.6636.7812,5.9107,1.6923,8.1531-.6147,2.2981-2.3643,1.4821-6.4988.3822-9.21-2.8659-7.0639-11.2683-9.5379-18.0283-11.1543A164.3217,164.3217,0,0,0,998.21,18.7179c-3.9362-.0153-6.2147,1.065-7.4039-3.6874-.6895-2.7556-.6967-5.8386-1.0343-8.6677-.5227-4.3808-.77-6.6828,3.3266-9.4781,2.9483-2.0117,7.3271-3.0473,10.8059-3.8628,13.1154-3.0747,27.5449-2.5594,40.91-1.6687,14.08.9383,27.9786,3.7411,40.42,10.6317a1.5129,1.5129,0,0,0,2.0523-2.0522c-4.5538-9.6611-14.704-14.4238-23.9061-18.7128q-8.1845-3.8148-16.6712-6.9374-4.3656-1.6039-8.7993-3.0138c-2.8387-.9027-7.4258-1.2254-9.823-2.86-5.9-4.0229,4.74-7.2391,7.75-7.486,3.0637-.2513,6.1628-.2771,9.2347-.3389,7.04-.1418,14.0861-.03,21.1162.3747a217.8659,217.8659,0,0,1,40.9013,6.047c11.8734,3.0042,21.8742,7.55,29.667,17.1957,2.4219,2.9977,4.759,4.0557,8.5641,4.6767a103.4092,103.4092,0,0,1,17.6271,3.998,82.7758,82.7758,0,0,1,29.5492,17.996c3.6467,3.4508,6.8143,6.8452,8.9075,11.41a39.2612,39.2612,0,0,0,7.8142,10.8075c4.0693,4.2513,8.5128,8.3548,10.1646,14.2049,2.054,7.2747,1.04,15.8971,1.1017,23.39q.0981,11.8511.0418,23.7026c-.0255,5.2917,2.4268,24.0138-6.0376,23.8482l1.4464,1.1012c-2.6151-15.44-13.5455-28.1959-23.0169-40.1062-9.2026-11.5721-19.6291-22.2148-33.59-27.7894a1.5014,1.5014,0,0,0-1.8452,1.0477c-.9141,6.2165,2.0464,11.1474,4.9082,16.4718q5.2691,9.8029,10.0776,19.8438,10.1313,21.1549,18.1425,43.2386c2.5275,6.9732,4.9237,14.002,7.0992,21.0935.6959,2.2684,1.8114,4.53.0372,6.862-1.0285,1.3522-3.5286,2.6957-4.9124,3.6843l-9.5368,6.8131-39.7365,28.3878,2.2571,1.2952q1.3107-18.6021,1.7407-37.2489c.2547-11.7084.7538-23.66-.7617-35.3029-1.33-10.2213-5.2112-19.4529-9.2982-28.8208-2.1727-4.98-3.8962-10.8868-6.889-15.4293-1.5108-2.2933-4.0725-4.3534-7.0225-3.5107-2.6568.759-3.1738,2.8372-3.4561,5.2727-.7265,6.2661-.3712,12.86-.3747,19.1619-.0063,11.526.2962,23.049.385,34.5741.0933,12.1039-.0337,24.2245-1.0057,36.2957-.4985,6.1914-1.2162,12.3665-2.25,18.4923-.4764,2.8221-1.006,5.6387-1.63,8.4321a12.0405,12.0405,0,0,1-.9172,3.5308c-1.8928,2.9677-4.9326,3.7427-8.075,3.7093-12.3479-.1312-24.6423-.9823-36.66,2.5014-12.2073,3.5386-23.7188,10.0194-36.7983,9.0544l1.4464,1.8988,15.0622-106.7459c.2664-1.8883-2.6238-2.7043-2.8929-.7975L1031.36,221.9916a1.5323,1.5323,0,0,0,1.4464,1.8987c10.0376.7406,19.2623-2.7264,28.54-6.1061a90.244,90.244,0,0,1,32.5662-5.7087c5.1522.0409,10.7075.8351,15.8284.2608,3.1015-.3478,5.3507-1.495,6.8323-4.3178,2.0884-3.9789,2.4689-9.2,3.2065-13.5587.8693-5.1365,1.5272-10.3114,2.0239-15.4967,2.1634-22.5835,1.1655-45.3.9828-67.9419-.0438-5.4371-.044-10.8749.0559-16.3115.0414-2.2494-.5762-5.574.2125-7.659l.0777-1.9124,4.8882-.2479c.9209.4842,1.6684,3.4738,2.1112,4.4815,4.6016,10.47,10.053,21.0191,12.5961,32.2287,2.8963,12.766,2.1206,26.3717,1.8721,39.3663q-.3753,19.6267-1.7808,39.2113a1.5082,1.5082,0,0,0,2.2571,1.2952L1186.402,171.95c3.1789-2.271,6.3671-4.5293,9.5368-6.8131,2.05-1.477,4.61-2.9371,5.5126-5.4592,1.7344-4.8476-2.4615-12.5047-3.9809-17.048q-7.2677-21.7334-16.5848-42.7084-4.892-11.02-10.33-21.7855-2.51-4.9664-5.1351-9.8733c-2.482-4.6415-5.8608-9.4281-5.0449-14.977l-1.8452,1.0477c13.4079,5.3536,23.4555,15.9234,32.2666,27.0179,9.1375,11.5054,19.7221,23.884,22.2454,38.7824a1.5109,1.5109,0,0,0,1.4464,1.1012c10.5518.2064,8.9441-14.0512,8.9994-20.9226q.1589-19.7517-.113-39.5038c-.0729-5.27.19-10.851-1.5983-15.9012-1.3826-3.9045-4.0154-7.1666-6.797-10.1672-3.1552-3.4037-6.7307-6.52-9.2015-10.4953-1.1763-1.8924-1.535-4.1686-2.6038-6.0352a34.0556,34.0556,0,0,0-4.748-5.6062c-14.3-15.4288-32.517-23.2822-52.9065-26.725-5.8167-.9821-8.09-6.4834-12.2694-10.097a46.45,46.45,0,0,0-12.2238-7.3734c-10.8128-4.629-22.8172-6.76-34.3969-8.4121a258.1851,258.1851,0,0,0-42.5182-2.3894c-7.292.1709-23.4931.1286-20.5719,11.9485a1.4944,1.4944,0,0,0,1.0476,1.0477A213.1923,213.1923,0,0,1,1059.33-17.3536c9.4489,4.2521,20.69,8.8805,25.366,18.8l2.0523-2.0523c-21.0014-11.6314-47.0181-12.7679-70.4919-11.1289A75.1462,75.1462,0,0,0,999.82-8.9959c-3.9586,1.1916-9.7157,2.8084-12.3748,6.1682-2.8373,3.5851-.5745,10.02-.0989,14.0059.3942,3.3035-.3747,9.1724,3.6085,10.5092,2.0913.7018,5.0948.0221,7.2551.03q4.6827.0183,9.36.3075a159.3829,159.3829,0,0,1,21.87,2.88c5.2031,1.0561,10.929,2.167,15.6711,4.695a12.5241,12.5241,0,0,1,5.5517,5.1807c1.4611,2.8916,1.7066,3.8853-1.06,5.6086-2.94,1.831-3.891.77-7.0281-.2175-23.5976-7.4277-50.0831-7.9607-73.7768-.5711-5.269,1.6433-10.0674,3.9907-13.4911,8.46-3.3545,4.3789-5.1454,9.8251-7.06,14.93a303.0932,303.0932,0,0,0-13.4929,45.2458c-.2092,1.0161.6934,2.2775,1.8452,1.8452a352.4647,352.4647,0,0,1,45.5031-13.7225q5.4561-1.244,10.95-2.3105a13.4289,13.4289,0,0,1,2.7486-.5232c2.3127.1045,1.3869-1.5655,2.6408,1.8769.9894,2.7164,1.1018,2.1051-.9534,3.2023-1.0522.5617-2.1383,1.0656-3.2076,1.5938l-21.73,10.7356-22.599,11.1649c-4.8138,2.3782-10.4877,4.5571-13.1868,9.5345-3.03,5.5869-2.0511,13.28-2.1938,19.3906q-.29,12.4068-.5268,24.8148c-.3208,16.79-.7067,33.5919-.7373,50.3852-.0112,6.1043-.2423,14.3662,3.0754,19.8151,2.5955,4.2627,7.4377,3.3915,11.7369,2.8217,14.4877-1.92,28.1639-7.4687,40.9905-14.2969,6.4595-3.4387,12.7328-7.2156,18.936-11.0939,4.9284-3.0814,11.9392-6.0551,14.56-11.5683,3.2854-6.9123,4.8593-15.2373,6.8388-22.611a191.68,191.68,0,0,0,5.23-25.33c1.9755-15.4459-3.2511-39.673,13.2493-48.63,1.6973-.9214.1847-3.5126-1.5141-2.59Z"/><path class="cls-4" d="M1140.1246-15.195c-15.3526,10.9475-30.8664,22.032-43.45,36.2118-12.741,14.3571-22.4809,31.0616-35.1961,45.4541-12.4356,14.0759-26.5025,26.5634-39.7765,39.82A251.68,251.68,0,0,0,986.26,150.3643c-12.9668,20.5435-25.6084,41.2988-38.4,61.9516-1.0195,1.6459,1.5747,3.1541,2.59,1.5141q16.8018-27.1266,33.6037-54.2533c10.3009-16.624,21.2778-32.1494,34.9111-46.237,12.8521-13.28,26.7412-25.5192,39.3939-38.9971,12.959-13.804,23.0218-29.6119,34.7474-44.39,13.5786-17.1139,30.874-29.9648,48.5331-42.557,1.5587-1.1115.0622-3.7145-1.5141-2.59Z"/><path class="cls-4" d="M1007.8283,124.6168c-2.5357,12.6642-5.0779,25.3982-5.6948,38.33-.6529,13.6869,1.1248,29.0635-8.9185,39.9759-1.3057,1.4186.81,3.5456,2.1213,2.1213,8.7189-9.4734,9.413-22.1856,9.6016-34.4368.236-15.3373,2.7791-30.1892,5.7833-45.193.3775-1.8853-2.5135-2.6921-2.8929-.7975Z"/><path class="cls-4" d="M1006.7462,117.8119c-9.419,3.93-18.9382,6.4462-26.7764,13.3182-8.8776,7.7831-17.0667,16.4835-25.52,24.7235-1.3849,1.35.7374,3.47,2.1213,2.1214,7.6951-7.5011,15.2917-15.1216,23.1032-22.5013,8.1814-7.7292,17.7254-10.5369,27.8692-14.769,1.7558-.7325.9852-3.6366-.7975-2.8928Z"/><path class="cls-4" d="M1072.3526,54.5358c13.3419,15.9241,16.1592,37.1034,16.3172,57.1945.0837,10.65-.473,21.2961-.3013,31.9466.1623,10.0677,1.5588,20.8875-4.2168,29.7719-1.0554,1.6235,1.5408,3.1287,2.59,1.5142,5.3883-8.2887,4.9886-18.0848,4.7135-27.5877-.3627-12.5287.3867-25.0505.1926-37.5791-.3152-20.3443-3.73-41.3357-17.1743-57.3817-1.2414-1.4816-3.3539.65-2.1213,2.1213Z"/><path class="cls-4" d="M1071.9566,49.2134c-18.9336-2.9056-37.48,1.48-55.67,6.4722q-30.29,8.3125-60.5474,16.745a1.5013,1.5013,0,0,0,.7975,2.8929q28.4238-7.8621,56.8476-15.7242c18.796-5.1963,38.1323-10.5075,57.7752-7.4931,1.8887.29,2.7028-2.6.7975-2.8928Z"/><path class="cls-4" d="M1100.2989,19.7938c10.1672,5.1023,20.6924,10.5046,28.54,18.9411,9.425,10.1329,9.3574,22.5429,12.6388,35.198,6.19,23.8722,21.7435,44.3479,25.3466,69.0264.2779,1.9033,3.169,1.094,2.8928-.7975-3.8391-26.2951-21.2482-47.9306-26.4466-73.8085-2.4466-12.1793-3.8567-22.9269-12.8-32.2653-7.9746-8.3271-18.4739-13.7742-28.6573-18.8846-1.721-.8636-3.2419,1.7234-1.5142,2.59Z"/><path class="cls-4" d="M1102.5177,17.9894c-24.3649-9.1526-49.9115-18.2125-76.2242-12.6357-1.8876.4-1.0888,3.2926.7976,2.8928,25.712-5.4495,50.8479,3.7025,74.6291,12.6357,1.8094.68,2.5911-2.2191.7975-2.8928Z"/><path class="cls-4" d="M1126.4411,2.4544c17.7787,5.36,36.6968,11.1557,49.7135,25.1841,7.0674,7.6167,12.5733,16.782,18.4674,25.3029l19.2321,27.8034c1.091,1.5772,3.6924.079,2.59-1.5142l-20.3311-29.3921c-5.9933-8.6645-11.6036-18.02-19.0265-25.5684-13.3278-13.5537-32.1313-19.3676-49.8483-24.7085-1.8525-.5585-2.6442,2.3361-.7975,2.8928Z"/></g><g class="cls-5"><path class="cls-4" d="M326.0122-.0435c9.8735,7.0309,19.8013,14.1163,28.3406,22.7731,8.2669,8.3807,14.3811,18.2571,19.5508,28.7718,4.7885,9.74,8.8553,19.819,13.8,29.4836,5.0061,9.7851,11.2793,18.6135,17.906,27.3511,6.7558,8.9077,13.6494,17.8449,18.4722,27.992,5.3009,11.1533,7.5255,23.4079,10.65,35.2681A126.0228,126.0228,0,0,0,447.05,201.6769c2.8169,5.0214,5.6955,10.0679,7.6464,15.5049,2.1031,5.8612,2.76,12.0118,3.6222,18.1405,1.7738,12.6082,6.9125,23.4642,12.2842,34.8627,6.236,13.2325,12.0072,28.6134,5.8109,42.9562l2.3559-.3036c-18.0845-14.7931-37.4058-28.3293-53.5383-45.3468-18.09-19.0822-29.8395-42.4746-31.4254-68.9707-.0815-1.362-2.1036-2.1981-2.7952-.7571l-7.7229,16.09c-1.1478,2.3915-2.2539,6.1426-3.9425,8.1879-2.7869,3.3753-6.3055,2.5178-9.7945,1.2546a105.38,105.38,0,0,1-30.3653-17.1633c-4.3744-3.5455-9.5375-7.6575-11.1015-13.3194-1.6674-6.0362.4645-13.1695,1.3372-19.2l5.4661-37.7757c.2682-1.8536-2.3726-2.7161-2.8928-.7975a149.266,149.266,0,0,1-24.1992,49.9221h2.59q-18.5025-27.3714-35.8113-55.5218-2.0041-3.2643-3.9915-6.5388c-2.2442-3.6977-4.2588-6.8093-2.2383-11.2232,2.0925-4.5714,4.8891-8.8144,6.94-13.4376a129.5035,129.5035,0,0,0,8.8586-28.682c.2441-1.3-1.4825-2.7539-2.5071-1.4594A122.8544,122.8544,0,0,1,270.0468,80.89c-1.8761,1.7861-3.808,3.5187-5.8067,5.1668-1.6337,1.3472-4.2286,3.5145-6.5978,1.9135-.9589-.6479-1.6385-2.4707-2.1931-3.4475a91.4093,91.4093,0,0,0-19.1577-23.4011C222.09,48.5888,203.5118,38.437,196.7242,19.69c-.6522-1.8013-3.5523-1.0239-2.8928.7975,7.6579,21.1512,28.8438,31.4044,44.126,46.2556a85.04,85.04,0,0,1,12.7972,15.7288c1.935,3.082,3.7163,8.5614,7.8225,9.399,4.1616.8489,8.3121-4.054,11.0537-6.5138A121.7789,121.7789,0,0,0,283.7571,70.22L281.25,68.761a125.8857,125.8857,0,0,1-10.8524,32.8528c-1.9338,3.8938-5.3014,7.9511-6.086,12.2862-.8219,4.5415,2.462,8.5157,4.6754,12.1521q18.672,30.6762,38.8081,60.424a1.525,1.525,0,0,0,2.59,0,151.5788,151.5788,0,0,0,24.5016-50.6388l-2.8928-.7975c-2.32,16.0313-4.8343,32.0481-6.9552,48.1068-.7057,5.3432-.6811,10.3836,2.2224,15.0879,3.0793,4.9894,8.1227,8.8174,12.7249,12.3126a107.9506,107.9506,0,0,0,17.6838,10.93c5.1013,2.5057,11.3736,5.859,17.07,6.4761,4.721.5114,6.4881-2.9359,8.2929-6.6572,3.5526-7.3248,7.0456-14.6792,10.5682-22.0184l-2.7952-.7571c1.5294,25.5534,12.1178,48.5945,29.07,67.58,16.6912,18.6926,37.4746,33.0739,56.7721,48.8592.6567.5373,1.9364.6673,2.3558-.3035,9.851-22.8026-6.5741-43.8087-14.0679-64.4555-4.3607-12.0147-3.6026-25.1208-8.5754-36.9387C451.7,202.185,444.5371,192.4829,440.6436,181.03c-4.0172-11.8164-5.9431-24.224-9.9136-36.0543-3.6938-11.0061-9.6-20.747-16.4442-30.0644-6.9781-9.5-14.527-18.6065-20.4279-28.8486-5.84-10.1361-10.248-20.9964-15.2063-31.5692C373.37,43.231,367.3392,32.3452,358.8783,23.1324c-9.185-10.0012-20.3433-17.9272-31.352-25.7663-1.5755-1.122-3.0754,1.4786-1.5141,2.59Z"/><path class="cls-4" d="M241.7478,226.509c1.2157,27.753-.2475,55.4982-1.6832,83.2131l-4.3417,83.81,2.257-1.2952c-38.81-28.73-58.2585-81.4241-35.427-126.3282a1.5187,1.5187,0,0,0-1.694-2.2035,39.477,39.477,0,0,0-27.4,29.79l2.5071-.6619c-11.7966-11.0653-23.9233-22.9538-29.2256-38.6515-5.5562-16.4492-.21-30.4389,8.6446-44.37,3.6249-5.7032,7.4439-11.3217,10.3432-17.4442,1.7334-3.6607,5.133-9.7166,1.8759-13.4453-6.9365-7.9406-19.4307,6.7042-22.9838,11.4743-2.2444,3.013-4.2724,6.1772-6.4491,9.2379a18.41,18.41,0,0,1-1.6377,2.232c-1.5971,1.625-5.3575,1.9909-7.486,1.1872-1.9123-.7221-3.987-3.051-5.4524-4.558a36.07,36.07,0,0,1-10.0793-23.9532c-.0688-1.925-3.0692-1.9341-3,0,.4422,12.3649,6.7653,25.0582,17.6433,31.5176,5.2275,3.1042,8.4859.7517,11.737-3.6949,4.3027-5.8849,7.9345-12.3895,13.3843-17.339a24.76,24.76,0,0,1,4.9848-3.62c2.43-1.2861,7.62-3.2443,7.4641,2.7858-.09,3.4782-3.0656,7.7867-4.7194,10.8012-3.5092,6.396-7.7877,12.3269-11.49,18.6074-7.34,12.4517-10.4318,25.5911-6.1951,39.7409,5.0832,16.9775,17.9417,29.8152,30.52,41.6134a1.5138,1.5138,0,0,0,2.507-.6619,36.4617,36.4617,0,0,1,25.3051-27.6942l-1.694-2.2035c-11.5916,22.7981-13.2765,49.7322-5.3382,73.9993,7.4583,22.8,22.6728,42.2437,41.8416,56.4335.9789.7247,2.2042-.2742,2.2571-1.2952l4.3417-83.81c1.4358-27.715,2.8989-55.46,1.6832-83.2131-.0842-1.923-3.0847-1.9335-3,0Z"/><path class="cls-4" d="M191.1914,7.2632c.9313,18.158,9.7108,35.2118,15.218,52.2919,5.6468,17.5133,10.3832,35.304,14.7626,53.1717,9.191,37.4986,18.6954,75.0734,20.5758,113.7822.0934,1.9218,3.0939,1.9331,3,0-1.8337-37.7468-10.9127-74.2868-19.7812-110.8784-4.3335-17.88-8.9817-35.6958-14.5093-53.2485-2.8468-9.04-6.0083-17.9543-9.2769-26.8483-3.3748-9.1829-6.4837-18.4182-6.989-28.2706-.0986-1.921-3.0992-1.9327-3,0Z"/><path class="cls-4" d="M491.7038,133.19c-4.0717-4.5314-7.414-7.8192-6.9921-14.3591.3292-5.1027.86-10.201,1.2891-15.2964.4-4.7451,1.2806-9.711,1.1715-14.4714-.0464-2.028-.37-4.561-1.9918-6.0012-4.1908-3.7224-8.5366,2.6313-10.6137,5.5593a45.3185,45.3185,0,0,0-5.5335,10.5861c-.7271,1.9768-.8981,4.5156-1.7985,6.3677-1.95,4.0116-4.5106,3.4061-7.69,1.7268a179.03,179.03,0,0,1-44.3033-32.9093c-3.4119-3.4882-6.7582-7.2065-7.7679-12.14-1.0565-5.1623.09-10.8445.5905-16.0153L411.0249,15.64a1.5153,1.5153,0,0,0-1.8988-1.4464A28.35,28.35,0,0,0,392.088,25.0145a26.4569,26.4569,0,0,0-2.6319,4.37,14.2461,14.2461,0,0,1-.7152,1.6463c-1.2836,1.4356-4.5432,1.7979-6.4346,1.3169-4.9586-1.2608-10.2863-5.0831-14.8847-7.3575-8.3028-4.1069-15.0786-8.0564-19.7731-16.3246C344.69,3.4545,341.774-2.1525,335.46-3.5426c-1.8815-.4143-2.6852,2.4772-.7975,2.8928,7.6023,1.6738,9.7007,10.9976,13.9781,16.4581,5.7309,7.3162,15.3236,10.8117,23.3959,14.8019,4.0953,2.0243,8.8108,5.4224,13.2828,6.4145,2.4044.5334,4.0582-.5054,5.2105-2.5607,2.1231-3.787,3.3337-7.5121,6.5622-10.6624a25.7274,25.7274,0,0,1,12.8317-6.7154L408.0249,15.64,405.6194,40.5c-.6791,7.0183-2.3041,14.6506-1.1721,21.6749.9872,6.1256,5.06,10.7044,9.2882,14.9565a180.98,180.98,0,0,0,16.9532,15.02,186.6868,186.6868,0,0,0,16.7507,11.6831q4.82,2.9783,9.8226,5.6473c2.11,1.1275,4.6816,2.9889,7.1714,3.1308,5.1238.2921,5.4622-5.8873,6.4709-9.4582a42.2188,42.2188,0,0,1,4.441-10.2475c.9606-1.5983,2.1537-3.9377,3.5957-5.092,1.6049-1.2849.1908-1.3983,3.0727-.9258,2.4487.4014,2.1486.5553,2.1368,2.7179-.0491,9.0442-1.5313,18.2955-2.2777,27.3123-.27,3.26-.7087,6.5348.6844,9.6024,1.523,3.3534,4.605,6.0965,7.0252,8.79,1.2932,1.4392,3.4092-.6881,2.1214-2.1213Z"/><path class="cls-4" d="M497.2843,5.7083c30.83,17.3459,48.9851,50.9958,64.1066,81.65,8.4185,17.0661,16.4034,34.3518,24.5479,51.55,8.2723,17.4676,17.3322,34.7882,24.3451,52.8109,7.8827,20.2582,10.5264,41.6919,12.3586,63.2135l1.8988-1.4464a125.1175,125.1175,0,0,1-55.6855-42.9927c-15.7682-21.77-21.7367-47.3839-26.9085-73.308a1.5107,1.5107,0,0,0-2.2035-.8964,25.7913,25.7913,0,0,0-12.123,24.4949l1.8988-1.4464c-15.7268-3.3426-27.3559-14.6321-37.8158-26.1476-1.301-1.4322-3.4175.6943-2.1214,2.1213,10.7955,11.885,22.9224,23.4723,39.14,26.9192a1.5153,1.5153,0,0,0,1.8987-1.4465A22.7992,22.7992,0,0,1,541.258,138.88l-2.2035-.8965c5.4376,27.2568,11.904,53.96,29.0306,76.4739a128.6121,128.6121,0,0,0,55.6587,41.9221,1.5065,1.5065,0,0,0,1.8987-1.4464c-1.61-18.9147-3.6485-37.9957-9.6193-56.1115-6.0885-18.4731-15.4066-35.9034-23.712-53.441-16.5334-34.9118-31.4028-71.7927-53.5684-103.6252-10.6884-15.35-23.5-29.3853-39.9444-38.6372-1.6846-.9479-3.1986,1.6426-1.5141,2.59Z"/><path class="cls-4" d="M656.3,2.7885a619.6977,619.6977,0,0,1,41.8524,56.8454c6.4148,9.859,9.3335,20.522,12.2825,31.78l4.6971,17.9317,2.225,8.494c.787,3.0046,3.4122,8.9951.8354,11.7237l2.3559.3036c-8.8153-11.5846-22.2065-17.2508-33.2817-26.2064a53.1458,53.1458,0,0,1-19.7036-42.6671,1.5151,1.5151,0,0,0-2.5607-1.0606,54.6442,54.6442,0,0,0-10.4659,18.8441l1.8452-1.0476A71.1078,71.1078,0,0,1,623.5739,55.726c-5.5541-6.6767-6.8945-12.5242-5.6052-21.0688.8371-5.5479,1.7741-10.8457-.1068-16.2926a1.5189,1.5189,0,0,0-2.2035-.8964A31.0224,31.0224,0,0,0,603.55,30.782c-.4949,1.0662-.9407,3.7245-1.6589,4.462-2.1771,2.2356-5.0426.117-6.8739-1.0939q-5.5136-3.6459-11.094-7.1894Q561.5992,12.7851,538.2755.29c-1.7-.9139-3.2173,1.6751-1.5142,2.59Q562.55,16.7392,587.18,32.6071c3.5378,2.286,7.3063,5.7086,11.2486,7.2,1.9439.7353,3.7273.5992,5.1729-1.019,2.0391-2.2824,2.3074-6.3945,3.8909-9.0756a28.0721,28.0721,0,0,1,9.68-9.6536l-2.2035-.8965c2.6608,7.7055-.95,15.22-.6979,23.0237.2,6.203,3.3092,11.02,7.1814,15.6615a74.0839,74.0839,0,0,0,34.1312,22.7752,1.5249,1.5249,0,0,0,1.8452-1.0477,50.7415,50.7415,0,0,1,9.6943-17.52l-2.5606-1.0607a55.9905,55.9905,0,0,0,16.0452,40.7326c11.3229,11.3251,27.5045,16.717,37.35,29.6551a1.5239,1.5239,0,0,0,2.3558.3036c3.0015-3.1784,1.9184-7.0033.925-10.8675-1.7-6.614-3.4611-13.2131-5.1915-19.8193-3.25-12.4087-5.5669-25.676-11.77-37.0341-6.0388-11.0577-14.1492-21.2282-21.4893-31.4412C674.9827,21.6631,666.95,10.9713,658.421.6672c-1.2321-1.4885-3.3441.6441-2.1213,2.1213Z"/><path class="cls-4" d="M651.7838,13.4013c-.3985,8.84.7514,17.7658-.2939,26.5744-1.0783,9.0867-4.8752,17.4983-8.63,25.7395-.7947,1.7439,1.79,3.27,2.59,1.5141,3.6581-8.0284,7.3784-16.1845,8.738-24.9744,1.4769-9.5484.1627-19.2489.5957-28.8536.087-1.93-2.9132-1.9259-3,0Z"/><path class="cls-4" d="M686.704,59.6748a79.29,79.29,0,0,1,2.1888,37.3681c-.3418,1.8876,2.5489,2.6974,2.8928.7975a82.636,82.636,0,0,0-2.1888-38.9631c-.5574-1.8431-3.4539-1.0576-2.8928.7975Z"/><path class="cls-4" d="M577.4736,121.8242a138.1447,138.1447,0,0,1,9.64,52.4383,1.5009,1.5009,0,0,0,3,0,140.3689,140.3689,0,0,0-9.7475-53.2358c-.6988-1.7762-3.6011-1.0027-2.8929.7975Z"/><path class="cls-4" d="M509.273,37.7165c6.7364,31.5454,13.4518,64.5474,4.3254,96.329a1.5013,1.5013,0,0,0,2.8928.7976c9.2747-32.2981,2.5216-65.8607-4.3254-97.9241-.4029-1.887-3.2955-1.0885-2.8928.7975Z"/><path class="cls-4" d="M457.4176,9.7714a454.97,454.97,0,0,1-8.7113,48.8436c-.441,1.8778,2.4509,2.6792,2.8929.7975a462.31,462.31,0,0,0,8.8184-49.6411c.2337-1.912-2.7683-1.8951-3,0Z"/><path class="cls-4" d="M439.7953,211.0669a348.2045,348.2045,0,0,1-1.551,51.1294c-.2,1.9183,2.8016,1.9042,3,0a348.2045,348.2045,0,0,0,1.551-51.1294c-.083-1.9231-3.0835-1.9335-3,0Z"/><path class="cls-4" d="M388.1281,121.97q-7.7922,20.7819-14.0775,42.08c-3.7331,12.72-6.4624,26.3638-15.132,36.826-1.2231,1.4761.8879,3.61,2.1213,2.1213,8.2337-9.9362,11.3473-22.2917,14.8294-34.4429q6.6462-23.1933,15.1517-45.7865c.6786-1.81-2.22-2.5917-2.8929-.7975Z"/><path class="cls-4" d="M332.1494,78.1073c-9.16,7.08-14.8145,18.3745-20.1522,28.3892a256.11,256.11,0,0,0-15.1818,34.544c-.6492,1.822,2.2484,2.6062,2.8929.7975a250.7727,250.7727,0,0,1,14.8793-33.8274c5.2224-9.7984,10.7363-20.8662,19.6831-27.7819,1.5253-1.1791-.6119-3.2881-2.1213-2.1214Z"/><path class="cls-4" d="M289.6632,13.3081,224.7955,51.5817a1.5011,1.5011,0,0,0,1.5142,2.59l64.8677-38.2736a1.5011,1.5011,0,0,0-1.5142-2.59Z"/><path class="cls-4" d="M17.2633,337.6809C11.5923,347.5935,5.13,357.304-5.6356,362.14c-1.7581.79-.2343,3.3758,1.5142,2.59,11.2057-5.0334,18.0687-15.211,23.9751-25.5353a1.5011,1.5011,0,0,0-2.59-1.5141Z"/><path class="cls-4" d="M111.9544,173.4424a102.8551,102.8551,0,0,1-15.7179-32.0666,99.3114,99.3114,0,0,1-3.3929-17.8185c-.4319-4.53-.3856-7.9485,3.4321-11.1565,2.3345-1.9616,5.2648-3.4438,7.7828-5.1754C120.94,95.6168,144.4247,81.4435,141.74,57.8767a1.52,1.52,0,0,0-2.2571-1.2952L93.8976,83.059l2.2035.8965A282.1742,282.1742,0,0,0,88.1316,47.849a1.5131,1.5131,0,0,0-2.8929,0c-5.7811,18.2228-5.7751,37.3154-6.245,56.2369A322.9979,322.9979,0,0,1,71.6313,164.21C67.45,183.6536,62.13,202.8241,57.3664,222.1273,52.4705,241.9657,49.14,262.0507,45.1222,282.07a82.8948,82.8948,0,0,1-11.05,28.7552c-5.6368,8.98-11.5864,17.6069-16.8085,26.8561a1.5011,1.5011,0,0,0,2.59,1.5141c4.7041-8.3317,9.8659-16.2044,15.1-24.2016,4.3838-6.6985,8.2971-13.7147,10.6043-21.42,2.905-9.7019,4.257-20,6.0808-29.9474,1.8761-10.2333,3.8216-20.4466,6.1851-30.58,9.0269-38.704,21.5248-76.95,23.7254-116.8929,1.2462-22.6194-.3623-45.6148,6.5827-67.5062H85.2387a282.1575,282.1575,0,0,1,7.97,36.1065,1.5116,1.5116,0,0,0,2.2035.8965L140.997,59.1719,138.74,57.8767c1.6826,14.7695-7.0849,24.3112-17.7924,33q-8.1978,6.6522-16.8664,12.6938c-4.0352,2.8126-10.0734,5.3175-13.0539,9.3192-2.8067,3.7681-1.3568,9.75-.8066,14.0219a103.5109,103.5109,0,0,0,3.3547,16.0733,105.4712,105.4712,0,0,0,15.7887,31.9717c1.121,1.55,3.7248.0539,2.59-1.5142Z"/><path class="cls-4" d="M230.3915,282.7363a113.4357,113.4357,0,0,1-23.1081,44.8429c-1.2363,1.4678.8754,3.6005,2.1213,2.1213a116.8757,116.8757,0,0,0,23.88-46.1667c.4839-1.87-2.4088-2.6682-2.8929-.7975Z"/><path class="cls-4" d="M212.4926,192.0673c-14.3733,18.9646-20.67,42.7191-35.6463,61.2791-1.2016,1.4891.9083,3.6247,2.1213,2.1213,15.1516-18.7769,21.5845-42.7136,36.1155-61.8862,1.166-1.5386-1.4378-3.035-2.59-1.5142Z"/><path class="cls-4" d="M191.9009,108.7294a198.0956,198.0956,0,0,1-71.28,35.846,1.5013,1.5013,0,0,0,.7976,2.8928,201.7192,201.7192,0,0,0,72.604-36.6175c1.5135-1.197-.6222-3.307-2.1213-2.1213Z"/><path class="cls-4" d="M155.892,21.6056c-14.0841,8.94-26.8414,20.3116-42.7467,26.0093-1.8043.6464-1.0264,3.5462.7975,2.8928,16.19-5.8,29.129-17.213,43.4634-26.3117,1.6256-1.0318.1223-3.6291-1.5142-2.59Z"/></g><path class="cls-7" d="M886.5857,90.49l1.3184-13.0066a4.8644,4.8644,0,0,0-9.6793-.9811L876.9065,89.51c-.4839,4.7737-.9846,9.71-2.3654,14.142-.9842,3.1583-2.9129,7.5159-6.5117,10.3414-3.266,2.5636-7.8057,3.7379-11.3957,4.4745a86.3035,86.3035,0,0,1-13.5,1.6694c-.1615-1.0954-.3677-2.1962-.641-3.295a4.8672,4.8672,0,0,0,.1682-1.4273q-.1149-3.717-.185-7.4531c.1555-.0255.3112-.0561.4665-.0973a26.2313,26.2313,0,0,0,4.268-1.6243c4.4694-2.0588,10.16-5.0512,14.5287-9.9567,4.8061-5.396,7.0074-12.3293,5.8885-18.5465a4.8642,4.8642,0,1,0-9.5747,1.7228c.5938,3.3-.7439,7.17-3.5786,10.3531-3.1723,3.5618-7.7237,5.9278-11.3339,7.5907-.26.12-.5253.239-.7911.3556-.0363-7.2892.0391-14.5844.235-21.8239a4.8642,4.8642,0,0,0-9.7249-.2628c-.29,10.728-.3248,21.5761-.1127,32.35a33.6557,33.6557,0,0,0-9.9874,2.4767l-14.5582,5.3576A232.4571,232.4571,0,0,1,807.9,75.25a4.8645,4.8645,0,0,0-9.6976-.78q-.7136,8.8686-.7675,17.8c-2.4969-.347-4.9986-.7619-7.46-1.2447a19.0184,19.0184,0,0,1-6.1551-1.9726,11.8386,11.8386,0,0,1-4.46-6.0839,42.3,42.3,0,0,1-1.88-9.5608A4.8644,4.8644,0,1,0,767.816,74.54,50.0812,50.0812,0,0,0,770.2266,86.32,21.2113,21.2113,0,0,0,778.69,97.3192a27.4561,27.4561,0,0,0,9.412,3.2527c3.1227.6124,6.3051,1.1243,9.4682,1.5308q.1386,4.0664.4142,8.1237a4.8848,4.8848,0,0,0-1.4813-.1333,46.3443,46.3443,0,0,1-27.3406-6.8734c-4.0888-2.55-6.8566-5.2237-8.4613-8.1737a34.5835,34.5835,0,0,1-2.6244-7.5809L755.18,76.5527a4.8644,4.8644,0,0,0-9.4031,2.4961l2.8971,10.9128a43.0431,43.0431,0,0,0,3.4814,9.7331c2.4286,4.4643,6.3077,8.3175,11.8593,11.78a56.2428,56.2428,0,0,0,29.58,8.4416q1.77,0,3.5406-.1146a4.8929,4.8929,0,0,0,.5127-.0614L783.02,125.1238c-5.1209,1.8846-12.8595,4.7329-16.7519,11.5727-2.2387,3.9339-2.771,9.7974,1.3507,13.3756a11.9784,11.9784,0,0,0,5.4549,2.4423c5.42,1.2487,11.0246,2.54,16.9333,2.7.7132.0193,1.4207.0231,2.1044.0269,2.6387.014,5.131.0273,6.743.946a2.3094,2.3094,0,0,1,.3461.2331,10.5948,10.5948,0,0,1-.01,2.0052c-.3445,5.1573-.6267,12.4408-.9,19.4839-.27,6.9767-.55,14.1908-.8857,19.2125a4.8644,4.8644,0,0,0,4.5292,5.1779c.1106.0073.22.0111.3291.0111a4.8652,4.8652,0,0,0,4.8488-4.54c.3445-5.1572.6267-12.4407.9-19.4839.27-6.9766.55-14.1908.8858-19.2122.1209-1.8083.3233-4.8342-1.2959-7.5938a10.4255,10.4255,0,0,0-3.93-3.7461c-3.8272-2.1811-7.9074-2.2026-11.5075-2.2219-.661-.0035-1.2852-.0067-1.8922-.0231-4.9369-.1343-10.0593-1.3143-15.0133-2.4556-.2571-.0593-.6558-.1511-.9678-.2423a3.5245,3.5245,0,0,1,.4336-1.2839c1.97-3.4626,6.6381-5.4071,11.6563-7.254l39.74-14.625a28.5373,28.5373,0,0,1,6.5222-1.85c1.1176,3.3436,1.2547,7.2506,1.3877,11.0413.3588,10.2107.3427,21.0154.3272,31.4642-.0155,10.5366-.0317,21.4316.3328,31.82a4.8645,4.8645,0,1,0,9.723-.3414c-.3588-10.2106-.3427-21.0154-.3272-31.4642.0149-10.0775.0265-20.4779-.2912-30.4546a96.0542,96.0542,0,0,0,14.7946-1.846c4.6366-.9513,10.5824-2.5332,15.448-6.3524,4.4061-3.4592,7.7921-8.68,9.7927-15.0994A80.3111,80.3111,0,0,0,886.5857,90.49Z"/><path class="cls-8" d="M818.6645,137.59a4.8644,4.8644,0,1,0-4.8644,4.8643A4.9492,4.9492,0,0,0,818.6645,137.59Z"/><path class="cls-8" d="M881.0837,94.617,882.402,81.61a4.8644,4.8644,0,1,0-9.6792-.9811l-1.3184,13.007c-.4839,4.7738-.9846,9.71-2.3653,14.142-.9843,3.1584-2.9129,7.516-6.5118,10.3415-3.266,2.5636-7.8057,3.7378-11.3957,4.4745a86.3138,86.3138,0,0,1-13.5,1.6693c-.1615-1.0953-.3676-2.1962-.6409-3.295a4.8669,4.8669,0,0,0,.1681-1.4272q-.1149-3.7172-.1849-7.4531c.1555-.0256.3111-.0561.4665-.0974a26.2257,26.2257,0,0,0,4.268-1.6243c4.4694-2.0588,10.16-5.0512,14.5287-9.9567,4.806-5.396,7.0073-12.3293,5.8885-18.5465a4.8643,4.8643,0,0,0-9.5748,1.7228c.5938,3.3-.7439,7.1705-3.5786,10.3532-3.1722,3.5618-7.7237,5.9277-11.3339,7.5907-.26.12-.5252.239-.7911.3555-.0362-7.2892.0391-14.5843.235-21.8238a4.8642,4.8642,0,1,0-9.7249-.2629c-.29,10.7281-.3247,21.5762-.1127,32.35a33.6534,33.6534,0,0,0-9.9874,2.4766l-14.5581,5.3577a232.4475,232.4475,0,0,1-.3018-40.6066,4.8645,4.8645,0,1,0-9.6977-.78q-.7134,8.8686-.7675,17.8c-2.4969-.347-4.9986-.7619-7.46-1.2446a19.0191,19.0191,0,0,1-6.1552-1.9727,11.8387,11.8387,0,0,1-4.46-6.0839,42.3041,42.3041,0,0,1-1.88-9.5608,4.8644,4.8644,0,0,0-9.6628,1.1318,50.0763,50.0763,0,0,0,2.4107,11.7808,21.21,21.21,0,0,0,8.4638,10.9989,27.4528,27.4528,0,0,0,9.4119,3.2527c3.1227.6124,6.3051,1.1244,9.4682,1.5308q.1387,4.0665.4142,8.1238a4.8782,4.8782,0,0,0-1.4813-.1333,46.3452,46.3452,0,0,1-27.3406-6.8734c-4.0887-2.55-6.8566-5.2238-8.4613-8.1738a34.5912,34.5912,0,0,1-2.6244-7.5808l-2.897-10.9125a4.8644,4.8644,0,1,0-9.4031,2.4962l2.897,10.9127a43.0511,43.0511,0,0,0,3.4814,9.7331c2.4287,4.4644,6.3078,8.3175,11.8593,11.78a56.244,56.244,0,0,0,29.58,8.4416c1.18,0,2.3625-.038,3.5405-.1147a4.8948,4.8948,0,0,0,.5128-.0614L777.5175,129.25c-5.1208,1.8846-12.8594,4.7329-16.7518,11.5727-2.2387,3.9339-2.7711,9.7974,1.3506,13.3757a11.98,11.98,0,0,0,5.455,2.4423c5.42,1.2487,11.0245,2.54,16.9333,2.7.7132.0193,1.4206.0231,2.1044.0269,2.6386.0139,5.131.0272,6.7429.9459a2.3117,2.3117,0,0,1,.3461.2331,10.5956,10.5956,0,0,1-.01,2.0053c-.3446,5.1572-.6267,12.4407-.9,19.4839-.2705,6.9766-.55,14.1908-.8858,19.2125a4.8644,4.8644,0,0,0,4.5293,5.1778q.1658.0109.329.0111a4.865,4.865,0,0,0,4.8488-4.54c.3446-5.1573.6267-12.4408.9-19.4839.27-6.9767.55-14.1908.8858-19.2122.121-1.8083.3233-4.8343-1.2959-7.5939a10.4248,10.4248,0,0,0-3.93-3.7461c-3.8272-2.181-7.9074-2.2026-11.5075-2.2219-.6609-.0035-1.2851-.0066-1.8922-.0231-4.9368-.1343-10.0593-1.3143-15.0132-2.4556-.2572-.0592-.6559-.1511-.9678-.2423a3.5243,3.5243,0,0,1,.4335-1.2838c1.9705-3.4627,6.6381-5.4072,11.6564-7.2541l39.74-14.6249a28.54,28.54,0,0,1,6.5222-1.85c1.1176,3.3436,1.2547,7.2506,1.3877,11.0414.3588,10.2106.3426,21.0154.3271,31.4642-.0155,10.5365-.0316,21.4315.3329,31.82a4.8644,4.8644,0,1,0,9.7229-.3414c-.3588-10.2107-.3426-21.0154-.3271-31.4642.0149-10.0775.0264-20.478-.2912-30.4547a96.0528,96.0528,0,0,0,14.7945-1.8459c4.6367-.9514,10.5825-2.5332,15.4481-6.3525,4.4061-3.4592,7.7921-8.68,9.7926-15.0993A80.3055,80.3055,0,0,0,881.0837,94.617Z"/><path class="cls-8" d="M864.0954,234.7792c-1.2292.0373-2.4584.1159-3.6875.1122-.6986-.002-1.6754.28-1.7844-.8239a1.736,1.736,0,0,1,1.4365-2.0015c1.0115-.11,2.0854.4339,3.114.375a3.6049,3.6049,0,0,0,3.2446-2.1581c.5626-1.3585-.6292-1.8229-1.6141-2.3009-2.2683-1.1007-1.7162-2.3908-.3558-3.9079,1.2661-1.4122,2.1427-3.2546,1.4466-5.0469-.8525-2.1952-2.9078-.7824-4.4636-.9208-1.4879-.1324-2.9993-.8492-4.4173-.666-1.2243.1583-3.4679-1.19-3.6485,1.3688-.1913,2.7051,2.1416,1.6366,3.2194,1.4945,1.789-.2359,3.3168.2115,3.5824,1.7519.3224,1.8714-1.3716,1.736-2.8434,1.8662-1.95.1727-4.1994.7686-1.5762,3.2872,1.855,1.7809.2984,3.0874-.5245,4.4168-3.4607,5.59-3.08,6.3718,3.5465,6.8567,1.0723.0785,2.1492.0957,4.227.1838-.2307.0079.5373-.008,1.304-.0473,1.3093-.0674,2.9335.3919,2.7577-1.92C866.9041,234.6636,865.5205,234.7361,864.0954,234.7792Z"/><path class="cls-8" d="M827.1143,228.4261a21.3254,21.3254,0,0,1-3.6679-.4078c-1.57-.3466-4.0833,1.151-4.3926-1.8427-.2905-2.8136,1.931-2.6519,3.7688-2.7029,1.2813-.0354,2-.393,1.8949-1.87-.1045-1.4682-1.1358-1.1211-1.9646-1.1575-.7667-.0337-1.5383.04-2.3076.0716-5.5988.1975-6.55,1.3386-5.745,7.0243.3226,2.2789,1.03,4.5417,1.0487,6.8159.0262,3.2007,1.3363,5.0357,4.4972,5.2221,2.3414.138,5.79,2.5256,6.7958-.6278,1.2379-3.8826-3.1229-2.5138-5.023-3.4191-.8765-.4175-1.8166-.6915-1.8118-1.7631.0055-1.2841,1.1344-1.2511,2.0278-1.2893,1.5373-.0659,3.0785-.0578,4.6181-.06,1.243-.002,2.0784-.3878,2.0179-1.8407C828.8219,229.3964,828.5739,228.4887,827.1143,228.4261Z"/><path class="cls-8" d="M798.9961,221.6638c-3.58.7164-2.8474,3.0717-2.6882,5.4327a35.8884,35.8884,0,0,1-.1875,3.9849c.3471,2.454.783,5.2275,1.1169,8.0134.2018,1.6829.6094,3.1319,2.7107,2.8349,2.185-.3088,1.44-2.1527,1.2983-3.298-.3683-2.9834.2353-4.7466,3.7455-4.67a4.0187,4.0187,0,0,0,3.9959-2.43c1.2-3.1346.4855-5.9947-1.591-8.6016C804.9506,219.8592,802.0512,221.0526,798.9961,221.6638Zm3.85,8.7087c-1.2-.0393-2.9395.6951-2.616-1.7905.2177-1.6744-.0418-3.63,2.3508-3.7165,1.9855-.0713,2.1541,1.8237,2.7778,3.0034C805.5791,229.9131,804.4227,230.4241,802.8465,230.3725Z"/><path class="cls-8" d="M878.1635,218.0777c-4.1535.437-4.2538,3.751-4.39,6.543.1682,5.2219,3.4722,8.3015,8.3783,8.1624,3.6373-.1033,5.891-2.765,5.7807-6.8272C887.835,222.3685,882.1957,217.6534,878.1635,218.0777Zm3.4992,10.4336c-2.4389.0513-3.6-1.4828-3.91-3.6942-.1917-1.3653.3189-2.7155,1.9182-2.446a5.39,5.39,0,0,1,4.2721,3.6348C883.8787,227.598,883.0885,228.4812,881.6627,228.5113Z"/><path class="cls-8" d="M896.3127,217.452c-4.1535.437-4.2536,3.751-4.39,6.5431.1681,5.2219,3.4722,8.3015,8.3783,8.1623,3.6373-.1032,5.891-2.7649,5.7806-6.8272C905.9844,221.7428,900.3451,217.0278,896.3127,217.452Zm3.4993,10.4336c-2.4389.0513-3.6-1.4827-3.91-3.6941-.1917-1.3653.3189-2.7155,1.9182-2.446a5.39,5.39,0,0,1,4.2721,3.6347C902.0281,226.9724,901.2378,227.8556,899.812,227.8856Z"/><path class="cls-8" d="M741.0561,218.2237c-1.5009-.1687-3.2347.4508-3.2706,1.8288-.0374,1.4252,1.8151,1.6092,3.1681,1.8336,6.8036,1.1286,6.799,1.1441,6.876,7.99a9.3733,9.3733,0,0,0,.1241,2.7567c.6749,2.0323-1.76,5.9059,2.1174,5.8748,4.1584-.0333,1.507-3.7794,1.8075-5.8223.659-4.48-1.845-10.1933,5.1188-11.9933.2891-.0747.4212-.7578.6579-1.219C752.198,217.2482,746.5416,218.8405,741.0561,218.2237Z"/><path class="cls-8" d="M840.5829,223.4427c-.0166-1.1251-.082-2.2651-1.5255-2.3313-1.1171-.0513-2.1981.3594-2.3683,1.6589a40.2768,40.2768,0,0,0-.3782,10.4818,2.3874,2.3874,0,0,0,2.3771,2.326c1.697.0486,1.8873-1.2608,1.8886-2.53.0016-1.6757-.1009-3.3516-.1587-5.0275l.315-.0111C840.68,226.4875,840.6052,224.9655,840.5829,223.4427Z"/><path class="cls-8" d="M788.1942,227.4879c-1.6782-1.7518,2.2347-6.226-2.497-5.9238-3.729.2383-1.7528,4.191-1.6825,6.3272.0641,1.9463-1.7,5.9485,2.3205,5.644C790.4343,233.2248,787.0715,229.5252,788.1942,227.4879Z"/><path class="cls-8" d="M771.5533,221.6407c-1.0337-2.1924-4.1489-1.6047-5.2269.9781-1.59,3.8093-2.8917,7.7386-4.3227,11.6145-.3881,1.0509-.67,2.07.5721,2.7749,1.0114.5738,1.7-.0008,2.4192-.6394,3.2041-2.8459,6.09-2.5112,8.1992,1.2127.8579,1.5146,1.8688,1.3835,3.0371,1.04a1.7942,1.7942,0,0,0,1.4664-2.1086C775.6769,231.5428,773.8379,226.4867,771.5533,221.6407Zm-4.1229,8.247,1.4863-3.9449,1.2964-.0448,1.151,5.1521Z"/></svg>