<svg id="圖層_1" data-name="圖層 1" xmlns="http://www.w3.org/2000/svg" viewBox="0 0 673.5157 392.0685"><defs><style>.cls-1{fill:#f2f2f2;}.cls-2{opacity:0.56;}.cls-3{fill:#343170;}.cls-4{fill:#ccc;}</style></defs><title>land</title><path class="cls-1" d="M94.4886,138.67c3.9173,2.8385,3.9734,6.2347,1.6294,9.7773-2.403,3.6316-5.8006,4.5119-9.6158,2.3168-3.6851-2.12-5.5429-5.4436-2.9457-9.2363C86.1744,137.7045,90.3471,137.3916,94.4886,138.67Z"/><path class="cls-1" d="M57.3952,22.9891c3.4793,2.5123,3.2344,5.6127,1.2154,8.7052-2.7926,4.2773-6.5751,4.5439-10.7656,2.0813C44.5978,31.8673,42.69,29.34,45.11,25.662,48.2732,20.8566,52.8956,21.9848,57.3952,22.9891Z"/><path class="cls-1" d="M30.9383,180.0236c3.5456,3.77,2.6519,6.9409.3461,9.5806-2.9163,3.3384-7.0259,5.3476-10.9319,2.4814-2.5912-1.9013-3.8468-6.0937-1.3226-8.92C22.2818,179.5245,27.0223,179.7827,30.9383,180.0236Z"/><path class="cls-1" d="M63.8414,261.7581c-3.0016-3.377-6.6062-7.2594-4.656-11.91,1.7175-4.0954,6.3271-3.4,9.7718-1.5483,4.7573,2.5576,4.0194,6.9155,2.27,10.8741C69.9116,262.15,67.2527,263.2516,63.8414,261.7581Z"/><path class="cls-1" d="M102.5833,89.4175c-3.21,2.7984-6.9563,3.7983-10.5049,1.6826-3.9359-2.3466-3.9128-6.6882-2.0167-10.1245,2.2065-3.9989,6.4858-4.0627,9.8769-1.7363C103.3386,81.5718,103.96,85.4164,102.5833,89.4175Z"/><path class="cls-1" d="M99.2951,109.2178c3.7049,2.9909,4.1826,6.9447,2.4263,11.14-1.3127,3.1356-4.0057,4.6187-7.07,2.4952-3.9092-2.7094-7.3065-6.1814-4.4559-11.4822C92.1821,107.6774,95.75,108.3777,99.2951,109.2178Z"/><path class="cls-1" d="M28.1735,161.0818c-3.0478,3.2139-11.0472,2.734-11.0472,2.734s-4.4783-5.1688-2.3539-8.2789c2.5753-3.77,10.9812-2.9331,10.9812-2.9331S29.72,157.4729,28.1735,161.0818Z"/><path class="cls-1" d="M57.8436,212.9749c-2.1726,3.2572-5.0207,3.2737-7.7992,1.7507C45.4988,212.2338,45.4906,203.3,45.4906,203.3s6.07-3.0479,8.903-1.3628C58.5324,204.4,57.9214,209.0054,57.8436,212.9749Z"/><path class="cls-1" d="M109.5189,179.8775c-3.4152,4.5977-7.1215,5.1557-11.1153,2.323-3-2.1278-4.5355-5.4343-1.9478-8.474,3.0011-3.5252,11.47-1.7251,11.47-1.7251S110.6226,177.2962,109.5189,179.8775Z"/><path class="cls-1" d="M38.8306,10.3328c-2.51,4.311-7.0073,3.8551-10.18,2.8927-5.1035-1.548-3.0172-6.478-1.8593-9.6012C28.1293.0154,32.341-.7,35.4686.5929,39.6314,2.3138,39.4673,6.49,38.8306,10.3328Z"/><path class="cls-1" d="M57.3349,104.0917c-2.9658,1.9839-5.9248,5.5321-9.8231,3.123-3.5613-2.2009-3.9613-6.4282-2.0846-9.9637,2.2245-4.1908,6.0514-3.8614,9.6087-1.6277C58.1912,97.6045,59.5836,100.3734,57.3349,104.0917Z"/><path class="cls-1" d="M7.3127,104.1984c-3.26,3.7441-6.69,5.2762-10.0778,2.0413-2.79-2.6638-4.3391-6.8607-1.3956-10.0182,2.7812-2.9836,7.1948-2.1342,10.4313-.2229C10.0735,98.2443,8.3062,101.6686,7.3127,104.1984Z"/><path class="cls-1" d="M39.6785,300.4306c-3.56,2.7931-7.1845,4.68-10.6332,2.0465a6.478,6.478,0,0,1-1.4012-9.0186c1.9589-2.7594,5.1179-4.9248,8.5662-2.4234C39.3508,293.3132,41.0568,296.6006,39.6785,300.4306Z"/><path class="cls-1" d="M54.01,55.7131c-2.9667,4.0879-6.9059,4.038-10.9643,1.7575-3.23-1.8153-3.4007-4.7013-1.2549-7.5023,3.1071-4.0559,7.594-3.8719,11.5229-2.2266C57.2222,49.3786,54.553,52.773,54.01,55.7131Z"/><path class="cls-1" d="M4.2391,189.88a9.2692,9.2692,0,0,1-10.7143,3.7529c-3.8093-1.1124-3.3567-4.1922-1.6916-7.0919,2.3315-4.06,5.49-6.4591,10.2751-4.205C5.2118,183.7982,6.2443,186.3122,4.2391,189.88Z"/><path class="cls-1" d="M52.411,177.4531c-3.22,2.5579-6.5995,4.7812-10.3454,1.9991-3.1314-2.3257-3.7117-5.9408-.7259-8.7157,3.2433-3.0142,7.5238-4.4754,11.3186-1.0948C55.1817,171.89,54.2683,174.9862,52.411,177.4531Z"/><path class="cls-1" d="M22.1445,285.0848c-2.6833,3.3627-5.9086,3.2419-8.72.913-2.3585-1.9541-6.1057-4.3052-3.5729-8.0718,2.7985-4.1619,7.5663-3.5181,11.1966-1.6184C24.7069,278.222,22.99,282.0243,22.1445,285.0848Z"/><path class="cls-1" d="M79.084,114.8022c4.4313,2.5925,3.5648,6.1128,1.7453,8.9239-1.85,2.8585-5.016,5.1074-8.5893,2.7113a7.4746,7.4746,0,0,1-2.8155-9.0535C71.3884,112.6084,75.8634,114.9488,79.084,114.8022Z"/><path class="cls-1" d="M76.7934,56.4269c4.4314,2.5925,3.5648,6.1128,1.7454,8.9239-1.85,2.8585-5.016,5.1074-8.5893,2.7113a7.4747,7.4747,0,0,1-2.8155-9.0536C69.0979,54.2331,73.5728,56.5734,76.7934,56.4269Z"/><path class="cls-1" d="M24.3578,209.0191c3.1774,1.9229,3.6449,4.86,1.7362,7.5453-2.213,3.1137-5.41,6.0668-9.56,3.6759a6.2185,6.2185,0,0,1-2.473-8.7925C16.3738,207.6907,20.4648,207.9842,24.3578,209.0191Z"/><path class="cls-1" d="M-9.8277,38.433c-1.76-2.6639-5.068-5.2474-2.7631-8.7208,2.9861-4.5,7.5511-2.7338,11.24-1.0495,4.9853,2.2763,1.7481,5.5582.0089,8.0422C-3.43,39.6868-6.3061,41.1018-9.8277,38.433Z"/><path class="cls-1" d="M9.075,236.4264c-2.7165,3.6343-6.0062,2.2783-8.9318.96-3.1867-1.4363-5.968-4.113-4.1666-7.7711,1.9154-3.89,6.104-4.1683,9.7564-2.7121C10.1656,228.67,9.5751,232.6946,9.075,236.4264Z"/><path class="cls-1" d="M31.75,35.24c-3.4321,4.0454-7.2838,5.3648-11.5362,3.8872-3.8475-1.3369-3.1192-4.8128-1.4547-7.1541,2.048-2.8807,4.53-6.395,9.0789-4.2655C31.2314,29.2965,32.5127,32.0543,31.75,35.24Z"/><path class="cls-1" d="M3.4215,267.1778c-2.3126,3.52-5.3662,4.67-8.6809,2.469-3.2747-2.1746-3.4793-5.5626-1.5161-8.8724,1.8859-3.1794,8.3461-3.3561,8.3461-3.3561S4.1958,263.7721,3.4215,267.1778Z"/><path class="cls-1" d="M47.2518,273.7313c-2.3126,3.52-5.3662,4.67-8.6809,2.4691-3.2747-2.1746-3.4793-5.5626-1.5161-8.8725,1.8859-3.1793,4.73-5.2364,8.3461-3.3561C49.9067,266.3149,48.026,270.3257,47.2518,273.7313Z"/><path class="cls-1" d="M13.3559,3.4642c2.72,1.8174,5.0547,4.238,3.4058,7.2629-2.283,4.1881-6.98,4.8213-10.9247,3.56-3.0865-.9868-3.36-5.03-1.9444-7.5672C5.8553,3.2022,9.2968,1.6585,13.3559,3.4642Z"/><path class="cls-1" d="M122.1577,126.1957c-2.7824,3.5832-9.9455,1.77-9.9455,1.77s-3.713-4.9869-1.8734-7.6656c2.551-3.7147,10.1391-1.5339,10.1391-1.5339S124.1468,123.1323,122.1577,126.1957Z"/><path class="cls-1" d="M33.5664,100.0855c3.2318,2.2884,3.36,5.0189,1.22,7.6477-2.5,3.0712-6.09,5.3506-9.5736,2.4589-2.4421-2.0274-3.6387-6.3458-1.5974-9.1421C26.131,97.6039,30.1828,98.3474,33.5664,100.0855Z"/><path class="cls-1" d="M42.4263,143.5818c-2.3279,3.4184-5.2091,3.78-8.2989,1.1965-2.7285-2.2813-4.4979-5.8254-2.5485-8.6792,2.3273-3.4071,6.51-3.1018,9.97-.9608C45.2636,137.4366,44.5093,140.51,42.4263,143.5818Z"/><path class="cls-1" d="M-6.1435,65.4464c-2.6029-2.3363-4.5-5.8068-2.4085-8.6321,2.42-3.2684,6.6223-2.9182,10.1349-.7272,3.129,1.9517,3.1916,4.7129,1.126,7.41C.4455,66.4515-2.5169,67.4005-6.1435,65.4464Z"/><path class="cls-1" d="M1.7924,165.2387c-2.5036,2.4383-5.7314,5.168-9.3664,2.3082-2.7835-2.19-2.7764-6.1466-.5818-9.0481,2.3418-3.096,5.6981-3.0317,8.8856-1.0253C3.8443,159.4339,3.8032,162.0573,1.7924,165.2387Z"/><path class="cls-1" d="M78.7546,94.7208c-2.8629,2.4422-6.2617,4.2572-9.9,1.956-2.9688-1.8778-2.2643-5.0709-.6921-7.7108,1.8481-3.1031,4.6389-5.3038,8.1176-2.9368C79.0071,87.8847,80.8457,90.8461,78.7546,94.7208Z"/><path class="cls-1" d="M-.434,285.7114c2.9083,2.2761,4.8033,5.5714,3.084,8.736-1.6786,3.09-5.9411,3.729-9.0417,2.6977-4.012-1.3345-3.6743-5.41-2.4521-8.55C-7.3715,284.8115-4.0906,284.2709-.434,285.7114Z"/><path class="cls-1" d="M41.73,241.5567c-2.79-2.9246-2.0213-6.2486-.4149-9.1132,1.9063-3.3995,5.1892-4.073,8.4638-1.8812,2.7509,1.8414,3.5226,4.8423,1.7933,7.6214C49.3713,241.7205,45.75,242.4052,41.73,241.5567Z"/><path class="cls-1" d="M81.0672,212.3249c-2.79-2.9246-2.0213-6.2486-.4149-9.1132,1.9063-3.4,5.1892-4.0729,8.4638-1.8811,2.7509,1.8413,3.5226,4.8422,1.7933,7.6213C88.7087,212.4888,85.0873,213.1734,81.0672,212.3249Z"/><path class="cls-1" d="M88.4991,179.98c-2.4066,2.7694-5.21,4.7278-8.4094,1.6872-2.4163-2.2966-4.4578-5.5015-1.2508-8.6241,2.4619-2.3971,5.9874-3.6286,9.0885-1.7392C91.6579,173.5769,90.1605,176.9569,88.4991,179.98Z"/><path class="cls-1" d="M13.6233,87.2227C11.17,85.4538,11.32,80.2639,11.32,80.2639L21.4034,78.131l.6444,7.33S17.02,89.4025,13.6233,87.2227Z"/><path class="cls-1" d="M62.8558,158.0649c-1.9074-2.725-4.449-5.7837-1.4014-8.8652a7.27,7.27,0,0,1,9.2791-1.1977c4.1728,2.7744,1.3647,5.9248-.5016,8.5484C68.4172,159.1013,66.0176,160.7773,62.8558,158.0649Z"/><path class="cls-1" d="M26.456,248.59c2.4784,2.338,3.5709,5.0843,1.0038,7.7045-2.4065,2.4565-5.64,4.472-8.79,1.2467-2.0538-2.1031-3.6146-5.4-1.4558-7.9739C19.585,246.7416,23.1733,246.9643,26.456,248.59Z"/><path class="cls-1" d="M17.5886,126.1629c-2.6779,4.005-5.3146,6.8321-9.7179,4.6945-2.9555-1.4347-2.2965-4.044-1.0456-6.4682,2.0447-3.9627,9.4151-3.8435,9.4151-3.8435S17.8484,124.5621,17.5886,126.1629Z"/><path class="cls-1" d="M27.6362,51.3435c2.7433,1.87,4.419,4.3446,1.6674,7.1179-2.4065,2.4255-5.8731,3.642-9.1044,1.7679-3.1635-1.8347-2.5825-5.015-1.03-7.6774C21.3558,48.8014,24.4327,49.1476,27.6362,51.3435Z"/><path class="cls-1" d="M57.7225,124.311c2.9911,2.1908,2.93,4.8274.876,7.5038-1.9457,2.535-4.8267,4.16-7.45,1.8068-2.5013-2.2436-3.6958-5.85-1.2756-8.9627C52.0462,121.8635,55.0169,122.7716,57.7225,124.311Z"/><path class="cls-1" d="M40.0357,81.7948a6.0235,6.0235,0,0,1-.3232-8.04c2.5165-3.4608,5.9216-2.3254,8.808-.2453,2.02,1.4559,4.3091,3.7718,1.972,6.1157C47.7646,82.3609,43.8843,82.709,40.0357,81.7948Z"/><g class="cls-2"><path class="cls-3" d="M155.8642,382.8126a309.3255,309.3255,0,0,1,37.4832-102.8692c5.829-10.0535,11.9-19.9329,16.14-30.7953.43-1.1018-.8306-2.1211-1.8452-1.8451-10.5169,2.86-16.74,12-22.1684,20.8021-3.8478,6.2391-7.6375,12.5353-10.8625,19.124-3.2537,6.6472-6.2176,13.1558-10.5221,19.2248-8.016,11.302-15.5253,22.3874-20.93,35.23a146.8954,146.8954,0,0,0-10.2366,38.593c-.2424,1.91,2.76,1.8925,3,0,3.3563-26.4452,14.2-49.433,29.6937-70.83C173.17,299.0151,177.694,286.93,184.26,275.892c5.8917-9.9046,12.18-22.4329,24.18-25.6962l-1.8452-1.8452c-4.465,11.4391-11.1,21.7512-17.1609,32.3741a312.2521,312.2521,0,0,0-16.3181,32.9963,316.0089,316.0089,0,0,0-20.1443,68.2941c-.3333,1.888,2.5572,2.6984,2.8928.7975Z"/><path class="cls-3" d="M116.5237,387c-2.02-16.9562,4.1823-33.0846,5.8764-49.7706.8176-8.0529.6056-16.1692,1.33-24.23.79-8.796,2.2051-17.5681,3.66-26.276,2.651-15.8605,8.1521-29.7975,15.6-43.9744,6.6321-12.6231,13.4625-25.2343,16.2223-39.3676a1.514,1.514,0,0,0-2.507-1.4594,75.5948,75.5948,0,0,0-23.2675,31.1172c-2.9232,7.3448-4.4166,15.0585-8.3122,22.02-3.6561,6.5331-8.0914,12.5794-11.6575,19.1756-14.1865,26.24-20.4353,55.8166-24.5114,85.1121H91.85a283.7034,283.7034,0,0,1-6.1784-50.217c-.68-16.11-1.1979-32.6.1885-48.6825,1.4756-17.1172,6.5736-33.9986,9.7276-50.8684q4.5459-24.3145,7.6543-48.862c.1555-1.213-1.3645-1.7555-2.257-1.2952C94.47,162.78,92.2359,170.652,89.547,176.9471a218.0513,218.0513,0,0,0-9.64,26.0087c-5.565,19.6215-3.5919,40.0851-6.5862,60.1089-6.09,40.7282-5.4586,82.3917-6.8727,123.5033-.0664,1.9309,2.9337,1.9284,3,0l2.0618-59.94c.68-19.7707,1.1062-39.3266,4.1137-58.9112a228.8252,228.8252,0,0,0,2.8674-27.3679c.3234-9.9378.4115-19.788,2.5361-29.5575a158.9371,158.9371,0,0,1,8.44-25.94q2.6777-6.5872,5.5687-13.0907c1.7345-3.8929,3.4881-7.6991,7.4637-9.7491l-2.2571-1.2952q-3.4674,27.0546-8.6494,53.8478c-3.0731,15.8209-7.73,31.593-8.8748,47.7132-1.1463,16.1366-.7088,32.5973.0372,48.7453a284.11,284.11,0,0,0,6.2022,49.1212c.3067,1.3679,2.6852,1.492,2.8928,0,4.0383-29.0232,10.1515-58.394,24.209-84.3956,3.5661-6.596,8.0015-12.6426,11.6575-19.1755,3.2167-5.748,4.899-11.9031,6.9486-18.1184a73.2384,73.2384,0,0,1,24.162-34.4113l-2.5071-1.4594c-2.9262,14.9851-10.4927,28.1663-17.445,41.5648a141.3968,141.3968,0,0,0-14.6779,43.611c-1.2523,7.7654-2.4923,15.5634-3.2884,23.3914-.8507,8.3642-.6456,16.7827-1.4229,25.1485-1.5821,17.027-8.023,33.4056-5.9622,50.7008.2256,1.8936,3.2284,1.9163,3,0Z"/><path class="cls-3" d="M66.1469,387.4924c-3.9538-17.0259-3.0321-34.4538-2.8082-51.7861.22-17.0162-1.2625-32.9476-6.2344-49.2622-2.5708-8.4355-4.6285-16.69-5.1235-25.538-.4983-8.9073-.2669-17.873-.2891-26.7907-.0439-17.6711.1613-35.3636-.1686-53.0317-.2715-14.5328-1.9523-29.8207-12.1457-41.0171a1.5083,1.5083,0,0,0-2.3559.3036c-5.7077,13.1139-5.2106,28.1161-5.377,42.1474-.1959,16.5262-.052,33.06-.0411,49.587l.066,99.9566.0372,56.4111a1.5009,1.5009,0,0,0,3,0l-.0817-123.7086-.04-61.3595c-.0068-10.2793-.0453-20.5617.2575-30.8377.3057-10.377.563-21.0163,4.77-30.6821l-2.3558.3035c10.1573,11.1568,11.151,26.809,11.3,41.1779.1819,17.5769.0972,35.1606.1409,52.7384.04,16.2548-.223,31.915,4.454,47.6381,2.4955,8.3893,5.0563,16.6284,6.1392,25.35a186.8683,186.8683,0,0,1,1.07,24.766c-.17,18.222-1.2634,36.5274,2.8942,54.4314.4366,1.88,3.33,1.0841,2.8929-.7976Z"/><path class="cls-3" d="M-1.9092,193.4515c10.4434,11.8452,9.9515,28.6117,11.4727,43.4128,1.74,16.932,6.51,33.0892,9.2447,49.8157,2.8968,17.7169,3.9419,35.85,5.7233,53.7079,1.7239,17.2816,5.2559,35.4494,3.738,52.823-.168,1.9229,2.833,1.9117,3,0,.83-9.5033-.3587-18.9466-1.3013-28.3963l-2.7291-27.358c-1.7724-17.768-2.7352-35.8575-5.8573-53.4507-1.6067-9.0539-4.1432-17.9134-5.8592-26.9473a261.307,261.307,0,0,1-3.5766-27.0552C10.8068,216.3658,9.665,202.0519.2122,191.33c-1.2793-1.451-3.3944.6774-2.1214,2.1214Z"/><path class="cls-3" d="M-.7,255.19c8.9629,47.5608,7.52,96.11,5.98,144.2417-.0618,1.9311,2.9383,1.9289,3,0,1.5492-48.4139,2.9274-97.2032-6.0874-145.0392-.3571-1.895-3.249-1.0925-2.8928.7975Z"/></g><path class="cls-4" d="M-14.4867,173.7014c28.8459,5.1107,57.801.7522,86.8148.5319,22.2319-.1688,47.8853,2.3674,66.9052,14.9648a37.1494,37.1494,0,0,1,11.1195,10.948c3.5157,5.5821,4.86,12.0066,6.5179,18.2928,2.7463,10.4119,7.4782,18.9287,16.4779,25.1362,19.65,13.5538,45.2305,15.545,67.4822,22.5423,10.8613,3.4154,22.8541,7.7584,30.9074,16.2007,3.5508,3.7224,5.1884,8.66,8.5379,12.4982a24.5755,24.5755,0,0,0,10.6544,6.7639c9.7939,3.4031,20.8611,2.8486,30.9941,1.7026,13.2671-1.5,26.4362-4.0662,39.66-5.9226q23.1685-3.2523,46.4394-5.7112c14.7714-1.5664,29.4061-2.86,43.67,2.2811,12.2948,4.4317,24.0538,9.8957,36.5186,13.9624,12.45,4.0619,25.4094,8.1672,35.55,16.7968,8.7871,7.4775,14.7025,17.4353,21.8932,26.3129,7.6317,9.4222,16.8763,16.39,28.3915,20.372,15.6194,5.4014,32.52,7.8139,48.6477,11.2859l50.422,10.8548c1.8825.4053,2.6869-2.4861.7975-2.8928-29.49-6.3487-59.2246-12.0269-88.5394-19.1411-12.958-3.1447-24.4792-8.1537-33.68-18.0513-6.9608-7.4876-12.1853-16.37-18.9366-24.0333-16.489-18.7159-41.0085-22.1978-63.0547-31.1422-12.3148-4.9962-23.6188-10.55-37.1776-11.0826-14.6412-.5753-29.6017,1.95-44.1043,3.6947q-21.584,2.5963-43.0811,5.8595c-12.4353,1.891-24.8824,4.5111-37.52,4.3533a51.5721,51.5721,0,0,1-15.483-2.1811c-6.6445-2.1864-10.261-6.2479-13.68-12.1449-4.9813-8.5906-13.2219-13.9426-22.1121-17.9515-22.4581-10.1271-47.6323-11.7828-70.1873-21.5883-11.7922-5.1265-21.3724-12.5641-25.369-25.2244-3.2591-10.324-4.6478-20.8363-12.4594-28.9954-15.6953-16.3932-42.696-20.3043-64.2024-21.4861-32.7332-1.7987-65.4264,5.0752-98.0163-.6988-1.888-.3345-2.6983,2.556-.7975,2.8928Z"/></svg>