<svg id="圖層_1" data-name="圖層 1" xmlns="http://www.w3.org/2000/svg" viewBox="0 0 324.0804 303.7263"><defs><style>.cls-1{fill:#e6e6e5;}</style></defs><title>leaf-right</title><path class="cls-1" d="M237.28,20.1473c-9.188,17.1917-18.9342,34.2015-27.4415,51.742a125.0174,125.0174,0,0,0-9.1446,25.6681c-2.2971,9.6042-4.2517,19.1975-7.6158,28.5106-6.38,17.6617-13.5917,34.6155-17.7288,53.0228a351.4915,351.4915,0,0,0-7.5624,57.6391c-1.2168,21.9616-.8695,43.9734.11,65.9366a1.2672,1.2672,0,0,0,2.2368.59l32.01-45.9561c4.0222-5.7745,8.31-10.9527,6.9116-18.3652-1.7649-9.3521-4.2686-18.6239-6.4079-27.8975l-1.7284,1.3339a21.7891,21.7891,0,0,1,15.9774,21.2636,1.2664,1.2664,0,0,0,2.2387.927L235.59,212.5283c4.7689-6.3858,10.7254-12.8086,13.321-20.484,4.8989-14.4865-3.1154-29.5355-10.1762-41.7916l-.6659,1.6455c7.7693-2.5169,12.6,6.3183,14.9424,12.1463,1.9207,4.78,3.7272,9.338,7.5285,12.9507a1.27,1.27,0,0,0,1.9244-.5084l16.713-30.6947c5.2164-9.58,11.6864-19.2168,15.6493-29.389,3.4034-8.736-.1743-14.6936-5.784-21.3q-11.05-13.0139-22.1138-26.0164l-1.1539,2.0116a51.5956,51.5956,0,0,1,31.1917,17.8942,1.2663,1.2663,0,0,0,2.1512-.2813,283.49,283.49,0,0,1,23.44-55.6316c.7821-1.4136-1.5413-2.37-2.3153-.971a283.4838,283.4838,0,0,0-23.44,55.6316l2.1512-.2813a54.2675,54.2675,0,0,0-32.8581-18.85,1.2675,1.2675,0,0,0-1.1539,2.0115l19.4812,22.9192c2.9449,3.4645,6.7571,7.0535,8.5284,11.32,2.2872,5.5093-.4139,11.07-3.0065,15.9275-9.78,18.3221-19.8641,36.4885-29.7959,54.7289l1.9244-.5084c-7.5863-7.21-9.4814-30.4428-24.9839-25.4206a1.2569,1.2569,0,0,0-.6659,1.6455c7.1406,12.3947,15.6938,28.1032,9.12,42.4833-3.2935,7.2049-9.1718,13.57-13.8776,19.8716l-14.5193,19.442,2.2386.927A24.2447,24.2447,0,0,0,201.89,210.0567c-.82-.23-1.9684.2935-1.7284,1.334,1.9978,8.66,4.0861,17.3052,5.9946,25.9855.9954,4.5276.8827,7.935-1.5827,11.97-2.2045,3.6082-4.8258,7.0071-7.242,10.4759l-29.1857,41.9011,2.2368.59c-1.7219-38.6276-1.5556-77.7863,5.9707-115.8592,3.7832-19.138,10.4133-36.8478,17.3812-54.9805,6.6187-17.224,8.3752-35.8836,15.7353-52.8006,8.5986-19.7641,19.9723-38.5569,30.1258-57.5553.7622-1.4261-1.56-2.3842-2.3153-.971Z"/><path class="cls-1" d="M250.6779,30.6474c20.7345,6.0922,34.5781,24.65,54.8146,31.8395,1.5183.54,2.4948-1.7739.971-2.3153-20.2282-7.187-34.0568-25.74-54.8146-31.8395-1.5352-.4511-2.519,1.86-.971,2.3153Z"/><path class="cls-1" d="M226.2594,90.5493c5.3879,9.7314,13.05,17.6747,21.336,24.9889,9.8435,8.6895,20.0495,16.9878,30.0945,25.4425,1.2395,1.0432,2.7666-.95,1.5334-1.9878-9.34-7.8612-18.7667-15.6308-28.0014-23.6154-8.7122-7.5328-17.0247-15.6456-22.6511-25.8078-.7743-1.3985-3.0954-.4364-2.3114.98Z"/><path class="cls-1" d="M199.8305,156.0841a141.4852,141.4852,0,0,1,20.0681,32.1294c3.7917,8.4491,7.2,17.7414,15.9568,22.188,1.443.7327,2.4036-1.588.971-2.3153-9.686-4.9182-12.59-17.0574-17.0894-26.0809a144.3566,144.3566,0,0,0-17.9194-27.4548c-1.0276-1.2449-3.018.2846-1.9871,1.5336Z"/><path class="cls-1" d="M184.0226,233.1074c3.8751,3.3527,6.3,8.1318,8.9948,12.4164l8.2924,13.1851c.8607,1.3684,2.8411-.1758,1.9871-1.5336l-9.1217-14.5036c-2.5744-4.0933-4.9222-8.3534-8.6193-11.552-1.225-1.06-2.7508.9344-1.5333,1.9877Z"/><path class="cls-1" d="M1.0579,164.5109c19.2372.5173,37.7041-9.5158,48.5473-25.3146,5.6268-8.1985,8.4209-17.2344,9.48-27.0492.6719-6.2286.96-13.6187,5.0027-18.7678a3.6594,3.6594,0,0,1,6.5758,1.0864,29.447,29.447,0,0,1,.6881,4.5435l1.6057,10.6014a1.2641,1.2641,0,0,0,1.7327.9794c10.9929-6.1566,25.9206-3.4867,35.54-12.3552,11.3025-10.42,5.0885-28.0583,10.1326-41.0467l-2.3134.0043L124.4728,78.16a1.2671,1.2671,0,0,0,1.6455.6659c14.182-6.0794,28.82-12.407,40.0726-23.2822a62.2306,62.2306,0,0,0,18.6357-40.64l-1.0685,1.0825c5.4717-.0816,3.8494,12.8236,9.2006,14.7793,3.9389,1.44,8.2189-3.3451,10.9192-5.3685l17.7959-13.3347c1.295-.97-.24-2.9566-1.5336-1.987L203.6155,22.4573c-2.1125,1.5829-6.1251,5.8219-8.722,5.9144-2.0813.0741-2.7151-1.5764-3.3851-3.3171-1.6439-4.2709-2.0735-11.6444-8.1029-11.5544a1.2521,1.2521,0,0,0-1.0684,1.0826A59.857,59.857,0,0,1,162.6754,55.4c-10.8205,9.66-24.3541,15.4639-37.5367,21.1149l1.6456.6659L120.36,56.2128a1.2674,1.2674,0,0,0-2.3134.0043c-4.8757,12.5549,1.2421,31.21-10.1465,40.7327-9.4121,7.87-23.6774,5.441-34.19,11.3288l1.7327.9794L73.8373,98.6565c-.3934-2.5976-.345-5.9226-1.81-8.2275-2.2292-3.5078-6.424-2.21-8.9174.254-8.2031,8.1055-5.5543,22.9329-8.73,33.124-6.9827,22.41-29.4981,38.8465-53.0017,38.2144-1.5993-.043-1.9367,2.4461-.3207,2.4895Z"/><path class="cls-1" d="M2.8013,161.7883c4.44-27.078,17.6446-52.7145,32.4494-75.5452A288.9216,288.9216,0,0,1,117.7733,2.7076c1.3462-.8982-.1947-2.88-1.5336-1.9871A292.5305,292.5305,0,0,0,16.12,114.96c-7.226,14.779-13.1368,30.2187-15.8077,46.508-.2616,1.5952,2.2282,1.9138,2.4894.3207Z"/><path class="cls-1" d="M39.17,73.56c-.187,16.5246-7.0933,33.0954-1.7572,49.4158.5017,1.5345,2.8113.5494,2.3114-.98-5.152-15.7574,1.7544-32.139,1.9353-48.1156.018-1.5959-2.4713-1.9354-2.4895-.3206Z"/><path class="cls-1" d="M95.1768,17.3141c-7.5549,24.4571-15.2192,50.4416-8.7787,76.0387.39,1.5488,2.8807,1.2171,2.4858-.3526C82.5507,67.83,90.0631,42.3345,97.4921,18.2851c.4732-1.532-1.8387-2.5139-2.3153-.971Z"/><path class="cls-1" d="M136.6249,1.7545c4.0377,13.2308-1.592,27.782,4.8921,40.4805.73,1.43,3.0486.4641,2.3114-.98-6.414-12.5613-.8648-27.2839-4.8921-40.48-.4707-1.5426-2.78-.5547-2.3114.98Z"/></svg>