<svg id="圖層_1" data-name="圖層 1" xmlns="http://www.w3.org/2000/svg" viewBox="0 0 638.3285 303.1712"><defs><style>.cls-1{fill:#e6e6e5;}.cls-2{fill:#7a3134;}</style></defs><title>leaf-left</title><path class="cls-1" d="M306.2689,83.3215q10.3283-.636,20.6257-1.6431c1.904-.1862,1.9233-3.1881,0-3q-10.2987,1.0073-20.6257,1.6431c-1.918.1181-1.9314,3.1189,0,3Z"/><path class="cls-1" d="M343.2075,81.6424c-15.343-7.1738-45.5495-9.2377-40.1176-33.9109,1.5911-7.2269,6.2022-10.1074,13.26-10.3349,5.3733-.1733,11.475-.3,16.2293,2.5993,5.2968,3.23,7.9214,9.9145,10.3325,15.3442,2.5565,5.7573,4.7494,11.6633,6.9409,17.5664.6661,1.7942,3.5668,1.0179,2.8928-.7975-2.6-7.0041-5.2084-14.0187-8.3851-20.787-2.6832-5.7168-5.7011-11.7445-11.6373-14.65-5.3874-2.6367-11.9977-2.5768-17.8456-2.2252-5.2521.3157-9.5877,1.8511-12.4118,6.5631-5.8223,9.7143-2.3945,22.9431,6.0764,29.8592,9.4145,7.6865,22.4243,8.3477,33.1518,13.3635,1.7384.8128,3.2635-1.7725,1.5141-2.59Z"/><path class="cls-1" d="M342.5378,71.2577c-5.5227.7544-11.8462.5886-16.92-2.0056a9.1515,9.1515,0,0,1-5.2973-8.0352c-.2475-3.2981.7459-6.2224,4.7372-5.3649,9.0425,1.9429,9.8155,11.6943,15.117,17.6369,1.2879,1.4436,3.4035-.6841,2.1213-2.1214-4.7869-5.3658-5.54-13.0732-12.2713-16.8161-3.34-1.8576-10.2189-3.8008-12.2559.801-2.12,4.79-.0148,11.8689,3.9539,14.9937,5.8311,4.5913,14.6395,4.7569,21.6121,3.8044,1.9042-.26,1.0935-3.1511-.7975-2.8928Z"/><path class="cls-1" d="M348.4068,61.594a102.3244,102.3244,0,0,1,39.0567-18.3193c16.7343-3.795,33.7683-2.4468,50.5929.001,16.1992,2.3568,32.3628,4.9835,48.54,7.4887,7.8588,1.217,15.9514,1.99,23.7184,3.6917,2.7393.6,5.1447,1.6395,6.25,4.5394.6918,1.8151-.0851,4.8815-.3358,6.6959-.552,3.9945-1.1779,7.98-1.8411,11.9576-.6094,3.6548-.3422,8.6468-4.1695,10.1235-3.4374,1.3263-7.6888,1.5746-11.2872,2.49a183.3872,183.3872,0,0,0-21.16,6.7754c-12.7149,4.9367-26.09,11.0441-36.8861,19.5039-10.1482,7.952-12.8214,20.6227-15.3,32.6179-2.5542,12.3618-4.45,26.0248,2.0628,37.5372a65.7037,65.7037,0,0,0,33.1005,28.1458c14.1993,5.2059,31.0762,6.6849,46.1169,6.5532a1.5009,1.5009,0,0,0,0-3c-14.3765.1259-30.1111-1.2745-43.7737-5.9018a53.6052,53.6052,0,0,1-19.6927-11.7972c-5.9221-5.5548-12.3164-12.05-15.1576-19.8017-4.9993-13.64-.6185-30.7452,3.379-44.1712,2.2528-7.566,5.8732-14.08,12.3622-18.7754a138.5456,138.5456,0,0,1,19.496-11.34,182.13,182.13,0,0,1,43.1773-15.0718c2.4176-.5152,6.0331-.3936,7.9332-2.22,1.5616-1.5012,1.5576-4.3154,1.9052-6.2833,1.2146-6.8756,2.7314-13.9391,3.1645-20.917.3021-4.8682-1.6539-8.5243-6.4285-10.032-7.2-2.2735-15.4728-2.6074-22.9284-3.762-16.495-2.5545-32.98-5.19-49.4892-7.65-16.87-2.5134-33.9479-4.2244-50.8437-.9812a104.1942,104.1942,0,0,0-43.0758,19.3131c-1.521,1.15-.0277,3.7558,1.5142,2.59Z"/><path class="cls-1" d="M270.7893,219.5183c40.7355,1.7615,81.1156-5.53,121.81-5.47,5.1555.0077,10.313.1275,15.4609.4129,6.1986.3438,10.388,1.7122,13.3342,7.483,4.093,8.0168,7.1246,16.3468,12.6089,23.61,9.2414,12.2392,23.4326,19.0748,38.6531,14.4842,17.4252-5.2554,27.5025-21.5393,31.4442-38.4245.4385-1.8782-2.4534-2.68-2.8928-.7975-3.8782,16.613-13.9578,32.8745-31.6386,36.9262-20.16,4.62-33.553-11.6883-41.3214-27.9774-2.8385-5.9518-4.9082-14.3705-11.69-17.0475-2.6742-1.0556-5.6648-1.1-8.4976-1.2566-5.1479-.2854-10.3055-.4065-15.4609-.4129-19.0517-.0235-38.0519,1.598-57.0274,3.1219-21.5558,1.7311-43.147,3.2832-64.7823,2.3476-1.93-.0835-1.9263,2.9167,0,3Z"/><path class="cls-1" d="M467.28,215.4566l5.7057-5.52,2.8529-2.76a14.6934,14.6934,0,0,1,2.0946-1.9584l-1.4594-.3858a13.4881,13.4881,0,0,1,.0727,2.3669q.0394,1.39-.01,2.7811a43.4152,43.4152,0,0,1-.661,6.0458c-.3332,1.888,2.5573,2.6985,2.8928.7975a47.775,47.775,0,0,0,.7866-9.1609c-.0264-1.4961.3792-4.7562-1.6214-5.3374-1.8926-.55-3.85,2.376-4.9292,3.42l-7.8453,7.59c-1.39,1.3449.7326,3.4649,2.1213,2.1213Z"/><path class="cls-1" d="M487.0973,219.0546a51.9387,51.9387,0,0,1,.1149-8.5492c.0656-.6331.3071-4.4519.8681-5.2305,1.3069-1.8139,2.0374-.2643,2.9233.7785a26.9647,26.9647,0,0,1,6.1409,14.7671c.194,1.902,3.1961,1.922,3,0a31.4649,31.4649,0,0,0-2.9764-10.7715c-1.3943-2.849-3.9535-7.3522-6.9392-8.82-7.1527-3.5153-6.3128,14.8647-6.1316,17.8251.1175,1.9181,3.1183,1.9314,3,0Z"/><path class="cls-1" d="M489.9752,94.5321a37.0283,37.0283,0,0,1-3.3712,13.4993h2.59c-1.66-2.356-3.3087-4.7211-4.9817-7.0682-1.1871-1.6653-2.1252-2.9907-4.0734-3.7464-1.8011-.6986-2.5812,2.201-.7976,2.8928,1.7163.6658,3.1087,3.5428,4.1487,5.0183l3.1136,4.4176c.5833.8276,2.0758,1.1125,2.59,0a41.1082,41.1082,0,0,0,3.7808-15.0134c.1125-1.9287-2.8879-1.9222-3,0Z"/><path class="cls-1" d="M495.7574,93.7083c1.557,2.1155,3.8,3.3892,5.5129,5.3416,1.812,2.0648,2.3729,5.0613,4.4971,6.8113a1.5179,1.5179,0,0,0,2.5071-.6619c.4458-2.22.1321-4.4365.3148-6.6828a29.1417,29.1417,0,0,1,1.7672-7.6745c.6643-1.816-2.2339-2.5989-2.8928-.7975a31.0716,31.0716,0,0,0-1.6427,6.4089c-.3661,2.6235.0771,5.3762-.4393,7.9483l2.507-.6619c-1.7792-1.4657-2.4067-4.2422-3.8671-6.0656-1.6606-2.0732-4.1042-3.3474-5.6738-5.48-1.1324-1.5386-3.737-.0438-2.59,1.5141Z"/><path class="cls-1" d="M481.618,48.8806a14.4628,14.4628,0,0,0,7.934,17.6387c8.6735,3.6542,18.447,2.8187,27.6209,3.61,1.9232.1659,1.9121-2.8351,0-3-10.8193-.933-38.1277,1.0233-32.662-17.451.5488-1.8551-2.3455-2.6476-2.8929-.7975Z"/><path class="cls-1" d="M508.8192,66.6807a30.0176,30.0176,0,0,1,.3488-3.4934,7.3551,7.3551,0,0,1,.705-2.8122c.2774-.3534.1178-.02.15.3791q.0756.9332.1493,1.8667l.2987,3.7333c.1529,1.9115,3.1542,1.9279,3,0a57.4189,57.4189,0,0,0-.5644-6.7746,2.9107,2.9107,0,0,0-3.3278-2.264c-1.7554.12-2.4568,1.32-2.85,2.8838a33.1037,33.1037,0,0,0-.91,6.4813c-.0921,1.93,2.9082,1.9252,3,0Z"/><path class="cls-1" d="M498.0947,65.9633c.115-.8121,1.1832-7.4258,2.7949-6.2482.46.3363.1739,2.6049.1978,3.2222a27.2222,27.2222,0,0,0,.4672,3.9055c.3509,1.8958,3.2428,1.0928,2.8928-.7975-.4232-2.2859-.1331-4.57-.467-6.8431-.2661-1.8117-1.4856-2.5076-3.25-2.5241-4.2282-.0394-5.0677,5.2367-5.528,8.4877-.2674,1.8883,2.6229,2.7043,2.8928.7975Z"/><path class="cls-1" d="M454.1282,108.9193c-3.1807-1.3147-6.63-2.8116-8.3468-6.0047-1.7567-3.2666-2.0373-7.931-2.334-11.4925-.5979-7.1792-.1626-13.7734,3.5992-20.1076,3.4236-5.7649,7.148-10.8363,13.9094-12.7111,6.7842-1.8812,14.2263-2.1746,21.2322-2.3248,1.9277-.0413,1.9344-3.0414,0-3-8.1876.1755-17.9559.2741-25.5764,3.6646-6.727,2.993-11.68,10.687-14.4292,17.2528-3.1092,7.4254-2.2892,16.49-.8358,24.22,1.3848,7.3655,5.2477,10.6121,11.9839,13.3966,1.7826.7368,2.56-2.1645.7975-2.8929Z"/><path class="cls-1" d="M467.8976,67.1357c-.6414,1.3987-1.2806,3.0689-.4442,4.5432a3.01,3.01,0,0,0,3.33,1.5539,2.6943,2.6943,0,0,0,1.79-3.1191,3.37,3.37,0,0,0-.7647-1.6451,4.2413,4.2413,0,0,0-.84-.7131q-.255-.16-.5066-.3249-.0555-.0693.0712.0585l-.2048.757-.3.2429H469.23l-.0269-.0061-.5382-.5381a6.778,6.778,0,0,1,.1869,1.6409,1.5478,1.5478,0,0,0,1.5,1.5,1.5089,1.5089,0,0,0,1.5-1.5c-.1665-1.339-.0384-3.47-1.6433-3.9561a2.14,2.14,0,0,0-2.646,2.4915,2.8446,2.8446,0,0,0,1.1464,1.7176,6.2616,6.2616,0,0,1,.7447.5072c-.0134-.0146.3683.3739.1952.3579-.0884-.0082.1634-.284.18-.2986q.4791.034.2879-.1048a.3612.3612,0,0,1-.0732-.1357c.1327-.3655.2234-1.0333.4442-1.5148a1.5445,1.5445,0,0,0-.5381-2.0523,1.512,1.512,0,0,0-2.0523.5381Z"/><path class="cls-1" d="M459.7,71.8668l-2.386.0086.3987,2.9464c.1208-.0355.171.0056.1042-.0272-.18-.0886.1515.1.0839.04-.0857-.0755.1511.1966.1766.2446a2.1629,2.1629,0,0,1,.1535.54c-.0261-.1586.1019-.1117.0066-.0536q-.0619.189.0657-.076.1842-.2542-.01-.0748l.6619-.3858.4656-.0093.6619.3858c.1362.1261.23.9189.227.3315-.0008-.1818.0015-.3637.0022-.5455l.0043-1.091-.7429,1.2952q-1.0643.3859-1.2856-.7161l1.1013-1.4464-1.1973.48a1.5468,1.5468,0,0,0-1.0477,1.8452,1.51,1.51,0,0,0,1.8452,1.0476l1.1973-.48a1.5576,1.5576,0,0,0,1.1012-1.4465,2.1791,2.1791,0,0,0-3.2285-1.8744,1.4918,1.4918,0,0,0-.743,1.2953c-.0044,1.115-.2635,2.5848.6452,3.4263a1.9574,1.9574,0,0,0,3.1687-1.1637c.6668-2.43-1.7107-5.1709-4.2151-4.4351a1.507,1.507,0,0,0,.3988,2.9464l2.386-.0086a1.5009,1.5009,0,0,0,0-3Z"/><path class="cls-1" d="M468.1,82.2794l.0067-1.402a7.1767,7.1767,0,0,0,.0094-1.3269c-.0639-.0335-.4875.6573-.5466.5529-.0184-.0325.2611.0042.28.0067.1386.0178.3652.15.4987.1285-.4746.077-.34-1.2819.182-1.376h.7975l.1037.0474c-1.6257-1.052-3.1312,1.544-1.5142,2.59a2.0746,2.0746,0,0,0,3.0516-1.3969,2.5067,2.5067,0,0,0-2.121-2.8436,2.9539,2.9539,0,0,0-3.3724.9545,3.3784,3.3784,0,0,0-.3652,1.8218c-.0061.7477-.007,1.4955-.0106,2.2432a1.5009,1.5009,0,0,0,3,0Z"/><path class="cls-1" d="M412.4058,52.5132c3.4746,2.2192,18.5446,13.2781,7.2979,15.2109a25.3474,25.3474,0,0,1-19.8068-5.2222c-1.5029-1.1772-3.64.9313-2.1213,2.1214,6.7549,5.2914,19.3323,9.6333,27.4612,4.5419,8.7781-5.4982-7.2891-16.67-11.3169-19.2424-1.6319-1.0423-3.1382,1.5531-1.5141,2.59Z"/><path class="cls-1" d="M397.3026,90.1029a163,163,0,0,1,20.5326-2.4121c1.92-.1036,1.9324-3.1043,0-3a169.3777,169.3777,0,0,0-21.33,2.5192c-1.8965.3463-1.0931,3.2381.7975,2.8929Z"/><path class="cls-1" d="M405.7925,106.9473a205.6419,205.6419,0,0,1,23.8723-13.6742c1.7354-.8455.2163-3.4335-1.5141-2.59a205.6336,205.6336,0,0,0-23.8723,13.6742c-1.6,1.0644-.0995,3.6639,1.5141,2.59Z"/><path class="cls-1" d="M411.319,117.6638a229.8667,229.8667,0,0,0,19.5538-17.8747c1.3485-1.3834-.7708-3.5069-2.1213-2.1214a229.8678,229.8678,0,0,1-19.5538,17.8748c-1.4982,1.2189.6356,3.33,2.1213,2.1213Z"/><path class="cls-2" d="M381.451,161.3092a14.4872,14.4872,0,0,1-3.7629-9.09c-.06-1.4134.1839-3.011,1.3219-3.8513a5.1714,5.1714,0,0,1,3.06-.6831l6.085-.0764a5.344,5.344,0,0,1,2.4429.3533,5.0377,5.0377,0,0,1,2.1158,2.8058c.75,1.822,1.3643,3.8733.7107,5.7322-.8591,2.4434-3.5687,3.6705-6.0812,4.2993a30.1126,30.1126,0,0,1-7.2809.9"/><path class="cls-2" d="M360.3441,107.5613a3.3254,3.3254,0,0,0-3.4645,1.6267,7.87,7.87,0,0,0-.9515,3.9361,27.0252,27.0252,0,0,0,2.2242,11.7629,9.4951,9.4951,0,0,0,2.3884,3.5636,8.6181,8.6181,0,0,0,4.633,1.7412,3.533,3.533,0,0,0,3.0234-.6941,3.8968,3.8968,0,0,0,.7827-2.2649c.4464-3.6346.8713-7.3773-.0809-10.9132s-3.6167-6.8614-7.2269-7.4743"/><path class="cls-2" d="M338.1967,133.2406a13.8878,13.8878,0,0,0-2.0012,7.6157,5.16,5.16,0,0,0,.6312,2.583c1.0046,1.6121,3.1543,1.9744,5.0427,2.18,1.116.1216,2.3856.1961,3.2107-.5652a4.0026,4.0026,0,0,0,.9269-2.6883l.7076-8.1148a2.0674,2.0674,0,0,0-.2121-1.4058,1.902,1.902,0,0,0-.9517-.5918,12.4521,12.4521,0,0,0-8.0763-.0533"/><path class="cls-2" d="M352.9949,153.3332c-3.3824-.2264-6.6325,1.8591-8.4867,4.697a18.48,18.48,0,0,0-2.5755,9.7026,14.6692,14.6692,0,0,0,.7159,5.4886,18.715,18.715,0,0,0,2.9692,4.7618c.9983,1.2914,2.0948,2.6531,3.6533,3.1382a7.4091,7.4091,0,0,0,4.1169-.2576,44.2046,44.2046,0,0,0,10.3535-4.3169,18.3025,18.3025,0,0,0,5.99-5.0031,8.5243,8.5243,0,0,0,1.4332-7.4428,13.2248,13.2248,0,0,0-1.8308-3.2607l-3.2572-4.6967a12.3953,12.3953,0,0,0-2.3962-2.8091c-3.097-2.4264-7.5582-1.4153-11.328-.29"/><path class="cls-2" d="M289.4517,121.903a14.04,14.04,0,0,0,7.7236,15.9366,5.0418,5.0418,0,0,0,3.5862.4221,4.4259,4.4259,0,0,0,2.33-2.2514c1.1229-2.1656,1.16-4.7108,1.1718-7.15a2.9512,2.9512,0,0,0-1.79-3.2868l-8.1884-4.9821a4.1292,4.1292,0,0,0-3.04-.8767c-1.4466.3774-1.9972,2.1013-2.31,3.5632"/><path class="cls-2" d="M306.9393,167.1013l-1.2105-5.6612a9.5038,9.5038,0,0,1-.1819-4.8487c.6042-1.8861,2.3107-3.1906,4.0284-4.1765a27.095,27.095,0,0,1,7.2024-2.8544,1.8881,1.8881,0,0,1,1.2192-.0056,1.768,1.768,0,0,1,.7294.8036c2.5,4.4937.8833,10.2025-1.7752,14.6041a10.6718,10.6718,0,0,1-2.5243,3.0722,12.6183,12.6183,0,0,1-5.7513,1.9373,3.2044,3.2044,0,0,1-2.5319-.2929c-.685-.5469-.4816-1.9843.3942-1.9514"/><path class="cls-2" d="M325.1983,185.2829a5.5027,5.5027,0,0,0-6.0417,3.673,8.0546,8.0546,0,0,0,1.4147,7.295,15.5357,15.5357,0,0,0,6.1392,4.5729,29.6111,29.6111,0,0,0,10.9035,2.6515,1.3812,1.3812,0,0,0,1.7246-1.3149,24.3267,24.3267,0,0,0,.3562-9.9867,6.4536,6.4536,0,0,0-.677-2.1513,6.08,6.08,0,0,0-1.2036-1.4014,16.9513,16.9513,0,0,0-14.206-4.11"/><path class="cls-2" d="M296.851,187.7661l-11.2024-.0156a2.3634,2.3634,0,0,0-1.3655.2763,2.2414,2.2414,0,0,0-.7462,1.3944c-1.85,7.732,1.0474,15.8845,5.3215,22.5881a17.0644,17.0644,0,0,0,3.91,4.6027,6.4923,6.4923,0,0,0,10.4621-2.7113,17.7629,17.7629,0,0,0,1.2791-6.4418,59.4087,59.4087,0,0,0-.0446-7.6813,17.2037,17.2037,0,0,0-1.45-6.395,7.4441,7.4441,0,0,0-4.8551-4.135"/><path class="cls-2" d="M287.4953,158.6878a3.551,3.551,0,0,0-.7759,4.4075,5.8062,5.8062,0,0,0,3.8751,2.71,17.21,17.21,0,0,0,4.8538.2077,1.9619,1.9619,0,0,0,1.0776-.2691,1.9271,1.9271,0,0,0,.5791-1.4225,10.2193,10.2193,0,0,0-.2931-4.4514,5.905,5.905,0,0,0-10.4361-1.3684"/><path class="cls-2" d="M335.2667,100.5116a10.2827,10.2827,0,0,0-5.39,5.3553,6.5641,6.5641,0,0,0,1.4751,7.1643c1.9517,1.7119,5.3836,1.5907,6.8938-.5209a8.2774,8.2774,0,0,0,1.1435-4.033l.2845-2.71a9.4777,9.4777,0,0,0-.034-3.2455,3.2136,3.2136,0,0,0-2.01-2.3838c-1.2664-.3827-2.5779.3322-3.7079,1.02"/><path class="cls-2" d="M371.9037,80.3433a7.6867,7.6867,0,0,0-1.3,9.4754,5.141,5.141,0,0,0,5.4031,2.1742c3.0061-.8336,4.2081-4.5338,4.0162-7.6475a5.3275,5.3275,0,0,0-.57-2.34c-.7981-1.3936-2.4835-1.9634-4.0243-2.4163-1.5786-.4641-3.4778-.8593-4.711.23"/><path class="cls-2" d="M367.68,49.7524a22.8656,22.8656,0,0,1-.3356,5.9692,7.7039,7.7039,0,0,1-3.2077,4.8824c-2.9945,1.8406-6.9519.5646-9.8679-1.3981"/><path class="cls-2" d="M302.1957,48.4078c2.3887.3567,5.0161-.6211,7.1487.5124a6.4258,6.4258,0,0,1,2.4731,2.7855,9.9294,9.9294,0,0,1,1.1776,7,5.73,5.73,0,0,1-5.1008,4.4329"/><path class="cls-2" d="M321.2085,36.7092c.8577,2.2674,1.8164,4.6695,3.7934,6.0724s5.29,1.1688,6.26-1.0526"/><path class="cls-2" d="M286.4986,84.1711l-.0192,7.1936a3.3769,3.3769,0,0,0,.3326,1.8058,3.2335,3.2335,0,0,0,1.83,1.16c3.4815,1.1707,7.7931,1.6022,10.4038-.9815a10.0032,10.0032,0,0,0,2.0431-3.38,34.3606,34.3606,0,0,0,1.6673-5.1633"/><path class="cls-2" d="M271.5253,115.3863a3.1425,3.1425,0,0,1,3.4445,1.6515,8.8363,8.8363,0,0,1,.86,4c.1354,2.6618.0958,5.6263-1.7149,7.582"/><path class="cls-2" d="M407.5717,150.7723a3.9684,3.9684,0,0,0,.46,4.8414,5.919,5.919,0,0,0,4.7966,1.6968,1.8086,1.8086,0,0,0,.992-.2958,2.0051,2.0051,0,0,0,.566-1.48q.1224-1.476.125-2.9589c.0036-2.131-.4208-4.643-2.3319-5.5858a4.2259,4.2259,0,0,0-3.8112.2832,12.49,12.49,0,0,0-2.9954,2.5822"/><path class="cls-2" d="M352.6718,212.482c-.0954-2.3513-.0805-5.0008,1.5889-6.6594,1.5986-1.5883,4.2757-1.6455,6.3028-.661a12.9229,12.9229,0,0,1,4.7742,4.6727"/><path class="cls-1" d="M551.7786,203.5709l85.1822,19.6781-.3583-2.7417a35.4213,35.4213,0,0,0-7.5862,6.556c-2.1952,2.59-3.7194,6.991-6.6544,8.7031-3.4281,2-7.9566.2875-11.3227-.9473-4.4065-1.6165-8.7311-3.5054-13.0068-5.44a261.6894,261.6894,0,0,1-42.3792-24.2514c-1.5839-1.111-3.0847,1.4888-1.5141,2.59A261.7795,261.7795,0,0,0,603.1612,234.86c5.48,2.2994,12.9491,6.4195,19.1243,4.2145,2.6933-.9617,4.1046-2.8566,5.5923-5.1536a34.8822,34.8822,0,0,1,10.2388-10.823,1.5194,1.5194,0,0,0-.3583-2.7417l-85.1822-19.678c-1.8788-.4341-2.6809,2.4577-.7975,2.8928Z"/><path class="cls-1" d="M542.9857,111.7005c2.1692-9.8578,7.83-19.4453,12.1657-28.5108q3.3663-7.0381,6.8626-14.0133.8741-1.7437,1.7561-3.4833.46-3.048,2.397-.7973c1.978.4149,4.6855,2.9505,6.414,4.0389,2.5579,1.6107,4.1933,1.7147,1.7453,4.0563-1.2766,1.2212-2.8014,2.2222-4.1047,3.4322a107.9977,107.9977,0,0,0-8.98,9.8591c-6.094,7.2508-12.1245,14.5505-17.643,22.2537-1.1263,1.572,1.4746,3.0716,2.59,1.5141,7.5125-10.4864,15.74-21.2836,24.9554-30.3543,2.2926-2.2565,5.0991-3.85,7.4376-5.9792.7733-.7042,1.4412-1.0535,1.4982-2.1883.154-3.0664-6.2956-5.3793-8.3907-6.6986-2.2912-1.4427-6.06-5.3466-8.8684-3.4036-1.6066,1.1114-2.5477,4.54-3.398,6.2361q-2.1855,4.359-4.32,8.7435-4.27,8.768-8.3339,17.634c-2.5073,5.4694-5.3766,10.9526-6.6773,16.8633-.414,1.8815,2.4775,2.6852,2.8929.7975Z"/><path class="cls-1" d="M349.04,56.4487a69.0239,69.0239,0,0,0,9.4306-32.91c.06-1.9311-2.94-1.9291-3,0a65.6861,65.6861,0,0,1-9.021,31.3964,1.5011,1.5011,0,0,0,2.59,1.5141Z"/><path class="cls-1" d="M351.2437,58.0971c6.1788-2.28,9.2361-10.3,12.0812-15.6942a167.1294,167.1294,0,0,0,10.1913-23.7517c.6282-1.83-2.2687-2.6159-2.8928-.7975A162.56,162.56,0,0,1,362.34,37.7618q-2.16,4.3241-4.5775,8.5122c-1.7762,3.0764-3.7449,7.6122-7.3162,8.93-1.7959.6628-1.0194,3.5634.7975,2.8928Z"/><path class="cls-1" d="M88.6372,18.5082c8.9035,17.3409,18.3682,34.5089,26.5854,52.1871a125.0236,125.0236,0,0,1,8.72,25.8153c2.1386,9.6408,3.9349,19.2649,7.145,28.6322,6.0879,17.7644,13.02,34.8348,16.8529,53.3077a351.4907,351.4907,0,0,1,6.6118,57.7559c.8548,21.9787.1449,43.9817-1.1959,65.9258a1.2672,1.2672,0,0,1-2.2462.5535l-31.2487-46.4772c-3.9265-5.84-8.1289-11.0882-6.6081-18.4766,1.9188-9.3217,4.5749-18.551,6.8667-27.7882l1.7062,1.3623a21.789,21.789,0,0,0-16.3256,20.9974,1.2663,1.2663,0,0,1-2.2536.89l-16.09-22.3024c-4.6631-6.4635-10.5129-12.9836-12.9817-20.7007-4.66-14.5652,3.6015-29.48,10.8633-41.6183l.6387,1.6563c-7.7267-2.6446-12.7027,6.11-15.14,11.8985-1.9992,4.7474-3.8806,9.2753-7.7409,12.8249a1.27,1.27,0,0,1-1.9157-.54L44.6757,143.4458c-5.0578-9.6647-11.3682-19.4067-15.163-29.6428-3.259-8.7909.4163-14.6888,6.1341-21.202q11.2632-12.83,22.54-25.6485l1.1206,2.03A51.5956,51.5956,0,0,0,27.8246,86.3607a1.2664,1.2664,0,0,1-2.1463-.3167,283.4932,283.4932,0,0,0-22.52-56.01c-.7588-1.4264,1.58-2.3444,2.331-.9328a283.4916,283.4916,0,0,1,22.52,56.01l-2.1463-.3167A54.2681,54.2681,0,0,1,59.0273,66.4883a1.2675,1.2675,0,0,1,1.12,2.03L40.2916,91.1137c-3.0015,3.4155-6.8723,6.9412-8.7136,11.178-2.3777,5.4709.2314,11.0755,2.7437,15.9748,9.4767,18.4808,19.26,36.8109,28.89,55.2124l-1.9157-.54c7.7041-7.0838,9.9816-30.2825,25.3993-25.0056a1.2569,1.2569,0,0,1,.6387,1.6563C79.99,161.865,71.1794,177.43,77.5149,191.9169c3.1744,7.2581,8.947,13.72,13.5483,20.0975L105.26,231.693l-2.2535.89a24.2445,24.2445,0,0,1,17.8872-23.608c.8239-.2167,1.9634.3258,1.7062,1.3622-2.14,8.6262-4.3706,17.2355-6.4218,25.8832-1.07,4.5106-1.0134,7.9194,1.3853,11.9948,2.1447,3.644,4.71,7.0857,7.0683,10.5938l28.4915,42.3763-2.2462.5534c2.358-38.594,2.8369-77.75-4.0612-115.9418-3.4674-19.1978-9.8048-37.0144-16.473-55.2594-6.334-17.3308-7.7829-36.0167-14.8632-53.0527-8.2719-19.903-19.3344-38.8807-29.1736-58.0438-.7385-1.4385,1.5992-2.3582,2.331-.9328Z"/><path class="cls-1" d="M75.068,28.7862c-20.832,5.75-34.9795,24.0766-55.3316,30.9322-1.5271.5144-2.4653-1.8148-.9327-2.331C39.1475,50.5346,53.28,32.2115,74.1353,26.4553c1.5424-.4258,2.488,1.9017.9327,2.3309Z"/><path class="cls-1" d="M98.4964,89.0823c-5.5475,9.6413-13.34,17.4572-21.7448,24.634-9.9853,8.5261-20.3267,16.6551-30.51,24.9432-1.2566,1.0227-2.7506-.9953-1.5-2.0128,9.4682-7.7062,19.0217-15.32,28.3867-23.1509,8.8352-7.3882,17.28-15.363,23.0732-25.4311.7972-1.3855,3.1022-.3853,2.295,1.0176Z"/><path class="cls-1" d="M123.842,155.0436a141.491,141.491,0,0,0-20.5948,31.7944c-3.93,8.3855-7.4909,17.62-16.32,21.9221-1.4548.7088-2.377-1.6273-.9327-2.331,9.7658-4.7579,12.8694-16.8476,17.5168-25.7958A144.36,144.36,0,0,1,121.88,153.4775c1.048-1.2279,3.0129.3343,1.9616,1.5661Z"/><path class="cls-1" d="M138.3788,232.3169c-3.93,3.2884-6.4332,8.0269-9.1981,12.2665L120.6721,257.63c-.8831,1.354-2.8378-.2226-1.9615-1.5662l9.3594-14.3513c2.6414-4.05,5.0591-8.2711,8.8084-11.4084,1.2424-1.04,2.7351.98,1.5,2.0127Z"/><path class="cls-1" d="M322.4488,166.7441c-19.2432.2-37.5423-10.1357-48.1236-26.1111-5.491-8.29-8.1359-17.3707-9.0328-27.2017-.5692-6.2388-.7352-13.6327-4.6929-18.8476a3.6593,3.6593,0,0,0-6.5927.9779,29.4483,29.4483,0,0,0-.763,4.5315l-1.78,10.5735a1.2641,1.2641,0,0,1-1.7486.9508c-10.89-6.3369-25.86-3.9133-35.3314-12.9391-11.1293-10.6052-4.6256-28.1383-9.455-41.208l2.313.0424-6.7685,20.859a1.2672,1.2672,0,0,1-1.6563.6387c-14.08-6.3122-28.6117-12.88-39.6835-23.9392A62.23,62.23,0,0,1,141.17,14.1293l1.05,1.1c-5.47-.1718-4.06,12.7584-9.4428,14.6257-3.9621,1.3745-8.1627-3.48-10.8293-5.5476L104.3744,10.6813c-1.2788-.9916.2883-2.9523,1.5661-1.9615L122.259,21.3726c2.0861,1.6175,6.0284,5.922,8.6234,6.0572,2.08.1084,2.7407-1.5314,3.4393-3.2608,1.714-4.2433,2.265-11.6086,8.2921-11.4193a1.252,1.252,0,0,1,1.05,1.1A59.8569,59.8569,0,0,0,162.6508,54.985c10.66,9.8372,24.096,15.863,37.1837,21.73l-1.6563.6387,6.7685-20.859a1.2674,1.2674,0,0,1,2.313.0424c4.6682,12.6336-1.7562,31.1856,9.4741,40.8943,9.2811,8.0238,23.5845,5.83,33.9989,11.8906l-1.7486.9507,1.78-10.5735c.4362-2.5909.4426-5.9162,1.9451-8.1966,2.2867-3.4707,6.4595-2.1036,8.912.4009,8.0684,8.2394,5.1758,23.0212,8.1829,33.2633,6.6126,22.5219,28.8541,39.3272,52.365,39.0824,1.6-.0166,1.896,2.4776.28,2.4945Z"/><path class="cls-1" d="M320.75,163.993c-3.9931-27.1474-16.7737-52.998-31.2-76.0695A288.9216,288.9216,0,0,0,208.4149,3.04c-1.3312-.92.2422-2.8768,1.5661-1.9616a292.53,292.53,0,0,1,98.2245,115.8731c6.9815,14.896,12.6372,30.4311,15.0393,46.7621.2353,1.5994-2.2594,1.8769-2.4944.28Z"/><path class="cls-1" d="M285.84,75.178c-.0853,16.5255,6.5471,33.2078.9428,49.438-.5269,1.5261-2.82.503-2.295-1.0175,5.411-15.67-1.2247-32.1636-1.1422-48.1409.0082-1.596,2.5027-1.8945,2.4944-.28Z"/><path class="cls-1" d="M230.7677,18.0166c7.151,24.5783,14.3861,50.6855,7.5248,76.173-.4152,1.5422-2.9,1.1695-2.48-.3935,6.747-25.0628-.3443-50.6782-7.3761-74.8468-.4479-1.54,1.88-2.4832,2.331-.9327Z"/><path class="cls-1" d="M189.5816,1.7763c-4.2552,13.1624,1.134,27.8044-5.5584,40.3943-.7536,1.4177-3.0558.4138-2.295-1.0175,6.62-12.454,1.3142-27.266,5.5584-40.3944.4961-1.5346,2.7885-.5089,2.295,1.0176Z"/></svg>