<svg id="圖層_1" data-name="圖層 1" xmlns="http://www.w3.org/2000/svg" viewBox="0 0 125.703 126.5511"><defs><style>.cls-1{fill:#f2bfa0;}.cls-2{fill:none;stroke:#343170;stroke-miterlimit:10;}</style></defs><title>logo</title><path class="cls-1" d="M109.3865,15.5447l.9584-9.4558a3.5364,3.5364,0,1,0-7.0368-.7133l-.9584,9.4561a53.0739,53.0739,0,0,1-1.72,10.2813,15.4023,15.4023,0,0,1-4.7341,7.5182c-2.3744,1.8637-5.6748,2.7174-8.2847,3.253a62.7508,62.7508,0,0,1-9.8143,1.2136c-.1174-.7963-.2673-1.5966-.466-2.3955a3.5353,3.5353,0,0,0,.1222-1.0376q-.0836-2.7024-.1344-5.4184c.113-.0186.2262-.0408.3391-.0708a19.06,19.06,0,0,0,3.1029-1.1809,31.4564,31.4564,0,0,0,10.5623-7.2385,16.3464,16.3464,0,0,0,4.281-13.4833,3.5363,3.5363,0,1,0-6.9609,1.2525,9.2774,9.2774,0,0,1-2.6016,7.5267,24.9688,24.9688,0,0,1-8.24,5.5185c-.1892.0871-.3818.1737-.5751.2585-.0264-5.2993.0284-10.6029.1708-15.866a3.5362,3.5362,0,1,0-7.07-.1911c-.2111,7.7993-.2362,15.6859-.082,23.5184a24.4675,24.4675,0,0,0-7.2609,1.8005L52.401,33.9858a168.99,168.99,0,0,1-.22-29.521,3.5364,3.5364,0,0,0-7.05-.5673q-.5187,6.4475-.558,12.9407c-1.8153-.2522-3.634-.5538-5.4237-.9048a13.8262,13.8262,0,0,1-4.4748-1.4342,8.6055,8.6055,0,0,1-3.2421-4.423,30.7509,30.7509,0,0,1-1.3672-6.9507,3.5364,3.5364,0,1,0-7.0248.8229,36.4093,36.4093,0,0,0,1.7525,8.5646,15.42,15.42,0,0,0,6.1532,7.9962,19.9585,19.9585,0,0,0,6.8425,2.3647c2.27.4453,4.5838.8174,6.8834,1.1129q.1008,2.9564.3011,5.906a3.5491,3.5491,0,0,0-1.0769-.0969A33.6923,33.6923,0,0,1,24.02,24.7989a16.7818,16.7818,0,0,1-6.1514-5.9423,25.1489,25.1489,0,0,1-1.9079-5.5113L13.8545,5.412a3.5364,3.5364,0,1,0-6.836,1.8147L9.1246,15.16a31.2926,31.2926,0,0,0,2.531,7.076A23.5484,23.5484,0,0,0,20.2773,30.8a40.89,40.89,0,0,0,21.5049,6.137q1.2871,0,2.574-.0833a3.5549,3.5549,0,0,0,.3727-.0447l-10.6351,3.914c-3.7229,1.37-9.3488,3.4408-12.1786,8.4134-1.6275,2.86-2.0145,7.1227.9819,9.7241a8.7084,8.7084,0,0,0,3.9658,1.7755,62.0039,62.0039,0,0,0,12.3105,1.963c.5185.014,1.0328.0168,1.53.02,1.9183.01,3.73.02,4.9021.6877a1.6836,1.6836,0,0,1,.2517.1694,7.7132,7.7132,0,0,1-.0076,1.4578c-.2505,3.7494-.4557,9.0445-.6541,14.1649-.1966,5.072-.4,10.3167-.644,13.9675A3.5365,3.5365,0,0,0,47.8442,96.83q.1206.008.2392.008a3.5369,3.5369,0,0,0,3.5251-3.3008c.2505-3.7493.4556-9.0445.6541-14.1648.1966-5.0721.4-10.3167.644-13.9673a9.3323,9.3323,0,0,0-.9422-5.5208,7.5793,7.5793,0,0,0-2.8574-2.7234c-2.7823-1.5856-5.7487-1.6012-8.3659-1.6153-.4805-.0025-.9343-.0048-1.3757-.0168A56.7191,56.7191,0,0,1,28.4508,53.744c-.187-.0431-.4768-.11-.7036-.1761a2.5622,2.5622,0,0,1,.3152-.9334c1.4325-2.5174,4.8259-3.931,8.4742-5.2737L65.4275,36.7284a20.7435,20.7435,0,0,1,4.7417-1.3452A29.1911,29.1911,0,0,1,71.178,43.41c.2609,7.4232.2491,15.2783.2379,22.8745-.0113,7.66-.0231,15.5808.2419,23.1333a3.5365,3.5365,0,0,0,7.0686-.2482c-.2608-7.4231-.2491-15.2782-.2378-22.8745.0108-7.3263.0192-14.8874-.2117-22.14a69.8408,69.8408,0,0,0,10.7557-1.342c3.3708-.6916,7.6934-1.8417,11.2307-4.6183a22.0739,22.0739,0,0,0,7.1192-10.9772A58.3862,58.3862,0,0,0,109.3865,15.5447Z"/><path class="cls-2" d="M60.0077,49.7863a3.5364,3.5364,0,1,0-3.5364,3.5364A3.5981,3.5981,0,0,0,60.0077,49.7863Z"/><path class="cls-2" d="M105.3865,18.5447l.9584-9.4558a3.5364,3.5364,0,1,0-7.0368-.7133L98.35,17.8317A53.0739,53.0739,0,0,1,96.63,28.113a15.4023,15.4023,0,0,1-4.7341,7.5182c-2.3744,1.8637-5.6748,2.7174-8.2847,3.253a62.7508,62.7508,0,0,1-9.8143,1.2136c-.1174-.7963-.2673-1.5966-.466-2.3955a3.5353,3.5353,0,0,0,.1222-1.0376q-.0836-2.7024-.1344-5.4184c.113-.0186.2262-.0408.3391-.0708a19.06,19.06,0,0,0,3.1029-1.1809,31.4564,31.4564,0,0,0,10.5623-7.2385,16.3464,16.3464,0,0,0,4.281-13.4833,3.5363,3.5363,0,1,0-6.9609,1.2525,9.2774,9.2774,0,0,1-2.6016,7.5267,24.9688,24.9688,0,0,1-8.24,5.5185c-.1892.0871-.3818.1737-.5751.2585-.0264-5.2993.0284-10.6029.1708-15.866a3.5362,3.5362,0,1,0-7.07-.1911c-.2111,7.7993-.2362,15.6859-.082,23.5184a24.4675,24.4675,0,0,0-7.2609,1.8005L48.401,36.9858a168.99,168.99,0,0,1-.22-29.521,3.5364,3.5364,0,0,0-7.05-.5673q-.5187,6.4475-.558,12.9407c-1.8153-.2522-3.634-.5538-5.4237-.9048a13.8262,13.8262,0,0,1-4.4748-1.4342,8.6055,8.6055,0,0,1-3.2421-4.423,30.7509,30.7509,0,0,1-1.3672-6.9507,3.5364,3.5364,0,1,0-7.0248.8229,36.4093,36.4093,0,0,0,1.7525,8.5646,15.42,15.42,0,0,0,6.1532,7.9962,19.9585,19.9585,0,0,0,6.8425,2.3647c2.27.4453,4.5838.8174,6.8834,1.1129q.1008,2.9564.3011,5.906a3.5491,3.5491,0,0,0-1.0769-.0969A33.6923,33.6923,0,0,1,20.02,27.7989a16.7818,16.7818,0,0,1-6.1514-5.9423,25.1489,25.1489,0,0,1-1.9079-5.5113L9.8545,8.412a3.5364,3.5364,0,1,0-6.836,1.8147L5.1246,18.16a31.2926,31.2926,0,0,0,2.531,7.076A23.5484,23.5484,0,0,0,16.2773,33.8a40.89,40.89,0,0,0,21.5049,6.137q1.2871,0,2.574-.0833a3.5549,3.5549,0,0,0,.3727-.0447l-10.6351,3.914c-3.7229,1.37-9.3488,3.4408-12.1786,8.4134-1.6275,2.86-2.0145,7.1227.9819,9.7241a8.7084,8.7084,0,0,0,3.9658,1.7755,62.0039,62.0039,0,0,0,12.3105,1.963c.5185.014,1.0328.0168,1.53.02,1.9183.01,3.73.02,4.9021.6877a1.6836,1.6836,0,0,1,.2517.1694,7.7132,7.7132,0,0,1-.0076,1.4578c-.2505,3.7494-.4557,9.0445-.6541,14.1649-.1966,5.072-.4,10.3167-.644,13.9675A3.5365,3.5365,0,0,0,43.8442,99.83q.1206.008.2392.008a3.5369,3.5369,0,0,0,3.5251-3.3008c.2505-3.7493.4556-9.0445.6541-14.1648.1966-5.0721.4-10.3167.644-13.9673a9.3323,9.3323,0,0,0-.9422-5.5208,7.5793,7.5793,0,0,0-2.8574-2.7234c-2.7823-1.5856-5.7487-1.6012-8.3659-1.6153-.4805-.0025-.9343-.0048-1.3757-.0168A56.7191,56.7191,0,0,1,24.4508,56.744c-.187-.0431-.4768-.11-.7036-.1761a2.5622,2.5622,0,0,1,.3152-.9334c1.4325-2.5174,4.8259-3.931,8.4742-5.2737L61.4275,39.7284a20.7435,20.7435,0,0,1,4.7417-1.3452A29.1911,29.1911,0,0,1,67.178,46.41c.2609,7.4232.2491,15.2783.2379,22.8745-.0113,7.66-.0231,15.5808.2419,23.1333a3.5365,3.5365,0,0,0,7.0686-.2482c-.2608-7.4231-.2491-15.2782-.2378-22.8745.0108-7.3263.0192-14.8874-.2117-22.14a69.8408,69.8408,0,0,0,10.7557-1.342c3.3708-.6916,7.6934-1.8417,11.2307-4.6183a22.0739,22.0739,0,0,0,7.1192-10.9772A58.3862,58.3862,0,0,0,105.3865,18.5447Z"/><path class="cls-2" d="M93.036,120.4428c-.8936.0271-1.7873.0842-2.6808.0816-.5079-.0015-1.2181.2033-1.2973-.599a1.2622,1.2622,0,0,1,1.0444-1.4551c.7353-.08,1.5161.3155,2.2639.2726a2.6208,2.6208,0,0,0,2.3588-1.5689c.409-.9877-.4575-1.3253-1.1735-1.6728-1.649-.8-1.2476-1.7381-.2587-2.8411a3.6243,3.6243,0,0,0,1.0517-3.6691c-.62-1.5958-2.114-.5688-3.245-.6694-1.0817-.0962-2.1805-.6173-3.2114-.4841-.89.115-2.5211-.865-2.6525.9951-.139,1.9666,1.557,1.19,2.3406,1.0864,1.3-.1714,2.4113.1538,2.6044,1.2737.2343,1.3605-.9972,1.2621-2.0672,1.3568-1.4174.1255-3.053.5587-1.1459,2.39,1.3486,1.2947.2169,2.2445-.3813,3.211-2.5159,4.0639-2.2388,4.6323,2.5783,4.9848.78.057,1.5625.07,3.0731.1336-.1678.0058.3906-.0058.948-.0344.9518-.049,2.1326.2849,2.0048-1.3959C95.0779,120.3587,94.0721,120.4114,93.036,120.4428Z"/><path class="cls-2" d="M66.1507,115.824a15.4921,15.4921,0,0,1-2.6665-.2964c-1.1414-.252-2.9686.8367-3.1935-1.34-.2112-2.0455,1.4039-1.9279,2.74-1.965.9315-.0258,1.4541-.2858,1.3776-1.3592-.076-1.0674-.8257-.815-1.4282-.8415-.5574-.0245-1.1184.0292-1.6776.052-4.07.1436-4.7618.9732-4.1767,5.1068a38.484,38.484,0,0,1,.7624,4.9551c.019,2.3269.9715,3.661,3.27,3.7965,1.7022.1,4.2095,1.8361,4.9405-.4564.9-2.8227-2.27-1.8276-3.6517-2.4857-.6372-.3035-1.3206-.5027-1.3172-1.2818.0041-.9335.8247-.91,1.4742-.9373,1.1177-.0479,2.2381-.042,3.3574-.0439.9037-.0014,1.511-.2819,1.467-1.3381C67.3921,116.53,67.2119,115.87,66.1507,115.824Z"/><path class="cls-2" d="M45.7087,110.9079c-2.603.5208-2.07,2.2331-1.9543,3.95a26.072,26.072,0,0,1-.1363,2.897c.2523,1.784.5693,3.8.812,5.8257.1467,1.2235.443,2.2769,1.9707,2.061,1.5885-.2245,1.0467-1.565.9439-2.3976-.2678-2.169.171-3.4508,2.7229-3.3951a2.9215,2.9215,0,0,0,2.9051-1.7668,6.0415,6.0415,0,0,0-1.1567-6.2534C50.0377,109.5959,47.93,110.4635,45.7087,110.9079Zm2.7993,6.3312c-.8726-.0286-2.137.5053-1.9018-1.3017.1583-1.2173-.03-2.6393,1.709-2.7019,1.4434-.0518,1.566,1.3258,2.02,2.1835C50.4946,116.9051,49.6539,117.2766,48.508,117.2391Z"/><path class="cls-2" d="M103.2635,108.3007c-3.02.3178-3.0925,2.7271-3.1916,4.7569.1223,3.7963,2.5243,6.0352,6.091,5.934,2.6444-.0751,4.2828-2.01,4.2026-4.9634C110.2947,111.42,106.195,107.9923,103.2635,108.3007Zm2.544,7.5853c-1.7732.0373-2.6172-1.078-2.8428-2.6857-.1394-.9926.2318-1.9741,1.3945-1.7782a3.9183,3.9183,0,0,1,3.1058,2.6425C107.4185,115.222,106.844,115.8641,105.8075,115.886Z"/><path class="cls-2" d="M116.458,107.8459c-3.02.3177-3.0923,2.727-3.1915,4.7569.1223,3.7963,2.5243,6.0351,6.0911,5.934,2.6443-.0751,4.2828-2.01,4.2025-4.9634C123.4893,110.9653,119.39,107.5375,116.458,107.8459Zm2.544,7.5852c-1.773.0374-2.6171-1.0779-2.8427-2.6856-.1394-.9926.2318-1.9741,1.3945-1.7782A3.9182,3.9182,0,0,1,120.66,113.61C120.6131,114.7672,120.0386,115.4093,119.002,115.4311Z"/><path class="cls-2" d="M3.5863,108.4069c-1.0912-.1226-2.3516.3278-2.3777,1.33-.0272,1.0361,1.32,1.17,2.3032,1.333,4.9462.82,4.9429.8317,4.9989,5.8091a6.8124,6.8124,0,0,0,.09,2.0041c.4906,1.4775-1.2793,4.2936,1.5393,4.271,3.0232-.0242,1.0956-2.7476,1.3141-4.2329.4791-3.2565-1.3413-7.41,3.7214-8.719.21-.0544.3062-.551.4783-.8863C11.6865,107.6977,7.5743,108.8553,3.5863,108.4069Z"/><path class="cls-2" d="M75.9424,112.2011c-.0121-.8179-.06-1.6467-1.109-1.6948-.8122-.0373-1.5981.2613-1.7218,1.206a29.2785,29.2785,0,0,0-.2749,7.62,1.7356,1.7356,0,0,0,1.7281,1.691c1.2337.0353,1.3721-.9167,1.373-1.839.0012-1.2183-.0733-2.4367-.1153-3.655l.2289-.0081C76.0133,114.4147,75.9586,113.3082,75.9424,112.2011Z"/><path class="cls-2" d="M37.8557,115.142c-1.22-1.2735,1.6247-4.5263-1.8152-4.3066-2.711.1732-1.2744,3.0469-1.2233,4.6.0467,1.415-1.2362,4.3245,1.6871,4.1031C39.4843,119.3128,37.04,116.6231,37.8557,115.142Z"/><path class="cls-2" d="M25.7578,110.8911c-.7515-1.5939-3.0162-1.1666-3.8.7111-1.1557,2.7693-2.1022,5.6259-3.1425,8.4437-.2822.764-.4871,1.505.4159,2.0173.7352.4172,1.236,0,1.7587-.4648,2.3294-2.0689,4.4276-1.8256,5.9609.8817.6237,1.1011,1.3586,1.0058,2.2079.7563a1.3045,1.3045,0,0,0,1.0661-1.533C28.7557,118.09,27.4187,114.4141,25.7578,110.8911ZM22.76,116.8867l1.0806-2.868.9425-.0325.8368,3.7455Z"/></svg>