<svg xmlns="http://www.w3.org/2000/svg" viewBox="0 0 102 103"><defs><style>.cls-1{fill:none;stroke:#fb7d62;stroke-miterlimit:10;}</style></defs><title>logo</title><g id="圖層_1" data-name="圖層 1"><path class="cls-1" d="M49.503,40.1212a2.7547,2.7547,0,1,0-2.7542,2.6973A2.7738,2.7738,0,0,0,49.503,40.1212Z"/><path class="cls-1" d="M84.8441,16.2921,85.5906,9.08a2.7126,2.7126,0,0,0-2.4624-2.9556A2.7415,2.7415,0,0,0,80.11,8.5358l-.7465,7.2125A39.7171,39.7171,0,0,1,78.0246,23.59a11.7156,11.7156,0,0,1-3.6869,5.7344,15.9315,15.9315,0,0,1-6.4521,2.4811,49.841,49.841,0,0,1-7.6435.9257c-.0914-.6074-.2081-1.2178-.3629-1.8271a2.6444,2.6444,0,0,0,.0952-.7914q-.0651-2.0611-.1047-4.1328c.088-.0142.1762-.0311.2641-.054a15.0446,15.0446,0,0,0,2.4165-.9007,24.5277,24.5277,0,0,0,8.226-5.5211A12.3,12.3,0,0,0,74.11,9.22a2.7509,2.7509,0,0,0-3.1982-2.177,2.7023,2.7023,0,0,0-2.2229,3.1323,6.9864,6.9864,0,0,1-2.0261,5.7409,19.4811,19.4811,0,0,1-6.4172,4.2092c-.1474.0664-.2974.1325-.4479.1971-.02-4.0419.0221-8.0871.133-12.1015a2.7546,2.7546,0,0,0-5.5061-.1458c-.1643,5.9488-.1839,11.9642-.0638,17.9383a19.3817,19.3817,0,0,0-5.6548,1.3734l-8.2427,2.9708a126.2565,126.2565,0,0,1-.1709-22.5167,2.7544,2.7544,0,0,0-5.4907-.4327q-.404,4.9177-.4345,9.87c-1.4137-.1924-2.83-.4224-4.224-.69a10.929,10.929,0,0,1-3.485-1.0939,6.5788,6.5788,0,0,1-2.525-3.3736A23.0331,23.0331,0,0,1,23.0688,6.82a2.7419,2.7419,0,0,0-3.0559-2.3653,2.7106,2.7106,0,0,0-2.4151,2.9929A27.2751,27.2751,0,0,0,18.9627,13.98a11.8,11.8,0,0,0,4.7921,6.0989,15.766,15.766,0,0,0,5.329,1.8037c1.7681.34,3.57.6234,5.3608.8488q.0786,2.255.2345,4.5047a2.8206,2.8206,0,0,0-.8387-.0739,26.6721,26.6721,0,0,1-15.48-3.8114A12.9456,12.9456,0,0,1,13.57,18.8182a18.916,18.916,0,0,1-1.4859-4.2036l-1.64-6.0511a2.7607,2.7607,0,0,0-3.3686-1.915A2.6925,2.6925,0,0,0,5.12,9.9476l1.64,6.0513A23.5476,23.5476,0,0,0,8.731,21.396a18.1528,18.1528,0,0,0,6.7146,6.532,32.344,32.344,0,0,0,16.7481,4.681q1.0025,0,2.0046-.0636a2.8132,2.8132,0,0,0,.29-.0341l-8.2827,2.9853c-2.8993,1.0451-7.2808,2.6245-9.4847,6.4172-1.2675,2.1814-1.5689,5.4328.7648,7.4169a6.8537,6.8537,0,0,0,3.0885,1.3543,49.2223,49.2223,0,0,0,9.5875,1.4972c.4038.0108.8043.0129,1.1915.015a8.6177,8.6177,0,0,1,3.8177.5245,1.3156,1.3156,0,0,1,.196.1293,5.7546,5.7546,0,0,1-.0059,1.1119c-.1951,2.86-.3548,6.8985-.5094,10.804-.1531,3.8686-.3116,7.8689-.5015,10.6535a2.7172,2.7172,0,0,0,2.5644,2.8712q.0939.006.1863.0061A2.7313,2.7313,0,0,0,39.8465,75.78c.195-2.86.3548-6.8986.5094-10.804.1531-3.8687.3116-7.869.5015-10.6534a6.9883,6.9883,0,0,0-.7337-4.2109,5.8522,5.8522,0,0,0-2.2254-2.0772,12.8994,12.8994,0,0,0-6.5154-1.2321c-.3742-.0019-.7277-.0036-1.0714-.0128a45.0184,45.0184,0,0,1-8.5-1.3616c-.1456-.0329-.3714-.0838-.548-.1344a1.9266,1.9266,0,0,1,.2455-.7119c1.1156-1.92,3.7584-2.9983,6.6-4.0224l22.5-8.11a16.4263,16.4263,0,0,1,3.6928-1.0261,21.8284,21.8284,0,0,1,.7858,6.1225c.2031,5.6619.194,11.6533.1852,17.4473-.0088,5.8426-.0179,11.8839.1884,17.6445a2.7548,2.7548,0,0,0,5.5051-.1893c-.2032-5.6619-.194-11.6532-.1852-17.4472.0084-5.588.0149-11.3552-.1649-16.8873A55.4722,55.4722,0,0,0,68.9924,37.09,20.9748,20.9748,0,0,0,77.739,33.568a16.8134,16.8134,0,0,0,5.5444-8.3728A43.6955,43.6955,0,0,0,84.8441,16.2921Z"/><path class="cls-1" d="M75.2255,94.0134c-.6959.0207-1.3919.0643-2.0878.0622-.3955-.0011-.9486.1551-1.01-.4568a.9655.9655,0,0,1,.8133-1.11c.5727-.0611,1.1808.2406,1.7631.208A2.0423,2.0423,0,0,0,76.5409,91.52c.3186-.7533-.3563-1.0109-.9139-1.2759-1.2843-.61-.9717-1.3257-.2014-2.167a2.7277,2.7277,0,0,0,.819-2.7985c-.4827-1.2173-1.6464-.4339-2.5272-.5106a12.7593,12.7593,0,0,0-2.501-.3693c-.6932.0877-1.9635-.66-2.0658.759-.1083,1.5,1.2125.9075,1.8228.8287,1.0129-.1308,1.878.1173,2.0283.9714.1825,1.0377-.7766.9627-1.61,1.0349-1.1039.0957-2.3777.4262-.8924,1.8228,1.05.9875.1689,1.712-.297,2.4491-1.9594,3.1-1.7436,3.5333,2.008,3.8021.6072.0435,1.2169.0531,2.3933.1019-.1306.0045.3042-.0044.7383-.0262.7413-.0373,1.6609.2173,1.5614-1.0647C76.8158,93.9493,76.0324,93.99,75.2255,94.0134Z"/><path class="cls-1" d="M54.2872,90.4905a12.3073,12.3073,0,0,1-2.0767-.2261c-.8889-.1922-2.312.6382-2.4871-1.0218-.1645-1.56,1.0933-1.47,2.1338-1.4987.7255-.02,1.1325-.218,1.0729-1.0367-.0591-.8141-.6431-.6217-1.1123-.6419-.4341-.0186-.871.0223-1.3065.04-3.17.11-3.7085.7423-3.2528,3.8951a28.8139,28.8139,0,0,1,.5938,3.7795c.0148,1.7748.7566,2.7923,2.5462,2.8957,1.3257.0765,3.2784,1.4,3.8477-.3481.7009-2.153-1.7681-1.394-2.8439-1.896-.4963-.2315-1.0285-.3834-1.0258-.9776.0031-.712.6422-.6938,1.148-.7149.87-.0366,1.7431-.0321,2.6148-.0335.7037-.0011,1.1768-.215,1.1425-1.0207C55.254,91.0286,55.1136,90.5253,54.2872,90.4905Z"/><path class="cls-1" d="M38.3669,86.7408c-2.0272.3972-1.6121,1.7033-1.522,3.0125a19.4674,19.4674,0,0,1-.1062,2.21c.1965,1.3607.4434,2.8987.6324,4.4435.1143.9331.345,1.7366,1.5348,1.5719,1.2371-.1712.8151-1.1936.7351-1.8287-.2086-1.6544.1332-2.6321,2.1206-2.59a2.2809,2.2809,0,0,0,2.2625-1.3476,4.5358,4.5358,0,0,0-.9008-4.77C41.7383,85.74,40.0967,86.4019,38.3669,86.7408Zm2.18,4.8291c-.68-.0219-1.6643.3854-1.4812-.9929.1233-.9284-.0236-2.0131,1.331-2.0608,1.1242-.04,1.22,1.0112,1.5728,1.6654C42.0941,91.3151,41.4394,91.5985,40.547,91.57Z"/><path class="cls-1" d="M83.1907,84.7522c-2.3516.2424-2.4084,2.08-2.4856,3.6283a4.33,4.33,0,0,0,4.7437,4.526c2.06-.0572,3.3355-1.5331,3.273-3.7857C88.6667,87.1315,85.4738,84.517,83.1907,84.7522Zm1.9813,5.7856a2.07,2.07,0,0,1-2.214-2.0485c-.1086-.7571.1806-1.5057,1.0861-1.3563a3.0347,3.0347,0,0,1,2.4188,2.0155C86.4267,90.0314,85.9792,90.5211,85.172,90.5378Z"/><path class="cls-1" d="M93.4667,84.4053c-2.3517.2423-2.4084,2.08-2.4856,3.6282A4.33,4.33,0,0,0,95.7248,92.56c2.06-.0572,3.3355-1.5332,3.273-3.7857C98.9427,86.7846,95.75,84.17,93.4667,84.4053Zm1.9812,5.7855a2.0694,2.0694,0,0,1-2.2139-2.0484c-.1085-.7571.1806-1.5057,1.0861-1.3563a3.0347,3.0347,0,0,1,2.4188,2.0155C96.7027,89.6845,96.2552,90.1742,95.4479,90.1908Z"/><path class="cls-1" d="M5.5619,84.8332c-.85-.0935-1.8315.25-1.8518,1.0141-.0212.79,1.0277.8923,1.7937,1.0168,3.8522.6258,3.85.6344,3.8931,4.4308a5.0966,5.0966,0,0,0,.07,1.5286c.3821,1.1269-.9963,3.2749,1.1989,3.2576,2.3544-.0184.8532-2.0957,1.0233-3.2285.3732-2.4839-1.0446-5.6523,2.8983-6.65.1637-.0414.2384-.42.3725-.6759C11.87,84.2923,8.6677,85.1752,5.5619,84.8332Z"/><path class="cls-1" d="M61.913,87.7272c-.0094-.6238-.0465-1.256-.8637-1.2927-.6325-.0285-1.2446.1993-1.341.92a21.882,21.882,0,0,0-.2141,5.8122,1.3388,1.3388,0,0,0,1.3459,1.29c.9608.0269,1.0686-.6991,1.0693-1.4027.0009-.9292-.0571-1.8585-.09-2.7878l.1783-.0062C61.9682,89.4156,61.9256,88.5716,61.913,87.7272Z"/><path class="cls-1" d="M32.251,89.97c-.95-.9714,1.2652-3.4524-1.4138-3.2848-2.1113.1321-.9924,2.324-.9526,3.5085.0363,1.0793-.9628,3.2985,1.3138,3.13C33.5193,93.1515,31.6153,91.1,32.251,89.97Z"/><path class="cls-1" d="M22.8291,86.728c-.5853-1.2157-2.3491-.89-2.96.5424-.9,2.1122-1.6372,4.2911-2.4474,6.44-.22.5827-.3793,1.1479.3239,1.5387.5726.3182.9626,0,1.37-.3546,1.8142-1.578,3.4483-1.3924,4.6424.6725.4857.84,1.058.7672,1.72.5769a.9975.9975,0,0,0,.83-1.1693C25.1638,92.2188,24.1226,89.4151,22.8291,86.728Zm-2.3344,4.5731.8416-2.1876.734-.0248.6516,2.8569Z"/></g></svg>