<svg id="圖層_1" data-name="圖層 1" xmlns="http://www.w3.org/2000/svg" viewBox="0 0 52.7492 16.159"><defs><style>.cls-1{fill:#efe7e4;}.cls-2{fill:#313a39;}</style></defs><title>passport-titlebg</title><rect class="cls-1" x="1.3753" width="51.3739" height="14.7839" rx="7.3919"/><path class="cls-2" d="M44.67,16.159H7.0481A7.0561,7.0561,0,0,1,0,9.1109V8.0794A7.0561,7.0561,0,0,1,7.0481,1.0313H44.67a7.0561,7.0561,0,0,1,7.0481,7.0481V9.1109A7.0561,7.0561,0,0,1,44.67,16.159ZM7.0481,1.3751A6.7121,6.7121,0,0,0,.3438,8.0794V9.1109a6.7121,6.7121,0,0,0,6.7043,6.7043H44.67a6.712,6.712,0,0,0,6.7043-6.7043V8.0794A6.712,6.712,0,0,0,44.67,1.3751Z"/></svg>