<svg id="圖層_1" data-name="圖層 1" xmlns="http://www.w3.org/2000/svg" viewBox="0 0 150.7709 138.3357"><defs><style>.cls-1{opacity:0.38;}.cls-2{fill:#343170;}</style></defs><title>select-line</title><g class="cls-1"><path class="cls-2" d="M.5806,136.12c27.6663-3.5084,54.0439-14.6656,77.3556-29.729a228.569,228.569,0,0,0,33-25.8883q7.5957-7.1851,14.4685-15.0823A95.9919,95.9919,0,0,0,137.8814,48.106c3.8729-7.207,5.67-14.9621,6.9191-22.99,1.2849-8.2563,2.2926-16.6823,5.8666-24.3345.2773-.5937-.6056-1.1146-.8847-.5171-6.0682,12.9926-4.8045,27.8736-9.9272,41.149-5.13,13.2947-15.51,24.3694-25.4485,34.2888A221.5288,221.5288,0,0,1,45.5721,122.535,168.7185,168.7185,0,0,1,.5806,135.0956c-.6453.0818-.6535,1.1074,0,1.0245Z"/></g></svg>