<svg id="圖層_1" data-name="圖層 1" xmlns="http://www.w3.org/2000/svg" viewBox="0 0 216.8718 200.8072"><defs><style>.cls-1{fill:#fff;}</style></defs><title>select-hippo</title><path class="cls-1" d="M49.4892,104.8072c.0092-.008.0189-.0134.028-.0221,2.91-2.8094,7.8684-3.7184,11.6352-4.8945,3.7264-1.1635,7.4854-2.2249,11.2773-3.1537a132.7306,132.7306,0,0,1,23.9855-3.7528,92.2483,92.2483,0,0,1,24.0034,1.6087,46.5019,46.5019,0,0,1,10.9765,3.5179c3.5381,1.726,6.5013,4.3842,10.058,6.0663.7221.3415,1.3563-.7341.63-1.0776-2.9018-1.3724-5.3555-3.4408-8.123-5.04a37.9985,37.9985,0,0,0-8.2273-3.4356,79.5734,79.5734,0,0,0-18.9179-2.9614c-13.1174-.5987-26.2458,1.52-38.8762,4.9451-3.6386.9868-7.2463,2.0862-10.8245,3.273-2.9627.9829-6.1771,1.799-8.4794,4.0216a.5883.5883,0,0,0-.1789.3213c-6.0735-.8509-7.0853-9.1576-10.52-13.0945a13.7145,13.7145,0,0,0-12.5179-4.7105,11.688,11.688,0,0,0-9.3619,8.8672c-1.0287,5.0052.2138,12.1892,3.4947,16.2253,1.6707,2.0552,4.1308,2.6964,6.6653,2.9775a54.4983,54.4983,0,0,1,10.9667,2.0243c-4.9524,5.2126-9.84,10.5155-13.2,16.9329a85.5055,85.5055,0,0,0-6.5715,18.3719c-1.6965,6.55-3.1066,13.1842-5.218,19.62C9.946,178.2865,1.9858,193.8975,0,200.8072a.6245.6245,0,0,0,1.2034.3317c1.9211-6.6842,9.7543-22.111,11.9771-28.7191,2.0861-6.2017,3.4869-12.6026,5.0928-18.9379,1.629-6.4267,3.4658-12.8677,6.4764-18.8034,3.3694-6.6427,8.3629-12.0734,13.4528-17.428a.5957.5957,0,0,0,.0518-.7861.6543.6543,0,0,0-.2979-1.0161,41.6306,41.6306,0,0,0-9.8068-2.0365c-3.8915-.3426-7.0749-.931-8.8877-4.7949-2.9213-6.2268-4.023-15.6059,2.8235-19.6323,6.1-3.5875,13.4533-.2719,16.6893,5.5363,2.4557,4.4076,4.1606,10.55,10.13,11.0039A.5576.5576,0,0,0,49.4892,104.8072Z"/><path class="cls-1" d="M217.7335,149.2122a66.3442,66.3442,0,0,0-4.9029-10.9151,35.86,35.86,0,0,0-7.3519-8.8817c-2.5412-2.4145-5.405-4.6691-8.95-5.279-4.239-.7293-8.8974.0789-13.1552.3637a125.4549,125.4549,0,0,1-15.4824.4284c-4.808-.2746-9.9239-1.6433-12.5125-5.9593-.0947-.2977-.2-.6048-.3048-.9246-.1494-.454-.6259-1.0575-.7665-1.5754a11.0246,11.0246,0,0,0-2.5878-5.6069,15.4338,15.4338,0,0,0,5.9507-2.7393c1.4778-1.1508,3.4367-2.7933,4.0739-4.6314,1.25-3.6053-1.5827-9.0416-4.2775-11.3282-2.8513-2.42-7.0437-3.09-10.1143-.6721-3.9963,3.147-1.6994,8.3059-4.4623,11.9363-.4862.639.5971,1.2614,1.0777.63,1.8162-2.3866,1.2877-5.2583,1.96-8.0086,1.1066-4.528,5.9769-6.0676,9.7859-3.636,2.8909,1.8455,5.8234,6.9461,4.8169,10.45-1.0054,3.5-5.8407,6.2214-9.2008,6.7271a.5209.5209,0,0,0-.3454.1867.674.674,0,0,0-.3853.781c-1.4323-.6125-3.1106-.9375-4.39-1.3591a.5315.5315,0,0,0-.6238.1827.6229.6229,0,0,0-.3138-.0978c-3.7889-.1685-6.2707,1.7694-5.6283,5.46.3241,1.8626,1.0746,4.9714,2.547,6.1254a43.3418,43.3418,0,0,0,3.6762,2.3965,11.7546,11.7546,0,0,0,2.9959,1.7418c1.7308.4362,4.3594-1.1572,5.67-2.1541a2.8449,2.8449,0,0,0,1.0878-1.4363c3.7977,4.2217,10.2522,4.8366,15.7939,4.8411,1.2164.0009,2.4321-.0229,3.6473-.0618a31.9954,31.9954,0,0,0-4.6965,3.1777,48.8856,48.8856,0,0,1-10.4954,6.106c-8.1345,3.3167-16.9511,2.9084-25.5452,2.4161-.8025-.046-.8,1.2022,0,1.248,8.2137.4706,16.6967.8971,24.5655-1.9556a44.8492,44.8492,0,0,0,9.507-4.9083c3.1762-2.1138,6.509-5.8655,10.5914-5.7695a.5624.5624,0,0,0,.5954-.5227c1.6763-.0972,3.3518-.21,5.0267-.3236,4.3006-.2906,9.5021-1.3121,13.6443.2177,3.7032,1.3677,6.6189,4.5694,9.2995,7.349,2.9247,3.0327,4.7269,6.5933,6.5253,10.36,1.8828,3.9435,3.4386,8.012,3.649,12.4222.2151,4.51-.65,8.98-1.4948,13.388a33.6708,33.6708,0,0,1-4.82,12.8991c-2.6173,3.9227-9.9984,10.1249-13.3064,13.4794-.5645.5723.3174,1.4554.8825.8824,5.55-5.6278,15.5252-14.8,17.5235-22.6111C218.5369,166.1406,220.2791,157.1777,217.7335,149.2122Zm-63.3678-29.3309c.0863,2.4465-3.7163,4.2569-5.8088,3.6069-1.2622-.392-2.6463-1.6673-3.7782-2.3833-1.2888-.8152-2.1772-2.857-2.9793-4.2044-1.9355-3.2512-.6777-6.5534,3.4718-6.369a.5416.5416,0,0,0,.4655-.1945.6784.6784,0,0,0,.14.065,35.49,35.49,0,0,1,4.5485,1.3229c1.7252.8626,1.9987,2.2584,2.5779,4.0179.1059.3218.2539.687.4126,1.0706a11.25,11.25,0,0,1,.06,1.1377.5637.5637,0,0,0,.36.55.6286.6286,0,0,0,.0641.3811c.1386.2785.2882.5429.4428.8012C154.35,119.7489,154.3634,119.8181,154.3657,119.8813Z"/><path class="cls-1" d="M73.9469,115.8706c-1.05-.9866-2.883-2.1583-4.4-1.794a2.1069,2.1069,0,0,0-.9489.5052.6238.6238,0,0,0-1.1253-.1273c-1.71,3.065-3.51,7.3877-.2024,10.1026,1.4926,1.225,5.0312,2.4454,7.0427,1.4074-1.17,2.1646-4.26,3.5881-6.49,3.8649-.7866.0976-.7964,1.3469,0,1.248,3.0682-.381,7.09-2.3666,8.0265-5.5677a.5692.5692,0,0,0-.3668-.7205C77.154,121.9888,76.2284,118.015,73.9469,115.8706ZM72.46,125.0069c-1.8745.1264-4.3735-.8818-5.2628-2.5281-.9482-1.7556-.5092-3.5921.2674-5.3045-.1428.7837,1.0576,1.1191,1.2036.33a2.1122,2.1122,0,0,1,3.0894-1.6852,6.4279,6.4279,0,0,1,2.34,2.1646C75.3848,120.042,75.8524,124.7783,72.46,125.0069Z"/><path class="cls-1" d="M151.8358,121.12a12.43,12.43,0,0,1-2.6321-1.6723,2.6888,2.6888,0,0,0,1.8447-.9032c1.1665-1.3506.6419-3.2789-.5093-4.4515a9.2218,9.2218,0,0,0-5.7668-2.3653.5412.5412,0,0,0-.56.7424.5049.5049,0,0,0-.3132.6773c.7094,1.9438,1.0587,4.25,2.84,5.5877.0167.0126.0348.0233.0518.0355a13.104,13.104,0,0,0,4.4244,3.3881C151.9248,122.4931,152.5486,121.4562,151.8358,121.12Zm-2.04-3.1192a1.94,1.94,0,0,1-2.2347-.1978c-.0494-.06-.1011-.1163-.15-.177a.5281.5281,0,0,0-.2946-.1969,4.09,4.09,0,0,1-.5953-.7444,18.3261,18.3261,0,0,1-1.388-3.7137,8.7271,8.7271,0,0,1,3.4933,1.1688C149.77,114.8356,151.57,116.8994,149.7954,118.0008Z"/><path class="cls-1" d="M85.0886,141.5148c-.6285.5.26,1.3775.8825.8824a16.0482,16.0482,0,0,0,6.038-13.5718c-.0481-.7981-1.2964-.8036-1.248,0A14.9,14.9,0,0,1,85.0886,141.5148Z"/><path class="cls-1" d="M92.7585,142.2242a12.3913,12.3913,0,0,1,5.8657-6.3539c.714-.3683.0835-1.4456-.63-1.0776a13.69,13.69,0,0,0-6.4392,7.1C91.252,142.6357,92.4589,142.9592,92.7585,142.2242Z"/><path class="cls-1" d="M40.7175,108.7258c-3.6217-.8855-4.5017-4.8652-6.6456-7.4069a9.2146,9.2146,0,0,0-3.446-2.5133c-.7442-.3263-2.0363-1.0826-2.8759-.7314a.6647.6647,0,0,0-.4581.6017c-.1345,1.5349.679,3.5231,1.2279,4.9388a10.8531,10.8531,0,0,0,2.7761,4.2508,9.4046,9.4046,0,0,0,8.6077,1.9927.6859.6859,0,0,0,.1005-.0363c.125.039.2516.0756.3816.1073C41.1658,110.12,41.4986,108.9169,40.7175,108.7258Zm-8.9655-2.15a10.5463,10.5463,0,0,1-2.255-3.9128,14.6865,14.6865,0,0,1-.9533-3.4416c1.2849.0977,3.5867,1.841,4.2134,2.4893a21.94,21.94,0,0,1,2.6368,3.988,10.795,10.795,0,0,0,2.7568,3.1884A7.95,7.95,0,0,1,31.752,106.5757Z"/><path class="cls-1" d="M149.008,107.7653a19.5169,19.5169,0,0,0,5.1989-5.5477c.9343-1.5312,2.5237-4.2519.6835-5.7493-3.8488-3.1317-6.0144,8.5972-7.0118,10.156a.57.57,0,0,0,.2821.8553A.5363.5363,0,0,0,149.008,107.7653Zm3.3472-9.2q.5431-1.2825,1.9366.7366a14.7079,14.7079,0,0,1-.8257,1.71,16.6993,16.6993,0,0,1-3.6768,4.5272c.2582-.7031.45-1.4293.6518-2.191C150.8278,101.8882,151.23,99.6076,152.3552,98.5657Z"/><path class="cls-1" d="M146.09,131.8976a.6245.6245,0,0,0-.63-1.0776c-7.5168,4.554-16.3674,3.4232-24.4672,1.28a.6245.6245,0,0,0-.3318,1.2034C129.079,135.5309,138.2927,136.6215,146.09,131.8976Z"/><path class="cls-1" d="M122.4784,143.8624c.4208-.6868-.6582-1.3144-1.0776-.63-1.282,2.0922-4.39.8038-6.3169.717-.803-.0361-.8012,1.212,0,1.2481C117.6115,145.3113,120.8222,146.5654,122.4784,143.8624Z"/><path class="cls-1" d="M108.0047,146.6193c-.288-.74-1.4953-.4184-1.2034.3318,1.7056,4.3832,7.8571,4.25,11.79,4.7861,4.4067.6009,7.7067-1.5343,10.3665-4.9113.4916-.6243-.3857-1.5134-.8825-.8826-2.1712,2.7568-4.9108,4.9782-8.6113,4.6549-1.9387-.1694-3.9029-.5613-5.8231-.8715C111.4472,149.3724,108.9261,148.9872,108.0047,146.6193Z"/><path class="cls-1" d="M190.025,133.2867c.5946-.5426-.29-1.4231-.8825-.8825-1.9014,1.7349-4.5973,1.6166-7.0021,1.4829-.8024-.0447-.8,1.2036,0,1.2481C184.9232,135.29,187.85,135.2709,190.025,133.2867Z"/><path class="cls-1" d="M181.1568,141.5157c5.245.1248,14.0241-.7627,15.6591-6.9841a.6246.6246,0,0,0-1.2035-.3319c-1.4669,5.5817-9.8009,6.1787-14.4556,6.0679A.6244.6244,0,0,0,181.1568,141.5157Z"/><path class="cls-1" d="M211.4139,174.1665c1.6563-1.3259,3.3715-5.1063,3.5619-7.3642.0675-.8-1.1809-.7959-1.248,0-.1937,2.2961-3.471,6.71-5.1084,8.0039-1.8837,1.4888-3.7861,2.9548-5.7321,4.3618a74.9771,74.9771,0,0,1-11.5594,7.0471,42.0565,42.0565,0,0,1-13.842,3.9724,146.87,146.87,0,0,1-14.9254.3514q-1.3777,0-2.7561-.001c-.1128-1.6223-.4175-3.98.584-4.9969,1.2425-1.261,4.1508-1.15,5.7854-1.1643,1.6928-.0145,3.3868.0191,5.08.0318,2.8011.0211,2.9968,2.4644,3.5455,4.6892a.6246.6246,0,0,0,1.2035-.3317c-.4084-1.6561-.6587-5.2209-2.73-5.5692a41.7786,41.7786,0,0,0-8.1069-.05c-1.87.0749-4.5458.2951-5.9612,1.7171a2.22,2.22,0,0,0-.6151,1.4924,31.8013,31.8013,0,0,0-.011,4.1807q-1.7355,0-3.4707-.0014a.5633.5633,0,0,0-.0159-.5879c-.8212-1.3922-1.959-3.6623-3.524-4.3725a5.86,5.86,0,0,0-2.4377-.2517c-1.5221-.0037-3.0445.0124-4.5666.0186-1.9427.0079-4.2575-.2147-6.0557.6936a3.7839,3.7839,0,0,0-1.5015,1.2424c-.5708.89-.179,1.7613-.52,2.7019a.5334.5334,0,0,0,.0109.4281c-1.7649-.0253-3.53-.048-5.2942-.0847-10.1507-.2113-20.1285-1.34-29.7148-4.851-4.8053-1.76-9.4726-4.1571-12.8487-8.1038-3.0919-3.6144-4.9782-8.0574-6.6877-12.464,5.2916,6.1993,11.3653,11.9,18.9827,15.0709a29.3512,29.3512,0,0,0,12.6134,2.3742c4.754-.2254,9.4419-1.5732,14.0435-2.6923,4.9262-1.1982,9.833-2.4781,14.7071-3.874,5.1336-1.47,10.2451-3.1553,15.5856-3.686a147.0867,147.0867,0,0,1,15.1756-.2493l15.8041.0705c2.6307.0118,5.4432.1238,8.2724.0868a.5361.5361,0,0,0-.2547.5093,22.3134,22.3134,0,0,1,.073,3.2778c-.16,1.5024-.8366,1.5637-2.1855,1.9865a45.0469,45.0469,0,0,1-6.381,1.5051c-1.9145.3049-4.81.9842-6.7515.5518-2.4-.5344-2.53-4.7724-2.6092-6.7236-.0323-.8-1.28-.8045-1.248,0a19.7457,19.7457,0,0,0,.6032,4.2868c.2435.9185.6011,2.7187,1.4016,3.36.665.5325,1.839.3318,2.6243.3137a45.5527,45.5527,0,0,0,4.783-.3662,34.2024,34.2024,0,0,0,9.7385-2.3389c2.0885-.9683,1.2847-3.9517,1.2-5.8529a.5948.5948,0,0,0-.3243-.5215c6.1452-.135,12.3078-1.0673,16.7993-5.363.5816-.5563-.3017-1.438-.8825-.8826-6.25,5.9781-16.0673,4.9622-24.0263,4.9267-9.7939-.0437-19.6981-.5161-29.48.0025-9.164.4858-17.9293,3.9307-26.7445,6.2176-9.0531,2.3487-18.8387,5.8013-28.1823,3.2648-9.7872-2.657-17.2857-9.8723-23.5829-17.4786a.5611.5611,0,0,0-.9581.1634c-.4011-.0266-.8138.2759-.632.75,1.6765,4.3717,3.382,8.8232,6.1028,12.6716a26.3907,26.3907,0,0,0,10.3587,8.5c9.2584,4.4475,19.6779,6.1917,29.8589,6.6555,10.7783.4909,21.6107.3815,32.4046.3676a.69.69,0,0,0,.7526-.0008c.58,0,1.1607-.002,1.7406-.0017,10.2392.005,20.1661.2538,29.69-4.0578a77.003,77.003,0,0,0,14.1894-8.7306C207.311,177.4285,209.3682,175.8042,211.4139,174.1665Zm-73.78,16.26a.7008.7008,0,0,0,.0548-.1145,7.6825,7.6825,0,0,0,.1816-1.1845c.3574-1.5154.7516-1.9421,2.1932-2.31a22.7362,22.7362,0,0,1,5.33-.231c1.7136-.007,3.76-.2982,5.38.2635,1.5273.53,2.4137,2.3189,3.2148,3.6831Q145.8109,190.5218,137.6342,190.4267Z"/><path class="cls-1" d="M131.9509,186.1946a40.8067,40.8067,0,0,1-6.3321.9763c-3.506.4145-11.4627,1.659-11.9851-3.5752-.0791-.7918-1.3279-.8-1.248,0,.67,6.71,10.0288,5.2639,14.5262,4.6594,2.379-.32,6.1751-.205,7.8157-2.3429,1.7088-2.2267.4933-5.0859-.5969-7.2752-.3581-.719-1.4349-.0876-1.0776.63C134.2347,181.64,135.4894,185.1788,131.9509,186.1946Z"/><path class="cls-1" d="M60.6411,112.2031a.5807.5807,0,0,0-.8393-.244,44.2045,44.2045,0,0,0-8.7493,6.3177c-2.4241,2.4626-2.8367,5.6527-2.5276,8.9757.2728,2.9331.9485,6.7555,3.2174,8.8574,2.3058,2.1359,6.6025,2.3193,9.5733,2.5959,6.4417.6,13.5684-1.1062,16.7994-7.2518,2.704-5.1432,2.6046-12.6137-1.2566-17.1792C72.6634,109.3146,66.0037,109.6219,60.6411,112.2031Zm11.3241,23.6423c-3.5019,1.8128-7.5676,1.977-11.4123,1.532a33.921,33.921,0,0,1-5.6449-1.019c-2.4362-.72-3.4545-2.3544-4.205-4.6314-1.2137-3.6823-1.9535-8.91.7886-12.0959a25.28,25.28,0,0,1,5.6268-4.5694.5212.5212,0,0,0,.821.2346c5.9132-4.4222,15.7918-5.9054,19.4788,2.1895C80.3085,123.8312,78.395,132.5168,71.9652,135.8454Z"/><path class="cls-1" d="M139.67.8767a22.1178,22.1178,0,0,0-19.3791,3.4979c-.4949.369-.0116,1.2118.49.838a21.1881,21.1881,0,0,1,18.6313-3.4.4856.4856,0,0,0,.258-.9358Z"/><path class="cls-1" d="M135.2938,7.5517c.7566-1.7734,1.7811-3.899,3.4742-4.9658,2.1518-1.3558,4.4668-.5048,6.16,1.1758A15.6826,15.6826,0,0,1,148.2543,9.03c.7533,1.9954.46,3.6268.222,5.6952-.3429,2.9854,1.0018,6.4455,1.6828,9.315q1.2671,5.3393,2.7123,10.6334l.8869-.3738a51.2288,51.2288,0,0,1-4.3714-8.5821c-.9388-2.4008-1.5178-4.9469-2.5737-7.3-1.4931-3.3266-5.0184-6.7856-8.9553-4.9575-4.28,1.9874-3.42,8.9655-5.4216,12.5632-1.4807,2.6619-4.054,3.5265-6.5167,5.0088a36.0881,36.0881,0,0,0-6.3009,4.863c-.4526.4322.2343,1.1177.6862.6862a34.9937,34.9937,0,0,1,5.8007-4.524c1.6571-1.0214,3.5873-1.723,5.0982-2.9623,3.3643-2.76,3.3832-7.3954,4.6159-11.2168.5766-1.7875,1.4375-3.3963,3.4183-3.8107a5.0407,5.0407,0,0,1,4.23,1.2431c1.9117,1.626,2.7778,4.091,3.5208,6.406A56.9626,56.9626,0,0,0,152.92,34.79a.4874.4874,0,0,0,.8868-.3739q-1.8652-6.8647-3.4474-13.801c-.2679-1.1811-.58-2.37-.7821-3.5653a15.3169,15.3169,0,0,1,.218-4.2506,9.7847,9.7847,0,0,0-1.1-5.1585c-1.34-2.8125-3.6587-6.3069-7.04-6.7186-3.6917-.4495-5.9552,3.2213-7.2,6.14-.2424.568.5933,1.063.8379.49Z"/><path class="cls-1" d="M120.1367,35.1559c-2.2868,2.4733-3.8866,5.4774-6.2155,7.9437a37.7284,37.7284,0,0,1-8.0569,6.47,55.3338,55.3338,0,0,1-9.0827,3.9347c-2.7,1.0271-3.334,3.2179-4.4,5.71-.33.7711-.9841,3.196-2.07,1.3556a8.3583,8.3583,0,0,1-.3874-2.4185c-.09-.58-.0007-1.81-.6673-2.1808-1.32-.734-3.455,2.269-4.0761,3.1275a21.7089,21.7089,0,0,0-3.3459,8.7888c-.6309,3.2882-1.4475,6.853-.4023,10.1273.1892.5927,1.1264.3394.9357-.258-1.1707-3.6675-.0407-8.1526.8763-11.8038a20.7431,20.7431,0,0,1,1.6877-4.6127,13.3453,13.3453,0,0,1,1.4784-2.2339c.3176-.39,1.865-2.3181,2.3533-2.1834.2825.078.5053,3.4994.6118,3.9054a2.3688,2.3688,0,0,0,.9373,1.6015c1.6423.87,2.4012-1.526,2.8423-2.5723.9318-2.21,1.4334-4.4638,3.8841-5.4175,1.441-.5607,2.9371-.95,4.37-1.5456a38.2319,38.2319,0,0,0,7.2166-3.9578A38.8791,38.8791,0,0,0,114.84,43.54c2.2262-2.3963,3.7776-5.3122,5.9832-7.6977.4235-.458-.2611-1.146-.6862-.6862Z"/><path class="cls-1" d="M134.66,6.2092a43.3359,43.3359,0,0,1-4.67,10.7744c-2.38,3.8944-4.9321,7.322-9.8048,7.6908-3.71.2808-7.4537-.2665-11.1753-.0886a28.7174,28.7174,0,0,0-9.9293,2.0471C92.9879,29.2276,88.42,34.42,85.2059,40.0764a81.6643,81.6643,0,0,0-8.0659,21.02c-1.9244,8.0069-2.3457,16.4041.4575,24.2557.2084.584,1.1465.3323.9357-.2579-2.6581-7.4454-2.3743-15.3618-.6346-22.9847a79.6018,79.6018,0,0,1,8.3384-21.877c3.6784-6.356,9.1148-11.9044,16.4112-13.7832a41.5676,41.5676,0,0,1,11.8166-.89c3.2386.1115,6.74.5333,9.7887-.8448,2.9679-1.3417,4.9369-4.5608,6.5747-7.2406a44.3023,44.3023,0,0,0,4.7674-11.0062.4857.4857,0,0,0-.9358-.258Z"/><path class="cls-1" d="M80.9567,60.7877a25.6246,25.6246,0,0,0-.9675,20.9848c.2269.574,1.1658.3239.9357-.258a24.6737,24.6737,0,0,1,.87-20.237c.28-.5566-.5572-1.0485-.838-.49Z"/><path class="cls-1" d="M137.6742,2.0229c-8.4626.6444-16.5821,4.5426-20.6033,12.3139-.2866.5539.55,1.0453.8379.49C121.7726,7.36,129.5376,3.613,137.6742,2.9933c.6188-.0471.6239-1.018,0-.97Z"/><path class="cls-1" d="M136.6343,3.3368a33.6638,33.6638,0,0,0-10.2738,4.51c-3.006,1.9545-4.83,4.62-6.4805,7.7483-.2912.552.5461,1.043.838.49,1.6884-3.2006,3.5466-5.8422,6.6984-7.755a33.6954,33.6954,0,0,1,9.4759-4.0576c.6083-.14.3508-1.0759-.258-.9357Z"/><path class="cls-1" d="M98.32,53.6131a16.3139,16.3139,0,0,0-1.1261,4.9981c-.0221.3752.0166.7778-.0348,1.1485l-.0686.5861q-1.6934.2085-1.6316-.9694c-.2416-.7976-.0848-1.5781-.3922-2.386-.22-.5779-1.1585-.3272-.9358.258.4642,1.22.0605,2.7909.9067,3.8746a1.7793,1.7793,0,0,0,2.2269.587,2.3844,2.3844,0,0,0,.8684-2.1288,17.4575,17.4575,0,0,1,1.1229-5.71c.2274-.582-.7106-.8342-.9358-.258Z"/><path class="cls-1" d="M90.3548,62.998l-.8,32.5778a.4855.4855,0,0,0,.97,0l.8-32.5778a.4855.4855,0,0,0-.97,0Z"/><path class="cls-1" d="M96.3865,62.3109q-.0639,15.5354.804,31.0509c.0348.621,1.0054.6251.9705,0q-.8679-15.511-.8041-31.0509a.4855.4855,0,0,0-.97,0Z"/><path class="cls-1" d="M97.74,94.1167l7.4475,1.682c.6082.1374.8679-.798.258-.9357l-7.4475-1.682c-.6082-.1374-.8679.798-.258.9357Z"/><path class="cls-1" d="M96.9116,93.5085a26.2106,26.2106,0,0,0,1.0526,5.6428c.181.596,1.118.3419.9358-.2579a25.015,25.015,0,0,1-1.0179-5.3849c-.0474-.6187-1.0182-.6238-.97,0Z"/><path class="cls-1" d="M98.3538,94.9455a43.8409,43.8409,0,0,1,7.6647,4.6709c.4972.3777.9812-.4646.49-.8379a43.8361,43.8361,0,0,0-7.6647-4.6709c-.5609-.2675-1.0538.5689-.49.8379Z"/><path class="cls-1" d="M89.11,96.8807a29.521,29.521,0,0,1,3.345,3.1463c.4212.4629,1.1059-.2249.6862-.6862a29.5294,29.5294,0,0,0-3.345-3.1463c-.4823-.3876-1.1732.2948-.6862.6862Z"/><path class="cls-1" d="M89.1745,95.6418H85.0338a.4855.4855,0,0,0,0,.97h4.1407a.4855.4855,0,0,0,0-.97Z"/><path class="cls-1" d="M89.8706,96.0751a20.0758,20.0758,0,0,0-2.3356,2.553,24.1251,24.1251,0,0,1-3.4567,2.8291c-.5024.3614-.0185,1.2036.49.8379a31.038,31.038,0,0,0,3.0859-2.4219c.9693-.9035,1.646-2.172,2.7064-2.96.4956-.3684.0122-1.2111-.49-.838Z"/><path class="cls-1" d="M148.6,14.8122a24.1537,24.1537,0,0,0-3.3091.8972c-.586.2044-.3339,1.1422.2579.9357a24.1651,24.1651,0,0,1,3.3092-.8971c.6123-.12.3531-1.0557-.258-.9358Z"/><path class="cls-1" d="M145.4793,11.9557q.3354,1.6761.812,3.3164a.4857.4857,0,0,0,.9358-.258q-.477-1.6414-.812-3.3163c-.1224-.6119-1.058-.3529-.9358.2579Z"/><path class="cls-1" d="M144.3044,8.8489c1.3068-.2676,1.5228,1.7613,1.0973,2.5464-.2977.5492.54,1.04.8379.49.8666-1.5988-.0076-4.42-2.1932-3.9719-.6114.1252-.3526,1.0608.258.9357Z"/><path class="cls-1" d="M143.6406,8.02c-.867.3868-.5923,1.7131-.2725,2.3563.4312.8672,1.1375,1.8614,2.2272,1.74.6139-.0683.6208-1.04,0-.97-.5988.0666-.8973-.4227-1.1729-.8761-.11-.1811-.719-1.2214-.292-1.4119.5693-.254.0762-1.0905-.49-.838Z"/><path class="cls-1" d="M145.5484,8.83a1.2292,1.2292,0,0,0-1.29.4428c-.2983.355-.5794.86-.2622,1.3a.4991.4991,0,0,0,.6639.174.4889.4889,0,0,0,.174-.6638c.0259.0359-.0674.1308.01.0216a1.9283,1.9283,0,0,1,.1462-.198c.0855-.0932.17-.1817.3-.1408.597.188.8525-.7486.2579-.9357Z"/><path class="cls-1" d="M107.8708,40.4744c-1.7522,3.5863-5.34,5.4335-8.7739,7.1142-.5609.2745-.07,1.1117.49.8379,3.5833-1.754,7.2969-3.7267,9.1221-7.4624.2731-.5589-.5636-1.0514-.838-.49Z"/><path class="cls-1" d="M98.0184,44.7065a10.42,10.42,0,0,1-3.228,2.7806.4856.4856,0,0,0,.49.8379,11.5687,11.5687,0,0,0,3.5761-3.1287c.3782-.4968-.4642-.9808-.8379-.49Z"/><path class="cls-1" d="M93.9713,44.7473a5.8468,5.8468,0,0,1-2.2747,2.2946.4856.4856,0,0,0,.49.8379,6.7983,6.7983,0,0,0,2.6228-2.6427c.3024-.547-.5354-1.0371-.8379-.49Z"/><path class="cls-1" d="M99.9388,32.5773a23.8448,23.8448,0,0,0-8.4609,7.2789c-2.109,2.8325-4.5363,6.4784-4.9633,10.062-.0737.6188.8973.6135.97,0,.4037-3.3881,2.9706-7.1289,5-9.7889a22.7292,22.7292,0,0,1,7.9432-6.7141c.5591-.2784.0681-1.1157-.49-.8379Z"/></svg>