<svg id="圖層_1" data-name="圖層 1" xmlns="http://www.w3.org/2000/svg" viewBox="0 0 539.2251 185.1733"><defs><style>.cls-1{fill:#ee7960;}.cls-2{fill:#fff;}.cls-3{opacity:0.38;}.cls-4{fill:#343170;}.cls-5{fill:#eeb09b;}</style></defs><title>select-bg</title><path class="cls-1" d="M539.1967,99.7843c.0352-1.7124.0405-3.4051,0-5.0191V0H0V138.3059H.4536c-.7848,16.8519-1.0005,37.6849,4.6318,41.0182,4.2219,2.4985,17.4694-5.627,22.5287-6.3732a92.38,92.38,0,0,1,25.395.2089c17.6753,2.2985,35.13,7.7485,52.88,8.3985,18.1014.663,36.0721-3.6786,54.1128-5.7894,68.79-8.0486,138.0942,16.3606,206.7846,6.8855,16.3641-2.2573,32.5783-6.4293,48.9913-7.9022l123.4471,5.352s-.0284-23.7049-.0284-41.7983h0Z"/><path class="cls-2" d="M116.4165,115.8518l.0182-.0144c1.8929-1.8273,5.118-2.4186,7.5681-3.1836,2.4238-.7568,4.8688-1.4471,7.3353-2.0513a86.3368,86.3368,0,0,1,15.6012-2.441,60.0031,60.0031,0,0,1,15.6129,1.0464,30.2482,30.2482,0,0,1,7.14,2.2882c2.3014,1.1226,4.2288,2.8517,6.5422,3.9458.47.2221.8822-.4775.41-.7009-1.8874-.8927-3.4835-2.2381-5.2836-3.278a24.7137,24.7137,0,0,0-5.3514-2.2346,51.7579,51.7579,0,0,0-12.305-1.9262,82.6437,82.6437,0,0,0-25.2869,3.2165c-2.3667.6419-4.7133,1.3569-7.0407,2.1289-1.9271.6393-4.0179,1.17-5.5154,2.6158a.384.384,0,0,0-.1164.209c-3.95-.5534-4.6086-5.9565-6.8429-8.5172a8.9205,8.9205,0,0,0-8.1422-3.064,7.6027,7.6027,0,0,0-6.0894,5.7676c-.6691,3.2556.1391,7.9285,2.2732,10.5537a6.0986,6.0986,0,0,0,4.3353,1.9367,35.4529,35.4529,0,0,1,7.1333,1.3167c-3.2213,3.39-6.4,6.84-8.5859,11.014a55.6165,55.6165,0,0,0-4.2744,11.95c-1.1035,4.2605-2.0206,8.5757-3.394,12.7617-1.4615,4.4547-6.6392,14.6088-7.9308,19.1031a.4062.4062,0,0,0,.7827.2158c1.25-4.3477,6.3446-14.3819,7.79-18.68,1.3569-4.0339,2.268-8.1973,3.3126-12.3181a58.6619,58.6619,0,0,1,4.2125-12.2305c2.1916-4.3208,5.44-7.8531,8.75-11.336a.3873.3873,0,0,0,.0337-.5113.4257.4257,0,0,0-.1938-.661,27.0776,27.0776,0,0,0-6.3787-1.3246c-2.5313-.2228-4.6019-.6056-5.781-3.1188-1.9-4.05-2.6167-10.1508,1.8365-12.77,3.9677-2.3335,8.7507-.1769,10.8555,3.601,1.5973,2.8669,2.7062,6.862,6.5891,7.1575A.3627.3627,0,0,0,116.4165,115.8518Z"/><path class="cls-2" d="M225.85,144.7348a43.15,43.15,0,0,0-3.189-7.1,23.328,23.328,0,0,0-4.782-5.777,11.592,11.592,0,0,0-5.8216-3.4337c-2.7572-.4744-5.7873.0513-8.5567.2366a81.6058,81.6058,0,0,1-10.0705.2786c-3.1273-.1786-6.4549-1.0689-8.1387-3.8762-.0616-.1936-.13-.3934-.1982-.6014-.0972-.2953-.4072-.6878-.4986-1.0247a7.1724,7.1724,0,0,0-1.6832-3.647,10.0394,10.0394,0,0,0,3.8706-1.7817,7.7343,7.7343,0,0,0,2.65-3.0125c.8131-2.3451-1.0295-5.8811-2.7823-7.3684a5.1917,5.1917,0,0,0-6.5788-.4372c-2.5994,2.047-1.1053,5.4025-2.9024,7.7639-.3163.4157.3883.82.7009.41,1.1814-1.5524.8376-3.42,1.2748-5.2092a4.0757,4.0757,0,0,1,6.3652-2.365c1.88,1.2,3.7878,4.5181,3.1331,6.7971-.6539,2.2765-3.7991,4.0467-5.9846,4.3757a.3385.3385,0,0,0-.2247.1214.4385.4385,0,0,0-.2506.508c-.9316-.3984-2.0232-.61-2.8554-.884a.3455.3455,0,0,0-.4057.1188.4055.4055,0,0,0-.2041-.0636c-2.4645-.11-4.0788,1.1509-3.6609,3.5518.2108,1.2115.6989,3.2336,1.6566,3.9842a28.2164,28.2164,0,0,0,2.3912,1.5588,7.65,7.65,0,0,0,1.9487,1.133c1.1258.2836,2.8355-.7528,3.6882-1.4012a1.85,1.85,0,0,0,.7075-.9342c2.47,2.7459,6.6685,3.1459,10.2731,3.1488.7911.0006,1.5819-.0149,2.3723-.04a20.81,20.81,0,0,0-3.0548,2.067,31.7991,31.7991,0,0,1-6.8267,3.9716c-5.291,2.1573-11.0257,1.8917-16.6157,1.5715-.522-.03-.52.782,0,.8118,5.3425.3061,10.86.5835,15.9785-1.272a29.1729,29.1729,0,0,0,6.1838-3.1926c2.0659-1.3749,4.2338-3.8152,6.8891-3.7528a.3658.3658,0,0,0,.3873-.34c1.09-.0632,2.18-.137,3.27-.2106,2.7973-.189,6.1805-.8533,8.8748.1417,2.4088.89,4.3053,2.9721,6.0489,4.78a24.3438,24.3438,0,0,1,4.2443,6.7386,21.1433,21.1433,0,0,1,2.3735,8.08,37.08,37.08,0,0,1-.9723,8.7082,21.9,21.9,0,0,1-3.135,8.39c-1.7024,2.5515-6.5034,6.5857-8.6551,8.7676-.3672.3723.2065.9467.574.574,3.61-3.6606,10.0983-9.6263,11.3981-14.7073C226.3728,155.7458,227.506,149.916,225.85,144.7348Zm-41.2173-19.0781c.0562,1.5913-2.4172,2.7689-3.7783,2.3461a12.6376,12.6376,0,0,1-2.4575-1.55c-.8383-.53-1.4161-1.8584-1.9379-2.7347-1.2589-2.1148-.4407-4.2627,2.2583-4.1427a.353.353,0,0,0,.3028-.1265.4423.4423,0,0,0,.0912.0422,23.0827,23.0827,0,0,1,2.9585.8605c1.1222.5611,1.3,1.469,1.6768,2.6134.0689.2093.1652.4469.2684.6964a7.293,7.293,0,0,1,.0392.74.3666.3666,0,0,0,.2342.3577.4089.4089,0,0,0,.0417.2479c.09.1811.1875.3532.288.5212C184.6226,125.5706,184.6315,125.6156,184.6329,125.6567Z"/><path class="cls-2" d="M132.3249,123.0479a3.603,3.603,0,0,0-2.8619-1.1668,1.37,1.37,0,0,0-.6172.3286.4057.4057,0,0,0-.7319-.0829c-1.1124,1.9936-2.2832,4.8053-.1317,6.5712.9709.7968,3.2725,1.5906,4.5809.9155a5.9805,5.9805,0,0,1-4.2212,2.5139c-.5116.0635-.518.876,0,.8118,1.9957-.2479,4.6119-1.5394,5.2208-3.6216a.37.37,0,0,0-.2386-.4686A4.9208,4.9208,0,0,0,132.3249,123.0479Zm-.9673,5.9427a3.8967,3.8967,0,0,1-3.4232-1.6444,3.7563,3.7563,0,0,1,.1739-3.45c-.0929.51.6879.7279.7829.2146a1.3739,1.3739,0,0,1,2.01-1.0962,4.1817,4.1817,0,0,1,1.5222,1.408C133.26,125.7612,133.5643,128.8419,131.3576,128.9906Z"/><path class="cls-2" d="M182.9874,126.4624a8.0856,8.0856,0,0,1-1.7121-1.0878,1.7486,1.7486,0,0,0,1.2-.5874,2.1569,2.1569,0,0,0-.3313-2.8955,5.9983,5.9983,0,0,0-3.751-1.5385.352.352,0,0,0-.3639.4829.3285.3285,0,0,0-.2037.4406c.4614,1.2643.6886,2.7644,1.8473,3.6345.0108.0081.0226.0151.0337.023a8.5232,8.5232,0,0,0,2.8778,2.2038C183.0453,127.3555,183.451,126.6811,182.9874,126.4624Zm-1.3272-2.0289a1.2617,1.2617,0,0,1-1.4536-.1286c-.0321-.0388-.0657-.0757-.0972-.1152a.3442.3442,0,0,0-.1917-.128,2.6589,2.6589,0,0,1-.3871-.4842,11.92,11.92,0,0,1-.9029-2.4156,5.6763,5.6763,0,0,1,2.2722.76C181.644,122.3747,182.8143,123.7171,181.66,124.4335Z"/><path class="cls-2" d="M139.572,139.7281c-.4088.325.169.896.574.574a10.4386,10.4386,0,0,0,3.9274-8.8278c-.0313-.5191-.8433-.5227-.8118,0A9.6917,9.6917,0,0,1,139.572,139.7281Z"/><path class="cls-2" d="M144.5608,140.19a8.06,8.06,0,0,1,3.8153-4.1329c.4645-.2395.0543-.94-.41-.7009a8.9042,8.9042,0,0,0-4.1883,4.618C143.5809,140.4572,144.3659,140.6676,144.5608,140.19Z"/><path class="cls-2" d="M110.711,118.4006c-2.3557-.576-2.9282-3.1645-4.3226-4.8177a5.9927,5.9927,0,0,0-2.2414-1.6348c-.4841-.2123-1.3246-.7042-1.8707-.4757a.4324.4324,0,0,0-.298.3913,8.2007,8.2007,0,0,0,.7987,3.2124,7.059,7.059,0,0,0,1.8058,2.7649,6.1169,6.1169,0,0,0,5.5988,1.2962.4449.4449,0,0,0,.0654-.0236c.0812.0254.1636.0491.2482.07C111.0026,119.3075,111.219,118.5249,110.711,118.4006Zm-5.8316-1.3985a6.86,6.86,0,0,1-1.4667-2.545,9.5519,9.5519,0,0,1-.62-2.2386,6.5059,6.5059,0,0,1,2.7406,1.6192,14.2668,14.2668,0,0,1,1.7151,2.5939,7.02,7.02,0,0,0,1.7931,2.0739A5.171,5.171,0,0,1,104.8794,117.0021Z"/><path class="cls-2" d="M181.148,117.7759a12.6939,12.6939,0,0,0,3.3817-3.6085c.6077-.996,1.6415-2.7656.4445-3.74-2.5034-2.037-3.912,5.592-4.5608,6.606a.3709.3709,0,0,0,.1835.5563A.3489.3489,0,0,0,181.148,117.7759Zm2.1772-5.9839q.3534-.8341,1.26.4792a9.58,9.58,0,0,1-.5371,1.1121,10.8617,10.8617,0,0,1-2.3916,2.9447c.168-.4573.2928-.93.424-1.4252C182.3317,113.9531,182.5936,112.47,183.3252,111.792Z"/><path class="cls-2" d="M179.25,133.4726a.4062.4062,0,0,0-.41-.7009c-4.8892,2.9622-10.6461,2.2266-15.9145.8324a.4062.4062,0,0,0-.2158.7828C168.1853,135.8359,174.1783,136.5452,179.25,133.4726Z"/><path class="cls-2" d="M163.892,141.2551c.2737-.4467-.4281-.855-.7009-.41-.8339,1.3608-2.8553.5228-4.1089.4664-.5223-.0236-.5211.7883,0,.8117C160.7264,142.1975,162.8147,143.0133,163.892,141.2551Z"/><path class="cls-2" d="M154.4777,143.0483c-.1874-.4816-.9727-.2721-.7828.2158,1.1094,2.8511,5.1106,2.7644,7.6686,3.1131,2.8663.3908,5.0128-.998,6.7428-3.1946.32-.406-.2508-.9843-.574-.574-1.4122,1.7932-3.1942,3.238-5.6012,3.0277-1.261-.11-2.5386-.365-3.7875-.5668C156.7168,144.839,155.077,144.5885,154.4777,143.0483Z"/><path class="cls-2" d="M207.8274,134.3762c.3867-.353-.1886-.9257-.574-.5741-1.2368,1.1285-2.99,1.0516-4.5545.9646-.522-.0291-.52.7829,0,.8118C204.509,135.6791,206.4128,135.6668,207.8274,134.3762Z"/><path class="cls-2" d="M202.0591,139.7287c3.4116.0811,9.1219-.4961,10.1854-4.5428a.4062.4062,0,0,0-.7828-.2158c-.9541,3.63-6.375,4.0189-9.4026,3.9468A.4061.4061,0,0,0,202.0591,139.7287Z"/><path class="cls-2" d="M221.74,160.9662a8.6161,8.6161,0,0,0,2.3168-4.79c.0439-.5206-.7681-.5177-.8117,0-.126,1.4935-2.2578,4.3644-3.3228,5.2061-1.2252.9684-2.4626,1.922-3.7284,2.8372a48.7766,48.7766,0,0,1-7.5187,4.5837,27.358,27.358,0,0,1-9.0035,2.5838,95.55,95.55,0,0,1-9.7082.2286q-.8961,0-1.7927-.0007c-.0734-1.0552-.2715-2.589.38-3.25.8081-.82,2.7-.7482,3.7631-.7572,1.101-.0095,2.2029.0124,3.304.0206,1.8219.0137,1.9493,1.603,2.3062,3.05a.4062.4062,0,0,0,.7827-.2158c-.2656-1.0772-.4284-3.3959-1.7758-3.6225a27.1783,27.1783,0,0,0-5.2731-.0322c-1.2165.0487-2.9568.1919-3.8774,1.1169a1.4435,1.4435,0,0,0-.4.9707,20.672,20.672,0,0,0-.0072,2.7193q-1.1288,0-2.2575-.0009a.3665.3665,0,0,0-.01-.3824c-.5342-.9055-1.2743-2.3821-2.2922-2.844a3.81,3.81,0,0,0-1.5856-.1637c-.99-.0025-1.98.008-2.97.012a8.9539,8.9539,0,0,0-3.9389.4512,2.461,2.461,0,0,0-.9767.8081c-.3712.5787-.1164,1.1456-.3384,1.7574a.3473.3473,0,0,0,.0071.2785c-1.1479-.0165-2.2959-.0312-3.4436-.0551a59.1156,59.1156,0,0,1-19.3279-3.1553,19.4751,19.4751,0,0,1-8.3573-5.2711,27.43,27.43,0,0,1-4.35-8.1072c3.4419,4.0323,7.3925,7.74,12.3472,9.8028a19.09,19.09,0,0,0,8.2044,1.5443,49.02,49.02,0,0,0,9.1345-1.7512c3.2042-.7793,6.3958-1.6118,9.5661-2.52a57.9249,57.9249,0,0,1,10.1376-2.3975,95.6615,95.6615,0,0,1,9.8709-.1622l10.28.0459c1.7111.0077,3.5406.0805,5.3808.0564a.3487.3487,0,0,0-.1657.3313,14.5213,14.5213,0,0,1,.0475,2.132c-.1041.9772-.5442,1.0171-1.4216,1.2921a29.2884,29.2884,0,0,1-4.15.979,13.5871,13.5871,0,0,1-4.3914.3589c-1.5611-.3476-1.6459-3.1042-1.6972-4.3733-.021-.5206-.8329-.5233-.8118,0a12.85,12.85,0,0,0,.3924,2.7883,4.7041,4.7041,0,0,0,.9117,2.1855c.4325.3463,1.1961.2158,1.707.204a29.6493,29.6493,0,0,0,3.111-.2382,22.2471,22.2471,0,0,0,6.3344-1.5213c1.3584-.63.8356-2.57.78-3.807a.3868.3868,0,0,0-.2109-.3392c3.9971-.0878,8.0056-.6942,10.9271-3.4884.3783-.3618-.1963-.9353-.574-.5741-4.0656,3.8885-10.451,3.2277-15.6279,3.2046-6.37-.0284-12.8125-.3357-19.1752.0016-5.9607.316-11.662,2.5567-17.3958,4.0442-5.8886,1.5277-12.2536,3.7735-18.3311,2.1236-6.366-1.7282-11.2433-6.4214-15.3393-11.3688a.3649.3649,0,0,0-.6232.1063c-.2609-.0173-.5294.1794-.4111.4877a36.8623,36.8623,0,0,0,3.97,8.2422,17.1665,17.1665,0,0,0,6.7378,5.5289c6.0221,2.8928,12.7994,4.0273,19.4216,4.329,7.0106.3193,14.0566.2481,21.0774.2391a.4489.4489,0,0,0,.49,0c.3774,0,.755-.0013,1.1322-.0011,6.66.0032,13.117.1651,19.3115-2.6394a50.0893,50.0893,0,0,0,9.2294-5.6788C219.071,163.088,220.409,162.0315,221.74,160.9662Zm-47.99,10.5764a.4505.4505,0,0,0,.0357-.0745,5.0044,5.0044,0,0,0,.1181-.77c.2325-.9857.4888-1.2632,1.4265-1.5022a14.7888,14.7888,0,0,1,3.4667-.15,11.0564,11.0564,0,0,1,3.4992.1714c.9934.3445,1.57,1.5083,2.0911,2.3957Q179.0686,171.6045,173.75,171.5426Z"/><path class="cls-2" d="M170.0534,168.79a26.528,26.528,0,0,1-4.1187.6351c-2.28.27-7.4559,1.0791-7.7957-2.3255-.0514-.515-.8637-.52-.8118,0,.4356,4.3642,6.5232,3.4239,9.4485,3.0307,1.5475-.208,4.0166-.1333,5.0837-1.5239,1.1115-1.4484.3209-3.3081-.3882-4.7321-.2329-.4677-.9334-.057-.701.41C171.5388,165.8272,172.3549,168.1291,170.0534,168.79Z"/><path class="cls-2" d="M123.67,120.6624a.3778.3778,0,0,0-.5459-.1587,28.75,28.75,0,0,0-5.6909,4.1094c-1.5768,1.6017-1.8451,3.6767-1.6441,5.8382.1774,1.9078.6169,4.394,2.0927,5.7612,1.5,1.3893,4.2946,1.5086,6.2269,1.6885,4.19.39,8.8255-.72,10.9271-4.7169,1.7588-3.3454,1.6942-8.2045-.8173-11.1741C131.49,118.7836,127.1582,118.9835,123.67,120.6624Zm7.3657,15.3781a12.8679,12.8679,0,0,1-7.423.9964,22.0555,22.0555,0,0,1-3.6718-.6628,3.9768,3.9768,0,0,1-2.7351-3.0125c-.7894-2.3951-1.2707-5.7951.513-7.8677a16.4424,16.4424,0,0,1,3.66-2.9721.339.339,0,0,0,.534.1526c3.8462-2.8764,10.2717-3.8412,12.67,1.4241C136.4628,128.2259,135.2181,133.8754,131.0359,136.0405Z"/><path class="cls-2" d="M175.0741,48.2507a14.3863,14.3863,0,0,0-12.605,2.2752c-.322.24-.0076.7882.3186.545a13.7818,13.7818,0,0,1,12.1186-2.2116.3158.3158,0,0,0,.1678-.6086Z"/><path class="cls-2" d="M172.2277,52.5924a6.9356,6.9356,0,0,1,2.26-3.23,3.1521,3.1521,0,0,1,4.0064.7648,10.2,10.2,0,0,1,2.1639,3.4268,7.213,7.213,0,0,1,.1444,3.7044c-.223,1.9419.6516,4.1925,1.0946,6.0589q.8241,3.4729,1.7642,6.9165l.5769-.2432a33.3168,33.3168,0,0,1-2.8434-5.5821c-.6106-1.5616-.9872-3.2177-1.6741-4.7481-.9711-2.1638-3.2642-4.4137-5.8249-3.2246-2.784,1.2927-2.2248,5.8316-3.5265,8.1717-.9631,1.7314-2.6368,2.2938-4.2387,3.2579a23.4759,23.4759,0,0,0-4.0984,3.1632c-.2944.2811.1524.727.4463.4463a22.7676,22.7676,0,0,1,3.7731-2.9426,28.8228,28.8228,0,0,0,3.3161-1.9268c2.1883-1.7949,2.2006-4.81,3.0024-7.296a3.1346,3.1346,0,0,1,2.2234-2.4786,3.2787,3.2787,0,0,1,2.7511.8086,8.7083,8.7083,0,0,1,2.29,4.1667,37.0535,37.0535,0,0,0,3.8584,8.503.3171.3171,0,0,0,.5769-.2432q-1.2132-4.4651-2.2424-8.9768c-.1743-.7682-.3774-1.5417-.5087-2.319a9.9663,9.9663,0,0,1,.1418-2.7648,6.3648,6.3648,0,0,0-.7153-3.3553c-.8718-1.8294-2.38-4.1023-4.5789-4.37-2.4012-.2923-3.8735,2.0953-4.6835,3.9938-.1577.37.3859.6915.545.3186Z"/><path class="cls-2" d="M162.3689,70.5474c-1.4875,1.6088-2.5281,3.5628-4.0429,5.167a24.54,24.54,0,0,1-5.2406,4.2087,35.9822,35.9822,0,0,1-5.9078,2.5593c-1.7564.668-2.1685,2.0931-2.8617,3.7144-.2144.5015-.64,2.0788-1.3466.8817a5.4378,5.4378,0,0,1-.252-1.5731c-.0586-.3771,0-1.1773-.434-1.4185-.8582-.4774-2.2473,1.4759-2.6513,2.0342a14.121,14.121,0,0,0-2.1763,5.7167c-.41,2.1388-.9416,4.4575-.2617,6.5873.123.3855.7327.2207.6086-.1678-.7614-2.3855-.0265-5.3028.57-7.6778a13.4938,13.4938,0,0,1,1.0978-3,8.6785,8.6785,0,0,1,.9616-1.453c.2066-.2539,1.213-1.5078,1.5307-1.42a15.06,15.06,0,0,1,.3979,2.54,1.5411,1.5411,0,0,0,.61,1.0417c1.0682.5657,1.5618-.9926,1.8488-1.6732.606-1.4376.9323-2.9035,2.5263-3.5238.9373-.3647,1.91-.6177,2.8426-1.0053a24.8739,24.8739,0,0,0,4.694-2.5743,25.29,25.29,0,0,0,4.0414-3.5107c1.4481-1.5586,2.4572-3.4553,3.8918-5.0069.2755-.298-.17-.7454-.4463-.4464Z"/><path class="cls-2" d="M171.8153,51.7192a28.1882,28.1882,0,0,1-3.0373,7.0082C167.23,61.2605,165.57,63.49,162.4005,63.73c-2.4128.1826-4.8482-.1733-7.2689-.0576a18.6758,18.6758,0,0,0-6.4584,1.3315c-3.9632,1.6877-6.9346,5.0653-9.0249,8.7443A53.12,53.12,0,0,0,134.4018,87.42c-1.2517,5.2081-1.5257,10.67.2976,15.7771.1356.38.7457.2161.6087-.1678a26.5822,26.5822,0,0,1-.4128-14.95,51.778,51.778,0,0,1,5.4236-14.23c2.3926-4.1342,5.9287-7.7432,10.6746-8.9652a27.0393,27.0393,0,0,1,7.6861-.5791c2.1065.0726,4.3841.3469,6.367-.5494,1.93-.8727,3.2112-2.9666,4.2765-4.71a28.8154,28.8154,0,0,0,3.1009-7.1589.3159.3159,0,0,0-.6087-.1678Z"/><path class="cls-2" d="M136.8844,87.22a16.6676,16.6676,0,0,0-.6293,13.65c.1476.3734.7583.2107.6086-.1678a16.0487,16.0487,0,0,1,.5658-13.1631c.1819-.362-.3625-.682-.5451-.3186Z"/><path class="cls-2" d="M173.7761,48.9962c-5.5045.4192-10.7858,2.9548-13.4014,8.0095-.1864.36.3581.68.545.3186,2.5132-4.8568,7.5639-7.2938,12.8564-7.6969.4024-.0306.4058-.6621,0-.6312Z"/><path class="cls-2" d="M173.1,49.8508a21.896,21.896,0,0,0-6.6825,2.9337,12.5573,12.5573,0,0,0-4.2152,5.04c-.1894.3591.3552.6784.545.3186a11.9178,11.9178,0,0,1,4.357-5.0442,21.919,21.919,0,0,1,6.1635-2.6392c.3957-.0911.2283-.7-.1678-.6087Z"/><path class="cls-2" d="M148.1783,82.5528a10.6128,10.6128,0,0,0-.7324,3.251c-.0144.2441.0108.506-.0227.7471l-.0446.3812q-1.1015.1356-1.0613-.6305c-.1571-.5188-.0551-1.0266-.2551-1.552-.143-.3759-.7535-.2129-.6086.1678.3019.7934.0393,1.8153.59,2.52a1.1573,1.1573,0,0,0,1.4485.3818,1.5508,1.5508,0,0,0,.5648-1.3847,11.3577,11.3577,0,0,1,.73-3.7141c.148-.3785-.4622-.5425-.6087-.1678Z"/><path class="cls-2" d="M142.9973,88.6572l-.52,21.19a.3158.3158,0,0,0,.6312,0l.52-21.19a.3158.3158,0,0,0-.6313,0Z"/><path class="cls-2" d="M146.9206,88.21q-.0416,10.1049.523,20.1969c.0226.4039.654.4066.6312,0q-.5645-10.0892-.523-20.1969a.3158.3158,0,0,0-.6312,0Z"/><path class="cls-2" d="M147.8008,108.8982l4.8441,1.0941c.3956.0893.5646-.5191.1678-.6087l-4.8441-1.094c-.3956-.0894-.5645.519-.1678.6086Z"/><path class="cls-2" d="M147.2622,108.5026a17.0423,17.0423,0,0,0,.6847,3.67c.1177.3876.7271.2224.6086-.1678a16.2792,16.2792,0,0,1-.6621-3.5026c-.0308-.4024-.6622-.4058-.6312,0Z"/><path class="cls-2" d="M148.2,109.4373a28.5171,28.5171,0,0,1,4.9854,3.0382c.3234.2456.6383-.3022.3186-.5451a28.515,28.515,0,0,0-4.9855-3.0381c-.3648-.174-.6854.37-.3185.545Z"/><path class="cls-2" d="M142.1878,110.6961a19.1975,19.1975,0,0,1,2.1757,2.0464c.274.3011.7194-.1463.4464-.4463a19.2083,19.2083,0,0,0-2.1758-2.0465c-.3137-.2521-.7631.1918-.4463.4464Z"/><path class="cls-2" d="M142.23,109.89h-2.6933a.3158.3158,0,0,0,0,.6312H142.23a.3158.3158,0,0,0,0-.6312Z"/><path class="cls-2" d="M142.6824,110.1721a13.0591,13.0591,0,0,0-1.5192,1.66,15.69,15.69,0,0,1-2.2484,1.84c-.3268.2351-.012.7829.3186.545a20.18,20.18,0,0,0,2.0072-1.5753,24.0744,24.0744,0,0,1,1.76-1.9254c.3223-.24.0079-.7878-.3186-.545Z"/><path class="cls-2" d="M180.8825,57.315a15.7226,15.7226,0,0,0-2.1524.5835c-.3812.133-.2172.743.1678.6087a15.719,15.719,0,0,1,2.1524-.5836c.3982-.0781.23-.6867-.1678-.6086Z"/><path class="cls-2" d="M178.8528,55.457q.2181,1.09.5282,2.1571a.3159.3159,0,0,0,.6087-.1678q-.31-1.0677-.5282-2.1571c-.08-.398-.6881-.23-.6087.1678Z"/><path class="cls-2" d="M178.0886,53.4362c.85-.1741.99,1.1456.7137,1.6563-.1936.3572.3512.6762.5451.3186.5636-1.04-.005-2.8747-1.4266-2.5836-.3977.0815-.2294.69.1678.6087Z"/><path class="cls-2" d="M177.6569,52.8972c-.564.2515-.3853,1.1142-.1773,1.5326.28.5641.74,1.2107,1.4487,1.1318.3993-.0444.4038-.6761,0-.6312-.3895.0434-.5837-.2749-.7629-.57-.0716-.1178-.4677-.7945-.19-.9184.37-.1652.05-.7093-.3185-.545Z"/><path class="cls-2" d="M178.8978,53.4241a.8.8,0,0,0-.8389.2881c-.194.2308-.3769.5591-.1706.8454a.3247.3247,0,0,0,.4318.1133.3181.3181,0,0,0,.1133-.4318c.0168.0233-.0439.0851.0066.014a1.2393,1.2393,0,0,1,.0951-.1288c.0556-.0606.11-.1181.1949-.0915.3884.1222.5545-.4869.1678-.6087Z"/><path class="cls-2" d="M154.3906,74.0068c-1.14,2.3327-3.4737,3.5342-5.707,4.6274-.3648.1786-.0452.7232.3186.5451,2.3307-1.141,4.7462-2.4241,5.9334-4.8539.1776-.3636-.3665-.6839-.545-.3186Z"/><path class="cls-2" d="M147.9821,76.76a6.7782,6.7782,0,0,1-2.1,1.8086.3158.3158,0,0,0,.3185.545,7.5237,7.5237,0,0,0,2.3261-2.0351c.246-.3231-.3019-.6379-.545-.3185Z"/><path class="cls-2" d="M145.35,76.7861a3.8033,3.8033,0,0,1-1.48,1.4925.3159.3159,0,0,0,.3186.5451,4.4224,4.4224,0,0,0,1.706-1.719c.1967-.3558-.3482-.6746-.545-.3186Z"/><path class="cls-2" d="M149.2312,68.87a15.5091,15.5091,0,0,0-5.5033,4.7345c-1.3718,1.8424-2.9507,4.2139-3.2284,6.5448-.048.4025.5837.3991.6312,0,.2626-2.2038,1.9322-4.637,3.2525-6.3671a14.7837,14.7837,0,0,1,5.1666-4.3672c.3637-.1811.0443-.7257-.3186-.545Z"/><g class="cls-3"><path class="cls-4" d="M256.4092,1.5644A182.5653,182.5653,0,0,0,305,54.562a180.6745,180.6745,0,0,0,70.5248,30.76A235.9864,235.9864,0,0,0,417.767,89.886c14.35.3027,28.9092-.3136,42.8974-3.7643,13.771-3.3971,26.2624-10.0507,38.4617-17.1052,11.7531-6.7966,23.5334-13.6,34.8018-21.1849a181.7613,181.7613,0,0,0,30.3762-24.9579A133.9152,133.9152,0,0,0,587.0365-9.5977c1.4393-2.8769,2.7679-5.8051,4.0161-8.77.2913-.6919-.8389-.9942-1.1267-.3106a135.9566,135.9566,0,0,1-20.825,34.4309,157.6312,157.6312,0,0,1-29.1337,26.4583c-10.5866,7.6269-21.7925,14.34-33.0493,20.9186-12.0014,7.0136-24.02,14.38-37.1766,19.0544-13.5131,4.8014-27.8986,6.3338-42.165,6.5617a246.0618,246.0618,0,0,1-42.483-2.8727c-25.5983-4.0646-50.196-12.8888-71.9355-27.0926A180.7307,180.7307,0,0,1,262.1913,8.4748q-2.48-3.69-4.7732-7.5a.5846.5846,0,0,0-1.0089.59Z"/></g><path class="cls-1" d="M544.7044,47.2777c1.3446,2.2,3.8427,3.6415,4.7238,6.0646a10.4039,10.4039,0,0,1,.4381,3.4066q.1213,7.5712.0268,15.1438a5.3719,5.3719,0,0,1-.3584,2.2628,1.8469,1.8469,0,0,1-1.8291,1.1349c-.4963-3.4076-2.6345-6.3166-4.705-9.0682-3.2117-4.2684-6.6876-8.7413-11.6789-10.6444-.31,1.3046.3707,2.6173,1.0125,3.7948a141.2355,141.2355,0,0,1,11.0115,26.1725,2.2987,2.2987,0,0,1,.1333,1.3008,2.3239,2.3239,0,0,1-.9982,1.1164l-15.4675,11.05q.5594-7.794.5653-15.6144a32.8516,32.8516,0,0,0-.7368-8.21,35.4633,35.4633,0,0,0-1.9865-5.3078l-1.8786-4.3045a3.195,3.195,0,0,0-.9569-1.4187,1.1015,1.1015,0,0,0-1.5349.1742,1.5831,1.5831,0,0,0-.1617.7574C519.8176,76.74,521.3618,88.59,518.81,99.97a2.1082,2.1082,0,0,1-2.459,2.1916c-3.3521-.03-6.75-.3292-10.0232.3958-4.1194.9125-8,3.4285-12.198,3.0046l4.4417-31.4781"/><path class="cls-1" d="M495.5811,47.6161c2.0327.6485,4.44,1.7461,4.5889,3.8744a1.3556,1.3556,0,0,1-.2892,1.0328c-.4794.5084-1.3139.2972-1.9739.0675a36.9486,36.9486,0,0,0-22.0891-.6356,8.7925,8.7925,0,0,0-3.3382,1.5524,9.7177,9.7177,0,0,0-2.4637,4.1244,89.8572,89.8572,0,0,0-4.3746,14.3852A101.957,101.957,0,0,1,483.64,67.036a1.6072,1.6072,0,0,1,1.3242.1514,1.0983,1.0983,0,0,1,.0619,1.4328,3.198,3.198,0,0,1-1.2656.9112L468.8945,76.876a5.994,5.994,0,0,0-2.6,1.9485,5.98,5.98,0,0,0-.6276,3.0585q-.2985,12-.43,24.0031a17.906,17.906,0,0,0,.5845,5.8437,2.0819,2.0819,0,0,0,.65,1.0657,2.2529,2.2529,0,0,0,1.55.2565c7.6678-.6711,14.49-4.9293,20.9785-9.07a3.7132,3.7132,0,0,0,2.0718-2.67c1.6166-5.33,3.246-10.7341,3.4465-16.3008a37.0938,37.0938,0,0,1,.3832-6.334,7.1153,7.1153,0,0,1,3.4627-5.0672"/><path class="cls-1" d="M495.4088,47.3893A47.8247,47.8247,0,0,0,482.27,45.9665a.895.895,0,0,1-.6773-.1637.8825.8825,0,0,1-.19-.5364l-.5422-4.544a1.9725,1.9725,0,0,1,.0634-1.0409,1.8249,1.8249,0,0,1,.8284-.76c3.2259-1.83,7.0962-2.0431,10.8048-2.0629,5.9278-.0317,12.1073.3885,17.2554,3.3273-.9137-2.1518-3.0761-3.4691-5.1632-4.522a61.9964,61.9964,0,0,0-12.8264-4.7769,2.0147,2.0147,0,0,1,1.0023-2.3173,5.641,5.641,0,0,1,2.6574-.5779,72.483,72.483,0,0,1,20.2332,1.7274c3.4815.836,7.12,2.1481,9.2151,5.052a4.5492,4.5492,0,0,0,.7657.9273,3.92,3.92,0,0,0,2.0455.6161,24.6221,24.6221,0,0,1,17.6122,11.2163"/><path class="cls-1" d="M526,35.8832c-4.3645,3.1115-8.7655,6.2551-12.3733,10.2192-3.2936,3.619-5.8505,7.84-8.9186,11.652-6.186,7.6859-14.37,13.6138-20.316,21.4865-1.8265,2.4182-3.4252,4.9989-5.021,7.5752l-9.9093,15.9987"/><path class="cls-1" d="M487.19,76.8477a73.6853,73.6853,0,0,0-1.6767,11.4612c-.0835,2.075.0079,4.1634-.2822,6.22a9.8463,9.8463,0,0,1-2.4641,5.6058"/><path class="cls-1" d="M486.5623,75.15c-2.0576.8893-4.29,1.4182-6.1725,2.6354a19.4972,19.4972,0,0,0-2.9372,2.5065l-6.1167,5.9625"/><path class="cls-1" d="M506.104,55.7512c3.11,3.599,4.4,8.4491,4.7814,13.1905s-.0488,9.51.0895,14.265c.0816,2.8027.2936,5.8553-1.3223,8.1466"/><path class="cls-1" d="M505.5569,54.9211c-5.6765-.9513-11.441.5966-16.9883,2.131l-17.0478,4.7154"/><path class="cls-1" d="M514.2555,45.4371c4.39,2.1958,9.1506,4.7893,10.8683,9.3875a34.4763,34.4763,0,0,1,1.1536,5.4316c1.5055,7.5849,6.77,14.1011,7.7988,21.7653"/><path class="cls-1" d="M514.569,45.7134a78.7088,78.7088,0,0,0-10.8884-3.4993,26.3284,26.3284,0,0,0-11.3541-.2268"/><path class="cls-1" d="M520.4848,38.465l-8.0157-4.0573c-3.1973-1.6183-6.6049-3.2808-10.1766-2.99"/><path class="cls-1" d="M521.8589,40.2793c5.223,1.5719,10.6814,3.2821,14.5045,7.1725a32.63,32.63,0,0,1,3.435,4.405L547.9,63.57"/><path class="cls-5" d="M543.457,47.4887a51.1247,51.1247,0,0,0,3.5579,4.0925c1.7942,2.2167,1.5495,4.9094,1.58,7.6014q.0432,3.7858.0326,7.572-.0053,1.8932-.0241,3.786c-.0137,1.3746.3461,4.3735-1.7845,4.3318l.4031.3069c-.7674-4.5594-4.0121-8.336-6.8088-11.85-2.7009-3.3939-5.77-6.5225-9.8671-8.1544a.4184.4184,0,0,0-.5142.292c-.2786,1.8944.6806,3.4114,1.5462,5.027q1.5875,2.9628,3.0313,6,2.9191,6.14,5.2354,12.5416c.7325,2.0255,1.4288,4.067,2.0585,6.1271a2.3648,2.3648,0,0,1-.0041,2.0186c-.2818.47-1.1728.89-1.6209,1.21l-2.8726,2.0521-11.49,8.2086.629.361q.3794-5.376.5085-10.7648a71.605,71.605,0,0,0-.205-10.5279,31.8989,31.8989,0,0,0-2.8316-8.768,31.2631,31.2631,0,0,0-1.9533-4.3706,1.9161,1.9161,0,0,0-2.0434-1.0241c-.9827.2667-.9823,1.2159-1.023,2.0612-.0849,1.7671-.0894,3.5408-.0888,5.31.0011,3.5474.0989,7.0939.1177,10.6411.0183,3.44-.0342,6.8847-.3214,10.3147-.1509,1.8021-.3659,3.599-.6724,5.3816-.149.8666-.3,1.7408-.5122,2.5942a2.38,2.38,0,0,1-2.5855,1.8778c-3.6987-.0379-7.374-.2877-10.97.7749-3.5507,1.0493-6.9113,2.921-10.7218,2.6323l.4032.5292,4.4416-31.4781c.0743-.5263-.7313-.7537-.8063-.2223L492.84,105.4512a.4271.4271,0,0,0,.4031.5292c2.895.2193,5.5723-.7624,8.2487-1.7407a26.9438,26.9438,0,0,1,9.7265-1.7443c1.5558.01,3.16.1967,4.7119.0779a2.268,2.268,0,0,0,2.0149-1.3112,14.2287,14.2287,0,0,0,.9369-4.035c.2523-1.51.4449-3.0311.5892-4.5556.6337-6.6977.3294-13.4335.28-20.148-.0117-1.5946-.01-3.1895.0215-4.7839a8.9017,8.9017,0,0,1,.0715-2.3864c.7958-2.2079,2.0681.8523,2.3027,1.39,1.3215,3.0281,2.8871,6.06,3.58,9.31.79,3.7038.5787,7.6234.5069,11.3865q-.1105,5.7927-.5252,11.573a.42.42,0,0,0,.6291.361L538.27,90.849c1.0311-.7367,2.0645-1.47,3.0935-2.21a4.2089,4.2089,0,0,0,1.511-1.4126,2.4778,2.4778,0,0,0-.0121-1.7925c-.3061-1.16-.7244-2.3092-1.1054-3.4469q-2.1523-6.4263-4.9124-12.627-1.3656-3.0716-2.8764-6.0757-.813-1.6171-1.6678-3.2127c-.7309-1.3643-1.7019-2.751-1.462-4.3827l-.5143.292c3.9462,1.5718,6.903,4.6783,9.4982,7.9393,2.7054,3.4,5.852,7.0744,6.5937,11.4814a.421.421,0,0,0,.4032.3069c2.3937.0468,2.5894-2.5515,2.612-4.3566q.0625-5.0025.02-10.0059c-.02-2.6937.44-6.01-.68-8.5395-1.01-2.28-3.2573-3.6818-4.5927-5.74-.2918-.45-1.016-.0312-.722.422Z"/><path class="cls-5" d="M494.5836,48.0192a10.6524,10.6524,0,0,1,2.7509,1.24,3.8684,3.8684,0,0,1,1.1829,1.17c.547.9228.2695,2.204-1.0437,1.8687-2.2254-.5681-4.3395-1.3206-6.6232-1.6807a37.6645,37.6645,0,0,0-13.3657.2867c-2.0465.4169-4.4439.8739-6.1026,2.2429a10.09,10.09,0,0,0-2.6559,4.3743,90.1488,90.1488,0,0,0-4.3745,14.3852c-.0582.2831.1932.6348.5143.5142a103.8388,103.8388,0,0,1,13.4182-4.0469q1.6463-.3753,3.3042-.6956a3.7724,3.7724,0,0,1,.7655-.1453c.6758.0295.3761-.462.7581.5813.369,1.008.3451.4812-.0949.8763a5.2715,5.2715,0,0,1-1.0971.5475l-6.69,3.3051-6.69,3.3051c-1.4386.7107-3.0665,1.3937-3.7446,2.9613-.7773,1.7968-.4679,4.1382-.5118,6.0467q-.0846,3.6819-.1535,7.3642c-.091,4.8631-.2352,9.7352-.2042,14.5993.0107,1.6756-.029,4.1552,1.0073,5.5885.8877,1.2278,2.7219.7386,3.9761.5436a36.9507,36.9507,0,0,0,11.7341-4.2809c1.923-1.0373,3.7916-2.1718,5.6414-3.3338,1.3-.8167,3.0817-1.5919,3.8478-2.9994a16.7333,16.7333,0,0,0,1.0592-3.2169c.3742-1.2545.7393-2.5119,1.0766-3.777a56.442,56.442,0,0,0,1.493-7.26c.341-2.6244.1807-5.2511.4161-7.8769.2313-2.5816,1.0916-5.2311,3.5106-6.536.4737-.2556.052-.9777-.422-.722-3.2254,1.74-3.9178,5.4835-4.0029,8.8438a57.5121,57.5121,0,0,1-2.0063,14.0866c-.3012,1.094-.621,2.1827-.9465,3.27-.3383,1.13-.5577,2.5784-1.4166,3.4437a14.5276,14.5276,0,0,1-2.6213,1.7641c-.9576.6044-1.9189,1.203-2.89,1.7851a46.6816,46.6816,0,0,1-11.9019,5.415,26.908,26.908,0,0,1-3.0292.6252,5.5169,5.5169,0,0,1-1.7236.1764,3.6385,3.6385,0,0,1-1.461-1.2745,4.8663,4.8663,0,0,1-.2842-1.1895,37.4723,37.4723,0,0,1-.1824-7.0361q.0908-7.2288.2419-14.4568c.0507-2.42.0355-4.8558.17-7.2726a3.973,3.973,0,0,1,1.73-3.4959,26.278,26.278,0,0,1,3.0111-1.5528c4.3746-2.1612,8.7994-4.2437,13.1319-6.4877.943-.4885,2.3094-1.5561,1.4786-2.7632-.8885-1.2909-3.5712-.1917-4.7256.05a103.6,103.6,0,0,0-15.1946,4.435l.5143.5142a77.3483,77.3483,0,0,1,2.1192-8.0229,61.9816,61.9816,0,0,1,2.8974-7.9062c1.3021-2.7128,3.5608-3.5593,6.3151-4.22a36.642,36.642,0,0,1,16.5864-.0843c1.1358.259,2.2534.5787,3.3609.9387a3.4294,3.4294,0,0,0,2.4016.2905c1.3377-.6081.8942-2.45.2152-3.3919a8.16,8.16,0,0,0-4.2481-2.5191c-.5123-.1684-.7319.6388-.2222.8063Z"/><path class="cls-5" d="M494.6336,46.9862a49.3049,49.3049,0,0,0-11.9241-1.46c-.73.0023-1.113.1832-1.58-.3716a2.9316,2.9316,0,0,1-.4053-1.6557,14.92,14.92,0,0,1-.3313-2.7769c.1823-2.1477,3.5856-2.7168,5.3489-3.0324a46.3426,46.3426,0,0,1,11.25-.2679,27.9429,27.9429,0,0,1,11.7244,3.1243.4216.4216,0,0,0,.5719-.5719,9.8977,9.8977,0,0,0-4.5755-4.2885,56.0547,56.0547,0,0,0-7.1186-3.1687q-1.9042-.7092-3.8519-1.2925a8.7585,8.7585,0,0,1-1.9556-.5509c-1.3553-.9084.7451-1.9918,1.5453-2.15a24.74,24.74,0,0,1,4.4824-.2032q2.4144-.0208,4.8269.1c5.5025.2822,11.6663.8805,16.7322,3.2307a12.4455,12.4455,0,0,1,3.009,1.9084c.8254.7271,1.3258,1.7935,2.1757,2.4667a5.3016,5.3016,0,0,0,2.6621.7577,23.6188,23.6188,0,0,1,3.6528.8252,24.4059,24.4059,0,0,1,13.2351,10.1322c.2886.4523,1.0126.0334.722-.422a25.1592,25.1592,0,0,0-13.3323-10.3872,23.9479,23.9479,0,0,0-2.86-.7537,18.3522,18.3522,0,0,1-2.96-.4959c-1.0212-.3946-1.6341-1.6889-2.4076-2.4388a11.61,11.61,0,0,0-2.1966-1.6457,20.9066,20.9066,0,0,0-5.3273-2.0807,65.95,65.95,0,0,0-14.4458-1.99,43.0761,43.0761,0,0,0-7.9638.1574c-1.6835.263-3.2654,1.4416-2.803,3.3126a.4162.4162,0,0,0,.2919.292A62.79,62.79,0,0,1,501.03,34.8234c2.7992,1.2569,6.1561,2.63,7.5354,5.5731l.572-.572a29.8875,29.8875,0,0,0-13.1145-3.2975c-4.2982-.2228-9.0555-.41-13.175,1.0449-1.3745.4856-3.2938,1.09-3.3257,2.7966a25.5952,25.5952,0,0,0,.3956,3.3832c.0732.6132-.0225,1.7338.4276,2.2621.4918.5772,1.448.3554,2.0986.35q1.8561-.016,3.71.1123a48.6316,48.6316,0,0,1,8.2574,1.3166c.5224.1284.7453-.6777.2223-.8063Z"/><path class="cls-5" d="M524.9022,35.5222c-4.589,3.2722-9.2273,6.5876-12.9626,10.8514C508.1438,50.7064,505.2127,55.7079,501.36,60c-3.6735,4.0928-7.7944,7.7466-11.6711,11.64a73.6236,73.6236,0,0,0-10.23,12.8205c-3.7919,6.02-7.4984,12.0948-11.2446,18.1431-.2841.4587.4389.879.722.422q4.9546-7.9994,9.9093-15.9987a78.7246,78.7246,0,0,1,10.0989-13.4324c3.7021-3.8451,7.7079-7.3848,11.387-11.2526,3.9053-4.1056,6.9537-8.7855,10.43-13.2324,4.0569-5.1889,9.239-9.07,14.5624-12.8656.4345-.31.0174-1.0352-.422-.7219Z"/><path class="cls-5" d="M485.9008,76.7365a75.0556,75.0556,0,0,0-1.6916,11.5724c-.1651,3.9579.2831,8.3866-2.624,11.53-.3649.3946.225.9873.5913.5912,2.549-2.7561,2.7664-6.4726,2.823-10.0433a74.02,74.02,0,0,1,1.7075-13.4279c.1053-.5254-.7-.75-.8062-.2223Z"/><path class="cls-5" d="M485.5647,74.7468c-2.7729,1.16-5.5753,1.8959-7.8853,3.9211-2.6179,2.2951-5.0328,4.8608-7.5255,7.2907-.386.3763.2055.9673.5912.5913,2.2692-2.212,4.5094-4.4592,6.8129-6.6354,2.4235-2.29,5.23-3.1073,8.229-4.3614.4891-.2046.2744-1.014-.2223-.8063Z"/><path class="cls-5" d="M504.922,56.0469c3.9061,4.6531,4.76,10.8514,4.8175,16.73.0314,3.2028-.14,6.4043-.087,9.6071.0491,2.9643.4584,6.1461-1.2473,8.7587-.295.4519.4286.8714.722.422,1.5923-2.439,1.4674-5.3384,1.3862-8.1354-.1084-3.7342.1189-7.4666.0551-11.2008-.1015-5.9446-1.1235-12.0887-5.0553-16.7725-.3464-.4126-.9352.1815-.5912.5913Z"/><path class="cls-5" d="M504.7816,54.5179c-5.593-.863-11.0805.4466-16.4526,1.922q-8.9073,2.4463-17.8058,4.9245a.4184.4184,0,0,0,.2223.8063q8.3907-2.3209,16.7815-4.6418c5.5385-1.5313,11.2449-3.0978,17.0323-2.2047.5264.0812.7533-.7243.2223-.8063Z"/><path class="cls-5" d="M513.1581,45.7981c3.0123,1.5113,6.1381,3.1139,8.4542,5.6228,2.7893,3.0213,2.7378,6.7371,3.737,10.4934,1.8562,6.9781,6.387,12.99,7.4374,20.2183.0771.5305.8829.3049.8063-.2222-1.1162-7.6811-6.1785-14.0032-7.7524-21.5428a33.0153,33.0153,0,0,0-1.35-6.0327,11.9784,11.9784,0,0,0-2.4249-3.65c-2.3558-2.4778-5.4657-4.0935-8.4854-5.6085-.48-.2407-.9035.48-.422.722Z"/><path class="cls-5" d="M513.7937,45.31c-7.177-2.6961-14.7134-5.374-22.4647-3.7261-.526.1118-.3034.918.2223.8063,7.5838-1.6123,15.0056,1.0911,22.02,3.7261.5043.1894.7222-.6185.2223-.8063Z"/><path class="cls-5" d="M519.8094,38.104c-3.183-1.6111-6.3465-3.2707-9.5578-4.8245-2.7867-1.3484-5.7-2.4594-8.8455-2.28-.535.03-.5385.8668,0,.8362,3.3426-.19,6.38,1.139,9.3083,2.6024,2.8981,1.4484,5.7823,2.925,8.673,4.3882.479.2424.9027-.4787.422-.722Z"/><path class="cls-5" d="M520.8613,40.6824c5.1652,1.557,10.6625,3.2328,14.4954,7.2489a61.8388,61.8388,0,0,1,5.6872,7.74l5.609,8.1088c.3041.44,1.0291.022.722-.422l-5.9206-8.5593c-1.8308-2.6467-3.5406-5.52-5.8385-7.7984-3.9215-3.8874-9.3785-5.5712-14.5322-7.1246a.4184.4184,0,0,0-.2223.8062Z"/><g class="cls-3"><path class="cls-4" d="M-18.387,142.448c29.0379-3.6824,56.7232-15.3928,81.1905-31.2029A239.89,239.89,0,0,0,97.4393,84.0734q7.9722-7.5413,15.1857-15.83a100.7484,100.7484,0,0,0,13.0955-18.1728c4.0649-7.5643,5.9509-15.7039,7.2621-24.13C134.3312,17.2753,135.3889,8.4316,139.14.4c.2911-.6232-.6356-1.17-.9285-.5427-6.3691,13.6367-5.0427,29.2554-10.4194,43.1889C122.4076,57,111.5129,68.6237,101.0821,79.0348A232.5135,232.5135,0,0,1,28.835,128.1894a177.0815,177.0815,0,0,1-47.222,13.1832c-.6772.0859-.6858,1.1623,0,1.0754Z"/></g><path class="cls-1" d="M-1.8282,44.3221c-1.4489,2.3707-4.1409,3.924-5.09,6.5351a11.2146,11.2146,0,0,0-.4721,3.6711q-.1307,8.1586-.0288,16.3189a5.79,5.79,0,0,0,.3862,2.4384,1.99,1.99,0,0,0,1.9711,1.223c.5347-3.6721,2.8389-6.8068,5.07-9.772,3.4609-4.6,7.2066-9.42,12.5852-11.47.3345,1.4059-.3995,2.82-1.0911,4.0893A152.198,152.198,0,0,0-.364,85.5589a2.4766,2.4766,0,0,0-.1437,1.4018,2.5039,2.5039,0,0,0,1.0756,1.203l16.6678,11.9074q-.6029-8.3987-.6092-16.826a35.3975,35.3975,0,0,1,.794-8.8472,38.2046,38.2046,0,0,1,2.1407-5.72L21.5855,64.04a3.445,3.445,0,0,1,1.0312-1.5288,1.187,1.187,0,0,1,1.654.1878,1.7051,1.7051,0,0,1,.1742.8161c.5449,12.5559-1.1191,25.3258,1.6311,37.5889a2.9976,2.9976,0,0,0,1.1916,2.1224,2.98,2.98,0,0,0,1.4582.2392c3.6123-.0328,7.2741-.3547,10.801.4265,4.4391.9834,8.6208,3.6946,13.1445,3.2377L47.885,73.2088"/><path class="cls-1" d="M51.107,44.6867c-2.19.6988-4.784,1.8816-4.945,4.1751a1.4608,1.4608,0,0,0,.3116,1.1129c.5166.5479,1.4159.32,2.1271.0728a39.8152,39.8152,0,0,1,23.8032-.685,9.4751,9.4751,0,0,1,3.5972,1.6729A10.47,10.47,0,0,1,78.656,55.48,96.8234,96.8234,0,0,1,83.37,70.9813a109.8615,109.8615,0,0,0-19.3957-5.3677,1.7313,1.7313,0,0,0-1.4268.1632,1.1833,1.1833,0,0,0-.0668,1.5439,3.4469,3.4469,0,0,0,1.3639.9819l16.02,7.9145a6.46,6.46,0,0,1,2.8019,2.1,6.4445,6.4445,0,0,1,.6763,3.2958q.3216,12.931.4635,25.8657a19.2963,19.2963,0,0,1-.63,6.2971,2.2429,2.2429,0,0,1-.7,1.1484,2.4269,2.4269,0,0,1-1.67.2764c-8.2629-.7231-15.6143-5.3118-22.6064-9.7737a4.0012,4.0012,0,0,1-2.2325-2.8774c-1.7421-5.7442-3.4979-11.5672-3.714-17.5658a39.97,39.97,0,0,0-.4129-6.8255,7.6675,7.6675,0,0,0-3.7314-5.46"/><path class="cls-1" d="M51.2926,44.4424a51.535,51.535,0,0,1,14.158-1.5333.9637.9637,0,0,0,.73-.1764.95.95,0,0,0,.2045-.578l.5843-4.8966a2.1247,2.1247,0,0,0-.0683-1.1217,1.9663,1.9663,0,0,0-.8927-.8194c-3.4762-1.9718-7.6468-2.2017-11.6432-2.223-6.3878-.0341-13.0467.4187-18.5944,3.5855.9846-2.3188,3.3148-3.7383,5.5639-4.8729A66.8047,66.8047,0,0,1,55.1562,26.659a2.1712,2.1712,0,0,0-1.08-2.4971,6.0789,6.0789,0,0,0-2.8637-.6227,78.1078,78.1078,0,0,0-21.8032,1.8614c-3.7518.9009-7.673,2.3148-9.93,5.444a4.9085,4.9085,0,0,1-.8251.9993,4.2241,4.2241,0,0,1-2.2043.6639A26.5332,26.5332,0,0,0-2.5292,44.5945"/><path class="cls-1" d="M18.328,32.0433c4.7032,3.353,9.4457,6.7406,13.3334,11.0123,3.5492,3.9,6.3045,8.4483,9.6107,12.5561,6.6661,8.2823,15.4845,14.67,21.8924,23.1539,1.9683,2.6058,3.6911,5.3867,5.4107,8.163l10.6782,17.24"/><path class="cls-1" d="M60.1489,76.1866a79.41,79.41,0,0,1,1.8068,12.3506c.09,2.236-.0085,4.4865.3041,6.7023a10.61,10.61,0,0,0,2.6554,6.0408"/><path class="cls-1" d="M60.8257,74.3571c2.2172.9583,4.6232,1.5283,6.6514,2.84a20.9984,20.9984,0,0,1,3.1651,2.701l6.5914,6.4251"/><path class="cls-1" d="M39.7675,53.4531c-3.3516,3.8783-4.741,9.1048-5.1524,14.2141s.0526,10.2482-.0965,15.3719c-.0878,3.02-.3163,6.31,1.425,8.7788"/><path class="cls-1" d="M40.3571,52.5585c6.1169-1.0251,12.3288.643,18.3066,2.2964l18.3707,5.0814"/><path class="cls-1" d="M30.9835,42.3386c-4.7307,2.3663-9.8607,5.161-11.7117,10.116a37.1549,37.1549,0,0,0-1.2431,5.8531c-1.6224,8.1735-7.2958,15.1953-8.404,23.4542"/><path class="cls-1" d="M30.6457,42.6364A84.8286,84.8286,0,0,1,42.379,38.8655a28.3719,28.3719,0,0,1,12.2351-.2443"/><path class="cls-1" d="M24.2708,34.8255l8.6378-4.3721c3.4453-1.7439,7.1173-3.5354,10.9662-3.2225"/><path class="cls-1" d="M22.79,36.7806C17.1617,38.4745,11.28,40.3174,7.16,44.51a35.162,35.162,0,0,0-3.7016,4.7468L-5.2721,61.8781"/><path class="cls-5" d="M-2.1892,44.7479c-1.4324,2.2194-3.8453,3.7207-4.9432,6.1691-1.1785,2.6281-.7094,6.0709-.7317,8.8716q-.042,5.3036.014,10.6075c.0211,1.9988.0005,5.2218,2.7879,5.1673a.4232.4232,0,0,0,.4031-.3069c.7825-4.702,4.1256-8.6137,7.0006-12.2441,2.8275-3.5705,6.0459-6.9906,10.3626-8.7063l-.5142-.292c.2585,1.65-.6725,3.0643-1.42,4.4525Q9.8464,60.1819,8.9671,61.92,7.326,65.1654,5.8413,68.4864q-2.9375,6.57-5.2528,13.396c-.4164,1.23-.8252,2.4634-1.2025,3.7058a3.5576,3.5576,0,0,0-.2547,2.22c.2729.7758,1.0454,1.22,1.6761,1.6748,1.0479.7554,2.1023,1.5019,3.1534,2.2527l13.0639,9.3329a.42.42,0,0,0,.6291-.361q-.4018-5.69-.5431-11.3941A89.5914,89.5914,0,0,1,17.2293,78.64c.3786-3.9271,1.9426-7.3952,3.5026-10.97l.911-2.0873c.22-.5054.494-1.5718.99-1.8983,1.586-1.0435,1.4179,1.0331,1.4346,1.5281q.018.5313.0313,1.0625.0405,1.5957.0451,3.192c.0321,7.2674-.3691,14.5442.0924,21.8052a67.7888,67.7888,0,0,0,1.3227,10.06,4.4374,4.4374,0,0,0,1.2088,2.6906c1.0513.8267,2.801.4857,4.026.4559a32.1767,32.1767,0,0,1,11.8,1.3974c3.2854,1.1511,6.5186,2.5831,10.0777,2.3074a.4272.4272,0,0,0,.4031-.5292L48.2881,73.7344c-.0748-.5306-.8806-.3048-.8062.2223l4.7863,33.9208.4031-.5293c-3.6474.2826-6.9369-1.2894-10.3058-2.4338a28.7785,28.7785,0,0,0-10.0177-1.308c-.9492.0175-1.898.0494-2.8472.0664-1.235.0221-2.34.0827-2.8339-1.3348a28.89,28.89,0,0,1-1.0341-5.3951,91.3542,91.3542,0,0,1-.7677-11.4952c-.05-3.906.0488-7.8116.0945-11.717.0208-1.7758.0315-3.5519.0131-5.3277q-.0138-1.33-.0518-2.6587a5.9859,5.9859,0,0,0-.2469-2.52,1.5016,1.5016,0,0,0-1.891-.6272c-1.1274.4085-1.5361,1.8175-1.9631,2.796a64.529,64.529,0,0,0-3.8023,9.53c-1.0163,3.9623-.8428,8.1629-.7842,12.2177q.0981,6.7905.5845,13.5666l.629-.3609L4.8333,91.3359,1.9051,89.244A8.0208,8.0208,0,0,1,.2162,87.9812c-.5868-.7639-.2458-1.44-.024-2.1708.7042-2.3186,1.493-4.6146,2.321-6.8917Q4.98,72.1341,8.0869,65.6067q1.5624-3.2835,3.2819-6.4894c.914-1.7038,1.9413-3.3219,1.6273-5.3254a.4185.4185,0,0,0-.5142-.292C8.0144,55.2754,4.683,58.7178,1.75,62.4211c-2.9661,3.7455-6.408,7.76-7.2157,12.6131l.4032-.3069c-2.2333.0437-1.9365-2.8863-1.9518-4.3312q-.0229-2.1759-.0295-4.3518-.0126-4.2159.037-8.4316c.0306-2.612-.2338-5.393,1.3832-7.6182,1.2544-1.7262,2.9913-3.02,4.156-4.8246.2927-.4535-.4308-.8731-.7219-.422Z"/><path class="cls-5" d="M50.9959,44.92c-2.1155.6942-5.7437,2.2153-5.229,5.09.238,1.3294,1.4546,1.492,2.5763,1.196,2.0842-.55,4.078-1.2657,6.21-1.6537a39.4236,39.4236,0,0,1,13.8125-.05,19.8043,19.8043,0,0,1,6.5158,1.9051c2.0507,1.2116,2.8494,3.4347,3.6506,5.5536a96.9893,96.9893,0,0,1,4.4348,14.7678l.5143-.5143a111.7805,111.7805,0,0,0-14.46-4.3607q-1.81-.4126-3.6328-.7638a5.6148,5.6148,0,0,0-2.6378-.2521,1.5275,1.5275,0,0,0-.5659,2.4147A6.22,6.22,0,0,0,64.6044,69.78l3.3982,1.6789,7.039,3.4776a40.5521,40.5521,0,0,1,6.2854,3.2389c2.1659,1.608,1.6215,4.9851,1.6767,7.3757q.181,7.8415.2962,15.6843c.0372,2.5381.0836,5.0768.0944,7.6151a23.2194,23.2194,0,0,1-.1956,3.6094,9.896,9.896,0,0,1-.4256,1.8413c-.3651,1.02-1.4932,1.1707-2.4526,1.0709a37.3378,37.3378,0,0,1-13.7014-4.72c-2.0215-1.0933-3.9874-2.2856-5.9335-3.5072-.9713-.61-1.9975-1.1873-2.9126-1.88-1.1912-.9015-1.4538-2.35-1.8637-3.7131-1.64-5.4565-3.1443-10.99-3.2589-16.723-.0851-4.2545-.0089-9.5373-4.3311-11.8561-.4741-.2544-.8969.4672-.4221.722,4.8037,2.577,3.6711,9,4.0294,13.5088a69.267,69.267,0,0,0,3.1,14.3164c.57,1.901.9057,3.5119,2.6141,4.6794,1.9339,1.3216,3.9674,2.5328,5.9857,3.72a49.3949,49.3949,0,0,0,12.3082,5.4791c1.72.4532,4.29,1.2554,6.0673.8051,1.5635-.3962,1.8384-2.3268,2.0337-3.6871a46.4416,46.4416,0,0,0,.1562-7.1539q-.05-3.99-.1165-7.98c-.0879-5.2513-.0615-10.5316-.3376-15.7767a5.0031,5.0031,0,0,0-1.9375-4.13,40.9351,40.9351,0,0,0-6.094-3.1421l-7.7672-3.8373c-1.2939-.6393-2.6016-1.2561-3.8836-1.9187a3.3277,3.3277,0,0,1-.75-.4116l.5573-1.5133.5217.0953a11.6055,11.6055,0,0,1,2.3417.46,111.5307,111.5307,0,0,1,16.5323,4.8122c.3211.1207.5724-.2311.5143-.5142a97.2631,97.2631,0,0,0-4.714-15.5015c-.7063-1.8248-1.4888-3.7009-3.1118-4.9007-1.7281-1.2775-4.0635-1.74-6.1228-2.17a40.5273,40.5273,0,0,0-14.5-.3565C52.837,48.966,50.54,49.7818,48.1209,50.4c-1.3869.3543-1.77-.98-1.1992-1.9968a4.1211,4.1211,0,0,1,1.3136-1.333,11.6874,11.6874,0,0,1,2.9828-1.3433c.509-.167.2911-.9747-.2222-.8063Z"/><path class="cls-5" d="M51.4038,45.4823a52.3373,52.3373,0,0,1,8.759-1.4094q2.1111-.1522,4.23-.1307c.6335.0065,1.5647.2246,2.0835-.2771.55-.5324.4424-1.8415.5216-2.5058a17.4594,17.4594,0,0,0,.4179-4.0251c-.2153-1.6389-2.588-2.2926-3.9071-2.7234-4.5338-1.481-9.7495-1.2645-14.4462-.9694A31.5308,31.5308,0,0,0,35.56,36.9553l.572.572c1.4886-3.1934,5.1423-4.6769,8.1746-6.037a67.5015,67.5015,0,0,1,10.9611-3.7914.4179.4179,0,0,0,.292-.292c1.1994-4.5312-6.843-3.7606-9.1672-3.7468a76.1363,76.1363,0,0,0-15.7893,1.6757c-4.0783.8911-8.4662,2.1691-11.1945,5.5516a5.1642,5.1642,0,0,1-1.2851,1.4448,5.9361,5.9361,0,0,1-2.0927.4494,26.0977,26.0977,0,0,0-8.6133,2.7709A27.1175,27.1175,0,0,0-2.89,45.02c-.29.4551.4333.875.722.422A26.3011,26.3011,0,0,1,10.04,35.2519a37.9926,37.9926,0,0,1,7.3015-1.81,3.4786,3.4786,0,0,0,2.2471-1.3952A12.9758,12.9758,0,0,1,22.79,29.01a24.495,24.495,0,0,1,7.7739-2.8111,70.5833,70.5833,0,0,1,9.9413-1.4622,86.3915,86.3915,0,0,1,9.6373-.1862c1.2228.0428,4.5761-.079,4.6525,1.7956.0363.89-1.0869.893-1.719,1.0725q-1.2255.348-2.4375.742a67.5138,67.5138,0,0,0-9.0588,3.6937c-2.4638,1.2208-4.9625,2.6607-6.17,5.2507a.4217.4217,0,0,0,.572.572,29.5926,29.5926,0,0,1,12.1167-3.331,51.3071,51.3071,0,0,1,12.409.2057c1.82.3043,5.5044.8772,6.0805,2.9616.2261.8181-.2921,2.5211-.3938,3.3736a3.1324,3.1324,0,0,1-.4529,1.8.5444.5444,0,0,1-.82.4266q-.529-.0109-1.0582-.0109a53.0331,53.0331,0,0,0-12.682,1.5727c-.5222.1287-.301.9352.2223.8063Z"/><path class="cls-5" d="M18.117,33.0411c5.0025,3.567,10.0361,7.1861,14.0663,11.8727,3.9084,4.545,6.9852,9.7264,10.9814,14.2065,3.9208,4.3954,8.33,8.3139,12.4908,12.474a80.6789,80.6789,0,0,1,11.47,14.43c3.95,6.3137,7.8456,12.6614,11.767,18.9925.2828.4566,1.0064.0372.722-.422q-5.4071-8.73-10.814-17.4593a84.6492,84.6492,0,0,0-10.861-14.409c-4.1934-4.3578-8.75-8.3519-12.88-12.7715-4.1593-4.45-7.3778-9.5715-11.18-14.303-4.2986-5.3488-9.7939-9.3782-15.34-13.3326-.4389-.3129-.8569.4119-.422.722Z"/><path class="cls-5" d="M59.7457,76.9346a79.9623,79.9623,0,0,1,1.8426,14.5646c.0577,3.8033.31,7.784,3.0313,10.7136.3669.3951.9572-.1972.5912-.5913-3.0774-3.3133-2.6808-8-2.8282-12.1894a79.1827,79.1827,0,0,0-1.8306-12.72c-.1056-.5272-.9116-.3041-.8063.2223Z"/><path class="cls-5" d="M60.7145,75.3971c3.1873,1.3356,6.2165,2.1989,8.7972,4.6289,2.5142,2.3673,4.9534,4.8191,7.4262,7.23.3856.3759.9774-.2148.5913-.5912-2.6869-2.6191-5.2917-5.378-8.11-7.8554-2.4818-2.1815-5.5-2.9685-8.4821-4.2181-.4956-.2077-.712.601-.2223.8063Z"/><path class="cls-5" d="M39.4719,53.7943c-4.3039,5.1183-5.3534,11.8569-5.4425,18.3465-.0547,3.99.1742,7.9777.0579,11.9682-.0858,2.9415-.1871,5.9987,1.4953,8.5567.2945.4477,1.0188.0293.722-.422C34.57,89.6066,34.87,86.41,34.9435,83.4014c.0874-3.5711-.1074-7.1408-.0832-10.7118.0433-6.4207.9264-13.2185,5.2029-18.304.3441-.4094-.2444-1.0038-.5913-.5913Z"/><path class="cls-5" d="M40.4683,53.5985c6.3234-.9806,12.56.7688,18.6091,2.4415Q68,58.5077,76.9232,60.9762a.4184.4184,0,0,0,.2223-.8062q-9.4417-2.6117-18.8836-5.2231c-5.8785-1.6189-11.8907-3.1045-18.0159-2.1547-.53.0822-.305.888.2223.8063Z"/><path class="cls-5" d="M30.7725,42.6144c-3.1919,1.6011-6.4623,3.3042-8.9885,5.8823a12.9554,12.9554,0,0,0-2.7455,4.0567,32.57,32.57,0,0,0-1.413,6.28c-1.6456,8.224-7.1947,15.0972-8.4039,23.4542-.0762.5263.7293.7536.8062.2223,1.1431-7.9,6.1627-14.4474,8.0976-22.1023.5016-1.9846.6538-4.0394,1.1784-6.0172A11.74,11.74,0,0,1,22.1,49.3763c2.4962-2.6911,5.8555-4.4153,9.0943-6.04.481-.2413.0581-.9628-.422-.722Z"/><path class="cls-5" d="M30.7568,43.6764c7.56-2.84,15.5724-5.7623,23.7462-4.0153.5247.1122.749-.6937.2222-.8063-8.3381-1.7821-16.47,1.1148-24.1907,4.0153-.499.1875-.2829.996.2223.8063Z"/><path class="cls-5" d="M24.4818,35.8233c3.1047-1.5715,6.2029-3.1565,9.3151-4.7132,3.1686-1.5849,6.4589-3.0342,10.0779-2.8243.5376.0312.5358-.8051,0-.8361-3.4093-.1978-6.5708,1.023-9.5885,2.488-3.4342,1.6673-6.82,3.44-10.2265,5.1636-.48.2431-.0574.9647.422.722Z"/><path class="cls-5" d="M22.679,37.0143c-5.6238,1.695-11.5809,3.539-15.8145,7.8366a58.144,58.144,0,0,0-5.95,7.9868l-6.5479,9.4662c-.3068.4435.4176.8621.722.422l5.9243-8.5647A72.0081,72.0081,0,0,1,7.1089,45.805c4.1408-4.4434,10.1486-6.2835,15.7923-7.9845a.4184.4184,0,0,0-.2222-.8062Z"/></svg>