<svg id="圖層_1" data-name="圖層 1" xmlns="http://www.w3.org/2000/svg" viewBox="0 0 124.9784 125.7173"><defs><style>.cls-1{fill:#eeb09b;}</style></defs><title>select-left</title><path class="cls-1" d="M7.7932,28.6663C5.8514,31.6751,2.58,33.71,1.092,37.03-.5056,40.5924.13,45.26.1,49.0564q-.0571,7.19.0189,14.38c.0285,2.71.0007,7.0791,3.7794,7.0052a.5738.5738,0,0,0,.5465-.4161c1.0609-6.3744,5.5929-11.6773,9.4905-16.599,3.8332-4.84,8.1962-9.4768,14.0483-11.8027l-.6972-.3959c.3505,2.2363-.9117,4.1542-1.9249,6.036Q24.11,49.59,22.9174,51.9464q-2.2247,4.3992-4.2375,8.9014-3.9822,8.9073-7.1209,18.16c-.5646,1.6671-1.1188,3.34-1.63,5.0239a4.8241,4.8241,0,0,0-.3453,3.01c.37,1.0517,1.4173,1.6541,2.2723,2.27,1.42,1.0241,2.85,2.0361,4.2749,3.054l17.71,12.6523a.57.57,0,0,0,.8528-.4894q-.5448-7.714-.7362-15.4466a121.4719,121.4719,0,0,1,.1608-14.47c.5132-5.3239,2.6336-10.0254,4.7483-14.8713l1.235-2.83c.299-.6851.67-2.1308,1.3426-2.5734,2.15-1.4146,1.9221,1.4,1.9448,2.0716q.0243.72.0424,1.44.0549,2.1631.0611,4.3273c.0436,9.8521-.5,19.7171.1253,29.5605A91.9039,91.9039,0,0,0,45.411,105.377c.2753,1.27.5494,2.7908,1.6388,3.6474,1.4251,1.1207,3.7971.6585,5.4578.6181,5.5355-.1348,10.7211.0462,15.9962,1.8944,4.4538,1.56,8.837,3.5019,13.662,3.1281a.5792.5792,0,0,0,.5465-.7175L76.2236,67.9623c-.1015-.7193-1.1938-.4132-1.093.3014l6.4887,45.9852.5465-.7174c-4.9447.383-9.4042-1.7481-13.9713-3.3a39.0168,39.0168,0,0,0-13.5807-1.7731c-1.2867.0237-2.573.067-3.86.09-1.6742.03-3.173.1121-3.8419-1.81A39.161,39.161,0,0,1,45.51,99.4253,123.8284,123.8284,0,0,1,44.47,83.8416c-.0674-5.2951.0661-10.59.128-15.8844.0282-2.4074.0428-4.815.0178-7.2225q-.0187-1.8024-.07-3.6043c-.0306-1.0354.18-2.4595-.3347-3.4162a2.0359,2.0359,0,0,0-2.5636-.85c-1.5284.5539-2.0825,2.464-2.6614,3.7905-1.84,4.2152-4.0075,8.4477-5.1546,12.92-1.3777,5.3716-1.1426,11.0662-1.0631,16.563q.1331,9.2058.7923,18.3919l.8528-.4894-17.1-12.2159-3.97-2.8359a10.875,10.875,0,0,1-2.29-1.712c-.7955-1.0356-.3332-1.9527-.0325-2.9428.9546-3.1434,2.024-6.256,3.1465-9.343q3.3446-9.1975,7.556-18.0465,2.1181-4.4514,4.4492-8.7975c1.239-2.31,2.6318-4.5034,2.2061-7.2195a.5675.5675,0,0,0-.6972-.3958C21.626,42.9381,17.11,47.6049,13.1339,52.6253c-4.0211,5.0776-8.687,10.52-9.782,17.0991l.5465-.4161c-3.0276.0593-2.6252-3.9128-2.6459-5.8716q-.0312-2.95-.04-5.9-.0171-5.7153.05-11.43c.0416-3.541-.317-7.3111,1.8752-10.3277,1.7005-2.34,4.0553-4.0941,5.6342-6.5406.3967-.6148-.5841-1.1837-.9788-.5721Z"/><path class="cls-1" d="M79.8944,28.9c-2.8678.9411-7.7865,3.0031-7.0887,6.9.3226,1.8021,1.9719,2.0227,3.4926,1.6213,2.8255-.7457,5.5284-1.7158,8.4187-2.2419a53.4476,53.4476,0,0,1,18.7251-.067c2.8961.5077,6.27,1.0685,8.8332,2.5826,2.78,1.6426,3.8629,4.6564,4.9491,7.5288a131.4905,131.4905,0,0,1,6.0121,20.02l.6971-.6972a151.5294,151.5294,0,0,0-19.6023-5.9116q-2.4536-.5593-4.9248-1.0355c-1.0746-.207-2.4755-.708-3.5761-.3417a2.0708,2.0708,0,0,0-.7671,3.2735c.7525,1.0366,2.178,1.5257,3.28,2.07l4.6068,2.276,9.5426,4.7144c2.7877,1.3773,6.0166,2.5319,8.5208,4.391,2.9363,2.18,2.1983,6.758,2.2731,9.9989q.2454,10.63.4014,21.2627c.05,3.4407.1135,6.8824.128,10.3235a31.4773,31.4773,0,0,1-.2651,4.8932,13.42,13.42,0,0,1-.5769,2.4961c-.495,1.3833-2.0244,1.5871-3.3249,1.4518-6.5773-.6845-12.8063-3.2784-18.5746-6.3981-2.74-1.4822-5.4056-3.0987-8.0438-4.7546-1.3168-.8266-2.708-1.61-3.9485-2.5485-1.6149-1.222-1.971-3.1853-2.5266-5.0337-2.2235-7.3971-4.2626-14.8986-4.418-22.6707-.1154-5.7678-.012-12.93-5.8715-16.073-.6428-.3448-1.2159.6334-.5721.9787,6.5121,3.4937,4.9766,12.2016,5.4624,18.3135.5268,6.6263,2.3011,13.0655,4.2028,19.4083.7727,2.5772,1.2278,4.761,3.5439,6.3437,2.6217,1.7916,5.3784,3.4336,8.1145,5.0432a66.9631,66.9631,0,0,0,16.6859,7.4278c2.3317.6144,5.8161,1.7019,8.2252,1.0915,2.12-.5372,2.4923-3.1545,2.757-4.9985a62.936,62.936,0,0,0,.2117-9.6983q-.0672-5.4095-.1578-10.8186c-.1192-7.1191-.0834-14.2774-.4577-21.3879-.12-2.2742-.726-4.2106-2.6265-5.5986-2.4519-1.7906-5.55-2.92-8.2616-4.26l-10.53-5.2021c-1.7541-.8666-3.5269-1.7029-5.2649-2.6011a4.5137,4.5137,0,0,1-1.0163-.558l.7555-2.0515.7073.1292a15.7249,15.7249,0,0,1,3.1746.6239A151.1944,151.1944,0,0,1,123.6323,65.64c.4353.1635.776-.3134.6972-.6972a131.8558,131.8558,0,0,0-6.3906-21.0149c-.9575-2.4738-2.0183-5.0172-4.2186-6.6437-2.3427-1.7318-5.5086-2.3594-8.3-2.9419a54.9426,54.9426,0,0,0-19.6573-.4833c-3.3722.5258-6.4859,1.6316-9.7656,2.4694-1.88.48-2.3993-1.328-1.6258-2.707a5.5868,5.5868,0,0,1,1.7809-1.8071,15.837,15.837,0,0,1,4.0437-1.8211c.69-.2264.3945-1.3214-.3014-1.093Z"/><path class="cls-1" d="M80.4474,29.6619a70.9592,70.9592,0,0,1,11.8743-1.9107q2.8618-.2064,5.7343-.1772c.8588.0088,2.1211.3045,2.8244-.3756.7463-.7217.6-2.4964.7072-3.3971.2029-1.7.7906-3.7514.5666-5.4566-.2919-2.2218-3.5086-3.108-5.2968-3.6921-6.1463-2.0077-13.217-1.7141-19.5842-1.3142-6.3652.4-12.6835,1.6384-18.3051,4.7637l.7754.7755c2.018-4.3292,6.9713-6.34,11.082-8.1842a91.5145,91.5145,0,0,1,14.86-5.14.567.567,0,0,0,.3959-.3958C87.7069-.9851,76.8041.06,73.6533.0783A103.2147,103.2147,0,0,0,52.2482,2.35C46.72,3.558,40.7709,5.2905,37.0723,9.8761A7.003,7.003,0,0,1,35.33,11.8348a8.05,8.05,0,0,1-2.837.6093A35.3736,35.3736,0,0,0,20.8164,16.2,36.7631,36.7631,0,0,0,6.8429,29.0355c-.3931.6171.5875,1.1863.9788.5721a35.6557,35.6557,0,0,1,16.55-13.8147A51.5085,51.5085,0,0,1,34.27,13.34a4.7159,4.7159,0,0,0,3.0464-1.8914,17.5878,17.5878,0,0,1,4.34-4.1169A33.21,33.21,0,0,1,52.1951,3.52a95.715,95.715,0,0,1,13.477-1.9821,117.0918,117.0918,0,0,1,13.0651-.2524c1.6577.058,6.2036-.1072,6.3072,2.4342.0492,1.2059-1.4735,1.2105-2.33,1.4539Q81.0526,5.6459,79.41,6.18a91.5114,91.5114,0,0,0-12.2806,5.0074c-3.34,1.6551-6.7275,3.6071-8.3641,7.1182a.5716.5716,0,0,0,.7754.7754,40.12,40.12,0,0,1,16.4263-4.5156,69.5544,69.5544,0,0,1,16.8224.2787c2.4673.4125,7.4621,1.1892,8.2431,4.015.3066,1.1091-.396,3.4177-.5339,4.5735a4.2469,4.2469,0,0,1-.6139,2.4408.7381.7381,0,0,1-1.111.5783q-.7172-.0148-1.4346-.0148a71.897,71.897,0,0,0-17.1925,2.1321c-.7079.1744-.4081,1.2678.3013,1.093Z"/><path class="cls-1" d="M35.3217,12.7958c6.7817,4.8356,13.6056,9.742,19.0691,16.0954,5.2985,6.1615,9.47,13.1858,14.8872,19.2592,5.3152,5.9588,11.2927,11.2709,16.9334,16.9106a109.3852,109.3852,0,0,1,15.5493,19.5619c5.3543,8.5592,10.636,17.1646,15.9522,25.7475.3833.619,1.3643.05.9787-.5721q-7.33-11.8345-14.66-23.669A114.7494,114.7494,0,0,0,89.3075,66.5956c-5.6848-5.9077-11.8617-11.3224-17.4615-17.314-5.6386-6.0331-10.0018-12.9757-15.1568-19.39C50.8617,22.64,43.4119,17.1778,35.8938,11.8171c-.595-.4243-1.1617.5583-.5721.9787Z"/><path class="cls-1" d="M91.7564,72.3007a108.4083,108.4083,0,0,1,2.4978,19.7447c.0783,5.156.4208,10.5525,4.1094,14.5241.4975.5356,1.2977-.2674.8015-.8016-4.1719-4.4918-3.6342-10.8451-3.8341-16.5247a107.3431,107.3431,0,0,0-2.4816-17.2439c-.1431-.7147-1.2359-.4122-1.093.3014Z"/><path class="cls-1" d="M93.07,70.2163c4.3209,1.8107,8.4275,2.9811,11.9261,6.2754,3.4083,3.2092,6.7151,6.533,10.0674,9.8008.5227.51,1.325-.2913.8015-.8015C112.2222,81.94,108.691,78.2,104.87,74.8416c-3.3645-2.9573-7.4566-4.0243-11.4989-5.7183-.6719-.2816-.9652.8148-.3014,1.093Z"/><path class="cls-1" d="M64.2718,40.93c-5.8346,6.9387-7.2575,16.074-7.3782,24.8717-.0742,5.41.2362,10.8151.0785,16.225-.1163,3.9876-.2536,8.1322,2.0271,11.6.3992.607,1.3812.04.9788-.5721-2.3513-3.575-1.9449-7.9087-1.8452-11.9872.1185-4.8412-.1456-9.68-.1129-14.5216.0588-8.7043,1.256-17.92,7.0534-24.8141.4667-.5549-.3312-1.3608-.8015-.8016Z"/><path class="cls-1" d="M65.6225,40.6647c8.5725-1.3293,17.0279,1.0424,25.2278,3.31q12.0966,3.3452,24.193,6.6918a.5672.5672,0,0,0,.3013-1.093q-12.8-3.5406-25.6-7.0808c-7.9692-2.1946-16.12-4.2086-24.4235-2.921-.7187.1114-.4135,1.2038.3013,1.093Z"/><path class="cls-1" d="M52.4783,25.7741c-4.3272,2.17-8.7607,4.4792-12.1854,7.9744A17.5622,17.5622,0,0,0,36.571,39.248c-1.1309,2.7171-1.3437,5.6558-1.9156,8.5135-2.2309,11.149-9.7536,20.4668-11.393,31.7961-.1032.7135.9888,1.0216,1.0931.3013C25.9051,69.15,32.71,60.2731,35.3331,49.8957c.68-2.69.8863-5.4762,1.5975-8.1574a15.9158,15.9158,0,0,1,3.791-6.7974c3.3839-3.6483,7.9381-5.9857,12.3288-8.1881.6521-.3271.0788-1.3052-.5721-.9787Z"/><path class="cls-1" d="M52.4571,27.2137c10.2488-3.85,21.1109-7.8117,32.1918-5.4434.7114.1521,1.0154-.94.3013-1.093-11.3037-2.416-22.3273,1.5112-32.7945,5.4433-.6766.2542-.3835,1.35.3014,1.0931Z"/><path class="cls-1" d="M43.95,16.5675c4.2089-2.13,8.409-4.2792,12.628-6.3895,4.2956-2.1486,8.7562-4.1134,13.6624-3.8288.7287.0423.7263-1.0914,0-1.1335-4.6219-.2681-8.9078,1.3869-12.9988,3.373-4.6556,2.26-9.2463,4.6629-13.8637,7-.651.3295-.0779,1.3077.5721.9787Z"/><path class="cls-1" d="M41.5062,18.1821c-7.624,2.2978-15.7,4.7977-21.4392,10.6238-3.1482,3.1957-5.526,7.1559-8.0657,10.8274L3.1245,52.4663c-.416.6014.5661,1.1687.9788.5721l8.0314-11.6108c2.636-3.8109,5.0956-7.9287,8.2637-11.3283,5.6135-6.0237,13.758-8.5182,21.4091-10.8242a.5672.5672,0,0,0-.3013-1.093Z"/></svg>