<svg id="圖層_1" data-name="圖層 1" xmlns="http://www.w3.org/2000/svg" viewBox="0 0 355.7949 93.9629"><defs><style>.cls-1{opacity:0.38;}.cls-2{fill:#343170;}</style></defs><title>select-line</title><g class="cls-1"><path class="cls-2" d="M0,0A194.0771,194.0771,0,0,0,51.6543,56.3393a192.0659,192.0659,0,0,0,74.9718,32.7,250.8538,250.8538,0,0,0,44.9061,4.8517c15.2545.3218,30.7321-.3334,45.6023-4.0017,14.6393-3.6113,27.9184-10.6844,40.8869-18.1837,12.4942-7.2252,25.0173-14.4579,36.9962-22.5207,11.57-7.7875,22.6512-16.4183,32.2916-26.5316A142.359,142.359,0,0,0,351.475-11.866c1.53-3.0582,2.9424-6.1711,4.2693-9.3225.31-.7356-.8917-1.0569-1.1977-.33a144.5322,144.5322,0,0,1-22.1381,36.602A167.5782,167.5782,0,0,1,301.4378,43.21c-11.2542,8.1078-23.1667,15.2445-35.1333,22.2376-12.7581,7.4558-25.5351,15.2866-39.5208,20.2559-14.3651,5.1041-29.6577,6.7332-44.8237,6.9754a261.5748,261.5748,0,0,1-45.1617-3.0538c-27.2124-4.3209-53.3612-13.7015-76.4715-28.8009a192.1274,192.1274,0,0,1-54.18-53.478Q3.51,3.4233,1.0725-.6269A.6215.6215,0,0,0,0,0Z"/></g></svg>