<svg id="圖層_1" data-name="圖層 1" xmlns="http://www.w3.org/2000/svg" viewBox="0 0 241.7533 220.0396"><defs><style>.cls-1{fill:#fff;}.cls-2{fill:#bfbbd0;}</style></defs><title>ticket</title><rect class="cls-1" width="241.7533" height="220.0396"/><path class="cls-2" d="M2.2131,77.74c7.4712,22.2889,11.3777,45.4474,15.4851,68.5312.98,5.5047,1.9731,11.0073,3.0449,16.4948.6292,3.2218.6661,8.852,3.5139,11.2133,1.994,1.6535,4.6434,1.1413,6.9581.7167,5.9313-1.0879,11.8187-2.669,17.7021-3.9976,23.2578-5.2522,46.4857-10.7642,70.0009-14.7645,23.0426-3.92,46.2766-6.5976,69.3153-10.5419,11.6622-1.9966,23.2763-4.312,34.736-7.2681,4.9761-1.2836,10.259-2.4267,15.0455-4.3129,2.0144-.7937,3.242-1.3531,3.6407-3.5172.7007-3.804-2.5591-9.8581-3.6427-13.5127q-2.5484-8.5948-4.7713-17.2818-4.4418-17.37-7.5542-35.0453-1.4571-8.2772-2.6168-16.6029c-.468-3.3562.0026-9.1043-2.413-11.8911-1.5029-1.7338-3.8078-1.83-5.9071-1.5573-5.5823.7245-11.246,3.0165-16.689,4.4762q-34.6576,9.2944-70.0032,15.7092C114.9747,56.9622,101.84,58.914,88.68,60.803c-3.3869.4862-5.6836.9355-7.202,4.0881-1.3518,2.8064-1.5638,6.7641-3.8615,9.0691-3.6575,3.6692-6.8025.0516-9.944-2.1712-3.8148-2.6992-7.6457-6.1229-12.4886-6.59C49.8721,64.6864,44.041,66.27,38.8066,67.06c-12.0975,1.8265-24.02,4.3745-35.3229,9.1554-1.0647.45-.2535,2.0536.809,1.6042,9.8316-4.1588,20.1349-6.594,30.64-8.3339,4.9262-.816,9.9019-1.6159,14.867-2.1616,7.0332-.7729,11.3971,2.0826,16.8722,5.9566,4.9846,3.5269,8.4315,7.8683,12.4369,1.68C81.43,71.3736,82.2087,64.7,86.3791,62.96c4.2763-1.7836,10.4637-1.469,15.0767-2.1569q31.5464-4.704,62.6915-11.7137,16.114-3.627,32.0824-7.865c4.7716-1.2662,9.5224-2.6038,14.28-3.9194,3.3013-.9128,7.9037-1.0466,9.6865,2.48,1.0345,2.0464.8074,6.224,1.1158,8.4353a471.2044,471.2044,0,0,0,12.7751,61.3913q1.9552,7.0165,4.1257,13.9706c1.0706,3.43,2.2472,6.7037-1.2755,8.6715-2.5683,1.4347-6.1507,1.89-8.9819,2.6758-9.9743,2.7687-20.0874,5.01-30.2562,6.9351-20.41,3.8648-41.0294,6.4544-61.5669,9.5234-20.8677,3.1183-41.5085,7.1951-62.0951,11.8023q-17.73,3.9679-35.4472,7.9981c-2.3749.5363-5.3194,1.7531-7.7447,1.749-4.9734-.0085-7.0459-3.995-7.9125-8.3484-1.1641-5.8486-2.2327-11.7158-3.2807-17.5862-4.1863-23.448-8.09-46.9875-15.681-69.6326-.3626-1.0819-2.1262-.728-1.7583.37Z"/><path class="cls-2" d="M75.2263,86.9259a27.1825,27.1825,0,0,1,1.5862,7.1373c.1013,1.1477,1.8591.7716,1.7584-.3695a28.812,28.812,0,0,0-1.74-7.5768c-.4028-1.0811-2.0047-.2659-1.6041.809Z"/><path class="cls-2" d="M79.8,107.2683l1.27,6.8959a.8989.8989,0,0,0,1.7583-.3695l-1.27-6.8959a.8989.8989,0,0,0-1.7583.37Z"/><path class="cls-2" d="M84.7256,125.7136l1.5425,8.3736a.8989.8989,0,0,0,1.7583-.3694l-1.5425-8.3737a.8989.8989,0,0,0-1.7583.37Z"/><path class="cls-2" d="M88.5475,149.1891a11.8646,11.8646,0,0,1,1.1762,3.6146c.1809,1.1412,1.9393.7719,1.7584-.3695a13.4608,13.4608,0,0,0-1.33-4.0541.8989.8989,0,0,0-1.6042.809Z"/><path class="cls-2" d="M98.7129,77.6827l111.32-20.5064a.8989.8989,0,0,0-.3695-1.7583L98.3434,75.9244a.8989.8989,0,0,0,.37,1.7583Z"/><path class="cls-2" d="M106.4255,119.551,213.6628,99.7966a.8989.8989,0,0,0-.37-1.7583L106.056,117.7926a.899.899,0,0,0,.37,1.7584Z"/><path class="cls-2" d="M102.9888,100.895,210.2261,81.1406a.8989.8989,0,0,0-.37-1.7583L102.6193,99.1366a.899.899,0,0,0,.37,1.7584Z"/><path class="cls-2" d="M110.3994,141.0777l108.4967-18.5089c1.139-.1943.7709-1.9529-.3695-1.7583L110.03,139.3193c-1.139.1943-.7709,1.9529.37,1.7584Z"/><path class="cls-2" d="M48.18,124.317a2.5887,2.5887,0,0,1-2.9637-2.0157,2.3868,2.3868,0,0,1,.3577-1.86,2.542,2.542,0,0,1,4.6444.8754h0a2.3909,2.3909,0,0,1-.3553,1.8586A2.6012,2.6012,0,0,1,48.18,124.317Zm-.6749-3.6639a1.2373,1.2373,0,0,0-.7818.5433,1.03,1.03,0,0,0-.1674.796,1.2036,1.2036,0,0,0,1.375.9726,1.2355,1.2355,0,0,0,.7818-.5433,1.0333,1.0333,0,0,0,.1675-.7954l-.0015,0A1.201,1.201,0,0,0,47.5046,120.6531Z"/><path class="cls-2" d="M46.2015,149.5948l-.1687.0256a2.5545,2.5545,0,0,1-2.8287-2.2392c-.2175-1.8773-.6058-4.5633-.9807-7.1617-.4024-2.7844-.8-5.5431-1.0318-7.5351-.0141-.1209-.0266-.2183-.038-.2954a7.0631,7.0631,0,0,0-2.0437.1847c-.3227.0567-.5658.1-.81.1383a33.1708,33.1708,0,0,1-6.6913.1658,5.27,5.27,0,0,1-2.5511-.6358c-2.1348-1.2586-2.3974-3.8695-1.7374-5.763,1.0743-3.083,3.9213-4.7692,5.8044-5.8846l1.9262-1.1412a22.3739,22.3739,0,0,1-9.9322-1.45,13.0617,13.0617,0,0,1-5.565-3.821A16.9636,16.9636,0,0,1,17.48,110.62l-1.8489-3.9084a2.55,2.55,0,1,1,4.6112-2.18l1.8488,3.9077a12.6727,12.6727,0,0,0,1.4264,2.5337A8.1809,8.1809,0,0,0,26.99,113.258a17.0788,17.0788,0,0,0,10.2326.6951q-.2122-.8639-.409-1.7314c-1.0562.0465-2.1069.0639-3.1355.0527a11.1362,11.1362,0,0,1-4.013-.62,8.81,8.81,0,0,1-4.2916-3.8447,19.7857,19.7857,0,0,1-1.7912-4.4173,2.5507,2.5507,0,0,1,4.8754-1.5014,15.719,15.719,0,0,0,1.307,3.3228,3.8524,3.8524,0,0,0,1.76,1.6914,6.7817,6.7817,0,0,0,2.2132.2687c.6881.0078,1.3818.0015,2.0743-.0189-.3371-2-.6117-4.0243-.8172-6.0294a2.55,2.55,0,1,1,5.0729-.5181,88.5043,88.5043,0,0,0,2.67,14.2924l4.3385-2.57a15.142,15.142,0,0,1,3.1387-1.5249c-.7809-3.8614-1.48-7.7591-2.08-11.5944a2.5365,2.5365,0,0,1,.4645-1.9026,2.58,2.58,0,0,1,1.6635-1.0108,2.5541,2.5541,0,0,1,2.9114,2.125c.3694,2.3605.7792,4.7634,1.2229,7.1573a11.303,11.303,0,0,0,2.9506-3.0056,4.2065,4.2065,0,0,0,.5736-3.5485,2.55,2.55,0,0,1,4.773-1.7979,9.2972,9.2972,0,0,1-.9877,7.9924,17.1736,17.1736,0,0,1-4.9721,4.9629,11.7376,11.7376,0,0,1-1.2765.8071q.233,1.1315.477,2.256a2.6341,2.6341,0,0,1,.0572.5628c.0753.1712.1453.3439.2127.5172a32.2632,32.2632,0,0,0,4.2732-1.3913,10.0384,10.0384,0,0,0,3.7235-2.2926,7.4392,7.4392,0,0,0,1.5682-3.9741,27.42,27.42,0,0,0-.0917-5.337l-.4073-5.0046a2.55,2.55,0,1,1,5.0826-.4135l.4059,4.99-.6845.0559.6851-.0525a31.25,31.25,0,0,1,.0736,6.3724,12.31,12.31,0,0,1-2.8077,6.7381,14.6418,14.6418,0,0,1-5.6339,3.6459,37.4686,37.4686,0,0,1-4.8882,1.5946c.7675,3.6031,1.4655,7.4218,2.085,10.8147.68,3.7278,1.4513,7.9527,2.3012,11.8027a2.55,2.55,0,0,1-1.941,3.0394c-.0288.0066-.0578.0127-.0855.0178a2.556,2.556,0,0,1-2.9544-1.9581c-.8694-3.9413-1.65-8.2144-2.3375-11.9851-.73-3.993-1.4671-8.0235-2.3009-11.8015a18.39,18.39,0,0,0-.96-3.3533,15.4432,15.4432,0,0,0-1.635.8841l-13.9512,8.2646c-1.4855.88-2.8617,1.7612-3.43,2.8207a27.032,27.032,0,0,0,5.2181-.13c.2242-.0351.4542-.0761.7-.12a9.25,9.25,0,0,1,4.8351.0656,4.6751,4.6751,0,0,1,2.0334,1.3379,5.6035,5.6035,0,0,1,1.1768,3.1353c.2228,1.9281.6349,4.7729.9976,7.2827.3968,2.7548.79,5.474,1.0157,7.4187A2.556,2.556,0,0,1,46.2015,149.5948Zm-7.948-32.06.7069,1.1994-5.1348,3.0427c-1.7121,1.0136-4.2981,2.5452-5.2072,5.1542a3.4074,3.4074,0,0,0,1.1369,4.1262,3.9477,3.9477,0,0,0,1.9046.4464,32.121,32.121,0,0,0,6.4279-.1507c.2349-.0365.469-.0775.6963-.1181a6.2883,6.2883,0,0,1,3.0357-.0984,1.4733,1.4733,0,0,1,.2526.1118l.21.1156.0911.22a3.7676,3.7676,0,0,1,.1822.93c.2317,1.9838.6277,4.7339,1.0124,7.3926.3925,2.7235.7826,5.4194,1.0022,7.3154a1.1777,1.1777,0,0,0,1.3027,1.0323l.0053-.001a1.1939,1.1939,0,0,0,1.027-1.3017c-.2237-1.926-.615-4.6353-.9926-7.2557-.4005-2.7671-.7945-5.4991-1.02-7.4411a4.2677,4.2677,0,0,0-.853-2.4,3.2965,3.2965,0,0,0-1.4465-.9383,7.904,7.904,0,0,0-4.1383-.011c-.2551.0456-.4956.0885-.7291.1254a30.4135,30.4135,0,0,1-5.9618.1242c-.1378-.0067-.2962-.0144-.4243-.0283l-.5751-.0613-.0368-.5775a1.9981,1.9981,0,0,1,.111-.7835c.5776-1.6592,2.3083-2.7944,4.184-3.9058l13.9512-8.2645a11.4837,11.4837,0,0,1,2.4853-1.2182l.53-.1549.2664.4826a15.9066,15.9066,0,0,1,1.3582,4.2458c.8383,3.8024,1.5778,7.8462,2.2927,11.7566.7031,3.8539,1.481,8.1138,2.3457,12.03a1.1972,1.1972,0,0,0,1.4016.8947,1.1742,1.1742,0,0,0,.8928-1.4006c-.8544-3.8751-1.6282-8.1126-2.31-11.8523-.6556-3.5889-1.3994-7.6564-2.2181-11.4263l-.1437-.6615.66-.1536a36.0474,36.0474,0,0,0,5.3418-1.6891,13.38,13.38,0,0,0,5.12-3.2815,10.95,10.95,0,0,0,2.4726-5.9931,30.1285,30.1285,0,0,0-.0787-6.0965l.6854-.0586-.6846.0558-.4059-4.99a1.176,1.176,0,0,0-2.3442.1909l.4057,4.9892a28.4505,28.4505,0,0,1,.0894,5.6283,8.7945,8.7945,0,0,1-1.9032,4.719,11.2443,11.2443,0,0,1-4.238,2.657,33.6729,33.6729,0,0,1-5.0718,1.5984l-.605.1394-.2011-.5875a12.1555,12.1555,0,0,0-.4438-1.1345l-.0736-.1626.0151-.1775a1.208,1.208,0,0,0-.0234-.3492q-.3017-1.3932-.5882-2.8l-.12-.586.5652-.2a9.0827,9.0827,0,0,0,1.496-.8905,15.9241,15.9241,0,0,0,4.5891-4.5524,7.9234,7.9234,0,0,0,.8753-6.7943,1.1751,1.1751,0,1,0-2.2.8283,5.5713,5.5713,0,0,1-.686,4.7467,13.7534,13.7534,0,0,1-3.9335,3.85l-1.1484.7842-.1951-1.0295c-.5228-2.7568-1.0032-5.5351-1.43-8.2571a1.176,1.176,0,0,0-1.3434-.9784,1.08,1.08,0,0,0-.7649.4644,1.1682,1.1682,0,0,0-.2137.8776c.629,4.0225,1.3676,8.1135,2.1962,12.1593l.1342.6544-.65.1526a12.3057,12.3057,0,0,0-3.3966,1.5478l-5.8784,3.4821-.244-.8581a89.6915,89.6915,0,0,1-2.9537-15.3895,1.1758,1.1758,0,0,0-2.3393.24c.2294,2.2313.5454,4.4876.9391,6.7065l.1368.772-.784.0345c-.9763.0434-1.9588.0605-2.9314.0493a7.8439,7.8439,0,0,1-2.6989-.3636,5.21,5.21,0,0,1-2.4429-2.2713,16.7769,16.7769,0,0,1-1.4364-3.6178,1.1753,1.1753,0,1,0-2.2465.6916,18.5291,18.5291,0,0,0,1.66,4.1219,7.45,7.45,0,0,0,3.6087,3.2648,9.9271,9.9271,0,0,0,3.5286.5246c1.186.0136,2.4056-.0131,3.6248-.0793l.5838-.0318.1255.57q.3315,1.5105.714,3.0089l.2321.9115-.9386-.0557a1.2707,1.2707,0,0,0-.36.0334,18.4233,18.4233,0,0,1-11.1913-.7191,9.4852,9.4852,0,0,1-4.0367-2.6979,13.69,13.69,0,0,1-1.6006-2.8122L18.9993,105.12a1.1742,1.1742,0,0,0-1.5652-.56,1.1765,1.1765,0,0,0-.5594,1.5651l1.8488,3.9077a15.8833,15.8833,0,0,0,1.8993,3.2854,11.7316,11.7316,0,0,0,5,3.4064A20.89,20.89,0,0,0,38.2535,117.535Z"/></svg>